<?xml version="1.0" encoding="UTF-8" standalone="no"?>
<!DOCTYPE svg PUBLIC "-//W3C//DTD SVG 1.1//EN"
 "http://www.w3.org/Graphics/SVG/1.1/DTD/svg11.dtd">
<!-- Generated by graphviz version 9.0.0 (0)
 -->
<!-- Title: player.hpp Pages: 1 -->
<svg width="340pt" height="156pt"
 viewBox="0.00 0.00 340.12 155.75" xmlns="http://www.w3.org/2000/svg" xmlns:xlink="http://www.w3.org/1999/xlink">

<svg id="main" version="1.1" xmlns="http://www.w3.org/2000/svg" xmlns:xlink="http://www.w3.org/1999/xlink" xml:space="preserve" onload="init(evt)">
<style type="text/css"><![CDATA[
.node, .edge {opacity: 0.7;}
.node.selected, .edge.selected {opacity: 1;}
.edge:hover path { stroke: red; }
.edge:hover polygon { stroke: red; fill: red; }
]]></style>
<script type="application/ecmascript" xlink:href="../../svg.min.js"/>
<svg id="graph" class="graph">
<g id="graph0" class="graph" transform="scale(1 1) rotate(0) translate(4 151.75)">
<title>player.hpp</title>
<!-- Node1 -->
<g id="Node000001" class="node">
<title>Node1</title>
<g id="a_Node000001"><a xlink:title=" ">
<polygon fill="#999999" stroke="#666666" points="214.88,-147.75 125.38,-147.75 125.38,-122.5 214.88,-122.5 214.88,-147.75"/>
<text text-anchor="middle" x="170.12" y="-130.45" font-family="Helvetica,sans-Serif" font-size="14.00">player.hpp</text>
</a>
</g>
</g>
<!-- Node2 -->
<g id="Node000002" class="node">
<title>Node2</title>
<g id="a_Node000002"><a xlink:href="../../d1/d52/gamePlayer_8cpp.html" target="_top" xlink:title=" ">
<polygon fill="white" stroke="#666666" points="126.25,-25.25 0,-25.25 0,0 126.25,0 126.25,-25.25"/>
<text text-anchor="middle" x="63.12" y="-7.95" font-family="Helvetica,sans-Serif" font-size="14.00">gamePlayer.cpp</text>
</a>
</g>
</g>
<!-- Node1&#45;&gt;Node2 -->
<g id="edge1_Node000001_Node000002" class="edge">
<title>Node1&#45;&gt;Node2</title>
<g id="a_edge1_Node000001_Node000002"><a xlink:title=" ">
<path fill="none" stroke="#63b8ff" stroke-width="2" d="M112.4,-125.35C89.35,-118.7 65.02,-107.02 51.12,-86.5 38.62,-68.02 48.66,-41 56.37,-25.58"/>
<polygon fill="#63b8ff" stroke="#63b8ff" stroke-width="2" points="111.51,-128.74 122.07,-127.8 113.24,-121.95 111.51,-128.74"/>
</a>
</g>
</g>
<!-- Node3 -->
<g id="Node000003" class="node">
<title>Node3</title>
<g id="a_Node000003"><a xlink:href="../../d7/d9b/gamePlayer_8hpp.html" target="_top" xlink:title=" ">
<polygon fill="white" stroke="#666666" points="188,-86.5 60.25,-86.5 60.25,-61.25 188,-61.25 188,-86.5"/>
<text text-anchor="middle" x="124.12" y="-69.2" font-family="Helvetica,sans-Serif" font-size="14.00">gamePlayer.hpp</text>
</a>
</g>
</g>
<!-- Node1&#45;&gt;Node3 -->
<g id="edge2_Node000001_Node000003" class="edge">
<title>Node1&#45;&gt;Node3</title>
<g id="a_edge2_Node000001_Node000003"><a xlink:title=" ">
<path fill="none" stroke="#63b8ff" stroke-width="2" d="M152.98,-112.04C146.35,-103.5 139.03,-94.07 133.42,-86.85"/>
<polygon fill="#63b8ff" stroke="#63b8ff" stroke-width="2" points="150.06,-113.99 158.96,-119.74 155.59,-109.7 150.06,-113.99"/>
</a>
</g>
</g>
<!-- Node4 -->
<g id="Node000004" class="node">
<title>Node4</title>
<g id="a_Node000004"><a xlink:href="../../d0/d8d/test2_2main_8cpp.html" target="_top" xlink:title=" ">
<polygon fill="white" stroke="#666666" points="240.38,-25.25 159.88,-25.25 159.88,0 240.38,0 240.38,-25.25"/>
<text text-anchor="middle" x="200.12" y="-7.95" font-family="Helvetica,sans-Serif" font-size="14.00">main.cpp</text>
</a>
</g>
</g>
<!-- Node1&#45;&gt;Node4 -->
<g id="edge5_Node000001_Node000004" class="edge">
<title>Node1&#45;&gt;Node4</title>
<g id="a_edge5_Node000001_Node000004"><a xlink:title=" ">
<path fill="none" stroke="#63b8ff" stroke-width="2" d="M185.86,-111.49C190.33,-103.89 194.66,-95.14 197.12,-86.5 203.08,-65.68 202.42,-40.16 201.32,-25.51"/>
<polygon fill="#63b8ff" stroke="#63b8ff" stroke-width="2" points="183.01,-109.45 180.58,-119.76 188.91,-113.21 183.01,-109.45"/>
</a>
</g>
</g>
<!-- Node5 -->
<g id="Node000005" class="node">
<title>Node5</title>
<g id="a_Node000005"><a xlink:href="../../db/d80/player_8cpp.html" target="_top" xlink:title=" ">
<polygon fill="white" stroke="#666666" points="332.12,-86.5 244.12,-86.5 244.12,-61.25 332.12,-61.25 332.12,-86.5"/>
<text text-anchor="middle" x="288.12" y="-69.2" font-family="Helvetica,sans-Serif" font-size="14.00">player.cpp</text>
</a>
</g>
</g>
<!-- Node1&#45;&gt;Node5 -->
<g id="edge6_Node000001_Node000005" class="edge">
<title>Node1&#45;&gt;Node5</title>
<g id="a_edge6_Node000001_Node000005"><a xlink:title=" ">
<path fill="none" stroke="#63b8ff" stroke-width="2" d="M205.53,-116.35C224.52,-106.81 247.42,-95.32 264.28,-86.85"/>
<polygon fill="#63b8ff" stroke="#63b8ff" stroke-width="2" points="204.08,-113.16 196.71,-120.78 207.22,-119.42 204.08,-113.16"/>
</a>
</g>
</g>
<!-- Node3&#45;&gt;Node2 -->
<g id="edge3_Node000003_Node000002" class="edge">
<title>Node3&#45;&gt;Node2</title>
<g id="a_edge3_Node000003_Node000002"><a xlink:title=" ">
<path fill="none" stroke="#63b8ff" stroke-width="2" d="M102.55,-51.92C93.46,-43.09 83.22,-33.14 75.45,-25.6"/>
<polygon fill="#63b8ff" stroke="#63b8ff" stroke-width="2" points="100,-54.32 109.61,-58.78 104.87,-49.3 100,-54.32"/>
</a>
</g>
</g>
<!-- Node3&#45;&gt;Node4 -->
<g id="edge4_Node000003_Node000004" class="edge">
<title>Node3&#45;&gt;Node4</title>
<g id="a_edge4_Node000003_Node000004"><a xlink:title=" ">
<path fill="none" stroke="#63b8ff" stroke-width="2" d="M149.57,-53.04C161.23,-43.94 174.68,-33.46 184.77,-25.6"/>
<polygon fill="#63b8ff" stroke="#63b8ff" stroke-width="2" points="147.63,-50.12 141.89,-59.02 151.93,-55.64 147.63,-50.12"/>
</a>
</g>
</g>
</g>
</svg>
</svg>

<style type='text/css'>
<![CDATA[
[data-mouse-over-selected='false'] { opacity: 0.7; }
[data-mouse-over-selected='true']  { opacity: 1.0; }
]]>
</style>
<script type="application/ecmascript"><![CDATA[
document.addEventListener('DOMContentLoaded', (event) => {
  highlightEdges();
  highlightAdjacentNodes();
});
]]></script>
</svg>
