<?xml version="1.0" encoding="UTF-8" standalone="no"?>
<!DOCTYPE svg PUBLIC "-//W3C//DTD SVG 1.1//EN"
 "http://www.w3.org/Graphics/SVG/1.1/DTD/svg11.dtd">
<!-- Generated by graphviz version 9.0.0 (0)
 -->
<!-- Title: bush.cpp Pages: 1 -->
<!--zoomable 217 -->

<svg id="main" version="1.1" xmlns="http://www.w3.org/2000/svg" xmlns:xlink="http://www.w3.org/1999/xlink" xml:space="preserve" onload="init(evt)">
<style type="text/css"><![CDATA[
.node, .edge {opacity: 0.7;}
.node.selected, .edge.selected {opacity: 1;}
.edge:hover path { stroke: red; }
.edge:hover polygon { stroke: red; fill: red; }
]]></style>

<defs>
  <circle id="rim" cx="0" cy="0" r="7"/>
  <circle id="rim2" cx="0" cy="0" r="3.5"/>
  <g id="zoomPlus">
    <use xlink:href="#rim" fill="#404040"><set attributeName="fill" to="#808080" begin="zoomplus.mouseover" end="zoomplus.mouseout"/></use>
    <path d="M-4,0h8M0,-4v8" fill="none" stroke="white" stroke-width="1.5" pointer-events="none"/>
  </g>
  <g id="zoomMin">
    <use xlink:href="#rim" fill="#404040"><set attributeName="fill" to="#808080" begin="zoomminus.mouseover" end="zoomminus.mouseout"/></use>
    <path d="M-4,0h8" fill="none" stroke="white" stroke-width="1.5" pointer-events="none"/>
  </g>
  <g id="arrowUp" transform="translate(30 24)">
    <use xlink:href="#rim"/>
    <path pointer-events="none" fill="none" stroke="white" stroke-width="1.5" d="M0,-3.0v7 M-2.5,-0.5L0,-3.0L2.5,-0.5"/>
  </g>
  <g id="arrowRight" transform="rotate(90) translate(36 -43)">
    <use xlink:href="#rim"/>
    <path pointer-events="none" fill="none" stroke="white" stroke-width="1.5" d="M0,-3.0v7 M-2.5,-0.5L0,-3.0L2.5,-0.5"/>
  </g>
  <g id="arrowDown" transform="rotate(180) translate(-30 -48)">
    <use xlink:href="#rim"/>
    <path pointer-events="none" fill="none" stroke="white" stroke-width="1.5" d="M0,-3.0v7 M-2.5,-0.5L0,-3.0L2.5,-0.5"/>
  </g>
  <g id="arrowLeft" transform="rotate(270) translate(-36 17)">
    <use xlink:href="#rim"/>
    <path pointer-events="none" fill="none" stroke="white" stroke-width="1.5" d="M0,-3.0v7 M-2.5,-0.5L0,-3.0L2.5,-0.5"/>
  </g>
  <g id="resetDef">
    <use xlink:href="#rim2" fill="#404040"><set attributeName="fill" to="#808080" begin="reset.mouseover" end="reset.mouseout"/></use>
  </g>
</defs>
<script type="application/ecmascript">
var viewWidth = 2098;
var viewHeight = 217;
var sectionId = 'dynsection-0';
</script>
<script type="application/ecmascript" xlink:href="../../svg.min.js"/>
<svg id="graph" class="graph">
<g id="viewport">
<title>bush.cpp</title>
<!-- Node1 -->
<g id="Node000001" class="node">
<title>Node1</title>
<g id="a_Node000001"><a xlink:title=" ">
<polygon fill="#999999" stroke="#666666" points="1171.62,-209 1091.12,-209 1091.12,-183.75 1171.62,-183.75 1171.62,-209"/>
<text text-anchor="middle" x="1131.38" y="-191.7" font-family="Helvetica,sans-Serif" font-size="14.00">bush.cpp</text>
</a>
</g>
</g>
<!-- Node2 -->
<g id="Node000002" class="node">
<title>Node2</title>
<g id="a_Node000002"><a xlink:href="../../d3/d17/bush_8hpp.html" target="_top" xlink:title=" ">
<polygon fill="white" stroke="#666666" points="377.38,-147.75 295.38,-147.75 295.38,-122.5 377.38,-122.5 377.38,-147.75"/>
<text text-anchor="middle" x="336.38" y="-130.45" font-family="Helvetica,sans-Serif" font-size="14.00">bush.hpp</text>
</a>
</g>
</g>
<!-- Node1&#45;&gt;Node2 -->
<g id="edge1_Node000001_Node000002" class="edge">
<title>Node1&#45;&gt;Node2</title>
<g id="a_edge1_Node000001_Node000002"><a xlink:title=" ">
<path fill="none" stroke="#63b8ff" stroke-width="2" d="M1090.86,-192.36C958.78,-182.51 540.61,-151.35 390.6,-140.17"/>
<polygon fill="#63b8ff" stroke="#63b8ff" stroke-width="2" points="391.02,-136.69 380.78,-139.43 390.49,-143.67 391.02,-136.69"/>
</a>
</g>
</g>
<!-- Node3 -->
<g id="Node000003" class="node">
<title>Node3</title>
<g id="a_Node000003"><a xlink:title=" ">
<polygon fill="#e0e0e0" stroke="#999999" points="184.75,-86.5 0,-86.5 0,-61.25 184.75,-61.25 184.75,-86.5"/>
<text text-anchor="middle" x="92.38" y="-69.2" font-family="Helvetica,sans-Serif" font-size="14.00">SFML/Graphics/Rect.hpp</text>
</a>
</g>
</g>
<!-- Node1&#45;&gt;Node3 -->
<g id="edge7_Node000001_Node000003" class="edge">
<title>Node1&#45;&gt;Node3</title>
<g id="a_edge7_Node000001_Node000003"><a xlink:title=" ">
<path fill="none" stroke="#63b8ff" stroke-width="2" d="M1090.65,-194.71C943.93,-192.06 442.82,-180.74 286.38,-147.75 229.35,-135.73 166.83,-109.75 128.59,-92.28"/>
<polygon fill="#63b8ff" stroke="#63b8ff" stroke-width="2" points="130.36,-89.24 119.81,-88.21 127.41,-95.59 130.36,-89.24"/>
</a>
</g>
</g>
<!-- Node14 -->
<g id="Node000014" class="node">
<title>Node14</title>
<g id="a_Node000014"><a xlink:title=" ">
<polygon fill="#e0e0e0" stroke="#999999" points="1146,-147.75 956.75,-147.75 956.75,-122.5 1146,-122.5 1146,-147.75"/>
<text text-anchor="middle" x="1051.38" y="-130.45" font-family="Helvetica,sans-Serif" font-size="14.00">SFML/Graphics/Color.hpp</text>
</a>
</g>
</g>
<!-- Node1&#45;&gt;Node14 -->
<g id="edge6_Node000001_Node000014" class="edge">
<title>Node1&#45;&gt;Node14</title>
<g id="a_edge6_Node000001_Node000014"><a xlink:title=" ">
<path fill="none" stroke="#63b8ff" stroke-width="2" d="M1115.19,-183.38C1104.45,-175.43 1090.12,-164.82 1077.76,-155.66"/>
<polygon fill="#63b8ff" stroke="#63b8ff" stroke-width="2" points="1080.09,-153.04 1069.97,-149.9 1075.93,-158.66 1080.09,-153.04"/>
</a>
</g>
</g>
<!-- Node15 -->
<g id="Node000015" class="node">
<title>Node15</title>
<g id="a_Node000015"><a xlink:href="../../de/d46/engine_8hpp.html" target="_top" xlink:title=" ">
<polygon fill="white" stroke="#666666" points="1258.75,-147.75 1164,-147.75 1164,-122.5 1258.75,-122.5 1258.75,-147.75"/>
<text text-anchor="middle" x="1211.38" y="-130.45" font-family="Helvetica,sans-Serif" font-size="14.00">engine.hpp</text>
</a>
</g>
</g>
<!-- Node1&#45;&gt;Node15 -->
<g id="edge8_Node000001_Node000015" class="edge">
<title>Node1&#45;&gt;Node15</title>
<g id="a_edge8_Node000001_Node000015"><a xlink:title=" ">
<path fill="none" stroke="#63b8ff" stroke-width="2" d="M1147.56,-183.38C1158.3,-175.43 1172.63,-164.82 1184.99,-155.66"/>
<polygon fill="#63b8ff" stroke="#63b8ff" stroke-width="2" points="1186.82,-158.66 1192.78,-149.9 1182.66,-153.04 1186.82,-158.66"/>
</a>
</g>
</g>
<!-- Node21 -->
<g id="Node000021" class="node">
<title>Node21</title>
<g id="a_Node000021"><a xlink:href="../../d4/d3d/log_8hpp.html" target="_top" xlink:title=" ">
<polygon fill="#fff0f0" stroke="red" points="2089.62,-86.5 2021.12,-86.5 2021.12,-61.25 2089.62,-61.25 2089.62,-86.5"/>
<text text-anchor="middle" x="2055.38" y="-69.2" font-family="Helvetica,sans-Serif" font-size="14.00">log.hpp</text>
</a>
</g>
</g>
<!-- Node1&#45;&gt;Node21 -->
<g id="edge20_Node000001_Node000021" class="edge">
<title>Node1&#45;&gt;Node21</title>
<g id="a_edge20_Node000001_Node000021"><a xlink:title=" ">
<path fill="none" stroke="#63b8ff" stroke-width="2" d="M1172.02,-184.06C1199.63,-175.67 1236.58,-163.07 1267.38,-147.75 1285.53,-138.72 1286.12,-128.85 1305.38,-122.5 1451.05,-74.44 1837.13,-109.33 2008.11,-86.75"/>
<polygon fill="#63b8ff" stroke="#63b8ff" stroke-width="2" points="2008.39,-90.25 2017.78,-85.34 2007.38,-83.32 2008.39,-90.25"/>
</a>
</g>
</g>
<!-- Node24 -->
<g id="Node000024" class="node">
<title>Node24</title>
<g id="a_Node000024"><a xlink:title=" ">
<polygon fill="#e0e0e0" stroke="#999999" points="1420.38,-147.75 1314.38,-147.75 1314.38,-122.5 1420.38,-122.5 1420.38,-147.75"/>
<text text-anchor="middle" x="1367.38" y="-130.45" font-family="Helvetica,sans-Serif" font-size="14.00">system_error</text>
</a>
</g>
</g>
<!-- Node1&#45;&gt;Node24 -->
<g id="edge21_Node000001_Node000024" class="edge">
<title>Node1&#45;&gt;Node24</title>
<g id="a_edge21_Node000001_Node000024"><a xlink:title=" ">
<path fill="none" stroke="#63b8ff" stroke-width="2" d="M1171.94,-185.19C1209.05,-175.87 1264.44,-161.97 1306.79,-151.34"/>
<polygon fill="#63b8ff" stroke="#63b8ff" stroke-width="2" points="1307.41,-154.79 1316.26,-148.96 1305.71,-148 1307.41,-154.79"/>
</a>
</g>
</g>
<!-- Node2&#45;&gt;Node3 -->
<g id="edge2_Node000002_Node000003" class="edge">
<title>Node2&#45;&gt;Node3</title>
<g id="a_edge2_Node000002_Node000003"><a xlink:title=" ">
<path fill="none" stroke="#63b8ff" stroke-width="2" d="M294.98,-124.07C256.5,-114.73 198.64,-100.68 154.59,-89.98"/>
<polygon fill="#63b8ff" stroke="#63b8ff" stroke-width="2" points="155.47,-86.59 144.93,-87.64 153.82,-93.4 155.47,-86.59"/>
</a>
</g>
</g>
<!-- Node4 -->
<g id="Node000004" class="node">
<title>Node4</title>
<g id="a_Node000004"><a xlink:href="../../dc/d3e/animatedObject_8hpp.html" target="_top" xlink:title=" ">
<polygon fill="#fff0f0" stroke="red" points="473.25,-86.5 315.5,-86.5 315.5,-61.25 473.25,-61.25 473.25,-86.5"/>
<text text-anchor="middle" x="394.38" y="-69.2" font-family="Helvetica,sans-Serif" font-size="14.00">animatedObject.hpp</text>
</a>
</g>
</g>
<!-- Node2&#45;&gt;Node4 -->
<g id="edge3_Node000002_Node000004" class="edge">
<title>Node2&#45;&gt;Node4</title>
<g id="a_edge3_Node000002_Node000004"><a xlink:title=" ">
<path fill="none" stroke="#63b8ff" stroke-width="2" d="M348.11,-122.13C355.42,-114.67 365.04,-104.85 373.6,-96.09"/>
<polygon fill="#63b8ff" stroke="#63b8ff" stroke-width="2" points="376.04,-98.6 380.54,-89.01 371.04,-93.71 376.04,-98.6"/>
</a>
</g>
</g>
<!-- Node13 -->
<g id="Node000013" class="node">
<title>Node13</title>
<g id="a_Node000013"><a xlink:title=" ">
<polygon fill="#e0e0e0" stroke="#999999" points="297.75,-86.5 203,-86.5 203,-61.25 297.75,-61.25 297.75,-86.5"/>
<text text-anchor="middle" x="250.38" y="-69.2" font-family="Helvetica,sans-Serif" font-size="14.00">string_view</text>
</a>
</g>
</g>
<!-- Node2&#45;&gt;Node13 -->
<g id="edge5_Node000002_Node000013" class="edge">
<title>Node2&#45;&gt;Node13</title>
<g id="a_edge5_Node000002_Node000013"><a xlink:title=" ">
<path fill="none" stroke="#63b8ff" stroke-width="2" d="M318.97,-122.13C307.31,-114.1 291.71,-103.35 278.33,-94.14"/>
<polygon fill="#63b8ff" stroke="#63b8ff" stroke-width="2" points="280.47,-91.36 270.25,-88.56 276.49,-97.12 280.47,-91.36"/>
</a>
</g>
</g>
<!-- Node7 -->
<g id="Node000007" class="node">
<title>Node7</title>
<g id="a_Node000007"><a xlink:href="../../d9/d03/point2d_8hpp.html" target="_top" xlink:title=" ">
<polygon fill="#fff0f0" stroke="red" points="497.75,-25.25 397,-25.25 397,0 497.75,0 497.75,-25.25"/>
<text text-anchor="middle" x="447.38" y="-7.95" font-family="Helvetica,sans-Serif" font-size="14.00">point2d.hpp</text>
</a>
</g>
</g>
<!-- Node4&#45;&gt;Node7 -->
<g id="edge4_Node000004_Node000007" class="edge">
<title>Node4&#45;&gt;Node7</title>
<g id="a_edge4_Node000004_Node000007"><a xlink:title=" ">
<path fill="none" stroke="#63b8ff" stroke-width="2" d="M405.1,-60.88C411.71,-53.5 420.38,-43.81 428.14,-35.13"/>
<polygon fill="#63b8ff" stroke="#63b8ff" stroke-width="2" points="430.59,-37.64 434.65,-27.85 425.37,-32.97 430.59,-37.64"/>
</a>
</g>
</g>
<!-- Node15&#45;&gt;Node4 -->
<g id="edge14_Node000015_Node000004" class="edge">
<title>Node15&#45;&gt;Node4</title>
<g id="a_edge14_Node000015_Node000004"><a xlink:title=" ">
<path fill="none" stroke="#63b8ff" stroke-width="2" d="M1163.8,-123.74C1160.96,-123.28 1158.13,-122.86 1155.38,-122.5 860.54,-84.18 783.52,-112.96 487.38,-86.5 487.1,-86.48 486.82,-86.45 486.54,-86.42"/>
<polygon fill="#63b8ff" stroke="#63b8ff" stroke-width="2" points="487.04,-82.96 476.75,-85.47 486.36,-89.92 487.04,-82.96"/>
</a>
</g>
</g>
<!-- Node15&#45;&gt;Node7 -->
<g id="edge16_Node000015_Node000007" class="edge">
<title>Node15&#45;&gt;Node7</title>
<g id="a_edge16_Node000015_Node000007"><a xlink:title=" ">
<path fill="none" stroke="#63b8ff" stroke-width="2" d="M1163.8,-123.75C1160.96,-123.28 1158.13,-122.86 1155.38,-122.5 1015.24,-104.09 649.4,-144.21 520.38,-86.5 496.24,-75.7 475.66,-53.12 462.56,-35.93"/>
<polygon fill="#63b8ff" stroke="#63b8ff" stroke-width="2" points="465.55,-34.1 456.85,-28.05 459.89,-38.2 465.55,-34.1"/>
</a>
</g>
</g>
<!-- Node16 -->
<g id="Node000016" class="node">
<title>Node16</title>
<g id="a_Node000016"><a xlink:title=" ">
<polygon fill="#e0e0e0" stroke="#999999" points="787.5,-86.5 529.25,-86.5 529.25,-61.25 787.5,-61.25 787.5,-86.5"/>
<text text-anchor="middle" x="658.38" y="-69.2" font-family="Helvetica,sans-Serif" font-size="14.00">SFML/Graphics/RenderWindow.hpp</text>
</a>
</g>
</g>
<!-- Node15&#45;&gt;Node16 -->
<g id="edge9_Node000015_Node000016" class="edge">
<title>Node15&#45;&gt;Node16</title>
<g id="a_edge9_Node000015_Node000016"><a xlink:title=" ">
<path fill="none" stroke="#63b8ff" stroke-width="2" d="M1163.78,-123.88C1160.94,-123.38 1158.12,-122.92 1155.38,-122.5 1121.05,-117.31 935.04,-99.96 800.64,-87.71"/>
<polygon fill="#63b8ff" stroke="#63b8ff" stroke-width="2" points="801.1,-84.24 790.82,-86.81 800.46,-91.21 801.1,-84.24"/>
</a>
</g>
</g>
<!-- Node17 -->
<g id="Node000017" class="node">
<title>Node17</title>
<g id="a_Node000017"><a xlink:title=" ">
<polygon fill="#e0e0e0" stroke="#999999" points="1003.5,-86.5 805.25,-86.5 805.25,-61.25 1003.5,-61.25 1003.5,-86.5"/>
<text text-anchor="middle" x="904.38" y="-69.2" font-family="Helvetica,sans-Serif" font-size="14.00">SFML/Graphics/Shape.hpp</text>
</a>
</g>
</g>
<!-- Node15&#45;&gt;Node17 -->
<g id="edge10_Node000015_Node000017" class="edge">
<title>Node15&#45;&gt;Node17</title>
<g id="a_edge10_Node000015_Node000017"><a xlink:title=" ">
<path fill="none" stroke="#63b8ff" stroke-width="2" d="M1163.73,-124.18C1160.9,-123.6 1158.1,-123.04 1155.38,-122.5 1097.45,-110.99 1031.87,-98.57 982.28,-89.3"/>
<polygon fill="#63b8ff" stroke="#63b8ff" stroke-width="2" points="983.15,-85.9 972.68,-87.51 981.87,-92.78 983.15,-85.9"/>
</a>
</g>
</g>
<!-- Node18 -->
<g id="Node000018" class="node">
<title>Node18</title>
<g id="a_Node000018"><a xlink:title=" ">
<polygon fill="#e0e0e0" stroke="#999999" points="1203.62,-86.5 1021.12,-86.5 1021.12,-61.25 1203.62,-61.25 1203.62,-86.5"/>
<text text-anchor="middle" x="1112.38" y="-69.2" font-family="Helvetica,sans-Serif" font-size="14.00">SFML/System/Clock.hpp</text>
</a>
</g>
</g>
<!-- Node15&#45;&gt;Node18 -->
<g id="edge11_Node000015_Node000018" class="edge">
<title>Node15&#45;&gt;Node18</title>
<g id="a_edge11_Node000015_Node000018"><a xlink:title=" ">
<path fill="none" stroke="#63b8ff" stroke-width="2" d="M1191.34,-122.13C1177.52,-113.86 1158.88,-102.71 1143.18,-93.31"/>
<polygon fill="#63b8ff" stroke="#63b8ff" stroke-width="2" points="1145.35,-90.53 1134.98,-88.4 1141.76,-96.54 1145.35,-90.53"/>
</a>
</g>
</g>
<!-- Node19 -->
<g id="Node000019" class="node">
<title>Node19</title>
<g id="a_Node000019"><a xlink:title=" ">
<polygon fill="#e0e0e0" stroke="#999999" points="1400.75,-86.5 1222,-86.5 1222,-61.25 1400.75,-61.25 1400.75,-86.5"/>
<text text-anchor="middle" x="1311.38" y="-69.2" font-family="Helvetica,sans-Serif" font-size="14.00">SFML/System/Time.hpp</text>
</a>
</g>
</g>
<!-- Node15&#45;&gt;Node19 -->
<g id="edge12_Node000015_Node000019" class="edge">
<title>Node15&#45;&gt;Node19</title>
<g id="a_edge12_Node000015_Node000019"><a xlink:title=" ">
<path fill="none" stroke="#63b8ff" stroke-width="2" d="M1231.61,-122.13C1245.57,-113.86 1264.4,-102.71 1280.26,-93.31"/>
<polygon fill="#63b8ff" stroke="#63b8ff" stroke-width="2" points="1281.75,-96.5 1288.56,-88.39 1278.18,-90.48 1281.75,-96.5"/>
</a>
</g>
</g>
<!-- Node20 -->
<g id="Node000020" class="node">
<title>Node20</title>
<g id="a_Node000020"><a xlink:title=" ">
<polygon fill="#e0e0e0" stroke="#999999" points="1606.25,-86.5 1418.5,-86.5 1418.5,-61.25 1606.25,-61.25 1606.25,-86.5"/>
<text text-anchor="middle" x="1512.38" y="-69.2" font-family="Helvetica,sans-Serif" font-size="14.00">SFML/Window/Event.hpp</text>
</a>
</g>
</g>
<!-- Node15&#45;&gt;Node20 -->
<g id="edge13_Node000015_Node000020" class="edge">
<title>Node15&#45;&gt;Node20</title>
<g id="a_edge13_Node000015_Node000020"><a xlink:title=" ">
<path fill="none" stroke="#63b8ff" stroke-width="2" d="M1259.07,-124.74C1307.21,-115.26 1382.22,-100.5 1438.14,-89.49"/>
<polygon fill="#63b8ff" stroke="#63b8ff" stroke-width="2" points="1438.73,-92.94 1447.87,-87.57 1437.38,-86.07 1438.73,-92.94"/>
</a>
</g>
</g>
<!-- Node15&#45;&gt;Node21 -->
<g id="edge15_Node000015_Node000021" class="edge">
<title>Node15&#45;&gt;Node21</title>
<g id="a_edge15_Node000015_Node000021"><a xlink:title=" ">
<path fill="none" stroke="#63b8ff" stroke-width="2" d="M1259.23,-124.35C1263.66,-123.64 1268.09,-123.01 1272.38,-122.5 1595.19,-84.08 1684.85,-136.4 2008.19,-86.88"/>
<polygon fill="#63b8ff" stroke="#63b8ff" stroke-width="2" points="2008.45,-90.38 2017.79,-85.38 2007.37,-83.46 2008.45,-90.38"/>
</a>
</g>
</g>
<!-- Node6 -->
<g id="Node000006" class="node">
<title>Node6</title>
<g id="a_Node000006"><a xlink:title=" ">
<polygon fill="#e0e0e0" stroke="#999999" points="1844.38,-86.5 1624.38,-86.5 1624.38,-61.25 1844.38,-61.25 1844.38,-86.5"/>
<text text-anchor="middle" x="1734.38" y="-69.2" font-family="Helvetica,sans-Serif" font-size="14.00">SFML/Graphics/Drawable.hpp</text>
</a>
</g>
</g>
<!-- Node15&#45;&gt;Node6 -->
<g id="edge17_Node000015_Node000006" class="edge">
<title>Node15&#45;&gt;Node6</title>
<g id="a_edge17_Node000015_Node000006"><a xlink:title=" ">
<path fill="none" stroke="#63b8ff" stroke-width="2" d="M1258.93,-124.66C1263.46,-123.87 1268,-123.14 1272.38,-122.5 1305.11,-117.7 1485.74,-99.48 1611.19,-87.02"/>
<polygon fill="#63b8ff" stroke="#63b8ff" stroke-width="2" points="1611.3,-90.53 1620.9,-86.06 1610.61,-83.56 1611.3,-90.53"/>
</a>
</g>
</g>
<!-- Node22 -->
<g id="Node000022" class="node">
<title>Node22</title>
<g id="a_Node000022"><a xlink:title=" ">
<polygon fill="#e0e0e0" stroke="#999999" points="1947.88,-86.5 1862.88,-86.5 1862.88,-61.25 1947.88,-61.25 1947.88,-86.5"/>
<text text-anchor="middle" x="1905.38" y="-69.2" font-family="Helvetica,sans-Serif" font-size="14.00">functional</text>
</a>
</g>
</g>
<!-- Node15&#45;&gt;Node22 -->
<g id="edge18_Node000015_Node000022" class="edge">
<title>Node15&#45;&gt;Node22</title>
<g id="a_edge18_Node000015_Node000022"><a xlink:title=" ">
<path fill="none" stroke="#63b8ff" stroke-width="2" d="M1259.23,-124.41C1263.67,-123.69 1268.1,-123.04 1272.38,-122.5 1524.93,-90.74 1594.98,-121.8 1849.95,-86.77"/>
<polygon fill="#63b8ff" stroke="#63b8ff" stroke-width="2" points="1850.21,-90.27 1859.63,-85.41 1849.24,-83.33 1850.21,-90.27"/>
</a>
</g>
</g>
<!-- Node23 -->
<g id="Node000023" class="node">
<title>Node23</title>
<g id="a_Node000023"><a xlink:title=" ">
<polygon fill="#e0e0e0" stroke="#999999" points="2002.88,-86.5 1965.88,-86.5 1965.88,-61.25 2002.88,-61.25 2002.88,-86.5"/>
<text text-anchor="middle" x="1984.38" y="-69.2" font-family="Helvetica,sans-Serif" font-size="14.00">set</text>
</a>
</g>
</g>
<!-- Node15&#45;&gt;Node23 -->
<g id="edge19_Node000015_Node000023" class="edge">
<title>Node15&#45;&gt;Node23</title>
<g id="a_edge19_Node000015_Node000023"><a xlink:title=" ">
<path fill="none" stroke="#63b8ff" stroke-width="2" d="M1259.23,-124.37C1263.66,-123.66 1268.09,-123.02 1272.38,-122.5 1570.89,-86.38 1658.13,-153.97 1953.1,-86.86"/>
<polygon fill="#63b8ff" stroke="#63b8ff" stroke-width="2" points="1953.58,-90.34 1962.54,-84.68 1952,-83.52 1953.58,-90.34"/>
</a>
</g>
</g>
</g>
</svg>

<g id="navigator" transform="translate(0 0)" fill="#404254">
  <rect fill="#f2f5e9" fill-opacity="0.5" stroke="#606060" stroke-width=".5" x="0" y="0" width="60" height="60"/>
  <use id="zoomplus" xlink:href="#zoomPlus" x="17" y="9" onmousedown="handleZoom(evt,'in')"/>
  <use id="zoomminus" xlink:href="#zoomMin" x="42" y="9" onmousedown="handleZoom(evt,'out')"/>
  <use id="reset" xlink:href="#resetDef" x="30" y="36" onmousedown="handleReset()"/>
   <use id="arrowup" xlink:href="#arrowUp" x="0" y="0" onmousedown="handlePan(0,-1)"/>
  <use id="arrowright" xlink:href="#arrowRight" x="0" y="0" onmousedown="handlePan(1,0)"/>
  <use id="arrowdown" xlink:href="#arrowDown" x="0" y="0" onmousedown="handlePan(0,1)"/>
  <use id="arrowleft" xlink:href="#arrowLeft" x="0" y="0" onmousedown="handlePan(-1,0)"/>
</g>
<svg viewBox="0 0 15 15" width="100%" height="30px" preserveAspectRatio="xMaxYMin meet">
 <g id="arrow_out" transform="scale(0.3 0.3)">
  <a xlink:href="bush_8cpp__incl_org.svg" target="_base">
   <rect id="button" ry="5" rx="5" y="6" x="6" height="38" width="38"
        fill="#f2f5e9" fill-opacity="0.5" stroke="#606060" stroke-width="1.0"/>
   <path id="arrow"
     d="M 11.500037,31.436501 C 11.940474,20.09759 22.043105,11.32322 32.158766,21.979434 L 37.068811,17.246167 C 37.068811,17.246167 37.088388,32 37.088388,32 L 22.160133,31.978069 C 22.160133,31.978069 26.997745,27.140456 26.997745,27.140456 C 18.528582,18.264221 13.291696,25.230495 11.500037,31.436501 z"
     style="fill:#404040;"/>
  </a>
 </g>
</svg>

<style type='text/css'>
<![CDATA[
[data-mouse-over-selected='false'] { opacity: 0.7; }
[data-mouse-over-selected='true']  { opacity: 1.0; }
]]>
</style>
<script type="application/ecmascript"><![CDATA[
document.addEventListener('DOMContentLoaded', (event) => {
  highlightEdges();
  highlightAdjacentNodes();
});
]]></script>
</svg>
