<?xml version="1.0" encoding="UTF-8" standalone="no"?>
<!DOCTYPE svg PUBLIC "-//W3C//DTD SVG 1.1//EN"
 "http://www.w3.org/Graphics/SVG/1.1/DTD/svg11.dtd">
<!-- Generated by graphviz version 9.0.0 (0)
 -->
<!-- Title: gamePlayer.hpp Pages: 1 -->
<svg width="1285pt" height="340pt"
 viewBox="0.00 0.00 1284.69 339.50" xmlns="http://www.w3.org/2000/svg" xmlns:xlink="http://www.w3.org/1999/xlink">
<g id="graph0" class="graph" transform="scale(1 1) rotate(0) translate(4 335.5)">
<title>gamePlayer.hpp</title>
<!-- Node1 -->
<g id="Node000001" class="node">
<title>Node1</title>
<g id="a_Node000001"><a xlink:title=" ">
<polygon fill="#999999" stroke="#666666" points="314.25,-331.5 186.5,-331.5 186.5,-306.25 314.25,-306.25 314.25,-331.5"/>
<text text-anchor="middle" x="250.38" y="-314.2" font-family="Helvetica,sans-Serif" font-size="14.00">gamePlayer.hpp</text>
</a>
</g>
</g>
<!-- Node2 -->
<g id="Node000002" class="node">
<title>Node2</title>
<g id="a_Node000002"><a xlink:title=" ">
<polygon fill="#e0e0e0" stroke="#999999" points="184.75,-270.25 0,-270.25 0,-245 184.75,-245 184.75,-270.25"/>
<text text-anchor="middle" x="92.38" y="-252.95" font-family="Helvetica,sans-Serif" font-size="14.00">SFML/Graphics/Rect.hpp</text>
</a>
</g>
</g>
<!-- Node1&#45;&gt;Node2 -->
<g id="edge1_Node000001_Node000002" class="edge">
<title>Node1&#45;&gt;Node2</title>
<g id="a_edge1_Node000001_Node000002"><a xlink:title=" ">
<path fill="none" stroke="#63b8ff" stroke-width="2" d="M218.4,-305.88C194.92,-297.08 162.73,-285.01 136.76,-275.27"/>
<polygon fill="#63b8ff" stroke="#63b8ff" stroke-width="2" points="138,-272 127.41,-271.76 135.54,-278.55 138,-272"/>
</a>
</g>
</g>
<!-- Node3 -->
<g id="Node000003" class="node">
<title>Node3</title>
<g id="a_Node000003"><a xlink:title=" ">
<polygon fill="#e0e0e0" stroke="#999999" points="388.12,-25.25 190.62,-25.25 190.62,0 388.12,0 388.12,-25.25"/>
<text text-anchor="middle" x="289.38" y="-7.95" font-family="Helvetica,sans-Serif" font-size="14.00">SFML/System/Vector2.hpp</text>
</a>
</g>
</g>
<!-- Node1&#45;&gt;Node3 -->
<g id="edge2_Node000001_Node000003" class="edge">
<title>Node1&#45;&gt;Node3</title>
<g id="a_edge2_Node000001_Node000003"><a xlink:title=" ">
<path fill="none" stroke="#63b8ff" stroke-width="2" d="M243.93,-305.95C233.09,-284.76 212.38,-238.83 212.38,-197.38 212.38,-197.38 212.38,-197.38 212.38,-134.12 212.38,-94.12 242.89,-56.73 265.5,-34.52"/>
<polygon fill="#63b8ff" stroke="#63b8ff" stroke-width="2" points="267.79,-37.16 272.69,-27.76 263,-32.06 267.79,-37.16"/>
</a>
</g>
</g>
<!-- Node4 -->
<g id="Node000004" class="node">
<title>Node4</title>
<g id="a_Node000004"><a xlink:href="../../dc/d3e/animatedObject_8hpp.html" target="_top" xlink:title=" ">
<polygon fill="white" stroke="#666666" points="510.25,-209 352.5,-209 352.5,-183.75 510.25,-183.75 510.25,-209"/>
<text text-anchor="middle" x="431.38" y="-191.7" font-family="Helvetica,sans-Serif" font-size="14.00">animatedObject.hpp</text>
</a>
</g>
</g>
<!-- Node1&#45;&gt;Node4 -->
<g id="edge3_Node000001_Node000004" class="edge">
<title>Node1&#45;&gt;Node4</title>
<g id="a_edge3_Node000001_Node000004"><a xlink:title=" ">
<path fill="none" stroke="#63b8ff" stroke-width="2" d="M268.39,-305.88C299.75,-285 364.62,-241.81 402.38,-216.68"/>
<polygon fill="#63b8ff" stroke="#63b8ff" stroke-width="2" points="404.26,-219.63 410.64,-211.18 400.38,-213.81 404.26,-219.63"/>
</a>
</g>
</g>
<!-- Node7 -->
<g id="Node000007" class="node">
<title>Node7</title>
<g id="a_Node000007"><a xlink:href="../../d9/d03/point2d_8hpp.html" target="_top" xlink:title=" ">
<polygon fill="#fff0f0" stroke="red" points="416.75,-86.5 316,-86.5 316,-61.25 416.75,-61.25 416.75,-86.5"/>
<text text-anchor="middle" x="366.38" y="-69.2" font-family="Helvetica,sans-Serif" font-size="14.00">point2d.hpp</text>
</a>
</g>
</g>
<!-- Node1&#45;&gt;Node7 -->
<g id="edge21_Node000001_Node000007" class="edge">
<title>Node1&#45;&gt;Node7</title>
<g id="a_edge21_Node000001_Node000007"><a xlink:title=" ">
<path fill="none" stroke="#63b8ff" stroke-width="2" d="M247.87,-305.99C241.7,-273.33 229.02,-180.78 269.38,-122.5 278.73,-108.99 293.04,-99.15 307.81,-92.05"/>
<polygon fill="#63b8ff" stroke="#63b8ff" stroke-width="2" points="309.11,-95.3 316.9,-88.13 306.33,-88.88 309.11,-95.3"/>
</a>
</g>
</g>
<!-- Node12 -->
<g id="Node000012" class="node">
<title>Node12</title>
<g id="a_Node000012"><a xlink:href="../../d9/d85/player_8hpp.html" target="_top" xlink:title=" ">
<polygon fill="white" stroke="#666666" points="823.12,-270.25 733.62,-270.25 733.62,-245 823.12,-245 823.12,-270.25"/>
<text text-anchor="middle" x="778.38" y="-252.95" font-family="Helvetica,sans-Serif" font-size="14.00">player.hpp</text>
</a>
</g>
</g>
<!-- Node1&#45;&gt;Node12 -->
<g id="edge11_Node000001_Node000012" class="edge">
<title>Node1&#45;&gt;Node12</title>
<g id="a_edge11_Node000001_Node000012"><a xlink:title=" ">
<path fill="none" stroke="#63b8ff" stroke-width="2" d="M314.59,-310.67C418.35,-299.03 621.27,-276.25 720.69,-265.1"/>
<polygon fill="#63b8ff" stroke="#63b8ff" stroke-width="2" points="720.88,-268.6 730.43,-264.01 720.1,-261.64 720.88,-268.6"/>
</a>
</g>
</g>
<!-- Node5 -->
<g id="Node000005" class="node">
<title>Node5</title>
<g id="a_Node000005"><a xlink:href="../../d4/db5/GameObject_8hpp.html" target="_top" xlink:title=" ">
<polygon fill="#fff0f0" stroke="red" points="965.88,-147.75 832.88,-147.75 832.88,-122.5 965.88,-122.5 965.88,-147.75"/>
<text text-anchor="middle" x="899.38" y="-130.45" font-family="Helvetica,sans-Serif" font-size="14.00">GameObject.hpp</text>
</a>
</g>
</g>
<!-- Node4&#45;&gt;Node5 -->
<g id="edge4_Node000004_Node000005" class="edge">
<title>Node4&#45;&gt;Node5</title>
<g id="a_edge4_Node000004_Node000005"><a xlink:title=" ">
<path fill="none" stroke="#63b8ff" stroke-width="2" d="M510.68,-186.47C587.06,-177.72 706.22,-163.65 819.9,-148.19"/>
<polygon fill="#63b8ff" stroke="#63b8ff" stroke-width="2" points="820.23,-151.68 829.66,-146.86 819.28,-144.75 820.23,-151.68"/>
</a>
</g>
</g>
<!-- Node4&#45;&gt;Node7 -->
<g id="edge9_Node000004_Node000007" class="edge">
<title>Node4&#45;&gt;Node7</title>
<g id="a_edge9_Node000004_Node000007"><a xlink:title=" ">
<path fill="none" stroke="#63b8ff" stroke-width="2" d="M416.45,-183.55C406.27,-174.71 393.25,-161.78 385.38,-147.75 377.03,-132.89 372.26,-114.27 369.58,-99.57"/>
<polygon fill="#63b8ff" stroke="#63b8ff" stroke-width="2" points="373.08,-99.26 368.08,-89.92 366.16,-100.34 373.08,-99.26"/>
</a>
</g>
</g>
<!-- Node9 -->
<g id="Node000009" class="node">
<title>Node9</title>
<g id="a_Node000009"><a xlink:title=" ">
<polygon fill="#e0e0e0" stroke="#999999" points="814.38,-147.75 618.38,-147.75 618.38,-122.5 814.38,-122.5 814.38,-147.75"/>
<text text-anchor="middle" x="716.38" y="-130.45" font-family="Helvetica,sans-Serif" font-size="14.00">SFML/Graphics/Sprite.hpp</text>
</a>
</g>
</g>
<!-- Node4&#45;&gt;Node9 -->
<g id="edge7_Node000004_Node000009" class="edge">
<title>Node4&#45;&gt;Node9</title>
<g id="a_edge7_Node000004_Node000009"><a xlink:title=" ">
<path fill="none" stroke="#63b8ff" stroke-width="2" d="M489.39,-183.31C534.66,-173.9 597.73,-160.79 645.9,-150.78"/>
<polygon fill="#63b8ff" stroke="#63b8ff" stroke-width="2" points="646.4,-154.25 655.48,-148.79 644.97,-147.39 646.4,-154.25"/>
</a>
</g>
</g>
<!-- Node10 -->
<g id="Node000010" class="node">
<title>Node10</title>
<g id="a_Node000010"><a xlink:title=" ">
<polygon fill="#e0e0e0" stroke="#999999" points="599.88,-147.75 394.88,-147.75 394.88,-122.5 599.88,-122.5 599.88,-147.75"/>
<text text-anchor="middle" x="497.38" y="-130.45" font-family="Helvetica,sans-Serif" font-size="14.00">SFML/Graphics/Texture.hpp</text>
</a>
</g>
</g>
<!-- Node4&#45;&gt;Node10 -->
<g id="edge8_Node000004_Node000010" class="edge">
<title>Node4&#45;&gt;Node10</title>
<g id="a_edge8_Node000004_Node000010"><a xlink:title=" ">
<path fill="none" stroke="#63b8ff" stroke-width="2" d="M444.73,-183.38C453.23,-175.76 464.46,-165.67 474.37,-156.78"/>
<polygon fill="#63b8ff" stroke="#63b8ff" stroke-width="2" points="476.68,-159.4 481.79,-150.12 472.01,-154.2 476.68,-159.4"/>
</a>
</g>
</g>
<!-- Node11 -->
<g id="Node000011" class="node">
<title>Node11</title>
<g id="a_Node000011"><a xlink:title=" ">
<polygon fill="#e0e0e0" stroke="#999999" points="338.12,-147.75 278.62,-147.75 278.62,-122.5 338.12,-122.5 338.12,-147.75"/>
<text text-anchor="middle" x="308.38" y="-130.45" font-family="Helvetica,sans-Serif" font-size="14.00">vector</text>
</a>
</g>
</g>
<!-- Node4&#45;&gt;Node11 -->
<g id="edge10_Node000004_Node000011" class="edge">
<title>Node4&#45;&gt;Node11</title>
<g id="a_edge10_Node000004_Node000011"><a xlink:title=" ">
<path fill="none" stroke="#63b8ff" stroke-width="2" d="M406.48,-183.38C388.81,-174.87 364.8,-163.3 344.95,-153.74"/>
<polygon fill="#63b8ff" stroke="#63b8ff" stroke-width="2" points="346.48,-150.6 335.96,-149.41 343.45,-156.9 346.48,-150.6"/>
</a>
</g>
</g>
<!-- Node5&#45;&gt;Node7 -->
<g id="edge5_Node000005_Node000007" class="edge">
<title>Node5&#45;&gt;Node7</title>
<g id="a_edge5_Node000005_Node000007"><a xlink:title=" ">
<path fill="none" stroke="#63b8ff" stroke-width="2" d="M832.67,-123.74C829.53,-123.31 826.42,-122.89 823.38,-122.5 683.26,-104.49 518.29,-88.61 429.92,-80.53"/>
<polygon fill="#63b8ff" stroke="#63b8ff" stroke-width="2" points="430.48,-77.06 420.2,-79.64 429.84,-84.03 430.48,-77.06"/>
</a>
</g>
</g>
<!-- Node7&#45;&gt;Node3 -->
<g id="edge6_Node000007_Node000003" class="edge">
<title>Node7&#45;&gt;Node3</title>
<g id="a_edge6_Node000007_Node000003"><a xlink:title=" ">
<path fill="none" stroke="#63b8ff" stroke-width="2" d="M350.79,-60.88C340.56,-53.01 326.94,-42.53 315.13,-33.44"/>
<polygon fill="#63b8ff" stroke="#63b8ff" stroke-width="2" points="317.39,-30.77 307.33,-27.44 313.12,-36.32 317.39,-30.77"/>
</a>
</g>
</g>
<!-- Node12&#45;&gt;Node4 -->
<g id="edge15_Node000012_Node000004" class="edge">
<title>Node12&#45;&gt;Node4</title>
<g id="a_edge15_Node000012_Node000004"><a xlink:title=" ">
<path fill="none" stroke="#63b8ff" stroke-width="2" d="M733.37,-248.94C678.12,-239.51 583.34,-223.32 514.67,-211.6"/>
<polygon fill="#63b8ff" stroke="#63b8ff" stroke-width="2" points="515.6,-208.21 505.15,-209.97 514.42,-215.11 515.6,-208.21"/>
</a>
</g>
</g>
<!-- Node12&#45;&gt;Node5 -->
<g id="edge12_Node000012_Node000005" class="edge">
<title>Node12&#45;&gt;Node5</title>
<g id="a_edge12_Node000012_Node000005"><a xlink:title=" ">
<path fill="none" stroke="#63b8ff" stroke-width="2" d="M733.38,-253.92C666.9,-248.29 554.47,-231.56 595.38,-183.75 595.84,-183.21 729.85,-162.37 819.77,-148.44"/>
<polygon fill="#63b8ff" stroke="#63b8ff" stroke-width="2" points="820.08,-151.93 829.43,-146.94 819.01,-145.01 820.08,-151.93"/>
</a>
</g>
</g>
<!-- Node12&#45;&gt;Node7 -->
<g id="edge17_Node000012_Node000007" class="edge">
<title>Node12&#45;&gt;Node7</title>
<g id="a_edge17_Node000012_Node000007"><a xlink:title=" ">
<path fill="none" stroke="#63b8ff" stroke-width="2" d="M823.5,-257.21C955.47,-258.11 1327.94,-254.49 1270.38,-183.75 1217.25,-118.46 626.81,-86.45 429.88,-77.53"/>
<polygon fill="#63b8ff" stroke="#63b8ff" stroke-width="2" points="430.11,-74.04 419.96,-77.09 429.79,-81.03 430.11,-74.04"/>
</a>
</g>
</g>
<!-- Node12&#45;&gt;Node9 -->
<g id="edge14_Node000012_Node000009" class="edge">
<title>Node12&#45;&gt;Node9</title>
<g id="a_edge14_Node000012_Node000009"><a xlink:title=" ">
<path fill="none" stroke="#63b8ff" stroke-width="2" d="M733.51,-253.21C676.63,-247.83 583.42,-235.19 562.38,-209 539.22,-180.19 575.37,-162.14 618.43,-151.21"/>
<polygon fill="#63b8ff" stroke="#63b8ff" stroke-width="2" points="619.15,-154.64 628.08,-148.94 617.55,-147.83 619.15,-154.64"/>
</a>
</g>
</g>
<!-- Node13 -->
<g id="Node000013" class="node">
<title>Node13</title>
<g id="a_Node000013"><a xlink:title=" ">
<polygon fill="#e0e0e0" stroke="#999999" points="802.5,-209 604.25,-209 604.25,-183.75 802.5,-183.75 802.5,-209"/>
<text text-anchor="middle" x="703.38" y="-191.7" font-family="Helvetica,sans-Serif" font-size="14.00">SFML/Graphics/Shape.hpp</text>
</a>
</g>
</g>
<!-- Node12&#45;&gt;Node13 -->
<g id="edge13_Node000012_Node000013" class="edge">
<title>Node12&#45;&gt;Node13</title>
<g id="a_edge13_Node000012_Node000013"><a xlink:title=" ">
<path fill="none" stroke="#63b8ff" stroke-width="2" d="M763.2,-244.63C753.24,-236.76 739.97,-226.28 728.46,-217.19"/>
<polygon fill="#63b8ff" stroke="#63b8ff" stroke-width="2" points="730.92,-214.68 720.91,-211.22 726.58,-220.17 730.92,-214.68"/>
</a>
</g>
</g>
<!-- Node14 -->
<g id="Node000014" class="node">
<title>Node14</title>
<g id="a_Node000014"><a xlink:href="../../d4/d3d/log_8hpp.html" target="_top" xlink:title=" ">
<polygon fill="#fff0f0" stroke="red" points="888.62,-209 820.12,-209 820.12,-183.75 888.62,-183.75 888.62,-209"/>
<text text-anchor="middle" x="854.38" y="-191.7" font-family="Helvetica,sans-Serif" font-size="14.00">log.hpp</text>
</a>
</g>
</g>
<!-- Node12&#45;&gt;Node14 -->
<g id="edge16_Node000012_Node000014" class="edge">
<title>Node12&#45;&gt;Node14</title>
<g id="a_edge16_Node000012_Node000014"><a xlink:title=" ">
<path fill="none" stroke="#63b8ff" stroke-width="2" d="M793.75,-244.63C803.85,-236.76 817.29,-226.28 828.96,-217.19"/>
<polygon fill="#63b8ff" stroke="#63b8ff" stroke-width="2" points="830.9,-220.12 836.63,-211.21 826.59,-214.6 830.9,-220.12"/>
</a>
</g>
</g>
<!-- Node15 -->
<g id="Node000015" class="node">
<title>Node15</title>
<g id="a_Node000015"><a xlink:href="../../dd/d85/updateableObject_8hpp.html" target="_top" xlink:title=" ">
<polygon fill="white" stroke="#666666" points="1077.62,-209 907.12,-209 907.12,-183.75 1077.62,-183.75 1077.62,-209"/>
<text text-anchor="middle" x="992.38" y="-191.7" font-family="Helvetica,sans-Serif" font-size="14.00">updateableObject.hpp</text>
</a>
</g>
</g>
<!-- Node12&#45;&gt;Node15 -->
<g id="edge18_Node000012_Node000015" class="edge">
<title>Node12&#45;&gt;Node15</title>
<g id="a_edge18_Node000012_Node000015"><a xlink:title=" ">
<path fill="none" stroke="#63b8ff" stroke-width="2" d="M821.94,-244.56C855.06,-235.39 900.88,-222.71 936.67,-212.8"/>
<polygon fill="#63b8ff" stroke="#63b8ff" stroke-width="2" points="937.25,-216.27 945.95,-210.23 935.38,-209.52 937.25,-216.27"/>
</a>
</g>
</g>
<!-- Node16 -->
<g id="Node000016" class="node">
<title>Node16</title>
<g id="a_Node000016"><a xlink:title=" ">
<polygon fill="#e0e0e0" stroke="#999999" points="1147.38,-209 1095.38,-209 1095.38,-183.75 1147.38,-183.75 1147.38,-209"/>
<text text-anchor="middle" x="1121.38" y="-191.7" font-family="Helvetica,sans-Serif" font-size="14.00">array</text>
</a>
</g>
</g>
<!-- Node12&#45;&gt;Node16 -->
<g id="edge19_Node000012_Node000016" class="edge">
<title>Node12&#45;&gt;Node16</title>
<g id="a_edge19_Node000012_Node000016"><a xlink:title=" ">
<path fill="none" stroke="#63b8ff" stroke-width="2" d="M823.46,-252.05C881.41,-245.64 985.24,-232.41 1082.68,-209.59"/>
<polygon fill="#63b8ff" stroke="#63b8ff" stroke-width="2" points="1083.28,-213.05 1092.19,-207.32 1081.65,-206.24 1083.28,-213.05"/>
</a>
</g>
</g>
<!-- Node17 -->
<g id="Node000017" class="node">
<title>Node17</title>
<g id="a_Node000017"><a xlink:title=" ">
<polygon fill="#e0e0e0" stroke="#999999" points="1261.12,-209 1165.62,-209 1165.62,-183.75 1261.12,-183.75 1261.12,-209"/>
<text text-anchor="middle" x="1213.38" y="-191.7" font-family="Helvetica,sans-Serif" font-size="14.00">sys/types.h</text>
</a>
</g>
</g>
<!-- Node12&#45;&gt;Node17 -->
<g id="edge20_Node000012_Node000017" class="edge">
<title>Node12&#45;&gt;Node17</title>
<g id="a_edge20_Node000012_Node000017"><a xlink:title=" ">
<path fill="none" stroke="#63b8ff" stroke-width="2" d="M823.34,-252.08C891.97,-244.89 1027.24,-229.78 1152.37,-209.56"/>
<polygon fill="#63b8ff" stroke="#63b8ff" stroke-width="2" points="1152.93,-213.02 1162.23,-207.95 1151.8,-206.11 1152.93,-213.02"/>
</a>
</g>
</g>
</g>
</svg>
