<?xml version="1.0" encoding="UTF-8" standalone="no"?>
<!DOCTYPE svg PUBLIC "-//W3C//DTD SVG 1.1//EN"
 "http://www.w3.org/Graphics/SVG/1.1/DTD/svg11.dtd">
<!-- Generated by graphviz version 9.0.0 (0)
 -->
<!-- Title: point2d.hpp Pages: 1 -->
<svg width="1209pt" height="340pt"
 viewBox="0.00 0.00 1208.62 339.50" xmlns="http://www.w3.org/2000/svg" xmlns:xlink="http://www.w3.org/1999/xlink">
<g id="graph0" class="graph" transform="scale(1 1) rotate(0) translate(4 335.5)">
<title>point2d.hpp</title>
<!-- Node1 -->
<g id="Node000001" class="node">
<title>Node1</title>
<g id="a_Node000001"><a xlink:title=" ">
<polygon fill="#999999" stroke="#666666" points="680.38,-331.5 579.62,-331.5 579.62,-306.25 680.38,-306.25 680.38,-331.5"/>
<text text-anchor="middle" x="630" y="-314.2" font-family="Helvetica,sans-Serif" font-size="14.00">point2d.hpp</text>
</a>
</g>
</g>
<!-- Node2 -->
<g id="Node000002" class="node">
<title>Node2</title>
<g id="a_Node000002"><a xlink:href="../../d4/d2b/GameObject_8cpp.html" target="_top" xlink:title=" ">
<polygon fill="white" stroke="#666666" points="273.75,-209 142.25,-209 142.25,-183.75 273.75,-183.75 273.75,-209"/>
<text text-anchor="middle" x="208" y="-191.7" font-family="Helvetica,sans-Serif" font-size="14.00">GameObject.cpp</text>
</a>
</g>
</g>
<!-- Node1&#45;&gt;Node2 -->
<g id="edge1_Node000001_Node000002" class="edge">
<title>Node1&#45;&gt;Node2</title>
<g id="a_edge1_Node000001_Node000002"><a xlink:title=" ">
<path fill="none" stroke="#63b8ff" stroke-width="2" d="M566.88,-310.55C513.8,-303.39 436.34,-290.54 371,-270.25 318.75,-254.02 261.07,-225.53 230.28,-209.4"/>
<polygon fill="#63b8ff" stroke="#63b8ff" stroke-width="2" points="566.12,-313.98 576.49,-311.82 567.03,-307.04 566.12,-313.98"/>
</a>
</g>
</g>
<!-- Node3 -->
<g id="Node000003" class="node">
<title>Node3</title>
<g id="a_Node000003"><a xlink:href="../../d4/db5/GameObject_8hpp.html" target="_top" xlink:title=" ">
<polygon fill="white" stroke="#666666" points="513.5,-270.25 380.5,-270.25 380.5,-245 513.5,-245 513.5,-270.25"/>
<text text-anchor="middle" x="447" y="-252.95" font-family="Helvetica,sans-Serif" font-size="14.00">GameObject.hpp</text>
</a>
</g>
</g>
<!-- Node1&#45;&gt;Node3 -->
<g id="edge2_Node000001_Node000003" class="edge">
<title>Node1&#45;&gt;Node3</title>
<g id="a_edge2_Node000001_Node000003"><a xlink:title=" ">
<path fill="none" stroke="#63b8ff" stroke-width="2" d="M580.92,-301.98C550.55,-292.15 512.17,-279.73 484.29,-270.7"/>
<polygon fill="#63b8ff" stroke="#63b8ff" stroke-width="2" points="579.5,-305.2 590.09,-304.95 581.65,-298.54 579.5,-305.2"/>
</a>
</g>
</g>
<!-- Node4 -->
<g id="Node000004" class="node">
<title>Node4</title>
<g id="a_Node000004"><a xlink:href="../../dc/d3e/animatedObject_8hpp.html" target="_top" xlink:title=" ">
<polygon fill="#fff0f0" stroke="red" points="525.88,-209 368.12,-209 368.12,-183.75 525.88,-183.75 525.88,-209"/>
<text text-anchor="middle" x="447" y="-191.7" font-family="Helvetica,sans-Serif" font-size="14.00">animatedObject.hpp</text>
</a>
</g>
</g>
<!-- Node1&#45;&gt;Node4 -->
<g id="edge29_Node000001_Node000004" class="edge">
<title>Node1&#45;&gt;Node4</title>
<g id="a_edge29_Node000001_Node000004"><a xlink:title=" ">
<path fill="none" stroke="#63b8ff" stroke-width="2" d="M602.08,-298.43C580.6,-283.58 550.11,-262.72 523,-245 503.97,-232.56 481.93,-218.82 466.5,-209.31"/>
<polygon fill="#63b8ff" stroke="#63b8ff" stroke-width="2" points="600.02,-301.26 610.23,-304.08 604,-295.51 600.02,-301.26"/>
</a>
</g>
</g>
<!-- Node12 -->
<g id="Node000012" class="node">
<title>Node12</title>
<g id="a_Node000012"><a xlink:href="../../dc/d84/ball_8hpp.html" target="_top" xlink:title=" ">
<polygon fill="white" stroke="#666666" points="585.12,-147.75 512.88,-147.75 512.88,-122.5 585.12,-122.5 585.12,-147.75"/>
<text text-anchor="middle" x="549" y="-130.45" font-family="Helvetica,sans-Serif" font-size="14.00">ball.hpp</text>
</a>
</g>
</g>
<!-- Node1&#45;&gt;Node12 -->
<g id="edge31_Node000001_Node000012" class="edge">
<title>Node1&#45;&gt;Node12</title>
<g id="a_edge31_Node000001_Node000012"><a xlink:title=" ">
<path fill="none" stroke="#63b8ff" stroke-width="2" d="M619.44,-294.18C601.89,-254.8 567.35,-177.31 554.23,-147.86"/>
<polygon fill="#63b8ff" stroke="#63b8ff" stroke-width="2" points="616.19,-295.48 623.45,-303.18 622.58,-292.63 616.19,-295.48"/>
</a>
</g>
</g>
<!-- Node13 -->
<g id="Node000013" class="node">
<title>Node13</title>
<g id="a_Node000013"><a xlink:href="../../d5/d25/ball_8cpp.html" target="_top" xlink:title=" ">
<polygon fill="white" stroke="#666666" points="648.38,-86.5 577.62,-86.5 577.62,-61.25 648.38,-61.25 648.38,-86.5"/>
<text text-anchor="middle" x="613" y="-69.2" font-family="Helvetica,sans-Serif" font-size="14.00">ball.cpp</text>
</a>
</g>
</g>
<!-- Node1&#45;&gt;Node13 -->
<g id="edge30_Node000001_Node000013" class="edge">
<title>Node1&#45;&gt;Node13</title>
<g id="a_edge30_Node000001_Node000013"><a xlink:title=" ">
<path fill="none" stroke="#63b8ff" stroke-width="2" d="M628.25,-292.85C624.64,-241.28 616.5,-124.83 613.85,-87"/>
<polygon fill="#63b8ff" stroke="#63b8ff" stroke-width="2" points="624.76,-293.07 628.95,-302.8 631.74,-292.58 624.76,-293.07"/>
</a>
</g>
</g>
<!-- Node10 -->
<g id="Node000010" class="node">
<title>Node10</title>
<g id="a_Node000010"><a xlink:href="../../d0/d8d/test2_2main_8cpp.html" target="_top" xlink:title=" ">
<polygon fill="white" stroke="#666666" points="589.25,-25.25 508.75,-25.25 508.75,0 589.25,0 589.25,-25.25"/>
<text text-anchor="middle" x="549" y="-7.95" font-family="Helvetica,sans-Serif" font-size="14.00">main.cpp</text>
</a>
</g>
</g>
<!-- Node1&#45;&gt;Node10 -->
<g id="edge42_Node000001_Node000010" class="edge">
<title>Node1&#45;&gt;Node10</title>
<g id="a_edge42_Node000001_Node000010"><a xlink:title=" ">
<path fill="none" stroke="#63b8ff" stroke-width="2" d="M663.72,-299.3C717.91,-266.81 815.07,-196.08 782,-122.5 749.05,-49.19 647.25,-25.15 589.7,-17.33"/>
<polygon fill="#63b8ff" stroke="#63b8ff" stroke-width="2" points="662.04,-296.23 655.17,-304.29 665.57,-302.27 662.04,-296.23"/>
</a>
</g>
</g>
<!-- Node16 -->
<g id="Node000016" class="node">
<title>Node16</title>
<g id="a_Node000016"><a xlink:href="../../de/d46/engine_8hpp.html" target="_top" xlink:title=" ">
<polygon fill="#fff0f0" stroke="red" points="773.38,-147.75 678.62,-147.75 678.62,-122.5 773.38,-122.5 773.38,-147.75"/>
<text text-anchor="middle" x="726" y="-130.45" font-family="Helvetica,sans-Serif" font-size="14.00">engine.hpp</text>
</a>
</g>
</g>
<!-- Node1&#45;&gt;Node16 -->
<g id="edge32_Node000001_Node000016" class="edge">
<title>Node1&#45;&gt;Node16</title>
<g id="a_edge32_Node000001_Node000016"><a xlink:title=" ">
<path fill="none" stroke="#63b8ff" stroke-width="2" d="M656.93,-297.89C665.92,-290.1 675.34,-280.56 682,-270.25 708.05,-229.89 720,-172.71 724.17,-148.12"/>
<polygon fill="#63b8ff" stroke="#63b8ff" stroke-width="2" points="655,-294.95 649.47,-303.98 659.43,-300.37 655,-294.95"/>
</a>
</g>
</g>
<!-- Node8 -->
<g id="Node000008" class="node">
<title>Node8</title>
<g id="a_Node000008"><a xlink:href="../../d1/df9/fidgetSpinner_8cpp.html" target="_top" xlink:title=" ">
<polygon fill="white" stroke="#666666" points="919.5,-86.5 780.5,-86.5 780.5,-61.25 919.5,-61.25 919.5,-86.5"/>
<text text-anchor="middle" x="850" y="-69.2" font-family="Helvetica,sans-Serif" font-size="14.00">fidgetSpinner.cpp</text>
</a>
</g>
</g>
<!-- Node1&#45;&gt;Node8 -->
<g id="edge33_Node000001_Node000008" class="edge">
<title>Node1&#45;&gt;Node8</title>
<g id="a_edge33_Node000001_Node000008"><a xlink:title=" ">
<path fill="none" stroke="#63b8ff" stroke-width="2" d="M693.32,-309C740.11,-301.12 798.45,-288.08 815,-270.25 863.99,-217.46 856.32,-120.64 851.85,-86.87"/>
<polygon fill="#63b8ff" stroke="#63b8ff" stroke-width="2" points="692.77,-305.54 683.46,-310.6 693.89,-312.45 692.77,-305.54"/>
</a>
</g>
</g>
<!-- Node18 -->
<g id="Node000018" class="node">
<title>Node18</title>
<g id="a_Node000018"><a xlink:href="../../d1/d52/gamePlayer_8cpp.html" target="_top" xlink:title=" ">
<polygon fill="white" stroke="#666666" points="418.12,-25.25 291.88,-25.25 291.88,0 418.12,0 418.12,-25.25"/>
<text text-anchor="middle" x="355" y="-7.95" font-family="Helvetica,sans-Serif" font-size="14.00">gamePlayer.cpp</text>
</a>
</g>
</g>
<!-- Node1&#45;&gt;Node18 -->
<g id="edge37_Node000001_Node000018" class="edge">
<title>Node1&#45;&gt;Node18</title>
<g id="a_edge37_Node000001_Node000018"><a xlink:title=" ">
<path fill="none" stroke="#63b8ff" stroke-width="2" d="M566.85,-318.49C437.98,-318.79 149.6,-314.34 63,-270.25 24.85,-250.83 0,-240.19 0,-197.38 0,-197.38 0,-197.38 0,-134.12 0,-79.13 49.5,-83.03 100,-61.25 161.82,-34.58 238.4,-22.82 291.42,-17.65"/>
<polygon fill="#63b8ff" stroke="#63b8ff" stroke-width="2" points="566.53,-321.99 576.52,-318.45 566.5,-314.99 566.53,-321.99"/>
</a>
</g>
</g>
<!-- Node19 -->
<g id="Node000019" class="node">
<title>Node19</title>
<g id="a_Node000019"><a xlink:href="../../d2/df9/lineSegment_8cpp.html" target="_top" xlink:title=" ">
<polygon fill="white" stroke="#666666" points="1109.5,-86.5 976.5,-86.5 976.5,-61.25 1109.5,-61.25 1109.5,-86.5"/>
<text text-anchor="middle" x="1043" y="-69.2" font-family="Helvetica,sans-Serif" font-size="14.00">lineSegment.cpp</text>
</a>
</g>
</g>
<!-- Node1&#45;&gt;Node19 -->
<g id="edge39_Node000001_Node000019" class="edge">
<title>Node1&#45;&gt;Node19</title>
<g id="a_edge39_Node000001_Node000019"><a xlink:title=" ">
<path fill="none" stroke="#63b8ff" stroke-width="2" d="M693.38,-311.92C801.76,-300.18 1014.74,-269.73 1053,-209 1077.52,-170.08 1058.38,-111.63 1048.26,-86.76"/>
<polygon fill="#63b8ff" stroke="#63b8ff" stroke-width="2" points="693.29,-308.41 683.71,-312.94 694.03,-315.37 693.29,-308.41"/>
</a>
</g>
</g>
<!-- Node21 -->
<g id="Node000021" class="node">
<title>Node21</title>
<g id="a_Node000021"><a xlink:href="../../db/d80/player_8cpp.html" target="_top" xlink:title=" ">
<polygon fill="white" stroke="#666666" points="197,-86.5 109,-86.5 109,-61.25 197,-61.25 197,-86.5"/>
<text text-anchor="middle" x="153" y="-69.2" font-family="Helvetica,sans-Serif" font-size="14.00">player.cpp</text>
</a>
</g>
</g>
<!-- Node1&#45;&gt;Node21 -->
<g id="edge43_Node000001_Node000021" class="edge">
<title>Node1&#45;&gt;Node21</title>
<g id="a_edge43_Node000001_Node000021"><a xlink:title=" ">
<path fill="none" stroke="#63b8ff" stroke-width="2" d="M566.42,-317.08C428.84,-314.7 113.26,-305.43 81,-270.25 29.94,-214.57 110.24,-119.58 141.45,-86.58"/>
<polygon fill="#63b8ff" stroke="#63b8ff" stroke-width="2" points="566.08,-320.58 576.14,-317.24 566.2,-313.58 566.08,-320.58"/>
</a>
</g>
</g>
<!-- Node22 -->
<g id="Node000022" class="node">
<title>Node22</title>
<g id="a_Node000022"><a xlink:href="../../d7/d9b/gamePlayer_8hpp.html" target="_top" xlink:title=" ">
<polygon fill="white" stroke="#666666" points="418.88,-86.5 291.12,-86.5 291.12,-61.25 418.88,-61.25 418.88,-86.5"/>
<text text-anchor="middle" x="355" y="-69.2" font-family="Helvetica,sans-Serif" font-size="14.00">gamePlayer.hpp</text>
</a>
</g>
</g>
<!-- Node1&#45;&gt;Node22 -->
<g id="edge38_Node000001_Node000022" class="edge">
<title>Node1&#45;&gt;Node22</title>
<g id="a_edge38_Node000001_Node000022"><a xlink:title=" ">
<path fill="none" stroke="#63b8ff" stroke-width="2" d="M566.58,-314.23C444.04,-305.66 182.43,-279.34 133,-209 126.55,-199.82 125.87,-192.41 133,-183.75 185.96,-119.42 250.25,-197.63 317,-147.75 337.35,-132.55 347.77,-103.25 352.23,-86.81"/>
<polygon fill="#63b8ff" stroke="#63b8ff" stroke-width="2" points="566.17,-317.71 576.38,-314.9 566.64,-310.73 566.17,-317.71"/>
</a>
</g>
</g>
<!-- Node23 -->
<g id="Node000023" class="node">
<title>Node23</title>
<g id="a_Node000023"><a xlink:href="../../d9/d85/player_8hpp.html" target="_top" xlink:title=" ">
<polygon fill="white" stroke="#666666" points="307.75,-147.75 218.25,-147.75 218.25,-122.5 307.75,-122.5 307.75,-147.75"/>
<text text-anchor="middle" x="263" y="-130.45" font-family="Helvetica,sans-Serif" font-size="14.00">player.hpp</text>
</a>
</g>
</g>
<!-- Node1&#45;&gt;Node23 -->
<g id="edge44_Node000001_Node000023" class="edge">
<title>Node1&#45;&gt;Node23</title>
<g id="a_edge44_Node000001_Node000023"><a xlink:title=" ">
<path fill="none" stroke="#63b8ff" stroke-width="2" d="M566.75,-316.87C432.96,-314.1 130.95,-304.11 100,-270.25 74.06,-241.88 76.94,-214.51 100,-183.75 114.19,-164.82 174.66,-150.91 217.8,-143.16"/>
<polygon fill="#63b8ff" stroke="#63b8ff" stroke-width="2" points="566.45,-320.37 576.52,-317.07 566.59,-313.37 566.45,-320.37"/>
</a>
</g>
</g>
<!-- Node9 -->
<g id="Node000009" class="node">
<title>Node9</title>
<g id="a_Node000009"><a xlink:href="../../d9/dfe/fidgetSpinner_8hpp.html" target="_top" xlink:title=" ">
<polygon fill="white" stroke="#666666" points="1007.25,-147.75 866.75,-147.75 866.75,-122.5 1007.25,-122.5 1007.25,-147.75"/>
<text text-anchor="middle" x="937" y="-130.45" font-family="Helvetica,sans-Serif" font-size="14.00">fidgetSpinner.hpp</text>
</a>
</g>
</g>
<!-- Node1&#45;&gt;Node9 -->
<g id="edge34_Node000001_Node000009" class="edge">
<title>Node1&#45;&gt;Node9</title>
<g id="a_edge34_Node000001_Node000009"><a xlink:title=" ">
<path fill="none" stroke="#63b8ff" stroke-width="2" d="M693.53,-310.25C750.25,-302.39 828.09,-288.69 853,-270.25 888.34,-244.09 877.02,-220.6 901,-183.75 909.25,-171.07 919.8,-157.36 927.34,-147.92"/>
<polygon fill="#63b8ff" stroke="#63b8ff" stroke-width="2" points="693.14,-306.77 683.7,-311.57 694.08,-313.7 693.14,-306.77"/>
</a>
</g>
</g>
<!-- Node24 -->
<g id="Node000024" class="node">
<title>Node24</title>
<g id="a_Node000024"><a xlink:href="../../d4/de5/lineSegment_8hpp.html" target="_top" xlink:title=" ">
<polygon fill="white" stroke="#666666" points="1044.25,-209 909.75,-209 909.75,-183.75 1044.25,-183.75 1044.25,-209"/>
<text text-anchor="middle" x="977" y="-191.7" font-family="Helvetica,sans-Serif" font-size="14.00">lineSegment.hpp</text>
</a>
</g>
</g>
<!-- Node1&#45;&gt;Node24 -->
<g id="edge40_Node000001_Node000024" class="edge">
<title>Node1&#45;&gt;Node24</title>
<g id="a_edge40_Node000001_Node000024"><a xlink:title=" ">
<path fill="none" stroke="#63b8ff" stroke-width="2" d="M693.14,-315.8C748.29,-311.85 829.27,-300.79 893,-270.25 923.99,-255.4 952.5,-225.97 966.99,-209.41"/>
<polygon fill="#63b8ff" stroke="#63b8ff" stroke-width="2" points="693.17,-312.29 683.42,-316.42 693.62,-319.27 693.17,-312.29"/>
</a>
</g>
</g>
<!-- Node25 -->
<g id="Node000025" class="node">
<title>Node25</title>
<g id="a_Node000025"><a xlink:href="../../d4/d5a/point2d_8cpp.html" target="_top" xlink:title=" ">
<polygon fill="white" stroke="#666666" points="1200.62,-270.25 1101.38,-270.25 1101.38,-245 1200.62,-245 1200.62,-270.25"/>
<text text-anchor="middle" x="1151" y="-252.95" font-family="Helvetica,sans-Serif" font-size="14.00">point2d.cpp</text>
</a>
</g>
</g>
<!-- Node1&#45;&gt;Node25 -->
<g id="edge45_Node000001_Node000025" class="edge">
<title>Node1&#45;&gt;Node25</title>
<g id="a_edge45_Node000001_Node000025"><a xlink:title=" ">
<path fill="none" stroke="#63b8ff" stroke-width="2" d="M693.62,-312.78C782.08,-305.35 947.14,-290.21 1087,-270.25 1091.58,-269.6 1096.34,-268.85 1101.1,-268.07"/>
<polygon fill="#63b8ff" stroke="#63b8ff" stroke-width="2" points="693.57,-309.27 683.89,-313.59 694.15,-316.25 693.57,-309.27"/>
</a>
</g>
</g>
<!-- Node3&#45;&gt;Node2 -->
<g id="edge3_Node000003_Node000002" class="edge">
<title>Node3&#45;&gt;Node2</title>
<g id="a_edge3_Node000003_Node000002"><a xlink:title=" ">
<path fill="none" stroke="#63b8ff" stroke-width="2" d="M385.76,-241.44C345.62,-231.49 293.88,-218.67 256.59,-209.42"/>
<polygon fill="#63b8ff" stroke="#63b8ff" stroke-width="2" points="384.86,-244.83 395.41,-243.84 386.54,-238.03 384.86,-244.83"/>
</a>
</g>
</g>
<!-- Node3&#45;&gt;Node4 -->
<g id="edge4_Node000003_Node000004" class="edge">
<title>Node3&#45;&gt;Node4</title>
<g id="a_edge4_Node000003_Node000004"><a xlink:title=" ">
<path fill="none" stroke="#63b8ff" stroke-width="2" d="M447,-231.66C447,-223.93 447,-215.77 447,-209.35"/>
<polygon fill="#63b8ff" stroke="#63b8ff" stroke-width="2" points="443.5,-231.61 447,-241.61 450.5,-231.61 443.5,-231.61"/>
</a>
</g>
</g>
<!-- Node3&#45;&gt;Node12 -->
<g id="edge26_Node000003_Node000012" class="edge">
<title>Node3&#45;&gt;Node12</title>
<g id="a_edge26_Node000003_Node000012"><a xlink:title=" ">
<path fill="none" stroke="#63b8ff" stroke-width="2" d="M496.57,-239.35C510.95,-232.07 525.36,-222.16 535,-209 548.25,-190.92 549.95,-163.75 549.69,-148.2"/>
<polygon fill="#63b8ff" stroke="#63b8ff" stroke-width="2" points="495.49,-235.99 487.88,-243.36 498.43,-242.35 495.49,-235.99"/>
</a>
</g>
</g>
<!-- Node3&#45;&gt;Node13 -->
<g id="edge25_Node000003_Node000013" class="edge">
<title>Node3&#45;&gt;Node13</title>
<g id="a_edge25_Node000003_Node000013"><a xlink:title=" ">
<path fill="none" stroke="#63b8ff" stroke-width="2" d="M500.3,-239.91C518.64,-232.42 538.46,-222.24 554,-209 592.54,-176.17 606.81,-113.34 611.26,-86.98"/>
<polygon fill="#63b8ff" stroke="#63b8ff" stroke-width="2" points="499.12,-236.61 491.04,-243.46 501.63,-243.14 499.12,-236.61"/>
</a>
</g>
</g>
<!-- Node3&#45;&gt;Node21 -->
<g id="edge27_Node000003_Node000021" class="edge">
<title>Node3&#45;&gt;Node21</title>
<g id="a_edge27_Node000003_Node000021"><a xlink:title=" ">
<path fill="none" stroke="#63b8ff" stroke-width="2" d="M395.38,-240.43C371.83,-232.25 343.92,-221.41 320,-209 302.33,-199.83 300.22,-193.74 283,-183.75 251.37,-165.39 237.34,-170.87 209,-147.75 187.36,-130.1 169.14,-102.53 159.77,-86.84"/>
<polygon fill="#63b8ff" stroke="#63b8ff" stroke-width="2" points="394.15,-243.71 404.75,-243.61 396.4,-237.08 394.15,-243.71"/>
</a>
</g>
</g>
<!-- Node3&#45;&gt;Node23 -->
<g id="edge28_Node000003_Node000023" class="edge">
<title>Node3&#45;&gt;Node23</title>
<g id="a_edge28_Node000003_Node000023"><a xlink:title=" ">
<path fill="none" stroke="#63b8ff" stroke-width="2" d="M411.29,-238.89C395,-230.4 375.68,-219.76 359,-209 328.75,-189.5 295.81,-163.3 277.45,-148.22"/>
<polygon fill="#63b8ff" stroke="#63b8ff" stroke-width="2" points="409.34,-241.82 419.83,-243.27 412.53,-235.59 409.34,-241.82"/>
</a>
</g>
</g>
<!-- Node4&#45;&gt;Node12 -->
<g id="edge5_Node000004_Node000012" class="edge">
<title>Node4&#45;&gt;Node12</title>
<g id="a_edge5_Node000004_Node000012"><a xlink:title=" ">
<path fill="none" stroke="#63b8ff" stroke-width="2" d="M478.77,-176.92C494.95,-167.52 514.16,-156.37 528.39,-148.1"/>
<polygon fill="#63b8ff" stroke="#63b8ff" stroke-width="2" points="477.15,-173.82 470.26,-181.86 480.66,-179.87 477.15,-173.82"/>
</a>
</g>
</g>
<!-- Node4&#45;&gt;Node10 -->
<g id="edge19_Node000004_Node000010" class="edge">
<title>Node4&#45;&gt;Node10</title>
<g id="a_edge19_Node000004_Node000010"><a xlink:title=" ">
<path fill="none" stroke="#63b8ff" stroke-width="2" d="M460.01,-172.19C482.02,-132.98 525.82,-54.94 542.42,-25.36"/>
<polygon fill="#63b8ff" stroke="#63b8ff" stroke-width="2" points="457.02,-170.38 455.17,-180.81 463.12,-173.8 457.02,-170.38"/>
</a>
</g>
</g>
<!-- Node4&#45;&gt;Node16 -->
<g id="edge8_Node000004_Node000016" class="edge">
<title>Node4&#45;&gt;Node16</title>
<g id="a_edge8_Node000004_Node000016"><a xlink:title=" ">
<path fill="none" stroke="#63b8ff" stroke-width="2" d="M516.26,-180.67C566.81,-169.93 634,-155.66 678.56,-146.2"/>
<polygon fill="#63b8ff" stroke="#63b8ff" stroke-width="2" points="515.81,-177.18 506.76,-182.68 517.27,-184.03 515.81,-177.18"/>
</a>
</g>
</g>
<!-- Node4&#45;&gt;Node18 -->
<g id="edge15_Node000004_Node000018" class="edge">
<title>Node4&#45;&gt;Node18</title>
<g id="a_edge15_Node000004_Node000018"><a xlink:title=" ">
<path fill="none" stroke="#63b8ff" stroke-width="2" d="M449.31,-170.81C450.78,-142.23 449.28,-94.69 428,-61.25 417.84,-45.29 400.2,-33.56 384.81,-25.74"/>
<polygon fill="#63b8ff" stroke="#63b8ff" stroke-width="2" points="445.84,-170.27 448.62,-180.5 452.83,-170.77 445.84,-170.27"/>
</a>
</g>
</g>
<!-- Node4&#45;&gt;Node22 -->
<g id="edge16_Node000004_Node000022" class="edge">
<title>Node4&#45;&gt;Node22</title>
<g id="a_edge16_Node000004_Node000022"><a xlink:title=" ">
<path fill="none" stroke="#63b8ff" stroke-width="2" d="M430.07,-173.2C410.63,-147.74 379.46,-106.91 364.12,-86.82"/>
<polygon fill="#63b8ff" stroke="#63b8ff" stroke-width="2" points="427.16,-175.15 436.01,-180.97 432.72,-170.9 427.16,-175.15"/>
</a>
</g>
</g>
<!-- Node4&#45;&gt;Node23 -->
<g id="edge20_Node000004_Node000023" class="edge">
<title>Node4&#45;&gt;Node23</title>
<g id="a_edge20_Node000004_Node000023"><a xlink:title=" ">
<path fill="none" stroke="#63b8ff" stroke-width="2" d="M397.65,-179.48C367.11,-169.65 328.53,-157.23 300.5,-148.2"/>
<polygon fill="#63b8ff" stroke="#63b8ff" stroke-width="2" points="396.29,-182.72 406.88,-182.46 398.44,-176.06 396.29,-182.72"/>
</a>
</g>
</g>
<!-- Node12&#45;&gt;Node13 -->
<g id="edge6_Node000012_Node000013" class="edge">
<title>Node12&#45;&gt;Node13</title>
<g id="a_edge6_Node000012_Node000013"><a xlink:title=" ">
<path fill="none" stroke="#63b8ff" stroke-width="2" d="M571.33,-113.45C580.94,-104.55 591.83,-94.47 600.07,-86.85"/>
<polygon fill="#63b8ff" stroke="#63b8ff" stroke-width="2" points="569.13,-110.72 564.17,-120.08 573.89,-115.85 569.13,-110.72"/>
</a>
</g>
</g>
<!-- Node12&#45;&gt;Node10 -->
<g id="edge7_Node000012_Node000010" class="edge">
<title>Node12&#45;&gt;Node10</title>
<g id="a_edge7_Node000012_Node000010"><a xlink:title=" ">
<path fill="none" stroke="#63b8ff" stroke-width="2" d="M549,-109.16C549,-83.59 549,-44.94 549,-25.57"/>
<polygon fill="#63b8ff" stroke="#63b8ff" stroke-width="2" points="545.5,-109.1 549,-119.1 552.5,-109.1 545.5,-109.1"/>
</a>
</g>
</g>
<!-- Node16&#45;&gt;Node13 -->
<g id="edge9_Node000016_Node000013" class="edge">
<title>Node16&#45;&gt;Node13</title>
<g id="a_edge9_Node000016_Node000013"><a xlink:title=" ">
<path fill="none" stroke="#63b8ff" stroke-width="2" d="M691.84,-116.21C673.7,-106.7 651.91,-95.28 635.83,-86.85"/>
<polygon fill="#63b8ff" stroke="#63b8ff" stroke-width="2" points="689.97,-119.19 700.45,-120.73 693.22,-112.99 689.97,-119.19"/>
</a>
</g>
</g>
<!-- Node16&#45;&gt;Node10 -->
<g id="edge13_Node000016_Node000010" class="edge">
<title>Node16&#45;&gt;Node10</title>
<g id="a_edge13_Node000016_Node000010"><a xlink:title=" ">
<path fill="none" stroke="#63b8ff" stroke-width="2" d="M719.39,-109.95C713.9,-94.1 704.6,-74.03 690,-61.25 661.81,-36.58 620.31,-24.58 589.64,-18.81"/>
<polygon fill="#63b8ff" stroke="#63b8ff" stroke-width="2" points="715.93,-110.61 722.23,-119.12 722.61,-108.54 715.93,-110.61"/>
</a>
</g>
</g>
<!-- Node16&#45;&gt;Node8 -->
<g id="edge10_Node000016_Node000008" class="edge">
<title>Node16&#45;&gt;Node8</title>
<g id="a_edge10_Node000016_Node000008"><a xlink:title=" ">
<path fill="none" stroke="#63b8ff" stroke-width="2" d="M762.63,-116.62C782.7,-107.03 807.05,-95.4 824.94,-86.85"/>
<polygon fill="#63b8ff" stroke="#63b8ff" stroke-width="2" points="761.34,-113.36 753.82,-120.83 764.36,-119.68 761.34,-113.36"/>
</a>
</g>
</g>
<!-- Node16&#45;&gt;Node18 -->
<g id="edge11_Node000016_Node000018" class="edge">
<title>Node16&#45;&gt;Node18</title>
<g id="a_edge11_Node000016_Node000018"><a xlink:title=" ">
<path fill="none" stroke="#63b8ff" stroke-width="2" d="M711.05,-111.69C698.64,-94.97 679.42,-73.05 657,-61.25 616.67,-40.02 494.52,-25.84 418.49,-18.81"/>
<polygon fill="#63b8ff" stroke="#63b8ff" stroke-width="2" points="708.14,-113.64 716.77,-119.78 713.86,-109.6 708.14,-113.64"/>
</a>
</g>
</g>
<!-- Node16&#45;&gt;Node19 -->
<g id="edge12_Node000016_Node000019" class="edge">
<title>Node16&#45;&gt;Node19</title>
<g id="a_edge12_Node000016_Node000019"><a xlink:title=" ">
<path fill="none" stroke="#63b8ff" stroke-width="2" d="M786.48,-122.82C841.39,-112.56 922.13,-97.47 978.31,-86.97"/>
<polygon fill="#63b8ff" stroke="#63b8ff" stroke-width="2" points="785.96,-119.36 776.78,-124.63 787.25,-126.24 785.96,-119.36"/>
</a>
</g>
</g>
<!-- Node16&#45;&gt;Node21 -->
<g id="edge14_Node000016_Node000021" class="edge">
<title>Node16&#45;&gt;Node21</title>
<g id="a_edge14_Node000016_Node000021"><a xlink:title=" ">
<path fill="none" stroke="#63b8ff" stroke-width="2" d="M665.34,-127.85C549.39,-115.86 298.8,-89.95 197.16,-79.44"/>
<polygon fill="#63b8ff" stroke="#63b8ff" stroke-width="2" points="664.81,-131.32 675.12,-128.86 665.53,-124.35 664.81,-131.32"/>
</a>
</g>
</g>
<!-- Node22&#45;&gt;Node10 -->
<g id="edge18_Node000022_Node000010" class="edge">
<title>Node22&#45;&gt;Node10</title>
<g id="a_edge18_Node000022_Node000010"><a xlink:title=" ">
<path fill="none" stroke="#63b8ff" stroke-width="2" d="M406.6,-57.11C438.87,-47.26 479.78,-34.77 509.47,-25.7"/>
<polygon fill="#63b8ff" stroke="#63b8ff" stroke-width="2" points="405.7,-53.73 397.15,-60 407.74,-60.43 405.7,-53.73"/>
</a>
</g>
</g>
<!-- Node22&#45;&gt;Node18 -->
<g id="edge17_Node000022_Node000018" class="edge">
<title>Node22&#45;&gt;Node18</title>
<g id="a_edge17_Node000022_Node000018"><a xlink:title=" ">
<path fill="none" stroke="#63b8ff" stroke-width="2" d="M355,-47.91C355,-40.18 355,-32.02 355,-25.6"/>
<polygon fill="#63b8ff" stroke="#63b8ff" stroke-width="2" points="351.5,-47.86 355,-57.86 358.5,-47.86 351.5,-47.86"/>
</a>
</g>
</g>
<!-- Node23&#45;&gt;Node10 -->
<g id="edge23_Node000023_Node000010" class="edge">
<title>Node23&#45;&gt;Node10</title>
<g id="a_edge23_Node000023_Node000010"><a xlink:title=" ">
<path fill="none" stroke="#63b8ff" stroke-width="2" d="M262.98,-109.37C264.34,-93.4 268.86,-73.4 282,-61.25 298.45,-46.05 437.91,-27.14 508.46,-18.43"/>
<polygon fill="#63b8ff" stroke="#63b8ff" stroke-width="2" points="259.49,-108.92 262.58,-119.05 266.49,-109.2 259.49,-108.92"/>
</a>
</g>
</g>
<!-- Node23&#45;&gt;Node18 -->
<g id="edge21_Node000023_Node000018" class="edge">
<title>Node23&#45;&gt;Node18</title>
<g id="a_edge21_Node000023_Node000018"><a xlink:title=" ">
<path fill="none" stroke="#63b8ff" stroke-width="2" d="M250.26,-110.51C243.97,-95.36 239.54,-75.87 249,-61.25 260.23,-43.89 279.46,-32.79 298.49,-25.73"/>
<polygon fill="#63b8ff" stroke="#63b8ff" stroke-width="2" points="246.97,-111.74 254.42,-119.28 253.3,-108.74 246.97,-111.74"/>
</a>
</g>
</g>
<!-- Node23&#45;&gt;Node21 -->
<g id="edge24_Node000023_Node000021" class="edge">
<title>Node23&#45;&gt;Node21</title>
<g id="a_edge24_Node000023_Node000021"><a xlink:title=" ">
<path fill="none" stroke="#63b8ff" stroke-width="2" d="M229.49,-116.08C211.89,-106.6 190.8,-95.24 175.23,-86.85"/>
<polygon fill="#63b8ff" stroke="#63b8ff" stroke-width="2" points="227.61,-119.04 238.07,-120.7 230.93,-112.88 227.61,-119.04"/>
</a>
</g>
</g>
<!-- Node23&#45;&gt;Node22 -->
<g id="edge22_Node000023_Node000022" class="edge">
<title>Node23&#45;&gt;Node22</title>
<g id="a_edge22_Node000023_Node000022"><a xlink:title=" ">
<path fill="none" stroke="#63b8ff" stroke-width="2" d="M292.51,-115.12C306.92,-105.84 323.82,-94.95 336.41,-86.85"/>
<polygon fill="#63b8ff" stroke="#63b8ff" stroke-width="2" points="290.67,-112.14 284.16,-120.5 294.46,-118.02 290.67,-112.14"/>
</a>
</g>
</g>
<!-- Node9&#45;&gt;Node10 -->
<g id="edge36_Node000009_Node000010" class="edge">
<title>Node9&#45;&gt;Node10</title>
<g id="a_edge36_Node000009_Node000010"><a xlink:title=" ">
<path fill="none" stroke="#63b8ff" stroke-width="2" d="M941.36,-109.54C942.66,-93.64 941.23,-73.66 929,-61.25 905.44,-37.33 682.47,-21.5 589.45,-15.89"/>
<polygon fill="#63b8ff" stroke="#63b8ff" stroke-width="2" points="937.92,-108.8 940.09,-119.17 944.86,-109.71 937.92,-108.8"/>
</a>
</g>
</g>
<!-- Node9&#45;&gt;Node8 -->
<g id="edge35_Node000009_Node000008" class="edge">
<title>Node9&#45;&gt;Node8</title>
<g id="a_edge35_Node000009_Node000008"><a xlink:title=" ">
<path fill="none" stroke="#63b8ff" stroke-width="2" d="M908.69,-114.84C895.15,-105.62 879.37,-94.87 867.58,-86.85"/>
<polygon fill="#63b8ff" stroke="#63b8ff" stroke-width="2" points="906.66,-117.69 916.89,-120.43 910.6,-111.91 906.66,-117.69"/>
</a>
</g>
</g>
<!-- Node24&#45;&gt;Node19 -->
<g id="edge41_Node000024_Node000019" class="edge">
<title>Node24&#45;&gt;Node19</title>
<g id="a_edge41_Node000024_Node000019"><a xlink:title=" ">
<path fill="none" stroke="#63b8ff" stroke-width="2" d="M997.35,-173.64C1003.91,-165.88 1010.81,-156.8 1016,-147.75 1027.54,-127.62 1035.76,-101.64 1039.91,-86.76"/>
<polygon fill="#63b8ff" stroke="#63b8ff" stroke-width="2" points="994.83,-171.21 990.83,-181.02 1000.07,-175.84 994.83,-171.21"/>
</a>
</g>
</g>
</g>
</svg>
