<?xml version="1.0" encoding="UTF-8" standalone="no"?>
<!DOCTYPE svg PUBLIC "-//W3C//DTD SVG 1.1//EN"
 "http://www.w3.org/Graphics/SVG/1.1/DTD/svg11.dtd">
<!-- Generated by graphviz version 9.0.0 (0)
 -->
<!-- Title: animatedSpriteSheet.cpp Pages: 1 -->
<svg width="2183pt" height="217pt"
 viewBox="0.00 0.00 2182.88 217.00" xmlns="http://www.w3.org/2000/svg" xmlns:xlink="http://www.w3.org/1999/xlink">
<g id="graph0" class="graph" transform="scale(1 1) rotate(0) translate(4 213)">
<title>animatedSpriteSheet.cpp</title>
<!-- Node1 -->
<g id="Node000001" class="node">
<title>Node1</title>
<g id="a_Node000001"><a xlink:title=" ">
<polygon fill="#999999" stroke="#666666" points="1714.5,-209 1522.25,-209 1522.25,-183.75 1714.5,-183.75 1714.5,-209"/>
<text text-anchor="middle" x="1618.38" y="-191.7" font-family="Helvetica,sans-Serif" font-size="14.00">animatedSpriteSheet.cpp</text>
</a>
</g>
</g>
<!-- Node2 -->
<g id="Node000002" class="node">
<title>Node2</title>
<g id="a_Node000002"><a xlink:href="../../d7/db2/animatedSpriteSheet_8hpp.html" target="_top" xlink:title=" ">
<polygon fill="white" stroke="#666666" points="432.25,-147.75 238.5,-147.75 238.5,-122.5 432.25,-122.5 432.25,-147.75"/>
<text text-anchor="middle" x="335.38" y="-130.45" font-family="Helvetica,sans-Serif" font-size="14.00">animatedSpriteSheet.hpp</text>
</a>
</g>
</g>
<!-- Node1&#45;&gt;Node2 -->
<g id="edge1_Node000001_Node000002" class="edge">
<title>Node1&#45;&gt;Node2</title>
<g id="a_edge1_Node000001_Node000002"><a xlink:title=" ">
<path fill="none" stroke="#63b8ff" stroke-width="2" d="M1521.94,-190.92C1288.21,-180.13 692.55,-152.62 445.42,-141.21"/>
<polygon fill="#63b8ff" stroke="#63b8ff" stroke-width="2" points="445.66,-137.71 435.51,-140.75 445.34,-144.71 445.66,-137.71"/>
</a>
</g>
</g>
<!-- Node14 -->
<g id="Node000014" class="node">
<title>Node14</title>
<g id="a_Node000014"><a xlink:title=" ">
<polygon fill="#e0e0e0" stroke="#999999" points="382.75,-86.5 288,-86.5 288,-61.25 382.75,-61.25 382.75,-86.5"/>
<text text-anchor="middle" x="335.38" y="-69.2" font-family="Helvetica,sans-Serif" font-size="14.00">string_view</text>
</a>
</g>
</g>
<!-- Node1&#45;&gt;Node14 -->
<g id="edge25_Node000001_Node000014" class="edge">
<title>Node1&#45;&gt;Node14</title>
<g id="a_edge25_Node000001_Node000014"><a xlink:title=" ">
<path fill="none" stroke="#63b8ff" stroke-width="2" d="M1522.08,-190.65C1316.63,-179.73 820.08,-148.94 395.81,-87.03"/>
<polygon fill="#63b8ff" stroke="#63b8ff" stroke-width="2" points="396.36,-83.58 385.96,-85.59 395.35,-90.5 396.36,-83.58"/>
</a>
</g>
</g>
<!-- Node15 -->
<g id="Node000015" class="node">
<title>Node15</title>
<g id="a_Node000015"><a xlink:href="../../de/d46/engine_8hpp.html" target="_top" xlink:title=" ">
<polygon fill="white" stroke="#666666" points="1552.75,-147.75 1458,-147.75 1458,-122.5 1552.75,-122.5 1552.75,-147.75"/>
<text text-anchor="middle" x="1505.38" y="-130.45" font-family="Helvetica,sans-Serif" font-size="14.00">engine.hpp</text>
</a>
</g>
</g>
<!-- Node1&#45;&gt;Node15 -->
<g id="edge7_Node000001_Node000015" class="edge">
<title>Node1&#45;&gt;Node15</title>
<g id="a_edge7_Node000001_Node000015"><a xlink:title=" ">
<path fill="none" stroke="#63b8ff" stroke-width="2" d="M1595.51,-183.38C1579.43,-174.95 1557.63,-163.52 1539.5,-154.02"/>
<polygon fill="#63b8ff" stroke="#63b8ff" stroke-width="2" points="1541.37,-151.05 1530.89,-149.5 1538.12,-157.25 1541.37,-151.05"/>
</a>
</g>
</g>
<!-- Node21 -->
<g id="Node000021" class="node">
<title>Node21</title>
<g id="a_Node000021"><a xlink:href="../../d4/d3d/log_8hpp.html" target="_top" xlink:title=" ">
<polygon fill="#fff0f0" stroke="red" points="2071.62,-86.5 2003.12,-86.5 2003.12,-61.25 2071.62,-61.25 2071.62,-86.5"/>
<text text-anchor="middle" x="2037.38" y="-69.2" font-family="Helvetica,sans-Serif" font-size="14.00">log.hpp</text>
</a>
</g>
</g>
<!-- Node1&#45;&gt;Node21 -->
<g id="edge19_Node000001_Node000021" class="edge">
<title>Node1&#45;&gt;Node21</title>
<g id="a_edge19_Node000001_Node000021"><a xlink:title=" ">
<path fill="none" stroke="#63b8ff" stroke-width="2" d="M1610.65,-183.38C1601.44,-167.42 1589.1,-139.25 1604.38,-122.5 1631.87,-92.35 1912.94,-93.87 1990.17,-86.41"/>
<polygon fill="#63b8ff" stroke="#63b8ff" stroke-width="2" points="1990.28,-89.92 1999.76,-85.17 1989.39,-82.98 1990.28,-89.92"/>
</a>
</g>
</g>
<!-- Node22 -->
<g id="Node000022" class="node">
<title>Node22</title>
<g id="a_Node000022"><a xlink:title=" ">
<polygon fill="#e0e0e0" stroke="#999999" points="2174.88,-86.5 2089.88,-86.5 2089.88,-61.25 2174.88,-61.25 2174.88,-86.5"/>
<text text-anchor="middle" x="2132.38" y="-69.2" font-family="Helvetica,sans-Serif" font-size="14.00">functional</text>
</a>
</g>
</g>
<!-- Node1&#45;&gt;Node22 -->
<g id="edge21_Node000001_Node000022" class="edge">
<title>Node1&#45;&gt;Node22</title>
<g id="a_edge21_Node000001_Node000022"><a xlink:title=" ">
<path fill="none" stroke="#63b8ff" stroke-width="2" d="M1617.63,-183.37C1617.33,-166.85 1619.55,-137.46 1637.38,-122.5 1673.02,-92.57 1991.54,-93.66 2076.73,-86.37"/>
<polygon fill="#63b8ff" stroke="#63b8ff" stroke-width="2" points="2077.06,-89.85 2086.61,-85.26 2076.28,-82.9 2077.06,-89.85"/>
</a>
</g>
</g>
<!-- Node24 -->
<g id="Node000024" class="node">
<title>Node24</title>
<g id="a_Node000024"><a xlink:title=" ">
<polygon fill="#e0e0e0" stroke="#999999" points="1716,-147.75 1646.75,-147.75 1646.75,-122.5 1716,-122.5 1716,-147.75"/>
<text text-anchor="middle" x="1681.38" y="-130.45" font-family="Helvetica,sans-Serif" font-size="14.00">fstream</text>
</a>
</g>
</g>
<!-- Node1&#45;&gt;Node24 -->
<g id="edge20_Node000001_Node000024" class="edge">
<title>Node1&#45;&gt;Node24</title>
<g id="a_edge20_Node000001_Node000024"><a xlink:title=" ">
<path fill="none" stroke="#63b8ff" stroke-width="2" d="M1631.12,-183.38C1639.24,-175.76 1649.96,-165.67 1659.41,-156.78"/>
<polygon fill="#63b8ff" stroke="#63b8ff" stroke-width="2" points="1661.55,-159.57 1666.44,-150.17 1656.76,-154.47 1661.55,-159.57"/>
</a>
</g>
</g>
<!-- Node25 -->
<g id="Node000025" class="node">
<title>Node25</title>
<g id="a_Node000025"><a xlink:title=" ">
<polygon fill="#e0e0e0" stroke="#999999" points="1810.38,-147.75 1734.38,-147.75 1734.38,-122.5 1810.38,-122.5 1810.38,-147.75"/>
<text text-anchor="middle" x="1772.38" y="-130.45" font-family="Helvetica,sans-Serif" font-size="14.00">iostream</text>
</a>
</g>
</g>
<!-- Node1&#45;&gt;Node25 -->
<g id="edge22_Node000001_Node000025" class="edge">
<title>Node1&#45;&gt;Node25</title>
<g id="a_edge22_Node000001_Node000025"><a xlink:title=" ">
<path fill="none" stroke="#63b8ff" stroke-width="2" d="M1649.54,-183.38C1672.42,-174.58 1703.8,-162.51 1729.12,-152.77"/>
<polygon fill="#63b8ff" stroke="#63b8ff" stroke-width="2" points="1730.09,-156.14 1738.17,-149.29 1727.58,-149.61 1730.09,-156.14"/>
</a>
</g>
</g>
<!-- Node26 -->
<g id="Node000026" class="node">
<title>Node26</title>
<g id="a_Node000026"><a xlink:title=" ">
<polygon fill="#e0e0e0" stroke="#999999" points="1882.12,-147.75 1828.62,-147.75 1828.62,-122.5 1882.12,-122.5 1882.12,-147.75"/>
<text text-anchor="middle" x="1855.38" y="-130.45" font-family="Helvetica,sans-Serif" font-size="14.00">limits</text>
</a>
</g>
</g>
<!-- Node1&#45;&gt;Node26 -->
<g id="edge23_Node000001_Node000026" class="edge">
<title>Node1&#45;&gt;Node26</title>
<g id="a_edge23_Node000001_Node000026"><a xlink:title=" ">
<path fill="none" stroke="#63b8ff" stroke-width="2" d="M1674.57,-183.32C1712.12,-174.98 1762.86,-163.17 1815.89,-148.58"/>
<polygon fill="#63b8ff" stroke="#63b8ff" stroke-width="2" points="1816.71,-151.98 1825.4,-145.93 1814.83,-145.24 1816.71,-151.98"/>
</a>
</g>
</g>
<!-- Node27 -->
<g id="Node000027" class="node">
<title>Node27</title>
<g id="a_Node000027"><a xlink:title=" ">
<polygon fill="#e0e0e0" stroke="#999999" points="1956.62,-147.75 1900.12,-147.75 1900.12,-122.5 1956.62,-122.5 1956.62,-147.75"/>
<text text-anchor="middle" x="1928.38" y="-130.45" font-family="Helvetica,sans-Serif" font-size="14.00">string</text>
</a>
</g>
</g>
<!-- Node1&#45;&gt;Node27 -->
<g id="edge24_Node000001_Node000027" class="edge">
<title>Node1&#45;&gt;Node27</title>
<g id="a_edge24_Node000001_Node000027"><a xlink:title=" ">
<path fill="none" stroke="#63b8ff" stroke-width="2" d="M1704.74,-183.29C1755.58,-175.48 1821.31,-164.2 1887.45,-148.5"/>
<polygon fill="#63b8ff" stroke="#63b8ff" stroke-width="2" points="1887.96,-151.97 1896.85,-146.22 1886.31,-145.17 1887.96,-151.97"/>
</a>
</g>
</g>
<!-- Node3 -->
<g id="Node000003" class="node">
<title>Node3</title>
<g id="a_Node000003"><a xlink:title=" ">
<polygon fill="#e0e0e0" stroke="#999999" points="184.75,-86.5 0,-86.5 0,-61.25 184.75,-61.25 184.75,-86.5"/>
<text text-anchor="middle" x="92.38" y="-69.2" font-family="Helvetica,sans-Serif" font-size="14.00">SFML/Graphics/Rect.hpp</text>
</a>
</g>
</g>
<!-- Node2&#45;&gt;Node3 -->
<g id="edge2_Node000002_Node000003" class="edge">
<title>Node2&#45;&gt;Node3</title>
<g id="a_edge2_Node000002_Node000003"><a xlink:title=" ">
<path fill="none" stroke="#63b8ff" stroke-width="2" d="M285.91,-122.06C247.88,-112.79 195.13,-99.93 154.3,-89.97"/>
<polygon fill="#63b8ff" stroke="#63b8ff" stroke-width="2" points="155.26,-86.61 144.71,-87.64 153.6,-93.41 155.26,-86.61"/>
</a>
</g>
</g>
<!-- Node4 -->
<g id="Node000004" class="node">
<title>Node4</title>
<g id="a_Node000004"><a xlink:href="../../dc/d3e/animatedObject_8hpp.html" target="_top" xlink:title=" ">
<polygon fill="#fff0f0" stroke="red" points="558.25,-86.5 400.5,-86.5 400.5,-61.25 558.25,-61.25 558.25,-86.5"/>
<text text-anchor="middle" x="479.38" y="-69.2" font-family="Helvetica,sans-Serif" font-size="14.00">animatedObject.hpp</text>
</a>
</g>
</g>
<!-- Node2&#45;&gt;Node4 -->
<g id="edge3_Node000002_Node000004" class="edge">
<title>Node2&#45;&gt;Node4</title>
<g id="a_edge3_Node000002_Node000004"><a xlink:title=" ">
<path fill="none" stroke="#63b8ff" stroke-width="2" d="M364.52,-122.13C385.79,-113.38 414.91,-101.4 438.51,-91.69"/>
<polygon fill="#63b8ff" stroke="#63b8ff" stroke-width="2" points="439.56,-95.04 447.48,-88 436.9,-88.57 439.56,-95.04"/>
</a>
</g>
</g>
<!-- Node13 -->
<g id="Node000013" class="node">
<title>Node13</title>
<g id="a_Node000013"><a xlink:title=" ">
<polygon fill="#e0e0e0" stroke="#999999" points="270.25,-86.5 202.5,-86.5 202.5,-61.25 270.25,-61.25 270.25,-86.5"/>
<text text-anchor="middle" x="236.38" y="-69.2" font-family="Helvetica,sans-Serif" font-size="14.00">istream</text>
</a>
</g>
</g>
<!-- Node2&#45;&gt;Node13 -->
<g id="edge5_Node000002_Node000013" class="edge">
<title>Node2&#45;&gt;Node13</title>
<g id="a_edge5_Node000002_Node000013"><a xlink:title=" ">
<path fill="none" stroke="#63b8ff" stroke-width="2" d="M315.34,-122.13C301.52,-113.86 282.88,-102.71 267.18,-93.31"/>
<polygon fill="#63b8ff" stroke="#63b8ff" stroke-width="2" points="269.35,-90.53 258.98,-88.4 265.76,-96.54 269.35,-90.53"/>
</a>
</g>
</g>
<!-- Node2&#45;&gt;Node14 -->
<g id="edge6_Node000002_Node000014" class="edge">
<title>Node2&#45;&gt;Node14</title>
<g id="a_edge6_Node000002_Node000014"><a xlink:title=" ">
<path fill="none" stroke="#63b8ff" stroke-width="2" d="M335.38,-122.13C335.38,-115.71 335.38,-107.55 335.38,-99.82"/>
<polygon fill="#63b8ff" stroke="#63b8ff" stroke-width="2" points="338.88,-99.87 335.38,-89.87 331.88,-99.87 338.88,-99.87"/>
</a>
</g>
</g>
<!-- Node7 -->
<g id="Node000007" class="node">
<title>Node7</title>
<g id="a_Node000007"><a xlink:href="../../d9/d03/point2d_8hpp.html" target="_top" xlink:title=" ">
<polygon fill="#fff0f0" stroke="red" points="1139.75,-25.25 1039,-25.25 1039,0 1139.75,0 1139.75,-25.25"/>
<text text-anchor="middle" x="1089.38" y="-7.95" font-family="Helvetica,sans-Serif" font-size="14.00">point2d.hpp</text>
</a>
</g>
</g>
<!-- Node4&#45;&gt;Node7 -->
<g id="edge4_Node000004_Node000007" class="edge">
<title>Node4&#45;&gt;Node7</title>
<g id="a_edge4_Node000004_Node000007"><a xlink:title=" ">
<path fill="none" stroke="#63b8ff" stroke-width="2" d="M558.51,-62.27C561.5,-61.92 564.47,-61.57 567.38,-61.25 732.31,-42.84 927.16,-26.49 1025.6,-18.61"/>
<polygon fill="#63b8ff" stroke="#63b8ff" stroke-width="2" points="1025.84,-22.1 1035.53,-17.82 1025.28,-15.12 1025.84,-22.1"/>
</a>
</g>
</g>
<!-- Node15&#45;&gt;Node4 -->
<g id="edge13_Node000015_Node000004" class="edge">
<title>Node15&#45;&gt;Node4</title>
<g id="a_edge13_Node000015_Node000004"><a xlink:title=" ">
<path fill="none" stroke="#63b8ff" stroke-width="2" d="M1457.94,-133.07C1321.81,-129.75 917.99,-117.89 571.32,-86.79"/>
<polygon fill="#63b8ff" stroke="#63b8ff" stroke-width="2" points="571.79,-83.32 561.51,-85.91 571.15,-90.29 571.79,-83.32"/>
</a>
</g>
</g>
<!-- Node15&#45;&gt;Node7 -->
<g id="edge15_Node000015_Node000007" class="edge">
<title>Node15&#45;&gt;Node7</title>
<g id="a_edge15_Node000015_Node000007"><a xlink:title=" ">
<path fill="none" stroke="#63b8ff" stroke-width="2" d="M1553,-124.26C1602.07,-113.62 1672.49,-96.82 1680.38,-86.5 1687.19,-77.58 1687.98,-69.5 1680.38,-61.25 1645.18,-23.1 1298.56,-15.5 1153.11,-14"/>
<polygon fill="#63b8ff" stroke="#63b8ff" stroke-width="2" points="1153.15,-10.5 1143.11,-13.9 1153.08,-17.5 1153.15,-10.5"/>
</a>
</g>
</g>
<!-- Node16 -->
<g id="Node000016" class="node">
<title>Node16</title>
<g id="a_Node000016"><a xlink:title=" ">
<polygon fill="#e0e0e0" stroke="#999999" points="1985.5,-86.5 1727.25,-86.5 1727.25,-61.25 1985.5,-61.25 1985.5,-86.5"/>
<text text-anchor="middle" x="1856.38" y="-69.2" font-family="Helvetica,sans-Serif" font-size="14.00">SFML/Graphics/RenderWindow.hpp</text>
</a>
</g>
</g>
<!-- Node15&#45;&gt;Node16 -->
<g id="edge8_Node000015_Node000016" class="edge">
<title>Node15&#45;&gt;Node16</title>
<g id="a_edge8_Node000015_Node000016"><a xlink:title=" ">
<path fill="none" stroke="#63b8ff" stroke-width="2" d="M1552.97,-124.93C1557.5,-124.09 1562.02,-123.27 1566.38,-122.5 1633.4,-110.61 1709.32,-98.18 1766.67,-89"/>
<polygon fill="#63b8ff" stroke="#63b8ff" stroke-width="2" points="1767.04,-92.49 1776.36,-87.45 1765.93,-85.57 1767.04,-92.49"/>
</a>
</g>
</g>
<!-- Node17 -->
<g id="Node000017" class="node">
<title>Node17</title>
<g id="a_Node000017"><a xlink:title=" ">
<polygon fill="#e0e0e0" stroke="#999999" points="774.5,-86.5 576.25,-86.5 576.25,-61.25 774.5,-61.25 774.5,-86.5"/>
<text text-anchor="middle" x="675.38" y="-69.2" font-family="Helvetica,sans-Serif" font-size="14.00">SFML/Graphics/Shape.hpp</text>
</a>
</g>
</g>
<!-- Node15&#45;&gt;Node17 -->
<g id="edge9_Node000015_Node000017" class="edge">
<title>Node15&#45;&gt;Node17</title>
<g id="a_edge9_Node000015_Node000017"><a xlink:title=" ">
<path fill="none" stroke="#63b8ff" stroke-width="2" d="M1457.59,-131.66C1343.68,-125.63 1046.89,-109.06 787.53,-86.83"/>
<polygon fill="#63b8ff" stroke="#63b8ff" stroke-width="2" points="788.09,-83.37 777.83,-86 787.49,-90.34 788.09,-83.37"/>
</a>
</g>
</g>
<!-- Node18 -->
<g id="Node000018" class="node">
<title>Node18</title>
<g id="a_Node000018"><a xlink:title=" ">
<polygon fill="#e0e0e0" stroke="#999999" points="974.62,-86.5 792.12,-86.5 792.12,-61.25 974.62,-61.25 974.62,-86.5"/>
<text text-anchor="middle" x="883.38" y="-69.2" font-family="Helvetica,sans-Serif" font-size="14.00">SFML/System/Clock.hpp</text>
</a>
</g>
</g>
<!-- Node15&#45;&gt;Node18 -->
<g id="edge10_Node000015_Node000018" class="edge">
<title>Node15&#45;&gt;Node18</title>
<g id="a_edge10_Node000015_Node000018"><a xlink:title=" ">
<path fill="none" stroke="#63b8ff" stroke-width="2" d="M1457.57,-130.13C1367.94,-122.56 1168.17,-105.31 987.96,-86.85"/>
<polygon fill="#63b8ff" stroke="#63b8ff" stroke-width="2" points="988.34,-83.37 978.03,-85.83 987.62,-90.33 988.34,-83.37"/>
</a>
</g>
</g>
<!-- Node19 -->
<g id="Node000019" class="node">
<title>Node19</title>
<g id="a_Node000019"><a xlink:title=" ">
<polygon fill="#e0e0e0" stroke="#999999" points="1171.75,-86.5 993,-86.5 993,-61.25 1171.75,-61.25 1171.75,-86.5"/>
<text text-anchor="middle" x="1082.38" y="-69.2" font-family="Helvetica,sans-Serif" font-size="14.00">SFML/System/Time.hpp</text>
</a>
</g>
</g>
<!-- Node15&#45;&gt;Node19 -->
<g id="edge11_Node000015_Node000019" class="edge">
<title>Node15&#45;&gt;Node19</title>
<g id="a_edge11_Node000015_Node000019"><a xlink:title=" ">
<path fill="none" stroke="#63b8ff" stroke-width="2" d="M1457.67,-127.44C1391.02,-118.11 1268.44,-100.94 1181.52,-88.76"/>
<polygon fill="#63b8ff" stroke="#63b8ff" stroke-width="2" points="1182.09,-85.31 1171.7,-87.39 1181.12,-92.24 1182.09,-85.31"/>
</a>
</g>
</g>
<!-- Node20 -->
<g id="Node000020" class="node">
<title>Node20</title>
<g id="a_Node000020"><a xlink:title=" ">
<polygon fill="#e0e0e0" stroke="#999999" points="1377.25,-86.5 1189.5,-86.5 1189.5,-61.25 1377.25,-61.25 1377.25,-86.5"/>
<text text-anchor="middle" x="1283.38" y="-69.2" font-family="Helvetica,sans-Serif" font-size="14.00">SFML/Window/Event.hpp</text>
</a>
</g>
</g>
<!-- Node15&#45;&gt;Node20 -->
<g id="edge12_Node000015_Node000020" class="edge">
<title>Node15&#45;&gt;Node20</title>
<g id="a_edge12_Node000015_Node000020"><a xlink:title=" ">
<path fill="none" stroke="#63b8ff" stroke-width="2" d="M1460.18,-122.06C1425.67,-112.85 1377.88,-100.1 1340.68,-90.17"/>
<polygon fill="#63b8ff" stroke="#63b8ff" stroke-width="2" points="1341.99,-86.9 1331.43,-87.7 1340.19,-93.66 1341.99,-86.9"/>
</a>
</g>
</g>
<!-- Node15&#45;&gt;Node21 -->
<g id="edge14_Node000015_Node000021" class="edge">
<title>Node15&#45;&gt;Node21</title>
<g id="a_edge14_Node000015_Node000021"><a xlink:title=" ">
<path fill="none" stroke="#63b8ff" stroke-width="2" d="M1553.25,-124.51C1557.68,-123.77 1562.1,-123.09 1566.38,-122.5 1751.35,-97.17 1804.06,-118.56 1990.02,-87.01"/>
<polygon fill="#63b8ff" stroke="#63b8ff" stroke-width="2" points="1990.52,-90.48 1999.78,-85.32 1989.33,-83.58 1990.52,-90.48"/>
</a>
</g>
</g>
<!-- Node6 -->
<g id="Node000006" class="node">
<title>Node6</title>
<g id="a_Node000006"><a xlink:title=" ">
<polygon fill="#e0e0e0" stroke="#999999" points="1615.38,-86.5 1395.38,-86.5 1395.38,-61.25 1615.38,-61.25 1615.38,-86.5"/>
<text text-anchor="middle" x="1505.38" y="-69.2" font-family="Helvetica,sans-Serif" font-size="14.00">SFML/Graphics/Drawable.hpp</text>
</a>
</g>
</g>
<!-- Node15&#45;&gt;Node6 -->
<g id="edge16_Node000015_Node000006" class="edge">
<title>Node15&#45;&gt;Node6</title>
<g id="a_edge16_Node000015_Node000006"><a xlink:title=" ">
<path fill="none" stroke="#63b8ff" stroke-width="2" d="M1505.38,-122.13C1505.38,-115.71 1505.38,-107.55 1505.38,-99.82"/>
<polygon fill="#63b8ff" stroke="#63b8ff" stroke-width="2" points="1508.88,-99.87 1505.38,-89.87 1501.88,-99.87 1508.88,-99.87"/>
</a>
</g>
</g>
<!-- Node15&#45;&gt;Node22 -->
<g id="edge17_Node000015_Node000022" class="edge">
<title>Node15&#45;&gt;Node22</title>
<g id="a_edge17_Node000015_Node000022"><a xlink:title=" ">
<path fill="none" stroke="#63b8ff" stroke-width="2" d="M1553.17,-128.11C1569.41,-126.17 1587.67,-124.11 1604.38,-122.5 1811.43,-102.52 1868.32,-117.13 2076.97,-86.81"/>
<polygon fill="#63b8ff" stroke="#63b8ff" stroke-width="2" points="2077.24,-90.31 2086.62,-85.39 2076.22,-83.39 2077.24,-90.31"/>
</a>
</g>
</g>
<!-- Node23 -->
<g id="Node000023" class="node">
<title>Node23</title>
<g id="a_Node000023"><a xlink:title=" ">
<polygon fill="#e0e0e0" stroke="#999999" points="1670.88,-86.5 1633.88,-86.5 1633.88,-61.25 1670.88,-61.25 1670.88,-86.5"/>
<text text-anchor="middle" x="1652.38" y="-69.2" font-family="Helvetica,sans-Serif" font-size="14.00">set</text>
</a>
</g>
</g>
<!-- Node15&#45;&gt;Node23 -->
<g id="edge18_Node000015_Node000023" class="edge">
<title>Node15&#45;&gt;Node23</title>
<g id="a_edge18_Node000015_Node000023"><a xlink:title=" ">
<path fill="none" stroke="#63b8ff" stroke-width="2" d="M1535.74,-122.1C1557.37,-113.5 1587.39,-101.52 1621.64,-87.58"/>
<polygon fill="#63b8ff" stroke="#63b8ff" stroke-width="2" points="1622.67,-90.95 1630.61,-83.93 1620.03,-84.46 1622.67,-90.95"/>
</a>
</g>
</g>
</g>
</svg>
