<?xml version="1.0" encoding="UTF-8" standalone="no"?>
<!DOCTYPE svg PUBLIC "-//W3C//DTD SVG 1.1//EN"
 "http://www.w3.org/Graphics/SVG/1.1/DTD/svg11.dtd">
<!-- Generated by graphviz version 9.0.0 (0)
 -->
<!-- Title: gamePlayer.cpp Pages: 1 -->
<svg width="2316pt" height="340pt"
 viewBox="0.00 0.00 2316.12 339.50" xmlns="http://www.w3.org/2000/svg" xmlns:xlink="http://www.w3.org/1999/xlink">
<g id="graph0" class="graph" transform="scale(1 1) rotate(0) translate(4 335.5)">
<title>gamePlayer.cpp</title>
<!-- Node1 -->
<g id="Node000001" class="node">
<title>Node1</title>
<g id="a_Node000001"><a xlink:title=" ">
<polygon fill="#999999" stroke="#666666" points="552.49,-331.5 426.24,-331.5 426.24,-306.25 552.49,-306.25 552.49,-331.5"/>
<text text-anchor="middle" x="489.37" y="-314.2" font-family="Helvetica,sans-Serif" font-size="14.00">gamePlayer.cpp</text>
</a>
</g>
</g>
<!-- Node2 -->
<g id="Node000002" class="node">
<title>Node2</title>
<g id="a_Node000002"><a xlink:href="../../d7/d9b/gamePlayer_8hpp.html" target="_top" xlink:title=" ">
<polygon fill="white" stroke="#666666" points="346.24,-270.25 218.49,-270.25 218.49,-245 346.24,-245 346.24,-270.25"/>
<text text-anchor="middle" x="282.37" y="-252.95" font-family="Helvetica,sans-Serif" font-size="14.00">gamePlayer.hpp</text>
</a>
</g>
</g>
<!-- Node1&#45;&gt;Node2 -->
<g id="edge1_Node000001_Node000002" class="edge">
<title>Node1&#45;&gt;Node2</title>
<g id="a_edge1_Node000001_Node000002"><a xlink:title=" ">
<path fill="none" stroke="#63b8ff" stroke-width="2" d="M447.23,-305.81C415.33,-296.68 371.25,-284.07 336.7,-274.18"/>
<polygon fill="#63b8ff" stroke="#63b8ff" stroke-width="2" points="337.93,-270.89 327.36,-271.5 336.01,-277.62 337.93,-270.89"/>
</a>
</g>
</g>
<!-- Node3 -->
<g id="Node000003" class="node">
<title>Node3</title>
<g id="a_Node000003"><a xlink:title=" ">
<polygon fill="#e0e0e0" stroke="#999999" points="203.74,-209 18.99,-209 18.99,-183.75 203.74,-183.75 203.74,-209"/>
<text text-anchor="middle" x="111.37" y="-191.7" font-family="Helvetica,sans-Serif" font-size="14.00">SFML/Graphics/Rect.hpp</text>
</a>
</g>
</g>
<!-- Node1&#45;&gt;Node3 -->
<g id="edge16_Node000001_Node000003" class="edge">
<title>Node1&#45;&gt;Node3</title>
<g id="a_edge16_Node000001_Node000003"><a xlink:title=" ">
<path fill="none" stroke="#63b8ff" stroke-width="2" d="M425.82,-315.51C367.47,-311.41 279.64,-300.29 209.37,-270.25 180.22,-257.79 151.7,-235.03 133.01,-218.25"/>
<polygon fill="#63b8ff" stroke="#63b8ff" stroke-width="2" points="135.39,-215.69 125.67,-211.47 130.64,-220.83 135.39,-215.69"/>
</a>
</g>
</g>
<!-- Node5 -->
<g id="Node000005" class="node">
<title>Node5</title>
<g id="a_Node000005"><a xlink:href="../../dc/d3e/animatedObject_8hpp.html" target="_top" xlink:title=" ">
<polygon fill="#fff0f0" stroke="red" points="386.24,-147.75 228.49,-147.75 228.49,-122.5 386.24,-122.5 386.24,-147.75"/>
<text text-anchor="middle" x="307.37" y="-130.45" font-family="Helvetica,sans-Serif" font-size="14.00">animatedObject.hpp</text>
</a>
</g>
</g>
<!-- Node1&#45;&gt;Node5 -->
<g id="edge18_Node000001_Node000005" class="edge">
<title>Node1&#45;&gt;Node5</title>
<g id="a_edge18_Node000001_Node000005"><a xlink:title=" ">
<path fill="none" stroke="#63b8ff" stroke-width="2" d="M477.42,-305.95C447.08,-275.65 366.7,-195.38 328.33,-157.06"/>
<polygon fill="#63b8ff" stroke="#63b8ff" stroke-width="2" points="330.81,-154.59 321.26,-150 325.86,-159.54 330.81,-154.59"/>
</a>
</g>
</g>
<!-- Node10 -->
<g id="Node000010" class="node">
<title>Node10</title>
<g id="a_Node000010"><a xlink:title=" ">
<polygon fill="#e0e0e0" stroke="#999999" points="664.37,-86.5 468.37,-86.5 468.37,-61.25 664.37,-61.25 664.37,-86.5"/>
<text text-anchor="middle" x="566.37" y="-69.2" font-family="Helvetica,sans-Serif" font-size="14.00">SFML/Graphics/Sprite.hpp</text>
</a>
</g>
</g>
<!-- Node1&#45;&gt;Node10 -->
<g id="edge17_Node000001_Node000010" class="edge">
<title>Node1&#45;&gt;Node10</title>
<g id="a_edge17_Node000001_Node000010"><a xlink:title=" ">
<path fill="none" stroke="#63b8ff" stroke-width="2" d="M552.65,-316.5C848.82,-309.41 2088.47,-272.43 2201.37,-147.75 2208.9,-139.43 2209.18,-130.55 2201.37,-122.5 2174.8,-95.15 1041.35,-80.16 677.53,-76.05"/>
<polygon fill="#63b8ff" stroke="#63b8ff" stroke-width="2" points="677.72,-72.55 667.68,-75.94 677.64,-79.55 677.72,-72.55"/>
</a>
</g>
</g>
<!-- Node8 -->
<g id="Node000008" class="node">
<title>Node8</title>
<g id="a_Node000008"><a xlink:href="../../d9/d03/point2d_8hpp.html" target="_top" xlink:title=" ">
<polygon fill="#fff0f0" stroke="red" points="311.74,-86.5 210.99,-86.5 210.99,-61.25 311.74,-61.25 311.74,-86.5"/>
<text text-anchor="middle" x="261.37" y="-69.2" font-family="Helvetica,sans-Serif" font-size="14.00">point2d.hpp</text>
</a>
</g>
</g>
<!-- Node1&#45;&gt;Node8 -->
<g id="edge33_Node000001_Node000008" class="edge">
<title>Node1&#45;&gt;Node8</title>
<g id="a_edge33_Node000001_Node000008"><a xlink:title=" ">
<path fill="none" stroke="#63b8ff" stroke-width="2" d="M425.91,-313.8C306.57,-304.59 56.54,-277.38 10.37,-209 -39.97,-134.46 108.22,-98.11 198.03,-83.32"/>
<polygon fill="#63b8ff" stroke="#63b8ff" stroke-width="2" points="198.51,-86.79 207.84,-81.77 197.41,-79.88 198.51,-86.79"/>
</a>
</g>
</g>
<!-- Node13 -->
<g id="Node000013" class="node">
<title>Node13</title>
<g id="a_Node000013"><a xlink:href="../../d9/d85/player_8hpp.html" target="_top" xlink:title=" ">
<polygon fill="#fff0f0" stroke="red" points="572.12,-209 482.62,-209 482.62,-183.75 572.12,-183.75 572.12,-209"/>
<text text-anchor="middle" x="527.37" y="-191.7" font-family="Helvetica,sans-Serif" font-size="14.00">player.hpp</text>
</a>
</g>
</g>
<!-- Node1&#45;&gt;Node13 -->
<g id="edge32_Node000001_Node000013" class="edge">
<title>Node1&#45;&gt;Node13</title>
<g id="a_edge32_Node000001_Node000013"><a xlink:title=" ">
<path fill="none" stroke="#63b8ff" stroke-width="2" d="M493.15,-305.88C499.32,-286.3 511.68,-247.1 519.74,-221.57"/>
<polygon fill="#63b8ff" stroke="#63b8ff" stroke-width="2" points="523.02,-222.8 522.69,-212.21 516.34,-220.69 523.02,-222.8"/>
</a>
</g>
</g>
<!-- Node15 -->
<g id="Node000015" class="node">
<title>Node15</title>
<g id="a_Node000015"><a xlink:href="../../d4/d3d/log_8hpp.html" target="_top" xlink:title=" ">
<polygon fill="#fff0f0" stroke="red" points="878.62,-147.75 810.12,-147.75 810.12,-122.5 878.62,-122.5 878.62,-147.75"/>
<text text-anchor="middle" x="844.37" y="-130.45" font-family="Helvetica,sans-Serif" font-size="14.00">log.hpp</text>
</a>
</g>
</g>
<!-- Node1&#45;&gt;Node15 -->
<g id="edge31_Node000001_Node000015" class="edge">
<title>Node1&#45;&gt;Node15</title>
<g id="a_edge31_Node000001_Node000015"><a xlink:title=" ">
<path fill="none" stroke="#63b8ff" stroke-width="2" d="M512.93,-305.81C573.98,-274.56 737.49,-190.84 809.5,-153.98"/>
<polygon fill="#63b8ff" stroke="#63b8ff" stroke-width="2" points="811.04,-157.12 818.34,-149.45 807.85,-150.89 811.04,-157.12"/>
</a>
</g>
</g>
<!-- Node18 -->
<g id="Node000018" class="node">
<title>Node18</title>
<g id="a_Node000018"><a xlink:title=" ">
<polygon fill="#e0e0e0" stroke="#999999" points="500.12,-147.75 404.62,-147.75 404.62,-122.5 500.12,-122.5 500.12,-147.75"/>
<text text-anchor="middle" x="452.37" y="-130.45" font-family="Helvetica,sans-Serif" font-size="14.00">sys/types.h</text>
</a>
</g>
</g>
<!-- Node1&#45;&gt;Node18 -->
<g id="edge35_Node000001_Node000018" class="edge">
<title>Node1&#45;&gt;Node18</title>
<g id="a_edge35_Node000001_Node000018"><a xlink:title=" ">
<path fill="none" stroke="#63b8ff" stroke-width="2" d="M486.94,-305.95C480.95,-276.55 465.39,-200.12 457.35,-160.59"/>
<polygon fill="#63b8ff" stroke="#63b8ff" stroke-width="2" points="460.78,-159.92 455.36,-150.82 453.92,-161.32 460.78,-159.92"/>
</a>
</g>
</g>
<!-- Node19 -->
<g id="Node000019" class="node">
<title>Node19</title>
<g id="a_Node000019"><a xlink:href="../../de/d46/engine_8hpp.html" target="_top" xlink:title=" ">
<polygon fill="white" stroke="#666666" points="1186.74,-209 1091.99,-209 1091.99,-183.75 1186.74,-183.75 1186.74,-209"/>
<text text-anchor="middle" x="1139.37" y="-191.7" font-family="Helvetica,sans-Serif" font-size="14.00">engine.hpp</text>
</a>
</g>
</g>
<!-- Node1&#45;&gt;Node19 -->
<g id="edge19_Node000001_Node000019" class="edge">
<title>Node1&#45;&gt;Node19</title>
<g id="a_edge19_Node000001_Node000019"><a xlink:title=" ">
<path fill="none" stroke="#63b8ff" stroke-width="2" d="M552.87,-306.1C678.32,-282.85 956.34,-231.3 1079.1,-208.55"/>
<polygon fill="#63b8ff" stroke="#63b8ff" stroke-width="2" points="1079.72,-211.99 1088.91,-206.73 1078.44,-205.11 1079.72,-211.99"/>
</a>
</g>
</g>
<!-- Node26 -->
<g id="Node000026" class="node">
<title>Node26</title>
<g id="a_Node000026"><a xlink:title=" ">
<polygon fill="#e0e0e0" stroke="#999999" points="2308.12,-270.25 2248.62,-270.25 2248.62,-245 2308.12,-245 2308.12,-270.25"/>
<text text-anchor="middle" x="2278.37" y="-252.95" font-family="Helvetica,sans-Serif" font-size="14.00">cmath</text>
</a>
</g>
</g>
<!-- Node1&#45;&gt;Node26 -->
<g id="edge34_Node000001_Node000026" class="edge">
<title>Node1&#45;&gt;Node26</title>
<g id="a_edge34_Node000001_Node000026"><a xlink:title=" ">
<path fill="none" stroke="#63b8ff" stroke-width="2" d="M552.66,-318.1C825.23,-318.79 1900.08,-318.31 2234.37,-270.25 2234.79,-270.19 2235.22,-270.13 2235.65,-270.06"/>
<polygon fill="#63b8ff" stroke="#63b8ff" stroke-width="2" points="2236.16,-273.53 2245.29,-268.15 2234.8,-266.66 2236.16,-273.53"/>
</a>
</g>
</g>
<!-- Node2&#45;&gt;Node3 -->
<g id="edge2_Node000002_Node000003" class="edge">
<title>Node2&#45;&gt;Node3</title>
<g id="a_edge2_Node000002_Node000003"><a xlink:title=" ">
<path fill="none" stroke="#63b8ff" stroke-width="2" d="M247.76,-244.63C222,-235.71 186.55,-223.43 158.25,-213.62"/>
<polygon fill="#63b8ff" stroke="#63b8ff" stroke-width="2" points="159.67,-210.41 149.07,-210.44 157.37,-217.02 159.67,-210.41"/>
</a>
</g>
</g>
<!-- Node4 -->
<g id="Node000004" class="node">
<title>Node4</title>
<g id="a_Node000004"><a xlink:title=" ">
<polygon fill="#e0e0e0" stroke="#999999" points="314.12,-25.25 116.62,-25.25 116.62,0 314.12,0 314.12,-25.25"/>
<text text-anchor="middle" x="215.37" y="-7.95" font-family="Helvetica,sans-Serif" font-size="14.00">SFML/System/Vector2.hpp</text>
</a>
</g>
</g>
<!-- Node2&#45;&gt;Node4 -->
<g id="edge3_Node000002_Node000004" class="edge">
<title>Node2&#45;&gt;Node4</title>
<g id="a_edge3_Node000002_Node000004"><a xlink:title=" ">
<path fill="none" stroke="#63b8ff" stroke-width="2" d="M271.97,-244.57C256.18,-225.48 226.62,-186.5 213.37,-147.75 200.82,-111.08 197.22,-99.66 202.37,-61.25 203.4,-53.5 205.35,-45.22 207.43,-37.78"/>
<polygon fill="#63b8ff" stroke="#63b8ff" stroke-width="2" points="210.7,-39.06 210.27,-28.47 204.01,-37.02 210.7,-39.06"/>
</a>
</g>
</g>
<!-- Node2&#45;&gt;Node5 -->
<g id="edge4_Node000002_Node000005" class="edge">
<title>Node2&#45;&gt;Node5</title>
<g id="a_edge4_Node000002_Node000005"><a xlink:title=" ">
<path fill="none" stroke="#63b8ff" stroke-width="2" d="M284.85,-244.63C288.9,-225.14 296.97,-186.21 302.27,-160.67"/>
<polygon fill="#63b8ff" stroke="#63b8ff" stroke-width="2" points="305.67,-161.54 304.27,-151.03 298.81,-160.12 305.67,-161.54"/>
</a>
</g>
</g>
<!-- Node2&#45;&gt;Node8 -->
<g id="edge15_Node000002_Node000008" class="edge">
<title>Node2&#45;&gt;Node8</title>
<g id="a_edge15_Node000002_Node000008"><a xlink:title=" ">
<path fill="none" stroke="#63b8ff" stroke-width="2" d="M277.02,-244.71C270.26,-230.02 258,-204.47 245.37,-183.75 235.09,-166.9 225.44,-166.53 219.37,-147.75 215.91,-137.07 215.4,-133 219.37,-122.5 223.11,-112.61 229.94,-103.44 237.03,-95.84"/>
<polygon fill="#63b8ff" stroke="#63b8ff" stroke-width="2" points="239.38,-98.44 244.08,-88.95 234.49,-93.43 239.38,-98.44"/>
</a>
</g>
</g>
<!-- Node2&#45;&gt;Node13 -->
<g id="edge8_Node000002_Node000013" class="edge">
<title>Node2&#45;&gt;Node13</title>
<g id="a_edge8_Node000002_Node000013"><a xlink:title=" ">
<path fill="none" stroke="#63b8ff" stroke-width="2" d="M332.24,-244.56C372.18,-234.9 428.24,-221.35 470.03,-211.24"/>
<polygon fill="#63b8ff" stroke="#63b8ff" stroke-width="2" points="470.67,-214.69 479.56,-208.93 469.02,-207.88 470.67,-214.69"/>
</a>
</g>
</g>
<!-- Node5&#45;&gt;Node10 -->
<g id="edge5_Node000005_Node000010" class="edge">
<title>Node5&#45;&gt;Node10</title>
<g id="a_edge5_Node000005_Node000010"><a xlink:title=" ">
<path fill="none" stroke="#63b8ff" stroke-width="2" d="M360.09,-122.06C400.88,-112.73 457.57,-99.76 501.2,-89.78"/>
<polygon fill="#63b8ff" stroke="#63b8ff" stroke-width="2" points="501.8,-93.24 510.76,-87.59 500.23,-86.41 501.8,-93.24"/>
</a>
</g>
</g>
<!-- Node5&#45;&gt;Node8 -->
<g id="edge6_Node000005_Node000008" class="edge">
<title>Node5&#45;&gt;Node8</title>
<g id="a_edge6_Node000005_Node000008"><a xlink:title=" ">
<path fill="none" stroke="#63b8ff" stroke-width="2" d="M298.06,-122.13C292.45,-114.91 285.12,-105.48 278.5,-96.94"/>
<polygon fill="#63b8ff" stroke="#63b8ff" stroke-width="2" points="281.41,-94.99 272.52,-89.24 275.88,-99.28 281.41,-94.99"/>
</a>
</g>
</g>
<!-- Node8&#45;&gt;Node4 -->
<g id="edge7_Node000008_Node000004" class="edge">
<title>Node8&#45;&gt;Node4</title>
<g id="a_edge7_Node000008_Node000004"><a xlink:title=" ">
<path fill="none" stroke="#63b8ff" stroke-width="2" d="M252.06,-60.88C246.45,-53.66 239.12,-44.23 232.5,-35.69"/>
<polygon fill="#63b8ff" stroke="#63b8ff" stroke-width="2" points="235.41,-33.74 226.52,-27.99 229.88,-38.03 235.41,-33.74"/>
</a>
</g>
</g>
<!-- Node13&#45;&gt;Node5 -->
<g id="edge11_Node000013_Node000005" class="edge">
<title>Node13&#45;&gt;Node5</title>
<g id="a_edge11_Node000013_Node000005"><a xlink:title=" ">
<path fill="none" stroke="#63b8ff" stroke-width="2" d="M482.58,-183.31C448.53,-174.14 401.43,-161.46 364.63,-151.55"/>
<polygon fill="#63b8ff" stroke="#63b8ff" stroke-width="2" points="365.58,-148.18 355.01,-148.96 363.76,-154.94 365.58,-148.18"/>
</a>
</g>
</g>
<!-- Node13&#45;&gt;Node10 -->
<g id="edge10_Node000013_Node000010" class="edge">
<title>Node13&#45;&gt;Node10</title>
<g id="a_edge10_Node000013_Node000010"><a xlink:title=" ">
<path fill="none" stroke="#63b8ff" stroke-width="2" d="M531.25,-183.38C537.58,-163.8 550.27,-124.6 558.53,-99.07"/>
<polygon fill="#63b8ff" stroke="#63b8ff" stroke-width="2" points="561.82,-100.29 561.57,-89.7 555.16,-98.14 561.82,-100.29"/>
</a>
</g>
</g>
<!-- Node13&#45;&gt;Node8 -->
<g id="edge13_Node000013_Node000008" class="edge">
<title>Node13&#45;&gt;Node8</title>
<g id="a_edge13_Node000013_Node000008"><a xlink:title=" ">
<path fill="none" stroke="#63b8ff" stroke-width="2" d="M528.06,-183.37C528.3,-167.14 526.1,-138.38 509.37,-122.5 483.37,-97.83 389.43,-85.25 324.93,-79.37"/>
<polygon fill="#63b8ff" stroke="#63b8ff" stroke-width="2" points="325.34,-75.9 315.07,-78.52 324.73,-82.87 325.34,-75.9"/>
</a>
</g>
</g>
<!-- Node14 -->
<g id="Node000014" class="node">
<title>Node14</title>
<g id="a_Node000014"><a xlink:title=" ">
<polygon fill="#e0e0e0" stroke="#999999" points="792.49,-147.75 594.24,-147.75 594.24,-122.5 792.49,-122.5 792.49,-147.75"/>
<text text-anchor="middle" x="693.37" y="-130.45" font-family="Helvetica,sans-Serif" font-size="14.00">SFML/Graphics/Shape.hpp</text>
</a>
</g>
</g>
<!-- Node13&#45;&gt;Node14 -->
<g id="edge9_Node000013_Node000014" class="edge">
<title>Node13&#45;&gt;Node14</title>
<g id="a_edge9_Node000013_Node000014"><a xlink:title=" ">
<path fill="none" stroke="#63b8ff" stroke-width="2" d="M560.96,-183.38C585.85,-174.5 620.07,-162.29 647.48,-152.5"/>
<polygon fill="#63b8ff" stroke="#63b8ff" stroke-width="2" points="648.45,-155.87 656.69,-149.22 646.09,-149.28 648.45,-155.87"/>
</a>
</g>
</g>
<!-- Node13&#45;&gt;Node15 -->
<g id="edge12_Node000013_Node000015" class="edge">
<title>Node13&#45;&gt;Node15</title>
<g id="a_edge12_Node000013_Node000015"><a xlink:title=" ">
<path fill="none" stroke="#63b8ff" stroke-width="2" d="M572.22,-188.87C624.14,-181.07 712.45,-166.91 797.22,-148.53"/>
<polygon fill="#63b8ff" stroke="#63b8ff" stroke-width="2" points="797.73,-152.01 806.74,-146.44 796.22,-145.17 797.73,-152.01"/>
</a>
</g>
</g>
<!-- Node13&#45;&gt;Node18 -->
<g id="edge14_Node000013_Node000018" class="edge">
<title>Node13&#45;&gt;Node18</title>
<g id="a_edge14_Node000013_Node000018"><a xlink:title=" ">
<path fill="none" stroke="#63b8ff" stroke-width="2" d="M512.19,-183.38C502.23,-175.51 488.96,-165.03 477.45,-155.94"/>
<polygon fill="#63b8ff" stroke="#63b8ff" stroke-width="2" points="479.91,-153.43 469.9,-149.97 475.57,-158.92 479.91,-153.43"/>
</a>
</g>
</g>
<!-- Node19&#45;&gt;Node5 -->
<g id="edge25_Node000019_Node000005" class="edge">
<title>Node19&#45;&gt;Node5</title>
<g id="a_edge25_Node000019_Node000005"><a xlink:title=" ">
<path fill="none" stroke="#63b8ff" stroke-width="2" d="M1091.84,-193.45C975.64,-188.49 667.65,-173.92 399.24,-148.07"/>
<polygon fill="#63b8ff" stroke="#63b8ff" stroke-width="2" points="399.8,-144.61 389.5,-147.13 399.12,-151.58 399.8,-144.61"/>
</a>
</g>
</g>
<!-- Node19&#45;&gt;Node8 -->
<g id="edge27_Node000019_Node000008" class="edge">
<title>Node19&#45;&gt;Node8</title>
<g id="a_edge27_Node000019_Node000008"><a xlink:title=" ">
<path fill="none" stroke="#63b8ff" stroke-width="2" d="M1091.49,-189.84C1047.08,-183.53 979.82,-170.95 925.37,-147.75 906.71,-139.8 906.54,-129.09 887.37,-122.5 861.08,-113.46 478.97,-88.57 324.99,-78.85"/>
<polygon fill="#63b8ff" stroke="#63b8ff" stroke-width="2" points="325.34,-75.36 315.14,-78.22 324.9,-82.35 325.34,-75.36"/>
</a>
</g>
</g>
<!-- Node19&#45;&gt;Node14 -->
<g id="edge21_Node000019_Node000014" class="edge">
<title>Node19&#45;&gt;Node14</title>
<g id="a_edge21_Node000019_Node000014"><a xlink:title=" ">
<path fill="none" stroke="#63b8ff" stroke-width="2" d="M1091.64,-189.03C1021.78,-179.75 889.92,-162.24 797.11,-149.91"/>
<polygon fill="#63b8ff" stroke="#63b8ff" stroke-width="2" points="797.66,-146.45 787.28,-148.6 796.74,-153.39 797.66,-146.45"/>
</a>
</g>
</g>
<!-- Node19&#45;&gt;Node15 -->
<g id="edge26_Node000019_Node000015" class="edge">
<title>Node19&#45;&gt;Node15</title>
<g id="a_edge26_Node000019_Node000015"><a xlink:title=" ">
<path fill="none" stroke="#63b8ff" stroke-width="2" d="M1091.88,-186.91C1042.05,-177.86 961.5,-162.78 892.37,-147.75 892.09,-147.69 891.82,-147.63 891.55,-147.57"/>
<polygon fill="#63b8ff" stroke="#63b8ff" stroke-width="2" points="892.41,-144.18 881.88,-145.37 890.86,-151 892.41,-144.18"/>
</a>
</g>
</g>
<!-- Node20 -->
<g id="Node000020" class="node">
<title>Node20</title>
<g id="a_Node000020"><a xlink:title=" ">
<polygon fill="#e0e0e0" stroke="#999999" points="1795.49,-147.75 1537.24,-147.75 1537.24,-122.5 1795.49,-122.5 1795.49,-147.75"/>
<text text-anchor="middle" x="1666.37" y="-130.45" font-family="Helvetica,sans-Serif" font-size="14.00">SFML/Graphics/RenderWindow.hpp</text>
</a>
</g>
</g>
<!-- Node19&#45;&gt;Node20 -->
<g id="edge20_Node000019_Node000020" class="edge">
<title>Node19&#45;&gt;Node20</title>
<g id="a_edge20_Node000019_Node000020"><a xlink:title=" ">
<path fill="none" stroke="#63b8ff" stroke-width="2" d="M1187.06,-190.01C1267.39,-180.98 1432.01,-162.47 1545.74,-149.69"/>
<polygon fill="#63b8ff" stroke="#63b8ff" stroke-width="2" points="1546.1,-153.17 1555.64,-148.57 1545.31,-146.21 1546.1,-153.17"/>
</a>
</g>
</g>
<!-- Node21 -->
<g id="Node000021" class="node">
<title>Node21</title>
<g id="a_Node000021"><a xlink:title=" ">
<polygon fill="#e0e0e0" stroke="#999999" points="1995.62,-147.75 1813.12,-147.75 1813.12,-122.5 1995.62,-122.5 1995.62,-147.75"/>
<text text-anchor="middle" x="1904.37" y="-130.45" font-family="Helvetica,sans-Serif" font-size="14.00">SFML/System/Clock.hpp</text>
</a>
</g>
</g>
<!-- Node19&#45;&gt;Node21 -->
<g id="edge22_Node000019_Node000021" class="edge">
<title>Node19&#45;&gt;Node21</title>
<g id="a_edge22_Node000019_Node000021"><a xlink:title=" ">
<path fill="none" stroke="#63b8ff" stroke-width="2" d="M1187,-192.69C1294.34,-186.48 1563.62,-170.03 1800.17,-148.11"/>
<polygon fill="#63b8ff" stroke="#63b8ff" stroke-width="2" points="1800.18,-151.63 1809.82,-147.21 1799.53,-144.66 1800.18,-151.63"/>
</a>
</g>
</g>
<!-- Node22 -->
<g id="Node000022" class="node">
<title>Node22</title>
<g id="a_Node000022"><a xlink:title=" ">
<polygon fill="#e0e0e0" stroke="#999999" points="2192.74,-147.75 2013.99,-147.75 2013.99,-122.5 2192.74,-122.5 2192.74,-147.75"/>
<text text-anchor="middle" x="2103.37" y="-130.45" font-family="Helvetica,sans-Serif" font-size="14.00">SFML/System/Time.hpp</text>
</a>
</g>
</g>
<!-- Node19&#45;&gt;Node22 -->
<g id="edge23_Node000019_Node000022" class="edge">
<title>Node19&#45;&gt;Node22</title>
<g id="a_edge23_Node000019_Node000022"><a xlink:title=" ">
<path fill="none" stroke="#63b8ff" stroke-width="2" d="M1186.79,-193.8C1315.63,-189.29 1683.2,-174.96 2000.84,-148"/>
<polygon fill="#63b8ff" stroke="#63b8ff" stroke-width="2" points="2000.87,-151.52 2010.53,-147.18 2000.27,-144.54 2000.87,-151.52"/>
</a>
</g>
</g>
<!-- Node23 -->
<g id="Node000023" class="node">
<title>Node23</title>
<g id="a_Node000023"><a xlink:title=" ">
<polygon fill="#e0e0e0" stroke="#999999" points="1122.24,-147.75 934.49,-147.75 934.49,-122.5 1122.24,-122.5 1122.24,-147.75"/>
<text text-anchor="middle" x="1028.37" y="-130.45" font-family="Helvetica,sans-Serif" font-size="14.00">SFML/Window/Event.hpp</text>
</a>
</g>
</g>
<!-- Node19&#45;&gt;Node23 -->
<g id="edge24_Node000019_Node000023" class="edge">
<title>Node19&#45;&gt;Node23</title>
<g id="a_edge24_Node000019_Node000023"><a xlink:title=" ">
<path fill="none" stroke="#63b8ff" stroke-width="2" d="M1116.9,-183.38C1101.18,-174.99 1079.9,-163.63 1062.14,-154.15"/>
<polygon fill="#63b8ff" stroke="#63b8ff" stroke-width="2" points="1063.93,-151.14 1053.46,-149.52 1060.64,-157.32 1063.93,-151.14"/>
</a>
</g>
</g>
<!-- Node7 -->
<g id="Node000007" class="node">
<title>Node7</title>
<g id="a_Node000007"><a xlink:title=" ">
<polygon fill="#e0e0e0" stroke="#999999" points="1360.37,-147.75 1140.37,-147.75 1140.37,-122.5 1360.37,-122.5 1360.37,-147.75"/>
<text text-anchor="middle" x="1250.37" y="-130.45" font-family="Helvetica,sans-Serif" font-size="14.00">SFML/Graphics/Drawable.hpp</text>
</a>
</g>
</g>
<!-- Node19&#45;&gt;Node7 -->
<g id="edge28_Node000019_Node000007" class="edge">
<title>Node19&#45;&gt;Node7</title>
<g id="a_edge28_Node000019_Node000007"><a xlink:title=" ">
<path fill="none" stroke="#63b8ff" stroke-width="2" d="M1161.83,-183.38C1177.55,-174.99 1198.83,-163.63 1216.59,-154.15"/>
<polygon fill="#63b8ff" stroke="#63b8ff" stroke-width="2" points="1218.09,-157.32 1225.27,-149.52 1214.8,-151.14 1218.09,-157.32"/>
</a>
</g>
</g>
<!-- Node24 -->
<g id="Node000024" class="node">
<title>Node24</title>
<g id="a_Node000024"><a xlink:title=" ">
<polygon fill="#e0e0e0" stroke="#999999" points="1463.87,-147.75 1378.87,-147.75 1378.87,-122.5 1463.87,-122.5 1463.87,-147.75"/>
<text text-anchor="middle" x="1421.37" y="-130.45" font-family="Helvetica,sans-Serif" font-size="14.00">functional</text>
</a>
</g>
</g>
<!-- Node19&#45;&gt;Node24 -->
<g id="edge29_Node000019_Node000024" class="edge">
<title>Node19&#45;&gt;Node24</title>
<g id="a_edge29_Node000019_Node000024"><a xlink:title=" ">
<path fill="none" stroke="#63b8ff" stroke-width="2" d="M1186.99,-185.74C1230.8,-176.83 1297.93,-163.05 1365.84,-148.48"/>
<polygon fill="#63b8ff" stroke="#63b8ff" stroke-width="2" points="1366.53,-151.92 1375.57,-146.39 1365.06,-145.07 1366.53,-151.92"/>
</a>
</g>
</g>
<!-- Node25 -->
<g id="Node000025" class="node">
<title>Node25</title>
<g id="a_Node000025"><a xlink:title=" ">
<polygon fill="#e0e0e0" stroke="#999999" points="1518.87,-147.75 1481.87,-147.75 1481.87,-122.5 1518.87,-122.5 1518.87,-147.75"/>
<text text-anchor="middle" x="1500.37" y="-130.45" font-family="Helvetica,sans-Serif" font-size="14.00">set</text>
</a>
</g>
</g>
<!-- Node19&#45;&gt;Node25 -->
<g id="edge30_Node000019_Node000025" class="edge">
<title>Node19&#45;&gt;Node25</title>
<g id="a_edge30_Node000019_Node000025"><a xlink:title=" ">
<path fill="none" stroke="#63b8ff" stroke-width="2" d="M1187.2,-192.54C1250.29,-187.95 1364.7,-176.64 1469.07,-148.45"/>
<polygon fill="#63b8ff" stroke="#63b8ff" stroke-width="2" points="1469.8,-151.88 1478.5,-145.83 1467.93,-145.14 1469.8,-151.88"/>
</a>
</g>
</g>
</g>
</svg>
