<?xml version="1.0" encoding="UTF-8" standalone="no"?>
<!DOCTYPE svg PUBLIC "-//W3C//DTD SVG 1.1//EN"
 "http://www.w3.org/Graphics/SVG/1.1/DTD/svg11.dtd">
<!-- Generated by graphviz version 9.0.0 (0)
 -->
<!-- Title: engine.cpp Pages: 1 -->
<svg width="1909pt" height="217pt"
 viewBox="0.00 0.00 1909.38 217.00" xmlns="http://www.w3.org/2000/svg" xmlns:xlink="http://www.w3.org/1999/xlink">
<g id="graph0" class="graph" transform="scale(1 1) rotate(0) translate(4 213)">
<title>engine.cpp</title>
<!-- Node1 -->
<g id="Node000001" class="node">
<title>Node1</title>
<g id="a_Node000001"><a xlink:title=" ">
<polygon fill="#999999" stroke="#666666" points="1155,-209 1061.75,-209 1061.75,-183.75 1155,-183.75 1155,-209"/>
<text text-anchor="middle" x="1108.38" y="-191.7" font-family="Helvetica,sans-Serif" font-size="14.00">engine.cpp</text>
</a>
</g>
</g>
<!-- Node2 -->
<g id="Node000002" class="node">
<title>Node2</title>
<g id="a_Node000002"><a xlink:href="../../de/d46/engine_8hpp.html" target="_top" xlink:title=" ">
<polygon fill="white" stroke="#666666" points="982.75,-147.75 888,-147.75 888,-122.5 982.75,-122.5 982.75,-147.75"/>
<text text-anchor="middle" x="935.38" y="-130.45" font-family="Helvetica,sans-Serif" font-size="14.00">engine.hpp</text>
</a>
</g>
</g>
<!-- Node1&#45;&gt;Node2 -->
<g id="edge1_Node000001_Node000002" class="edge">
<title>Node1&#45;&gt;Node2</title>
<g id="a_edge1_Node000001_Node000002"><a xlink:title=" ">
<path fill="none" stroke="#63b8ff" stroke-width="2" d="M1073.37,-183.38C1047.31,-174.46 1011.44,-162.18 982.81,-152.37"/>
<polygon fill="#63b8ff" stroke="#63b8ff" stroke-width="2" points="984.09,-149.11 973.49,-149.18 981.82,-155.73 984.09,-149.11"/>
</a>
</g>
</g>
<!-- Node6 -->
<g id="Node000006" class="node">
<title>Node6</title>
<g id="a_Node000006"><a xlink:title=" ">
<polygon fill="#e0e0e0" stroke="#999999" points="178.75,-86.5 0,-86.5 0,-61.25 178.75,-61.25 178.75,-86.5"/>
<text text-anchor="middle" x="89.38" y="-69.2" font-family="Helvetica,sans-Serif" font-size="14.00">SFML/System/Time.hpp</text>
</a>
</g>
</g>
<!-- Node1&#45;&gt;Node6 -->
<g id="edge17_Node000001_Node000006" class="edge">
<title>Node1&#45;&gt;Node6</title>
<g id="a_edge17_Node000001_Node000006"><a xlink:title=" ">
<path fill="none" stroke="#63b8ff" stroke-width="2" d="M1061.4,-191.37C974.58,-183.84 783.2,-166.62 622.38,-147.75 468.17,-129.66 289.48,-104.33 183.13,-88.8"/>
<polygon fill="#63b8ff" stroke="#63b8ff" stroke-width="2" points="183.92,-85.38 173.52,-87.39 182.9,-92.3 183.92,-85.38"/>
</a>
</g>
</g>
<!-- Node7 -->
<g id="Node000007" class="node">
<title>Node7</title>
<g id="a_Node000007"><a xlink:title=" ">
<polygon fill="#e0e0e0" stroke="#999999" points="384.25,-86.5 196.5,-86.5 196.5,-61.25 384.25,-61.25 384.25,-86.5"/>
<text text-anchor="middle" x="290.38" y="-69.2" font-family="Helvetica,sans-Serif" font-size="14.00">SFML/Window/Event.hpp</text>
</a>
</g>
</g>
<!-- Node1&#45;&gt;Node7 -->
<g id="edge18_Node000001_Node000007" class="edge">
<title>Node1&#45;&gt;Node7</title>
<g id="a_edge18_Node000001_Node000007"><a xlink:title=" ">
<path fill="none" stroke="#63b8ff" stroke-width="2" d="M1061.46,-188.46C930.8,-169.22 560.87,-114.72 385.22,-88.85"/>
<polygon fill="#63b8ff" stroke="#63b8ff" stroke-width="2" points="385.8,-85.4 375.4,-87.4 384.78,-92.32 385.8,-85.4"/>
</a>
</g>
</g>
<!-- Node17 -->
<g id="Node000017" class="node">
<title>Node17</title>
<g id="a_Node000017"><a xlink:href="../../d4/d3d/log_8hpp.html" target="_top" xlink:title=" ">
<polygon fill="#fff0f0" stroke="red" points="1534.62,-86.5 1466.12,-86.5 1466.12,-61.25 1534.62,-61.25 1534.62,-86.5"/>
<text text-anchor="middle" x="1500.38" y="-69.2" font-family="Helvetica,sans-Serif" font-size="14.00">log.hpp</text>
</a>
</g>
</g>
<!-- Node1&#45;&gt;Node17 -->
<g id="edge20_Node000001_Node000017" class="edge">
<title>Node1&#45;&gt;Node17</title>
<g id="a_edge20_Node000001_Node000017"><a xlink:title=" ">
<path fill="none" stroke="#63b8ff" stroke-width="2" d="M1080.89,-183.37C1052.16,-169.23 1013.89,-144.82 1034.38,-122.5 1065.89,-88.15 1406.37,-94.01 1452.38,-86.5 1452.64,-86.46 1452.92,-86.41 1453.19,-86.37"/>
<polygon fill="#63b8ff" stroke="#63b8ff" stroke-width="2" points="1453.51,-89.87 1462.66,-84.52 1452.18,-83 1453.51,-89.87"/>
</a>
</g>
</g>
<!-- Node10 -->
<g id="Node000010" class="node">
<title>Node10</title>
<g id="a_Node000010"><a xlink:title=" ">
<polygon fill="#e0e0e0" stroke="#999999" points="1772.38,-86.5 1552.38,-86.5 1552.38,-61.25 1772.38,-61.25 1772.38,-86.5"/>
<text text-anchor="middle" x="1662.38" y="-69.2" font-family="Helvetica,sans-Serif" font-size="14.00">SFML/Graphics/Drawable.hpp</text>
</a>
</g>
</g>
<!-- Node1&#45;&gt;Node10 -->
<g id="edge14_Node000001_Node000010" class="edge">
<title>Node1&#45;&gt;Node10</title>
<g id="a_edge14_Node000001_Node000010"><a xlink:title=" ">
<path fill="none" stroke="#63b8ff" stroke-width="2" d="M1093.16,-183.44C1075.31,-168.03 1050.2,-141.02 1067.38,-122.5 1101.47,-85.73 1449.24,-90.4 1539.24,-86.5"/>
<polygon fill="#63b8ff" stroke="#63b8ff" stroke-width="2" points="1539.37,-90 1549.14,-85.91 1538.95,-83.01 1539.37,-90"/>
</a>
</g>
</g>
<!-- Node20 -->
<g id="Node000020" class="node">
<title>Node20</title>
<g id="a_Node000020"><a xlink:title=" ">
<polygon fill="#e0e0e0" stroke="#999999" points="1260.75,-147.75 1076,-147.75 1076,-122.5 1260.75,-122.5 1260.75,-147.75"/>
<text text-anchor="middle" x="1168.38" y="-130.45" font-family="Helvetica,sans-Serif" font-size="14.00">SFML/Graphics/Rect.hpp</text>
</a>
</g>
</g>
<!-- Node1&#45;&gt;Node20 -->
<g id="edge15_Node000001_Node000020" class="edge">
<title>Node1&#45;&gt;Node20</title>
<g id="a_edge15_Node000001_Node000020"><a xlink:title=" ">
<path fill="none" stroke="#63b8ff" stroke-width="2" d="M1120.52,-183.38C1128.16,-175.84 1138.24,-165.88 1147.17,-157.06"/>
<polygon fill="#63b8ff" stroke="#63b8ff" stroke-width="2" points="1149.44,-159.74 1154.1,-150.22 1144.52,-154.76 1149.44,-159.74"/>
</a>
</g>
</g>
<!-- Node21 -->
<g id="Node000021" class="node">
<title>Node21</title>
<g id="a_Node000021"><a xlink:title=" ">
<polygon fill="#e0e0e0" stroke="#999999" points="1465.5,-147.75 1279.25,-147.75 1279.25,-122.5 1465.5,-122.5 1465.5,-147.75"/>
<text text-anchor="middle" x="1372.38" y="-130.45" font-family="Helvetica,sans-Serif" font-size="14.00">SFML/Graphics/View.hpp</text>
</a>
</g>
</g>
<!-- Node1&#45;&gt;Node21 -->
<g id="edge16_Node000001_Node000021" class="edge">
<title>Node1&#45;&gt;Node21</title>
<g id="a_edge16_Node000001_Node000021"><a xlink:title=" ">
<path fill="none" stroke="#63b8ff" stroke-width="2" d="M1155.27,-184.85C1197.21,-175.44 1259.13,-161.54 1306.12,-150.99"/>
<polygon fill="#63b8ff" stroke="#63b8ff" stroke-width="2" points="1306.7,-154.45 1315.69,-148.85 1305.17,-147.62 1306.7,-154.45"/>
</a>
</g>
</g>
<!-- Node22 -->
<g id="Node000022" class="node">
<title>Node22</title>
<g id="a_Node000022"><a xlink:title=" ">
<polygon fill="#e0e0e0" stroke="#999999" points="1707.25,-147.75 1483.5,-147.75 1483.5,-122.5 1707.25,-122.5 1707.25,-147.75"/>
<text text-anchor="middle" x="1595.38" y="-130.45" font-family="Helvetica,sans-Serif" font-size="14.00">SFML/Window/VideoMode.hpp</text>
</a>
</g>
</g>
<!-- Node1&#45;&gt;Node22 -->
<g id="edge19_Node000001_Node000022" class="edge">
<title>Node1&#45;&gt;Node22</title>
<g id="a_edge19_Node000001_Node000022"><a xlink:title=" ">
<path fill="none" stroke="#63b8ff" stroke-width="2" d="M1155.07,-189.69C1230.03,-180.57 1379.31,-162.41 1483.16,-149.78"/>
<polygon fill="#63b8ff" stroke="#63b8ff" stroke-width="2" points="1483.4,-153.27 1492.9,-148.59 1482.55,-146.33 1483.4,-153.27"/>
</a>
</g>
</g>
<!-- Node23 -->
<g id="Node000023" class="node">
<title>Node23</title>
<g id="a_Node000023"><a xlink:title=" ">
<polygon fill="#e0e0e0" stroke="#999999" points="1807.75,-147.75 1725,-147.75 1725,-122.5 1807.75,-122.5 1807.75,-147.75"/>
<text text-anchor="middle" x="1766.38" y="-130.45" font-family="Helvetica,sans-Serif" font-size="14.00">algorithm</text>
</a>
</g>
</g>
<!-- Node1&#45;&gt;Node23 -->
<g id="edge21_Node000001_Node000023" class="edge">
<title>Node1&#45;&gt;Node23</title>
<g id="a_edge21_Node000001_Node000023"><a xlink:title=" ">
<path fill="none" stroke="#63b8ff" stroke-width="2" d="M1155.18,-194.1C1255.52,-190.87 1498.92,-180.27 1712.03,-148.24"/>
<polygon fill="#63b8ff" stroke="#63b8ff" stroke-width="2" points="1712.38,-151.73 1721.73,-146.76 1711.32,-144.81 1712.38,-151.73"/>
</a>
</g>
</g>
<!-- Node24 -->
<g id="Node000024" class="node">
<title>Node24</title>
<g id="a_Node000024"><a xlink:title=" ">
<polygon fill="#e0e0e0" stroke="#999999" points="1901.38,-147.75 1825.38,-147.75 1825.38,-122.5 1901.38,-122.5 1901.38,-147.75"/>
<text text-anchor="middle" x="1863.38" y="-130.45" font-family="Helvetica,sans-Serif" font-size="14.00">iostream</text>
</a>
</g>
</g>
<!-- Node1&#45;&gt;Node24 -->
<g id="edge22_Node000001_Node000024" class="edge">
<title>Node1&#45;&gt;Node24</title>
<g id="a_edge22_Node000001_Node000024"><a xlink:title=" ">
<path fill="none" stroke="#63b8ff" stroke-width="2" d="M1155.5,-195.05C1267.72,-193.67 1559.68,-186.51 1812.26,-148.16"/>
<polygon fill="#63b8ff" stroke="#63b8ff" stroke-width="2" points="1812.67,-151.64 1822.02,-146.66 1811.6,-144.72 1812.67,-151.64"/>
</a>
</g>
</g>
<!-- Node3 -->
<g id="Node000003" class="node">
<title>Node3</title>
<g id="a_Node000003"><a xlink:title=" ">
<polygon fill="#e0e0e0" stroke="#999999" points="818.5,-86.5 560.25,-86.5 560.25,-61.25 818.5,-61.25 818.5,-86.5"/>
<text text-anchor="middle" x="689.38" y="-69.2" font-family="Helvetica,sans-Serif" font-size="14.00">SFML/Graphics/RenderWindow.hpp</text>
</a>
</g>
</g>
<!-- Node2&#45;&gt;Node3 -->
<g id="edge2_Node000002_Node000003" class="edge">
<title>Node2&#45;&gt;Node3</title>
<g id="a_edge2_Node000002_Node000003"><a xlink:title=" ">
<path fill="none" stroke="#63b8ff" stroke-width="2" d="M887.65,-122.63C849.03,-113.33 794.32,-100.15 752.15,-90"/>
<polygon fill="#63b8ff" stroke="#63b8ff" stroke-width="2" points="752.98,-86.6 742.44,-87.66 751.35,-93.4 752.98,-86.6"/>
</a>
</g>
</g>
<!-- Node4 -->
<g id="Node000004" class="node">
<title>Node4</title>
<g id="a_Node000004"><a xlink:title=" ">
<polygon fill="#e0e0e0" stroke="#999999" points="1034.5,-86.5 836.25,-86.5 836.25,-61.25 1034.5,-61.25 1034.5,-86.5"/>
<text text-anchor="middle" x="935.38" y="-69.2" font-family="Helvetica,sans-Serif" font-size="14.00">SFML/Graphics/Shape.hpp</text>
</a>
</g>
</g>
<!-- Node2&#45;&gt;Node4 -->
<g id="edge3_Node000002_Node000004" class="edge">
<title>Node2&#45;&gt;Node4</title>
<g id="a_edge3_Node000002_Node000004"><a xlink:title=" ">
<path fill="none" stroke="#63b8ff" stroke-width="2" d="M935.38,-122.13C935.38,-115.71 935.38,-107.55 935.38,-99.82"/>
<polygon fill="#63b8ff" stroke="#63b8ff" stroke-width="2" points="938.88,-99.87 935.38,-89.87 931.88,-99.87 938.88,-99.87"/>
</a>
</g>
</g>
<!-- Node5 -->
<g id="Node000005" class="node">
<title>Node5</title>
<g id="a_Node000005"><a xlink:title=" ">
<polygon fill="#e0e0e0" stroke="#999999" points="1234.62,-86.5 1052.12,-86.5 1052.12,-61.25 1234.62,-61.25 1234.62,-86.5"/>
<text text-anchor="middle" x="1143.38" y="-69.2" font-family="Helvetica,sans-Serif" font-size="14.00">SFML/System/Clock.hpp</text>
</a>
</g>
</g>
<!-- Node2&#45;&gt;Node5 -->
<g id="edge4_Node000002_Node000005" class="edge">
<title>Node2&#45;&gt;Node5</title>
<g id="a_edge4_Node000002_Node000005"><a xlink:title=" ">
<path fill="none" stroke="#63b8ff" stroke-width="2" d="M977.72,-122.06C1009.77,-112.93 1054.06,-100.32 1088.77,-90.43"/>
<polygon fill="#63b8ff" stroke="#63b8ff" stroke-width="2" points="1089.52,-93.85 1098.18,-87.75 1087.6,-87.12 1089.52,-93.85"/>
</a>
</g>
</g>
<!-- Node2&#45;&gt;Node6 -->
<g id="edge5_Node000002_Node000006" class="edge">
<title>Node2&#45;&gt;Node6</title>
<g id="a_edge5_Node000002_Node000006"><a xlink:title=" ">
<path fill="none" stroke="#63b8ff" stroke-width="2" d="M887.61,-131.99C770.83,-126.57 461.29,-111.04 191.87,-86.87"/>
<polygon fill="#63b8ff" stroke="#63b8ff" stroke-width="2" points="192.37,-83.4 182.09,-85.99 191.73,-90.37 192.37,-83.4"/>
</a>
</g>
</g>
<!-- Node2&#45;&gt;Node7 -->
<g id="edge6_Node000002_Node000007" class="edge">
<title>Node2&#45;&gt;Node7</title>
<g id="a_edge6_Node000002_Node000007"><a xlink:title=" ">
<path fill="none" stroke="#63b8ff" stroke-width="2" d="M887.76,-130.37C795.37,-122.99 585,-105.74 397.46,-86.99"/>
<polygon fill="#63b8ff" stroke="#63b8ff" stroke-width="2" points="397.88,-83.52 387.58,-86 397.18,-90.48 397.88,-83.52"/>
</a>
</g>
</g>
<!-- Node8 -->
<g id="Node000008" class="node">
<title>Node8</title>
<g id="a_Node000008"><a xlink:href="../../dc/d3e/animatedObject_8hpp.html" target="_top" xlink:title=" ">
<polygon fill="#fff0f0" stroke="red" points="1410.25,-86.5 1252.5,-86.5 1252.5,-61.25 1410.25,-61.25 1410.25,-86.5"/>
<text text-anchor="middle" x="1331.38" y="-69.2" font-family="Helvetica,sans-Serif" font-size="14.00">animatedObject.hpp</text>
</a>
</g>
</g>
<!-- Node2&#45;&gt;Node8 -->
<g id="edge7_Node000002_Node000008" class="edge">
<title>Node2&#45;&gt;Node8</title>
<g id="a_edge7_Node000002_Node000008"><a xlink:title=" ">
<path fill="none" stroke="#63b8ff" stroke-width="2" d="M982.96,-124.83C987.49,-124.02 992.01,-123.23 996.38,-122.5 1041.73,-114.96 1156.89,-98.83 1239.51,-87.44"/>
<polygon fill="#63b8ff" stroke="#63b8ff" stroke-width="2" points="1239.8,-90.93 1249.23,-86.1 1238.84,-84 1239.8,-90.93"/>
</a>
</g>
</g>
<!-- Node11 -->
<g id="Node000011" class="node">
<title>Node11</title>
<g id="a_Node000011"><a xlink:href="../../d9/d03/point2d_8hpp.html" target="_top" xlink:title=" ">
<polygon fill="#fff0f0" stroke="red" points="1434.75,-25.25 1334,-25.25 1334,0 1434.75,0 1434.75,-25.25"/>
<text text-anchor="middle" x="1384.38" y="-7.95" font-family="Helvetica,sans-Serif" font-size="14.00">point2d.hpp</text>
</a>
</g>
</g>
<!-- Node2&#45;&gt;Node11 -->
<g id="edge10_Node000002_Node000011" class="edge">
<title>Node2&#45;&gt;Node11</title>
<g id="a_edge10_Node000002_Node000011"><a xlink:title=" ">
<path fill="none" stroke="#63b8ff" stroke-width="2" d="M982.91,-127.57C996.31,-125.81 1010.9,-123.99 1024.38,-122.5 1068.18,-117.65 1389.66,-119.05 1419.38,-86.5 1432.88,-71.71 1420.45,-50.75 1406.8,-35.11"/>
<polygon fill="#63b8ff" stroke="#63b8ff" stroke-width="2" points="1409.41,-32.78 1400,-27.91 1404.32,-37.59 1409.41,-32.78"/>
</a>
</g>
</g>
<!-- Node2&#45;&gt;Node17 -->
<g id="edge9_Node000002_Node000017" class="edge">
<title>Node2&#45;&gt;Node17</title>
<g id="a_edge9_Node000002_Node000017"><a xlink:title=" ">
<path fill="none" stroke="#63b8ff" stroke-width="2" d="M983.24,-124.49C987.67,-123.75 992.1,-123.07 996.38,-122.5 1197.86,-95.43 1251.62,-118.53 1452.38,-86.5 1452.64,-86.46 1452.92,-86.41 1453.19,-86.37"/>
<polygon fill="#63b8ff" stroke="#63b8ff" stroke-width="2" points="1453.51,-89.87 1462.67,-84.55 1452.18,-83 1453.51,-89.87"/>
</a>
</g>
</g>
<!-- Node2&#45;&gt;Node10 -->
<g id="edge11_Node000002_Node000010" class="edge">
<title>Node2&#45;&gt;Node10</title>
<g id="a_edge11_Node000002_Node000010"><a xlink:title=" ">
<path fill="none" stroke="#63b8ff" stroke-width="2" d="M983.16,-128.06C999.4,-126.12 1017.66,-124.07 1034.38,-122.5 1255.98,-101.66 1315.21,-105.38 1539.28,-86.82"/>
<polygon fill="#63b8ff" stroke="#63b8ff" stroke-width="2" points="1539.48,-90.32 1549.15,-86 1538.89,-83.34 1539.48,-90.32"/>
</a>
</g>
</g>
<!-- Node18 -->
<g id="Node000018" class="node">
<title>Node18</title>
<g id="a_Node000018"><a xlink:title=" ">
<polygon fill="#e0e0e0" stroke="#999999" points="486.88,-86.5 401.88,-86.5 401.88,-61.25 486.88,-61.25 486.88,-86.5"/>
<text text-anchor="middle" x="444.38" y="-69.2" font-family="Helvetica,sans-Serif" font-size="14.00">functional</text>
</a>
</g>
</g>
<!-- Node2&#45;&gt;Node18 -->
<g id="edge12_Node000002_Node000018" class="edge">
<title>Node2&#45;&gt;Node18</title>
<g id="a_edge12_Node000002_Node000018"><a xlink:title=" ">
<path fill="none" stroke="#63b8ff" stroke-width="2" d="M887.6,-130.78C808.84,-124.88 646.61,-111.05 499.94,-87.12"/>
<polygon fill="#63b8ff" stroke="#63b8ff" stroke-width="2" points="500.58,-83.68 490.14,-85.5 499.44,-90.59 500.58,-83.68"/>
</a>
</g>
</g>
<!-- Node19 -->
<g id="Node000019" class="node">
<title>Node19</title>
<g id="a_Node000019"><a xlink:title=" ">
<polygon fill="#e0e0e0" stroke="#999999" points="541.88,-86.5 504.88,-86.5 504.88,-61.25 541.88,-61.25 541.88,-86.5"/>
<text text-anchor="middle" x="523.38" y="-69.2" font-family="Helvetica,sans-Serif" font-size="14.00">set</text>
</a>
</g>
</g>
<!-- Node2&#45;&gt;Node19 -->
<g id="edge13_Node000002_Node000019" class="edge">
<title>Node2&#45;&gt;Node19</title>
<g id="a_edge13_Node000002_Node000019"><a xlink:title=" ">
<path fill="none" stroke="#63b8ff" stroke-width="2" d="M887.6,-132.34C816.56,-128.79 678.98,-118.49 554.5,-86.71"/>
<polygon fill="#63b8ff" stroke="#63b8ff" stroke-width="2" points="555.6,-83.38 545.04,-84.23 553.83,-90.15 555.6,-83.38"/>
</a>
</g>
</g>
<!-- Node8&#45;&gt;Node11 -->
<g id="edge8_Node000008_Node000011" class="edge">
<title>Node8&#45;&gt;Node11</title>
<g id="a_edge8_Node000008_Node000011"><a xlink:title=" ">
<path fill="none" stroke="#63b8ff" stroke-width="2" d="M1342.1,-60.88C1348.71,-53.5 1357.38,-43.81 1365.14,-35.13"/>
<polygon fill="#63b8ff" stroke="#63b8ff" stroke-width="2" points="1367.59,-37.64 1371.65,-27.85 1362.37,-32.97 1367.59,-37.64"/>
</a>
</g>
</g>
</g>
</svg>
