<?xml version="1.0" encoding="UTF-8" standalone="no"?>
<!DOCTYPE svg PUBLIC "-//W3C//DTD SVG 1.1//EN"
 "http://www.w3.org/Graphics/SVG/1.1/DTD/svg11.dtd">
<!-- Generated by graphviz version 9.0.0 (0)
 -->
<!-- Title: fidgetSpinner.hpp Pages: 1 -->
<svg width="246pt" height="95pt"
 viewBox="0.00 0.00 245.75 94.50" xmlns="http://www.w3.org/2000/svg" xmlns:xlink="http://www.w3.org/1999/xlink">
<g id="graph0" class="graph" transform="scale(1 1) rotate(0) translate(4 90.5)">
<title>fidgetSpinner.hpp</title>
<!-- Node1 -->
<g id="Node000001" class="node">
<title>Node1</title>
<g id="a_Node000001"><a xlink:title=" ">
<polygon fill="#999999" stroke="#666666" points="203.75,-86.5 63.25,-86.5 63.25,-61.25 203.75,-61.25 203.75,-86.5"/>
<text text-anchor="middle" x="133.5" y="-69.2" font-family="Helvetica,sans-Serif" font-size="14.00">fidgetSpinner.hpp</text>
</a>
</g>
</g>
<!-- Node2 -->
<g id="Node000002" class="node">
<title>Node2</title>
<g id="a_Node000002"><a xlink:href="../../d1/df9/fidgetSpinner_8cpp.html" target="_top" xlink:title=" ">
<polygon fill="white" stroke="#666666" points="139,-25.25 0,-25.25 0,0 139,0 139,-25.25"/>
<text text-anchor="middle" x="69.5" y="-7.95" font-family="Helvetica,sans-Serif" font-size="14.00">fidgetSpinner.cpp</text>
</a>
</g>
</g>
<!-- Node1&#45;&gt;Node2 -->
<g id="edge1_Node000001_Node000002" class="edge">
<title>Node1&#45;&gt;Node2</title>
<g id="a_edge1_Node000001_Node000002"><a xlink:title=" ">
<path fill="none" stroke="#63b8ff" stroke-width="2" d="M111.17,-52.2C101.56,-43.3 90.67,-33.22 82.43,-25.6"/>
<polygon fill="#63b8ff" stroke="#63b8ff" stroke-width="2" points="108.61,-54.6 118.33,-58.83 113.37,-49.47 108.61,-54.6"/>
</a>
</g>
</g>
<!-- Node3 -->
<g id="Node000003" class="node">
<title>Node3</title>
<g id="a_Node000003"><a xlink:href="../../d0/d8d/test2_2main_8cpp.html" target="_top" xlink:title=" ">
<polygon fill="white" stroke="#666666" points="237.75,-25.25 157.25,-25.25 157.25,0 237.75,0 237.75,-25.25"/>
<text text-anchor="middle" x="197.5" y="-7.95" font-family="Helvetica,sans-Serif" font-size="14.00">main.cpp</text>
</a>
</g>
</g>
<!-- Node1&#45;&gt;Node3 -->
<g id="edge2_Node000001_Node000003" class="edge">
<title>Node1&#45;&gt;Node3</title>
<g id="a_edge2_Node000001_Node000003"><a xlink:title=" ">
<path fill="none" stroke="#63b8ff" stroke-width="2" d="M155.83,-52.2C165.44,-43.3 176.33,-33.22 184.57,-25.6"/>
<polygon fill="#63b8ff" stroke="#63b8ff" stroke-width="2" points="153.63,-49.47 148.67,-58.83 158.39,-54.6 153.63,-49.47"/>
</a>
</g>
</g>
</g>
</svg>
