<?xml version="1.0" encoding="UTF-8" standalone="no"?>
<!DOCTYPE svg PUBLIC "-//W3C//DTD SVG 1.1//EN"
 "http://www.w3.org/Graphics/SVG/1.1/DTD/svg11.dtd">
<!-- Generated by graphviz version 9.0.0 (0)
 -->
<!-- Title: fidgetSpinner.cpp Pages: 1 -->
<svg width="2034pt" height="278pt"
 viewBox="0.00 0.00 2034.25 278.25" xmlns="http://www.w3.org/2000/svg" xmlns:xlink="http://www.w3.org/1999/xlink">
<g id="graph0" class="graph" transform="scale(1 1) rotate(0) translate(4 274.25)">
<title>fidgetSpinner.cpp</title>
<!-- Node1 -->
<g id="Node000001" class="node">
<title>Node1</title>
<g id="a_Node000001"><a xlink:title=" ">
<polygon fill="#999999" stroke="#666666" points="399.5,-270.25 260.5,-270.25 260.5,-245 399.5,-245 399.5,-270.25"/>
<text text-anchor="middle" x="330" y="-252.95" font-family="Helvetica,sans-Serif" font-size="14.00">fidgetSpinner.cpp</text>
</a>
</g>
</g>
<!-- Node2 -->
<g id="Node000002" class="node">
<title>Node2</title>
<g id="a_Node000002"><a xlink:href="../../d9/dfe/fidgetSpinner_8hpp.html" target="_top" xlink:title=" ">
<polygon fill="white" stroke="#666666" points="195.25,-209 54.75,-209 54.75,-183.75 195.25,-183.75 195.25,-209"/>
<text text-anchor="middle" x="125" y="-191.7" font-family="Helvetica,sans-Serif" font-size="14.00">fidgetSpinner.hpp</text>
</a>
</g>
</g>
<!-- Node1&#45;&gt;Node2 -->
<g id="edge1_Node000001_Node000002" class="edge">
<title>Node1&#45;&gt;Node2</title>
<g id="a_edge1_Node000001_Node000002"><a xlink:title=" ">
<path fill="none" stroke="#63b8ff" stroke-width="2" d="M288.52,-244.63C256.94,-235.51 213.23,-222.87 178.94,-212.96"/>
<polygon fill="#63b8ff" stroke="#63b8ff" stroke-width="2" points="180.26,-209.7 169.68,-210.29 178.32,-216.43 180.26,-209.7"/>
</a>
</g>
</g>
<!-- Node3 -->
<g id="Node000003" class="node">
<title>Node3</title>
<g id="a_Node000003"><a xlink:href="../../d7/db2/animatedSpriteSheet_8hpp.html" target="_top" xlink:title=" ">
<polygon fill="#fff0f0" stroke="red" points="333.88,-147.75 140.12,-147.75 140.12,-122.5 333.88,-122.5 333.88,-147.75"/>
<text text-anchor="middle" x="237" y="-130.45" font-family="Helvetica,sans-Serif" font-size="14.00">animatedSpriteSheet.hpp</text>
</a>
</g>
</g>
<!-- Node1&#45;&gt;Node3 -->
<g id="edge10_Node000001_Node000003" class="edge">
<title>Node1&#45;&gt;Node3</title>
<g id="a_edge10_Node000001_Node000003"><a xlink:title=" ">
<path fill="none" stroke="#63b8ff" stroke-width="2" d="M320.74,-244.63C305.21,-224.51 273.7,-183.67 254.06,-158.23"/>
<polygon fill="#63b8ff" stroke="#63b8ff" stroke-width="2" points="256.95,-156.25 248.07,-150.47 251.41,-160.52 256.95,-156.25"/>
</a>
</g>
</g>
<!-- Node11 -->
<g id="Node000011" class="node">
<title>Node11</title>
<g id="a_Node000011"><a xlink:title=" ">
<polygon fill="#e0e0e0" stroke="#999999" points="196,-25.25 0,-25.25 0,0 196,0 196,-25.25"/>
<text text-anchor="middle" x="98" y="-7.95" font-family="Helvetica,sans-Serif" font-size="14.00">SFML/Graphics/Sprite.hpp</text>
</a>
</g>
</g>
<!-- Node1&#45;&gt;Node11 -->
<g id="edge9_Node000001_Node000011" class="edge">
<title>Node1&#45;&gt;Node11</title>
<g id="a_edge9_Node000001_Node000011"><a xlink:title=" ">
<path fill="none" stroke="#63b8ff" stroke-width="2" d="M260.13,-254.76C185.2,-251.13 73.27,-240.44 46,-209 2.96,-159.39 15.71,-120.99 43,-61.25 48.03,-50.23 57.02,-40.78 66.28,-33.28"/>
<polygon fill="#63b8ff" stroke="#63b8ff" stroke-width="2" points="68.24,-36.18 74.23,-27.44 64.1,-30.54 68.24,-36.18"/>
</a>
</g>
</g>
<!-- Node8 -->
<g id="Node000008" class="node">
<title>Node8</title>
<g id="a_Node000008"><a xlink:href="../../d9/d03/point2d_8hpp.html" target="_top" xlink:title=" ">
<polygon fill="#fff0f0" stroke="red" points="359.38,-25.25 258.62,-25.25 258.62,0 359.38,0 359.38,-25.25"/>
<text text-anchor="middle" x="309" y="-7.95" font-family="Helvetica,sans-Serif" font-size="14.00">point2d.hpp</text>
</a>
</g>
</g>
<!-- Node1&#45;&gt;Node8 -->
<g id="edge24_Node000001_Node000008" class="edge">
<title>Node1&#45;&gt;Node8</title>
<g id="a_edge24_Node000001_Node000008"><a xlink:title=" ">
<path fill="none" stroke="#63b8ff" stroke-width="2" d="M333.89,-244.8C343.46,-213.76 365.83,-127.81 344,-61.25 340.96,-51.97 335.34,-43.01 329.48,-35.41"/>
<polygon fill="#63b8ff" stroke="#63b8ff" stroke-width="2" points="332.36,-33.4 323.24,-28.01 327.01,-37.91 332.36,-33.4"/>
</a>
</g>
</g>
<!-- Node16 -->
<g id="Node000016" class="node">
<title>Node16</title>
<g id="a_Node000016"><a xlink:href="../../de/d46/engine_8hpp.html" target="_top" xlink:title=" ">
<polygon fill="white" stroke="#666666" points="1335.38,-209 1240.62,-209 1240.62,-183.75 1335.38,-183.75 1335.38,-209"/>
<text text-anchor="middle" x="1288" y="-191.7" font-family="Helvetica,sans-Serif" font-size="14.00">engine.hpp</text>
</a>
</g>
</g>
<!-- Node1&#45;&gt;Node16 -->
<g id="edge11_Node000001_Node000016" class="edge">
<title>Node1&#45;&gt;Node16</title>
<g id="a_edge11_Node000001_Node000016"><a xlink:title=" ">
<path fill="none" stroke="#63b8ff" stroke-width="2" d="M399.67,-252.32C579.71,-241.18 1058.17,-211.59 1227.54,-201.11"/>
<polygon fill="#63b8ff" stroke="#63b8ff" stroke-width="2" points="1227.58,-204.62 1237.35,-200.51 1227.15,-197.63 1227.58,-204.62"/>
</a>
</g>
</g>
<!-- Node22 -->
<g id="Node000022" class="node">
<title>Node22</title>
<g id="a_Node000022"><a xlink:href="../../d4/d3d/log_8hpp.html" target="_top" xlink:title=" ">
<polygon fill="#fff0f0" stroke="red" points="2026.25,-147.75 1957.75,-147.75 1957.75,-122.5 2026.25,-122.5 2026.25,-147.75"/>
<text text-anchor="middle" x="1992" y="-130.45" font-family="Helvetica,sans-Serif" font-size="14.00">log.hpp</text>
</a>
</g>
</g>
<!-- Node1&#45;&gt;Node22 -->
<g id="edge23_Node000001_Node000022" class="edge">
<title>Node1&#45;&gt;Node22</title>
<g id="a_edge23_Node000001_Node000022"><a xlink:title=" ">
<path fill="none" stroke="#63b8ff" stroke-width="2" d="M399.84,-254.64C564.47,-249.69 989.63,-235.24 1344,-209 1609.31,-189.35 1681,-196.56 1944.67,-148.34"/>
<polygon fill="#63b8ff" stroke="#63b8ff" stroke-width="2" points="1945.2,-151.81 1954.4,-146.55 1943.93,-144.92 1945.2,-151.81"/>
</a>
</g>
</g>
<!-- Node2&#45;&gt;Node3 -->
<g id="edge2_Node000002_Node000003" class="edge">
<title>Node2&#45;&gt;Node3</title>
<g id="a_edge2_Node000002_Node000003"><a xlink:title=" ">
<path fill="none" stroke="#63b8ff" stroke-width="2" d="M147.66,-183.38C163.53,-174.99 185,-163.63 202.92,-154.15"/>
<polygon fill="#63b8ff" stroke="#63b8ff" stroke-width="2" points="204.49,-157.28 211.69,-149.51 201.22,-151.1 204.49,-157.28"/>
</a>
</g>
</g>
<!-- Node2&#45;&gt;Node8 -->
<g id="edge7_Node000002_Node000008" class="edge">
<title>Node2&#45;&gt;Node8</title>
<g id="a_edge7_Node000002_Node000008"><a xlink:title=" ">
<path fill="none" stroke="#63b8ff" stroke-width="2" d="M110.45,-183.61C81.68,-158.98 23.07,-100.96 56,-61.25 68.05,-46.72 174.43,-30.62 245.36,-21.35"/>
<polygon fill="#63b8ff" stroke="#63b8ff" stroke-width="2" points="245.68,-24.84 255.15,-20.09 244.79,-17.9 245.68,-24.84"/>
</a>
</g>
</g>
<!-- Node15 -->
<g id="Node000015" class="node">
<title>Node15</title>
<g id="a_Node000015"><a xlink:title=" ">
<polygon fill="#e0e0e0" stroke="#999999" points="159.38,-86.5 64.62,-86.5 64.62,-61.25 159.38,-61.25 159.38,-86.5"/>
<text text-anchor="middle" x="112" y="-69.2" font-family="Helvetica,sans-Serif" font-size="14.00">string_view</text>
</a>
</g>
</g>
<!-- Node2&#45;&gt;Node15 -->
<g id="edge8_Node000002_Node000015" class="edge">
<title>Node2&#45;&gt;Node15</title>
<g id="a_edge8_Node000002_Node000015"><a xlink:title=" ">
<path fill="none" stroke="#63b8ff" stroke-width="2" d="M123.71,-183.38C121.6,-163.89 117.4,-124.96 114.65,-99.42"/>
<polygon fill="#63b8ff" stroke="#63b8ff" stroke-width="2" points="118.17,-99.4 113.61,-89.83 111.21,-100.15 118.17,-99.4"/>
</a>
</g>
</g>
<!-- Node5 -->
<g id="Node000005" class="node">
<title>Node5</title>
<g id="a_Node000005"><a xlink:href="../../dc/d3e/animatedObject_8hpp.html" target="_top" xlink:title=" ">
<polygon fill="#fff0f0" stroke="red" points="334.88,-86.5 177.12,-86.5 177.12,-61.25 334.88,-61.25 334.88,-86.5"/>
<text text-anchor="middle" x="256" y="-69.2" font-family="Helvetica,sans-Serif" font-size="14.00">animatedObject.hpp</text>
</a>
</g>
</g>
<!-- Node3&#45;&gt;Node5 -->
<g id="edge3_Node000003_Node000005" class="edge">
<title>Node3&#45;&gt;Node5</title>
<g id="a_edge3_Node000003_Node000005"><a xlink:title=" ">
<path fill="none" stroke="#63b8ff" stroke-width="2" d="M240.84,-122.13C242.96,-115.55 245.65,-107.14 248.19,-99.24"/>
<polygon fill="#63b8ff" stroke="#63b8ff" stroke-width="2" points="251.52,-100.32 251.24,-89.73 244.85,-98.18 251.52,-100.32"/>
</a>
</g>
</g>
<!-- Node3&#45;&gt;Node15 -->
<g id="edge6_Node000003_Node000015" class="edge">
<title>Node3&#45;&gt;Node15</title>
<g id="a_edge6_Node000003_Node000015"><a xlink:title=" ">
<path fill="none" stroke="#63b8ff" stroke-width="2" d="M211.7,-122.13C193.66,-113.58 169.11,-101.95 148.89,-92.36"/>
<polygon fill="#63b8ff" stroke="#63b8ff" stroke-width="2" points="150.53,-89.26 139.99,-88.14 147.53,-95.59 150.53,-89.26"/>
</a>
</g>
</g>
<!-- Node5&#45;&gt;Node11 -->
<g id="edge4_Node000005_Node000011" class="edge">
<title>Node5&#45;&gt;Node11</title>
<g id="a_edge4_Node000005_Node000011"><a xlink:title=" ">
<path fill="none" stroke="#63b8ff" stroke-width="2" d="M224.03,-60.88C200.55,-52.08 168.35,-40.01 142.38,-30.27"/>
<polygon fill="#63b8ff" stroke="#63b8ff" stroke-width="2" points="143.62,-27 133.03,-26.76 141.17,-33.55 143.62,-27"/>
</a>
</g>
</g>
<!-- Node5&#45;&gt;Node8 -->
<g id="edge5_Node000005_Node000008" class="edge">
<title>Node5&#45;&gt;Node8</title>
<g id="a_edge5_Node000005_Node000008"><a xlink:title=" ">
<path fill="none" stroke="#63b8ff" stroke-width="2" d="M266.73,-60.88C273.33,-53.5 282,-43.81 289.77,-35.13"/>
<polygon fill="#63b8ff" stroke="#63b8ff" stroke-width="2" points="292.21,-37.64 296.27,-27.85 287,-32.97 292.21,-37.64"/>
</a>
</g>
</g>
<!-- Node16&#45;&gt;Node5 -->
<g id="edge17_Node000016_Node000005" class="edge">
<title>Node16&#45;&gt;Node5</title>
<g id="a_edge17_Node000016_Node000005"><a xlink:title=" ">
<path fill="none" stroke="#63b8ff" stroke-width="2" d="M1275.72,-183.51C1255.86,-164.63 1217.19,-129.19 1200,-122.5 1122.08,-92.18 569.87,-79.95 347.97,-76.23"/>
<polygon fill="#63b8ff" stroke="#63b8ff" stroke-width="2" points="348.2,-72.73 338.14,-76.06 348.08,-79.73 348.2,-72.73"/>
</a>
</g>
</g>
<!-- Node16&#45;&gt;Node8 -->
<g id="edge19_Node000016_Node000008" class="edge">
<title>Node16&#45;&gt;Node8</title>
<g id="a_edge19_Node000016_Node000008"><a xlink:title=" ">
<path fill="none" stroke="#63b8ff" stroke-width="2" d="M1335.85,-184.49C1337.25,-184.23 1338.63,-183.99 1340,-183.75 1471.96,-161 1725.73,-220.98 1635,-122.5 1548.61,-28.73 624.83,-15.72 372.42,-13.92"/>
<polygon fill="#63b8ff" stroke="#63b8ff" stroke-width="2" points="372.57,-10.42 362.55,-13.85 372.53,-17.42 372.57,-10.42"/>
</a>
</g>
</g>
<!-- Node17 -->
<g id="Node000017" class="node">
<title>Node17</title>
<g id="a_Node000017"><a xlink:title=" ">
<polygon fill="#e0e0e0" stroke="#999999" points="1940.12,-147.75 1681.88,-147.75 1681.88,-122.5 1940.12,-122.5 1940.12,-147.75"/>
<text text-anchor="middle" x="1811" y="-130.45" font-family="Helvetica,sans-Serif" font-size="14.00">SFML/Graphics/RenderWindow.hpp</text>
</a>
</g>
</g>
<!-- Node16&#45;&gt;Node17 -->
<g id="edge12_Node000016_Node000017" class="edge">
<title>Node16&#45;&gt;Node17</title>
<g id="a_edge12_Node000016_Node000017"><a xlink:title=" ">
<path fill="none" stroke="#63b8ff" stroke-width="2" d="M1335.8,-189.96C1415.68,-180.91 1578.63,-162.45 1691.28,-149.69"/>
<polygon fill="#63b8ff" stroke="#63b8ff" stroke-width="2" points="1691.52,-153.18 1701.06,-148.58 1690.73,-146.23 1691.52,-153.18"/>
</a>
</g>
</g>
<!-- Node18 -->
<g id="Node000018" class="node">
<title>Node18</title>
<g id="a_Node000018"><a xlink:title=" ">
<polygon fill="#e0e0e0" stroke="#999999" points="588.12,-147.75 389.88,-147.75 389.88,-122.5 588.12,-122.5 588.12,-147.75"/>
<text text-anchor="middle" x="489" y="-130.45" font-family="Helvetica,sans-Serif" font-size="14.00">SFML/Graphics/Shape.hpp</text>
</a>
</g>
</g>
<!-- Node16&#45;&gt;Node18 -->
<g id="edge13_Node000016_Node000018" class="edge">
<title>Node16&#45;&gt;Node18</title>
<g id="a_edge13_Node000016_Node000018"><a xlink:title=" ">
<path fill="none" stroke="#63b8ff" stroke-width="2" d="M1240.2,-192.71C1129.79,-186.43 848.21,-169.64 601.29,-148.1"/>
<polygon fill="#63b8ff" stroke="#63b8ff" stroke-width="2" points="601.72,-144.63 591.45,-147.24 601.11,-151.6 601.72,-144.63"/>
</a>
</g>
</g>
<!-- Node19 -->
<g id="Node000019" class="node">
<title>Node19</title>
<g id="a_Node000019"><a xlink:title=" ">
<polygon fill="#e0e0e0" stroke="#999999" points="788.25,-147.75 605.75,-147.75 605.75,-122.5 788.25,-122.5 788.25,-147.75"/>
<text text-anchor="middle" x="697" y="-130.45" font-family="Helvetica,sans-Serif" font-size="14.00">SFML/System/Clock.hpp</text>
</a>
</g>
</g>
<!-- Node16&#45;&gt;Node19 -->
<g id="edge14_Node000016_Node000019" class="edge">
<title>Node16&#45;&gt;Node19</title>
<g id="a_edge14_Node000016_Node000019"><a xlink:title=" ">
<path fill="none" stroke="#63b8ff" stroke-width="2" d="M1240.33,-191.02C1154.88,-183.16 969.65,-165.85 801.5,-148.11"/>
<polygon fill="#63b8ff" stroke="#63b8ff" stroke-width="2" points="801.97,-144.64 791.66,-147.06 801.24,-151.6 801.97,-144.64"/>
</a>
</g>
</g>
<!-- Node20 -->
<g id="Node000020" class="node">
<title>Node20</title>
<g id="a_Node000020"><a xlink:title=" ">
<polygon fill="#e0e0e0" stroke="#999999" points="985.38,-147.75 806.62,-147.75 806.62,-122.5 985.38,-122.5 985.38,-147.75"/>
<text text-anchor="middle" x="896" y="-130.45" font-family="Helvetica,sans-Serif" font-size="14.00">SFML/System/Time.hpp</text>
</a>
</g>
</g>
<!-- Node16&#45;&gt;Node20 -->
<g id="edge15_Node000016_Node000020" class="edge">
<title>Node16&#45;&gt;Node20</title>
<g id="a_edge15_Node000016_Node000020"><a xlink:title=" ">
<path fill="none" stroke="#63b8ff" stroke-width="2" d="M1240.33,-188.17C1177.96,-178.74 1067.35,-162.02 988.32,-150.08"/>
<polygon fill="#63b8ff" stroke="#63b8ff" stroke-width="2" points="989.32,-146.69 978.91,-148.66 988.27,-153.61 989.32,-146.69"/>
</a>
</g>
</g>
<!-- Node21 -->
<g id="Node000021" class="node">
<title>Node21</title>
<g id="a_Node000021"><a xlink:title=" ">
<polygon fill="#e0e0e0" stroke="#999999" points="1190.88,-147.75 1003.12,-147.75 1003.12,-122.5 1190.88,-122.5 1190.88,-147.75"/>
<text text-anchor="middle" x="1097" y="-130.45" font-family="Helvetica,sans-Serif" font-size="14.00">SFML/Window/Event.hpp</text>
</a>
</g>
</g>
<!-- Node16&#45;&gt;Node21 -->
<g id="edge16_Node000016_Node000021" class="edge">
<title>Node16&#45;&gt;Node21</title>
<g id="a_edge16_Node000016_Node000021"><a xlink:title=" ">
<path fill="none" stroke="#63b8ff" stroke-width="2" d="M1249.35,-183.38C1220.19,-174.34 1179.92,-161.85 1148.1,-151.98"/>
<polygon fill="#63b8ff" stroke="#63b8ff" stroke-width="2" points="1149.4,-148.72 1138.81,-149.1 1147.33,-155.4 1149.4,-148.72"/>
</a>
</g>
</g>
<!-- Node16&#45;&gt;Node22 -->
<g id="edge18_Node000016_Node000022" class="edge">
<title>Node16&#45;&gt;Node22</title>
<g id="a_edge18_Node000016_Node000022"><a xlink:title=" ">
<path fill="none" stroke="#63b8ff" stroke-width="2" d="M1335.66,-195.07C1442.95,-193.71 1711.62,-186.58 1944.57,-148.24"/>
<polygon fill="#63b8ff" stroke="#63b8ff" stroke-width="2" points="1945.12,-151.7 1954.41,-146.59 1943.97,-144.79 1945.12,-151.7"/>
</a>
</g>
</g>
<!-- Node7 -->
<g id="Node000007" class="node">
<title>Node7</title>
<g id="a_Node000007"><a xlink:title=" ">
<polygon fill="#e0e0e0" stroke="#999999" points="1467,-147.75 1247,-147.75 1247,-122.5 1467,-122.5 1467,-147.75"/>
<text text-anchor="middle" x="1357" y="-130.45" font-family="Helvetica,sans-Serif" font-size="14.00">SFML/Graphics/Drawable.hpp</text>
</a>
</g>
</g>
<!-- Node16&#45;&gt;Node7 -->
<g id="edge20_Node000016_Node000007" class="edge">
<title>Node16&#45;&gt;Node7</title>
<g id="a_edge20_Node000016_Node000007"><a xlink:title=" ">
<path fill="none" stroke="#63b8ff" stroke-width="2" d="M1301.96,-183.38C1310.94,-175.68 1322.84,-165.46 1333.27,-156.5"/>
<polygon fill="#63b8ff" stroke="#63b8ff" stroke-width="2" points="1335.45,-159.24 1340.76,-150.07 1330.89,-153.93 1335.45,-159.24"/>
</a>
</g>
</g>
<!-- Node23 -->
<g id="Node000023" class="node">
<title>Node23</title>
<g id="a_Node000023"><a xlink:title=" ">
<polygon fill="#e0e0e0" stroke="#999999" points="1570.5,-147.75 1485.5,-147.75 1485.5,-122.5 1570.5,-122.5 1570.5,-147.75"/>
<text text-anchor="middle" x="1528" y="-130.45" font-family="Helvetica,sans-Serif" font-size="14.00">functional</text>
</a>
</g>
</g>
<!-- Node16&#45;&gt;Node23 -->
<g id="edge21_Node000016_Node000023" class="edge">
<title>Node16&#45;&gt;Node23</title>
<g id="a_edge21_Node000016_Node000023"><a xlink:title=" ">
<path fill="none" stroke="#63b8ff" stroke-width="2" d="M1335.7,-183.6C1375.14,-173.86 1431.18,-160.03 1472.6,-149.8"/>
<polygon fill="#63b8ff" stroke="#63b8ff" stroke-width="2" points="1473.41,-153.21 1482.28,-147.41 1471.73,-146.41 1473.41,-153.21"/>
</a>
</g>
</g>
<!-- Node24 -->
<g id="Node000024" class="node">
<title>Node24</title>
<g id="a_Node000024"><a xlink:title=" ">
<polygon fill="#e0e0e0" stroke="#999999" points="1625.5,-147.75 1588.5,-147.75 1588.5,-122.5 1625.5,-122.5 1625.5,-147.75"/>
<text text-anchor="middle" x="1607" y="-130.45" font-family="Helvetica,sans-Serif" font-size="14.00">set</text>
</a>
</g>
</g>
<!-- Node16&#45;&gt;Node24 -->
<g id="edge22_Node000016_Node000024" class="edge">
<title>Node16&#45;&gt;Node24</title>
<g id="a_edge22_Node000016_Node000024"><a xlink:title=" ">
<path fill="none" stroke="#63b8ff" stroke-width="2" d="M1335.83,-191.2C1391.69,-185.54 1486.89,-173.45 1575.57,-148.57"/>
<polygon fill="#63b8ff" stroke="#63b8ff" stroke-width="2" points="1576.49,-151.95 1585.13,-145.81 1574.55,-145.22 1576.49,-151.95"/>
</a>
</g>
</g>
</g>
</svg>
