<?xml version="1.0" encoding="UTF-8" standalone="no"?>
<!DOCTYPE svg PUBLIC "-//W3C//DTD SVG 1.1//EN"
 "http://www.w3.org/Graphics/SVG/1.1/DTD/svg11.dtd">
<!-- Generated by graphviz version 9.0.0 (0)
 -->
<!-- Title: updateableObject.hpp Pages: 1 -->
<svg width="468pt" height="217pt"
 viewBox="0.00 0.00 467.88 217.00" xmlns="http://www.w3.org/2000/svg" xmlns:xlink="http://www.w3.org/1999/xlink">

<svg id="main" version="1.1" xmlns="http://www.w3.org/2000/svg" xmlns:xlink="http://www.w3.org/1999/xlink" xml:space="preserve" onload="init(evt)">
<style type="text/css"><![CDATA[
.node, .edge {opacity: 0.7;}
.node.selected, .edge.selected {opacity: 1;}
.edge:hover path { stroke: red; }
.edge:hover polygon { stroke: red; fill: red; }
]]></style>
<script type="application/ecmascript" xlink:href="../../svg.min.js"/>
<svg id="graph" class="graph">
<g id="graph0" class="graph" transform="scale(1 1) rotate(0) translate(4 213)">
<title>updateableObject.hpp</title>
<!-- Node1 -->
<g id="Node000001" class="node">
<title>Node1</title>
<g id="a_Node000001"><a xlink:title=" ">
<polygon fill="#999999" stroke="#666666" points="313.62,-209 143.12,-209 143.12,-183.75 313.62,-183.75 313.62,-209"/>
<text text-anchor="middle" x="228.38" y="-191.7" font-family="Helvetica,sans-Serif" font-size="14.00">updateableObject.hpp</text>
</a>
</g>
</g>
<!-- Node2 -->
<g id="Node000002" class="node">
<title>Node2</title>
<g id="a_Node000002"><a xlink:href="../../dc/d84/ball_8hpp.html" target="_top" xlink:title=" ">
<polygon fill="white" stroke="#666666" points="134.5,-147.75 62.25,-147.75 62.25,-122.5 134.5,-122.5 134.5,-147.75"/>
<text text-anchor="middle" x="98.38" y="-130.45" font-family="Helvetica,sans-Serif" font-size="14.00">ball.hpp</text>
</a>
</g>
</g>
<!-- Node1&#45;&gt;Node2 -->
<g id="edge1_Node000001_Node000002" class="edge">
<title>Node1&#45;&gt;Node2</title>
<g id="a_edge1_Node000001_Node000002"><a xlink:title=" ">
<path fill="none" stroke="#63b8ff" stroke-width="2" d="M190.26,-178.01C169.17,-168.39 143.49,-156.69 124.64,-148.1"/>
<polygon fill="#63b8ff" stroke="#63b8ff" stroke-width="2" points="188.76,-181.17 199.31,-182.13 191.67,-174.8 188.76,-181.17"/>
</a>
</g>
</g>
<!-- Node5 -->
<g id="Node000005" class="node">
<title>Node5</title>
<g id="a_Node000005"><a xlink:href="../../d9/d85/player_8hpp.html" target="_top" xlink:title=" ">
<polygon fill="white" stroke="#666666" points="273.12,-147.75 183.62,-147.75 183.62,-122.5 273.12,-122.5 273.12,-147.75"/>
<text text-anchor="middle" x="228.38" y="-130.45" font-family="Helvetica,sans-Serif" font-size="14.00">player.hpp</text>
</a>
</g>
</g>
<!-- Node1&#45;&gt;Node5 -->
<g id="edge4_Node000001_Node000005" class="edge">
<title>Node1&#45;&gt;Node5</title>
<g id="a_edge4_Node000001_Node000005"><a xlink:title=" ">
<path fill="none" stroke="#63b8ff" stroke-width="2" d="M228.38,-170.41C228.38,-162.68 228.38,-154.52 228.38,-148.1"/>
<polygon fill="#63b8ff" stroke="#63b8ff" stroke-width="2" points="224.88,-170.36 228.38,-180.36 231.88,-170.36 224.88,-170.36"/>
</a>
</g>
</g>
<!-- Node9 -->
<g id="Node000009" class="node">
<title>Node9</title>
<g id="a_Node000009"><a xlink:href="../../d4/de1/updateableObject_8cpp.html" target="_top" xlink:title=" ">
<polygon fill="white" stroke="#666666" points="459.88,-147.75 290.88,-147.75 290.88,-122.5 459.88,-122.5 459.88,-147.75"/>
<text text-anchor="middle" x="375.38" y="-130.45" font-family="Helvetica,sans-Serif" font-size="14.00">updateableObject.cpp</text>
</a>
</g>
</g>
<!-- Node1&#45;&gt;Node9 -->
<g id="edge11_Node000001_Node000009" class="edge">
<title>Node1&#45;&gt;Node9</title>
<g id="a_edge11_Node000001_Node000009"><a xlink:title=" ">
<path fill="none" stroke="#63b8ff" stroke-width="2" d="M270.1,-178.56C294.11,-168.88 323.72,-156.94 345.42,-148.2"/>
<polygon fill="#63b8ff" stroke="#63b8ff" stroke-width="2" points="268.9,-175.27 260.93,-182.25 271.51,-181.76 268.9,-175.27"/>
</a>
</g>
</g>
<!-- Node3 -->
<g id="Node000003" class="node">
<title>Node3</title>
<g id="a_Node000003"><a xlink:href="../../d5/d25/ball_8cpp.html" target="_top" xlink:title=" ">
<polygon fill="white" stroke="#666666" points="70.75,-86.5 0,-86.5 0,-61.25 70.75,-61.25 70.75,-86.5"/>
<text text-anchor="middle" x="35.38" y="-69.2" font-family="Helvetica,sans-Serif" font-size="14.00">ball.cpp</text>
</a>
</g>
</g>
<!-- Node2&#45;&gt;Node3 -->
<g id="edge2_Node000002_Node000003" class="edge">
<title>Node2&#45;&gt;Node3</title>
<g id="a_edge2_Node000002_Node000003"><a xlink:title=" ">
<path fill="none" stroke="#63b8ff" stroke-width="2" d="M76.39,-113.45C66.93,-104.55 56.21,-94.47 48.11,-86.85"/>
<polygon fill="#63b8ff" stroke="#63b8ff" stroke-width="2" points="73.74,-115.76 83.42,-120.06 78.53,-110.66 73.74,-115.76"/>
</a>
</g>
</g>
<!-- Node4 -->
<g id="Node000004" class="node">
<title>Node4</title>
<g id="a_Node000004"><a xlink:href="../../d0/d8d/test2_2main_8cpp.html" target="_top" xlink:title=" ">
<polygon fill="white" stroke="#666666" points="176.62,-25.25 96.12,-25.25 96.12,0 176.62,0 176.62,-25.25"/>
<text text-anchor="middle" x="136.38" y="-7.95" font-family="Helvetica,sans-Serif" font-size="14.00">main.cpp</text>
</a>
</g>
</g>
<!-- Node2&#45;&gt;Node4 -->
<g id="edge3_Node000002_Node000004" class="edge">
<title>Node2&#45;&gt;Node4</title>
<g id="a_edge3_Node000002_Node000004"><a xlink:title=" ">
<path fill="none" stroke="#63b8ff" stroke-width="2" d="M106.03,-109.87C114.08,-84.31 126.44,-45.12 132.61,-25.57"/>
<polygon fill="#63b8ff" stroke="#63b8ff" stroke-width="2" points="102.74,-108.65 103.07,-119.24 109.41,-110.76 102.74,-108.65"/>
</a>
</g>
</g>
<!-- Node5&#45;&gt;Node4 -->
<g id="edge9_Node000005_Node000004" class="edge">
<title>Node5&#45;&gt;Node4</title>
<g id="a_edge9_Node000005_Node000004"><a xlink:title=" ">
<path fill="none" stroke="#63b8ff" stroke-width="2" d="M189.18,-115.85C176.77,-108.34 164.04,-98.54 155.38,-86.5 142.08,-68.04 138.08,-41 136.88,-25.58"/>
<polygon fill="#63b8ff" stroke="#63b8ff" stroke-width="2" points="187.28,-118.8 197.72,-120.63 190.7,-112.69 187.28,-118.8"/>
</a>
</g>
</g>
<!-- Node6 -->
<g id="Node000006" class="node">
<title>Node6</title>
<g id="a_Node000006"><a xlink:href="../../d1/d52/gamePlayer_8cpp.html" target="_top" xlink:title=" ">
<polygon fill="white" stroke="#666666" points="351.5,-25.25 225.25,-25.25 225.25,0 351.5,0 351.5,-25.25"/>
<text text-anchor="middle" x="288.38" y="-7.95" font-family="Helvetica,sans-Serif" font-size="14.00">gamePlayer.cpp</text>
</a>
</g>
</g>
<!-- Node5&#45;&gt;Node6 -->
<g id="edge5_Node000005_Node000006" class="edge">
<title>Node5&#45;&gt;Node6</title>
<g id="a_edge5_Node000005_Node000006"><a xlink:title=" ">
<path fill="none" stroke="#63b8ff" stroke-width="2" d="M271.24,-115.89C283.15,-108.59 294.66,-98.9 301.38,-86.5 311.9,-67.06 302.42,-40.85 295.06,-25.74"/>
<polygon fill="#63b8ff" stroke="#63b8ff" stroke-width="2" points="269.56,-112.82 262.49,-120.71 272.93,-118.95 269.56,-112.82"/>
</a>
</g>
</g>
<!-- Node7 -->
<g id="Node000007" class="node">
<title>Node7</title>
<g id="a_Node000007"><a xlink:href="../../d7/d9b/gamePlayer_8hpp.html" target="_top" xlink:title=" ">
<polygon fill="white" stroke="#666666" points="292.25,-86.5 164.5,-86.5 164.5,-61.25 292.25,-61.25 292.25,-86.5"/>
<text text-anchor="middle" x="228.38" y="-69.2" font-family="Helvetica,sans-Serif" font-size="14.00">gamePlayer.hpp</text>
</a>
</g>
</g>
<!-- Node5&#45;&gt;Node7 -->
<g id="edge6_Node000005_Node000007" class="edge">
<title>Node5&#45;&gt;Node7</title>
<g id="a_edge6_Node000005_Node000007"><a xlink:title=" ">
<path fill="none" stroke="#63b8ff" stroke-width="2" d="M228.38,-109.16C228.38,-101.43 228.38,-93.27 228.38,-86.85"/>
<polygon fill="#63b8ff" stroke="#63b8ff" stroke-width="2" points="224.88,-109.11 228.38,-119.11 231.88,-109.11 224.88,-109.11"/>
</a>
</g>
</g>
<!-- Node8 -->
<g id="Node000008" class="node">
<title>Node8</title>
<g id="a_Node000008"><a xlink:href="../../db/d80/player_8cpp.html" target="_top" xlink:title=" ">
<polygon fill="white" stroke="#666666" points="436.38,-86.5 348.38,-86.5 348.38,-61.25 436.38,-61.25 436.38,-86.5"/>
<text text-anchor="middle" x="392.38" y="-69.2" font-family="Helvetica,sans-Serif" font-size="14.00">player.cpp</text>
</a>
</g>
</g>
<!-- Node5&#45;&gt;Node8 -->
<g id="edge10_Node000005_Node000008" class="edge">
<title>Node5&#45;&gt;Node8</title>
<g id="a_edge10_Node000005_Node000008"><a xlink:title=" ">
<path fill="none" stroke="#63b8ff" stroke-width="2" d="M273.45,-117.84C300.49,-108.07 334.3,-95.85 358.96,-86.95"/>
<polygon fill="#63b8ff" stroke="#63b8ff" stroke-width="2" points="272.63,-114.42 264.41,-121.11 275,-121 272.63,-114.42"/>
</a>
</g>
</g>
<!-- Node7&#45;&gt;Node4 -->
<g id="edge8_Node000007_Node000004" class="edge">
<title>Node7&#45;&gt;Node4</title>
<g id="a_edge8_Node000007_Node000004"><a xlink:title=" ">
<path fill="none" stroke="#63b8ff" stroke-width="2" d="M198.86,-53.87C184.45,-44.59 167.55,-33.7 154.96,-25.6"/>
<polygon fill="#63b8ff" stroke="#63b8ff" stroke-width="2" points="196.91,-56.77 207.21,-59.25 200.7,-50.89 196.91,-56.77"/>
</a>
</g>
</g>
<!-- Node7&#45;&gt;Node6 -->
<g id="edge7_Node000007_Node000006" class="edge">
<title>Node7&#45;&gt;Node6</title>
<g id="a_edge7_Node000007_Node000006"><a xlink:title=" ">
<path fill="none" stroke="#63b8ff" stroke-width="2" d="M249.6,-51.92C258.53,-43.09 268.61,-33.14 276.25,-25.6"/>
<polygon fill="#63b8ff" stroke="#63b8ff" stroke-width="2" points="247.33,-49.24 242.67,-58.76 252.25,-54.22 247.33,-49.24"/>
</a>
</g>
</g>
</g>
</svg>
</svg>

<style type='text/css'>
<![CDATA[
[data-mouse-over-selected='false'] { opacity: 0.7; }
[data-mouse-over-selected='true']  { opacity: 1.0; }
]]>
</style>
<script type="application/ecmascript"><![CDATA[
document.addEventListener('DOMContentLoaded', (event) => {
  highlightEdges();
  highlightAdjacentNodes();
});
]]></script>
</svg>
