<?xml version="1.0" encoding="UTF-8" standalone="no"?>
<!DOCTYPE svg PUBLIC "-//W3C//DTD SVG 1.1//EN"
 "http://www.w3.org/Graphics/SVG/1.1/DTD/svg11.dtd">
<!-- Generated by graphviz version 9.0.0 (0)
 -->
<!-- Title: Ball::update Pages: 1 -->
<svg width="555pt" height="183pt"
 viewBox="0.00 0.00 554.75 183.25" xmlns="http://www.w3.org/2000/svg" xmlns:xlink="http://www.w3.org/1999/xlink">
<g id="graph0" class="graph" transform="scale(1 1) rotate(0) translate(4 179.25)">
<title>Ball::update</title>
<!-- Node1 -->
<g id="Node000001" class="node">
<title>Node1</title>
<g id="a_Node000001"><a xlink:title="Updates state of object.">
<polygon fill="#999999" stroke="#666666" points="99.25,-110.25 0,-110.25 0,-85 99.25,-85 99.25,-110.25"/>
<text text-anchor="middle" x="49.62" y="-92.95" font-family="Helvetica,sans-Serif" font-size="14.00">Ball::update</text>
</a>
</g>
</g>
<!-- Node2 -->
<g id="Node000002" class="node">
<title>Node2</title>
<g id="a_Node000002"><a xlink:href="../../d1/db6/classEngine.html#a4fbdd2df29e30dd08de3c285cee8c128" target="_top" xlink:title="Instance getter.">
<polygon fill="white" stroke="#666666" points="326,-175.25 171.25,-175.25 171.25,-150 326,-150 326,-175.25"/>
<text text-anchor="middle" x="248.62" y="-157.95" font-family="Helvetica,sans-Serif" font-size="14.00">Engine::getInstance</text>
</a>
</g>
</g>
<!-- Node1&#45;&gt;Node2 -->
<g id="edge1_Node000001_Node000002" class="edge">
<title>Node1&#45;&gt;Node2</title>
<g id="a_edge1_Node000001_Node000002"><a xlink:title=" ">
<path fill="none" stroke="#63b8ff" stroke-width="2" d="M71.41,-110.65C88.08,-120.54 112.39,-133.74 135.25,-141.62 142.7,-144.19 150.54,-146.47 158.47,-148.49"/>
<polygon fill="#63b8ff" stroke="#63b8ff" stroke-width="2" points="157.49,-151.85 168.03,-150.74 159.1,-145.04 157.49,-151.85"/>
</a>
</g>
</g>
<!-- Node4 -->
<g id="Node000004" class="node">
<title>Node4</title>
<g id="a_Node000004"><a xlink:href="../../d1/db6/classEngine.html#a7882b3a1b96c425ea5692807e0765e9f" target="_top" xlink:title="Last frame duration getter.">
<polygon fill="white" stroke="#666666" points="362,-132.25 135.25,-132.25 135.25,-107 362,-107 362,-132.25"/>
<text text-anchor="middle" x="248.62" y="-114.95" font-family="Helvetica,sans-Serif" font-size="14.00">Engine::getLastFrameDuration</text>
</a>
</g>
</g>
<!-- Node1&#45;&gt;Node4 -->
<g id="edge3_Node000001_Node000004" class="edge">
<title>Node1&#45;&gt;Node4</title>
<g id="a_edge3_Node000001_Node000004"><a xlink:title=" ">
<path fill="none" stroke="#63b8ff" stroke-width="2" d="M99.57,-103.09C106.67,-103.88 114.23,-104.73 122.03,-105.6"/>
<polygon fill="#63b8ff" stroke="#63b8ff" stroke-width="2" points="121.57,-109.07 131.89,-106.7 122.34,-102.11 121.57,-109.07"/>
</a>
</g>
</g>
<!-- Node5 -->
<g id="Node000005" class="node">
<title>Node5</title>
<g id="a_Node000005"><a xlink:href="../../dc/df0/classBall.html#a36286369a446b1daea755ddd2bc7a524" target="_top" xlink:title=" ">
<polygon fill="white" stroke="#666666" points="325.25,-89.25 172,-89.25 172,-64 325.25,-64 325.25,-89.25"/>
<text text-anchor="middle" x="248.62" y="-71.95" font-family="Helvetica,sans-Serif" font-size="14.00">Ball::getMoveVector</text>
</a>
</g>
</g>
<!-- Node1&#45;&gt;Node5 -->
<g id="edge4_Node000001_Node000005" class="edge">
<title>Node1&#45;&gt;Node5</title>
<g id="a_edge4_Node000001_Node000005"><a xlink:title=" ">
<path fill="none" stroke="#63b8ff" stroke-width="2" d="M99.57,-92.41C117.51,-90.49 138.42,-88.27 158.77,-86.1"/>
<polygon fill="#63b8ff" stroke="#63b8ff" stroke-width="2" points="159.1,-89.58 168.67,-85.04 158.35,-82.62 159.1,-89.58"/>
</a>
</g>
</g>
<!-- Node6 -->
<g id="Node000006" class="node">
<title>Node6</title>
<g id="a_Node000006"><a xlink:href="../../dc/df0/classBall.html#a9f827d14cbaeb11f50ce4f9741577acb" target="_top" xlink:title="Translates object in space.">
<polygon fill="white" stroke="#666666" points="293,-46.25 204.25,-46.25 204.25,-21 293,-21 293,-46.25"/>
<text text-anchor="middle" x="248.62" y="-28.95" font-family="Helvetica,sans-Serif" font-size="14.00">Ball::move</text>
</a>
</g>
</g>
<!-- Node1&#45;&gt;Node6 -->
<g id="edge5_Node000001_Node000006" class="edge">
<title>Node1&#45;&gt;Node6</title>
<g id="a_edge5_Node000001_Node000006"><a xlink:title=" ">
<path fill="none" stroke="#63b8ff" stroke-width="2" d="M72.14,-84.52C88.81,-74.91 112.78,-62.26 135.25,-54.62 153.02,-48.59 172.99,-44.15 191.12,-40.95"/>
<polygon fill="#63b8ff" stroke="#63b8ff" stroke-width="2" points="191.65,-44.41 200.94,-39.32 190.51,-37.5 191.65,-44.41"/>
</a>
</g>
</g>
<!-- Node3 -->
<g id="Node000003" class="node">
<title>Node3</title>
<g id="a_Node000003"><a xlink:href="../../d1/db6/classEngine.html#a8c98683b0a3aa28d8ab72a8bcd0d52f2" target="_top" xlink:title="Constructor.">
<polygon fill="white" stroke="#666666" points="532.88,-175.25 411.88,-175.25 411.88,-150 532.88,-150 532.88,-175.25"/>
<text text-anchor="middle" x="472.38" y="-157.95" font-family="Helvetica,sans-Serif" font-size="14.00">Engine::Engine</text>
</a>
</g>
</g>
<!-- Node2&#45;&gt;Node3 -->
<g id="edge2_Node000002_Node000003" class="edge">
<title>Node2&#45;&gt;Node3</title>
<g id="a_edge2_Node000002_Node000003"><a xlink:title=" ">
<path fill="none" stroke="#63b8ff" stroke-width="2" d="M326.25,-162.62C349.69,-162.62 375.41,-162.62 398.59,-162.62"/>
<polygon fill="#63b8ff" stroke="#63b8ff" stroke-width="2" points="398.52,-166.13 408.52,-162.63 398.52,-159.13 398.52,-166.13"/>
</a>
</g>
</g>
<!-- Node7 -->
<g id="Node000007" class="node">
<title>Node7</title>
<g id="a_Node000007"><a xlink:href="../../de/d1c/classGameObject.html#a58f5eec3eb01d9cca9e9b93d950d41a8" target="_top" xlink:title="Translates object in space.">
<polygon fill="white" stroke="#666666" points="546.75,-68.25 398,-68.25 398,-43 546.75,-43 546.75,-68.25"/>
<text text-anchor="middle" x="472.38" y="-50.95" font-family="Helvetica,sans-Serif" font-size="14.00">GameObject::move</text>
</a>
</g>
</g>
<!-- Node6&#45;&gt;Node7 -->
<g id="edge6_Node000006_Node000007" class="edge">
<title>Node6&#45;&gt;Node7</title>
<g id="a_edge6_Node000006_Node000007"><a xlink:title=" ">
<path fill="none" stroke="#63b8ff" stroke-width="2" d="M293.44,-37.97C319.51,-40.56 353.5,-43.93 384.78,-47.03"/>
<polygon fill="#63b8ff" stroke="#63b8ff" stroke-width="2" points="384.22,-50.5 394.52,-48 384.91,-43.53 384.22,-50.5"/>
</a>
</g>
</g>
<!-- Node8 -->
<g id="Node000008" class="node">
<title>Node8</title>
<g id="a_Node000008"><a xlink:href="../../d5/d5c/classPoint2d.html#a67d1225067ee31870cd80f774ac8f0b3" target="_top" xlink:title="Convert to Vector2f.">
<polygon fill="white" stroke="#666666" points="546.75,-25.25 398,-25.25 398,0 546.75,0 546.75,-25.25"/>
<text text-anchor="middle" x="472.38" y="-7.95" font-family="Helvetica,sans-Serif" font-size="14.00">Point2d::toVector2f</text>
</a>
</g>
</g>
<!-- Node6&#45;&gt;Node8 -->
<g id="edge7_Node000006_Node000008" class="edge">
<title>Node6&#45;&gt;Node8</title>
<g id="a_edge7_Node000006_Node000008"><a xlink:title=" ">
<path fill="none" stroke="#63b8ff" stroke-width="2" d="M293.44,-29.48C319.51,-27.01 353.5,-23.79 384.78,-20.83"/>
<polygon fill="#63b8ff" stroke="#63b8ff" stroke-width="2" points="384.89,-24.33 394.51,-19.9 384.23,-17.36 384.89,-24.33"/>
</a>
</g>
</g>
</g>
</svg>
