<?xml version="1.0" encoding="UTF-8" standalone="no"?>
<!DOCTYPE svg PUBLIC "-//W3C//DTD SVG 1.1//EN"
 "http://www.w3.org/Graphics/SVG/1.1/DTD/svg11.dtd">
<!-- Generated by graphviz version 9.0.0 (0)
 -->
<!-- Title: Ball::setPositon Pages: 1 -->
<svg width="351pt" height="76pt"
 viewBox="0.00 0.00 351.25 76.25" xmlns="http://www.w3.org/2000/svg" xmlns:xlink="http://www.w3.org/1999/xlink">
<g id="graph0" class="graph" transform="scale(1 1) rotate(0) translate(4 72.25)">
<title>Ball::setPositon</title>
<!-- Node1 -->
<g id="Node000001" class="node">
<title>Node1</title>
<g id="a_Node000001"><a xlink:title=" ">
<polygon fill="#999999" stroke="#666666" points="121.75,-46.25 0,-46.25 0,-21 121.75,-21 121.75,-46.25"/>
<text text-anchor="middle" x="60.88" y="-28.95" font-family="Helvetica,sans-Serif" font-size="14.00">Ball::setPositon</text>
</a>
</g>
</g>
<!-- Node2 -->
<g id="Node000002" class="node">
<title>Node2</title>
<g id="a_Node000002"><a xlink:href="../../de/d1c/classGameObject.html#ac8a2fe5f8491e4804ff43785c3be5d62" target="_top" xlink:title="Object position setter.">
<polygon fill="white" stroke="#666666" points="343.25,-68.25 157.75,-68.25 157.75,-43 343.25,-43 343.25,-68.25"/>
<text text-anchor="middle" x="250.5" y="-50.95" font-family="Helvetica,sans-Serif" font-size="14.00">GameObject::setPosition</text>
</a>
</g>
</g>
<!-- Node1&#45;&gt;Node2 -->
<g id="edge1_Node000001_Node000002" class="edge">
<title>Node1&#45;&gt;Node2</title>
<g id="a_edge1_Node000001_Node000002"><a xlink:title=" ">
<path fill="none" stroke="#63b8ff" stroke-width="2" d="M122.01,-40.68C129.38,-41.54 137.07,-42.44 144.86,-43.36"/>
<polygon fill="#63b8ff" stroke="#63b8ff" stroke-width="2" points="144.23,-46.81 154.57,-44.49 145.05,-39.85 144.23,-46.81"/>
</a>
</g>
</g>
<!-- Node3 -->
<g id="Node000003" class="node">
<title>Node3</title>
<g id="a_Node000003"><a xlink:href="../../d5/d5c/classPoint2d.html#a67d1225067ee31870cd80f774ac8f0b3" target="_top" xlink:title="Convert to Vector2f.">
<polygon fill="white" stroke="#666666" points="324.88,-25.25 176.12,-25.25 176.12,0 324.88,0 324.88,-25.25"/>
<text text-anchor="middle" x="250.5" y="-7.95" font-family="Helvetica,sans-Serif" font-size="14.00">Point2d::toVector2f</text>
</a>
</g>
</g>
<!-- Node1&#45;&gt;Node3 -->
<g id="edge2_Node000001_Node000003" class="edge">
<title>Node1&#45;&gt;Node3</title>
<g id="a_edge2_Node000001_Node000003"><a xlink:title=" ">
<path fill="none" stroke="#63b8ff" stroke-width="2" d="M122.01,-26.89C135.15,-25.42 149.29,-23.84 163.21,-22.28"/>
<polygon fill="#63b8ff" stroke="#63b8ff" stroke-width="2" points="163.34,-25.79 172.89,-21.2 162.57,-18.83 163.34,-25.79"/>
</a>
</g>
</g>
</g>
</svg>
