<?xml version="1.0" encoding="UTF-8" standalone="no"?>
<!DOCTYPE svg PUBLIC "-//W3C//DTD SVG 1.1//EN"
 "http://www.w3.org/Graphics/SVG/1.1/DTD/svg11.dtd">
<!-- Generated by graphviz version 9.0.0 (0)
 -->
<!-- Title: Ball::update Pages: 1 -->
<svg width="376pt" height="33pt"
 viewBox="0.00 0.00 375.50 33.25" xmlns="http://www.w3.org/2000/svg" xmlns:xlink="http://www.w3.org/1999/xlink">
<g id="graph0" class="graph" transform="scale(1 1) rotate(0) translate(4 29.25)">
<title>Ball::update</title>
<!-- Node1 -->
<g id="Node000001" class="node">
<title>Node1</title>
<g id="a_Node000001"><a xlink:title="Updates state of object.">
<polygon fill="#999999" stroke="#666666" points="367.5,-25.25 268.25,-25.25 268.25,0 367.5,0 367.5,-25.25"/>
<text text-anchor="middle" x="317.88" y="-7.95" font-family="Helvetica,sans-Serif" font-size="14.00">Ball::update</text>
</a>
</g>
</g>
<!-- Node2 -->
<g id="Node000002" class="node">
<title>Node2</title>
<g id="a_Node000002"><a xlink:href="../../d0/d8d/test2_2main_8cpp.html#adc4fc3d5c105079f45841fb74e7de7f3" target="_top" xlink:title=" ">
<polygon fill="white" stroke="#666666" points="232.25,-25.25 136,-25.25 136,0 232.25,0 232.25,-25.25"/>
<text text-anchor="middle" x="184.12" y="-7.95" font-family="Helvetica,sans-Serif" font-size="14.00">handleBalls</text>
</a>
</g>
</g>
<!-- Node1&#45;&gt;Node2 -->
<g id="edge1_Node000001_Node000002" class="edge">
<title>Node1&#45;&gt;Node2</title>
<g id="a_edge1_Node000001_Node000002"><a xlink:title=" ">
<path fill="none" stroke="#63b8ff" stroke-width="2" d="M254.86,-12.62C247.33,-12.62 239.74,-12.62 232.47,-12.62"/>
<polygon fill="#63b8ff" stroke="#63b8ff" stroke-width="2" points="254.79,-16.13 264.79,-12.63 254.79,-9.13 254.79,-16.13"/>
</a>
</g>
</g>
<!-- Node3 -->
<g id="Node000003" class="node">
<title>Node3</title>
<g id="a_Node000003"><a xlink:href="../../d0/d8d/test2_2main_8cpp.html#a0771209d6ddc7b70e2a222f27b12f387" target="_top" xlink:title=" ">
<polygon fill="#fff0f0" stroke="red" points="100,-25.25 0,-25.25 0,0 100,0 100,-25.25"/>
<text text-anchor="middle" x="50" y="-7.95" font-family="Helvetica,sans-Serif" font-size="14.00">customLoop</text>
</a>
</g>
</g>
<!-- Node2&#45;&gt;Node3 -->
<g id="edge2_Node000002_Node000003" class="edge">
<title>Node2&#45;&gt;Node3</title>
<g id="a_edge2_Node000002_Node000003"><a xlink:title=" ">
<path fill="none" stroke="#63b8ff" stroke-width="2" d="M122.81,-12.62C115.25,-12.62 107.59,-12.62 100.22,-12.62"/>
<polygon fill="#63b8ff" stroke="#63b8ff" stroke-width="2" points="122.77,-16.13 132.77,-12.63 122.77,-9.13 122.77,-16.13"/>
</a>
</g>
</g>
</g>
</svg>
