<?xml version="1.0" encoding="UTF-8" standalone="no"?>
<!DOCTYPE svg PUBLIC "-//W3C//DTD SVG 1.1//EN"
 "http://www.w3.org/Graphics/SVG/1.1/DTD/svg11.dtd">
<!-- Generated by graphviz version 9.0.0 (0)
 -->
<!-- Title: Ball::setPositon Pages: 1 -->
<svg width="406pt" height="76pt"
 viewBox="0.00 0.00 405.50 76.25" xmlns="http://www.w3.org/2000/svg" xmlns:xlink="http://www.w3.org/1999/xlink">
<g id="graph0" class="graph" transform="scale(1 1) rotate(0) translate(4 72.25)">
<title>Ball::setPositon</title>
<!-- Node1 -->
<g id="Node000001" class="node">
<title>Node1</title>
<g id="a_Node000001"><a xlink:title=" ">
<polygon fill="#999999" stroke="#666666" points="397.5,-46.25 275.75,-46.25 275.75,-21 397.5,-21 397.5,-46.25"/>
<text text-anchor="middle" x="336.62" y="-28.95" font-family="Helvetica,sans-Serif" font-size="14.00">Ball::setPositon</text>
</a>
</g>
</g>
<!-- Node2 -->
<g id="Node000002" class="node">
<title>Node2</title>
<g id="a_Node000002"><a xlink:href="../../d0/d8d/test2_2main_8cpp.html#a319d411c82633d6148bab1419aa7bb18" target="_top" xlink:title=" ">
<polygon fill="white" stroke="#666666" points="239.75,-46.25 159.25,-46.25 159.25,-21 239.75,-21 239.75,-46.25"/>
<text text-anchor="middle" x="199.5" y="-28.95" font-family="Helvetica,sans-Serif" font-size="14.00">throwBall</text>
</a>
</g>
</g>
<!-- Node1&#45;&gt;Node2 -->
<g id="edge1_Node000001_Node000002" class="edge">
<title>Node1&#45;&gt;Node2</title>
<g id="a_edge1_Node000001_Node000002"><a xlink:title=" ">
<path fill="none" stroke="#63b8ff" stroke-width="2" d="M262.6,-33.62C254.9,-33.62 247.3,-33.62 240.2,-33.62"/>
<polygon fill="#63b8ff" stroke="#63b8ff" stroke-width="2" points="262.54,-37.13 272.54,-33.63 262.54,-30.13 262.54,-37.13"/>
</a>
</g>
</g>
<!-- Node3 -->
<g id="Node000003" class="node">
<title>Node3</title>
<g id="a_Node000003"><a xlink:href="../../d0/d8d/test2_2main_8cpp.html#ae66f6b31b5ad750f1fe042a706a4e3d4" target="_top" xlink:title=" ">
<polygon fill="white" stroke="#666666" points="86.88,-68.25 36.38,-68.25 36.38,-43 86.88,-43 86.88,-68.25"/>
<text text-anchor="middle" x="61.62" y="-50.95" font-family="Helvetica,sans-Serif" font-size="14.00">main</text>
</a>
</g>
</g>
<!-- Node2&#45;&gt;Node3 -->
<g id="edge2_Node000002_Node000003" class="edge">
<title>Node2&#45;&gt;Node3</title>
<g id="a_edge2_Node000002_Node000003"><a xlink:title=" ">
<path fill="none" stroke="#63b8ff" stroke-width="2" d="M146.19,-42.1C125.88,-45.38 103.61,-48.99 87.17,-51.65"/>
<polygon fill="#63b8ff" stroke="#63b8ff" stroke-width="2" points="146.53,-45.58 155.85,-40.53 145.42,-38.67 146.53,-45.58"/>
</a>
</g>
</g>
<!-- Node4 -->
<g id="Node000004" class="node">
<title>Node4</title>
<g id="a_Node000004"><a xlink:href="../../d0/d8d/test2_2main_8cpp.html#aa37434f1e3b96de9f9499c8c46acc31f" target="_top" xlink:title=" ">
<polygon fill="#fff0f0" stroke="red" points="123.25,-25.25 0,-25.25 0,0 123.25,0 123.25,-25.25"/>
<text text-anchor="middle" x="61.62" y="-7.95" font-family="Helvetica,sans-Serif" font-size="14.00">throwBallPlayer</text>
</a>
</g>
</g>
<!-- Node2&#45;&gt;Node4 -->
<g id="edge3_Node000002_Node000004" class="edge">
<title>Node2&#45;&gt;Node4</title>
<g id="a_edge3_Node000002_Node000004"><a xlink:title=" ">
<path fill="none" stroke="#63b8ff" stroke-width="2" d="M145.98,-25.51C138.64,-24.37 131.04,-23.2 123.57,-22.04"/>
<polygon fill="#63b8ff" stroke="#63b8ff" stroke-width="2" points="145.43,-28.96 155.84,-27.03 146.49,-22.05 145.43,-28.96"/>
</a>
</g>
</g>
</g>
</svg>
