<?xml version="1.0" encoding="UTF-8" standalone="no"?>
<!DOCTYPE svg PUBLIC "-//W3C//DTD SVG 1.1//EN"
 "http://www.w3.org/Graphics/SVG/1.1/DTD/svg11.dtd">
<!-- Generated by graphviz version 9.0.0 (0)
 -->
<!-- Title: Ball::setMovementSpeed Pages: 1 -->
<svg width="580pt" height="33pt"
 viewBox="0.00 0.00 579.50 33.25" xmlns="http://www.w3.org/2000/svg" xmlns:xlink="http://www.w3.org/1999/xlink">
<g id="graph0" class="graph" transform="scale(1 1) rotate(0) translate(4 29.25)">
<title>Ball::setMovementSpeed</title>
<!-- Node1 -->
<g id="Node000001" class="node">
<title>Node1</title>
<g id="a_Node000001"><a xlink:title=" ">
<polygon fill="#999999" stroke="#666666" points="571.5,-25.25 383.75,-25.25 383.75,0 571.5,0 571.5,-25.25"/>
<text text-anchor="middle" x="477.62" y="-7.95" font-family="Helvetica,sans-Serif" font-size="14.00">Ball::setMovementSpeed</text>
</a>
</g>
</g>
<!-- Node2 -->
<g id="Node000002" class="node">
<title>Node2</title>
<g id="a_Node000002"><a xlink:href="../../d0/d8d/test2_2main_8cpp.html#aa37434f1e3b96de9f9499c8c46acc31f" target="_top" xlink:title=" ">
<polygon fill="white" stroke="#666666" points="347.75,-25.25 224.5,-25.25 224.5,0 347.75,0 347.75,-25.25"/>
<text text-anchor="middle" x="286.12" y="-7.95" font-family="Helvetica,sans-Serif" font-size="14.00">throwBallPlayer</text>
</a>
</g>
</g>
<!-- Node1&#45;&gt;Node2 -->
<g id="edge1_Node000001_Node000002" class="edge">
<title>Node1&#45;&gt;Node2</title>
<g id="a_edge1_Node000001_Node000002"><a xlink:title=" ">
<path fill="none" stroke="#63b8ff" stroke-width="2" d="M370.39,-12.62C362.78,-12.62 355.27,-12.62 348.06,-12.62"/>
<polygon fill="#63b8ff" stroke="#63b8ff" stroke-width="2" points="370.24,-16.13 380.24,-12.63 370.24,-9.13 370.24,-16.13"/>
</a>
</g>
</g>
<!-- Node3 -->
<g id="Node000003" class="node">
<title>Node3</title>
<g id="a_Node000003"><a xlink:href="../../d0/d8d/test2_2main_8cpp.html#a84b9cc49e2afad9f99db3ce1f412ef01" target="_top" xlink:title=" ">
<polygon fill="#fff0f0" stroke="red" points="188.5,-25.25 0,-25.25 0,0 188.5,0 188.5,-25.25"/>
<text text-anchor="middle" x="94.25" y="-7.95" font-family="Helvetica,sans-Serif" font-size="14.00">keyPressedEventHandler</text>
</a>
</g>
</g>
<!-- Node2&#45;&gt;Node3 -->
<g id="edge2_Node000002_Node000003" class="edge">
<title>Node2&#45;&gt;Node3</title>
<g id="a_edge2_Node000002_Node000003"><a xlink:title=" ">
<path fill="none" stroke="#63b8ff" stroke-width="2" d="M211.05,-12.62C203.73,-12.62 196.23,-12.62 188.74,-12.62"/>
<polygon fill="#63b8ff" stroke="#63b8ff" stroke-width="2" points="210.98,-16.13 220.98,-12.63 210.98,-9.13 210.98,-16.13"/>
</a>
</g>
</g>
</g>
</svg>
