<?xml version="1.0" encoding="UTF-8" standalone="no"?>
<!DOCTYPE svg PUBLIC "-//W3C//DTD SVG 1.1//EN"
 "http://www.w3.org/Graphics/SVG/1.1/DTD/svg11.dtd">
<!-- Generated by graphviz version 9.0.0 (0)
 -->
<!-- Title: animatedSpriteSheet.hpp Pages: 1 -->
<svg width="532pt" height="156pt"
 viewBox="0.00 0.00 532.38 155.75" xmlns="http://www.w3.org/2000/svg" xmlns:xlink="http://www.w3.org/1999/xlink">
<g id="graph0" class="graph" transform="scale(1 1) rotate(0) translate(4 151.75)">
<title>animatedSpriteSheet.hpp</title>
<!-- Node1 -->
<g id="Node000001" class="node">
<title>Node1</title>
<g id="a_Node000001"><a xlink:title=" ">
<polygon fill="#999999" stroke="#666666" points="415,-147.75 221.25,-147.75 221.25,-122.5 415,-122.5 415,-147.75"/>
<text text-anchor="middle" x="318.12" y="-130.45" font-family="Helvetica,sans-Serif" font-size="14.00">animatedSpriteSheet.hpp</text>
</a>
</g>
</g>
<!-- Node2 -->
<g id="Node000002" class="node">
<title>Node2</title>
<g id="a_Node000002"><a xlink:href="../../df/db1/animatedSpriteSheet_8cpp.html" target="_top" xlink:title=" ">
<polygon fill="white" stroke="#666666" points="192.25,-86.5 0,-86.5 0,-61.25 192.25,-61.25 192.25,-86.5"/>
<text text-anchor="middle" x="96.12" y="-69.2" font-family="Helvetica,sans-Serif" font-size="14.00">animatedSpriteSheet.cpp</text>
</a>
</g>
</g>
<!-- Node1&#45;&gt;Node2 -->
<g id="edge1_Node000001_Node000002" class="edge">
<title>Node1&#45;&gt;Node2</title>
<g id="a_edge1_Node000001_Node000002"><a xlink:title=" ">
<path fill="none" stroke="#63b8ff" stroke-width="2" d="M260.75,-118.81C223.54,-108.88 175.75,-96.13 141.25,-86.92"/>
<polygon fill="#63b8ff" stroke="#63b8ff" stroke-width="2" points="259.44,-122.09 270.01,-121.28 261.25,-115.32 259.44,-122.09"/>
</a>
</g>
</g>
<!-- Node3 -->
<g id="Node000003" class="node">
<title>Node3</title>
<g id="a_Node000003"><a xlink:href="../../d1/df9/fidgetSpinner_8cpp.html" target="_top" xlink:title=" ">
<polygon fill="white" stroke="#666666" points="323.62,-25.25 184.62,-25.25 184.62,0 323.62,0 323.62,-25.25"/>
<text text-anchor="middle" x="254.12" y="-7.95" font-family="Helvetica,sans-Serif" font-size="14.00">fidgetSpinner.cpp</text>
</a>
</g>
</g>
<!-- Node1&#45;&gt;Node3 -->
<g id="edge2_Node000001_Node000003" class="edge">
<title>Node1&#45;&gt;Node3</title>
<g id="a_edge2_Node000001_Node000003"><a xlink:title=" ">
<path fill="none" stroke="#63b8ff" stroke-width="2" d="M270.95,-116.12C258.38,-108.9 246.3,-99.2 239.12,-86.5 228.14,-67.04 238.85,-40.6 246.95,-25.5"/>
<polygon fill="#63b8ff" stroke="#63b8ff" stroke-width="2" points="269.33,-119.22 279.83,-120.68 272.53,-112.99 269.33,-119.22"/>
</a>
</g>
</g>
<!-- Node4 -->
<g id="Node000004" class="node">
<title>Node4</title>
<g id="a_Node000004"><a xlink:href="../../d9/dfe/fidgetSpinner_8hpp.html" target="_top" xlink:title=" ">
<polygon fill="white" stroke="#666666" points="388.38,-86.5 247.88,-86.5 247.88,-61.25 388.38,-61.25 388.38,-86.5"/>
<text text-anchor="middle" x="318.12" y="-69.2" font-family="Helvetica,sans-Serif" font-size="14.00">fidgetSpinner.hpp</text>
</a>
</g>
</g>
<!-- Node1&#45;&gt;Node4 -->
<g id="edge3_Node000001_Node000004" class="edge">
<title>Node1&#45;&gt;Node4</title>
<g id="a_edge3_Node000001_Node000004"><a xlink:title=" ">
<path fill="none" stroke="#63b8ff" stroke-width="2" d="M318.12,-109.16C318.12,-101.43 318.12,-93.27 318.12,-86.85"/>
<polygon fill="#63b8ff" stroke="#63b8ff" stroke-width="2" points="314.63,-109.11 318.13,-119.11 321.63,-109.11 314.63,-109.11"/>
</a>
</g>
</g>
<!-- Node5 -->
<g id="Node000005" class="node">
<title>Node5</title>
<g id="a_Node000005"><a xlink:href="../../d0/d8d/test2_2main_8cpp.html" target="_top" xlink:title=" ">
<polygon fill="white" stroke="#666666" points="439.38,-25.25 358.88,-25.25 358.88,0 439.38,0 439.38,-25.25"/>
<text text-anchor="middle" x="399.12" y="-7.95" font-family="Helvetica,sans-Serif" font-size="14.00">main.cpp</text>
</a>
</g>
</g>
<!-- Node1&#45;&gt;Node5 -->
<g id="edge6_Node000001_Node000005" class="edge">
<title>Node1&#45;&gt;Node5</title>
<g id="a_edge6_Node000001_Node000005"><a xlink:title=" ">
<path fill="none" stroke="#63b8ff" stroke-width="2" d="M364.38,-116.39C377.2,-109.13 389.64,-99.34 397.12,-86.5 408.15,-67.58 405.19,-40.95 402.11,-25.67"/>
<polygon fill="#63b8ff" stroke="#63b8ff" stroke-width="2" points="363.14,-113.1 355.82,-120.76 366.32,-119.33 363.14,-113.1"/>
</a>
</g>
</g>
<!-- Node6 -->
<g id="Node000006" class="node">
<title>Node6</title>
<g id="a_Node000006"><a xlink:href="../../d8/d19/test3_2main_8cpp.html" target="_top" xlink:title=" ">
<polygon fill="white" stroke="#666666" points="524.38,-86.5 443.88,-86.5 443.88,-61.25 524.38,-61.25 524.38,-86.5"/>
<text text-anchor="middle" x="484.12" y="-69.2" font-family="Helvetica,sans-Serif" font-size="14.00">main.cpp</text>
</a>
</g>
</g>
<!-- Node1&#45;&gt;Node6 -->
<g id="edge7_Node000001_Node000006" class="edge">
<title>Node1&#45;&gt;Node6</title>
<g id="a_edge7_Node000001_Node000006"><a xlink:title=" ">
<path fill="none" stroke="#63b8ff" stroke-width="2" d="M363.75,-117.84C391.12,-108.07 425.35,-95.85 450.3,-86.95"/>
<polygon fill="#63b8ff" stroke="#63b8ff" stroke-width="2" points="362.81,-114.46 354.57,-121.12 365.16,-121.05 362.81,-114.46"/>
</a>
</g>
</g>
<!-- Node4&#45;&gt;Node3 -->
<g id="edge4_Node000004_Node000003" class="edge">
<title>Node4&#45;&gt;Node3</title>
<g id="a_edge4_Node000004_Node000003"><a xlink:title=" ">
<path fill="none" stroke="#63b8ff" stroke-width="2" d="M295.79,-52.2C286.18,-43.3 275.29,-33.22 267.06,-25.6"/>
<polygon fill="#63b8ff" stroke="#63b8ff" stroke-width="2" points="293.24,-54.6 302.95,-58.83 297.99,-49.47 293.24,-54.6"/>
</a>
</g>
</g>
<!-- Node4&#45;&gt;Node5 -->
<g id="edge5_Node000004_Node000005" class="edge">
<title>Node4&#45;&gt;Node5</title>
<g id="a_edge5_Node000004_Node000005"><a xlink:title=" ">
<path fill="none" stroke="#63b8ff" stroke-width="2" d="M344.86,-53.32C357.38,-44.16 371.89,-33.54 382.76,-25.6"/>
<polygon fill="#63b8ff" stroke="#63b8ff" stroke-width="2" points="342.96,-50.37 336.96,-59.1 347.1,-56.02 342.96,-50.37"/>
</a>
</g>
</g>
</g>
</svg>
