<?xml version="1.0" encoding="UTF-8" standalone="no"?>
<!DOCTYPE svg PUBLIC "-//W3C//DTD SVG 1.1//EN"
 "http://www.w3.org/Graphics/SVG/1.1/DTD/svg11.dtd">
<!-- Generated by graphviz version 9.0.0 (0)
 -->
<!-- Title: lineSegment.hpp Pages: 1 -->
<svg width="595pt" height="156pt"
 viewBox="0.00 0.00 594.75 155.75" xmlns="http://www.w3.org/2000/svg" xmlns:xlink="http://www.w3.org/1999/xlink">
<g id="graph0" class="graph" transform="scale(1 1) rotate(0) translate(4 151.75)">
<title>lineSegment.hpp</title>
<!-- Node1 -->
<g id="Node000001" class="node">
<title>Node1</title>
<g id="a_Node000001"><a xlink:title=" ">
<polygon fill="#999999" stroke="#666666" points="373.88,-147.75 239.38,-147.75 239.38,-122.5 373.88,-122.5 373.88,-147.75"/>
<text text-anchor="middle" x="306.62" y="-130.45" font-family="Helvetica,sans-Serif" font-size="14.00">lineSegment.hpp</text>
</a>
</g>
</g>
<!-- Node2 -->
<g id="Node000002" class="node">
<title>Node2</title>
<g id="a_Node000002"><a xlink:title=" ">
<polygon fill="#e0e0e0" stroke="#999999" points="189.25,-86.5 0,-86.5 0,-61.25 189.25,-61.25 189.25,-86.5"/>
<text text-anchor="middle" x="94.62" y="-69.2" font-family="Helvetica,sans-Serif" font-size="14.00">SFML/Graphics/Color.hpp</text>
</a>
</g>
</g>
<!-- Node1&#45;&gt;Node2 -->
<g id="edge1_Node000001_Node000002" class="edge">
<title>Node1&#45;&gt;Node2</title>
<g id="a_edge1_Node000001_Node000002"><a xlink:title=" ">
<path fill="none" stroke="#63b8ff" stroke-width="2" d="M263.47,-122.06C230.65,-112.89 185.27,-100.21 149.81,-90.3"/>
<polygon fill="#63b8ff" stroke="#63b8ff" stroke-width="2" points="151.21,-87.06 140.64,-87.73 149.33,-93.8 151.21,-87.06"/>
</a>
</g>
</g>
<!-- Node3 -->
<g id="Node000003" class="node">
<title>Node3</title>
<g id="a_Node000003"><a xlink:title=" ">
<polygon fill="#e0e0e0" stroke="#999999" points="406.12,-86.5 207.12,-86.5 207.12,-61.25 406.12,-61.25 406.12,-86.5"/>
<text text-anchor="middle" x="306.62" y="-69.2" font-family="Helvetica,sans-Serif" font-size="14.00">SFML/Graphics/Vertex.hpp</text>
</a>
</g>
</g>
<!-- Node1&#45;&gt;Node3 -->
<g id="edge2_Node000001_Node000003" class="edge">
<title>Node1&#45;&gt;Node3</title>
<g id="a_edge2_Node000001_Node000003"><a xlink:title=" ">
<path fill="none" stroke="#63b8ff" stroke-width="2" d="M306.62,-122.13C306.62,-115.71 306.62,-107.55 306.62,-99.82"/>
<polygon fill="#63b8ff" stroke="#63b8ff" stroke-width="2" points="310.13,-99.87 306.63,-89.87 303.13,-99.87 310.13,-99.87"/>
</a>
</g>
</g>
<!-- Node4 -->
<g id="Node000004" class="node">
<title>Node4</title>
<g id="a_Node000004"><a xlink:href="../../d9/d03/point2d_8hpp.html" target="_top" xlink:title=" ">
<polygon fill="white" stroke="#666666" points="525,-86.5 424.25,-86.5 424.25,-61.25 525,-61.25 525,-86.5"/>
<text text-anchor="middle" x="474.62" y="-69.2" font-family="Helvetica,sans-Serif" font-size="14.00">point2d.hpp</text>
</a>
</g>
</g>
<!-- Node1&#45;&gt;Node4 -->
<g id="edge3_Node000001_Node000004" class="edge">
<title>Node1&#45;&gt;Node4</title>
<g id="a_edge3_Node000001_Node000004"><a xlink:title=" ">
<path fill="none" stroke="#63b8ff" stroke-width="2" d="M340.62,-122.13C365.82,-113.25 400.44,-101.04 428.19,-91.25"/>
<polygon fill="#63b8ff" stroke="#63b8ff" stroke-width="2" points="429.27,-94.58 437.54,-87.96 426.94,-87.98 429.27,-94.58"/>
</a>
</g>
</g>
<!-- Node5 -->
<g id="Node000005" class="node">
<title>Node5</title>
<g id="a_Node000005"><a xlink:title=" ">
<polygon fill="#e0e0e0" stroke="#999999" points="496.38,-25.25 298.88,-25.25 298.88,0 496.38,0 496.38,-25.25"/>
<text text-anchor="middle" x="397.62" y="-7.95" font-family="Helvetica,sans-Serif" font-size="14.00">SFML/System/Vector2.hpp</text>
</a>
</g>
</g>
<!-- Node4&#45;&gt;Node5 -->
<g id="edge4_Node000004_Node000005" class="edge">
<title>Node4&#45;&gt;Node5</title>
<g id="a_edge4_Node000004_Node000005"><a xlink:title=" ">
<path fill="none" stroke="#63b8ff" stroke-width="2" d="M459.04,-60.88C448.81,-53.01 435.19,-42.53 423.38,-33.44"/>
<polygon fill="#63b8ff" stroke="#63b8ff" stroke-width="2" points="425.64,-30.77 415.58,-27.44 421.37,-36.32 425.64,-30.77"/>
</a>
</g>
</g>
<!-- Node6 -->
<g id="Node000006" class="node">
<title>Node6</title>
<g id="a_Node000006"><a xlink:title=" ">
<polygon fill="#e0e0e0" stroke="#999999" points="586.75,-25.25 514.5,-25.25 514.5,0 586.75,0 586.75,-25.25"/>
<text text-anchor="middle" x="550.62" y="-7.95" font-family="Helvetica,sans-Serif" font-size="14.00">ostream</text>
</a>
</g>
</g>
<!-- Node4&#45;&gt;Node6 -->
<g id="edge5_Node000004_Node000006" class="edge">
<title>Node4&#45;&gt;Node6</title>
<g id="a_edge5_Node000004_Node000006"><a xlink:title=" ">
<path fill="none" stroke="#63b8ff" stroke-width="2" d="M490,-60.88C500.1,-53.01 513.54,-42.53 525.21,-33.44"/>
<polygon fill="#63b8ff" stroke="#63b8ff" stroke-width="2" points="527.15,-36.37 532.88,-27.46 522.84,-30.85 527.15,-36.37"/>
</a>
</g>
</g>
</g>
</svg>
