<?xml version="1.0" encoding="UTF-8" standalone="no"?>
<!DOCTYPE svg PUBLIC "-//W3C//DTD SVG 1.1//EN"
 "http://www.w3.org/Graphics/SVG/1.1/DTD/svg11.dtd">
<!-- Generated by graphviz version 9.0.0 (0)
 -->
<!-- Title: log.cpp Pages: 1 -->
<svg width="172pt" height="156pt"
 viewBox="0.00 0.00 172.12 155.75" xmlns="http://www.w3.org/2000/svg" xmlns:xlink="http://www.w3.org/1999/xlink">
<g id="graph0" class="graph" transform="scale(1 1) rotate(0) translate(4 151.75)">
<title>log.cpp</title>
<!-- Node1 -->
<g id="Node000001" class="node">
<title>Node1</title>
<g id="a_Node000001"><a xlink:title=" ">
<polygon fill="#999999" stroke="#666666" points="114.62,-147.75 47.62,-147.75 47.62,-122.5 114.62,-122.5 114.62,-147.75"/>
<text text-anchor="middle" x="81.12" y="-130.45" font-family="Helvetica,sans-Serif" font-size="14.00">log.cpp</text>
</a>
</g>
</g>
<!-- Node2 -->
<g id="Node000002" class="node">
<title>Node2</title>
<g id="a_Node000002"><a xlink:href="../../d4/d3d/log_8hpp.html" target="_top" xlink:title=" ">
<polygon fill="white" stroke="#666666" points="70.38,-86.5 1.88,-86.5 1.88,-61.25 70.38,-61.25 70.38,-86.5"/>
<text text-anchor="middle" x="36.12" y="-69.2" font-family="Helvetica,sans-Serif" font-size="14.00">log.hpp</text>
</a>
</g>
</g>
<!-- Node1&#45;&gt;Node2 -->
<g id="edge1_Node000001_Node000002" class="edge">
<title>Node1&#45;&gt;Node2</title>
<g id="a_edge1_Node000001_Node000002"><a xlink:title=" ">
<path fill="none" stroke="#63b8ff" stroke-width="2" d="M72.02,-122.13C66.53,-114.91 59.37,-105.48 52.89,-96.94"/>
<polygon fill="#63b8ff" stroke="#63b8ff" stroke-width="2" points="55.88,-95.1 47.05,-89.26 50.31,-99.34 55.88,-95.1"/>
</a>
</g>
</g>
<!-- Node4 -->
<g id="Node000004" class="node">
<title>Node4</title>
<g id="a_Node000004"><a xlink:title=" ">
<polygon fill="#e0e0e0" stroke="#999999" points="164.12,-86.5 88.12,-86.5 88.12,-61.25 164.12,-61.25 164.12,-86.5"/>
<text text-anchor="middle" x="126.12" y="-69.2" font-family="Helvetica,sans-Serif" font-size="14.00">iostream</text>
</a>
</g>
</g>
<!-- Node1&#45;&gt;Node4 -->
<g id="edge3_Node000001_Node000004" class="edge">
<title>Node1&#45;&gt;Node4</title>
<g id="a_edge3_Node000001_Node000004"><a xlink:title=" ">
<path fill="none" stroke="#63b8ff" stroke-width="2" d="M90.23,-122.13C95.72,-114.91 102.88,-105.48 109.36,-96.94"/>
<polygon fill="#63b8ff" stroke="#63b8ff" stroke-width="2" points="111.94,-99.34 115.2,-89.26 106.37,-95.1 111.94,-99.34"/>
</a>
</g>
</g>
<!-- Node3 -->
<g id="Node000003" class="node">
<title>Node3</title>
<g id="a_Node000003"><a xlink:title=" ">
<polygon fill="#e0e0e0" stroke="#999999" points="72.25,-25.25 0,-25.25 0,0 72.25,0 72.25,-25.25"/>
<text text-anchor="middle" x="36.12" y="-7.95" font-family="Helvetica,sans-Serif" font-size="14.00">ostream</text>
</a>
</g>
</g>
<!-- Node2&#45;&gt;Node3 -->
<g id="edge2_Node000002_Node000003" class="edge">
<title>Node2&#45;&gt;Node3</title>
<g id="a_edge2_Node000002_Node000003"><a xlink:title=" ">
<path fill="none" stroke="#63b8ff" stroke-width="2" d="M36.12,-60.88C36.12,-54.46 36.12,-46.3 36.12,-38.57"/>
<polygon fill="#63b8ff" stroke="#63b8ff" stroke-width="2" points="39.63,-38.62 36.13,-28.62 32.63,-38.62 39.63,-38.62"/>
</a>
</g>
</g>
</g>
</svg>
