<?xml version="1.0" encoding="UTF-8" standalone="no"?>
<!DOCTYPE svg PUBLIC "-//W3C//DTD SVG 1.1//EN"
 "http://www.w3.org/Graphics/SVG/1.1/DTD/svg11.dtd">
<!-- Generated by graphviz version 9.0.0 (0)
 -->
<!-- Title: FidgetSpinner::animate Pages: 1 -->
<svg width="604pt" height="76pt"
 viewBox="0.00 0.00 604.25 76.25" xmlns="http://www.w3.org/2000/svg" xmlns:xlink="http://www.w3.org/1999/xlink">
<g id="graph0" class="graph" transform="scale(1 1) rotate(0) translate(4 72.25)">
<title>FidgetSpinner::animate</title>
<!-- Node1 -->
<g id="Node000001" class="node">
<title>Node1</title>
<g id="a_Node000001"><a xlink:title="Animates object.">
<polygon fill="#999999" stroke="#666666" points="176.5,-46.25 0,-46.25 0,-21 176.5,-21 176.5,-46.25"/>
<text text-anchor="middle" x="88.25" y="-28.95" font-family="Helvetica,sans-Serif" font-size="14.00">FidgetSpinner::animate</text>
</a>
</g>
</g>
<!-- Node2 -->
<g id="Node000002" class="node">
<title>Node2</title>
<g id="a_Node000002"><a xlink:href="../../d1/db6/classEngine.html#a4fbdd2df29e30dd08de3c285cee8c128" target="_top" xlink:title="Instance getter.">
<polygon fill="white" stroke="#666666" points="403.25,-68.25 248.5,-68.25 248.5,-43 403.25,-43 403.25,-68.25"/>
<text text-anchor="middle" x="325.88" y="-50.95" font-family="Helvetica,sans-Serif" font-size="14.00">Engine::getInstance</text>
</a>
</g>
</g>
<!-- Node1&#45;&gt;Node2 -->
<g id="edge1_Node000001_Node000002" class="edge">
<title>Node1&#45;&gt;Node2</title>
<g id="a_edge1_Node000001_Node000002"><a xlink:title=" ">
<path fill="none" stroke="#63b8ff" stroke-width="2" d="M176.99,-41.82C196.11,-43.6 216.36,-45.49 235.54,-47.28"/>
<polygon fill="#63b8ff" stroke="#63b8ff" stroke-width="2" points="235,-50.75 245.28,-48.19 235.65,-43.78 235,-50.75"/>
</a>
</g>
</g>
<!-- Node4 -->
<g id="Node000004" class="node">
<title>Node4</title>
<g id="a_Node000004"><a xlink:href="../../d1/db6/classEngine.html#a7882b3a1b96c425ea5692807e0765e9f" target="_top" xlink:title="Last frame duration getter.">
<polygon fill="white" stroke="#666666" points="439.25,-25.25 212.5,-25.25 212.5,0 439.25,0 439.25,-25.25"/>
<text text-anchor="middle" x="325.88" y="-7.95" font-family="Helvetica,sans-Serif" font-size="14.00">Engine::getLastFrameDuration</text>
</a>
</g>
</g>
<!-- Node1&#45;&gt;Node4 -->
<g id="edge3_Node000001_Node000004" class="edge">
<title>Node1&#45;&gt;Node4</title>
<g id="a_edge3_Node000001_Node000004"><a xlink:title=" ">
<path fill="none" stroke="#63b8ff" stroke-width="2" d="M176.99,-25.81C184.36,-25.15 191.91,-24.48 199.5,-23.8"/>
<polygon fill="#63b8ff" stroke="#63b8ff" stroke-width="2" points="199.62,-27.3 209.27,-22.93 199,-20.33 199.62,-27.3"/>
</a>
</g>
</g>
<!-- Node3 -->
<g id="Node000003" class="node">
<title>Node3</title>
<g id="a_Node000003"><a xlink:href="../../d1/db6/classEngine.html#a8c98683b0a3aa28d8ab72a8bcd0d52f2" target="_top" xlink:title="Constructor.">
<polygon fill="white" stroke="#666666" points="596.25,-68.25 475.25,-68.25 475.25,-43 596.25,-43 596.25,-68.25"/>
<text text-anchor="middle" x="535.75" y="-50.95" font-family="Helvetica,sans-Serif" font-size="14.00">Engine::Engine</text>
</a>
</g>
</g>
<!-- Node2&#45;&gt;Node3 -->
<g id="edge2_Node000002_Node000003" class="edge">
<title>Node2&#45;&gt;Node3</title>
<g id="a_edge2_Node000002_Node000003"><a xlink:title=" ">
<path fill="none" stroke="#63b8ff" stroke-width="2" d="M403.69,-55.62C422.77,-55.62 443.15,-55.62 462.03,-55.62"/>
<polygon fill="#63b8ff" stroke="#63b8ff" stroke-width="2" points="461.79,-59.13 471.79,-55.63 461.79,-52.13 461.79,-59.13"/>
</a>
</g>
</g>
</g>
</svg>
