<?xml version="1.0" encoding="UTF-8" standalone="no"?>
<!DOCTYPE svg PUBLIC "-//W3C//DTD SVG 1.1//EN"
 "http://www.w3.org/Graphics/SVG/1.1/DTD/svg11.dtd">
<!-- Generated by graphviz version 9.0.0 (0)
 -->
<!-- Title: FidgetSpinner::addRotationSpeed Pages: 1 -->
<svg width="585pt" height="51pt"
 viewBox="0.00 0.00 584.75 50.50" xmlns="http://www.w3.org/2000/svg" xmlns:xlink="http://www.w3.org/1999/xlink">
<g id="graph0" class="graph" transform="scale(1 1) rotate(0) translate(4 46.5)">
<title>FidgetSpinner::addRotationSpeed</title>
<!-- Node1 -->
<g id="Node000001" class="node">
<title>Node1</title>
<g id="a_Node000001"><a xlink:title=" ">
<polygon fill="#999999" stroke="#666666" points="576.75,-42.5 373.25,-42.5 373.25,0 576.75,0 576.75,-42.5"/>
<text text-anchor="start" x="381.25" y="-25.2" font-family="Helvetica,sans-Serif" font-size="14.00">FidgetSpinner::addRotation</text>
<text text-anchor="middle" x="475" y="-7.95" font-family="Helvetica,sans-Serif" font-size="14.00">Speed</text>
</a>
</g>
</g>
<!-- Node2 -->
<g id="Node000002" class="node">
<title>Node2</title>
<g id="a_Node000002"><a xlink:href="../../d0/d8d/test2_2main_8cpp.html#ad2e081f4b3d74e4dec12de588ca57a6d" target="_top" xlink:title=" ">
<polygon fill="white" stroke="#666666" points="337.25,-33.88 224.5,-33.88 224.5,-8.62 337.25,-8.62 337.25,-33.88"/>
<text text-anchor="middle" x="280.88" y="-16.57" font-family="Helvetica,sans-Serif" font-size="14.00">spinTheFidget</text>
</a>
</g>
</g>
<!-- Node1&#45;&gt;Node2 -->
<g id="edge1_Node000001_Node000002" class="edge">
<title>Node1&#45;&gt;Node2</title>
<g id="a_edge1_Node000001_Node000002"><a xlink:title=" ">
<path fill="none" stroke="#63b8ff" stroke-width="2" d="M359.89,-21.25C352.24,-21.25 344.76,-21.25 337.63,-21.25"/>
<polygon fill="#63b8ff" stroke="#63b8ff" stroke-width="2" points="359.85,-24.75 369.85,-21.25 359.85,-17.75 359.85,-24.75"/>
</a>
</g>
</g>
<!-- Node3 -->
<g id="Node000003" class="node">
<title>Node3</title>
<g id="a_Node000003"><a xlink:href="../../d0/d8d/test2_2main_8cpp.html#a84b9cc49e2afad9f99db3ce1f412ef01" target="_top" xlink:title=" ">
<polygon fill="#fff0f0" stroke="red" points="188.5,-33.88 0,-33.88 0,-8.62 188.5,-8.62 188.5,-33.88"/>
<text text-anchor="middle" x="94.25" y="-16.57" font-family="Helvetica,sans-Serif" font-size="14.00">keyPressedEventHandler</text>
</a>
</g>
</g>
<!-- Node2&#45;&gt;Node3 -->
<g id="edge2_Node000002_Node000003" class="edge">
<title>Node2&#45;&gt;Node3</title>
<g id="a_edge2_Node000002_Node000003"><a xlink:title=" ">
<path fill="none" stroke="#63b8ff" stroke-width="2" d="M211.25,-21.25C203.88,-21.25 196.3,-21.25 188.7,-21.25"/>
<polygon fill="#63b8ff" stroke="#63b8ff" stroke-width="2" points="211.2,-24.75 221.2,-21.25 211.2,-17.75 211.2,-24.75"/>
</a>
</g>
</g>
</g>
</svg>
