<?xml version="1.0" encoding="UTF-8" standalone="no"?>
<!DOCTYPE svg PUBLIC "-//W3C//DTD SVG 1.1//EN"
 "http://www.w3.org/Graphics/SVG/1.1/DTD/svg11.dtd">
<!-- Generated by graphviz version 9.0.0 (0)
 -->
<!-- Title: animatedObject.hpp Pages: 1 -->
<svg width="1646pt" height="217pt"
 viewBox="0.00 0.00 1646.10 217.00" xmlns="http://www.w3.org/2000/svg" xmlns:xlink="http://www.w3.org/1999/xlink">
<g id="graph0" class="graph" transform="scale(1 1) rotate(0) translate(4 213)">
<title>animatedObject.hpp</title>
<!-- Node1 -->
<g id="Node000001" class="node">
<title>Node1</title>
<g id="a_Node000001"><a xlink:title=" ">
<polygon fill="#999999" stroke="#666666" points="1328,-209 1170.25,-209 1170.25,-183.75 1328,-183.75 1328,-209"/>
<text text-anchor="middle" x="1249.12" y="-191.7" font-family="Helvetica,sans-Serif" font-size="14.00">animatedObject.hpp</text>
</a>
</g>
</g>
<!-- Node2 -->
<g id="Node000002" class="node">
<title>Node2</title>
<g id="a_Node000002"><a xlink:href="../../d4/dea/animatedObject_8cpp.html" target="_top" xlink:title=" ">
<polygon fill="white" stroke="#666666" points="156.25,-147.75 0,-147.75 0,-122.5 156.25,-122.5 156.25,-147.75"/>
<text text-anchor="middle" x="78.12" y="-130.45" font-family="Helvetica,sans-Serif" font-size="14.00">animatedObject.cpp</text>
</a>
</g>
</g>
<!-- Node1&#45;&gt;Node2 -->
<g id="edge1_Node000001_Node000002" class="edge">
<title>Node1&#45;&gt;Node2</title>
<g id="a_edge1_Node000001_Node000002"><a xlink:title=" ">
<path fill="none" stroke="#63b8ff" stroke-width="2" d="M1157.32,-194.09C970.29,-190.88 531.79,-180.24 165.12,-147.75 162.24,-147.49 159.31,-147.21 156.34,-146.91"/>
<polygon fill="#63b8ff" stroke="#63b8ff" stroke-width="2" points="1156.99,-197.59 1167.05,-194.26 1157.11,-190.59 1156.99,-197.59"/>
</a>
</g>
</g>
<!-- Node3 -->
<g id="Node000003" class="node">
<title>Node3</title>
<g id="a_Node000003"><a xlink:href="../../d7/db2/animatedSpriteSheet_8hpp.html" target="_top" xlink:title=" ">
<polygon fill="white" stroke="#666666" points="368,-147.75 174.25,-147.75 174.25,-122.5 368,-122.5 368,-147.75"/>
<text text-anchor="middle" x="271.12" y="-130.45" font-family="Helvetica,sans-Serif" font-size="14.00">animatedSpriteSheet.hpp</text>
</a>
</g>
</g>
<!-- Node1&#45;&gt;Node3 -->
<g id="edge2_Node000001_Node000003" class="edge">
<title>Node1&#45;&gt;Node3</title>
<g id="a_edge2_Node000001_Node000003"><a xlink:title=" ">
<path fill="none" stroke="#63b8ff" stroke-width="2" d="M1157.01,-189.79C972.07,-178.59 557.17,-153.45 368.2,-142.01"/>
<polygon fill="#63b8ff" stroke="#63b8ff" stroke-width="2" points="1156.7,-193.28 1166.9,-190.39 1157.13,-186.3 1156.7,-193.28"/>
</a>
</g>
</g>
<!-- Node7 -->
<g id="Node000007" class="node">
<title>Node7</title>
<g id="a_Node000007"><a xlink:href="../../d0/d8d/test2_2main_8cpp.html" target="_top" xlink:title=" ">
<polygon fill="white" stroke="#666666" points="1270.38,-25.25 1189.88,-25.25 1189.88,0 1270.38,0 1270.38,-25.25"/>
<text text-anchor="middle" x="1230.12" y="-7.95" font-family="Helvetica,sans-Serif" font-size="14.00">main.cpp</text>
</a>
</g>
</g>
<!-- Node1&#45;&gt;Node7 -->
<g id="edge32_Node000001_Node000007" class="edge">
<title>Node1&#45;&gt;Node7</title>
<g id="a_edge32_Node000001_Node000007"><a xlink:title=" ">
<path fill="none" stroke="#63b8ff" stroke-width="2" d="M1287.67,-177.6C1335.49,-153.07 1406.95,-106.68 1374.12,-61.25 1350.76,-28.91 1304.62,-18.17 1270.84,-14.79"/>
<polygon fill="#63b8ff" stroke="#63b8ff" stroke-width="2" points="1286.2,-174.42 1278.81,-182.01 1289.32,-180.69 1286.2,-174.42"/>
</a>
</g>
</g>
<!-- Node9 -->
<g id="Node000009" class="node">
<title>Node9</title>
<g id="a_Node000009"><a xlink:href="../../dc/d84/ball_8hpp.html" target="_top" xlink:title=" ">
<polygon fill="white" stroke="#666666" points="1285.25,-147.75 1213,-147.75 1213,-122.5 1285.25,-122.5 1285.25,-147.75"/>
<text text-anchor="middle" x="1249.12" y="-130.45" font-family="Helvetica,sans-Serif" font-size="14.00">ball.hpp</text>
</a>
</g>
</g>
<!-- Node1&#45;&gt;Node9 -->
<g id="edge10_Node000001_Node000009" class="edge">
<title>Node1&#45;&gt;Node9</title>
<g id="a_edge10_Node000001_Node000009"><a xlink:title=" ">
<path fill="none" stroke="#63b8ff" stroke-width="2" d="M1249.12,-170.41C1249.12,-162.68 1249.12,-154.52 1249.12,-148.1"/>
<polygon fill="#63b8ff" stroke="#63b8ff" stroke-width="2" points="1245.63,-170.36 1249.13,-180.36 1252.63,-170.36 1245.63,-170.36"/>
</a>
</g>
</g>
<!-- Node11 -->
<g id="Node000011" class="node">
<title>Node11</title>
<g id="a_Node000011"><a xlink:href="../../d3/d17/bush_8hpp.html" target="_top" xlink:title=" ">
<polygon fill="white" stroke="#666666" points="1195.12,-147.75 1113.12,-147.75 1113.12,-122.5 1195.12,-122.5 1195.12,-147.75"/>
<text text-anchor="middle" x="1154.12" y="-130.45" font-family="Helvetica,sans-Serif" font-size="14.00">bush.hpp</text>
</a>
</g>
</g>
<!-- Node1&#45;&gt;Node11 -->
<g id="edge13_Node000001_Node000011" class="edge">
<title>Node1&#45;&gt;Node11</title>
<g id="a_edge13_Node000001_Node000011"><a xlink:title=" ">
<path fill="none" stroke="#63b8ff" stroke-width="2" d="M1219.09,-176.64C1204.12,-167.3 1186.45,-156.28 1173.32,-148.1"/>
<polygon fill="#63b8ff" stroke="#63b8ff" stroke-width="2" points="1216.99,-179.46 1227.33,-181.78 1220.7,-173.52 1216.99,-179.46"/>
</a>
</g>
</g>
<!-- Node13 -->
<g id="Node000013" class="node">
<title>Node13</title>
<g id="a_Node000013"><a xlink:href="../../de/d46/engine_8hpp.html" target="_top" xlink:title=" ">
<polygon fill="white" stroke="#666666" points="792.5,-147.75 697.75,-147.75 697.75,-122.5 792.5,-122.5 792.5,-147.75"/>
<text text-anchor="middle" x="745.12" y="-130.45" font-family="Helvetica,sans-Serif" font-size="14.00">engine.hpp</text>
</a>
</g>
</g>
<!-- Node1&#45;&gt;Node13 -->
<g id="edge16_Node000001_Node000013" class="edge">
<title>Node1&#45;&gt;Node13</title>
<g id="a_edge16_Node000001_Node000013"><a xlink:title=" ">
<path fill="none" stroke="#63b8ff" stroke-width="2" d="M1157.06,-184.55C1049.68,-171.93 876.25,-151.54 792.88,-141.74"/>
<polygon fill="#63b8ff" stroke="#63b8ff" stroke-width="2" points="1156.47,-188.01 1166.81,-185.7 1157.29,-181.05 1156.47,-188.01"/>
</a>
</g>
</g>
<!-- Node15 -->
<g id="Node000015" class="node">
<title>Node15</title>
<g id="a_Node000015"><a xlink:href="../../d1/d52/gamePlayer_8cpp.html" target="_top" xlink:title=" ">
<polygon fill="white" stroke="#666666" points="1578.25,-25.25 1452,-25.25 1452,0 1578.25,0 1578.25,-25.25"/>
<text text-anchor="middle" x="1515.12" y="-7.95" font-family="Helvetica,sans-Serif" font-size="14.00">gamePlayer.cpp</text>
</a>
</g>
</g>
<!-- Node1&#45;&gt;Node15 -->
<g id="edge28_Node000001_Node000015" class="edge">
<title>Node1&#45;&gt;Node15</title>
<g id="a_edge28_Node000001_Node000015"><a xlink:title=" ">
<path fill="none" stroke="#63b8ff" stroke-width="2" d="M1341.17,-191.04C1401.05,-185.72 1479.86,-173.91 1545.12,-147.75 1589.7,-129.89 1611.78,-129 1634.12,-86.5 1650.3,-55.73 1610.95,-36.56 1573.24,-25.65"/>
<polygon fill="#63b8ff" stroke="#63b8ff" stroke-width="2" points="1340.99,-187.54 1331.32,-191.86 1341.57,-194.52 1340.99,-187.54"/>
</a>
</g>
</g>
<!-- Node19 -->
<g id="Node000019" class="node">
<title>Node19</title>
<g id="a_Node000019"><a xlink:href="../../d7/d9b/gamePlayer_8hpp.html" target="_top" xlink:title=" ">
<polygon fill="white" stroke="#666666" points="1625,-86.5 1497.25,-86.5 1497.25,-61.25 1625,-61.25 1625,-86.5"/>
<text text-anchor="middle" x="1561.12" y="-69.2" font-family="Helvetica,sans-Serif" font-size="14.00">gamePlayer.hpp</text>
</a>
</g>
</g>
<!-- Node1&#45;&gt;Node19 -->
<g id="edge29_Node000001_Node000019" class="edge">
<title>Node1&#45;&gt;Node19</title>
<g id="a_edge29_Node000001_Node000019"><a xlink:title=" ">
<path fill="none" stroke="#63b8ff" stroke-width="2" d="M1341,-187.66C1407.97,-180.49 1491.74,-167.85 1520.12,-147.75 1541.21,-132.82 1552.8,-103.42 1557.9,-86.89"/>
<polygon fill="#63b8ff" stroke="#63b8ff" stroke-width="2" points="1340.88,-184.15 1331.29,-188.66 1341.6,-191.11 1340.88,-184.15"/>
</a>
</g>
</g>
<!-- Node20 -->
<g id="Node000020" class="node">
<title>Node20</title>
<g id="a_Node000020"><a xlink:href="../../d9/d85/player_8hpp.html" target="_top" xlink:title=" ">
<polygon fill="white" stroke="#666666" points="1510.88,-147.75 1421.38,-147.75 1421.38,-122.5 1510.88,-122.5 1510.88,-147.75"/>
<text text-anchor="middle" x="1466.12" y="-130.45" font-family="Helvetica,sans-Serif" font-size="14.00">player.hpp</text>
</a>
</g>
</g>
<!-- Node1&#45;&gt;Node20 -->
<g id="edge33_Node000001_Node000020" class="edge">
<title>Node1&#45;&gt;Node20</title>
<g id="a_edge33_Node000001_Node000020"><a xlink:title=" ">
<path fill="none" stroke="#63b8ff" stroke-width="2" d="M1305.68,-179.93C1341.98,-170.02 1388.44,-157.34 1422.01,-148.17"/>
<polygon fill="#63b8ff" stroke="#63b8ff" stroke-width="2" points="1304.94,-176.51 1296.22,-182.52 1306.79,-183.26 1304.94,-176.51"/>
</a>
</g>
</g>
<!-- Node4 -->
<g id="Node000004" class="node">
<title>Node4</title>
<g id="a_Node000004"><a xlink:href="../../df/db1/animatedSpriteSheet_8cpp.html" target="_top" xlink:title=" ">
<polygon fill="white" stroke="#666666" points="521.25,-86.5 329,-86.5 329,-61.25 521.25,-61.25 521.25,-86.5"/>
<text text-anchor="middle" x="425.12" y="-69.2" font-family="Helvetica,sans-Serif" font-size="14.00">animatedSpriteSheet.cpp</text>
</a>
</g>
</g>
<!-- Node3&#45;&gt;Node4 -->
<g id="edge3_Node000003_Node000004" class="edge">
<title>Node3&#45;&gt;Node4</title>
<g id="a_edge3_Node000003_Node000004"><a xlink:title=" ">
<path fill="none" stroke="#63b8ff" stroke-width="2" d="M314.14,-117.57C339.42,-107.85 370.8,-95.77 393.74,-86.95"/>
<polygon fill="#63b8ff" stroke="#63b8ff" stroke-width="2" points="313.19,-114.19 305.11,-121.05 315.7,-120.72 313.19,-114.19"/>
</a>
</g>
</g>
<!-- Node5 -->
<g id="Node000005" class="node">
<title>Node5</title>
<g id="a_Node000005"><a xlink:href="../../d1/df9/fidgetSpinner_8cpp.html" target="_top" xlink:title=" ">
<polygon fill="white" stroke="#666666" points="174.62,-25.25 35.62,-25.25 35.62,0 174.62,0 174.62,-25.25"/>
<text text-anchor="middle" x="105.12" y="-7.95" font-family="Helvetica,sans-Serif" font-size="14.00">fidgetSpinner.cpp</text>
</a>
</g>
</g>
<!-- Node3&#45;&gt;Node5 -->
<g id="edge4_Node000003_Node000005" class="edge">
<title>Node3&#45;&gt;Node5</title>
<g id="a_edge4_Node000003_Node000005"><a xlink:title=" ">
<path fill="none" stroke="#63b8ff" stroke-width="2" d="M166.76,-120.11C104.42,-110.67 35.52,-97.9 26.12,-86.5 6.54,-62.74 45.02,-39.34 74.85,-25.7"/>
<polygon fill="#63b8ff" stroke="#63b8ff" stroke-width="2" points="166.13,-123.55 176.54,-121.57 167.16,-116.63 166.13,-123.55"/>
</a>
</g>
</g>
<!-- Node6 -->
<g id="Node000006" class="node">
<title>Node6</title>
<g id="a_Node000006"><a xlink:href="../../d9/dfe/fidgetSpinner_8hpp.html" target="_top" xlink:title=" ">
<polygon fill="white" stroke="#666666" points="175.38,-86.5 34.88,-86.5 34.88,-61.25 175.38,-61.25 175.38,-86.5"/>
<text text-anchor="middle" x="105.12" y="-69.2" font-family="Helvetica,sans-Serif" font-size="14.00">fidgetSpinner.hpp</text>
</a>
</g>
</g>
<!-- Node3&#45;&gt;Node6 -->
<g id="edge5_Node000003_Node000006" class="edge">
<title>Node3&#45;&gt;Node6</title>
<g id="a_edge5_Node000003_Node000006"><a xlink:title=" ">
<path fill="none" stroke="#63b8ff" stroke-width="2" d="M225.5,-117.84C198.13,-108.07 163.9,-95.85 138.95,-86.95"/>
<polygon fill="#63b8ff" stroke="#63b8ff" stroke-width="2" points="224.09,-121.05 234.68,-121.12 226.44,-114.46 224.09,-121.05"/>
</a>
</g>
</g>
<!-- Node3&#45;&gt;Node7 -->
<g id="edge8_Node000003_Node000007" class="edge">
<title>Node3&#45;&gt;Node7</title>
<g id="a_edge8_Node000003_Node000007"><a xlink:title=" ">
<path fill="none" stroke="#63b8ff" stroke-width="2" d="M243.24,-114.23C224.85,-98.79 206.76,-77.35 222.12,-61.25 256.06,-25.67 1005.68,-15.87 1189.64,-13.99"/>
<polygon fill="#63b8ff" stroke="#63b8ff" stroke-width="2" points="240.87,-116.82 250.89,-120.26 245.2,-111.32 240.87,-116.82"/>
</a>
</g>
</g>
<!-- Node8 -->
<g id="Node000008" class="node">
<title>Node8</title>
<g id="a_Node000008"><a xlink:href="../../d8/d19/test3_2main_8cpp.html" target="_top" xlink:title=" ">
<polygon fill="white" stroke="#666666" points="311.38,-86.5 230.88,-86.5 230.88,-61.25 311.38,-61.25 311.38,-86.5"/>
<text text-anchor="middle" x="271.12" y="-69.2" font-family="Helvetica,sans-Serif" font-size="14.00">main.cpp</text>
</a>
</g>
</g>
<!-- Node3&#45;&gt;Node8 -->
<g id="edge9_Node000003_Node000008" class="edge">
<title>Node3&#45;&gt;Node8</title>
<g id="a_edge9_Node000003_Node000008"><a xlink:title=" ">
<path fill="none" stroke="#63b8ff" stroke-width="2" d="M271.12,-109.16C271.12,-101.43 271.12,-93.27 271.12,-86.85"/>
<polygon fill="#63b8ff" stroke="#63b8ff" stroke-width="2" points="267.63,-109.11 271.13,-119.11 274.63,-109.11 267.63,-109.11"/>
</a>
</g>
</g>
<!-- Node6&#45;&gt;Node5 -->
<g id="edge6_Node000006_Node000005" class="edge">
<title>Node6&#45;&gt;Node5</title>
<g id="a_edge6_Node000006_Node000005"><a xlink:title=" ">
<path fill="none" stroke="#63b8ff" stroke-width="2" d="M105.12,-47.91C105.12,-40.18 105.12,-32.02 105.12,-25.6"/>
<polygon fill="#63b8ff" stroke="#63b8ff" stroke-width="2" points="101.63,-47.86 105.13,-57.86 108.63,-47.86 101.63,-47.86"/>
</a>
</g>
</g>
<!-- Node6&#45;&gt;Node7 -->
<g id="edge7_Node000006_Node000007" class="edge">
<title>Node6&#45;&gt;Node7</title>
<g id="a_edge7_Node000006_Node000007"><a xlink:title=" ">
<path fill="none" stroke="#63b8ff" stroke-width="2" d="M188.3,-61.33C188.57,-61.3 188.85,-61.28 189.12,-61.25 577.82,-25.54 1050.74,-16.19 1189.84,-14.14"/>
<polygon fill="#63b8ff" stroke="#63b8ff" stroke-width="2" points="188.25,-57.81 178.66,-62.32 188.97,-64.78 188.25,-57.81"/>
</a>
</g>
</g>
<!-- Node9&#45;&gt;Node7 -->
<g id="edge12_Node000009_Node000007" class="edge">
<title>Node9&#45;&gt;Node7</title>
<g id="a_edge12_Node000009_Node000007"><a xlink:title=" ">
<path fill="none" stroke="#63b8ff" stroke-width="2" d="M1245.24,-109.51C1241.21,-83.95 1235.08,-45.03 1232.01,-25.57"/>
<polygon fill="#63b8ff" stroke="#63b8ff" stroke-width="2" points="1241.75,-109.81 1246.76,-119.14 1248.66,-108.72 1241.75,-109.81"/>
</a>
</g>
</g>
<!-- Node10 -->
<g id="Node000010" class="node">
<title>Node10</title>
<g id="a_Node000010"><a xlink:href="../../d5/d25/ball_8cpp.html" target="_top" xlink:title=" ">
<polygon fill="white" stroke="#666666" points="1183.5,-86.5 1112.75,-86.5 1112.75,-61.25 1183.5,-61.25 1183.5,-86.5"/>
<text text-anchor="middle" x="1148.12" y="-69.2" font-family="Helvetica,sans-Serif" font-size="14.00">ball.cpp</text>
</a>
</g>
</g>
<!-- Node9&#45;&gt;Node10 -->
<g id="edge11_Node000009_Node000010" class="edge">
<title>Node9&#45;&gt;Node10</title>
<g id="a_edge11_Node000009_Node000010"><a xlink:title=" ">
<path fill="none" stroke="#63b8ff" stroke-width="2" d="M1217.66,-115.67C1201.64,-106.27 1182.63,-95.12 1168.53,-86.85"/>
<polygon fill="#63b8ff" stroke="#63b8ff" stroke-width="2" points="1215.68,-118.56 1226.08,-120.6 1219.22,-112.52 1215.68,-118.56"/>
</a>
</g>
</g>
<!-- Node11&#45;&gt;Node7 -->
<g id="edge15_Node000011_Node000007" class="edge">
<title>Node11&#45;&gt;Node7</title>
<g id="a_edge15_Node000011_Node000007"><a xlink:title=" ">
<path fill="none" stroke="#63b8ff" stroke-width="2" d="M1173.03,-112.26C1179.43,-104.39 1186.41,-95.28 1192.12,-86.5 1205.44,-66.05 1217.92,-40.41 1224.74,-25.63"/>
<polygon fill="#63b8ff" stroke="#63b8ff" stroke-width="2" points="1170.48,-109.85 1166.75,-119.76 1175.85,-114.34 1170.48,-109.85"/>
</a>
</g>
</g>
<!-- Node12 -->
<g id="Node000012" class="node">
<title>Node12</title>
<g id="a_Node000012"><a xlink:href="../../d4/d23/bush_8cpp.html" target="_top" xlink:title=" ">
<polygon fill="white" stroke="#666666" points="1094.38,-86.5 1013.88,-86.5 1013.88,-61.25 1094.38,-61.25 1094.38,-86.5"/>
<text text-anchor="middle" x="1054.12" y="-69.2" font-family="Helvetica,sans-Serif" font-size="14.00">bush.cpp</text>
</a>
</g>
</g>
<!-- Node11&#45;&gt;Node12 -->
<g id="edge14_Node000011_Node000012" class="edge">
<title>Node11&#45;&gt;Node12</title>
<g id="a_edge14_Node000011_Node000012"><a xlink:title=" ">
<path fill="none" stroke="#63b8ff" stroke-width="2" d="M1122.97,-115.67C1107.11,-106.27 1088.29,-95.12 1074.33,-86.85"/>
<polygon fill="#63b8ff" stroke="#63b8ff" stroke-width="2" points="1120.9,-118.51 1131.28,-120.59 1124.47,-112.48 1120.9,-118.51"/>
</a>
</g>
</g>
<!-- Node13&#45;&gt;Node4 -->
<g id="edge17_Node000013_Node000004" class="edge">
<title>Node13&#45;&gt;Node4</title>
<g id="a_edge17_Node000013_Node000004"><a xlink:title=" ">
<path fill="none" stroke="#63b8ff" stroke-width="2" d="M684.77,-122.95C629.33,-112.69 547.39,-97.51 490.44,-86.97"/>
<polygon fill="#63b8ff" stroke="#63b8ff" stroke-width="2" points="684.12,-126.39 694.59,-124.77 685.39,-119.51 684.12,-126.39"/>
</a>
</g>
</g>
<!-- Node13&#45;&gt;Node5 -->
<g id="edge21_Node000013_Node000005" class="edge">
<title>Node13&#45;&gt;Node5</title>
<g id="a_edge21_Node000013_Node000005"><a xlink:title=" ">
<path fill="none" stroke="#63b8ff" stroke-width="2" d="M695.17,-118.11C667.16,-109.03 631.63,-97.35 600.12,-86.5 568.86,-75.73 562.34,-68.75 530.12,-61.25 407.02,-32.57 259.68,-20.97 174.8,-16.42"/>
<polygon fill="#63b8ff" stroke="#63b8ff" stroke-width="2" points="694,-121.41 704.59,-121.16 696.15,-114.75 694,-121.41"/>
</a>
</g>
</g>
<!-- Node13&#45;&gt;Node7 -->
<g id="edge25_Node000013_Node000007" class="edge">
<title>Node13&#45;&gt;Node7</title>
<g id="a_edge25_Node000013_Node000007"><a xlink:title=" ">
<path fill="none" stroke="#63b8ff" stroke-width="2" d="M684.84,-122.83C637.37,-111.4 583.46,-91.13 611.12,-61.25 650.4,-18.84 1058.43,-14.06 1189.69,-13.63"/>
<polygon fill="#63b8ff" stroke="#63b8ff" stroke-width="2" points="683.87,-126.2 694.4,-125.01 685.43,-119.38 683.87,-126.2"/>
</a>
</g>
</g>
<!-- Node13&#45;&gt;Node8 -->
<g id="edge26_Node000013_Node000008" class="edge">
<title>Node13&#45;&gt;Node8</title>
<g id="a_edge26_Node000013_Node000008"><a xlink:title=" ">
<path fill="none" stroke="#63b8ff" stroke-width="2" d="M684.46,-129.66C601.7,-123.03 448.96,-108.92 320.12,-86.5 317.37,-86.02 314.54,-85.48 311.69,-84.9"/>
<polygon fill="#63b8ff" stroke="#63b8ff" stroke-width="2" points="684.11,-133.14 694.36,-130.44 684.66,-126.16 684.11,-133.14"/>
</a>
</g>
</g>
<!-- Node13&#45;&gt;Node10 -->
<g id="edge18_Node000013_Node000010" class="edge">
<title>Node13&#45;&gt;Node10</title>
<g id="a_edge18_Node000013_Node000010"><a xlink:title=" ">
<path fill="none" stroke="#63b8ff" stroke-width="2" d="M805.65,-128.32C877.12,-120.95 999.42,-106.72 1103.12,-86.5 1106.13,-85.91 1109.24,-85.24 1112.35,-84.53"/>
<polygon fill="#63b8ff" stroke="#63b8ff" stroke-width="2" points="805.51,-124.82 795.92,-129.31 806.22,-131.78 805.51,-124.82"/>
</a>
</g>
</g>
<!-- Node13&#45;&gt;Node12 -->
<g id="edge19_Node000013_Node000012" class="edge">
<title>Node13&#45;&gt;Node12</title>
<g id="a_edge19_Node000013_Node000012"><a xlink:title=" ">
<path fill="none" stroke="#63b8ff" stroke-width="2" d="M805.79,-123.79C858.38,-114.64 936.45,-100.58 1004.12,-86.5 1007.18,-85.86 1010.33,-85.19 1013.5,-84.49"/>
<polygon fill="#63b8ff" stroke="#63b8ff" stroke-width="2" points="805.23,-120.34 795.97,-125.49 806.42,-127.24 805.23,-120.34"/>
</a>
</g>
</g>
<!-- Node14 -->
<g id="Node000014" class="node">
<title>Node14</title>
<g id="a_Node000014"><a xlink:href="../../da/d5c/engine_8cpp.html" target="_top" xlink:title=" ">
<polygon fill="white" stroke="#666666" points="844.75,-86.5 751.5,-86.5 751.5,-61.25 844.75,-61.25 844.75,-86.5"/>
<text text-anchor="middle" x="798.12" y="-69.2" font-family="Helvetica,sans-Serif" font-size="14.00">engine.cpp</text>
</a>
</g>
</g>
<!-- Node13&#45;&gt;Node14 -->
<g id="edge20_Node000013_Node000014" class="edge">
<title>Node13&#45;&gt;Node14</title>
<g id="a_edge20_Node000013_Node000014"><a xlink:title=" ">
<path fill="none" stroke="#63b8ff" stroke-width="2" d="M764.38,-112.6C772.14,-103.92 780.81,-94.23 787.42,-86.85"/>
<polygon fill="#63b8ff" stroke="#63b8ff" stroke-width="2" points="761.93,-110.09 757.87,-119.88 767.14,-114.76 761.93,-110.09"/>
</a>
</g>
</g>
<!-- Node13&#45;&gt;Node15 -->
<g id="edge22_Node000013_Node000015" class="edge">
<title>Node13&#45;&gt;Node15</title>
<g id="a_edge22_Node000013_Node000015"><a xlink:title=" ">
<path fill="none" stroke="#63b8ff" stroke-width="2" d="M692.09,-117.6C657.58,-104.22 622.65,-83.93 644.12,-61.25 647.6,-57.58 1251.79,-26.87 1451.72,-16.81"/>
<polygon fill="#63b8ff" stroke="#63b8ff" stroke-width="2" points="690.75,-120.83 701.34,-120.99 693.16,-114.26 690.75,-120.83"/>
</a>
</g>
</g>
<!-- Node16 -->
<g id="Node000016" class="node">
<title>Node16</title>
<g id="a_Node000016"><a xlink:href="../../d2/df9/lineSegment_8cpp.html" target="_top" xlink:title=" ">
<polygon fill="white" stroke="#666666" points="995.62,-86.5 862.62,-86.5 862.62,-61.25 995.62,-61.25 995.62,-86.5"/>
<text text-anchor="middle" x="929.12" y="-69.2" font-family="Helvetica,sans-Serif" font-size="14.00">lineSegment.cpp</text>
</a>
</g>
</g>
<!-- Node13&#45;&gt;Node16 -->
<g id="edge23_Node000013_Node000016" class="edge">
<title>Node13&#45;&gt;Node16</title>
<g id="a_edge23_Node000013_Node000016"><a xlink:title=" ">
<path fill="none" stroke="#63b8ff" stroke-width="2" d="M794.47,-118.23C825.01,-108.4 863.6,-95.98 891.63,-86.95"/>
<polygon fill="#63b8ff" stroke="#63b8ff" stroke-width="2" points="793.69,-114.81 785.24,-121.21 795.83,-121.47 793.69,-114.81"/>
</a>
</g>
</g>
<!-- Node17 -->
<g id="Node000017" class="node">
<title>Node17</title>
<g id="a_Node000017"><a xlink:href="../../d4/d15/test_2main_8cpp.html" target="_top" xlink:title=" ">
<polygon fill="white" stroke="#666666" points="733.38,-86.5 652.88,-86.5 652.88,-61.25 733.38,-61.25 733.38,-86.5"/>
<text text-anchor="middle" x="693.12" y="-69.2" font-family="Helvetica,sans-Serif" font-size="14.00">main.cpp</text>
</a>
</g>
</g>
<!-- Node13&#45;&gt;Node17 -->
<g id="edge24_Node000013_Node000017" class="edge">
<title>Node13&#45;&gt;Node17</title>
<g id="a_edge24_Node000013_Node000017"><a xlink:title=" ">
<path fill="none" stroke="#63b8ff" stroke-width="2" d="M726.24,-112.6C718.62,-103.92 710.11,-94.23 703.63,-86.85"/>
<polygon fill="#63b8ff" stroke="#63b8ff" stroke-width="2" points="723.38,-114.65 732.61,-119.86 728.64,-110.04 723.38,-114.65"/>
</a>
</g>
</g>
<!-- Node18 -->
<g id="Node000018" class="node">
<title>Node18</title>
<g id="a_Node000018"><a xlink:href="../../db/d80/player_8cpp.html" target="_top" xlink:title=" ">
<polygon fill="white" stroke="#666666" points="1365.12,-86.5 1277.12,-86.5 1277.12,-61.25 1365.12,-61.25 1365.12,-86.5"/>
<text text-anchor="middle" x="1321.12" y="-69.2" font-family="Helvetica,sans-Serif" font-size="14.00">player.cpp</text>
</a>
</g>
</g>
<!-- Node13&#45;&gt;Node18 -->
<g id="edge27_Node000013_Node000018" class="edge">
<title>Node13&#45;&gt;Node18</title>
<g id="a_edge27_Node000013_Node000018"><a xlink:title=" ">
<path fill="none" stroke="#63b8ff" stroke-width="2" d="M805.57,-127.91C921.86,-115.95 1174.25,-89.98 1276.63,-79.45"/>
<polygon fill="#63b8ff" stroke="#63b8ff" stroke-width="2" points="805.35,-124.41 795.76,-128.92 806.07,-131.37 805.35,-124.41"/>
</a>
</g>
</g>
<!-- Node19&#45;&gt;Node7 -->
<g id="edge31_Node000019_Node000007" class="edge">
<title>Node19&#45;&gt;Node7</title>
<g id="a_edge31_Node000019_Node000007"><a xlink:title=" ">
<path fill="none" stroke="#63b8ff" stroke-width="2" d="M1484.38,-59.14C1417.7,-47.2 1323.73,-30.38 1270.69,-20.89"/>
<polygon fill="#63b8ff" stroke="#63b8ff" stroke-width="2" points="1483.47,-62.53 1493.93,-60.85 1484.71,-55.64 1483.47,-62.53"/>
</a>
</g>
</g>
<!-- Node19&#45;&gt;Node15 -->
<g id="edge30_Node000019_Node000015" class="edge">
<title>Node19&#45;&gt;Node15</title>
<g id="a_edge30_Node000019_Node000015"><a xlink:title=" ">
<path fill="none" stroke="#63b8ff" stroke-width="2" d="M1543.98,-50.79C1537.35,-42.25 1530.03,-32.82 1524.42,-25.6"/>
<polygon fill="#63b8ff" stroke="#63b8ff" stroke-width="2" points="1541.06,-52.74 1549.96,-58.49 1546.59,-48.45 1541.06,-52.74"/>
</a>
</g>
</g>
<!-- Node20&#45;&gt;Node7 -->
<g id="edge36_Node000020_Node000007" class="edge">
<title>Node20&#45;&gt;Node7</title>
<g id="a_edge36_Node000020_Node000007"><a xlink:title=" ">
<path fill="none" stroke="#63b8ff" stroke-width="2" d="M1453.07,-111.29C1442.63,-95.02 1426.56,-73.89 1407.12,-61.25 1365.37,-34.1 1308.52,-22.35 1270.63,-17.31"/>
<polygon fill="#63b8ff" stroke="#63b8ff" stroke-width="2" points="1449.87,-112.77 1458.06,-119.49 1455.85,-109.13 1449.87,-112.77"/>
</a>
</g>
</g>
<!-- Node20&#45;&gt;Node15 -->
<g id="edge34_Node000020_Node000015" class="edge">
<title>Node20&#45;&gt;Node15</title>
<g id="a_edge34_Node000020_Node000015"><a xlink:title=" ">
<path fill="none" stroke="#63b8ff" stroke-width="2" d="M1471.99,-109.88C1475.83,-95.47 1481.39,-76.99 1488.12,-61.25 1493.59,-48.49 1501.6,-34.8 1507.48,-25.38"/>
<polygon fill="#63b8ff" stroke="#63b8ff" stroke-width="2" points="1468.67,-108.74 1469.6,-119.3 1475.45,-110.47 1468.67,-108.74"/>
</a>
</g>
</g>
<!-- Node20&#45;&gt;Node18 -->
<g id="edge37_Node000020_Node000018" class="edge">
<title>Node20&#45;&gt;Node18</title>
<g id="a_edge37_Node000020_Node000018"><a xlink:title=" ">
<path fill="none" stroke="#63b8ff" stroke-width="2" d="M1424.97,-117.31C1401.29,-107.63 1372.07,-95.69 1350.67,-86.95"/>
<polygon fill="#63b8ff" stroke="#63b8ff" stroke-width="2" points="1423.4,-120.45 1433.98,-120.99 1426.05,-113.97 1423.4,-120.45"/>
</a>
</g>
</g>
<!-- Node20&#45;&gt;Node19 -->
<g id="edge35_Node000020_Node000019" class="edge">
<title>Node20&#45;&gt;Node19</title>
<g id="a_edge35_Node000020_Node000019"><a xlink:title=" ">
<path fill="none" stroke="#63b8ff" stroke-width="2" d="M1496.16,-115.39C1511.13,-106.05 1528.8,-95.03 1541.93,-86.85"/>
<polygon fill="#63b8ff" stroke="#63b8ff" stroke-width="2" points="1494.55,-112.27 1487.92,-120.53 1498.26,-118.21 1494.55,-112.27"/>
</a>
</g>
</g>
</g>
</svg>
