<?xml version="1.0" encoding="UTF-8" standalone="no"?>
<!DOCTYPE svg PUBLIC "-//W3C//DTD SVG 1.1//EN"
 "http://www.w3.org/Graphics/SVG/1.1/DTD/svg11.dtd">
<!-- Generated by graphviz version 9.0.0 (0)
 -->
<!-- Title: Bush Pages: 1 -->
<svg width="311pt" height="156pt"
 viewBox="0.00 0.00 311.38 155.75" xmlns="http://www.w3.org/2000/svg" xmlns:xlink="http://www.w3.org/1999/xlink">
<g id="graph0" class="graph" transform="scale(1 1) rotate(0) translate(4 151.75)">
<title>Bush</title>
<!-- Node1 -->
<g id="Node000001" class="node">
<title>Node1</title>
<g id="a_Node000001"><a xlink:title=" ">
<polygon fill="#999999" stroke="#666666" points="184.38,-25.25 133.12,-25.25 133.12,0 184.38,0 184.38,-25.25"/>
<text text-anchor="middle" x="158.75" y="-7.95" font-family="Helvetica,sans-Serif" font-size="14.00">Bush</text>
</a>
</g>
</g>
<!-- Node2 -->
<g id="Node000002" class="node">
<title>Node2</title>
<g id="a_Node000002"><a xlink:href="../../d7/d98/classAnimatedObject.html" target="_top" xlink:title="Animated object class.">
<polygon fill="white" stroke="#666666" points="222.62,-86.5 94.88,-86.5 94.88,-61.25 222.62,-61.25 222.62,-86.5"/>
<text text-anchor="middle" x="158.75" y="-69.2" font-family="Helvetica,sans-Serif" font-size="14.00">AnimatedObject</text>
</a>
</g>
</g>
<!-- Node2&#45;&gt;Node1 -->
<g id="edge1_Node000001_Node000002" class="edge">
<title>Node2&#45;&gt;Node1</title>
<g id="a_edge1_Node000001_Node000002"><a xlink:title=" ">
<path fill="none" stroke="#63b8ff" stroke-width="2" d="M158.75,-47.91C158.75,-40.18 158.75,-32.02 158.75,-25.6"/>
<polygon fill="#63b8ff" stroke="#63b8ff" stroke-width="2" points="155.25,-47.86 158.75,-57.86 162.25,-47.86 155.25,-47.86"/>
</a>
</g>
</g>
<!-- Node3 -->
<g id="Node000003" class="node">
<title>Node3</title>
<g id="a_Node000003"><a xlink:href="../../de/d1c/classGameObject.html" target="_top" xlink:title="Game object class.">
<polygon fill="white" stroke="#666666" points="101.5,-147.75 0,-147.75 0,-122.5 101.5,-122.5 101.5,-147.75"/>
<text text-anchor="middle" x="50.75" y="-130.45" font-family="Helvetica,sans-Serif" font-size="14.00">GameObject</text>
</a>
</g>
</g>
<!-- Node3&#45;&gt;Node2 -->
<g id="edge2_Node000002_Node000003" class="edge">
<title>Node3&#45;&gt;Node2</title>
<g id="a_edge2_Node000002_Node000003"><a xlink:title=" ">
<path fill="none" stroke="#63b8ff" stroke-width="2" d="M83.89,-115.94C101.13,-106.49 121.71,-95.2 136.93,-86.85"/>
<polygon fill="#63b8ff" stroke="#63b8ff" stroke-width="2" points="82.34,-112.8 75.26,-120.68 85.71,-118.94 82.34,-112.8"/>
</a>
</g>
</g>
<!-- Node4 -->
<g id="Node000004" class="node">
<title>Node4</title>
<g id="a_Node000004"><a xlink:title=" ">
<polygon fill="white" stroke="#666666" points="197.88,-147.75 119.62,-147.75 119.62,-122.5 197.88,-122.5 197.88,-147.75"/>
<text text-anchor="middle" x="158.75" y="-130.45" font-family="Helvetica,sans-Serif" font-size="14.00">sf::Sprite</text>
</a>
</g>
</g>
<!-- Node4&#45;&gt;Node2 -->
<g id="edge3_Node000002_Node000004" class="edge">
<title>Node4&#45;&gt;Node2</title>
<g id="a_edge3_Node000002_Node000004"><a xlink:title=" ">
<path fill="none" stroke="#63b8ff" stroke-width="2" d="M158.75,-109.16C158.75,-101.43 158.75,-93.27 158.75,-86.85"/>
<polygon fill="#63b8ff" stroke="#63b8ff" stroke-width="2" points="155.25,-109.11 158.75,-119.11 162.25,-109.11 155.25,-109.11"/>
</a>
</g>
</g>
<!-- Node5 -->
<g id="Node000005" class="node">
<title>Node5</title>
<g id="a_Node000005"><a xlink:title=" ">
<polygon fill="white" stroke="#666666" points="303.38,-147.75 216.12,-147.75 216.12,-122.5 303.38,-122.5 303.38,-147.75"/>
<text text-anchor="middle" x="259.75" y="-130.45" font-family="Helvetica,sans-Serif" font-size="14.00">sf::Texture</text>
</a>
</g>
</g>
<!-- Node5&#45;&gt;Node2 -->
<g id="edge4_Node000002_Node000005" class="edge">
<title>Node5&#45;&gt;Node2</title>
<g id="a_edge4_Node000002_Node000005"><a xlink:title=" ">
<path fill="none" stroke="#63b8ff" stroke-width="2" d="M228.29,-115.67C212.27,-106.27 193.25,-95.12 179.16,-86.85"/>
<polygon fill="#63b8ff" stroke="#63b8ff" stroke-width="2" points="226.3,-118.56 236.7,-120.6 229.85,-112.52 226.3,-118.56"/>
</a>
</g>
</g>
</g>
</svg>
