<?xml version="1.0" encoding="UTF-8" standalone="no"?>
<!DOCTYPE svg PUBLIC "-//W3C//DTD SVG 1.1//EN"
 "http://www.w3.org/Graphics/SVG/1.1/DTD/svg11.dtd">
<!-- Generated by graphviz version 9.0.0 (0)
 -->
<!-- Title: Graph Legend Pages: 1 -->
<svg width="704pt" height="284pt"
 viewBox="0.00 0.00 703.50 283.75" xmlns="http://www.w3.org/2000/svg" xmlns:xlink="http://www.w3.org/1999/xlink">
<g id="graph0" class="graph" transform="scale(1 1) rotate(0) translate(4 279.75)">
<title>Graph Legend</title>
<!-- Node9 -->
<g id="Node000009" class="node">
<title>Node9</title>
<g id="a_Node000009"><a xlink:title=" ">
<polygon fill="#999999" stroke="#666666" points="394,-25.25 315,-25.25 315,0 394,0 394,-25.25"/>
<text text-anchor="middle" x="354.5" y="-7.95" font-family="Helvetica,sans-Serif" font-size="14.00">Inherited</text>
</a>
</g>
</g>
<!-- Node10 -->
<g id="Node000010" class="node">
<title>Node10</title>
<g id="a_Node000010"><a xlink:title=" ">
<polygon fill="white" stroke="#666666" points="91,-127.12 0,-127.12 0,-101.88 91,-101.88 91,-127.12"/>
<text text-anchor="middle" x="45.5" y="-109.83" font-family="Helvetica,sans-Serif" font-size="14.00">PublicBase</text>
</a>
</g>
</g>
<!-- Node10&#45;&gt;Node9 -->
<g id="edge1" class="edge">
<title>Node10&#45;&gt;Node9</title>
<g id="a_edge1"><a xlink:title=" ">
<path fill="none" stroke="#63b8ff" stroke-width="2" d="M71.29,-94.35C79.92,-88.61 89.82,-82.73 99.5,-78.5 172.12,-46.76 263.43,-28.24 314.75,-19.6"/>
<polygon fill="#63b8ff" stroke="#63b8ff" stroke-width="2" points="69.49,-91.34 63.28,-99.92 73.49,-97.08 69.49,-91.34"/>
</a>
</g>
</g>
<!-- Node11 -->
<g id="Node000011" class="node">
<title>Node11</title>
<g id="a_Node000011"><a xlink:title=" ">
<polygon fill="#fff0f0" stroke="red" points="88,-252.38 3,-252.38 3,-227.12 88,-227.12 88,-252.38"/>
<text text-anchor="middle" x="45.5" y="-235.07" font-family="Helvetica,sans-Serif" font-size="14.00">Truncated</text>
</a>
</g>
</g>
<!-- Node11&#45;&gt;Node10 -->
<g id="edge2" class="edge">
<title>Node11&#45;&gt;Node10</title>
<g id="a_edge2"><a xlink:title=" ">
<path fill="none" stroke="#63b8ff" stroke-width="2" d="M45.5,-214.02C45.5,-187.78 45.5,-147.39 45.5,-127.46"/>
<polygon fill="#63b8ff" stroke="#63b8ff" stroke-width="2" points="42,-213.91 45.5,-223.91 49,-213.91 42,-213.91"/>
</a>
</g>
</g>
<!-- Node13 -->
<g id="node4" class="node">
<title>Node13</title>
<g id="a_node4"><a xlink:title=" ">
<polygon fill="white" stroke="#666666" points="224,-150.5 109,-150.5 109,-78.5 224,-78.5 224,-150.5"/>
<text text-anchor="middle" x="166.5" y="-109.83" font-family="Helvetica,sans-Serif" font-size="14.00">ProtectedBase</text>
</a>
</g>
</g>
<!-- Node13&#45;&gt;Node9 -->
<g id="edge3" class="edge">
<title>Node13&#45;&gt;Node9</title>
<g id="a_edge3"><a xlink:title=" ">
<path fill="none" stroke="darkgreen" stroke-width="2" d="M235.72,-76.73C269.58,-58.74 308.06,-38.3 331.81,-25.68"/>
<polygon fill="darkgreen" stroke="darkgreen" stroke-width="2" points="234.3,-73.52 227.11,-81.3 237.59,-79.7 234.3,-73.52"/>
</a>
</g>
</g>
<!-- Node14 -->
<g id="node5" class="node">
<title>Node14</title>
<g id="a_node5"><a xlink:title=" ">
<polygon fill="white" stroke="#666666" points="339.38,-150.5 241.62,-150.5 241.62,-78.5 339.38,-78.5 339.38,-150.5"/>
<text text-anchor="middle" x="290.5" y="-109.83" font-family="Helvetica,sans-Serif" font-size="14.00">PrivateBase</text>
</a>
</g>
</g>
<!-- Node14&#45;&gt;Node9 -->
<g id="edge4" class="edge">
<title>Node14&#45;&gt;Node9</title>
<g id="a_edge4"><a xlink:title=" ">
<path fill="none" stroke="#8b1a1a" stroke-width="2" d="M320.02,-67.43C329.95,-51.94 340.2,-35.95 346.91,-25.47"/>
<polygon fill="#8b1a1a" stroke="#8b1a1a" stroke-width="2" points="317.33,-65.15 314.88,-75.46 323.22,-68.93 317.33,-65.15"/>
</a>
</g>
</g>
<!-- Node15 -->
<g id="Node000015" class="node">
<title>Node15</title>
<g id="a_Node000015"><a xlink:title=" ">
<polygon fill="#e0e0e0" stroke="#999999" points="479.75,-127.12 357.25,-127.12 357.25,-101.88 479.75,-101.88 479.75,-127.12"/>
<text text-anchor="middle" x="418.5" y="-109.83" font-family="Helvetica,sans-Serif" font-size="14.00">Undocumented</text>
</a>
</g>
</g>
<!-- Node15&#45;&gt;Node9 -->
<g id="edge5" class="edge">
<title>Node15&#45;&gt;Node9</title>
<g id="a_edge5"><a xlink:title=" ">
<path fill="none" stroke="#63b8ff" stroke-width="2" d="M403.99,-90.86C390.97,-70.54 372.37,-41.52 362.08,-25.46"/>
<polygon fill="#63b8ff" stroke="#63b8ff" stroke-width="2" points="400.93,-92.57 409.27,-99.1 406.83,-88.79 400.93,-92.57"/>
</a>
</g>
</g>
<!-- Node16 -->
<g id="node7" class="node">
<title>Node16</title>
<g id="a_node7"><a xlink:title=" ">
<polygon fill="white" stroke="#666666" points="605.25,-150.5 497.75,-150.5 497.75,-78.5 605.25,-78.5 605.25,-150.5"/>
<text text-anchor="middle" x="551.5" y="-109.83" font-family="Helvetica,sans-Serif" font-size="14.00">Templ&lt; int &gt;</text>
</a>
</g>
</g>
<!-- Node16&#45;&gt;Node9 -->
<g id="edge6" class="edge">
<title>Node16&#45;&gt;Node9</title>
<g id="a_edge6"><a xlink:title=" ">
<path fill="none" stroke="#63b8ff" stroke-width="2" d="M485.78,-77.18C444.1,-55.76 405.27,-37.28 380.4,-25.64"/>
<polygon fill="#63b8ff" stroke="#63b8ff" stroke-width="2" points="484.13,-80.26 494.62,-81.75 487.35,-74.05 484.13,-80.26"/>
</a>
</g>
</g>
<!-- Node17 -->
<g id="node8" class="node">
<title>Node17</title>
<g id="a_node8"><a xlink:title=" ">
<polygon fill="white" stroke="#666666" points="600.38,-275.75 502.62,-275.75 502.62,-203.75 600.38,-203.75 600.38,-275.75"/>
<text text-anchor="middle" x="551.5" y="-235.07" font-family="Helvetica,sans-Serif" font-size="14.00">Templ&lt; T &gt;</text>
</a>
</g>
</g>
<!-- Node17&#45;&gt;Node16 -->
<g id="edge7" class="edge">
<title>Node17&#45;&gt;Node16</title>
<g id="a_edge7"><a xlink:title=" ">
<path fill="none" stroke="orange" stroke-width="2" stroke-dasharray="5,2" d="M551.5,-190.57C551.5,-177.32 551.5,-163.2 551.5,-150.82"/>
<polygon fill="orange" stroke="orange" stroke-width="2" points="548,-190.4 551.5,-200.4 555,-190.4 548,-190.4"/>
</a>
</g>
<text text-anchor="middle" x="577" y="-172.45" font-family="Helvetica,sans-Serif" font-size="14.00" fill="grey">&lt; int &gt;</text>
</g>
<!-- Node18 -->
<g id="node9" class="node">
<title>Node18</title>
<g id="a_node9"><a xlink:title=" ">
<polygon fill="white" stroke="#666666" points="695.5,-150.5 623.5,-150.5 623.5,-78.5 695.5,-78.5 695.5,-150.5"/>
<text text-anchor="middle" x="659.5" y="-109.83" font-family="Helvetica,sans-Serif" font-size="14.00">Used</text>
</a>
</g>
</g>
<!-- Node18&#45;&gt;Node9 -->
<g id="edge8" class="edge">
<title>Node18&#45;&gt;Node9</title>
<g id="a_edge8"><a xlink:title=" ">
<path fill="none" stroke="#9a32cd" stroke-width="2" stroke-dasharray="5,2" d="M611.63,-77.81C532.51,-41.29 444.21,-25.3 394.13,-18.3"/>
<polygon fill="#9a32cd" stroke="#9a32cd" stroke-width="2" points="609.97,-80.89 620.5,-82.04 612.99,-74.58 609.97,-80.89"/>
</a>
</g>
<text text-anchor="middle" x="611.88" y="-47.2" font-family="Helvetica,sans-Serif" font-size="14.00" fill="grey">m_usedClass</text>
</g>
</g>
</svg>
