<?xml version="1.0" encoding="UTF-8" standalone="no"?>
<!DOCTYPE svg PUBLIC "-//W3C//DTD SVG 1.1//EN"
 "http://www.w3.org/Graphics/SVG/1.1/DTD/svg11.dtd">
<!-- Generated by graphviz version 9.0.0 (0)
 -->
<!-- Title: Graphical Class Hierarchy Pages: 1 -->
<svg width="660pt" height="205pt"
 viewBox="0.00 0.00 660.00 205.25" xmlns="http://www.w3.org/2000/svg" xmlns:xlink="http://www.w3.org/1999/xlink">
<g id="graph0" class="graph" transform="scale(1 1) rotate(0) translate(4 201.25)">
<title>Graphical Class Hierarchy</title>
<!-- Node0 -->
<g id="Node000000" class="node">
<title>Node0</title>
<g id="a_Node000000"><a xlink:title=" ">
<polygon fill="#e0e0e0" stroke="#999999" points="129.62,-154.25 10.88,-154.25 10.88,-129 129.62,-129 129.62,-154.25"/>
<text text-anchor="middle" x="70.25" y="-136.95" font-family="Helvetica,sans-Serif" font-size="14.00">sf::CircleShape</text>
</a>
</g>
</g>
<!-- Node1 -->
<g id="Node000001" class="node">
<title>Node1</title>
<g id="a_Node000001"><a xlink:href="dc/df0/classBall.html" target="_top" xlink:title=" ">
<polygon fill="white" stroke="#666666" points="261.12,-154.25 219.62,-154.25 219.62,-129 261.12,-129 261.12,-154.25"/>
<text text-anchor="middle" x="240.38" y="-136.95" font-family="Helvetica,sans-Serif" font-size="14.00">Ball</text>
</a>
</g>
</g>
<!-- Node0&#45;&gt;Node1 -->
<g id="edge1_Node000000_Node000001" class="edge">
<title>Node0&#45;&gt;Node1</title>
<g id="a_edge1_Node000000_Node000001"><a xlink:title=" ">
<path fill="none" stroke="#63b8ff" stroke-width="2" d="M143.03,-141.62C170.73,-141.62 200.24,-141.62 219.2,-141.62"/>
<polygon fill="#63b8ff" stroke="#63b8ff" stroke-width="2" points="143.08,-138.13 133.08,-141.63 143.08,-145.13 143.08,-138.13"/>
</a>
</g>
</g>
<!-- Node2 -->
<g id="Node000002" class="node">
<title>Node2</title>
<g id="a_Node000002"><a xlink:href="de/d1c/classGameObject.html" target="_top" xlink:title="Game object class.">
<polygon fill="white" stroke="#666666" points="121,-111.25 19.5,-111.25 19.5,-86 121,-86 121,-111.25"/>
<text text-anchor="middle" x="70.25" y="-93.95" font-family="Helvetica,sans-Serif" font-size="14.00">GameObject</text>
</a>
</g>
</g>
<!-- Node2&#45;&gt;Node1 -->
<g id="edge8_Node000002_Node000001" class="edge">
<title>Node2&#45;&gt;Node1</title>
<g id="a_edge8_Node000002_Node000001"><a xlink:title=" ">
<path fill="none" stroke="#63b8ff" stroke-width="2" d="M133.52,-114.55C163.9,-122.32 198.36,-131.13 219.48,-136.54"/>
<polygon fill="#63b8ff" stroke="#63b8ff" stroke-width="2" points="134.73,-111.25 124.17,-112.16 132.99,-118.03 134.73,-111.25"/>
</a>
</g>
</g>
<!-- Node3 -->
<g id="Node000003" class="node">
<title>Node3</title>
<g id="a_Node000003"><a xlink:href="d7/d98/classAnimatedObject.html" target="_top" xlink:title="Animated object class.">
<polygon fill="white" stroke="#666666" points="304.25,-79.25 176.5,-79.25 176.5,-54 304.25,-54 304.25,-79.25"/>
<text text-anchor="middle" x="240.38" y="-61.95" font-family="Helvetica,sans-Serif" font-size="14.00">AnimatedObject</text>
</a>
</g>
</g>
<!-- Node2&#45;&gt;Node3 -->
<g id="edge2_Node000002_Node000003" class="edge">
<title>Node2&#45;&gt;Node3</title>
<g id="a_edge2_Node000002_Node000003"><a xlink:title=" ">
<path fill="none" stroke="#63b8ff" stroke-width="2" d="M133.68,-86.74C147.55,-84.1 162.25,-81.3 176.14,-78.66"/>
<polygon fill="#63b8ff" stroke="#63b8ff" stroke-width="2" points="133.38,-83.24 124.21,-88.54 134.69,-90.11 133.38,-83.24"/>
</a>
</g>
</g>
<!-- Node4 -->
<g id="Node000004" class="node">
<title>Node4</title>
<g id="a_Node000004"><a xlink:href="d4/dcd/classAnimatedSpriteSheet.html" target="_top" xlink:title=" ">
<polygon fill="white" stroke="#666666" points="504,-121.25 340.25,-121.25 340.25,-96 504,-96 504,-121.25"/>
<text text-anchor="middle" x="422.12" y="-103.95" font-family="Helvetica,sans-Serif" font-size="14.00">AnimatedSpriteSheet</text>
</a>
</g>
</g>
<!-- Node3&#45;&gt;Node4 -->
<g id="edge3_Node000003_Node000004" class="edge">
<title>Node3&#45;&gt;Node4</title>
<g id="a_edge3_Node000003_Node000004"><a xlink:title=" ">
<path fill="none" stroke="#63b8ff" stroke-width="2" d="M309.92,-82.64C328.11,-86.89 347.52,-91.43 364.96,-95.5"/>
<polygon fill="#63b8ff" stroke="#63b8ff" stroke-width="2" points="310.75,-79.24 300.21,-80.37 309.15,-86.06 310.75,-79.24"/>
</a>
</g>
</g>
<!-- Node6 -->
<g id="Node000006" class="node">
<title>Node6</title>
<g id="a_Node000006"><a xlink:href="df/dd5/classBush.html" target="_top" xlink:title=" ">
<polygon fill="white" stroke="#666666" points="447.75,-78.25 396.5,-78.25 396.5,-53 447.75,-53 447.75,-78.25"/>
<text text-anchor="middle" x="422.12" y="-60.95" font-family="Helvetica,sans-Serif" font-size="14.00">Bush</text>
</a>
</g>
</g>
<!-- Node3&#45;&gt;Node6 -->
<g id="edge5_Node000003_Node000006" class="edge">
<title>Node3&#45;&gt;Node6</title>
<g id="a_edge5_Node000003_Node000006"><a xlink:title=" ">
<path fill="none" stroke="#63b8ff" stroke-width="2" d="M317.53,-66.2C345.71,-66.04 375.73,-65.88 396.16,-65.76"/>
<polygon fill="#63b8ff" stroke="#63b8ff" stroke-width="2" points="317.76,-62.7 307.78,-66.26 317.79,-69.7 317.76,-62.7"/>
</a>
</g>
</g>
<!-- Node7 -->
<g id="Node000007" class="node">
<title>Node7</title>
<g id="a_Node000007"><a xlink:href="d2/d4b/classPlayer.html" target="_top" xlink:title="Player class.">
<polygon fill="white" stroke="#666666" points="451.5,-185.25 392.75,-185.25 392.75,-160 451.5,-160 451.5,-185.25"/>
<text text-anchor="middle" x="422.12" y="-167.95" font-family="Helvetica,sans-Serif" font-size="14.00">Player</text>
</a>
</g>
</g>
<!-- Node3&#45;&gt;Node7 -->
<g id="edge6_Node000003_Node000007" class="edge">
<title>Node3&#45;&gt;Node7</title>
<g id="a_edge6_Node000003_Node000007"><a xlink:title=" ">
<path fill="none" stroke="#63b8ff" stroke-width="2" d="M270.95,-86.82C290.36,-99.81 316.46,-116.79 340.25,-130.62 358.03,-140.96 378.61,-151.63 394.56,-159.63"/>
<polygon fill="#63b8ff" stroke="#63b8ff" stroke-width="2" points="273.12,-84.07 262.87,-81.38 269.21,-89.87 273.12,-84.07"/>
</a>
</g>
</g>
<!-- Node5 -->
<g id="Node000005" class="node">
<title>Node5</title>
<g id="a_Node000005"><a xlink:href="de/dde/classFidgetSpinner.html" target="_top" xlink:title=" ">
<polygon fill="white" stroke="#666666" points="652,-121.25 540,-121.25 540,-96 652,-96 652,-121.25"/>
<text text-anchor="middle" x="596" y="-103.95" font-family="Helvetica,sans-Serif" font-size="14.00">FidgetSpinner</text>
</a>
</g>
</g>
<!-- Node4&#45;&gt;Node5 -->
<g id="edge4_Node000004_Node000005" class="edge">
<title>Node4&#45;&gt;Node5</title>
<g id="a_edge4_Node000004_Node000005"><a xlink:title=" ">
<path fill="none" stroke="#63b8ff" stroke-width="2" d="M517.22,-108.62C524.88,-108.62 532.46,-108.62 539.7,-108.62"/>
<polygon fill="#63b8ff" stroke="#63b8ff" stroke-width="2" points="517.31,-105.13 507.31,-108.63 517.31,-112.13 517.31,-105.13"/>
</a>
</g>
</g>
<!-- Node8 -->
<g id="Node000008" class="node">
<title>Node8</title>
<g id="a_Node000008"><a xlink:href="df/d0d/classGamePlayer.html" target="_top" xlink:title=" ">
<polygon fill="white" stroke="#666666" points="645.62,-185.25 546.38,-185.25 546.38,-160 645.62,-160 645.62,-185.25"/>
<text text-anchor="middle" x="596" y="-167.95" font-family="Helvetica,sans-Serif" font-size="14.00">GamePlayer</text>
</a>
</g>
</g>
<!-- Node7&#45;&gt;Node8 -->
<g id="edge7_Node000007_Node000008" class="edge">
<title>Node7&#45;&gt;Node8</title>
<g id="a_edge7_Node000007_Node000008"><a xlink:title=" ">
<path fill="none" stroke="#63b8ff" stroke-width="2" d="M464.73,-172.62C489.2,-172.62 520.26,-172.62 545.92,-172.62"/>
<polygon fill="#63b8ff" stroke="#63b8ff" stroke-width="2" points="464.92,-169.13 454.92,-172.63 464.92,-176.13 464.92,-169.13"/>
</a>
</g>
</g>
<!-- Node10 -->
<g id="Node000010" class="node">
<title>Node10</title>
<g id="a_Node000010"><a xlink:title=" ">
<polygon fill="#e0e0e0" stroke="#999999" points="109.38,-25.25 31.12,-25.25 31.12,0 109.38,0 109.38,-25.25"/>
<text text-anchor="middle" x="70.25" y="-7.95" font-family="Helvetica,sans-Serif" font-size="14.00">sf::Sprite</text>
</a>
</g>
</g>
<!-- Node10&#45;&gt;Node3 -->
<g id="edge9_Node000010_Node000003" class="edge">
<title>Node10&#45;&gt;Node3</title>
<g id="a_edge9_Node000010_Node000003"><a xlink:title=" ">
<path fill="none" stroke="#63b8ff" stroke-width="2" d="M121.76,-27.77C128.08,-29.71 134.45,-31.7 140.5,-33.62 160.5,-39.99 182.68,-47.37 200.95,-53.53"/>
<polygon fill="#63b8ff" stroke="#63b8ff" stroke-width="2" points="123.25,-24.56 112.66,-24.98 121.2,-31.25 123.25,-24.56"/>
</a>
</g>
</g>
<!-- Node11 -->
<g id="Node000011" class="node">
<title>Node11</title>
<g id="a_Node000011"><a xlink:title=" ">
<polygon fill="#e0e0e0" stroke="#999999" points="113.88,-68.25 26.62,-68.25 26.62,-43 113.88,-43 113.88,-68.25"/>
<text text-anchor="middle" x="70.25" y="-50.95" font-family="Helvetica,sans-Serif" font-size="14.00">sf::Texture</text>
</a>
</g>
</g>
<!-- Node11&#45;&gt;Node3 -->
<g id="edge10_Node000011_Node000003" class="edge">
<title>Node11&#45;&gt;Node3</title>
<g id="a_edge10_Node000011_Node000003"><a xlink:title=" ">
<path fill="none" stroke="#63b8ff" stroke-width="2" d="M126.97,-59.27C142.76,-60.3 160.08,-61.44 176.28,-62.5"/>
<polygon fill="#63b8ff" stroke="#63b8ff" stroke-width="2" points="127.34,-55.79 117.13,-58.63 126.88,-62.77 127.34,-55.79"/>
</a>
</g>
</g>
<!-- Node9 -->
<g id="Node000009" class="node">
<title>Node9</title>
<g id="a_Node000009"><a xlink:href="de/dd3/classUpdateableObject.html" target="_top" xlink:title="Updateable object class.">
<polygon fill="white" stroke="#666666" points="140.5,-197.25 0,-197.25 0,-172 140.5,-172 140.5,-197.25"/>
<text text-anchor="middle" x="70.25" y="-179.95" font-family="Helvetica,sans-Serif" font-size="14.00">UpdateableObject</text>
</a>
</g>
</g>
<!-- Node9&#45;&gt;Node1 -->
<g id="edge11_Node000009_Node000001" class="edge">
<title>Node9&#45;&gt;Node1</title>
<g id="a_edge11_Node000009_Node000001"><a xlink:title=" ">
<path fill="none" stroke="#63b8ff" stroke-width="2" d="M134.72,-168.39C164.71,-160.72 198.42,-152.1 219.28,-146.76"/>
<polygon fill="#63b8ff" stroke="#63b8ff" stroke-width="2" points="133.9,-164.99 125.08,-170.86 135.64,-171.77 133.9,-164.99"/>
</a>
</g>
</g>
<!-- Node9&#45;&gt;Node7 -->
<g id="edge12_Node000009_Node000007" class="edge">
<title>Node9&#45;&gt;Node7</title>
<g id="a_edge12_Node000009_Node000007"><a xlink:title=" ">
<path fill="none" stroke="#63b8ff" stroke-width="2" d="M153.78,-181.79C230.67,-179.16 340.97,-175.37 392.52,-173.61"/>
<polygon fill="#63b8ff" stroke="#63b8ff" stroke-width="2" points="153.69,-178.3 143.82,-182.14 153.93,-185.29 153.69,-178.3"/>
</a>
</g>
</g>
</g>
</svg>
