<?xml version="1.0" encoding="UTF-8" standalone="no"?>
<!DOCTYPE svg PUBLIC "-//W3C//DTD SVG 1.1//EN"
 "http://www.w3.org/Graphics/SVG/1.1/DTD/svg11.dtd">
<!-- Generated by graphviz version 9.0.0 (0)
 -->
<!-- Title: GamePlayer::update Pages: 1 -->
<svg width="1100pt" height="274pt"
 viewBox="0.00 0.00 1099.75 273.88" xmlns="http://www.w3.org/2000/svg" xmlns:xlink="http://www.w3.org/1999/xlink">
<g id="graph0" class="graph" transform="scale(1 1) rotate(0) translate(4 269.88)">
<title>GamePlayer::update</title>
<!-- Node1 -->
<g id="Node000001" class="node">
<title>Node1</title>
<g id="a_Node000001"><a xlink:title="Updates state of object.">
<polygon fill="#999999" stroke="#666666" points="156.25,-167.25 0,-167.25 0,-142 156.25,-142 156.25,-167.25"/>
<text text-anchor="middle" x="78.12" y="-149.95" font-family="Helvetica,sans-Serif" font-size="14.00">GamePlayer::update</text>
</a>
</g>
</g>
<!-- Node2 -->
<g id="Node000002" class="node">
<title>Node2</title>
<g id="a_Node000002"><a xlink:href="../../df/d0d/classGamePlayer.html#af709039fcfb17fbe3fee6ba14873e328" target="_top" xlink:title=" ">
<polygon fill="white" stroke="#666666" points="392.75,-265.88 192.25,-265.88 192.25,-223.38 392.75,-223.38 392.75,-265.88"/>
<text text-anchor="start" x="200.25" y="-248.57" font-family="Helvetica,sans-Serif" font-size="14.00">GamePlayer::getAnimation</text>
<text text-anchor="middle" x="292.5" y="-231.32" font-family="Helvetica,sans-Serif" font-size="14.00">TypeOf</text>
</a>
</g>
</g>
<!-- Node1&#45;&gt;Node2 -->
<g id="edge1_Node000001_Node000002" class="edge">
<title>Node1&#45;&gt;Node2</title>
<g id="a_edge1_Node000001_Node000002"><a xlink:title=" ">
<path fill="none" stroke="#63b8ff" stroke-width="2" d="M103.91,-167.69C126.59,-179.39 161.22,-196.66 192.25,-209.62 199.36,-212.59 206.81,-215.53 214.31,-218.37"/>
<polygon fill="#63b8ff" stroke="#63b8ff" stroke-width="2" points="213.06,-221.65 223.66,-221.84 215.5,-215.08 213.06,-221.65"/>
</a>
</g>
</g>
<!-- Node3 -->
<g id="Node000003" class="node">
<title>Node3</title>
<g id="a_Node000003"><a xlink:href="../../d2/d4b/classPlayer.html#a0b43e6080753101fe692d824d7b68df5" target="_top" xlink:title="Checks if player is moving.">
<polygon fill="white" stroke="#666666" points="822.62,-208.25 694.12,-208.25 694.12,-183 822.62,-183 822.62,-208.25"/>
<text text-anchor="middle" x="758.38" y="-190.95" font-family="Helvetica,sans-Serif" font-size="14.00">Player::isMoving</text>
</a>
</g>
</g>
<!-- Node1&#45;&gt;Node3 -->
<g id="edge2_Node000001_Node000003" class="edge">
<title>Node1&#45;&gt;Node3</title>
<g id="a_edge2_Node000001_Node000003"><a xlink:title=" ">
<path fill="none" stroke="#63b8ff" stroke-width="2" d="M156.63,-165C168.55,-166.37 180.72,-167.64 192.25,-168.62 366.7,-183.57 572.2,-190.79 680.94,-193.8"/>
<polygon fill="#63b8ff" stroke="#63b8ff" stroke-width="2" points="680.59,-197.29 690.68,-194.07 680.78,-190.3 680.59,-197.29"/>
</a>
</g>
</g>
<!-- Node5 -->
<g id="Node000005" class="node">
<title>Node5</title>
<g id="a_Node000005"><a xlink:href="../../d2/d4b/classPlayer.html#a72bc816e0c33c07fcac7812d3b369b78" target="_top" xlink:title="Checks if player is moving diagonally.">
<polygon fill="white" stroke="#666666" points="631.88,-167.25 434.38,-167.25 434.38,-142 631.88,-142 631.88,-167.25"/>
<text text-anchor="middle" x="533.12" y="-149.95" font-family="Helvetica,sans-Serif" font-size="14.00">Player::isMovingDiagonaly</text>
</a>
</g>
</g>
<!-- Node1&#45;&gt;Node5 -->
<g id="edge4_Node000001_Node000005" class="edge">
<title>Node1&#45;&gt;Node5</title>
<g id="a_edge4_Node000001_Node000005"><a xlink:title=" ">
<path fill="none" stroke="#63b8ff" stroke-width="2" d="M156.74,-154.62C229.58,-154.62 339.3,-154.62 421.33,-154.62"/>
<polygon fill="#63b8ff" stroke="#63b8ff" stroke-width="2" points="421.22,-158.13 431.22,-154.63 421.22,-151.13 421.22,-158.13"/>
</a>
</g>
</g>
<!-- Node6 -->
<g id="Node000006" class="node">
<title>Node6</title>
<g id="a_Node000006"><a xlink:href="../../df/d0d/classGamePlayer.html#a659306ffde9d38e2a37f4fa3da5779cc" target="_top" xlink:title=" ">
<polygon fill="white" stroke="#666666" points="392,-126.88 193,-126.88 193,-84.38 392,-84.38 392,-126.88"/>
<text text-anchor="start" x="201" y="-109.58" font-family="Helvetica,sans-Serif" font-size="14.00">GamePlayer::setAnimation</text>
<text text-anchor="middle" x="292.5" y="-92.33" font-family="Helvetica,sans-Serif" font-size="14.00">Type</text>
</a>
</g>
</g>
<!-- Node1&#45;&gt;Node6 -->
<g id="edge6_Node000001_Node000006" class="edge">
<title>Node1&#45;&gt;Node6</title>
<g id="a_edge6_Node000001_Node000006"><a xlink:title=" ">
<path fill="none" stroke="#63b8ff" stroke-width="2" d="M135.76,-141.56C150.99,-138.05 167.97,-134.13 184.96,-130.21"/>
<polygon fill="#63b8ff" stroke="#63b8ff" stroke-width="2" points="185.4,-133.7 194.36,-128.04 183.83,-126.88 185.4,-133.7"/>
</a>
</g>
</g>
<!-- Node12 -->
<g id="Node000012" class="node">
<title>Node12</title>
<g id="a_Node000012"><a xlink:href="../../d2/d4b/classPlayer.html#a82c3476f3e65a4e2ac6bcd040771bdd4" target="_top" xlink:title="Updates state of object.">
<polygon fill="white" stroke="#666666" points="350.38,-66.25 234.62,-66.25 234.62,-41 350.38,-41 350.38,-66.25"/>
<text text-anchor="middle" x="292.5" y="-48.95" font-family="Helvetica,sans-Serif" font-size="14.00">Player::update</text>
</a>
</g>
</g>
<!-- Node1&#45;&gt;Node12 -->
<g id="edge8_Node000001_Node000012" class="edge">
<title>Node1&#45;&gt;Node12</title>
<g id="a_edge8_Node000001_Node000012"><a xlink:title=" ">
<path fill="none" stroke="#63b8ff" stroke-width="2" d="M93.7,-141.57C114.21,-123.91 153.43,-92.68 192.25,-75.62 201.61,-71.51 211.82,-68.13 222.01,-65.37"/>
<polygon fill="#63b8ff" stroke="#63b8ff" stroke-width="2" points="222.58,-68.83 231.44,-63.02 220.89,-62.04 222.58,-68.83"/>
</a>
</g>
</g>
<!-- Node4 -->
<g id="Node000004" class="node">
<title>Node4</title>
<g id="a_Node000004"><a xlink:href="../../d2/d4b/classPlayer.html#ae1905c2212e75f18b7eefd91324fe3d9" target="_top" xlink:title="Returns a 2D vector containing information on which cardinal directions the player is moving.">
<polygon fill="white" stroke="#666666" points="1091.75,-167.25 879.25,-167.25 879.25,-142 1091.75,-142 1091.75,-167.25"/>
<text text-anchor="middle" x="985.5" y="-149.95" font-family="Helvetica,sans-Serif" font-size="14.00">Player::getMoveVectorOrigin</text>
</a>
</g>
</g>
<!-- Node3&#45;&gt;Node4 -->
<g id="edge3_Node000003_Node000004" class="edge">
<title>Node3&#45;&gt;Node4</title>
<g id="a_edge3_Node000003_Node000004"><a xlink:title=" ">
<path fill="none" stroke="#63b8ff" stroke-width="2" d="M822.98,-184.04C846.9,-179.69 874.47,-174.66 900,-170.02"/>
<polygon fill="#63b8ff" stroke="#63b8ff" stroke-width="2" points="900.54,-173.47 909.75,-168.24 899.28,-166.59 900.54,-173.47"/>
</a>
</g>
</g>
<!-- Node5&#45;&gt;Node4 -->
<g id="edge5_Node000005_Node000004" class="edge">
<title>Node5&#45;&gt;Node4</title>
<g id="a_edge5_Node000005_Node000004"><a xlink:title=" ">
<path fill="none" stroke="#63b8ff" stroke-width="2" d="M632.13,-154.62C700.84,-154.62 793.07,-154.62 865.94,-154.62"/>
<polygon fill="#63b8ff" stroke="#63b8ff" stroke-width="2" points="865.81,-158.13 875.81,-154.63 865.81,-151.13 865.81,-158.13"/>
</a>
</g>
</g>
<!-- Node7 -->
<g id="Node000007" class="node">
<title>Node7</title>
<g id="a_Node000007"><a xlink:href="../../df/d0d/classGamePlayer.html#aa1d7c2cb18eae0880422842aa607343f" target="_top" xlink:title=" ">
<polygon fill="#fff0f0" stroke="red" points="637.5,-123.88 428.75,-123.88 428.75,-81.38 637.5,-81.38 637.5,-123.88"/>
<text text-anchor="start" x="436.75" y="-106.58" font-family="Helvetica,sans-Serif" font-size="14.00">GamePlayer::nextAnimation</text>
<text text-anchor="middle" x="533.12" y="-89.33" font-family="Helvetica,sans-Serif" font-size="14.00">Frame</text>
</a>
</g>
</g>
<!-- Node6&#45;&gt;Node7 -->
<g id="edge7_Node000006_Node000007" class="edge">
<title>Node6&#45;&gt;Node7</title>
<g id="a_edge7_Node000006_Node000007"><a xlink:title=" ">
<path fill="none" stroke="#63b8ff" stroke-width="2" d="M392.28,-104.38C399.92,-104.29 407.67,-104.19 415.41,-104.09"/>
<polygon fill="#63b8ff" stroke="#63b8ff" stroke-width="2" points="415.42,-107.59 425.38,-103.97 415.33,-100.59 415.42,-107.59"/>
</a>
</g>
</g>
<!-- Node13 -->
<g id="Node000013" class="node">
<title>Node13</title>
<g id="a_Node000013"><a xlink:href="../../d2/d4b/classPlayer.html#a6754159e7c29c0d21d05d3560b088cd3" target="_top" xlink:title="Returns the player&#39;s movement vector multiplied by speed.">
<polygon fill="#fff0f0" stroke="red" points="843.25,-66.25 673.5,-66.25 673.5,-41 843.25,-41 843.25,-66.25"/>
<text text-anchor="middle" x="758.38" y="-48.95" font-family="Helvetica,sans-Serif" font-size="14.00">Player::getMoveVector</text>
</a>
</g>
</g>
<!-- Node12&#45;&gt;Node13 -->
<g id="edge9_Node000012_Node000013" class="edge">
<title>Node12&#45;&gt;Node13</title>
<g id="a_edge9_Node000012_Node000013"><a xlink:title=" ">
<path fill="none" stroke="#63b8ff" stroke-width="2" d="M350.85,-53.62C428.06,-53.62 566.53,-53.62 660.17,-53.62"/>
<polygon fill="#63b8ff" stroke="#63b8ff" stroke-width="2" points="660.04,-57.13 670.04,-53.63 660.04,-50.13 660.04,-57.13"/>
</a>
</g>
</g>
<!-- Node17 -->
<g id="Node000017" class="node">
<title>Node17</title>
<g id="a_Node000017"><a xlink:href="../../d2/d4b/classPlayer.html#ad29f780f5ab349975b25f6b7ab49dd9d" target="_top" xlink:title="Moves player on screen.">
<polygon fill="#fff0f0" stroke="red" points="585.75,-25.25 480.5,-25.25 480.5,0 585.75,0 585.75,-25.25"/>
<text text-anchor="middle" x="533.12" y="-7.95" font-family="Helvetica,sans-Serif" font-size="14.00">Player::move</text>
</a>
</g>
</g>
<!-- Node12&#45;&gt;Node17 -->
<g id="edge11_Node000012_Node000017" class="edge">
<title>Node12&#45;&gt;Node17</title>
<g id="a_edge11_Node000012_Node000017"><a xlink:title=" ">
<path fill="none" stroke="#63b8ff" stroke-width="2" d="M350.66,-43.8C385.93,-37.74 431.26,-29.95 467.79,-23.68"/>
<polygon fill="#63b8ff" stroke="#63b8ff" stroke-width="2" points="468.07,-27.18 477.33,-22.04 466.89,-20.28 468.07,-27.18"/>
</a>
</g>
</g>
<!-- Node13&#45;&gt;Node4 -->
<g id="edge10_Node000013_Node000004" class="edge">
<title>Node13&#45;&gt;Node4</title>
<g id="a_edge10_Node000013_Node000004"><a xlink:title=" ">
<path fill="none" stroke="#63b8ff" stroke-width="2" d="M788.35,-66.62C827.83,-84.34 898.76,-116.16 943.64,-136.29"/>
<polygon fill="#63b8ff" stroke="#63b8ff" stroke-width="2" points="941.97,-139.38 952.52,-140.28 944.83,-132.99 941.97,-139.38"/>
</a>
</g>
</g>
<!-- Node17&#45;&gt;Node13 -->
<g id="edge12_Node000017_Node000013" class="edge">
<title>Node17&#45;&gt;Node13</title>
<g id="a_edge12_Node000017_Node000013"><a xlink:title=" ">
<path fill="none" stroke="#63b8ff" stroke-width="2" d="M586.19,-22.19C612.11,-26.95 644.1,-32.82 673.38,-38.2"/>
<polygon fill="#63b8ff" stroke="#63b8ff" stroke-width="2" points="672.73,-41.64 683.2,-40 674,-34.75 672.73,-41.64"/>
</a>
</g>
</g>
</g>
</svg>
