<?xml version="1.0" encoding="UTF-8" standalone="no"?>
<!DOCTYPE svg PUBLIC "-//W3C//DTD SVG 1.1//EN"
 "http://www.w3.org/Graphics/SVG/1.1/DTD/svg11.dtd">
<!-- Generated by graphviz version 9.0.0 (0)
 -->
<!-- Title: GamePlayer::setAnimationType Pages: 1 -->
<svg width="702pt" height="112pt"
 viewBox="0.00 0.00 701.75 111.50" xmlns="http://www.w3.org/2000/svg" xmlns:xlink="http://www.w3.org/1999/xlink">
<g id="graph0" class="graph" transform="scale(1 1) rotate(0) translate(4 107.5)">
<title>GamePlayer::setAnimationType</title>
<!-- Node1 -->
<g id="Node000001" class="node">
<title>Node1</title>
<g id="a_Node000001"><a xlink:title=" ">
<polygon fill="#999999" stroke="#666666" points="199,-72.5 0,-72.5 0,-30 199,-30 199,-72.5"/>
<text text-anchor="start" x="8" y="-55.2" font-family="Helvetica,sans-Serif" font-size="14.00">GamePlayer::setAnimation</text>
<text text-anchor="middle" x="99.5" y="-37.95" font-family="Helvetica,sans-Serif" font-size="14.00">Type</text>
</a>
</g>
</g>
<!-- Node2 -->
<g id="Node000002" class="node">
<title>Node2</title>
<g id="a_Node000002"><a xlink:href="../../df/d0d/classGamePlayer.html#aa1d7c2cb18eae0880422842aa607343f" target="_top" xlink:title=" ">
<polygon fill="white" stroke="#666666" points="443.75,-72.5 235,-72.5 235,-30 443.75,-30 443.75,-72.5"/>
<text text-anchor="start" x="243" y="-55.2" font-family="Helvetica,sans-Serif" font-size="14.00">GamePlayer::nextAnimation</text>
<text text-anchor="middle" x="339.38" y="-37.95" font-family="Helvetica,sans-Serif" font-size="14.00">Frame</text>
</a>
</g>
</g>
<!-- Node1&#45;&gt;Node2 -->
<g id="edge1_Node000001_Node000002" class="edge">
<title>Node1&#45;&gt;Node2</title>
<g id="a_edge1_Node000001_Node000002"><a xlink:title=" ">
<path fill="none" stroke="#63b8ff" stroke-width="2" d="M199.31,-51.25C206.84,-51.25 214.47,-51.25 222.09,-51.25"/>
<polygon fill="#63b8ff" stroke="#63b8ff" stroke-width="2" points="221.85,-54.75 231.85,-51.25 221.85,-47.75 221.85,-54.75"/>
</a>
</g>
</g>
<!-- Node3 -->
<g id="Node000003" class="node">
<title>Node3</title>
<g id="a_Node000003"><a xlink:href="../../df/d0d/classGamePlayer.html#a6f12f71676ebea5575d90e62b17090d8" target="_top" xlink:title=" ">
<polygon fill="white" stroke="#666666" points="693.75,-103.5 479.75,-103.5 479.75,-61 693.75,-61 693.75,-103.5"/>
<text text-anchor="start" x="487.75" y="-86.2" font-family="Helvetica,sans-Serif" font-size="14.00">GamePlayer::getFrameCount</text>
<text text-anchor="middle" x="586.75" y="-68.95" font-family="Helvetica,sans-Serif" font-size="14.00">OfAnimation</text>
</a>
</g>
</g>
<!-- Node2&#45;&gt;Node3 -->
<g id="edge2_Node000002_Node000003" class="edge">
<title>Node2&#45;&gt;Node3</title>
<g id="a_edge2_Node000002_Node000003"><a xlink:title=" ">
<path fill="none" stroke="#63b8ff" stroke-width="2" d="M444.08,-64.35C451.45,-65.28 458.91,-66.23 466.35,-67.17"/>
<polygon fill="#63b8ff" stroke="#63b8ff" stroke-width="2" points="465.91,-70.64 476.27,-68.42 466.79,-63.69 465.91,-70.64"/>
</a>
</g>
</g>
<!-- Node4 -->
<g id="Node000004" class="node">
<title>Node4</title>
<g id="a_Node000004"><a xlink:href="../../df/d0d/classGamePlayer.html#a573a8771607a793889bd13431f26a674" target="_top" xlink:title=" ">
<polygon fill="#fff0f0" stroke="red" points="690,-42.5 483.5,-42.5 483.5,0 690,0 690,-42.5"/>
<text text-anchor="start" x="491.5" y="-25.2" font-family="Helvetica,sans-Serif" font-size="14.00">GamePlayer::updateTexture</text>
<text text-anchor="middle" x="586.75" y="-7.95" font-family="Helvetica,sans-Serif" font-size="14.00">Rect</text>
</a>
</g>
</g>
<!-- Node2&#45;&gt;Node4 -->
<g id="edge3_Node000002_Node000004" class="edge">
<title>Node2&#45;&gt;Node4</title>
<g id="a_edge3_Node000002_Node000004"><a xlink:title=" ">
<path fill="none" stroke="#63b8ff" stroke-width="2" d="M444.08,-38.57C452.78,-37.51 461.61,-36.43 470.39,-35.35"/>
<polygon fill="#63b8ff" stroke="#63b8ff" stroke-width="2" points="470.69,-38.84 480.19,-34.16 469.84,-31.9 470.69,-38.84"/>
</a>
</g>
</g>
</g>
</svg>
