<?xml version="1.0" encoding="UTF-8" standalone="no"?>
<!DOCTYPE svg PUBLIC "-//W3C//DTD SVG 1.1//EN"
 "http://www.w3.org/Graphics/SVG/1.1/DTD/svg11.dtd">
<!-- Generated by graphviz version 9.0.0 (0)
 -->
<!-- Title: GamePlayer::update Pages: 1 -->
<svg width="515pt" height="33pt"
 viewBox="0.00 0.00 515.00 33.25" xmlns="http://www.w3.org/2000/svg" xmlns:xlink="http://www.w3.org/1999/xlink">
<g id="graph0" class="graph" transform="scale(1 1) rotate(0) translate(4 29.25)">
<title>GamePlayer::update</title>
<!-- Node1 -->
<g id="Node000001" class="node">
<title>Node1</title>
<g id="a_Node000001"><a xlink:title="Updates state of object.">
<polygon fill="#999999" stroke="#666666" points="507,-25.25 350.75,-25.25 350.75,0 507,0 507,-25.25"/>
<text text-anchor="middle" x="428.88" y="-7.95" font-family="Helvetica,sans-Serif" font-size="14.00">GamePlayer::update</text>
</a>
</g>
</g>
<!-- Node2 -->
<g id="Node000002" class="node">
<title>Node2</title>
<g id="a_Node000002"><a xlink:href="../../d0/d8d/test2_2main_8cpp.html#a169e80ba056ef07b9e6ab592b29f32cc" target="_top" xlink:title=" ">
<polygon fill="white" stroke="#666666" points="314.75,-25.25 136,-25.25 136,0 314.75,0 314.75,-25.25"/>
<text text-anchor="middle" x="225.38" y="-7.95" font-family="Helvetica,sans-Serif" font-size="14.00">handlePlayerMovement</text>
</a>
</g>
</g>
<!-- Node1&#45;&gt;Node2 -->
<g id="edge1_Node000001_Node000002" class="edge">
<title>Node1&#45;&gt;Node2</title>
<g id="a_edge1_Node000001_Node000002"><a xlink:title=" ">
<path fill="none" stroke="#63b8ff" stroke-width="2" d="M337.42,-12.62C329.98,-12.62 322.46,-12.62 315.04,-12.62"/>
<polygon fill="#63b8ff" stroke="#63b8ff" stroke-width="2" points="337.23,-16.13 347.23,-12.63 337.23,-9.13 337.23,-16.13"/>
</a>
</g>
</g>
<!-- Node3 -->
<g id="Node000003" class="node">
<title>Node3</title>
<g id="a_Node000003"><a xlink:href="../../d0/d8d/test2_2main_8cpp.html#a0771209d6ddc7b70e2a222f27b12f387" target="_top" xlink:title=" ">
<polygon fill="#fff0f0" stroke="red" points="100,-25.25 0,-25.25 0,0 100,0 100,-25.25"/>
<text text-anchor="middle" x="50" y="-7.95" font-family="Helvetica,sans-Serif" font-size="14.00">customLoop</text>
</a>
</g>
</g>
<!-- Node2&#45;&gt;Node3 -->
<g id="edge2_Node000002_Node000003" class="edge">
<title>Node2&#45;&gt;Node3</title>
<g id="a_edge2_Node000002_Node000003"><a xlink:title=" ">
<path fill="none" stroke="#63b8ff" stroke-width="2" d="M122.89,-12.62C115.1,-12.62 107.48,-12.62 100.28,-12.62"/>
<polygon fill="#63b8ff" stroke="#63b8ff" stroke-width="2" points="122.63,-16.13 132.63,-12.63 122.63,-9.13 122.63,-16.13"/>
</a>
</g>
</g>
</g>
</svg>
