<?xml version="1.0" encoding="UTF-8" standalone="no"?>
<!DOCTYPE svg PUBLIC "-//W3C//DTD SVG 1.1//EN"
 "http://www.w3.org/Graphics/SVG/1.1/DTD/svg11.dtd">
<!-- Generated by graphviz version 9.0.0 (0)
 -->
<!-- Title: GamePlayer::getCurrentAnimationFrameSpriteRectangle Pages: 1 -->
<svg width="734pt" height="94pt"
 viewBox="0.00 0.00 734.00 93.88" xmlns="http://www.w3.org/2000/svg" xmlns:xlink="http://www.w3.org/1999/xlink">
<g id="graph0" class="graph" transform="scale(1 1) rotate(0) translate(4 89.88)">
<title>GamePlayer::getCurrentAnimationFrameSpriteRectangle</title>
<!-- Node1 -->
<g id="Node000001" class="node">
<title>Node1</title>
<g id="a_Node000001"><a xlink:title=" ">
<polygon fill="#999999" stroke="#666666" points="726,-68.5 487.25,-68.5 487.25,-26 726,-26 726,-68.5"/>
<text text-anchor="start" x="495.25" y="-51.2" font-family="Helvetica,sans-Serif" font-size="14.00">GamePlayer::getCurrent</text>
<text text-anchor="middle" x="606.62" y="-33.95" font-family="Helvetica,sans-Serif" font-size="14.00">AnimationFrameSpriteRectangle</text>
</a>
</g>
</g>
<!-- Node2 -->
<g id="Node000002" class="node">
<title>Node2</title>
<g id="a_Node000002"><a xlink:href="../../df/d0d/classGamePlayer.html#af0314668e232831d2f9c263596dccde6" target="_top" xlink:title=" ">
<polygon fill="white" stroke="#666666" points="443.38,-85.88 252.62,-85.88 252.62,-60.62 443.38,-60.62 443.38,-85.88"/>
<text text-anchor="middle" x="348" y="-68.58" font-family="Helvetica,sans-Serif" font-size="14.00">GamePlayer::GamePlayer</text>
</a>
</g>
</g>
<!-- Node1&#45;&gt;Node2 -->
<g id="edge1_Node000001_Node000002" class="edge">
<title>Node1&#45;&gt;Node2</title>
<g id="a_edge1_Node000001_Node000002"><a xlink:title=" ">
<path fill="none" stroke="#63b8ff" stroke-width="2" d="M474.41,-60.54C464.02,-61.6 453.66,-62.65 443.6,-63.67"/>
<polygon fill="#63b8ff" stroke="#63b8ff" stroke-width="2" points="474.47,-64.06 484.07,-59.57 473.76,-57.09 474.47,-64.06"/>
</a>
</g>
</g>
<!-- Node3 -->
<g id="Node000003" class="node">
<title>Node3</title>
<g id="a_Node000003"><a xlink:href="../../df/d0d/classGamePlayer.html#a573a8771607a793889bd13431f26a674" target="_top" xlink:title=" ">
<polygon fill="white" stroke="#666666" points="451.25,-42.5 244.75,-42.5 244.75,0 451.25,0 451.25,-42.5"/>
<text text-anchor="start" x="252.75" y="-25.2" font-family="Helvetica,sans-Serif" font-size="14.00">GamePlayer::updateTexture</text>
<text text-anchor="middle" x="348" y="-7.95" font-family="Helvetica,sans-Serif" font-size="14.00">Rect</text>
</a>
</g>
</g>
<!-- Node1&#45;&gt;Node3 -->
<g id="edge2_Node000001_Node000003" class="edge">
<title>Node1&#45;&gt;Node3</title>
<g id="a_edge2_Node000001_Node000003"><a xlink:title=" ">
<path fill="none" stroke="#63b8ff" stroke-width="2" d="M474.31,-33.95C466.72,-33.18 459.15,-32.41 451.69,-31.65"/>
<polygon fill="#63b8ff" stroke="#63b8ff" stroke-width="2" points="473.76,-37.41 484.07,-34.93 474.47,-30.44 473.76,-37.41"/>
</a>
</g>
</g>
<!-- Node4 -->
<g id="Node000004" class="node">
<title>Node4</title>
<g id="a_Node000004"><a xlink:href="../../df/d0d/classGamePlayer.html#aa1d7c2cb18eae0880422842aa607343f" target="_top" xlink:title=" ">
<polygon fill="#fff0f0" stroke="red" points="208.75,-42.5 0,-42.5 0,0 208.75,0 208.75,-42.5"/>
<text text-anchor="start" x="8" y="-25.2" font-family="Helvetica,sans-Serif" font-size="14.00">GamePlayer::nextAnimation</text>
<text text-anchor="middle" x="104.38" y="-7.95" font-family="Helvetica,sans-Serif" font-size="14.00">Frame</text>
</a>
</g>
</g>
<!-- Node3&#45;&gt;Node4 -->
<g id="edge3_Node000003_Node000004" class="edge">
<title>Node3&#45;&gt;Node4</title>
<g id="a_edge3_Node000003_Node000004"><a xlink:title=" ">
<path fill="none" stroke="#63b8ff" stroke-width="2" d="M231.56,-21.25C224.09,-21.25 216.58,-21.25 209.16,-21.25"/>
<polygon fill="#63b8ff" stroke="#63b8ff" stroke-width="2" points="231.5,-24.75 241.5,-21.25 231.5,-17.75 231.5,-24.75"/>
</a>
</g>
</g>
</g>
</svg>
