<?xml version="1.0" encoding="UTF-8" standalone="no"?>
<!DOCTYPE svg PUBLIC "-//W3C//DTD SVG 1.1//EN"
 "http://www.w3.org/Graphics/SVG/1.1/DTD/svg11.dtd">
<!-- Generated by graphviz version 9.0.0 (0)
 -->
<!-- Title: GamePlayer::nextAnimationFrame Pages: 1 -->
<svg width="644pt" height="94pt"
 viewBox="0.00 0.00 644.00 93.88" xmlns="http://www.w3.org/2000/svg" xmlns:xlink="http://www.w3.org/1999/xlink">
<g id="graph0" class="graph" transform="scale(1 1) rotate(0) translate(4 89.88)">
<title>GamePlayer::nextAnimationFrame</title>
<!-- Node1 -->
<g id="Node000001" class="node">
<title>Node1</title>
<g id="a_Node000001"><a xlink:title=" ">
<polygon fill="#999999" stroke="#666666" points="636,-68.5 427.25,-68.5 427.25,-26 636,-26 636,-68.5"/>
<text text-anchor="start" x="435.25" y="-51.2" font-family="Helvetica,sans-Serif" font-size="14.00">GamePlayer::nextAnimation</text>
<text text-anchor="middle" x="531.62" y="-33.95" font-family="Helvetica,sans-Serif" font-size="14.00">Frame</text>
</a>
</g>
</g>
<!-- Node2 -->
<g id="Node000002" class="node">
<title>Node2</title>
<g id="a_Node000002"><a xlink:href="../../df/d0d/classGamePlayer.html#a5759a456d2640dabde57727de577350d" target="_top" xlink:title="Animates object.">
<polygon fill="white" stroke="#666666" points="373.62,-85.88 209.88,-85.88 209.88,-60.62 373.62,-60.62 373.62,-85.88"/>
<text text-anchor="middle" x="291.75" y="-68.58" font-family="Helvetica,sans-Serif" font-size="14.00">GamePlayer::animate</text>
</a>
</g>
</g>
<!-- Node1&#45;&gt;Node2 -->
<g id="edge1_Node000001_Node000002" class="edge">
<title>Node1&#45;&gt;Node2</title>
<g id="a_edge1_Node000001_Node000002"><a xlink:title=" ">
<path fill="none" stroke="#63b8ff" stroke-width="2" d="M414.43,-59.95C400.72,-61.45 386.96,-62.95 373.88,-64.38"/>
<polygon fill="#63b8ff" stroke="#63b8ff" stroke-width="2" points="414.41,-63.47 423.97,-58.91 413.65,-56.51 414.41,-63.47"/>
</a>
</g>
</g>
<!-- Node3 -->
<g id="Node000003" class="node">
<title>Node3</title>
<g id="a_Node000003"><a xlink:href="../../df/d0d/classGamePlayer.html#a659306ffde9d38e2a37f4fa3da5779cc" target="_top" xlink:title=" ">
<polygon fill="white" stroke="#666666" points="391.25,-42.5 192.25,-42.5 192.25,0 391.25,0 391.25,-42.5"/>
<text text-anchor="start" x="200.25" y="-25.2" font-family="Helvetica,sans-Serif" font-size="14.00">GamePlayer::setAnimation</text>
<text text-anchor="middle" x="291.75" y="-7.95" font-family="Helvetica,sans-Serif" font-size="14.00">Type</text>
</a>
</g>
</g>
<!-- Node1&#45;&gt;Node3 -->
<g id="edge2_Node000001_Node000003" class="edge">
<title>Node1&#45;&gt;Node3</title>
<g id="a_edge2_Node000001_Node000003"><a xlink:title=" ">
<path fill="none" stroke="#63b8ff" stroke-width="2" d="M414.24,-34.53C406.64,-33.7 399.03,-32.87 391.54,-32.05"/>
<polygon fill="#63b8ff" stroke="#63b8ff" stroke-width="2" points="413.65,-37.99 423.97,-35.59 414.41,-31.03 413.65,-37.99"/>
</a>
</g>
</g>
<!-- Node4 -->
<g id="Node000004" class="node">
<title>Node4</title>
<g id="a_Node000004"><a xlink:href="../../df/d0d/classGamePlayer.html#a0e9a5ad85ea5b5ab13dd5c0a95552e8f" target="_top" xlink:title="Updates state of object.">
<polygon fill="#fff0f0" stroke="red" points="156.25,-33.88 0,-33.88 0,-8.62 156.25,-8.62 156.25,-33.88"/>
<text text-anchor="middle" x="78.12" y="-16.57" font-family="Helvetica,sans-Serif" font-size="14.00">GamePlayer::update</text>
</a>
</g>
</g>
<!-- Node3&#45;&gt;Node4 -->
<g id="edge3_Node000003_Node000004" class="edge">
<title>Node3&#45;&gt;Node4</title>
<g id="a_edge3_Node000003_Node000004"><a xlink:title=" ">
<path fill="none" stroke="#63b8ff" stroke-width="2" d="M178.98,-21.25C171.4,-21.25 163.85,-21.25 156.51,-21.25"/>
<polygon fill="#63b8ff" stroke="#63b8ff" stroke-width="2" points="178.73,-24.75 188.73,-21.25 178.73,-17.75 178.73,-24.75"/>
</a>
</g>
</g>
</g>
</svg>
