<?xml version="1.0" encoding="UTF-8" standalone="no"?>
<!DOCTYPE svg PUBLIC "-//W3C//DTD SVG 1.1//EN"
 "http://www.w3.org/Graphics/SVG/1.1/DTD/svg11.dtd">
<!-- Generated by graphviz version 9.0.0 (0)
 -->
<!-- Title: GamePlayer::getAnimationTypeOf Pages: 1 -->
<svg width="616pt" height="51pt"
 viewBox="0.00 0.00 615.50 50.50" xmlns="http://www.w3.org/2000/svg" xmlns:xlink="http://www.w3.org/1999/xlink">
<g id="graph0" class="graph" transform="scale(1 1) rotate(0) translate(4 46.5)">
<title>GamePlayer::getAnimationTypeOf</title>
<!-- Node1 -->
<g id="Node000001" class="node">
<title>Node1</title>
<g id="a_Node000001"><a xlink:title=" ">
<polygon fill="#999999" stroke="#666666" points="607.5,-42.5 407,-42.5 407,0 607.5,0 607.5,-42.5"/>
<text text-anchor="start" x="415" y="-25.2" font-family="Helvetica,sans-Serif" font-size="14.00">GamePlayer::getAnimation</text>
<text text-anchor="middle" x="507.25" y="-7.95" font-family="Helvetica,sans-Serif" font-size="14.00">TypeOf</text>
</a>
</g>
</g>
<!-- Node2 -->
<g id="Node000002" class="node">
<title>Node2</title>
<g id="a_Node000002"><a xlink:href="../../df/d0d/classGamePlayer.html#a0e9a5ad85ea5b5ab13dd5c0a95552e8f" target="_top" xlink:title="Updates state of object.">
<polygon fill="white" stroke="#666666" points="371,-33.88 214.75,-33.88 214.75,-8.62 371,-8.62 371,-33.88"/>
<text text-anchor="middle" x="292.88" y="-16.57" font-family="Helvetica,sans-Serif" font-size="14.00">GamePlayer::update</text>
</a>
</g>
</g>
<!-- Node1&#45;&gt;Node2 -->
<g id="edge1_Node000001_Node000002" class="edge">
<title>Node1&#45;&gt;Node2</title>
<g id="a_edge1_Node000001_Node000002"><a xlink:title=" ">
<path fill="none" stroke="#63b8ff" stroke-width="2" d="M393.8,-21.25C386.2,-21.25 378.65,-21.25 371.29,-21.25"/>
<polygon fill="#63b8ff" stroke="#63b8ff" stroke-width="2" points="393.56,-24.75 403.56,-21.25 393.56,-17.75 393.56,-24.75"/>
</a>
</g>
</g>
<!-- Node3 -->
<g id="Node000003" class="node">
<title>Node3</title>
<g id="a_Node000003"><a xlink:href="../../d0/d8d/test2_2main_8cpp.html#a169e80ba056ef07b9e6ab592b29f32cc" target="_top" xlink:title=" ">
<polygon fill="#fff0f0" stroke="red" points="178.75,-33.88 0,-33.88 0,-8.62 178.75,-8.62 178.75,-33.88"/>
<text text-anchor="middle" x="89.38" y="-16.57" font-family="Helvetica,sans-Serif" font-size="14.00">handlePlayerMovement</text>
</a>
</g>
</g>
<!-- Node2&#45;&gt;Node3 -->
<g id="edge2_Node000002_Node000003" class="edge">
<title>Node2&#45;&gt;Node3</title>
<g id="a_edge2_Node000002_Node000003"><a xlink:title=" ">
<path fill="none" stroke="#63b8ff" stroke-width="2" d="M201.42,-21.25C193.98,-21.25 186.46,-21.25 179.04,-21.25"/>
<polygon fill="#63b8ff" stroke="#63b8ff" stroke-width="2" points="201.23,-24.75 211.23,-21.25 201.23,-17.75 201.23,-24.75"/>
</a>
</g>
</g>
</g>
</svg>
