<?xml version="1.0" encoding="UTF-8" standalone="no"?>
<!DOCTYPE svg PUBLIC "-//W3C//DTD SVG 1.1//EN"
 "http://www.w3.org/Graphics/SVG/1.1/DTD/svg11.dtd">
<!-- Generated by graphviz version 9.0.0 (0)
 -->
<!-- Title: GamePlayer::animate Pages: 1 -->
<svg width="685pt" height="176pt"
 viewBox="0.00 0.00 684.50 175.88" xmlns="http://www.w3.org/2000/svg" xmlns:xlink="http://www.w3.org/1999/xlink">
<g id="graph0" class="graph" transform="scale(1 1) rotate(0) translate(4 171.88)">
<title>GamePlayer::animate</title>
<!-- Node1 -->
<g id="Node000001" class="node">
<title>Node1</title>
<g id="a_Node000001"><a xlink:title="Animates object.">
<polygon fill="#999999" stroke="#666666" points="163.75,-124.88 0,-124.88 0,-99.62 163.75,-99.62 163.75,-124.88"/>
<text text-anchor="middle" x="81.88" y="-107.58" font-family="Helvetica,sans-Serif" font-size="14.00">GamePlayer::animate</text>
</a>
</g>
</g>
<!-- Node2 -->
<g id="Node000002" class="node">
<title>Node2</title>
<g id="a_Node000002"><a xlink:href="../../d1/db6/classEngine.html#a4fbdd2df29e30dd08de3c285cee8c128" target="_top" xlink:title="Instance getter.">
<polygon fill="white" stroke="#666666" points="390.5,-167.88 235.75,-167.88 235.75,-142.62 390.5,-142.62 390.5,-167.88"/>
<text text-anchor="middle" x="313.12" y="-150.57" font-family="Helvetica,sans-Serif" font-size="14.00">Engine::getInstance</text>
</a>
</g>
</g>
<!-- Node1&#45;&gt;Node2 -->
<g id="edge1_Node000001_Node000002" class="edge">
<title>Node1&#45;&gt;Node2</title>
<g id="a_edge1_Node000001_Node000002"><a xlink:title=" ">
<path fill="none" stroke="#63b8ff" stroke-width="2" d="M152.4,-125.35C167.98,-128.28 184.43,-131.38 199.75,-134.25 209.35,-136.05 219.41,-137.94 229.41,-139.8"/>
<polygon fill="#63b8ff" stroke="#63b8ff" stroke-width="2" points="228.54,-143.2 239.01,-141.6 229.82,-136.32 228.54,-143.2"/>
</a>
</g>
</g>
<!-- Node4 -->
<g id="Node000004" class="node">
<title>Node4</title>
<g id="a_Node000004"><a xlink:href="../../d1/db6/classEngine.html#a7882b3a1b96c425ea5692807e0765e9f" target="_top" xlink:title="Last frame duration getter.">
<polygon fill="white" stroke="#666666" points="426.5,-124.88 199.75,-124.88 199.75,-99.62 426.5,-99.62 426.5,-124.88"/>
<text text-anchor="middle" x="313.12" y="-107.58" font-family="Helvetica,sans-Serif" font-size="14.00">Engine::getLastFrameDuration</text>
</a>
</g>
</g>
<!-- Node1&#45;&gt;Node4 -->
<g id="edge3_Node000001_Node000004" class="edge">
<title>Node1&#45;&gt;Node4</title>
<g id="a_edge3_Node000001_Node000004"><a xlink:title=" ">
<path fill="none" stroke="#63b8ff" stroke-width="2" d="M164.02,-112.25C171.37,-112.25 178.91,-112.25 186.52,-112.25"/>
<polygon fill="#63b8ff" stroke="#63b8ff" stroke-width="2" points="186.34,-115.75 196.34,-112.25 186.34,-108.75 186.34,-115.75"/>
</a>
</g>
</g>
<!-- Node5 -->
<g id="Node000005" class="node">
<title>Node5</title>
<g id="a_Node000005"><a xlink:href="../../df/d0d/classGamePlayer.html#aa1d7c2cb18eae0880422842aa607343f" target="_top" xlink:title=" ">
<polygon fill="white" stroke="#666666" points="417.5,-81.5 208.75,-81.5 208.75,-39 417.5,-39 417.5,-81.5"/>
<text text-anchor="start" x="216.75" y="-64.2" font-family="Helvetica,sans-Serif" font-size="14.00">GamePlayer::nextAnimation</text>
<text text-anchor="middle" x="313.12" y="-46.95" font-family="Helvetica,sans-Serif" font-size="14.00">Frame</text>
</a>
</g>
</g>
<!-- Node1&#45;&gt;Node5 -->
<g id="edge4_Node000001_Node000005" class="edge">
<title>Node1&#45;&gt;Node5</title>
<g id="a_edge4_Node000001_Node000005"><a xlink:title=" ">
<path fill="none" stroke="#63b8ff" stroke-width="2" d="M140.72,-99.13C160,-94.76 182.13,-89.74 203.96,-84.79"/>
<polygon fill="#63b8ff" stroke="#63b8ff" stroke-width="2" points="204.46,-88.26 213.43,-82.64 202.91,-81.43 204.46,-88.26"/>
</a>
</g>
</g>
<!-- Node3 -->
<g id="Node000003" class="node">
<title>Node3</title>
<g id="a_Node000003"><a xlink:href="../../d1/db6/classEngine.html#a8c98683b0a3aa28d8ab72a8bcd0d52f2" target="_top" xlink:title="Constructor.">
<polygon fill="white" stroke="#666666" points="630,-167.88 509,-167.88 509,-142.62 630,-142.62 630,-167.88"/>
<text text-anchor="middle" x="569.5" y="-150.57" font-family="Helvetica,sans-Serif" font-size="14.00">Engine::Engine</text>
</a>
</g>
</g>
<!-- Node2&#45;&gt;Node3 -->
<g id="edge2_Node000002_Node000003" class="edge">
<title>Node2&#45;&gt;Node3</title>
<g id="a_edge2_Node000002_Node000003"><a xlink:title=" ">
<path fill="none" stroke="#63b8ff" stroke-width="2" d="M390.79,-155.25C424.11,-155.25 462.95,-155.25 495.81,-155.25"/>
<polygon fill="#63b8ff" stroke="#63b8ff" stroke-width="2" points="495.53,-158.75 505.53,-155.25 495.53,-151.75 495.53,-158.75"/>
</a>
</g>
</g>
<!-- Node6 -->
<g id="Node000006" class="node">
<title>Node6</title>
<g id="a_Node000006"><a xlink:href="../../df/d0d/classGamePlayer.html#a6f12f71676ebea5575d90e62b17090d8" target="_top" xlink:title=" ">
<polygon fill="white" stroke="#666666" points="676.5,-103.5 462.5,-103.5 462.5,-61 676.5,-61 676.5,-103.5"/>
<text text-anchor="start" x="470.5" y="-86.2" font-family="Helvetica,sans-Serif" font-size="14.00">GamePlayer::getFrameCount</text>
<text text-anchor="middle" x="569.5" y="-68.95" font-family="Helvetica,sans-Serif" font-size="14.00">OfAnimation</text>
</a>
</g>
</g>
<!-- Node5&#45;&gt;Node6 -->
<g id="edge5_Node000005_Node000006" class="edge">
<title>Node5&#45;&gt;Node6</title>
<g id="a_edge5_Node000005_Node000006"><a xlink:title=" ">
<path fill="none" stroke="#63b8ff" stroke-width="2" d="M417.96,-69.23C428.31,-70.13 438.88,-71.04 449.37,-71.95"/>
<polygon fill="#63b8ff" stroke="#63b8ff" stroke-width="2" points="448.83,-75.41 459.1,-72.79 449.43,-68.44 448.83,-75.41"/>
</a>
</g>
</g>
<!-- Node7 -->
<g id="Node000007" class="node">
<title>Node7</title>
<g id="a_Node000007"><a xlink:href="../../df/d0d/classGamePlayer.html#a573a8771607a793889bd13431f26a674" target="_top" xlink:title=" ">
<polygon fill="#fff0f0" stroke="red" points="672.75,-42.5 466.25,-42.5 466.25,0 672.75,0 672.75,-42.5"/>
<text text-anchor="start" x="474.25" y="-25.2" font-family="Helvetica,sans-Serif" font-size="14.00">GamePlayer::updateTexture</text>
<text text-anchor="middle" x="569.5" y="-7.95" font-family="Helvetica,sans-Serif" font-size="14.00">Rect</text>
</a>
</g>
</g>
<!-- Node5&#45;&gt;Node7 -->
<g id="edge6_Node000005_Node000007" class="edge">
<title>Node5&#45;&gt;Node7</title>
<g id="a_edge6_Node000005_Node000007"><a xlink:title=" ">
<path fill="none" stroke="#63b8ff" stroke-width="2" d="M417.96,-44.33C429.56,-42.55 441.43,-40.73 453.16,-38.93"/>
<polygon fill="#63b8ff" stroke="#63b8ff" stroke-width="2" points="453.48,-42.43 462.83,-37.45 452.42,-35.51 453.48,-42.43"/>
</a>
</g>
</g>
</g>
</svg>
