<?xml version="1.0" encoding="UTF-8" standalone="no"?>
<!DOCTYPE svg PUBLIC "-//W3C//DTD SVG 1.1//EN"
 "http://www.w3.org/Graphics/SVG/1.1/DTD/svg11.dtd">
<!-- Generated by graphviz version 9.0.0 (0)
 -->
<!-- Title: GamePlayer::getFrameCountOfAnimation Pages: 1 -->
<svg width="702pt" height="94pt"
 viewBox="0.00 0.00 701.75 93.88" xmlns="http://www.w3.org/2000/svg" xmlns:xlink="http://www.w3.org/1999/xlink">
<g id="graph0" class="graph" transform="scale(1 1) rotate(0) translate(4 89.88)">
<title>GamePlayer::getFrameCountOfAnimation</title>
<!-- Node1 -->
<g id="Node000001" class="node">
<title>Node1</title>
<g id="a_Node000001"><a xlink:title=" ">
<polygon fill="#999999" stroke="#666666" points="693.75,-68.5 479.75,-68.5 479.75,-26 693.75,-26 693.75,-68.5"/>
<text text-anchor="start" x="487.75" y="-51.2" font-family="Helvetica,sans-Serif" font-size="14.00">GamePlayer::getFrameCount</text>
<text text-anchor="middle" x="586.75" y="-33.95" font-family="Helvetica,sans-Serif" font-size="14.00">OfAnimation</text>
</a>
</g>
</g>
<!-- Node2 -->
<g id="Node000002" class="node">
<title>Node2</title>
<g id="a_Node000002"><a xlink:href="../../df/d0d/classGamePlayer.html#aa1d7c2cb18eae0880422842aa607343f" target="_top" xlink:title=" ">
<polygon fill="white" stroke="#666666" points="443.75,-68.5 235,-68.5 235,-26 443.75,-26 443.75,-68.5"/>
<text text-anchor="start" x="243" y="-51.2" font-family="Helvetica,sans-Serif" font-size="14.00">GamePlayer::nextAnimation</text>
<text text-anchor="middle" x="339.38" y="-33.95" font-family="Helvetica,sans-Serif" font-size="14.00">Frame</text>
</a>
</g>
</g>
<!-- Node1&#45;&gt;Node2 -->
<g id="edge1_Node000001_Node000002" class="edge">
<title>Node1&#45;&gt;Node2</title>
<g id="a_edge1_Node000001_Node000002"><a xlink:title=" ">
<path fill="none" stroke="#63b8ff" stroke-width="2" d="M466.79,-47.25C459.18,-47.25 451.55,-47.25 444.02,-47.25"/>
<polygon fill="#63b8ff" stroke="#63b8ff" stroke-width="2" points="466.53,-50.75 476.52,-47.25 466.52,-43.75 466.53,-50.75"/>
</a>
</g>
</g>
<!-- Node3 -->
<g id="Node000003" class="node">
<title>Node3</title>
<g id="a_Node000003"><a xlink:href="../../df/d0d/classGamePlayer.html#a5759a456d2640dabde57727de577350d" target="_top" xlink:title="Animates object.">
<polygon fill="white" stroke="#666666" points="181.38,-85.88 17.62,-85.88 17.62,-60.62 181.38,-60.62 181.38,-85.88"/>
<text text-anchor="middle" x="99.5" y="-68.58" font-family="Helvetica,sans-Serif" font-size="14.00">GamePlayer::animate</text>
</a>
</g>
</g>
<!-- Node2&#45;&gt;Node3 -->
<g id="edge2_Node000002_Node000003" class="edge">
<title>Node2&#45;&gt;Node3</title>
<g id="a_edge2_Node000002_Node000003"><a xlink:title=" ">
<path fill="none" stroke="#63b8ff" stroke-width="2" d="M222.18,-59.95C208.47,-61.45 194.71,-62.95 181.63,-64.38"/>
<polygon fill="#63b8ff" stroke="#63b8ff" stroke-width="2" points="222.16,-63.47 231.72,-58.91 221.4,-56.51 222.16,-63.47"/>
</a>
</g>
</g>
<!-- Node4 -->
<g id="Node000004" class="node">
<title>Node4</title>
<g id="a_Node000004"><a xlink:href="../../df/d0d/classGamePlayer.html#a659306ffde9d38e2a37f4fa3da5779cc" target="_top" xlink:title=" ">
<polygon fill="#fff0f0" stroke="red" points="199,-42.5 0,-42.5 0,0 199,0 199,-42.5"/>
<text text-anchor="start" x="8" y="-25.2" font-family="Helvetica,sans-Serif" font-size="14.00">GamePlayer::setAnimation</text>
<text text-anchor="middle" x="99.5" y="-7.95" font-family="Helvetica,sans-Serif" font-size="14.00">Type</text>
</a>
</g>
</g>
<!-- Node2&#45;&gt;Node4 -->
<g id="edge3_Node000002_Node000004" class="edge">
<title>Node2&#45;&gt;Node4</title>
<g id="a_edge3_Node000002_Node000004"><a xlink:title=" ">
<path fill="none" stroke="#63b8ff" stroke-width="2" d="M221.99,-34.53C214.39,-33.7 206.78,-32.87 199.29,-32.05"/>
<polygon fill="#63b8ff" stroke="#63b8ff" stroke-width="2" points="221.4,-37.99 231.72,-35.59 222.16,-31.03 221.4,-37.99"/>
</a>
</g>
</g>
</g>
</svg>
