<?xml version="1.0" encoding="UTF-8" standalone="no"?>
<!DOCTYPE svg PUBLIC "-//W3C//DTD SVG 1.1//EN"
 "http://www.w3.org/Graphics/SVG/1.1/DTD/svg11.dtd">
<!-- Generated by graphviz version 9.0.0 (0)
 -->
<!-- Title: GamePlayer::getRowOfAnimation Pages: 1 -->
<svg width="771pt" height="94pt"
 viewBox="0.00 0.00 770.75 93.88" xmlns="http://www.w3.org/2000/svg" xmlns:xlink="http://www.w3.org/1999/xlink">
<g id="graph0" class="graph" transform="scale(1 1) rotate(0) translate(4 89.88)">
<title>GamePlayer::getRowOfAnimation</title>
<!-- Node1 -->
<g id="Node000001" class="node">
<title>Node1</title>
<g id="a_Node000001"><a xlink:title=" ">
<polygon fill="#999999" stroke="#666666" points="762.75,-59.88 517.25,-59.88 517.25,-34.62 762.75,-34.62 762.75,-59.88"/>
<text text-anchor="middle" x="640" y="-42.58" font-family="Helvetica,sans-Serif" font-size="14.00">GamePlayer::getRowOfAnimation</text>
</a>
</g>
</g>
<!-- Node2 -->
<g id="Node000002" class="node">
<title>Node2</title>
<g id="a_Node000002"><a xlink:href="../../df/d0d/classGamePlayer.html#aba3f35d190a68d683e95c7a21b751509" target="_top" xlink:title=" ">
<polygon fill="white" stroke="#666666" points="481.25,-68.5 242.5,-68.5 242.5,-26 481.25,-26 481.25,-68.5"/>
<text text-anchor="start" x="250.5" y="-51.2" font-family="Helvetica,sans-Serif" font-size="14.00">GamePlayer::getCurrent</text>
<text text-anchor="middle" x="361.88" y="-33.95" font-family="Helvetica,sans-Serif" font-size="14.00">AnimationFrameSpriteRectangle</text>
</a>
</g>
</g>
<!-- Node1&#45;&gt;Node2 -->
<g id="edge1_Node000001_Node000002" class="edge">
<title>Node1&#45;&gt;Node2</title>
<g id="a_edge1_Node000001_Node000002"><a xlink:title=" ">
<path fill="none" stroke="#63b8ff" stroke-width="2" d="M504.27,-47.25C496.63,-47.25 488.98,-47.25 481.42,-47.25"/>
<polygon fill="#63b8ff" stroke="#63b8ff" stroke-width="2" points="504.06,-50.75 514.06,-47.25 504.06,-43.75 504.06,-50.75"/>
</a>
</g>
</g>
<!-- Node3 -->
<g id="Node000003" class="node">
<title>Node3</title>
<g id="a_Node000003"><a xlink:href="../../df/d0d/classGamePlayer.html#af0314668e232831d2f9c263596dccde6" target="_top" xlink:title=" ">
<polygon fill="white" stroke="#666666" points="198.62,-85.88 7.88,-85.88 7.88,-60.62 198.62,-60.62 198.62,-85.88"/>
<text text-anchor="middle" x="103.25" y="-68.58" font-family="Helvetica,sans-Serif" font-size="14.00">GamePlayer::GamePlayer</text>
</a>
</g>
</g>
<!-- Node2&#45;&gt;Node3 -->
<g id="edge2_Node000002_Node000003" class="edge">
<title>Node2&#45;&gt;Node3</title>
<g id="a_edge2_Node000002_Node000003"><a xlink:title=" ">
<path fill="none" stroke="#63b8ff" stroke-width="2" d="M229.66,-60.54C219.27,-61.6 208.91,-62.65 198.85,-63.67"/>
<polygon fill="#63b8ff" stroke="#63b8ff" stroke-width="2" points="229.72,-64.06 239.32,-59.57 229.01,-57.09 229.72,-64.06"/>
</a>
</g>
</g>
<!-- Node4 -->
<g id="Node000004" class="node">
<title>Node4</title>
<g id="a_Node000004"><a xlink:href="../../df/d0d/classGamePlayer.html#a573a8771607a793889bd13431f26a674" target="_top" xlink:title=" ">
<polygon fill="#fff0f0" stroke="red" points="206.5,-42.5 0,-42.5 0,0 206.5,0 206.5,-42.5"/>
<text text-anchor="start" x="8" y="-25.2" font-family="Helvetica,sans-Serif" font-size="14.00">GamePlayer::updateTexture</text>
<text text-anchor="middle" x="103.25" y="-7.95" font-family="Helvetica,sans-Serif" font-size="14.00">Rect</text>
</a>
</g>
</g>
<!-- Node2&#45;&gt;Node4 -->
<g id="edge3_Node000002_Node000004" class="edge">
<title>Node2&#45;&gt;Node4</title>
<g id="a_edge3_Node000002_Node000004"><a xlink:title=" ">
<path fill="none" stroke="#63b8ff" stroke-width="2" d="M229.56,-33.95C221.97,-33.18 214.4,-32.41 206.94,-31.65"/>
<polygon fill="#63b8ff" stroke="#63b8ff" stroke-width="2" points="229.01,-37.41 239.32,-34.93 229.72,-30.44 229.01,-37.41"/>
</a>
</g>
</g>
</g>
</svg>
