<?xml version="1.0" encoding="UTF-8" standalone="no"?>
<!DOCTYPE svg PUBLIC "-//W3C//DTD SVG 1.1//EN"
 "http://www.w3.org/Graphics/SVG/1.1/DTD/svg11.dtd">
<!-- Generated by graphviz version 9.0.0 (0)
 -->
<!-- Title: GamePlayer::nextAnimationFrame Pages: 1 -->
<svg width="742pt" height="112pt"
 viewBox="0.00 0.00 741.50 111.50" xmlns="http://www.w3.org/2000/svg" xmlns:xlink="http://www.w3.org/1999/xlink">
<g id="graph0" class="graph" transform="scale(1 1) rotate(0) translate(4 107.5)">
<title>GamePlayer::nextAnimationFrame</title>
<!-- Node1 -->
<g id="Node000001" class="node">
<title>Node1</title>
<g id="a_Node000001"><a xlink:title=" ">
<polygon fill="#999999" stroke="#666666" points="208.75,-72.5 0,-72.5 0,-30 208.75,-30 208.75,-72.5"/>
<text text-anchor="start" x="8" y="-55.2" font-family="Helvetica,sans-Serif" font-size="14.00">GamePlayer::nextAnimation</text>
<text text-anchor="middle" x="104.38" y="-37.95" font-family="Helvetica,sans-Serif" font-size="14.00">Frame</text>
</a>
</g>
</g>
<!-- Node2 -->
<g id="Node000002" class="node">
<title>Node2</title>
<g id="a_Node000002"><a xlink:href="../../df/d0d/classGamePlayer.html#a6f12f71676ebea5575d90e62b17090d8" target="_top" xlink:title=" ">
<polygon fill="white" stroke="#666666" points="458.75,-103.5 244.75,-103.5 244.75,-61 458.75,-61 458.75,-103.5"/>
<text text-anchor="start" x="252.75" y="-86.2" font-family="Helvetica,sans-Serif" font-size="14.00">GamePlayer::getFrameCount</text>
<text text-anchor="middle" x="351.75" y="-68.95" font-family="Helvetica,sans-Serif" font-size="14.00">OfAnimation</text>
</a>
</g>
</g>
<!-- Node1&#45;&gt;Node2 -->
<g id="edge1_Node000001_Node000002" class="edge">
<title>Node1&#45;&gt;Node2</title>
<g id="a_edge1_Node000001_Node000002"><a xlink:title=" ">
<path fill="none" stroke="#63b8ff" stroke-width="2" d="M209.08,-64.35C216.45,-65.28 223.91,-66.23 231.35,-67.17"/>
<polygon fill="#63b8ff" stroke="#63b8ff" stroke-width="2" points="230.91,-70.64 241.27,-68.42 231.79,-63.69 230.91,-70.64"/>
</a>
</g>
</g>
<!-- Node3 -->
<g id="Node000003" class="node">
<title>Node3</title>
<g id="a_Node000003"><a xlink:href="../../df/d0d/classGamePlayer.html#a573a8771607a793889bd13431f26a674" target="_top" xlink:title=" ">
<polygon fill="white" stroke="#666666" points="455,-42.5 248.5,-42.5 248.5,0 455,0 455,-42.5"/>
<text text-anchor="start" x="256.5" y="-25.2" font-family="Helvetica,sans-Serif" font-size="14.00">GamePlayer::updateTexture</text>
<text text-anchor="middle" x="351.75" y="-7.95" font-family="Helvetica,sans-Serif" font-size="14.00">Rect</text>
</a>
</g>
</g>
<!-- Node1&#45;&gt;Node3 -->
<g id="edge2_Node000001_Node000003" class="edge">
<title>Node1&#45;&gt;Node3</title>
<g id="a_edge2_Node000001_Node000003"><a xlink:title=" ">
<path fill="none" stroke="#63b8ff" stroke-width="2" d="M209.08,-38.57C217.78,-37.51 226.61,-36.43 235.39,-35.35"/>
<polygon fill="#63b8ff" stroke="#63b8ff" stroke-width="2" points="235.69,-38.84 245.19,-34.16 234.84,-31.9 235.69,-38.84"/>
</a>
</g>
</g>
<!-- Node4 -->
<g id="Node000004" class="node">
<title>Node4</title>
<g id="a_Node000004"><a xlink:href="../../df/d0d/classGamePlayer.html#aba3f35d190a68d683e95c7a21b751509" target="_top" xlink:title=" ">
<polygon fill="#fff0f0" stroke="red" points="733.5,-42.5 494.75,-42.5 494.75,0 733.5,0 733.5,-42.5"/>
<text text-anchor="start" x="502.75" y="-25.2" font-family="Helvetica,sans-Serif" font-size="14.00">GamePlayer::getCurrent</text>
<text text-anchor="middle" x="614.12" y="-7.95" font-family="Helvetica,sans-Serif" font-size="14.00">AnimationFrameSpriteRectangle</text>
</a>
</g>
</g>
<!-- Node3&#45;&gt;Node4 -->
<g id="edge3_Node000003_Node000004" class="edge">
<title>Node3&#45;&gt;Node4</title>
<g id="a_edge3_Node000003_Node000004"><a xlink:title=" ">
<path fill="none" stroke="#63b8ff" stroke-width="2" d="M455.28,-21.25C463.89,-21.25 472.66,-21.25 481.45,-21.25"/>
<polygon fill="#63b8ff" stroke="#63b8ff" stroke-width="2" points="481.28,-24.75 491.28,-21.25 481.28,-17.75 481.28,-24.75"/>
</a>
</g>
</g>
</g>
</svg>
