<?xml version="1.0" encoding="UTF-8" standalone="no"?>
<!DOCTYPE svg PUBLIC "-//W3C//DTD SVG 1.1//EN"
 "http://www.w3.org/Graphics/SVG/1.1/DTD/svg11.dtd">
<!-- Generated by graphviz version 9.0.0 (0)
 -->
<!-- Title: FidgetSpinner Pages: 1 -->
<svg width="172pt" height="156pt"
 viewBox="0.00 0.00 171.75 155.75" xmlns="http://www.w3.org/2000/svg" xmlns:xlink="http://www.w3.org/1999/xlink">
<g id="graph0" class="graph" transform="scale(1 1) rotate(0) translate(4 151.75)">
<title>FidgetSpinner</title>
<!-- Node1 -->
<g id="Node000001" class="node">
<title>Node1</title>
<g id="a_Node000001"><a xlink:title=" ">
<polygon fill="#999999" stroke="#666666" points="137.88,-25.25 25.87,-25.25 25.87,0 137.88,0 137.88,-25.25"/>
<text text-anchor="middle" x="81.88" y="-7.95" font-family="Helvetica,sans-Serif" font-size="14.00">FidgetSpinner</text>
</a>
</g>
</g>
<!-- Node2 -->
<g id="Node000002" class="node">
<title>Node2</title>
<g id="a_Node000002"><a xlink:href="../../d4/dcd/classAnimatedSpriteSheet.html" target="_top" xlink:title=" ">
<polygon fill="white" stroke="#666666" points="163.75,-86.5 0,-86.5 0,-61.25 163.75,-61.25 163.75,-86.5"/>
<text text-anchor="middle" x="81.88" y="-69.2" font-family="Helvetica,sans-Serif" font-size="14.00">AnimatedSpriteSheet</text>
</a>
</g>
</g>
<!-- Node2&#45;&gt;Node1 -->
<g id="edge1_Node000001_Node000002" class="edge">
<title>Node2&#45;&gt;Node1</title>
<g id="a_edge1_Node000001_Node000002"><a xlink:title=" ">
<path fill="none" stroke="#63b8ff" stroke-width="2" d="M81.88,-47.91C81.88,-40.18 81.88,-32.02 81.88,-25.6"/>
<polygon fill="#63b8ff" stroke="#63b8ff" stroke-width="2" points="78.38,-47.86 81.88,-57.86 85.38,-47.86 78.38,-47.86"/>
</a>
</g>
</g>
<!-- Node3 -->
<g id="Node000003" class="node">
<title>Node3</title>
<g id="a_Node000003"><a xlink:href="../../d7/d98/classAnimatedObject.html" target="_top" xlink:title="Animated object class.">
<polygon fill="#fff0f0" stroke="red" points="145.75,-147.75 18,-147.75 18,-122.5 145.75,-122.5 145.75,-147.75"/>
<text text-anchor="middle" x="81.88" y="-130.45" font-family="Helvetica,sans-Serif" font-size="14.00">AnimatedObject</text>
</a>
</g>
</g>
<!-- Node3&#45;&gt;Node2 -->
<g id="edge2_Node000002_Node000003" class="edge">
<title>Node3&#45;&gt;Node2</title>
<g id="a_edge2_Node000002_Node000003"><a xlink:title=" ">
<path fill="none" stroke="#63b8ff" stroke-width="2" d="M81.88,-109.16C81.88,-101.43 81.88,-93.27 81.88,-86.85"/>
<polygon fill="#63b8ff" stroke="#63b8ff" stroke-width="2" points="78.38,-109.11 81.88,-119.11 85.38,-109.11 78.38,-109.11"/>
</a>
</g>
</g>
</g>
</svg>
