<?xml version="1.0" encoding="UTF-8" standalone="no"?>
<!DOCTYPE svg PUBLIC "-//W3C//DTD SVG 1.1//EN"
 "http://www.w3.org/Graphics/SVG/1.1/DTD/svg11.dtd">
<!-- Generated by graphviz version 9.0.0 (0)
 -->
<!-- Title: lineSegment.cpp Pages: 1 -->
<svg width="2283pt" height="234pt"
 viewBox="0.00 0.00 2283.12 234.25" xmlns="http://www.w3.org/2000/svg" xmlns:xlink="http://www.w3.org/1999/xlink">
<g id="graph0" class="graph" transform="scale(1 1) rotate(0) translate(4 230.25)">
<title>lineSegment.cpp</title>
<!-- Node1 -->
<g id="Node000001" class="node">
<title>Node1</title>
<g id="a_Node000001"><a xlink:title=" ">
<polygon fill="#999999" stroke="#666666" points="508.12,-226.25 375.12,-226.25 375.12,-201 508.12,-201 508.12,-226.25"/>
<text text-anchor="middle" x="441.62" y="-208.95" font-family="Helvetica,sans-Serif" font-size="14.00">lineSegment.cpp</text>
</a>
</g>
</g>
<!-- Node2 -->
<g id="Node000002" class="node">
<title>Node2</title>
<g id="a_Node000002"><a xlink:href="../../d4/de5/lineSegment_8hpp.html" target="_top" xlink:title=" ">
<polygon fill="white" stroke="#666666" points="334.88,-156.38 200.38,-156.38 200.38,-131.12 334.88,-131.12 334.88,-156.38"/>
<text text-anchor="middle" x="267.62" y="-139.07" font-family="Helvetica,sans-Serif" font-size="14.00">lineSegment.hpp</text>
</a>
</g>
</g>
<!-- Node1&#45;&gt;Node2 -->
<g id="edge1_Node000001_Node000002" class="edge">
<title>Node1&#45;&gt;Node2</title>
<g id="a_edge1_Node000001_Node000002"><a xlink:title=" ">
<path fill="none" stroke="#63b8ff" stroke-width="2" d="M410.92,-200.65C383.01,-189.76 341.56,-173.59 310.42,-161.44"/>
<polygon fill="#63b8ff" stroke="#63b8ff" stroke-width="2" points="312.02,-158.31 301.43,-157.94 309.47,-164.83 312.02,-158.31"/>
</a>
</g>
</g>
<!-- Node3 -->
<g id="Node000003" class="node">
<title>Node3</title>
<g id="a_Node000003"><a xlink:title=" ">
<polygon fill="#e0e0e0" stroke="#999999" points="189.25,-86.5 0,-86.5 0,-61.25 189.25,-61.25 189.25,-86.5"/>
<text text-anchor="middle" x="94.62" y="-69.2" font-family="Helvetica,sans-Serif" font-size="14.00">SFML/Graphics/Color.hpp</text>
</a>
</g>
</g>
<!-- Node1&#45;&gt;Node3 -->
<g id="edge5_Node000001_Node000003" class="edge">
<title>Node1&#45;&gt;Node3</title>
<g id="a_edge5_Node000001_Node000003"><a xlink:title=" ">
<path fill="none" stroke="#63b8ff" stroke-width="2" d="M374.7,-209.94C322.4,-205.52 249.18,-194.13 191.62,-165 158.96,-148.47 129.4,-117.63 111.72,-96.68"/>
<polygon fill="#63b8ff" stroke="#63b8ff" stroke-width="2" points="114.56,-94.63 105.52,-89.1 109.14,-99.06 114.56,-94.63"/>
</a>
</g>
</g>
<!-- Node4 -->
<g id="Node000004" class="node">
<title>Node4</title>
<g id="a_Node000004"><a xlink:title=" ">
<polygon fill="#e0e0e0" stroke="#999999" points="445.12,-86.5 246.12,-86.5 246.12,-61.25 445.12,-61.25 445.12,-86.5"/>
<text text-anchor="middle" x="345.62" y="-69.2" font-family="Helvetica,sans-Serif" font-size="14.00">SFML/Graphics/Vertex.hpp</text>
</a>
</g>
</g>
<!-- Node1&#45;&gt;Node4 -->
<g id="edge7_Node000001_Node000004" class="edge">
<title>Node1&#45;&gt;Node4</title>
<g id="a_edge7_Node000001_Node000004"><a xlink:title=" ">
<path fill="none" stroke="#63b8ff" stroke-width="2" d="M433.44,-200.88C417.51,-178.02 382.09,-127.19 361.43,-97.55"/>
<polygon fill="#63b8ff" stroke="#63b8ff" stroke-width="2" points="364.38,-95.67 355.79,-89.47 358.64,-99.67 364.38,-95.67"/>
</a>
</g>
</g>
<!-- Node5 -->
<g id="Node000005" class="node">
<title>Node5</title>
<g id="a_Node000005"><a xlink:href="../../d9/d03/point2d_8hpp.html" target="_top" xlink:title=" ">
<polygon fill="#fff0f0" stroke="red" points="543,-25.25 442.25,-25.25 442.25,0 543,0 543,-25.25"/>
<text text-anchor="middle" x="492.62" y="-7.95" font-family="Helvetica,sans-Serif" font-size="14.00">point2d.hpp</text>
</a>
</g>
</g>
<!-- Node1&#45;&gt;Node5 -->
<g id="edge21_Node000001_Node000005" class="edge">
<title>Node1&#45;&gt;Node5</title>
<g id="a_edge21_Node000001_Node000005"><a xlink:title=" ">
<path fill="none" stroke="#63b8ff" stroke-width="2" d="M444.66,-200.77C452.81,-168.98 475.28,-81.31 486.33,-38.2"/>
<polygon fill="#63b8ff" stroke="#63b8ff" stroke-width="2" points="489.7,-39.16 488.79,-28.6 482.91,-37.42 489.7,-39.16"/>
</a>
</g>
</g>
<!-- Node8 -->
<g id="Node000008" class="node">
<title>Node8</title>
<g id="a_Node000008"><a xlink:title=" ">
<polygon fill="#e0e0e0" stroke="#999999" points="685.62,-165 501.62,-165 501.62,-122.5 685.62,-122.5 685.62,-165"/>
<text text-anchor="start" x="509.62" y="-147.7" font-family="Helvetica,sans-Serif" font-size="14.00">SFML/Graphics/Primitive</text>
<text text-anchor="middle" x="593.62" y="-130.45" font-family="Helvetica,sans-Serif" font-size="14.00">Type.hpp</text>
</a>
</g>
</g>
<!-- Node1&#45;&gt;Node8 -->
<g id="edge6_Node000001_Node000008" class="edge">
<title>Node1&#45;&gt;Node8</title>
<g id="a_edge6_Node000001_Node000008"><a xlink:title=" ">
<path fill="none" stroke="#63b8ff" stroke-width="2" d="M468.45,-200.65C487.03,-192.35 512.48,-180.98 535.58,-170.67"/>
<polygon fill="#63b8ff" stroke="#63b8ff" stroke-width="2" points="536.93,-173.9 544.64,-166.63 534.08,-167.51 536.93,-173.9"/>
</a>
</g>
</g>
<!-- Node9 -->
<g id="Node000009" class="node">
<title>Node9</title>
<g id="a_Node000009"><a xlink:href="../../de/d46/engine_8hpp.html" target="_top" xlink:title=" ">
<polygon fill="white" stroke="#666666" points="1469,-156.38 1374.25,-156.38 1374.25,-131.12 1469,-131.12 1469,-156.38"/>
<text text-anchor="middle" x="1421.62" y="-139.07" font-family="Helvetica,sans-Serif" font-size="14.00">engine.hpp</text>
</a>
</g>
</g>
<!-- Node1&#45;&gt;Node9 -->
<g id="edge8_Node000001_Node000009" class="edge">
<title>Node1&#45;&gt;Node9</title>
<g id="a_edge8_Node000001_Node000009"><a xlink:title=" ">
<path fill="none" stroke="#63b8ff" stroke-width="2" d="M508.6,-207.99C689.8,-195.44 1187.69,-160.95 1361.11,-148.94"/>
<polygon fill="#63b8ff" stroke="#63b8ff" stroke-width="2" points="1361.24,-152.44 1370.97,-148.26 1360.75,-145.46 1361.24,-152.44"/>
</a>
</g>
</g>
<!-- Node2&#45;&gt;Node3 -->
<g id="edge2_Node000002_Node000003" class="edge">
<title>Node2&#45;&gt;Node3</title>
<g id="a_edge2_Node000002_Node000003"><a xlink:title=" ">
<path fill="none" stroke="#63b8ff" stroke-width="2" d="M237.09,-130.77C209.35,-119.89 168.14,-103.72 137.17,-91.57"/>
<polygon fill="#63b8ff" stroke="#63b8ff" stroke-width="2" points="138.84,-88.46 128.25,-88.07 136.28,-94.98 138.84,-88.46"/>
</a>
</g>
</g>
<!-- Node2&#45;&gt;Node4 -->
<g id="edge3_Node000002_Node000004" class="edge">
<title>Node2&#45;&gt;Node4</title>
<g id="a_edge3_Node000002_Node000004"><a xlink:title=" ">
<path fill="none" stroke="#63b8ff" stroke-width="2" d="M281.21,-130.93C292.55,-121.06 308.97,-106.78 322.39,-95.1"/>
<polygon fill="#63b8ff" stroke="#63b8ff" stroke-width="2" points="324.4,-97.98 329.65,-88.78 319.81,-92.7 324.4,-97.98"/>
</a>
</g>
</g>
<!-- Node2&#45;&gt;Node5 -->
<g id="edge4_Node000002_Node000005" class="edge">
<title>Node2&#45;&gt;Node5</title>
<g id="a_edge4_Node000002_Node000005"><a xlink:title=" ">
<path fill="none" stroke="#63b8ff" stroke-width="2" d="M256.2,-130.72C241.36,-113.63 219.3,-82.09 236.62,-61.25 260.65,-32.34 361.47,-20.9 429.19,-16.42"/>
<polygon fill="#63b8ff" stroke="#63b8ff" stroke-width="2" points="429.05,-19.94 438.82,-15.83 428.62,-12.95 429.05,-19.94"/>
</a>
</g>
</g>
<!-- Node9&#45;&gt;Node5 -->
<g id="edge17_Node000009_Node000005" class="edge">
<title>Node9&#45;&gt;Node5</title>
<g id="a_edge17_Node000009_Node000005"><a xlink:title=" ">
<path fill="none" stroke="#63b8ff" stroke-width="2" d="M1373.84,-142.45C1199.13,-140.98 601.52,-132.6 530.62,-86.5 513.73,-75.51 503.91,-54.47 498.5,-37.8"/>
<polygon fill="#63b8ff" stroke="#63b8ff" stroke-width="2" points="501.98,-37.24 495.88,-28.57 495.24,-39.15 501.98,-37.24"/>
</a>
</g>
</g>
<!-- Node10 -->
<g id="Node000010" class="node">
<title>Node10</title>
<g id="a_Node000010"><a xlink:title=" ">
<polygon fill="#e0e0e0" stroke="#999999" points="797.75,-86.5 539.5,-86.5 539.5,-61.25 797.75,-61.25 797.75,-86.5"/>
<text text-anchor="middle" x="668.62" y="-69.2" font-family="Helvetica,sans-Serif" font-size="14.00">SFML/Graphics/RenderWindow.hpp</text>
</a>
</g>
</g>
<!-- Node9&#45;&gt;Node10 -->
<g id="edge9_Node000009_Node000010" class="edge">
<title>Node9&#45;&gt;Node10</title>
<g id="a_edge9_Node000009_Node000010"><a xlink:title=" ">
<path fill="none" stroke="#63b8ff" stroke-width="2" d="M1373.95,-138.45C1262.83,-128.44 983.03,-103.21 811.1,-87.72"/>
<polygon fill="#63b8ff" stroke="#63b8ff" stroke-width="2" points="811.44,-84.23 801.16,-86.82 810.81,-91.21 811.44,-84.23"/>
</a>
</g>
</g>
<!-- Node11 -->
<g id="Node000011" class="node">
<title>Node11</title>
<g id="a_Node000011"><a xlink:title=" ">
<polygon fill="#e0e0e0" stroke="#999999" points="1013.75,-86.5 815.5,-86.5 815.5,-61.25 1013.75,-61.25 1013.75,-86.5"/>
<text text-anchor="middle" x="914.62" y="-69.2" font-family="Helvetica,sans-Serif" font-size="14.00">SFML/Graphics/Shape.hpp</text>
</a>
</g>
</g>
<!-- Node9&#45;&gt;Node11 -->
<g id="edge10_Node000009_Node000011" class="edge">
<title>Node9&#45;&gt;Node11</title>
<g id="a_edge10_Node000009_Node000011"><a xlink:title=" ">
<path fill="none" stroke="#63b8ff" stroke-width="2" d="M1373.93,-136.36C1292.83,-125.51 1126.33,-103.22 1017.65,-88.67"/>
<polygon fill="#63b8ff" stroke="#63b8ff" stroke-width="2" points="1018.4,-85.24 1008.02,-87.38 1017.47,-92.18 1018.4,-85.24"/>
</a>
</g>
</g>
<!-- Node12 -->
<g id="Node000012" class="node">
<title>Node12</title>
<g id="a_Node000012"><a xlink:title=" ">
<polygon fill="#e0e0e0" stroke="#999999" points="1213.88,-86.5 1031.38,-86.5 1031.38,-61.25 1213.88,-61.25 1213.88,-86.5"/>
<text text-anchor="middle" x="1122.62" y="-69.2" font-family="Helvetica,sans-Serif" font-size="14.00">SFML/System/Clock.hpp</text>
</a>
</g>
</g>
<!-- Node9&#45;&gt;Node12 -->
<g id="edge11_Node000009_Node000012" class="edge">
<title>Node9&#45;&gt;Node12</title>
<g id="a_edge11_Node000009_Node000012"><a xlink:title=" ">
<path fill="none" stroke="#63b8ff" stroke-width="2" d="M1373.92,-131.92C1323.82,-120.55 1244.69,-102.58 1188.62,-89.86"/>
<polygon fill="#63b8ff" stroke="#63b8ff" stroke-width="2" points="1189.44,-86.45 1178.92,-87.65 1187.9,-93.28 1189.44,-86.45"/>
</a>
</g>
</g>
<!-- Node13 -->
<g id="Node000013" class="node">
<title>Node13</title>
<g id="a_Node000013"><a xlink:title=" ">
<polygon fill="#e0e0e0" stroke="#999999" points="1411,-86.5 1232.25,-86.5 1232.25,-61.25 1411,-61.25 1411,-86.5"/>
<text text-anchor="middle" x="1321.62" y="-69.2" font-family="Helvetica,sans-Serif" font-size="14.00">SFML/System/Time.hpp</text>
</a>
</g>
</g>
<!-- Node9&#45;&gt;Node13 -->
<g id="edge12_Node000009_Node000013" class="edge">
<title>Node9&#45;&gt;Node13</title>
<g id="a_edge12_Node000009_Node000013"><a xlink:title=" ">
<path fill="none" stroke="#63b8ff" stroke-width="2" d="M1404.21,-130.93C1389.24,-120.77 1367.38,-105.93 1349.91,-94.07"/>
<polygon fill="#63b8ff" stroke="#63b8ff" stroke-width="2" points="1351.92,-91.21 1341.68,-88.49 1347.99,-97 1351.92,-91.21"/>
</a>
</g>
</g>
<!-- Node14 -->
<g id="Node000014" class="node">
<title>Node14</title>
<g id="a_Node000014"><a xlink:title=" ">
<polygon fill="#e0e0e0" stroke="#999999" points="1616.5,-86.5 1428.75,-86.5 1428.75,-61.25 1616.5,-61.25 1616.5,-86.5"/>
<text text-anchor="middle" x="1522.62" y="-69.2" font-family="Helvetica,sans-Serif" font-size="14.00">SFML/Window/Event.hpp</text>
</a>
</g>
</g>
<!-- Node9&#45;&gt;Node14 -->
<g id="edge13_Node000009_Node000014" class="edge">
<title>Node9&#45;&gt;Node14</title>
<g id="a_edge13_Node000009_Node000014"><a xlink:title=" ">
<path fill="none" stroke="#63b8ff" stroke-width="2" d="M1439.22,-130.93C1454.4,-120.72 1476.62,-105.79 1494.31,-93.9"/>
<polygon fill="#63b8ff" stroke="#63b8ff" stroke-width="2" points="1496.03,-96.96 1502.38,-88.48 1492.13,-91.15 1496.03,-96.96"/>
</a>
</g>
</g>
<!-- Node15 -->
<g id="Node000015" class="node">
<title>Node15</title>
<g id="a_Node000015"><a xlink:href="../../dc/d3e/animatedObject_8hpp.html" target="_top" xlink:title=" ">
<polygon fill="#fff0f0" stroke="red" points="1792.5,-86.5 1634.75,-86.5 1634.75,-61.25 1792.5,-61.25 1792.5,-86.5"/>
<text text-anchor="middle" x="1713.62" y="-69.2" font-family="Helvetica,sans-Serif" font-size="14.00">animatedObject.hpp</text>
</a>
</g>
</g>
<!-- Node9&#45;&gt;Node15 -->
<g id="edge14_Node000009_Node000015" class="edge">
<title>Node9&#45;&gt;Node15</title>
<g id="a_edge14_Node000009_Node000015"><a xlink:title=" ">
<path fill="none" stroke="#63b8ff" stroke-width="2" d="M1469.19,-131.69C1518.11,-120.32 1594.64,-102.53 1649.02,-89.89"/>
<polygon fill="#63b8ff" stroke="#63b8ff" stroke-width="2" points="1649.75,-93.32 1658.7,-87.64 1648.16,-86.5 1649.75,-93.32"/>
</a>
</g>
</g>
<!-- Node21 -->
<g id="Node000021" class="node">
<title>Node21</title>
<g id="a_Node000021"><a xlink:href="../../d4/d3d/log_8hpp.html" target="_top" xlink:title=" ">
<polygon fill="#fff0f0" stroke="red" points="1878.88,-86.5 1810.38,-86.5 1810.38,-61.25 1878.88,-61.25 1878.88,-86.5"/>
<text text-anchor="middle" x="1844.62" y="-69.2" font-family="Helvetica,sans-Serif" font-size="14.00">log.hpp</text>
</a>
</g>
</g>
<!-- Node9&#45;&gt;Node21 -->
<g id="edge16_Node000009_Node000021" class="edge">
<title>Node9&#45;&gt;Node21</title>
<g id="a_edge16_Node000009_Node000021"><a xlink:title=" ">
<path fill="none" stroke="#63b8ff" stroke-width="2" d="M1469.33,-137.51C1539.24,-129.43 1673.81,-112.38 1797.29,-87.24"/>
<polygon fill="#63b8ff" stroke="#63b8ff" stroke-width="2" points="1797.93,-90.68 1807.01,-85.23 1796.51,-83.82 1797.93,-90.68"/>
</a>
</g>
</g>
<!-- Node17 -->
<g id="Node000017" class="node">
<title>Node17</title>
<g id="a_Node000017"><a xlink:title=" ">
<polygon fill="#e0e0e0" stroke="#999999" points="2116.62,-86.5 1896.62,-86.5 1896.62,-61.25 2116.62,-61.25 2116.62,-86.5"/>
<text text-anchor="middle" x="2006.62" y="-69.2" font-family="Helvetica,sans-Serif" font-size="14.00">SFML/Graphics/Drawable.hpp</text>
</a>
</g>
</g>
<!-- Node9&#45;&gt;Node17 -->
<g id="edge18_Node000009_Node000017" class="edge">
<title>Node9&#45;&gt;Node17</title>
<g id="a_edge18_Node000009_Node000017"><a xlink:title=" ">
<path fill="none" stroke="#63b8ff" stroke-width="2" d="M1469.5,-137.2C1560.54,-126.63 1761.01,-103.37 1889.64,-88.45"/>
<polygon fill="#63b8ff" stroke="#63b8ff" stroke-width="2" points="1889.7,-91.96 1899.23,-87.34 1888.9,-85.01 1889.7,-91.96"/>
</a>
</g>
</g>
<!-- Node22 -->
<g id="Node000022" class="node">
<title>Node22</title>
<g id="a_Node000022"><a xlink:title=" ">
<polygon fill="#e0e0e0" stroke="#999999" points="2220.12,-86.5 2135.12,-86.5 2135.12,-61.25 2220.12,-61.25 2220.12,-86.5"/>
<text text-anchor="middle" x="2177.62" y="-69.2" font-family="Helvetica,sans-Serif" font-size="14.00">functional</text>
</a>
</g>
</g>
<!-- Node9&#45;&gt;Node22 -->
<g id="edge19_Node000009_Node000022" class="edge">
<title>Node9&#45;&gt;Node22</title>
<g id="a_edge19_Node000009_Node000022"><a xlink:title=" ">
<path fill="none" stroke="#63b8ff" stroke-width="2" d="M1469.27,-141.25C1581.36,-137.22 1870.6,-123.97 2122.16,-86.83"/>
<polygon fill="#63b8ff" stroke="#63b8ff" stroke-width="2" points="2122.5,-90.32 2131.87,-85.38 2121.46,-83.4 2122.5,-90.32"/>
</a>
</g>
</g>
<!-- Node23 -->
<g id="Node000023" class="node">
<title>Node23</title>
<g id="a_Node000023"><a xlink:title=" ">
<polygon fill="#e0e0e0" stroke="#999999" points="2275.12,-86.5 2238.12,-86.5 2238.12,-61.25 2275.12,-61.25 2275.12,-86.5"/>
<text text-anchor="middle" x="2256.62" y="-69.2" font-family="Helvetica,sans-Serif" font-size="14.00">set</text>
</a>
</g>
</g>
<!-- Node9&#45;&gt;Node23 -->
<g id="edge20_Node000009_Node000023" class="edge">
<title>Node9&#45;&gt;Node23</title>
<g id="a_edge20_Node000009_Node000023"><a xlink:title=" ">
<path fill="none" stroke="#63b8ff" stroke-width="2" d="M1469.24,-141.53C1615.92,-137.46 2060.47,-122.65 2225.41,-86.8"/>
<polygon fill="#63b8ff" stroke="#63b8ff" stroke-width="2" points="2225.82,-90.3 2234.78,-84.63 2224.24,-83.48 2225.82,-90.3"/>
</a>
</g>
</g>
<!-- Node15&#45;&gt;Node5 -->
<g id="edge15_Node000015_Node000005" class="edge">
<title>Node15&#45;&gt;Node5</title>
<g id="a_edge15_Node000015_Node000005"><a xlink:title=" ">
<path fill="none" stroke="#63b8ff" stroke-width="2" d="M1634.51,-62.08C1631.51,-61.78 1628.54,-61.5 1625.62,-61.25 1219.18,-25.93 728.35,-16.59 556.07,-14.31"/>
<polygon fill="#63b8ff" stroke="#63b8ff" stroke-width="2" points="556.34,-10.81 546.29,-14.18 556.25,-17.81 556.34,-10.81"/>
</a>
</g>
</g>
</g>
</svg>
