<?xml version="1.0" encoding="UTF-8" standalone="no"?>
<!DOCTYPE svg PUBLIC "-//W3C//DTD SVG 1.1//EN"
 "http://www.w3.org/Graphics/SVG/1.1/DTD/svg11.dtd">
<!-- Generated by graphviz version 9.0.0 (0)
 -->
<!-- Title: Point2d::getX Pages: 1 -->
<svg width="611pt" height="154pt"
 viewBox="0.00 0.00 610.50 153.50" xmlns="http://www.w3.org/2000/svg" xmlns:xlink="http://www.w3.org/1999/xlink">
<g id="graph0" class="graph" transform="scale(1 1) rotate(0) translate(4 149.5)">
<title>Point2d::getX</title>
<!-- Node1 -->
<g id="Node000001" class="node">
<title>Node1</title>
<g id="a_Node000001"><a xlink:title="X co&#45;ordinate getter.">
<polygon fill="#999999" stroke="#666666" points="602.5,-103.5 492.75,-103.5 492.75,-78.25 602.5,-78.25 602.5,-103.5"/>
<text text-anchor="middle" x="547.62" y="-86.2" font-family="Helvetica,sans-Serif" font-size="14.00">Point2d::getX</text>
</a>
</g>
</g>
<!-- Node2 -->
<g id="Node000002" class="node">
<title>Node2</title>
<g id="a_Node000002"><a xlink:href="../../d1/db6/classEngine.html#a02c2a593986272b2fdddee11420bc8ad" target="_top" xlink:title="Builds the window.">
<polygon fill="white" stroke="#666666" points="249.5,-145.5 87.25,-145.5 87.25,-120.25 249.5,-120.25 249.5,-145.5"/>
<text text-anchor="middle" x="168.38" y="-128.2" font-family="Helvetica,sans-Serif" font-size="14.00">Engine::buildWindow</text>
</a>
</g>
</g>
<!-- Node1&#45;&gt;Node2 -->
<g id="edge1_Node000001_Node000002" class="edge">
<title>Node1&#45;&gt;Node2</title>
<g id="a_edge1_Node000001_Node000002"><a xlink:title=" ">
<path fill="none" stroke="#63b8ff" stroke-width="2" d="M487.25,-106.92C477.13,-109.22 466.68,-111.33 456.75,-112.88 387.45,-123.69 307.83,-128.66 249.99,-130.94"/>
<polygon fill="#63b8ff" stroke="#63b8ff" stroke-width="2" points="487.95,-110.35 496.87,-104.63 486.34,-103.54 487.95,-110.35"/>
</a>
</g>
</g>
<!-- Node4 -->
<g id="Node000004" class="node">
<title>Node4</title>
<g id="a_Node000004"><a xlink:href="../../d1/db6/classEngine.html#ad1e8214e8ca9f436d27a7246dd908d9c" target="_top" xlink:title="Handles events.">
<polygon fill="white" stroke="#666666" points="455.25,-103.5 287.75,-103.5 287.75,-78.25 455.25,-78.25 455.25,-103.5"/>
<text text-anchor="middle" x="371.5" y="-86.2" font-family="Helvetica,sans-Serif" font-size="14.00">Engine::handleEvents</text>
</a>
</g>
</g>
<!-- Node1&#45;&gt;Node4 -->
<g id="edge3_Node000001_Node000004" class="edge">
<title>Node1&#45;&gt;Node4</title>
<g id="a_edge3_Node000001_Node000004"><a xlink:title=" ">
<path fill="none" stroke="#63b8ff" stroke-width="2" d="M479.58,-90.88C471.76,-90.88 463.7,-90.88 455.7,-90.88"/>
<polygon fill="#63b8ff" stroke="#63b8ff" stroke-width="2" points="479.46,-94.38 489.46,-90.88 479.46,-87.38 479.46,-94.38"/>
</a>
</g>
</g>
<!-- Node6 -->
<g id="Node000006" class="node">
<title>Node6</title>
<g id="a_Node000006"><a xlink:href="../../d1/d0c/structAnimatedSpriteSheet_1_1AnimationFrameData.html#a233fd12ae819923dfe42a3a37fc26024" target="_top" xlink:title=" ">
<polygon fill="white" stroke="#666666" points="456.75,-59.75 286.25,-59.75 286.25,0 456.75,0 456.75,-59.75"/>
<text text-anchor="start" x="294.25" y="-42.45" font-family="Helvetica,sans-Serif" font-size="14.00">AnimatedSpriteSheet</text>
<text text-anchor="start" x="294.25" y="-25.2" font-family="Helvetica,sans-Serif" font-size="14.00">::AnimationFrameData</text>
<text text-anchor="middle" x="371.5" y="-7.95" font-family="Helvetica,sans-Serif" font-size="14.00">::toIntRect</text>
</a>
</g>
</g>
<!-- Node1&#45;&gt;Node6 -->
<g id="edge6_Node000001_Node000006" class="edge">
<title>Node1&#45;&gt;Node6</title>
<g id="a_edge6_Node000001_Node000006"><a xlink:title=" ">
<path fill="none" stroke="#63b8ff" stroke-width="2" d="M497.2,-73.56C484.64,-69.16 470.79,-64.31 457.02,-59.49"/>
<polygon fill="#63b8ff" stroke="#63b8ff" stroke-width="2" points="495.82,-76.79 506.41,-76.79 498.13,-70.18 495.82,-76.79"/>
</a>
</g>
</g>
<!-- Node3 -->
<g id="Node000003" class="node">
<title>Node3</title>
<g id="a_Node000003"><a xlink:href="../../d4/d15/test_2main_8cpp.html#ae66f6b31b5ad750f1fe042a706a4e3d4" target="_top" xlink:title=" ">
<polygon fill="white" stroke="#666666" points="50.5,-123.5 0,-123.5 0,-98.25 50.5,-98.25 50.5,-123.5"/>
<text text-anchor="middle" x="25.25" y="-106.2" font-family="Helvetica,sans-Serif" font-size="14.00">main</text>
</a>
</g>
</g>
<!-- Node2&#45;&gt;Node3 -->
<g id="edge2_Node000002_Node000003" class="edge">
<title>Node2&#45;&gt;Node3</title>
<g id="a_edge2_Node000002_Node000003"><a xlink:title=" ">
<path fill="none" stroke="#63b8ff" stroke-width="2" d="M74.22,-118.35C65.74,-117.03 57.75,-115.79 50.81,-114.7"/>
<polygon fill="#63b8ff" stroke="#63b8ff" stroke-width="2" points="73.51,-121.78 83.93,-119.87 74.59,-114.87 73.51,-121.78"/>
</a>
</g>
</g>
<!-- Node5 -->
<g id="Node000005" class="node">
<title>Node5</title>
<g id="a_Node000005"><a xlink:href="../../d1/db6/classEngine.html#a514f8d788ced7c6508b8b6f9ef66ccb1" target="_top" xlink:title="The main loop.">
<polygon fill="white" stroke="#666666" points="219.5,-102.5 117.25,-102.5 117.25,-77.25 219.5,-77.25 219.5,-102.5"/>
<text text-anchor="middle" x="168.38" y="-85.2" font-family="Helvetica,sans-Serif" font-size="14.00">Engine::loop</text>
</a>
</g>
</g>
<!-- Node4&#45;&gt;Node5 -->
<g id="edge4_Node000004_Node000005" class="edge">
<title>Node4&#45;&gt;Node5</title>
<g id="a_edge4_Node000004_Node000005"><a xlink:title=" ">
<path fill="none" stroke="#63b8ff" stroke-width="2" d="M274.53,-90.4C255.65,-90.3 236.55,-90.21 219.91,-90.13"/>
<polygon fill="#63b8ff" stroke="#63b8ff" stroke-width="2" points="274.49,-93.9 284.51,-90.45 274.52,-86.9 274.49,-93.9"/>
</a>
</g>
</g>
<!-- Node5&#45;&gt;Node3 -->
<g id="edge5_Node000005_Node000003" class="edge">
<title>Node5&#45;&gt;Node3</title>
<g id="a_edge5_Node000005_Node000003"><a xlink:title=" ">
<path fill="none" stroke="#63b8ff" stroke-width="2" d="M103.95,-99.31C85.09,-102.12 65.54,-105.03 50.77,-107.23"/>
<polygon fill="#63b8ff" stroke="#63b8ff" stroke-width="2" points="104.45,-102.78 113.83,-97.84 103.42,-95.85 104.45,-102.78"/>
</a>
</g>
</g>
<!-- Node7 -->
<g id="Node000007" class="node">
<title>Node7</title>
<g id="a_Node000007"><a xlink:href="../../d4/dcd/classAnimatedSpriteSheet.html#a220da560115e8b9b4b6a823deab4cce7" target="_top" xlink:title=" ">
<polygon fill="#fff0f0" stroke="red" points="250.25,-51.12 86.5,-51.12 86.5,-8.62 250.25,-8.62 250.25,-51.12"/>
<text text-anchor="start" x="94.5" y="-33.83" font-family="Helvetica,sans-Serif" font-size="14.00">AnimatedSpriteSheet</text>
<text text-anchor="middle" x="168.38" y="-16.57" font-family="Helvetica,sans-Serif" font-size="14.00">::setFrame</text>
</a>
</g>
</g>
<!-- Node6&#45;&gt;Node7 -->
<g id="edge7_Node000006_Node000007" class="edge">
<title>Node6&#45;&gt;Node7</title>
<g id="a_edge7_Node000006_Node000007"><a xlink:title=" ">
<path fill="none" stroke="#63b8ff" stroke-width="2" d="M272.81,-29.88C265.33,-29.88 257.82,-29.88 250.46,-29.88"/>
<polygon fill="#63b8ff" stroke="#63b8ff" stroke-width="2" points="272.76,-33.38 282.76,-29.88 272.76,-26.38 272.76,-33.38"/>
</a>
</g>
</g>
</g>
</svg>
