<?xml version="1.0" encoding="UTF-8" standalone="no"?>
<!DOCTYPE svg PUBLIC "-//W3C//DTD SVG 1.1//EN"
 "http://www.w3.org/Graphics/SVG/1.1/DTD/svg11.dtd">
<!-- Generated by graphviz version 9.0.0 (0)
 -->
<!-- Title: Point2d::toVector2f Pages: 1 -->
<!--zoomable 388 -->

<svg id="main" version="1.1" xmlns="http://www.w3.org/2000/svg" xmlns:xlink="http://www.w3.org/1999/xlink" xml:space="preserve" onload="init(evt)">
<style type="text/css"><![CDATA[
.node, .edge {opacity: 0.7;}
.node.selected, .edge.selected {opacity: 1;}
.edge:hover path { stroke: red; }
.edge:hover polygon { stroke: red; fill: red; }
]]></style>

<defs>
  <circle id="rim" cx="0" cy="0" r="7"/>
  <circle id="rim2" cx="0" cy="0" r="3.5"/>
  <g id="zoomPlus">
    <use xlink:href="#rim" fill="#404040"><set attributeName="fill" to="#808080" begin="zoomplus.mouseover" end="zoomplus.mouseout"/></use>
    <path d="M-4,0h8M0,-4v8" fill="none" stroke="white" stroke-width="1.5" pointer-events="none"/>
  </g>
  <g id="zoomMin">
    <use xlink:href="#rim" fill="#404040"><set attributeName="fill" to="#808080" begin="zoomminus.mouseover" end="zoomminus.mouseout"/></use>
    <path d="M-4,0h8" fill="none" stroke="white" stroke-width="1.5" pointer-events="none"/>
  </g>
  <g id="arrowUp" transform="translate(30 24)">
    <use xlink:href="#rim"/>
    <path pointer-events="none" fill="none" stroke="white" stroke-width="1.5" d="M0,-3.0v7 M-2.5,-0.5L0,-3.0L2.5,-0.5"/>
  </g>
  <g id="arrowRight" transform="rotate(90) translate(36 -43)">
    <use xlink:href="#rim"/>
    <path pointer-events="none" fill="none" stroke="white" stroke-width="1.5" d="M0,-3.0v7 M-2.5,-0.5L0,-3.0L2.5,-0.5"/>
  </g>
  <g id="arrowDown" transform="rotate(180) translate(-30 -48)">
    <use xlink:href="#rim"/>
    <path pointer-events="none" fill="none" stroke="white" stroke-width="1.5" d="M0,-3.0v7 M-2.5,-0.5L0,-3.0L2.5,-0.5"/>
  </g>
  <g id="arrowLeft" transform="rotate(270) translate(-36 17)">
    <use xlink:href="#rim"/>
    <path pointer-events="none" fill="none" stroke="white" stroke-width="1.5" d="M0,-3.0v7 M-2.5,-0.5L0,-3.0L2.5,-0.5"/>
  </g>
  <g id="resetDef">
    <use xlink:href="#rim2" fill="#404040"><set attributeName="fill" to="#808080" begin="reset.mouseover" end="reset.mouseout"/></use>
  </g>
</defs>
<script type="application/ecmascript">
var viewWidth = 614;
var viewHeight = 388;
var sectionId = 'dynsection-6';
</script>
<script type="application/ecmascript" xlink:href="../../svg.min.js"/>
<svg id="graph" class="graph">
<g id="viewport">
<title>Point2d::toVector2f</title>
<!-- Node1 -->
<g id="Node000001" class="node">
<title>Node1</title>
<g id="a_Node000001"><a xlink:title="Convert to Vector2f.">
<polygon fill="#999999" stroke="#666666" points="606,-206.88 457.25,-206.88 457.25,-181.62 606,-181.62 606,-206.88"/>
<text text-anchor="middle" x="531.62" y="-189.57" font-family="Helvetica,sans-Serif" font-size="14.00">Point2d::toVector2f</text>
</a>
</g>
</g>
<!-- Node2 -->
<g id="Node000002" class="node">
<title>Node2</title>
<g id="a_Node000002"><a xlink:href="../../de/dde/classFidgetSpinner.html#a80e61da4d714d0079085a6dbd42669f5" target="_top" xlink:title=" ">
<polygon fill="white" stroke="#666666" points="421.25,-379.88 205,-379.88 205,-354.62 421.25,-354.62 421.25,-379.88"/>
<text text-anchor="middle" x="313.12" y="-362.57" font-family="Helvetica,sans-Serif" font-size="14.00">FidgetSpinner::FidgetSpinner</text>
</a>
</g>
</g>
<!-- Node1&#45;&gt;Node2 -->
<g id="edge1_Node000001_Node000002" class="edge">
<title>Node1&#45;&gt;Node2</title>
<g id="a_edge1_Node000001_Node000002"><a xlink:title=" ">
<path fill="none" stroke="#63b8ff" stroke-width="2" d="M519.9,-218.93C503.72,-253.05 469.72,-313.96 421.25,-345.25 415.83,-348.75 409.95,-351.71 403.85,-354.21"/>
<polygon fill="#63b8ff" stroke="#63b8ff" stroke-width="2" points="522.99,-220.58 523.96,-210.03 516.62,-217.67 522.99,-220.58"/>
</a>
</g>
</g>
<!-- Node3 -->
<g id="Node000003" class="node">
<title>Node3</title>
<g id="a_Node000003"><a xlink:href="../../de/dc2/classobstacle_1_1LineSegment.html#aade2dd06524809fe088e9d480376e289" target="_top" xlink:title=" ">
<polygon fill="white" stroke="#666666" points="399.88,-336.5 226.38,-336.5 226.38,-294 399.88,-294 399.88,-336.5"/>
<text text-anchor="start" x="234.38" y="-319.2" font-family="Helvetica,sans-Serif" font-size="14.00">obstacle::LineSegment</text>
<text text-anchor="middle" x="313.12" y="-301.95" font-family="Helvetica,sans-Serif" font-size="14.00">::LineSegment</text>
</a>
</g>
</g>
<!-- Node1&#45;&gt;Node3 -->
<g id="edge2_Node000001_Node000003" class="edge">
<title>Node1&#45;&gt;Node3</title>
<g id="a_edge2_Node000001_Node000003"><a xlink:title=" ">
<path fill="none" stroke="#63b8ff" stroke-width="2" d="M509.71,-216.36C489.06,-236.98 455.64,-267.19 421.25,-285.25 414.58,-288.75 407.46,-291.88 400.17,-294.67"/>
<polygon fill="#63b8ff" stroke="#63b8ff" stroke-width="2" points="512.16,-218.86 516.66,-209.27 507.16,-213.96 512.16,-218.86"/>
</a>
</g>
</g>
<!-- Node4 -->
<g id="Node000004" class="node">
<title>Node4</title>
<g id="a_Node000004"><a xlink:href="../../d7/d98/classAnimatedObject.html#a5b162cbcdd8071e24b155f1318b9200f" target="_top" xlink:title="Translates object in space.">
<polygon fill="white" stroke="#666666" points="400.62,-275.88 225.62,-275.88 225.62,-250.62 400.62,-250.62 400.62,-275.88"/>
<text text-anchor="middle" x="313.12" y="-258.57" font-family="Helvetica,sans-Serif" font-size="14.00">AnimatedObject::move</text>
</a>
</g>
</g>
<!-- Node1&#45;&gt;Node4 -->
<g id="edge3_Node000001_Node000004" class="edge">
<title>Node1&#45;&gt;Node4</title>
<g id="a_edge3_Node000001_Node000004"><a xlink:title=" ">
<path fill="none" stroke="#63b8ff" stroke-width="2" d="M493.64,-212.91C472.81,-222.8 446.06,-234.48 421.25,-242.25 411.76,-245.22 401.65,-247.86 391.58,-250.18"/>
<polygon fill="#63b8ff" stroke="#63b8ff" stroke-width="2" points="494.96,-216.16 502.44,-208.66 491.91,-209.86 494.96,-216.16"/>
</a>
</g>
</g>
<!-- Node5 -->
<g id="Node000005" class="node">
<title>Node5</title>
<g id="a_Node000005"><a xlink:href="../../dc/df0/classBall.html#a9f827d14cbaeb11f50ce4f9741577acb" target="_top" xlink:title="Translates object in space.">
<polygon fill="white" stroke="#666666" points="357.5,-232.88 268.75,-232.88 268.75,-207.62 357.5,-207.62 357.5,-232.88"/>
<text text-anchor="middle" x="313.12" y="-215.57" font-family="Helvetica,sans-Serif" font-size="14.00">Ball::move</text>
</a>
</g>
</g>
<!-- Node1&#45;&gt;Node5 -->
<g id="edge4_Node000001_Node000005" class="edge">
<title>Node1&#45;&gt;Node5</title>
<g id="a_edge4_Node000001_Node000005"><a xlink:title=" ">
<path fill="none" stroke="#63b8ff" stroke-width="2" d="M444.46,-204.6C414.75,-208.17 382.73,-212.01 357.85,-215"/>
<polygon fill="#63b8ff" stroke="#63b8ff" stroke-width="2" points="444.51,-208.12 454.02,-203.45 443.67,-201.17 444.51,-208.12"/>
</a>
</g>
</g>
<!-- Node10 -->
<g id="Node000010" class="node">
<title>Node10</title>
<g id="a_Node000010"><a xlink:href="../../de/dc2/classobstacle_1_1LineSegment.html#aeaf906f9403066bc96fb24223230600d" target="_top" xlink:title=" ">
<polygon fill="white" stroke="#666666" points="399.88,-189.5 226.38,-189.5 226.38,-147 399.88,-147 399.88,-189.5"/>
<text text-anchor="start" x="234.38" y="-172.2" font-family="Helvetica,sans-Serif" font-size="14.00">obstacle::LineSegment</text>
<text text-anchor="middle" x="313.12" y="-154.95" font-family="Helvetica,sans-Serif" font-size="14.00">::setEnd</text>
</a>
</g>
</g>
<!-- Node1&#45;&gt;Node10 -->
<g id="edge6_Node000001_Node000010" class="edge">
<title>Node1&#45;&gt;Node10</title>
<g id="a_edge6_Node000001_Node000010"><a xlink:title=" ">
<path fill="none" stroke="#63b8ff" stroke-width="2" d="M444.41,-183.9C429.87,-182.15 414.76,-180.34 400.22,-178.59"/>
<polygon fill="#63b8ff" stroke="#63b8ff" stroke-width="2" points="443.67,-187.33 454.02,-185.05 444.51,-180.38 443.67,-187.33"/>
</a>
</g>
</g>
<!-- Node11 -->
<g id="Node000011" class="node">
<title>Node11</title>
<g id="a_Node000011"><a xlink:href="../../d7/d98/classAnimatedObject.html#a23735fe8dd7121de14e2c7862689de2f" target="_top" xlink:title="Object position setter.">
<polygon fill="white" stroke="#666666" points="419,-128.88 207.25,-128.88 207.25,-103.62 419,-103.62 419,-128.88"/>
<text text-anchor="middle" x="313.12" y="-111.58" font-family="Helvetica,sans-Serif" font-size="14.00">AnimatedObject::setPosition</text>
</a>
</g>
</g>
<!-- Node1&#45;&gt;Node11 -->
<g id="edge7_Node000001_Node000011" class="edge">
<title>Node1&#45;&gt;Node11</title>
<g id="a_edge7_Node000001_Node000011"><a xlink:title=" ">
<path fill="none" stroke="#63b8ff" stroke-width="2" d="M498.33,-174.77C477.08,-162.71 448.3,-147.75 421.25,-138.25 411.49,-134.82 401.03,-131.85 390.61,-129.31"/>
<polygon fill="#63b8ff" stroke="#63b8ff" stroke-width="2" points="496.58,-177.8 506.98,-179.79 500.09,-171.75 496.58,-177.8"/>
</a>
</g>
</g>
<!-- Node14 -->
<g id="Node000014" class="node">
<title>Node14</title>
<g id="a_Node000014"><a xlink:href="../../dc/df0/classBall.html#a77f731cabaa2fdf06c96f3b11f2df2b5" target="_top" xlink:title=" ">
<polygon fill="white" stroke="#666666" points="374,-85.88 252.25,-85.88 252.25,-60.62 374,-60.62 374,-85.88"/>
<text text-anchor="middle" x="313.12" y="-68.58" font-family="Helvetica,sans-Serif" font-size="14.00">Ball::setPositon</text>
</a>
</g>
</g>
<!-- Node1&#45;&gt;Node14 -->
<g id="edge10_Node000001_Node000014" class="edge">
<title>Node1&#45;&gt;Node14</title>
<g id="a_edge10_Node000001_Node000014"><a xlink:title=" ">
<path fill="none" stroke="#63b8ff" stroke-width="2" d="M512.65,-171.74C492.81,-148.53 458.7,-113.14 421.25,-94.25 406.87,-87 390.22,-82.24 374.41,-79.13"/>
<polygon fill="#63b8ff" stroke="#63b8ff" stroke-width="2" points="509.69,-173.66 518.78,-179.11 515.08,-169.19 509.69,-173.66"/>
</a>
</g>
</g>
<!-- Node18 -->
<g id="Node000018" class="node">
<title>Node18</title>
<g id="a_Node000018"><a xlink:href="../../de/dc2/classobstacle_1_1LineSegment.html#a51cfb5ac3b10d1a4b703db8c01c39193" target="_top" xlink:title=" ">
<polygon fill="white" stroke="#666666" points="399.88,-42.5 226.38,-42.5 226.38,0 399.88,0 399.88,-42.5"/>
<text text-anchor="start" x="234.38" y="-25.2" font-family="Helvetica,sans-Serif" font-size="14.00">obstacle::LineSegment</text>
<text text-anchor="middle" x="313.12" y="-7.95" font-family="Helvetica,sans-Serif" font-size="14.00">::setStart</text>
</a>
</g>
</g>
<!-- Node1&#45;&gt;Node18 -->
<g id="edge12_Node000001_Node000018" class="edge">
<title>Node1&#45;&gt;Node18</title>
<g id="a_edge12_Node000001_Node000018"><a xlink:title=" ">
<path fill="none" stroke="#63b8ff" stroke-width="2" d="M518.51,-169.95C501.28,-137.92 466.71,-82.05 421.25,-51.25 414.77,-46.86 407.67,-43.11 400.29,-39.91"/>
<polygon fill="#63b8ff" stroke="#63b8ff" stroke-width="2" points="515.31,-171.39 523.03,-178.64 521.52,-168.16 515.31,-171.39"/>
</a>
</g>
</g>
<!-- Node6 -->
<g id="Node000006" class="node">
<title>Node6</title>
<g id="a_Node000006"><a xlink:href="../../dc/df0/classBall.html#af30f4707d26a6e7ba0af1dd8cac37684" target="_top" xlink:title="Updates state of object.">
<polygon fill="#fff0f0" stroke="red" points="134.12,-232.88 34.88,-232.88 34.88,-207.62 134.12,-207.62 134.12,-232.88"/>
<text text-anchor="middle" x="84.5" y="-215.57" font-family="Helvetica,sans-Serif" font-size="14.00">Ball::update</text>
</a>
</g>
</g>
<!-- Node5&#45;&gt;Node6 -->
<g id="edge5_Node000005_Node000006" class="edge">
<title>Node5&#45;&gt;Node6</title>
<g id="a_edge5_Node000005_Node000006"><a xlink:title=" ">
<path fill="none" stroke="#63b8ff" stroke-width="2" d="M255.76,-220.25C218.53,-220.25 170.22,-220.25 134.57,-220.25"/>
<polygon fill="#63b8ff" stroke="#63b8ff" stroke-width="2" points="255.4,-223.75 265.4,-220.25 255.4,-216.75 255.4,-223.75"/>
</a>
</g>
</g>
<!-- Node12 -->
<g id="Node000012" class="node">
<title>Node12</title>
<g id="a_Node000012"><a xlink:href="../../d0/d8d/test2_2main_8cpp.html#a849ba9190b5ca833d4d046dc6327c9b4" target="_top" xlink:title=" ">
<polygon fill="#fff0f0" stroke="red" points="169,-171.88 0,-171.88 0,-146.62 169,-146.62 169,-171.88"/>
<text text-anchor="middle" x="84.5" y="-154.57" font-family="Helvetica,sans-Serif" font-size="14.00">initializeFidgetSpinner</text>
</a>
</g>
</g>
<!-- Node11&#45;&gt;Node12 -->
<g id="edge8_Node000011_Node000012" class="edge">
<title>Node11&#45;&gt;Node12</title>
<g id="a_edge8_Node000011_Node000012"><a xlink:title=" ">
<path fill="none" stroke="#63b8ff" stroke-width="2" d="M230.42,-131.75C205.54,-136.47 178.44,-141.62 154.48,-146.16"/>
<polygon fill="#63b8ff" stroke="#63b8ff" stroke-width="2" points="231.06,-135.19 240.23,-129.89 229.76,-128.32 231.06,-135.19"/>
</a>
</g>
</g>
<!-- Node13 -->
<g id="Node000013" class="node">
<title>Node13</title>
<g id="a_Node000013"><a xlink:href="../../d8/d19/test3_2main_8cpp.html#ae66f6b31b5ad750f1fe042a706a4e3d4" target="_top" xlink:title=" ">
<polygon fill="white" stroke="#666666" points="109.75,-128.88 59.25,-128.88 59.25,-103.62 109.75,-103.62 109.75,-128.88"/>
<text text-anchor="middle" x="84.5" y="-111.58" font-family="Helvetica,sans-Serif" font-size="14.00">main</text>
</a>
</g>
</g>
<!-- Node11&#45;&gt;Node13 -->
<g id="edge9_Node000011_Node000013" class="edge">
<title>Node11&#45;&gt;Node13</title>
<g id="a_edge9_Node000011_Node000013"><a xlink:title=" ">
<path fill="none" stroke="#63b8ff" stroke-width="2" d="M194.07,-116.25C162.19,-116.25 130.81,-116.25 110.05,-116.25"/>
<polygon fill="#63b8ff" stroke="#63b8ff" stroke-width="2" points="193.75,-119.75 203.75,-116.25 193.75,-112.75 193.75,-119.75"/>
</a>
</g>
</g>
<!-- Node15 -->
<g id="Node000015" class="node">
<title>Node15</title>
<g id="a_Node000015"><a xlink:href="../../d0/d8d/test2_2main_8cpp.html#a319d411c82633d6148bab1419aa7bb18" target="_top" xlink:title=" ">
<polygon fill="#fff0f0" stroke="red" points="124.75,-85.88 44.25,-85.88 44.25,-60.62 124.75,-60.62 124.75,-85.88"/>
<text text-anchor="middle" x="84.5" y="-68.58" font-family="Helvetica,sans-Serif" font-size="14.00">throwBall</text>
</a>
</g>
</g>
<!-- Node14&#45;&gt;Node15 -->
<g id="edge11_Node000014_Node000015" class="edge">
<title>Node14&#45;&gt;Node15</title>
<g id="a_edge11_Node000014_Node000015"><a xlink:title=" ">
<path fill="none" stroke="#63b8ff" stroke-width="2" d="M239.44,-73.25C201.55,-73.25 156.67,-73.25 125.18,-73.25"/>
<polygon fill="#63b8ff" stroke="#63b8ff" stroke-width="2" points="238.96,-76.75 248.96,-73.25 238.96,-69.75 238.96,-76.75"/>
</a>
</g>
</g>
</g>
</svg>

<g id="navigator" transform="translate(0 0)" fill="#404254">
  <rect fill="#f2f5e9" fill-opacity="0.5" stroke="#606060" stroke-width=".5" x="0" y="0" width="60" height="60"/>
  <use id="zoomplus" xlink:href="#zoomPlus" x="17" y="9" onmousedown="handleZoom(evt,'in')"/>
  <use id="zoomminus" xlink:href="#zoomMin" x="42" y="9" onmousedown="handleZoom(evt,'out')"/>
  <use id="reset" xlink:href="#resetDef" x="30" y="36" onmousedown="handleReset()"/>
   <use id="arrowup" xlink:href="#arrowUp" x="0" y="0" onmousedown="handlePan(0,-1)"/>
  <use id="arrowright" xlink:href="#arrowRight" x="0" y="0" onmousedown="handlePan(1,0)"/>
  <use id="arrowdown" xlink:href="#arrowDown" x="0" y="0" onmousedown="handlePan(0,1)"/>
  <use id="arrowleft" xlink:href="#arrowLeft" x="0" y="0" onmousedown="handlePan(-1,0)"/>
</g>
<svg viewBox="0 0 15 15" width="100%" height="30px" preserveAspectRatio="xMaxYMin meet">
 <g id="arrow_out" transform="scale(0.3 0.3)">
  <a xlink:href="classPoint2d_a67d1225067ee31870cd80f774ac8f0b3_icgraph_org.svg" target="_base">
   <rect id="button" ry="5" rx="5" y="6" x="6" height="38" width="38"
        fill="#f2f5e9" fill-opacity="0.5" stroke="#606060" stroke-width="1.0"/>
   <path id="arrow"
     d="M 11.500037,31.436501 C 11.940474,20.09759 22.043105,11.32322 32.158766,21.979434 L 37.068811,17.246167 C 37.068811,17.246167 37.088388,32 37.088388,32 L 22.160133,31.978069 C 22.160133,31.978069 26.997745,27.140456 26.997745,27.140456 C 18.528582,18.264221 13.291696,25.230495 11.500037,31.436501 z"
     style="fill:#404040;"/>
  </a>
 </g>
</svg>

<style type='text/css'>
<![CDATA[
[data-mouse-over-selected='false'] { opacity: 0.7; }
[data-mouse-over-selected='true']  { opacity: 1.0; }
]]>
</style>
<script type="application/ecmascript"><![CDATA[
document.addEventListener('DOMContentLoaded', (event) => {
  highlightEdges();
  highlightAdjacentNodes();
});
]]></script>
</svg>
