<?xml version="1.0" encoding="UTF-8" standalone="no"?>
<!DOCTYPE svg PUBLIC "-//W3C//DTD SVG 1.1//EN"
 "http://www.w3.org/Graphics/SVG/1.1/DTD/svg11.dtd">
<!-- Generated by graphviz version 9.0.0 (0)
 -->
<!-- Title: point2d.hpp Pages: 1 -->
<svg width="296pt" height="95pt"
 viewBox="0.00 0.00 295.88 94.50" xmlns="http://www.w3.org/2000/svg" xmlns:xlink="http://www.w3.org/1999/xlink">
<g id="graph0" class="graph" transform="scale(1 1) rotate(0) translate(4 90.5)">
<title>point2d.hpp</title>
<!-- Node1 -->
<g id="Node000001" class="node">
<title>Node1</title>
<g id="a_Node000001"><a xlink:title=" ">
<polygon fill="#999999" stroke="#666666" points="225.12,-86.5 124.38,-86.5 124.38,-61.25 225.12,-61.25 225.12,-86.5"/>
<text text-anchor="middle" x="174.75" y="-69.2" font-family="Helvetica,sans-Serif" font-size="14.00">point2d.hpp</text>
</a>
</g>
</g>
<!-- Node2 -->
<g id="Node000002" class="node">
<title>Node2</title>
<g id="a_Node000002"><a xlink:title=" ">
<polygon fill="#e0e0e0" stroke="#999999" points="197.5,-25.25 0,-25.25 0,0 197.5,0 197.5,-25.25"/>
<text text-anchor="middle" x="98.75" y="-7.95" font-family="Helvetica,sans-Serif" font-size="14.00">SFML/System/Vector2.hpp</text>
</a>
</g>
</g>
<!-- Node1&#45;&gt;Node2 -->
<g id="edge1_Node000001_Node000002" class="edge">
<title>Node1&#45;&gt;Node2</title>
<g id="a_edge1_Node000001_Node000002"><a xlink:title=" ">
<path fill="none" stroke="#63b8ff" stroke-width="2" d="M159.37,-60.88C149.27,-53.01 135.83,-42.53 124.17,-33.44"/>
<polygon fill="#63b8ff" stroke="#63b8ff" stroke-width="2" points="126.53,-30.85 116.49,-27.46 122.23,-36.37 126.53,-30.85"/>
</a>
</g>
</g>
<!-- Node3 -->
<g id="Node000003" class="node">
<title>Node3</title>
<g id="a_Node000003"><a xlink:title=" ">
<polygon fill="#e0e0e0" stroke="#999999" points="287.88,-25.25 215.62,-25.25 215.62,0 287.88,0 287.88,-25.25"/>
<text text-anchor="middle" x="251.75" y="-7.95" font-family="Helvetica,sans-Serif" font-size="14.00">ostream</text>
</a>
</g>
</g>
<!-- Node1&#45;&gt;Node3 -->
<g id="edge2_Node000001_Node000003" class="edge">
<title>Node1&#45;&gt;Node3</title>
<g id="a_edge2_Node000001_Node000003"><a xlink:title=" ">
<path fill="none" stroke="#63b8ff" stroke-width="2" d="M190.33,-60.88C200.56,-53.01 214.18,-42.53 226,-33.44"/>
<polygon fill="#63b8ff" stroke="#63b8ff" stroke-width="2" points="228,-36.32 233.79,-27.44 223.73,-30.77 228,-36.32"/>
</a>
</g>
</g>
</g>
</svg>
