<?xml version="1.0" encoding="UTF-8" standalone="no"?>
<!DOCTYPE svg PUBLIC "-//W3C//DTD SVG 1.1//EN"
 "http://www.w3.org/Graphics/SVG/1.1/DTD/svg11.dtd">
<!-- Generated by graphviz version 9.0.0 (0)
 -->
<!-- Title: Player Pages: 1 -->
<svg width="389pt" height="156pt"
 viewBox="0.00 0.00 389.00 155.75" xmlns="http://www.w3.org/2000/svg" xmlns:xlink="http://www.w3.org/1999/xlink">

<svg id="main" version="1.1" xmlns="http://www.w3.org/2000/svg" xmlns:xlink="http://www.w3.org/1999/xlink" xml:space="preserve" onload="init(evt)">
<style type="text/css"><![CDATA[
.node, .edge {opacity: 0.7;}
.node.selected, .edge.selected {opacity: 1;}
.edge:hover path { stroke: red; }
.edge:hover polygon { stroke: red; fill: red; }
]]></style>
<script type="application/ecmascript" xlink:href="../../svg.min.js"/>
<svg id="graph" class="graph">
<g id="graph0" class="graph" transform="scale(1 1) rotate(0) translate(4 151.75)">
<title>Player</title>
<!-- Node1 -->
<g id="Node000001" class="node">
<title>Node1</title>
<g id="a_Node000001"><a xlink:title="Player class.">
<polygon fill="#999999" stroke="#666666" points="264.12,-25.25 205.38,-25.25 205.38,0 264.12,0 264.12,-25.25"/>
<text text-anchor="middle" x="234.75" y="-7.95" font-family="Helvetica,sans-Serif" font-size="14.00">Player</text>
</a>
</g>
</g>
<!-- Node2 -->
<g id="Node000002" class="node">
<title>Node2</title>
<g id="a_Node000002"><a xlink:href="../../d7/d98/classAnimatedObject.html" target="_top" xlink:title="Animated object class.">
<polygon fill="white" stroke="#666666" points="222.62,-86.5 94.88,-86.5 94.88,-61.25 222.62,-61.25 222.62,-86.5"/>
<text text-anchor="middle" x="158.75" y="-69.2" font-family="Helvetica,sans-Serif" font-size="14.00">AnimatedObject</text>
</a>
</g>
</g>
<!-- Node2&#45;&gt;Node1 -->
<g id="edge1_Node000001_Node000002" class="edge">
<title>Node2&#45;&gt;Node1</title>
<g id="a_edge1_Node000001_Node000002"><a xlink:title=" ">
<path fill="none" stroke="#63b8ff" stroke-width="2" d="M184.2,-53.04C195.86,-43.94 209.3,-33.46 219.39,-25.6"/>
<polygon fill="#63b8ff" stroke="#63b8ff" stroke-width="2" points="182.25,-50.12 176.52,-59.02 186.56,-55.64 182.25,-50.12"/>
</a>
</g>
</g>
<!-- Node3 -->
<g id="Node000003" class="node">
<title>Node3</title>
<g id="a_Node000003"><a xlink:href="../../de/d1c/classGameObject.html" target="_top" xlink:title="Game object class.">
<polygon fill="#fff0f0" stroke="red" points="101.5,-147.75 0,-147.75 0,-122.5 101.5,-122.5 101.5,-147.75"/>
<text text-anchor="middle" x="50.75" y="-130.45" font-family="Helvetica,sans-Serif" font-size="14.00">GameObject</text>
</a>
</g>
</g>
<!-- Node3&#45;&gt;Node2 -->
<g id="edge2_Node000002_Node000003" class="edge">
<title>Node3&#45;&gt;Node2</title>
<g id="a_edge2_Node000002_Node000003"><a xlink:title=" ">
<path fill="none" stroke="#63b8ff" stroke-width="2" d="M83.89,-115.94C101.13,-106.49 121.71,-95.2 136.93,-86.85"/>
<polygon fill="#63b8ff" stroke="#63b8ff" stroke-width="2" points="82.34,-112.8 75.26,-120.68 85.71,-118.94 82.34,-112.8"/>
</a>
</g>
</g>
<!-- Node5 -->
<g id="Node000005" class="node">
<title>Node5</title>
<g id="a_Node000005"><a xlink:title=" ">
<polygon fill="white" stroke="#666666" points="197.88,-147.75 119.62,-147.75 119.62,-122.5 197.88,-122.5 197.88,-147.75"/>
<text text-anchor="middle" x="158.75" y="-130.45" font-family="Helvetica,sans-Serif" font-size="14.00">sf::Sprite</text>
</a>
</g>
</g>
<!-- Node5&#45;&gt;Node2 -->
<g id="edge3_Node000002_Node000005" class="edge">
<title>Node5&#45;&gt;Node2</title>
<g id="a_edge3_Node000002_Node000005"><a xlink:title=" ">
<path fill="none" stroke="#63b8ff" stroke-width="2" d="M158.75,-109.16C158.75,-101.43 158.75,-93.27 158.75,-86.85"/>
<polygon fill="#63b8ff" stroke="#63b8ff" stroke-width="2" points="155.25,-109.11 158.75,-119.11 162.25,-109.11 155.25,-109.11"/>
</a>
</g>
</g>
<!-- Node6 -->
<g id="Node000006" class="node">
<title>Node6</title>
<g id="a_Node000006"><a xlink:title=" ">
<polygon fill="white" stroke="#666666" points="303.38,-147.75 216.12,-147.75 216.12,-122.5 303.38,-122.5 303.38,-147.75"/>
<text text-anchor="middle" x="259.75" y="-130.45" font-family="Helvetica,sans-Serif" font-size="14.00">sf::Texture</text>
</a>
</g>
</g>
<!-- Node6&#45;&gt;Node2 -->
<g id="edge4_Node000002_Node000006" class="edge">
<title>Node6&#45;&gt;Node2</title>
<g id="a_edge4_Node000002_Node000006"><a xlink:title=" ">
<path fill="none" stroke="#63b8ff" stroke-width="2" d="M228.29,-115.67C212.27,-106.27 193.25,-95.12 179.16,-86.85"/>
<polygon fill="#63b8ff" stroke="#63b8ff" stroke-width="2" points="226.3,-118.56 236.7,-120.6 229.85,-112.52 226.3,-118.56"/>
</a>
</g>
</g>
<!-- Node7 -->
<g id="Node000007" class="node">
<title>Node7</title>
<g id="a_Node000007"><a xlink:href="../../de/dd3/classUpdateableObject.html" target="_top" xlink:title="Updateable object class.">
<polygon fill="white" stroke="#666666" points="381,-86.5 240.5,-86.5 240.5,-61.25 381,-61.25 381,-86.5"/>
<text text-anchor="middle" x="310.75" y="-69.2" font-family="Helvetica,sans-Serif" font-size="14.00">UpdateableObject</text>
</a>
</g>
</g>
<!-- Node7&#45;&gt;Node1 -->
<g id="edge5_Node000001_Node000007" class="edge">
<title>Node7&#45;&gt;Node1</title>
<g id="a_edge5_Node000001_Node000007"><a xlink:title=" ">
<path fill="none" stroke="#63b8ff" stroke-width="2" d="M285.3,-53.04C273.64,-43.94 260.2,-33.46 250.11,-25.6"/>
<polygon fill="#63b8ff" stroke="#63b8ff" stroke-width="2" points="282.94,-55.64 292.98,-59.02 287.25,-50.12 282.94,-55.64"/>
</a>
</g>
</g>
</g>
</svg>
</svg>

<style type='text/css'>
<![CDATA[
[data-mouse-over-selected='false'] { opacity: 0.7; }
[data-mouse-over-selected='true']  { opacity: 1.0; }
]]>
</style>
<script type="application/ecmascript"><![CDATA[
document.addEventListener('DOMContentLoaded', (event) => {
  highlightEdges();
  highlightAdjacentNodes();
});
]]></script>
</svg>
