<?xml version="1.0" encoding="UTF-8" standalone="no"?>
<!DOCTYPE svg PUBLIC "-//W3C//DTD SVG 1.1//EN"
 "http://www.w3.org/Graphics/SVG/1.1/DTD/svg11.dtd">
<!-- Generated by graphviz version 9.0.0 (0)
 -->
<!-- Title: log.hpp Pages: 1 -->
<svg width="1791pt" height="217pt"
 viewBox="0.00 0.00 1790.62 217.00" xmlns="http://www.w3.org/2000/svg" xmlns:xlink="http://www.w3.org/1999/xlink">
<g id="graph0" class="graph" transform="scale(1 1) rotate(0) translate(4 213)">
<title>log.hpp</title>
<!-- Node1 -->
<g id="Node000001" class="node">
<title>Node1</title>
<g id="a_Node000001"><a xlink:title=" ">
<polygon fill="#999999" stroke="#666666" points="806.38,-209 737.88,-209 737.88,-183.75 806.38,-183.75 806.38,-209"/>
<text text-anchor="middle" x="772.12" y="-191.7" font-family="Helvetica,sans-Serif" font-size="14.00">log.hpp</text>
</a>
</g>
</g>
<!-- Node2 -->
<g id="Node000002" class="node">
<title>Node2</title>
<g id="a_Node000002"><a xlink:href="../../d4/d2b/GameObject_8cpp.html" target="_top" xlink:title=" ">
<polygon fill="white" stroke="#666666" points="342.88,-147.75 211.38,-147.75 211.38,-122.5 342.88,-122.5 342.88,-147.75"/>
<text text-anchor="middle" x="277.12" y="-130.45" font-family="Helvetica,sans-Serif" font-size="14.00">GameObject.cpp</text>
</a>
</g>
</g>
<!-- Node1&#45;&gt;Node2 -->
<g id="edge1_Node000001_Node000002" class="edge">
<title>Node1&#45;&gt;Node2</title>
<g id="a_edge1_Node000001_Node000002"><a xlink:title=" ">
<path fill="none" stroke="#63b8ff" stroke-width="2" d="M724.83,-190.65C646.99,-182.73 487.06,-165.85 352.12,-147.75 349.25,-147.36 346.32,-146.96 343.36,-146.54"/>
<polygon fill="#63b8ff" stroke="#63b8ff" stroke-width="2" points="724.18,-194.1 734.48,-191.63 724.89,-187.14 724.18,-194.1"/>
</a>
</g>
</g>
<!-- Node3 -->
<g id="Node000003" class="node">
<title>Node3</title>
<g id="a_Node000003"><a xlink:href="../../d4/dea/animatedObject_8cpp.html" target="_top" xlink:title=" ">
<polygon fill="white" stroke="#666666" points="517.25,-147.75 361,-147.75 361,-122.5 517.25,-122.5 517.25,-147.75"/>
<text text-anchor="middle" x="439.12" y="-130.45" font-family="Helvetica,sans-Serif" font-size="14.00">animatedObject.cpp</text>
</a>
</g>
</g>
<!-- Node1&#45;&gt;Node3 -->
<g id="edge2_Node000001_Node000003" class="edge">
<title>Node1&#45;&gt;Node3</title>
<g id="a_edge2_Node000001_Node000003"><a xlink:title=" ">
<path fill="none" stroke="#63b8ff" stroke-width="2" d="M724.88,-186.97C667.98,-176.84 571.99,-159.76 507.13,-148.22"/>
<polygon fill="#63b8ff" stroke="#63b8ff" stroke-width="2" points="723.99,-190.37 734.45,-188.67 725.22,-183.47 723.99,-190.37"/>
</a>
</g>
</g>
<!-- Node4 -->
<g id="Node000004" class="node">
<title>Node4</title>
<g id="a_Node000004"><a xlink:href="../../df/db1/animatedSpriteSheet_8cpp.html" target="_top" xlink:title=" ">
<polygon fill="white" stroke="#666666" points="192.25,-86.5 0,-86.5 0,-61.25 192.25,-61.25 192.25,-86.5"/>
<text text-anchor="middle" x="96.12" y="-69.2" font-family="Helvetica,sans-Serif" font-size="14.00">animatedSpriteSheet.cpp</text>
</a>
</g>
</g>
<!-- Node1&#45;&gt;Node4 -->
<g id="edge3_Node000001_Node000004" class="edge">
<title>Node1&#45;&gt;Node4</title>
<g id="a_edge3_Node000001_Node000004"><a xlink:title=" ">
<path fill="none" stroke="#63b8ff" stroke-width="2" d="M724.71,-190.72C680.25,-184.99 612.77,-172.78 559.12,-147.75 542.39,-139.94 543.26,-129.38 526.12,-122.5 525.16,-122.11 319.1,-99.4 192.62,-85.48"/>
<polygon fill="#63b8ff" stroke="#63b8ff" stroke-width="2" points="724.1,-194.17 734.45,-191.89 724.94,-187.22 724.1,-194.17"/>
</a>
</g>
</g>
<!-- Node5 -->
<g id="Node000005" class="node">
<title>Node5</title>
<g id="a_Node000005"><a xlink:href="../../d5/d25/ball_8cpp.html" target="_top" xlink:title=" ">
<polygon fill="white" stroke="#666666" points="281.5,-86.5 210.75,-86.5 210.75,-61.25 281.5,-61.25 281.5,-86.5"/>
<text text-anchor="middle" x="246.12" y="-69.2" font-family="Helvetica,sans-Serif" font-size="14.00">ball.cpp</text>
</a>
</g>
</g>
<!-- Node1&#45;&gt;Node5 -->
<g id="edge4_Node000001_Node000005" class="edge">
<title>Node1&#45;&gt;Node5</title>
<g id="a_edge4_Node000001_Node000005"><a xlink:title=" ">
<path fill="none" stroke="#63b8ff" stroke-width="2" d="M724.86,-186.81C688.82,-179.27 638.49,-166.53 597.12,-147.75 578.66,-139.37 578.1,-129.64 559.12,-122.5 446.65,-80.16 409.07,-109.57 291.12,-86.5 288.12,-85.91 285.01,-85.24 281.9,-84.53"/>
<polygon fill="#63b8ff" stroke="#63b8ff" stroke-width="2" points="723.99,-190.2 734.49,-188.75 725.38,-183.34 723.99,-190.2"/>
</a>
</g>
</g>
<!-- Node6 -->
<g id="Node000006" class="node">
<title>Node6</title>
<g id="a_Node000006"><a xlink:href="../../d4/d23/bush_8cpp.html" target="_top" xlink:title=" ">
<polygon fill="white" stroke="#666666" points="380.38,-86.5 299.88,-86.5 299.88,-61.25 380.38,-61.25 380.38,-86.5"/>
<text text-anchor="middle" x="340.12" y="-69.2" font-family="Helvetica,sans-Serif" font-size="14.00">bush.cpp</text>
</a>
</g>
</g>
<!-- Node1&#45;&gt;Node6 -->
<g id="edge5_Node000001_Node000006" class="edge">
<title>Node1&#45;&gt;Node6</title>
<g id="a_edge5_Node000001_Node000006"><a xlink:title=" ">
<path fill="none" stroke="#63b8ff" stroke-width="2" d="M725.41,-182.34C698.35,-174.02 664.04,-162.1 635.12,-147.75 616.96,-138.74 615.96,-130 597.12,-122.5 509.96,-87.79 481.03,-105.34 389.12,-86.5 386.38,-85.94 383.56,-85.34 380.72,-84.71"/>
<polygon fill="#63b8ff" stroke="#63b8ff" stroke-width="2" points="724.18,-185.63 734.76,-185.15 726.19,-178.93 724.18,-185.63"/>
</a>
</g>
</g>
<!-- Node7 -->
<g id="Node000007" class="node">
<title>Node7</title>
<g id="a_Node000007"><a xlink:href="../../da/d5c/engine_8cpp.html" target="_top" xlink:title=" ">
<polygon fill="white" stroke="#666666" points="491.75,-86.5 398.5,-86.5 398.5,-61.25 491.75,-61.25 491.75,-86.5"/>
<text text-anchor="middle" x="445.12" y="-69.2" font-family="Helvetica,sans-Serif" font-size="14.00">engine.cpp</text>
</a>
</g>
</g>
<!-- Node1&#45;&gt;Node7 -->
<g id="edge6_Node000001_Node000007" class="edge">
<title>Node1&#45;&gt;Node7</title>
<g id="a_edge6_Node000001_Node000007"><a xlink:title=" ">
<path fill="none" stroke="#63b8ff" stroke-width="2" d="M732.9,-178.03C714.46,-169.49 692.34,-158.69 673.12,-147.75 655.5,-137.72 653.67,-130.69 635.12,-122.5 622.02,-116.71 543.85,-97.91 491.95,-85.73"/>
<polygon fill="#63b8ff" stroke="#63b8ff" stroke-width="2" points="731.41,-181.19 741.96,-182.17 734.32,-174.83 731.41,-181.19"/>
</a>
</g>
</g>
<!-- Node8 -->
<g id="Node000008" class="node">
<title>Node8</title>
<g id="a_Node000008"><a xlink:href="../../de/d46/engine_8hpp.html" target="_top" xlink:title=" ">
<polygon fill="white" stroke="#666666" points="819.5,-147.75 724.75,-147.75 724.75,-122.5 819.5,-122.5 819.5,-147.75"/>
<text text-anchor="middle" x="772.12" y="-130.45" font-family="Helvetica,sans-Serif" font-size="14.00">engine.hpp</text>
</a>
</g>
</g>
<!-- Node1&#45;&gt;Node8 -->
<g id="edge7_Node000001_Node000008" class="edge">
<title>Node1&#45;&gt;Node8</title>
<g id="a_edge7_Node000001_Node000008"><a xlink:title=" ">
<path fill="none" stroke="#63b8ff" stroke-width="2" d="M772.12,-170.41C772.12,-162.68 772.12,-154.52 772.12,-148.1"/>
<polygon fill="#63b8ff" stroke="#63b8ff" stroke-width="2" points="768.63,-170.36 772.13,-180.36 775.63,-170.36 768.63,-170.36"/>
</a>
</g>
</g>
<!-- Node9 -->
<g id="Node000009" class="node">
<title>Node9</title>
<g id="a_Node000009"><a xlink:href="../../d1/df9/fidgetSpinner_8cpp.html" target="_top" xlink:title=" ">
<polygon fill="white" stroke="#666666" points="648.62,-86.5 509.62,-86.5 509.62,-61.25 648.62,-61.25 648.62,-86.5"/>
<text text-anchor="middle" x="579.12" y="-69.2" font-family="Helvetica,sans-Serif" font-size="14.00">fidgetSpinner.cpp</text>
</a>
</g>
</g>
<!-- Node1&#45;&gt;Node9 -->
<g id="edge19_Node000001_Node000009" class="edge">
<title>Node1&#45;&gt;Node9</title>
<g id="a_edge19_Node000001_Node000009"><a xlink:title=" ">
<path fill="none" stroke="#63b8ff" stroke-width="2" d="M747.41,-175.4C727.85,-160.03 699.53,-138.75 673.12,-122.5 651.16,-108.98 624.87,-95.9 605.69,-86.89"/>
<polygon fill="#63b8ff" stroke="#63b8ff" stroke-width="2" points="745.19,-178.1 755.2,-181.58 749.54,-172.62 745.19,-178.1"/>
</a>
</g>
</g>
<!-- Node10 -->
<g id="Node000010" class="node">
<title>Node10</title>
<g id="a_Node000010"><a xlink:href="../../d1/d52/gamePlayer_8cpp.html" target="_top" xlink:title=" ">
<polygon fill="white" stroke="#666666" points="1250.25,-25.25 1124,-25.25 1124,0 1250.25,0 1250.25,-25.25"/>
<text text-anchor="middle" x="1187.12" y="-7.95" font-family="Helvetica,sans-Serif" font-size="14.00">gamePlayer.cpp</text>
</a>
</g>
</g>
<!-- Node1&#45;&gt;Node10 -->
<g id="edge20_Node000001_Node000010" class="edge">
<title>Node1&#45;&gt;Node10</title>
<g id="a_edge20_Node000001_Node000010"><a xlink:title=" ">
<path fill="none" stroke="#63b8ff" stroke-width="2" d="M817.34,-178.85C871.93,-158.54 966.27,-122.36 1045.12,-86.5 1088.51,-66.77 1137.7,-40.65 1165.31,-25.64"/>
<polygon fill="#63b8ff" stroke="#63b8ff" stroke-width="2" points="816.33,-175.49 808.16,-182.24 818.76,-182.05 816.33,-175.49"/>
</a>
</g>
</g>
<!-- Node13 -->
<g id="Node000013" class="node">
<title>Node13</title>
<g id="a_Node000013"><a xlink:href="../../d0/d8d/test2_2main_8cpp.html" target="_top" xlink:title=" ">
<polygon fill="white" stroke="#666666" points="1424.38,-25.25 1343.88,-25.25 1343.88,0 1424.38,0 1424.38,-25.25"/>
<text text-anchor="middle" x="1384.12" y="-7.95" font-family="Helvetica,sans-Serif" font-size="14.00">main.cpp</text>
</a>
</g>
</g>
<!-- Node1&#45;&gt;Node13 -->
<g id="edge22_Node000001_Node000013" class="edge">
<title>Node1&#45;&gt;Node13</title>
<g id="a_edge22_Node000001_Node000013"><a xlink:title=" ">
<path fill="none" stroke="#63b8ff" stroke-width="2" d="M819.68,-194.91C939.84,-193.2 1252.95,-185.16 1349.12,-147.75 1390.53,-131.65 1408.57,-126.4 1428.12,-86.5 1439.05,-64.2 1416.69,-39.79 1400.02,-25.63"/>
<polygon fill="#63b8ff" stroke="#63b8ff" stroke-width="2" points="819.65,-191.41 809.69,-195.04 819.74,-198.41 819.65,-191.41"/>
</a>
</g>
</g>
<!-- Node15 -->
<g id="Node000015" class="node">
<title>Node15</title>
<g id="a_Node000015"><a xlink:href="../../db/d80/player_8cpp.html" target="_top" xlink:title=" ">
<polygon fill="white" stroke="#666666" points="1218.12,-86.5 1130.12,-86.5 1130.12,-61.25 1218.12,-61.25 1218.12,-86.5"/>
<text text-anchor="middle" x="1174.12" y="-69.2" font-family="Helvetica,sans-Serif" font-size="14.00">player.cpp</text>
</a>
</g>
</g>
<!-- Node1&#45;&gt;Node15 -->
<g id="edge23_Node000001_Node000015" class="edge">
<title>Node1&#45;&gt;Node15</title>
<g id="a_edge23_Node000001_Node000015"><a xlink:title=" ">
<path fill="none" stroke="#63b8ff" stroke-width="2" d="M819.47,-195.12C881.33,-193.21 991.92,-184.39 1078.12,-147.75 1112.4,-133.18 1145.43,-103.64 1162.37,-86.99"/>
<polygon fill="#63b8ff" stroke="#63b8ff" stroke-width="2" points="819.6,-191.61 809.69,-195.36 819.77,-198.61 819.6,-191.61"/>
</a>
</g>
</g>
<!-- Node16 -->
<g id="Node000016" class="node">
<title>Node16</title>
<g id="a_Node000016"><a xlink:href="../../d9/db8/log_8cpp.html" target="_top" xlink:title=" ">
<polygon fill="white" stroke="#666666" points="1340.62,-147.75 1273.62,-147.75 1273.62,-122.5 1340.62,-122.5 1340.62,-147.75"/>
<text text-anchor="middle" x="1307.12" y="-130.45" font-family="Helvetica,sans-Serif" font-size="14.00">log.cpp</text>
</a>
</g>
</g>
<!-- Node1&#45;&gt;Node16 -->
<g id="edge21_Node000001_Node000016" class="edge">
<title>Node1&#45;&gt;Node16</title>
<g id="a_edge21_Node000001_Node000016"><a xlink:title=" ">
<path fill="none" stroke="#63b8ff" stroke-width="2" d="M819.79,-193.52C908.22,-189.48 1103.44,-177.7 1265.12,-147.75 1267.8,-147.25 1270.56,-146.67 1273.32,-146.03"/>
<polygon fill="#63b8ff" stroke="#63b8ff" stroke-width="2" points="819.64,-190.03 809.8,-193.96 819.95,-197.02 819.64,-190.03"/>
</a>
</g>
</g>
<!-- Node17 -->
<g id="Node000017" class="node">
<title>Node17</title>
<g id="a_Node000017"><a xlink:href="../../d9/d85/player_8hpp.html" target="_top" xlink:title=" ">
<polygon fill="white" stroke="#666666" points="1255.88,-147.75 1166.38,-147.75 1166.38,-122.5 1255.88,-122.5 1255.88,-147.75"/>
<text text-anchor="middle" x="1211.12" y="-130.45" font-family="Helvetica,sans-Serif" font-size="14.00">player.hpp</text>
</a>
</g>
</g>
<!-- Node1&#45;&gt;Node17 -->
<g id="edge24_Node000001_Node000017" class="edge">
<title>Node1&#45;&gt;Node17</title>
<g id="a_edge24_Node000001_Node000017"><a xlink:title=" ">
<path fill="none" stroke="#63b8ff" stroke-width="2" d="M819.4,-189.45C888.56,-180.71 1021.35,-163.68 1134.12,-147.75 1144.43,-146.29 1155.51,-144.66 1165.95,-143.09"/>
<polygon fill="#63b8ff" stroke="#63b8ff" stroke-width="2" points="819.33,-185.93 809.85,-190.65 820.21,-192.87 819.33,-185.93"/>
</a>
</g>
</g>
<!-- Node19 -->
<g id="Node000019" class="node">
<title>Node19</title>
<g id="a_Node000019"><a xlink:href="../../d4/d5a/point2d_8cpp.html" target="_top" xlink:title=" ">
<polygon fill="white" stroke="#666666" points="1595.75,-147.75 1496.5,-147.75 1496.5,-122.5 1595.75,-122.5 1595.75,-147.75"/>
<text text-anchor="middle" x="1546.12" y="-130.45" font-family="Helvetica,sans-Serif" font-size="14.00">point2d.cpp</text>
</a>
</g>
</g>
<!-- Node1&#45;&gt;Node19 -->
<g id="edge31_Node000001_Node000019" class="edge">
<title>Node1&#45;&gt;Node19</title>
<g id="a_edge31_Node000001_Node000019"><a xlink:title=" ">
<path fill="none" stroke="#63b8ff" stroke-width="2" d="M819.63,-194.04C934.05,-190.41 1233.83,-178.53 1482.12,-147.75 1486.72,-147.18 1491.48,-146.5 1496.25,-145.75"/>
<polygon fill="#63b8ff" stroke="#63b8ff" stroke-width="2" points="819.53,-190.54 809.64,-194.35 819.74,-197.54 819.53,-190.54"/>
</a>
</g>
</g>
<!-- Node20 -->
<g id="Node000020" class="node">
<title>Node20</title>
<g id="a_Node000020"><a xlink:href="../../d4/de1/updateableObject_8cpp.html" target="_top" xlink:title=" ">
<polygon fill="white" stroke="#666666" points="1782.62,-147.75 1613.62,-147.75 1613.62,-122.5 1782.62,-122.5 1782.62,-147.75"/>
<text text-anchor="middle" x="1698.12" y="-130.45" font-family="Helvetica,sans-Serif" font-size="14.00">updateableObject.cpp</text>
</a>
</g>
</g>
<!-- Node1&#45;&gt;Node20 -->
<g id="edge32_Node000001_Node000020" class="edge">
<title>Node1&#45;&gt;Node20</title>
<g id="a_edge32_Node000001_Node000020"><a xlink:title=" ">
<path fill="none" stroke="#63b8ff" stroke-width="2" d="M819.7,-193.78C947.16,-189.25 1306.92,-174.88 1605.12,-147.75 1607.88,-147.5 1610.68,-147.23 1613.5,-146.95"/>
<polygon fill="#63b8ff" stroke="#63b8ff" stroke-width="2" points="819.6,-190.28 809.73,-194.13 819.84,-197.27 819.6,-190.28"/>
</a>
</g>
</g>
<!-- Node8&#45;&gt;Node4 -->
<g id="edge8_Node000008_Node000004" class="edge">
<title>Node8&#45;&gt;Node4</title>
<g id="a_edge8_Node000008_Node000004"><a xlink:title=" ">
<path fill="none" stroke="#63b8ff" stroke-width="2" d="M711.71,-129.59C607.6,-121.67 387.67,-104.42 202.12,-86.5 198.99,-86.2 195.81,-85.88 192.59,-85.56"/>
<polygon fill="#63b8ff" stroke="#63b8ff" stroke-width="2" points="711.17,-133.06 721.4,-130.33 711.7,-126.08 711.17,-133.06"/>
</a>
</g>
</g>
<!-- Node8&#45;&gt;Node5 -->
<g id="edge9_Node000008_Node000005" class="edge">
<title>Node8&#45;&gt;Node5</title>
<g id="a_edge9_Node000008_Node000005"><a xlink:title=" ">
<path fill="none" stroke="#63b8ff" stroke-width="2" d="M711.75,-129.32C601.22,-120.32 370.42,-100.58 291.12,-86.5 288.11,-85.96 284.99,-85.33 281.88,-84.64"/>
<polygon fill="#63b8ff" stroke="#63b8ff" stroke-width="2" points="711.35,-132.8 721.6,-130.12 711.91,-125.82 711.35,-132.8"/>
</a>
</g>
</g>
<!-- Node8&#45;&gt;Node6 -->
<g id="edge10_Node000008_Node000006" class="edge">
<title>Node8&#45;&gt;Node6</title>
<g id="a_edge10_Node000008_Node000006"><a xlink:title=" ">
<path fill="none" stroke="#63b8ff" stroke-width="2" d="M711.86,-128.69C636.16,-121.38 502.42,-106.92 389.12,-86.5 386.37,-86 383.54,-85.45 380.7,-84.86"/>
<polygon fill="#63b8ff" stroke="#63b8ff" stroke-width="2" points="711.1,-132.13 721.39,-129.59 711.77,-125.16 711.1,-132.13"/>
</a>
</g>
</g>
<!-- Node8&#45;&gt;Node7 -->
<g id="edge11_Node000008_Node000007" class="edge">
<title>Node8&#45;&gt;Node7</title>
<g id="a_edge11_Node000008_Node000007"><a xlink:title=" ">
<path fill="none" stroke="#63b8ff" stroke-width="2" d="M711.67,-124.16C656.47,-114.92 572.68,-100.52 500.12,-86.5 497.54,-86 494.88,-85.48 492.21,-84.94"/>
<polygon fill="#63b8ff" stroke="#63b8ff" stroke-width="2" points="710.95,-127.59 721.39,-125.78 712.1,-120.69 710.95,-127.59"/>
</a>
</g>
</g>
<!-- Node8&#45;&gt;Node9 -->
<g id="edge12_Node000008_Node000009" class="edge">
<title>Node8&#45;&gt;Node9</title>
<g id="a_edge12_Node000008_Node000009"><a xlink:title=" ">
<path fill="none" stroke="#63b8ff" stroke-width="2" d="M720.79,-118.36C688.69,-108.51 647.99,-96.02 618.45,-86.95"/>
<polygon fill="#63b8ff" stroke="#63b8ff" stroke-width="2" points="719.59,-121.66 730.17,-121.25 721.64,-114.97 719.59,-121.66"/>
</a>
</g>
</g>
<!-- Node8&#45;&gt;Node10 -->
<g id="edge13_Node000008_Node000010" class="edge">
<title>Node8&#45;&gt;Node10</title>
<g id="a_edge13_Node000008_Node000010"><a xlink:title=" ">
<path fill="none" stroke="#63b8ff" stroke-width="2" d="M732.22,-116.31C705.48,-101.97 678.17,-81.03 696.12,-61.25 724.33,-30.18 997.16,-18.77 1123.5,-15.13"/>
<polygon fill="#63b8ff" stroke="#63b8ff" stroke-width="2" points="730.31,-119.26 740.81,-120.65 733.47,-113.02 730.31,-119.26"/>
</a>
</g>
</g>
<!-- Node11 -->
<g id="Node000011" class="node">
<title>Node11</title>
<g id="a_Node000011"><a xlink:href="../../d2/df9/lineSegment_8cpp.html" target="_top" xlink:title=" ">
<polygon fill="white" stroke="#666666" points="838.62,-86.5 705.62,-86.5 705.62,-61.25 838.62,-61.25 838.62,-86.5"/>
<text text-anchor="middle" x="772.12" y="-69.2" font-family="Helvetica,sans-Serif" font-size="14.00">lineSegment.cpp</text>
</a>
</g>
</g>
<!-- Node8&#45;&gt;Node11 -->
<g id="edge14_Node000008_Node000011" class="edge">
<title>Node8&#45;&gt;Node11</title>
<g id="a_edge14_Node000008_Node000011"><a xlink:title=" ">
<path fill="none" stroke="#63b8ff" stroke-width="2" d="M772.12,-109.16C772.12,-101.43 772.12,-93.27 772.12,-86.85"/>
<polygon fill="#63b8ff" stroke="#63b8ff" stroke-width="2" points="768.63,-109.11 772.13,-119.11 775.63,-109.11 768.63,-109.11"/>
</a>
</g>
</g>
<!-- Node12 -->
<g id="Node000012" class="node">
<title>Node12</title>
<g id="a_Node000012"><a xlink:href="../../d4/d15/test_2main_8cpp.html" target="_top" xlink:title=" ">
<polygon fill="white" stroke="#666666" points="937.38,-86.5 856.88,-86.5 856.88,-61.25 937.38,-61.25 937.38,-86.5"/>
<text text-anchor="middle" x="897.12" y="-69.2" font-family="Helvetica,sans-Serif" font-size="14.00">main.cpp</text>
</a>
</g>
</g>
<!-- Node8&#45;&gt;Node12 -->
<g id="edge15_Node000008_Node000012" class="edge">
<title>Node8&#45;&gt;Node12</title>
<g id="a_edge15_Node000008_Node000012"><a xlink:title=" ">
<path fill="none" stroke="#63b8ff" stroke-width="2" d="M809.06,-116.62C829.28,-107.03 853.83,-95.4 871.87,-86.85"/>
<polygon fill="#63b8ff" stroke="#63b8ff" stroke-width="2" points="807.69,-113.39 800.16,-120.84 810.69,-119.72 807.69,-113.39"/>
</a>
</g>
</g>
<!-- Node8&#45;&gt;Node13 -->
<g id="edge16_Node000008_Node000013" class="edge">
<title>Node8&#45;&gt;Node13</title>
<g id="a_edge16_Node000008_Node000013"><a xlink:title=" ">
<path fill="none" stroke="#63b8ff" stroke-width="2" d="M832.73,-126.18C888.42,-118.26 972.99,-104.67 1045.12,-86.5 1079.64,-77.81 1086.64,-70.05 1121.12,-61.25 1198.91,-41.39 1291.67,-26.62 1343.64,-19.14"/>
<polygon fill="#63b8ff" stroke="#63b8ff" stroke-width="2" points="832.34,-122.7 822.92,-127.55 833.31,-129.63 832.34,-122.7"/>
</a>
</g>
</g>
<!-- Node14 -->
<g id="Node000014" class="node">
<title>Node14</title>
<g id="a_Node000014"><a xlink:href="../../d8/d19/test3_2main_8cpp.html" target="_top" xlink:title=" ">
<polygon fill="white" stroke="#666666" points="1036.38,-86.5 955.88,-86.5 955.88,-61.25 1036.38,-61.25 1036.38,-86.5"/>
<text text-anchor="middle" x="996.12" y="-69.2" font-family="Helvetica,sans-Serif" font-size="14.00">main.cpp</text>
</a>
</g>
</g>
<!-- Node8&#45;&gt;Node14 -->
<g id="edge17_Node000008_Node000014" class="edge">
<title>Node8&#45;&gt;Node14</title>
<g id="a_edge17_Node000008_Node000014"><a xlink:title=" ">
<path fill="none" stroke="#63b8ff" stroke-width="2" d="M830.3,-118.74C869.6,-108.34 920.5,-94.88 955.48,-85.63"/>
<polygon fill="#63b8ff" stroke="#63b8ff" stroke-width="2" points="829.42,-115.35 820.65,-121.29 831.21,-122.12 829.42,-115.35"/>
</a>
</g>
</g>
<!-- Node8&#45;&gt;Node15 -->
<g id="edge18_Node000008_Node000015" class="edge">
<title>Node8&#45;&gt;Node15</title>
<g id="a_edge18_Node000008_Node000015"><a xlink:title=" ">
<path fill="none" stroke="#63b8ff" stroke-width="2" d="M832.55,-126.88C901.38,-118.36 1017.14,-103.26 1116.12,-86.5 1120.58,-85.75 1125.22,-84.91 1129.84,-84.04"/>
<polygon fill="#63b8ff" stroke="#63b8ff" stroke-width="2" points="832.34,-123.38 822.85,-128.07 833.2,-130.32 832.34,-123.38"/>
</a>
</g>
</g>
<!-- Node17&#45;&gt;Node10 -->
<g id="edge25_Node000017_Node000010" class="edge">
<title>Node17&#45;&gt;Node10</title>
<g id="a_edge25_Node000017_Node000010"><a xlink:title=" ">
<path fill="none" stroke="#63b8ff" stroke-width="2" d="M1223.01,-110.35C1228.61,-95.88 1232.93,-77.18 1227.12,-61.25 1222.03,-47.25 1210.8,-34.5 1201.54,-25.73"/>
<polygon fill="#63b8ff" stroke="#63b8ff" stroke-width="2" points="1219.82,-108.91 1218.98,-119.47 1226.22,-111.74 1219.82,-108.91"/>
</a>
</g>
</g>
<!-- Node17&#45;&gt;Node13 -->
<g id="edge29_Node000017_Node000013" class="edge">
<title>Node17&#45;&gt;Node13</title>
<g id="a_edge29_Node000017_Node000013"><a xlink:title=" ">
<path fill="none" stroke="#63b8ff" stroke-width="2" d="M1268.71,-121.31C1326.98,-108.21 1408.85,-89.38 1411.12,-86.5 1425.68,-68.08 1407.97,-41.03 1395.14,-25.6"/>
<polygon fill="#63b8ff" stroke="#63b8ff" stroke-width="2" points="1268.25,-117.83 1259.26,-123.43 1269.78,-124.66 1268.25,-117.83"/>
</a>
</g>
</g>
<!-- Node17&#45;&gt;Node15 -->
<g id="edge30_Node000017_Node000015" class="edge">
<title>Node17&#45;&gt;Node15</title>
<g id="a_edge30_Node000017_Node000015"><a xlink:title=" ">
<path fill="none" stroke="#63b8ff" stroke-width="2" d="M1196.8,-111.18C1191.61,-102.87 1185.96,-93.83 1181.6,-86.85"/>
<polygon fill="#63b8ff" stroke="#63b8ff" stroke-width="2" points="1193.77,-112.94 1202.03,-119.57 1199.71,-109.23 1193.77,-112.94"/>
</a>
</g>
</g>
<!-- Node18 -->
<g id="Node000018" class="node">
<title>Node18</title>
<g id="a_Node000018"><a xlink:href="../../d7/d9b/gamePlayer_8hpp.html" target="_top" xlink:title=" ">
<polygon fill="white" stroke="#666666" points="1402,-86.5 1274.25,-86.5 1274.25,-61.25 1402,-61.25 1402,-86.5"/>
<text text-anchor="middle" x="1338.12" y="-69.2" font-family="Helvetica,sans-Serif" font-size="14.00">gamePlayer.hpp</text>
</a>
</g>
</g>
<!-- Node17&#45;&gt;Node18 -->
<g id="edge26_Node000017_Node000018" class="edge">
<title>Node17&#45;&gt;Node18</title>
<g id="a_edge26_Node000017_Node000018"><a xlink:title=" ">
<path fill="none" stroke="#63b8ff" stroke-width="2" d="M1248.36,-116.76C1268.96,-107.14 1294.05,-95.44 1312.46,-86.85"/>
<polygon fill="#63b8ff" stroke="#63b8ff" stroke-width="2" points="1247.15,-113.46 1239.57,-120.86 1250.11,-119.8 1247.15,-113.46"/>
</a>
</g>
</g>
<!-- Node18&#45;&gt;Node10 -->
<g id="edge27_Node000018_Node000010" class="edge">
<title>Node18&#45;&gt;Node10</title>
<g id="a_edge27_Node000018_Node000010"><a xlink:title=" ">
<path fill="none" stroke="#63b8ff" stroke-width="2" d="M1295.61,-56.19C1270.88,-46.49 1240.29,-34.48 1217.9,-25.7"/>
<polygon fill="#63b8ff" stroke="#63b8ff" stroke-width="2" points="1294.16,-59.38 1304.75,-59.78 1296.72,-52.87 1294.16,-59.38"/>
</a>
</g>
</g>
<!-- Node18&#45;&gt;Node13 -->
<g id="edge28_Node000018_Node000013" class="edge">
<title>Node18&#45;&gt;Node13</title>
<g id="a_edge28_Node000018_Node000013"><a xlink:title=" ">
<path fill="none" stroke="#63b8ff" stroke-width="2" d="M1355.27,-50.79C1361.9,-42.25 1369.22,-32.82 1374.83,-25.6"/>
<polygon fill="#63b8ff" stroke="#63b8ff" stroke-width="2" points="1352.66,-48.45 1349.29,-58.49 1358.19,-52.74 1352.66,-48.45"/>
</a>
</g>
</g>
</g>
</svg>
