<?xml version="1.0" encoding="UTF-8" standalone="no"?>
<!DOCTYPE svg PUBLIC "-//W3C//DTD SVG 1.1//EN"
 "http://www.w3.org/Graphics/SVG/1.1/DTD/svg11.dtd">
<!-- Generated by graphviz version 9.0.0 (0)
 -->
<!-- Title: GameObject::move Pages: 1 -->
<svg width="520pt" height="119pt"
 viewBox="0.00 0.00 519.50 119.25" xmlns="http://www.w3.org/2000/svg" xmlns:xlink="http://www.w3.org/1999/xlink">
<g id="graph0" class="graph" transform="scale(1 1) rotate(0) translate(4 115.25)">
<title>GameObject::move</title>
<!-- Node1 -->
<g id="Node000001" class="node">
<title>Node1</title>
<g id="a_Node000001"><a xlink:title="Translates object in space.">
<polygon fill="#999999" stroke="#666666" points="511.5,-68.25 362.75,-68.25 362.75,-43 511.5,-43 511.5,-68.25"/>
<text text-anchor="middle" x="437.12" y="-50.95" font-family="Helvetica,sans-Serif" font-size="14.00">GameObject::move</text>
</a>
</g>
</g>
<!-- Node2 -->
<g id="Node000002" class="node">
<title>Node2</title>
<g id="a_Node000002"><a xlink:href="../../d7/d98/classAnimatedObject.html#a5b162cbcdd8071e24b155f1318b9200f" target="_top" xlink:title="Translates object in space.">
<polygon fill="white" stroke="#666666" points="326.75,-111.25 151.75,-111.25 151.75,-86 326.75,-86 326.75,-111.25"/>
<text text-anchor="middle" x="239.25" y="-93.95" font-family="Helvetica,sans-Serif" font-size="14.00">AnimatedObject::move</text>
</a>
</g>
</g>
<!-- Node1&#45;&gt;Node2 -->
<g id="edge1_Node000001_Node000002" class="edge">
<title>Node1&#45;&gt;Node2</title>
<g id="a_edge1_Node000001_Node000002"><a xlink:title=" ">
<path fill="none" stroke="#63b8ff" stroke-width="2" d="M364.03,-71.45C342.93,-76.08 320.1,-81.09 299.87,-85.54"/>
<polygon fill="#63b8ff" stroke="#63b8ff" stroke-width="2" points="364.58,-74.91 373.6,-69.35 363.08,-68.08 364.58,-74.91"/>
</a>
</g>
</g>
<!-- Node3 -->
<g id="Node000003" class="node">
<title>Node3</title>
<g id="a_Node000003"><a xlink:href="../../d2/d4b/classPlayer.html#ad29f780f5ab349975b25f6b7ab49dd9d" target="_top" xlink:title="Moves player on screen.">
<polygon fill="white" stroke="#666666" points="291.88,-68.25 186.62,-68.25 186.62,-43 291.88,-43 291.88,-68.25"/>
<text text-anchor="middle" x="239.25" y="-50.95" font-family="Helvetica,sans-Serif" font-size="14.00">Player::move</text>
</a>
</g>
</g>
<!-- Node1&#45;&gt;Node3 -->
<g id="edge2_Node000001_Node000003" class="edge">
<title>Node1&#45;&gt;Node3</title>
<g id="a_edge2_Node000001_Node000003"><a xlink:title=" ">
<path fill="none" stroke="#63b8ff" stroke-width="2" d="M349.35,-55.62C329.89,-55.62 309.83,-55.62 292.31,-55.62"/>
<polygon fill="#63b8ff" stroke="#63b8ff" stroke-width="2" points="349.33,-59.13 359.33,-55.63 349.33,-52.13 349.33,-59.13"/>
</a>
</g>
</g>
<!-- Node9 -->
<g id="Node000009" class="node">
<title>Node9</title>
<g id="a_Node000009"><a xlink:href="../../dc/df0/classBall.html#a9f827d14cbaeb11f50ce4f9741577acb" target="_top" xlink:title="Translates object in space.">
<polygon fill="white" stroke="#666666" points="283.62,-25.25 194.88,-25.25 194.88,0 283.62,0 283.62,-25.25"/>
<text text-anchor="middle" x="239.25" y="-7.95" font-family="Helvetica,sans-Serif" font-size="14.00">Ball::move</text>
</a>
</g>
</g>
<!-- Node1&#45;&gt;Node9 -->
<g id="edge4_Node000001_Node000009" class="edge">
<title>Node1&#45;&gt;Node9</title>
<g id="a_edge4_Node000001_Node000009"><a xlink:title=" ">
<path fill="none" stroke="#63b8ff" stroke-width="2" d="M364.04,-39.8C337.19,-33.91 307.54,-27.4 283.99,-22.23"/>
<polygon fill="#63b8ff" stroke="#63b8ff" stroke-width="2" points="363.08,-43.17 373.6,-41.9 364.58,-36.34 363.08,-43.17"/>
</a>
</g>
</g>
<!-- Node4 -->
<g id="Node000004" class="node">
<title>Node4</title>
<g id="a_Node000004"><a xlink:href="../../d2/d4b/classPlayer.html#a82c3476f3e65a4e2ac6bcd040771bdd4" target="_top" xlink:title="Updates state of object.">
<polygon fill="#fff0f0" stroke="red" points="115.75,-68.25 0,-68.25 0,-43 115.75,-43 115.75,-68.25"/>
<text text-anchor="middle" x="57.88" y="-50.95" font-family="Helvetica,sans-Serif" font-size="14.00">Player::update</text>
</a>
</g>
</g>
<!-- Node3&#45;&gt;Node4 -->
<g id="edge3_Node000003_Node000004" class="edge">
<title>Node3&#45;&gt;Node4</title>
<g id="a_edge3_Node000003_Node000004"><a xlink:title=" ">
<path fill="none" stroke="#63b8ff" stroke-width="2" d="M173.35,-55.62C154.58,-55.62 134.24,-55.62 115.98,-55.62"/>
<polygon fill="#63b8ff" stroke="#63b8ff" stroke-width="2" points="173.34,-59.13 183.34,-55.63 173.34,-52.13 173.34,-59.13"/>
</a>
</g>
</g>
<!-- Node10 -->
<g id="Node000010" class="node">
<title>Node10</title>
<g id="a_Node000010"><a xlink:href="../../dc/df0/classBall.html#af30f4707d26a6e7ba0af1dd8cac37684" target="_top" xlink:title="Updates state of object.">
<polygon fill="#fff0f0" stroke="red" points="107.5,-25.25 8.25,-25.25 8.25,0 107.5,0 107.5,-25.25"/>
<text text-anchor="middle" x="57.88" y="-7.95" font-family="Helvetica,sans-Serif" font-size="14.00">Ball::update</text>
</a>
</g>
</g>
<!-- Node9&#45;&gt;Node10 -->
<g id="edge5_Node000009_Node000010" class="edge">
<title>Node9&#45;&gt;Node10</title>
<g id="a_edge5_Node000009_Node000010"><a xlink:title=" ">
<path fill="none" stroke="#63b8ff" stroke-width="2" d="M182.05,-12.62C158.28,-12.62 130.84,-12.62 107.91,-12.62"/>
<polygon fill="#63b8ff" stroke="#63b8ff" stroke-width="2" points="181.8,-16.13 191.8,-12.63 181.8,-9.13 181.8,-16.13"/>
</a>
</g>
</g>
</g>
</svg>
