<?xml version="1.0" encoding="UTF-8" standalone="no"?>
<!DOCTYPE svg PUBLIC "-//W3C//DTD SVG 1.1//EN"
 "http://www.w3.org/Graphics/SVG/1.1/DTD/svg11.dtd">
<!-- Generated by graphviz version 9.0.0 (0)
 -->
<!-- Title: GameObject::setPosition Pages: 1 -->
<svg width="646pt" height="119pt"
 viewBox="0.00 0.00 646.25 119.25" xmlns="http://www.w3.org/2000/svg" xmlns:xlink="http://www.w3.org/1999/xlink">
<g id="graph0" class="graph" transform="scale(1 1) rotate(0) translate(4 115.25)">
<title>GameObject::setPosition</title>
<!-- Node1 -->
<g id="Node000001" class="node">
<title>Node1</title>
<g id="a_Node000001"><a xlink:title="Object position setter.">
<polygon fill="#999999" stroke="#666666" points="638.25,-46.25 452.75,-46.25 452.75,-21 638.25,-21 638.25,-46.25"/>
<text text-anchor="middle" x="545.5" y="-28.95" font-family="Helvetica,sans-Serif" font-size="14.00">GameObject::setPosition</text>
</a>
</g>
</g>
<!-- Node2 -->
<g id="Node000002" class="node">
<title>Node2</title>
<g id="a_Node000002"><a xlink:href="../../d7/d98/classAnimatedObject.html#a23735fe8dd7121de14e2c7862689de2f" target="_top" xlink:title="Object position setter.">
<polygon fill="white" stroke="#666666" points="416.75,-68.25 205,-68.25 205,-43 416.75,-43 416.75,-68.25"/>
<text text-anchor="middle" x="310.88" y="-50.95" font-family="Helvetica,sans-Serif" font-size="14.00">AnimatedObject::setPosition</text>
</a>
</g>
</g>
<!-- Node1&#45;&gt;Node2 -->
<g id="edge1_Node000001_Node000002" class="edge">
<title>Node1&#45;&gt;Node2</title>
<g id="a_edge1_Node000001_Node000002"><a xlink:title=" ">
<path fill="none" stroke="#63b8ff" stroke-width="2" d="M439.85,-43.52C432.25,-44.24 424.58,-44.97 416.98,-45.68"/>
<polygon fill="#63b8ff" stroke="#63b8ff" stroke-width="2" points="439.92,-47.03 449.55,-42.61 439.26,-40.06 439.92,-47.03"/>
</a>
</g>
</g>
<!-- Node6 -->
<g id="Node000006" class="node">
<title>Node6</title>
<g id="a_Node000006"><a xlink:href="../../dc/df0/classBall.html#a77f731cabaa2fdf06c96f3b11f2df2b5" target="_top" xlink:title=" ">
<polygon fill="white" stroke="#666666" points="371.75,-25.25 250,-25.25 250,0 371.75,0 371.75,-25.25"/>
<text text-anchor="middle" x="310.88" y="-7.95" font-family="Helvetica,sans-Serif" font-size="14.00">Ball::setPositon</text>
</a>
</g>
</g>
<!-- Node1&#45;&gt;Node6 -->
<g id="edge4_Node000001_Node000006" class="edge">
<title>Node1&#45;&gt;Node6</title>
<g id="a_edge4_Node000001_Node000006"><a xlink:title=" ">
<path fill="none" stroke="#63b8ff" stroke-width="2" d="M439.77,-24.17C416.59,-22.08 392.79,-19.93 372.1,-18.06"/>
<polygon fill="#63b8ff" stroke="#63b8ff" stroke-width="2" points="439.27,-27.64 449.55,-25.05 439.9,-20.67 439.27,-27.64"/>
</a>
</g>
</g>
<!-- Node3 -->
<g id="Node000003" class="node">
<title>Node3</title>
<g id="a_Node000003"><a xlink:href="../../d0/d8d/test2_2main_8cpp.html#a849ba9190b5ca833d4d046dc6327c9b4" target="_top" xlink:title=" ">
<polygon fill="#fff0f0" stroke="red" points="169,-111.25 0,-111.25 0,-86 169,-86 169,-111.25"/>
<text text-anchor="middle" x="84.5" y="-93.95" font-family="Helvetica,sans-Serif" font-size="14.00">initializeFidgetSpinner</text>
</a>
</g>
</g>
<!-- Node2&#45;&gt;Node3 -->
<g id="edge2_Node000002_Node000003" class="edge">
<title>Node2&#45;&gt;Node3</title>
<g id="a_edge2_Node000002_Node000003"><a xlink:title=" ">
<path fill="none" stroke="#63b8ff" stroke-width="2" d="M228.98,-71.13C204.34,-75.85 177.52,-80.99 153.8,-85.54"/>
<polygon fill="#63b8ff" stroke="#63b8ff" stroke-width="2" points="229.51,-74.59 238.67,-69.27 228.19,-67.72 229.51,-74.59"/>
</a>
</g>
</g>
<!-- Node5 -->
<g id="Node000005" class="node">
<title>Node5</title>
<g id="a_Node000005"><a xlink:href="../../d8/d19/test3_2main_8cpp.html#ae66f6b31b5ad750f1fe042a706a4e3d4" target="_top" xlink:title=" ">
<polygon fill="white" stroke="#666666" points="109.75,-68.25 59.25,-68.25 59.25,-43 109.75,-43 109.75,-68.25"/>
<text text-anchor="middle" x="84.5" y="-50.95" font-family="Helvetica,sans-Serif" font-size="14.00">main</text>
</a>
</g>
</g>
<!-- Node2&#45;&gt;Node5 -->
<g id="edge3_Node000002_Node000005" class="edge">
<title>Node2&#45;&gt;Node5</title>
<g id="a_edge3_Node000002_Node000005"><a xlink:title=" ">
<path fill="none" stroke="#63b8ff" stroke-width="2" d="M191.75,-55.62C160.71,-55.62 130.28,-55.62 110,-55.62"/>
<polygon fill="#63b8ff" stroke="#63b8ff" stroke-width="2" points="191.56,-59.13 201.56,-55.63 191.56,-52.13 191.56,-59.13"/>
</a>
</g>
</g>
<!-- Node7 -->
<g id="Node000007" class="node">
<title>Node7</title>
<g id="a_Node000007"><a xlink:href="../../d0/d8d/test2_2main_8cpp.html#a319d411c82633d6148bab1419aa7bb18" target="_top" xlink:title=" ">
<polygon fill="#fff0f0" stroke="red" points="124.75,-25.25 44.25,-25.25 44.25,0 124.75,0 124.75,-25.25"/>
<text text-anchor="middle" x="84.5" y="-7.95" font-family="Helvetica,sans-Serif" font-size="14.00">throwBall</text>
</a>
</g>
</g>
<!-- Node6&#45;&gt;Node7 -->
<g id="edge5_Node000006_Node000007" class="edge">
<title>Node6&#45;&gt;Node7</title>
<g id="a_edge5_Node000006_Node000007"><a xlink:title=" ">
<path fill="none" stroke="#63b8ff" stroke-width="2" d="M236.88,-12.62C199.64,-12.62 155.81,-12.62 124.92,-12.62"/>
<polygon fill="#63b8ff" stroke="#63b8ff" stroke-width="2" points="236.72,-16.13 246.72,-12.63 236.72,-9.13 236.72,-16.13"/>
</a>
</g>
</g>
</g>
</svg>
