<?xml version="1.0" encoding="UTF-8" standalone="no"?>
<!DOCTYPE svg PUBLIC "-//W3C//DTD SVG 1.1//EN"
 "http://www.w3.org/Graphics/SVG/1.1/DTD/svg11.dtd">
<!-- Generated by graphviz version 9.0.0 (0)
 -->
<!-- Title: animatedObject.hpp Pages: 1 -->
<svg width="821pt" height="156pt"
 viewBox="0.00 0.00 820.75 155.75" xmlns="http://www.w3.org/2000/svg" xmlns:xlink="http://www.w3.org/1999/xlink">
<g id="graph0" class="graph" transform="scale(1 1) rotate(0) translate(4 151.75)">
<title>animatedObject.hpp</title>
<!-- Node1 -->
<g id="Node000001" class="node">
<title>Node1</title>
<g id="a_Node000001"><a xlink:title=" ">
<polygon fill="#999999" stroke="#666666" points="492.88,-147.75 335.12,-147.75 335.12,-122.5 492.88,-122.5 492.88,-147.75"/>
<text text-anchor="middle" x="414" y="-130.45" font-family="Helvetica,sans-Serif" font-size="14.00">animatedObject.hpp</text>
</a>
</g>
</g>
<!-- Node2 -->
<g id="Node000002" class="node">
<title>Node2</title>
<g id="a_Node000002"><a xlink:href="../../d4/db5/GameObject_8hpp.html" target="_top" xlink:title=" ">
<polygon fill="white" stroke="#666666" points="259.5,-86.5 126.5,-86.5 126.5,-61.25 259.5,-61.25 259.5,-86.5"/>
<text text-anchor="middle" x="193" y="-69.2" font-family="Helvetica,sans-Serif" font-size="14.00">GameObject.hpp</text>
</a>
</g>
</g>
<!-- Node1&#45;&gt;Node2 -->
<g id="edge1_Node000001_Node000002" class="edge">
<title>Node1&#45;&gt;Node2</title>
<g id="a_edge1_Node000001_Node000002"><a xlink:title=" ">
<path fill="none" stroke="#63b8ff" stroke-width="2" d="M369.01,-122.06C334.65,-112.85 287.07,-100.1 250.05,-90.17"/>
<polygon fill="#63b8ff" stroke="#63b8ff" stroke-width="2" points="251.42,-86.91 240.85,-87.7 249.6,-93.67 251.42,-86.91"/>
</a>
</g>
</g>
<!-- Node4 -->
<g id="Node000004" class="node">
<title>Node4</title>
<g id="a_Node000004"><a xlink:href="../../d9/d03/point2d_8hpp.html" target="_top" xlink:title=" ">
<polygon fill="#fff0f0" stroke="red" points="338.38,-25.25 237.62,-25.25 237.62,0 338.38,0 338.38,-25.25"/>
<text text-anchor="middle" x="288" y="-7.95" font-family="Helvetica,sans-Serif" font-size="14.00">point2d.hpp</text>
</a>
</g>
</g>
<!-- Node1&#45;&gt;Node4 -->
<g id="edge6_Node000001_Node000004" class="edge">
<title>Node1&#45;&gt;Node4</title>
<g id="a_edge6_Node000001_Node000004"><a xlink:title=" ">
<path fill="none" stroke="#63b8ff" stroke-width="2" d="M363.68,-122.06C343.46,-114.85 321.54,-103.63 307,-86.5 295.67,-73.14 290.99,-53.8 289.11,-38.4"/>
<polygon fill="#63b8ff" stroke="#63b8ff" stroke-width="2" points="292.62,-38.35 288.31,-28.67 285.64,-38.93 292.62,-38.35"/>
</a>
</g>
</g>
<!-- Node7 -->
<g id="Node000007" class="node">
<title>Node7</title>
<g id="a_Node000007"><a xlink:title=" ">
<polygon fill="#e0e0e0" stroke="#999999" points="512,-86.5 316,-86.5 316,-61.25 512,-61.25 512,-86.5"/>
<text text-anchor="middle" x="414" y="-69.2" font-family="Helvetica,sans-Serif" font-size="14.00">SFML/Graphics/Sprite.hpp</text>
</a>
</g>
</g>
<!-- Node1&#45;&gt;Node7 -->
<g id="edge4_Node000001_Node000007" class="edge">
<title>Node1&#45;&gt;Node7</title>
<g id="a_edge4_Node000001_Node000007"><a xlink:title=" ">
<path fill="none" stroke="#63b8ff" stroke-width="2" d="M414,-122.13C414,-115.71 414,-107.55 414,-99.82"/>
<polygon fill="#63b8ff" stroke="#63b8ff" stroke-width="2" points="417.5,-99.87 414,-89.87 410.5,-99.87 417.5,-99.87"/>
</a>
</g>
</g>
<!-- Node8 -->
<g id="Node000008" class="node">
<title>Node8</title>
<g id="a_Node000008"><a xlink:title=" ">
<polygon fill="#e0e0e0" stroke="#999999" points="735.5,-86.5 530.5,-86.5 530.5,-61.25 735.5,-61.25 735.5,-86.5"/>
<text text-anchor="middle" x="633" y="-69.2" font-family="Helvetica,sans-Serif" font-size="14.00">SFML/Graphics/Texture.hpp</text>
</a>
</g>
</g>
<!-- Node1&#45;&gt;Node8 -->
<g id="edge5_Node000001_Node000008" class="edge">
<title>Node1&#45;&gt;Node8</title>
<g id="a_edge5_Node000001_Node000008"><a xlink:title=" ">
<path fill="none" stroke="#63b8ff" stroke-width="2" d="M458.58,-122.06C492.48,-112.89 539.37,-100.21 575.99,-90.3"/>
<polygon fill="#63b8ff" stroke="#63b8ff" stroke-width="2" points="576.82,-93.7 585.56,-87.71 574.99,-86.94 576.82,-93.7"/>
</a>
</g>
</g>
<!-- Node9 -->
<g id="Node000009" class="node">
<title>Node9</title>
<g id="a_Node000009"><a xlink:title=" ">
<polygon fill="#e0e0e0" stroke="#999999" points="812.75,-86.5 753.25,-86.5 753.25,-61.25 812.75,-61.25 812.75,-86.5"/>
<text text-anchor="middle" x="783" y="-69.2" font-family="Helvetica,sans-Serif" font-size="14.00">vector</text>
</a>
</g>
</g>
<!-- Node1&#45;&gt;Node9 -->
<g id="edge7_Node000001_Node000009" class="edge">
<title>Node1&#45;&gt;Node9</title>
<g id="a_edge7_Node000001_Node000009"><a xlink:title=" ">
<path fill="none" stroke="#63b8ff" stroke-width="2" d="M493.2,-126.2C557.62,-118.97 651.02,-106.69 740.27,-87.34"/>
<polygon fill="#63b8ff" stroke="#63b8ff" stroke-width="2" points="740.87,-90.79 749.87,-85.22 739.35,-83.96 740.87,-90.79"/>
</a>
</g>
</g>
<!-- Node3 -->
<g id="Node000003" class="node">
<title>Node3</title>
<g id="a_Node000003"><a xlink:title=" ">
<polygon fill="#e0e0e0" stroke="#999999" points="220,-25.25 0,-25.25 0,0 220,0 220,-25.25"/>
<text text-anchor="middle" x="110" y="-7.95" font-family="Helvetica,sans-Serif" font-size="14.00">SFML/Graphics/Drawable.hpp</text>
</a>
</g>
</g>
<!-- Node2&#45;&gt;Node3 -->
<g id="edge2_Node000002_Node000003" class="edge">
<title>Node2&#45;&gt;Node3</title>
<g id="a_edge2_Node000002_Node000003"><a xlink:title=" ">
<path fill="none" stroke="#63b8ff" stroke-width="2" d="M176.2,-60.88C165.07,-52.93 150.2,-42.32 137.37,-33.16"/>
<polygon fill="#63b8ff" stroke="#63b8ff" stroke-width="2" points="139.41,-30.32 129.24,-27.36 135.34,-36.01 139.41,-30.32"/>
</a>
</g>
</g>
<!-- Node2&#45;&gt;Node4 -->
<g id="edge3_Node000002_Node000004" class="edge">
<title>Node2&#45;&gt;Node4</title>
<g id="a_edge3_Node000002_Node000004"><a xlink:title=" ">
<path fill="none" stroke="#63b8ff" stroke-width="2" d="M212.22,-60.88C225.36,-52.69 243.03,-41.67 258,-32.34"/>
<polygon fill="#63b8ff" stroke="#63b8ff" stroke-width="2" points="259.6,-35.46 266.24,-27.2 255.9,-29.52 259.6,-35.46"/>
</a>
</g>
</g>
</g>
</svg>
