<?xml version="1.0" encoding="UTF-8" standalone="no"?>
<!DOCTYPE svg PUBLIC "-//W3C//DTD SVG 1.1//EN"
 "http://www.w3.org/Graphics/SVG/1.1/DTD/svg11.dtd">
<!-- Generated by graphviz version 9.0.0 (0)
 -->
<!-- Title: animatedObject.hpp Pages: 1 -->
<!--zoomable 156 -->

<svg id="main" version="1.1" xmlns="http://www.w3.org/2000/svg" xmlns:xlink="http://www.w3.org/1999/xlink" xml:space="preserve" onload="init(evt)">
<style type="text/css"><![CDATA[
.node, .edge {opacity: 0.7;}
.node.selected, .edge.selected {opacity: 1;}
.edge:hover path { stroke: red; }
.edge:hover polygon { stroke: red; fill: red; }
]]></style>

<defs>
  <circle id="rim" cx="0" cy="0" r="7"/>
  <circle id="rim2" cx="0" cy="0" r="3.5"/>
  <g id="zoomPlus">
    <use xlink:href="#rim" fill="#404040"><set attributeName="fill" to="#808080" begin="zoomplus.mouseover" end="zoomplus.mouseout"/></use>
    <path d="M-4,0h8M0,-4v8" fill="none" stroke="white" stroke-width="1.5" pointer-events="none"/>
  </g>
  <g id="zoomMin">
    <use xlink:href="#rim" fill="#404040"><set attributeName="fill" to="#808080" begin="zoomminus.mouseover" end="zoomminus.mouseout"/></use>
    <path d="M-4,0h8" fill="none" stroke="white" stroke-width="1.5" pointer-events="none"/>
  </g>
  <g id="arrowUp" transform="translate(30 24)">
    <use xlink:href="#rim"/>
    <path pointer-events="none" fill="none" stroke="white" stroke-width="1.5" d="M0,-3.0v7 M-2.5,-0.5L0,-3.0L2.5,-0.5"/>
  </g>
  <g id="arrowRight" transform="rotate(90) translate(36 -43)">
    <use xlink:href="#rim"/>
    <path pointer-events="none" fill="none" stroke="white" stroke-width="1.5" d="M0,-3.0v7 M-2.5,-0.5L0,-3.0L2.5,-0.5"/>
  </g>
  <g id="arrowDown" transform="rotate(180) translate(-30 -48)">
    <use xlink:href="#rim"/>
    <path pointer-events="none" fill="none" stroke="white" stroke-width="1.5" d="M0,-3.0v7 M-2.5,-0.5L0,-3.0L2.5,-0.5"/>
  </g>
  <g id="arrowLeft" transform="rotate(270) translate(-36 17)">
    <use xlink:href="#rim"/>
    <path pointer-events="none" fill="none" stroke="white" stroke-width="1.5" d="M0,-3.0v7 M-2.5,-0.5L0,-3.0L2.5,-0.5"/>
  </g>
  <g id="resetDef">
    <use xlink:href="#rim2" fill="#404040"><set attributeName="fill" to="#808080" begin="reset.mouseover" end="reset.mouseout"/></use>
  </g>
</defs>
<script type="application/ecmascript">
var viewWidth = 821;
var viewHeight = 156;
var sectionId = 'dynsection-0';
</script>
<script type="application/ecmascript" xlink:href="../../svg.min.js"/>
<svg id="graph" class="graph">
<g id="viewport">
<title>animatedObject.hpp</title>
<!-- Node1 -->
<g id="Node000001" class="node">
<title>Node1</title>
<g id="a_Node000001"><a xlink:title=" ">
<polygon fill="#999999" stroke="#666666" points="492.88,-147.75 335.12,-147.75 335.12,-122.5 492.88,-122.5 492.88,-147.75"/>
<text text-anchor="middle" x="414" y="-130.45" font-family="Helvetica,sans-Serif" font-size="14.00">animatedObject.hpp</text>
</a>
</g>
</g>
<!-- Node2 -->
<g id="Node000002" class="node">
<title>Node2</title>
<g id="a_Node000002"><a xlink:href="../../d4/db5/GameObject_8hpp.html" target="_top" xlink:title=" ">
<polygon fill="white" stroke="#666666" points="259.5,-86.5 126.5,-86.5 126.5,-61.25 259.5,-61.25 259.5,-86.5"/>
<text text-anchor="middle" x="193" y="-69.2" font-family="Helvetica,sans-Serif" font-size="14.00">GameObject.hpp</text>
</a>
</g>
</g>
<!-- Node1&#45;&gt;Node2 -->
<g id="edge1_Node000001_Node000002" class="edge">
<title>Node1&#45;&gt;Node2</title>
<g id="a_edge1_Node000001_Node000002"><a xlink:title=" ">
<path fill="none" stroke="#63b8ff" stroke-width="2" d="M369.01,-122.06C334.65,-112.85 287.07,-100.1 250.05,-90.17"/>
<polygon fill="#63b8ff" stroke="#63b8ff" stroke-width="2" points="251.42,-86.91 240.85,-87.7 249.6,-93.67 251.42,-86.91"/>
</a>
</g>
</g>
<!-- Node4 -->
<g id="Node000004" class="node">
<title>Node4</title>
<g id="a_Node000004"><a xlink:href="../../d9/d03/point2d_8hpp.html" target="_top" xlink:title=" ">
<polygon fill="#fff0f0" stroke="red" points="338.38,-25.25 237.62,-25.25 237.62,0 338.38,0 338.38,-25.25"/>
<text text-anchor="middle" x="288" y="-7.95" font-family="Helvetica,sans-Serif" font-size="14.00">point2d.hpp</text>
</a>
</g>
</g>
<!-- Node1&#45;&gt;Node4 -->
<g id="edge6_Node000001_Node000004" class="edge">
<title>Node1&#45;&gt;Node4</title>
<g id="a_edge6_Node000001_Node000004"><a xlink:title=" ">
<path fill="none" stroke="#63b8ff" stroke-width="2" d="M363.68,-122.06C343.46,-114.85 321.54,-103.63 307,-86.5 295.67,-73.14 290.99,-53.8 289.11,-38.4"/>
<polygon fill="#63b8ff" stroke="#63b8ff" stroke-width="2" points="292.62,-38.35 288.31,-28.67 285.64,-38.93 292.62,-38.35"/>
</a>
</g>
</g>
<!-- Node7 -->
<g id="Node000007" class="node">
<title>Node7</title>
<g id="a_Node000007"><a xlink:title=" ">
<polygon fill="#e0e0e0" stroke="#999999" points="512,-86.5 316,-86.5 316,-61.25 512,-61.25 512,-86.5"/>
<text text-anchor="middle" x="414" y="-69.2" font-family="Helvetica,sans-Serif" font-size="14.00">SFML/Graphics/Sprite.hpp</text>
</a>
</g>
</g>
<!-- Node1&#45;&gt;Node7 -->
<g id="edge4_Node000001_Node000007" class="edge">
<title>Node1&#45;&gt;Node7</title>
<g id="a_edge4_Node000001_Node000007"><a xlink:title=" ">
<path fill="none" stroke="#63b8ff" stroke-width="2" d="M414,-122.13C414,-115.71 414,-107.55 414,-99.82"/>
<polygon fill="#63b8ff" stroke="#63b8ff" stroke-width="2" points="417.5,-99.87 414,-89.87 410.5,-99.87 417.5,-99.87"/>
</a>
</g>
</g>
<!-- Node8 -->
<g id="Node000008" class="node">
<title>Node8</title>
<g id="a_Node000008"><a xlink:title=" ">
<polygon fill="#e0e0e0" stroke="#999999" points="735.5,-86.5 530.5,-86.5 530.5,-61.25 735.5,-61.25 735.5,-86.5"/>
<text text-anchor="middle" x="633" y="-69.2" font-family="Helvetica,sans-Serif" font-size="14.00">SFML/Graphics/Texture.hpp</text>
</a>
</g>
</g>
<!-- Node1&#45;&gt;Node8 -->
<g id="edge5_Node000001_Node000008" class="edge">
<title>Node1&#45;&gt;Node8</title>
<g id="a_edge5_Node000001_Node000008"><a xlink:title=" ">
<path fill="none" stroke="#63b8ff" stroke-width="2" d="M458.58,-122.06C492.48,-112.89 539.37,-100.21 575.99,-90.3"/>
<polygon fill="#63b8ff" stroke="#63b8ff" stroke-width="2" points="576.82,-93.7 585.56,-87.71 574.99,-86.94 576.82,-93.7"/>
</a>
</g>
</g>
<!-- Node9 -->
<g id="Node000009" class="node">
<title>Node9</title>
<g id="a_Node000009"><a xlink:title=" ">
<polygon fill="#e0e0e0" stroke="#999999" points="812.75,-86.5 753.25,-86.5 753.25,-61.25 812.75,-61.25 812.75,-86.5"/>
<text text-anchor="middle" x="783" y="-69.2" font-family="Helvetica,sans-Serif" font-size="14.00">vector</text>
</a>
</g>
</g>
<!-- Node1&#45;&gt;Node9 -->
<g id="edge7_Node000001_Node000009" class="edge">
<title>Node1&#45;&gt;Node9</title>
<g id="a_edge7_Node000001_Node000009"><a xlink:title=" ">
<path fill="none" stroke="#63b8ff" stroke-width="2" d="M493.2,-126.2C557.62,-118.97 651.02,-106.69 740.27,-87.34"/>
<polygon fill="#63b8ff" stroke="#63b8ff" stroke-width="2" points="740.87,-90.79 749.87,-85.22 739.35,-83.96 740.87,-90.79"/>
</a>
</g>
</g>
<!-- Node3 -->
<g id="Node000003" class="node">
<title>Node3</title>
<g id="a_Node000003"><a xlink:title=" ">
<polygon fill="#e0e0e0" stroke="#999999" points="220,-25.25 0,-25.25 0,0 220,0 220,-25.25"/>
<text text-anchor="middle" x="110" y="-7.95" font-family="Helvetica,sans-Serif" font-size="14.00">SFML/Graphics/Drawable.hpp</text>
</a>
</g>
</g>
<!-- Node2&#45;&gt;Node3 -->
<g id="edge2_Node000002_Node000003" class="edge">
<title>Node2&#45;&gt;Node3</title>
<g id="a_edge2_Node000002_Node000003"><a xlink:title=" ">
<path fill="none" stroke="#63b8ff" stroke-width="2" d="M176.2,-60.88C165.07,-52.93 150.2,-42.32 137.37,-33.16"/>
<polygon fill="#63b8ff" stroke="#63b8ff" stroke-width="2" points="139.41,-30.32 129.24,-27.36 135.34,-36.01 139.41,-30.32"/>
</a>
</g>
</g>
<!-- Node2&#45;&gt;Node4 -->
<g id="edge3_Node000002_Node000004" class="edge">
<title>Node2&#45;&gt;Node4</title>
<g id="a_edge3_Node000002_Node000004"><a xlink:title=" ">
<path fill="none" stroke="#63b8ff" stroke-width="2" d="M212.22,-60.88C225.36,-52.69 243.03,-41.67 258,-32.34"/>
<polygon fill="#63b8ff" stroke="#63b8ff" stroke-width="2" points="259.6,-35.46 266.24,-27.2 255.9,-29.52 259.6,-35.46"/>
</a>
</g>
</g>
</g>
</svg>

<g id="navigator" transform="translate(0 0)" fill="#404254">
  <rect fill="#f2f5e9" fill-opacity="0.5" stroke="#606060" stroke-width=".5" x="0" y="0" width="60" height="60"/>
  <use id="zoomplus" xlink:href="#zoomPlus" x="17" y="9" onmousedown="handleZoom(evt,'in')"/>
  <use id="zoomminus" xlink:href="#zoomMin" x="42" y="9" onmousedown="handleZoom(evt,'out')"/>
  <use id="reset" xlink:href="#resetDef" x="30" y="36" onmousedown="handleReset()"/>
   <use id="arrowup" xlink:href="#arrowUp" x="0" y="0" onmousedown="handlePan(0,-1)"/>
  <use id="arrowright" xlink:href="#arrowRight" x="0" y="0" onmousedown="handlePan(1,0)"/>
  <use id="arrowdown" xlink:href="#arrowDown" x="0" y="0" onmousedown="handlePan(0,1)"/>
  <use id="arrowleft" xlink:href="#arrowLeft" x="0" y="0" onmousedown="handlePan(-1,0)"/>
</g>
<svg viewBox="0 0 15 15" width="100%" height="30px" preserveAspectRatio="xMaxYMin meet">
 <g id="arrow_out" transform="scale(0.3 0.3)">
  <a xlink:href="animatedObject_8hpp__incl_org.svg" target="_base">
   <rect id="button" ry="5" rx="5" y="6" x="6" height="38" width="38"
        fill="#f2f5e9" fill-opacity="0.5" stroke="#606060" stroke-width="1.0"/>
   <path id="arrow"
     d="M 11.500037,31.436501 C 11.940474,20.09759 22.043105,11.32322 32.158766,21.979434 L 37.068811,17.246167 C 37.068811,17.246167 37.088388,32 37.088388,32 L 22.160133,31.978069 C 22.160133,31.978069 26.997745,27.140456 26.997745,27.140456 C 18.528582,18.264221 13.291696,25.230495 11.500037,31.436501 z"
     style="fill:#404040;"/>
  </a>
 </g>
</svg>

<style type='text/css'>
<![CDATA[
[data-mouse-over-selected='false'] { opacity: 0.7; }
[data-mouse-over-selected='true']  { opacity: 1.0; }
]]>
</style>
<script type="application/ecmascript"><![CDATA[
document.addEventListener('DOMContentLoaded', (event) => {
  highlightEdges();
  highlightAdjacentNodes();
});
]]></script>
</svg>
