<?xml version="1.0" encoding="UTF-8" standalone="no"?>
<!DOCTYPE svg PUBLIC "-//W3C//DTD SVG 1.1//EN"
 "http://www.w3.org/Graphics/SVG/1.1/DTD/svg11.dtd">
<!-- Generated by graphviz version 9.0.0 (0)
 -->
<!-- Title: GameObject.hpp Pages: 1 -->
<!--zoomable 278 -->

<svg id="main" version="1.1" xmlns="http://www.w3.org/2000/svg" xmlns:xlink="http://www.w3.org/1999/xlink" xml:space="preserve" onload="init(evt)">
<style type="text/css"><![CDATA[
.node, .edge {opacity: 0.7;}
.node.selected, .edge.selected {opacity: 1;}
.edge:hover path { stroke: red; }
.edge:hover polygon { stroke: red; fill: red; }
]]></style>

<defs>
  <circle id="rim" cx="0" cy="0" r="7"/>
  <circle id="rim2" cx="0" cy="0" r="3.5"/>
  <g id="zoomPlus">
    <use xlink:href="#rim" fill="#404040"><set attributeName="fill" to="#808080" begin="zoomplus.mouseover" end="zoomplus.mouseout"/></use>
    <path d="M-4,0h8M0,-4v8" fill="none" stroke="white" stroke-width="1.5" pointer-events="none"/>
  </g>
  <g id="zoomMin">
    <use xlink:href="#rim" fill="#404040"><set attributeName="fill" to="#808080" begin="zoomminus.mouseover" end="zoomminus.mouseout"/></use>
    <path d="M-4,0h8" fill="none" stroke="white" stroke-width="1.5" pointer-events="none"/>
  </g>
  <g id="arrowUp" transform="translate(30 24)">
    <use xlink:href="#rim"/>
    <path pointer-events="none" fill="none" stroke="white" stroke-width="1.5" d="M0,-3.0v7 M-2.5,-0.5L0,-3.0L2.5,-0.5"/>
  </g>
  <g id="arrowRight" transform="rotate(90) translate(36 -43)">
    <use xlink:href="#rim"/>
    <path pointer-events="none" fill="none" stroke="white" stroke-width="1.5" d="M0,-3.0v7 M-2.5,-0.5L0,-3.0L2.5,-0.5"/>
  </g>
  <g id="arrowDown" transform="rotate(180) translate(-30 -48)">
    <use xlink:href="#rim"/>
    <path pointer-events="none" fill="none" stroke="white" stroke-width="1.5" d="M0,-3.0v7 M-2.5,-0.5L0,-3.0L2.5,-0.5"/>
  </g>
  <g id="arrowLeft" transform="rotate(270) translate(-36 17)">
    <use xlink:href="#rim"/>
    <path pointer-events="none" fill="none" stroke="white" stroke-width="1.5" d="M0,-3.0v7 M-2.5,-0.5L0,-3.0L2.5,-0.5"/>
  </g>
  <g id="resetDef">
    <use xlink:href="#rim2" fill="#404040"><set attributeName="fill" to="#808080" begin="reset.mouseover" end="reset.mouseout"/></use>
  </g>
</defs>
<script type="application/ecmascript">
var viewWidth = 1013;
var viewHeight = 278;
var sectionId = 'dynsection-1';
</script>
<script type="application/ecmascript" xlink:href="../../svg.min.js"/>
<svg id="graph" class="graph">
<g id="viewport">
<title>GameObject.hpp</title>
<!-- Node1 -->
<g id="Node000001" class="node">
<title>Node1</title>
<g id="a_Node000001"><a xlink:title=" ">
<polygon fill="#999999" stroke="#666666" points="470.25,-270.25 337.25,-270.25 337.25,-245 470.25,-245 470.25,-270.25"/>
<text text-anchor="middle" x="403.75" y="-252.95" font-family="Helvetica,sans-Serif" font-size="14.00">GameObject.hpp</text>
</a>
</g>
</g>
<!-- Node2 -->
<g id="Node000002" class="node">
<title>Node2</title>
<g id="a_Node000002"><a xlink:href="../../d4/d2b/GameObject_8cpp.html" target="_top" xlink:title=" ">
<polygon fill="white" stroke="#666666" points="131.5,-209 0,-209 0,-183.75 131.5,-183.75 131.5,-209"/>
<text text-anchor="middle" x="65.75" y="-191.7" font-family="Helvetica,sans-Serif" font-size="14.00">GameObject.cpp</text>
</a>
</g>
</g>
<!-- Node1&#45;&gt;Node2 -->
<g id="edge1_Node000001_Node000002" class="edge">
<title>Node1&#45;&gt;Node2</title>
<g id="a_edge1_Node000001_Node000002"><a xlink:title=" ">
<path fill="none" stroke="#63b8ff" stroke-width="2" d="M324.42,-242.72C265.83,-232.45 186.99,-218.63 131.81,-208.96"/>
<polygon fill="#63b8ff" stroke="#63b8ff" stroke-width="2" points="323.54,-246.12 333.99,-244.4 324.74,-239.22 323.54,-246.12"/>
</a>
</g>
</g>
<!-- Node3 -->
<g id="Node000003" class="node">
<title>Node3</title>
<g id="a_Node000003"><a xlink:href="../../dc/d3e/animatedObject_8hpp.html" target="_top" xlink:title=" ">
<polygon fill="white" stroke="#666666" points="597.62,-209 439.88,-209 439.88,-183.75 597.62,-183.75 597.62,-209"/>
<text text-anchor="middle" x="518.75" y="-191.7" font-family="Helvetica,sans-Serif" font-size="14.00">animatedObject.hpp</text>
</a>
</g>
</g>
<!-- Node1&#45;&gt;Node3 -->
<g id="edge2_Node000001_Node000003" class="edge">
<title>Node1&#45;&gt;Node3</title>
<g id="a_edge2_Node000001_Node000003"><a xlink:title=" ">
<path fill="none" stroke="#63b8ff" stroke-width="2" d="M438.51,-238.71C456.97,-229.2 479.15,-217.78 495.51,-209.35"/>
<polygon fill="#63b8ff" stroke="#63b8ff" stroke-width="2" points="437,-235.56 429.71,-243.25 440.21,-241.78 437,-235.56"/>
</a>
</g>
</g>
<!-- Node11 -->
<g id="Node000011" class="node">
<title>Node11</title>
<g id="a_Node000011"><a xlink:href="../../dc/d84/ball_8hpp.html" target="_top" xlink:title=" ">
<polygon fill="white" stroke="#666666" points="259.88,-147.75 187.62,-147.75 187.62,-122.5 259.88,-122.5 259.88,-147.75"/>
<text text-anchor="middle" x="223.75" y="-130.45" font-family="Helvetica,sans-Serif" font-size="14.00">ball.hpp</text>
</a>
</g>
</g>
<!-- Node1&#45;&gt;Node11 -->
<g id="edge27_Node000001_Node000011" class="edge">
<title>Node1&#45;&gt;Node11</title>
<g id="a_edge27_Node000001_Node000011"><a xlink:title=" ">
<path fill="none" stroke="#63b8ff" stroke-width="2" d="M375.15,-237.48C337.71,-212.42 273.19,-169.22 241.86,-148.25"/>
<polygon fill="#63b8ff" stroke="#63b8ff" stroke-width="2" points="373.06,-240.29 383.32,-242.95 376.95,-234.48 373.06,-240.29"/>
</a>
</g>
</g>
<!-- Node12 -->
<g id="Node000012" class="node">
<title>Node12</title>
<g id="a_Node000012"><a xlink:href="../../d5/d25/ball_8cpp.html" target="_top" xlink:title=" ">
<polygon fill="white" stroke="#666666" points="196.12,-86.5 125.38,-86.5 125.38,-61.25 196.12,-61.25 196.12,-86.5"/>
<text text-anchor="middle" x="160.75" y="-69.2" font-family="Helvetica,sans-Serif" font-size="14.00">ball.cpp</text>
</a>
</g>
</g>
<!-- Node1&#45;&gt;Node12 -->
<g id="edge26_Node000001_Node000012" class="edge">
<title>Node1&#45;&gt;Node12</title>
<g id="a_edge26_Node000001_Node000012"><a xlink:title=" ">
<path fill="none" stroke="#63b8ff" stroke-width="2" d="M335.33,-241.02C284.43,-225.8 217.34,-197.47 178.75,-147.75 164.77,-129.73 161.49,-102.29 160.82,-86.73"/>
<polygon fill="#63b8ff" stroke="#63b8ff" stroke-width="2" points="334.08,-244.3 344.66,-243.69 336.01,-237.57 334.08,-244.3"/>
</a>
</g>
</g>
<!-- Node20 -->
<g id="Node000020" class="node">
<title>Node20</title>
<g id="a_Node000020"><a xlink:href="../../db/d80/player_8cpp.html" target="_top" xlink:title=" ">
<polygon fill="white" stroke="#666666" points="987.75,-86.5 899.75,-86.5 899.75,-61.25 987.75,-61.25 987.75,-86.5"/>
<text text-anchor="middle" x="943.75" y="-69.2" font-family="Helvetica,sans-Serif" font-size="14.00">player.cpp</text>
</a>
</g>
</g>
<!-- Node1&#45;&gt;Node20 -->
<g id="edge28_Node000001_Node000020" class="edge">
<title>Node1&#45;&gt;Node20</title>
<g id="a_edge28_Node000001_Node000020"><a xlink:title=" ">
<path fill="none" stroke="#63b8ff" stroke-width="2" d="M483.44,-247.44C606.85,-231.89 836.76,-197.15 901.75,-147.75 922.33,-132.11 934.53,-103.26 940.1,-86.94"/>
<polygon fill="#63b8ff" stroke="#63b8ff" stroke-width="2" points="483.24,-243.94 473.75,-248.65 484.11,-250.89 483.24,-243.94"/>
</a>
</g>
</g>
<!-- Node22 -->
<g id="Node000022" class="node">
<title>Node22</title>
<g id="a_Node000022"><a xlink:href="../../d9/d85/player_8hpp.html" target="_top" xlink:title=" ">
<polygon fill="white" stroke="#666666" points="892.5,-147.75 803,-147.75 803,-122.5 892.5,-122.5 892.5,-147.75"/>
<text text-anchor="middle" x="847.75" y="-130.45" font-family="Helvetica,sans-Serif" font-size="14.00">player.hpp</text>
</a>
</g>
</g>
<!-- Node1&#45;&gt;Node22 -->
<g id="edge29_Node000001_Node000022" class="edge">
<title>Node1&#45;&gt;Node22</title>
<g id="a_edge29_Node000001_Node000022"><a xlink:title=" ">
<path fill="none" stroke="#63b8ff" stroke-width="2" d="M472.24,-241.69C511.72,-232.8 562.2,-220.95 606.75,-209 679.37,-189.52 763.2,-163.32 810.39,-148.22"/>
<polygon fill="#63b8ff" stroke="#63b8ff" stroke-width="2" points="471.51,-238.27 462.51,-243.87 473.04,-245.1 471.51,-238.27"/>
</a>
</g>
</g>
<!-- Node4 -->
<g id="Node000004" class="node">
<title>Node4</title>
<g id="a_Node000004"><a xlink:href="../../d4/dea/animatedObject_8cpp.html" target="_top" xlink:title=" ">
<polygon fill="white" stroke="#666666" points="471.88,-147.75 315.62,-147.75 315.62,-122.5 471.88,-122.5 471.88,-147.75"/>
<text text-anchor="middle" x="393.75" y="-130.45" font-family="Helvetica,sans-Serif" font-size="14.00">animatedObject.cpp</text>
</a>
</g>
</g>
<!-- Node3&#45;&gt;Node4 -->
<g id="edge3_Node000003_Node000004" class="edge">
<title>Node3&#45;&gt;Node4</title>
<g id="a_edge3_Node000003_Node000004"><a xlink:title=" ">
<path fill="none" stroke="#63b8ff" stroke-width="2" d="M481.82,-177.87C461.59,-168.28 437.04,-156.65 419.01,-148.1"/>
<polygon fill="#63b8ff" stroke="#63b8ff" stroke-width="2" points="480.18,-180.97 490.72,-182.09 483.18,-174.64 480.18,-180.97"/>
</a>
</g>
</g>
<!-- Node5 -->
<g id="Node000005" class="node">
<title>Node5</title>
<g id="a_Node000005"><a xlink:href="../../d7/db2/animatedSpriteSheet_8hpp.html" target="_top" xlink:title=" ">
<polygon fill="#fff0f0" stroke="red" points="445.62,-86.5 251.88,-86.5 251.88,-61.25 445.62,-61.25 445.62,-86.5"/>
<text text-anchor="middle" x="348.75" y="-69.2" font-family="Helvetica,sans-Serif" font-size="14.00">animatedSpriteSheet.hpp</text>
</a>
</g>
</g>
<!-- Node3&#45;&gt;Node5 -->
<g id="edge4_Node000003_Node000005" class="edge">
<title>Node3&#45;&gt;Node5</title>
<g id="a_edge4_Node000003_Node000005"><a xlink:title=" ">
<path fill="none" stroke="#63b8ff" stroke-width="2" d="M426.56,-186.06C376.64,-178.91 322.09,-166.92 306.75,-147.75 291.06,-128.14 315.41,-101.98 333.08,-86.93"/>
<polygon fill="#63b8ff" stroke="#63b8ff" stroke-width="2" points="426.08,-189.53 436.47,-187.41 427.03,-182.59 426.08,-189.53"/>
</a>
</g>
</g>
<!-- Node9 -->
<g id="Node000009" class="node">
<title>Node9</title>
<g id="a_Node000009"><a xlink:href="../../d0/d8d/test2_2main_8cpp.html" target="_top" xlink:title=" ">
<polygon fill="white" stroke="#666666" points="583,-25.25 502.5,-25.25 502.5,0 583,0 583,-25.25"/>
<text text-anchor="middle" x="542.75" y="-7.95" font-family="Helvetica,sans-Serif" font-size="14.00">main.cpp</text>
</a>
</g>
</g>
<!-- Node3&#45;&gt;Node9 -->
<g id="edge20_Node000003_Node000009" class="edge">
<title>Node3&#45;&gt;Node9</title>
<g id="a_edge20_Node000003_Node000009"><a xlink:title=" ">
<path fill="none" stroke="#63b8ff" stroke-width="2" d="M506.16,-171.88C493.22,-144.38 477.02,-97.95 492.75,-61.25 499.08,-46.48 512.48,-34.13 523.82,-25.7"/>
<polygon fill="#63b8ff" stroke="#63b8ff" stroke-width="2" points="502.97,-173.31 510.57,-180.69 509.23,-170.18 502.97,-173.31"/>
</a>
</g>
</g>
<!-- Node3&#45;&gt;Node11 -->
<g id="edge6_Node000003_Node000011" class="edge">
<title>Node3&#45;&gt;Node11</title>
<g id="a_edge6_Node000003_Node000011"><a xlink:title=" ">
<path fill="none" stroke="#63b8ff" stroke-width="2" d="M440.56,-180.93C392.38,-171.84 329.38,-159.62 273.75,-147.75 269.39,-146.82 264.83,-145.81 260.31,-144.79"/>
<polygon fill="#63b8ff" stroke="#63b8ff" stroke-width="2" points="439.66,-184.32 450.13,-182.73 440.95,-177.44 439.66,-184.32"/>
</a>
</g>
</g>
<!-- Node13 -->
<g id="Node000013" class="node">
<title>Node13</title>
<g id="a_Node000013"><a xlink:href="../../d3/d17/bush_8hpp.html" target="_top" xlink:title=" ">
<polygon fill="#fff0f0" stroke="red" points="583.75,-86.5 501.75,-86.5 501.75,-61.25 583.75,-61.25 583.75,-86.5"/>
<text text-anchor="middle" x="542.75" y="-69.2" font-family="Helvetica,sans-Serif" font-size="14.00">bush.hpp</text>
</a>
</g>
</g>
<!-- Node3&#45;&gt;Node13 -->
<g id="edge9_Node000003_Node000013" class="edge">
<title>Node3&#45;&gt;Node13</title>
<g id="a_edge9_Node000003_Node000013"><a xlink:title=" ">
<path fill="none" stroke="#63b8ff" stroke-width="2" d="M523.65,-170.76C528.74,-145.2 536.5,-106.28 540.37,-86.82"/>
<polygon fill="#63b8ff" stroke="#63b8ff" stroke-width="2" points="520.25,-169.92 521.73,-180.41 527.12,-171.29 520.25,-169.92"/>
</a>
</g>
</g>
<!-- Node15 -->
<g id="Node000015" class="node">
<title>Node15</title>
<g id="a_Node000015"><a xlink:href="../../de/d46/engine_8hpp.html" target="_top" xlink:title=" ">
<polygon fill="#fff0f0" stroke="red" points="660.12,-147.75 565.38,-147.75 565.38,-122.5 660.12,-122.5 660.12,-147.75"/>
<text text-anchor="middle" x="612.75" y="-130.45" font-family="Helvetica,sans-Serif" font-size="14.00">engine.hpp</text>
</a>
</g>
</g>
<!-- Node3&#45;&gt;Node15 -->
<g id="edge11_Node000003_Node000015" class="edge">
<title>Node3&#45;&gt;Node15</title>
<g id="a_edge11_Node000003_Node000015"><a xlink:title=" ">
<path fill="none" stroke="#63b8ff" stroke-width="2" d="M548.47,-176.64C563.28,-167.3 580.77,-156.28 593.76,-148.1"/>
<polygon fill="#63b8ff" stroke="#63b8ff" stroke-width="2" points="546.93,-173.48 540.33,-181.77 550.66,-179.4 546.93,-173.48"/>
</a>
</g>
</g>
<!-- Node17 -->
<g id="Node000017" class="node">
<title>Node17</title>
<g id="a_Node000017"><a xlink:href="../../d1/d52/gamePlayer_8cpp.html" target="_top" xlink:title=" ">
<polygon fill="white" stroke="#666666" points="796.88,-25.25 670.62,-25.25 670.62,0 796.88,0 796.88,-25.25"/>
<text text-anchor="middle" x="733.75" y="-7.95" font-family="Helvetica,sans-Serif" font-size="14.00">gamePlayer.cpp</text>
</a>
</g>
</g>
<!-- Node3&#45;&gt;Node17 -->
<g id="edge16_Node000003_Node000017" class="edge">
<title>Node3&#45;&gt;Node17</title>
<g id="a_edge16_Node000003_Node000017"><a xlink:title=" ">
<path fill="none" stroke="#63b8ff" stroke-width="2" d="M610.39,-179.69C631.4,-172.66 652.36,-162.48 668.75,-147.75 699.98,-119.68 687.93,-98.79 706.75,-61.25 712.97,-48.85 720.88,-35.1 726.52,-25.58"/>
<polygon fill="#63b8ff" stroke="#63b8ff" stroke-width="2" points="609.47,-176.31 600.93,-182.59 611.52,-183 609.47,-176.31"/>
</a>
</g>
</g>
<!-- Node21 -->
<g id="Node000021" class="node">
<title>Node21</title>
<g id="a_Node000021"><a xlink:href="../../d7/d9b/gamePlayer_8hpp.html" target="_top" xlink:title=" ">
<polygon fill="white" stroke="#666666" points="843.62,-86.5 715.88,-86.5 715.88,-61.25 843.62,-61.25 843.62,-86.5"/>
<text text-anchor="middle" x="779.75" y="-69.2" font-family="Helvetica,sans-Serif" font-size="14.00">gamePlayer.hpp</text>
</a>
</g>
</g>
<!-- Node3&#45;&gt;Node21 -->
<g id="edge17_Node000003_Node000021" class="edge">
<title>Node3&#45;&gt;Node21</title>
<g id="a_edge17_Node000003_Node000021"><a xlink:title=" ">
<path fill="none" stroke="#63b8ff" stroke-width="2" d="M610.44,-180.87C640.74,-173.68 673.82,-163.12 701.75,-147.75 730.49,-131.94 756.77,-103.15 770.26,-86.89"/>
<polygon fill="#63b8ff" stroke="#63b8ff" stroke-width="2" points="610.04,-177.38 601.05,-182.99 611.58,-184.21 610.04,-177.38"/>
</a>
</g>
</g>
<!-- Node3&#45;&gt;Node22 -->
<g id="edge21_Node000003_Node000022" class="edge">
<title>Node3&#45;&gt;Node22</title>
<g id="a_edge21_Node000003_Node000022"><a xlink:title=" ">
<path fill="none" stroke="#63b8ff" stroke-width="2" d="M598.19,-181.07C662.21,-169.54 749.93,-153.74 802.51,-144.27"/>
<polygon fill="#63b8ff" stroke="#63b8ff" stroke-width="2" points="597.93,-177.56 588.7,-182.78 599.17,-184.45 597.93,-177.56"/>
</a>
</g>
</g>
<!-- Node5&#45;&gt;Node9 -->
<g id="edge5_Node000005_Node000009" class="edge">
<title>Node5&#45;&gt;Node9</title>
<g id="a_edge5_Node000005_Node000009"><a xlink:title=" ">
<path fill="none" stroke="#63b8ff" stroke-width="2" d="M400.35,-57.11C432.62,-47.26 473.53,-34.77 503.22,-25.7"/>
<polygon fill="#63b8ff" stroke="#63b8ff" stroke-width="2" points="399.45,-53.73 390.9,-60 401.49,-60.43 399.45,-53.73"/>
</a>
</g>
</g>
<!-- Node11&#45;&gt;Node9 -->
<g id="edge8_Node000011_Node000009" class="edge">
<title>Node11&#45;&gt;Node9</title>
<g id="a_edge8_Node000011_Node000009"><a xlink:title=" ">
<path fill="none" stroke="#63b8ff" stroke-width="2" d="M223.65,-109.29C224.98,-93.28 229.49,-73.27 242.75,-61.25 280.11,-27.37 429.08,-17.53 502.05,-14.72"/>
<polygon fill="#63b8ff" stroke="#63b8ff" stroke-width="2" points="220.16,-108.88 223.28,-119.01 227.16,-109.15 220.16,-108.88"/>
</a>
</g>
</g>
<!-- Node11&#45;&gt;Node12 -->
<g id="edge7_Node000011_Node000012" class="edge">
<title>Node11&#45;&gt;Node12</title>
<g id="a_edge7_Node000011_Node000012"><a xlink:title=" ">
<path fill="none" stroke="#63b8ff" stroke-width="2" d="M201.77,-113.45C192.31,-104.55 181.59,-94.47 173.48,-86.85"/>
<polygon fill="#63b8ff" stroke="#63b8ff" stroke-width="2" points="199.11,-115.76 208.8,-120.06 203.91,-110.66 199.11,-115.76"/>
</a>
</g>
</g>
<!-- Node13&#45;&gt;Node9 -->
<g id="edge10_Node000013_Node000009" class="edge">
<title>Node13&#45;&gt;Node9</title>
<g id="a_edge10_Node000013_Node000009"><a xlink:title=" ">
<path fill="none" stroke="#63b8ff" stroke-width="2" d="M542.75,-47.91C542.75,-40.18 542.75,-32.02 542.75,-25.6"/>
<polygon fill="#63b8ff" stroke="#63b8ff" stroke-width="2" points="539.25,-47.86 542.75,-57.86 546.25,-47.86 539.25,-47.86"/>
</a>
</g>
</g>
<!-- Node15&#45;&gt;Node9 -->
<g id="edge14_Node000015_Node000009" class="edge">
<title>Node15&#45;&gt;Node9</title>
<g id="a_edge14_Node000015_Node000009"><a xlink:title=" ">
<path fill="none" stroke="#63b8ff" stroke-width="2" d="M609.42,-109.55C606.61,-94.77 601.58,-76.01 592.75,-61.25 584.26,-47.05 570.4,-34.32 559.42,-25.6"/>
<polygon fill="#63b8ff" stroke="#63b8ff" stroke-width="2" points="605.94,-109.96 610.99,-119.27 612.84,-108.83 605.94,-109.96"/>
</a>
</g>
</g>
<!-- Node15&#45;&gt;Node12 -->
<g id="edge12_Node000015_Node000012" class="edge">
<title>Node15&#45;&gt;Node12</title>
<g id="a_edge12_Node000015_Node000012"><a xlink:title=" ">
<path fill="none" stroke="#63b8ff" stroke-width="2" d="M552.53,-126.61C479.28,-117.42 351.89,-101.26 242.75,-86.5 227.5,-84.44 210.68,-82.07 196.25,-80.01"/>
<polygon fill="#63b8ff" stroke="#63b8ff" stroke-width="2" points="551.76,-130.05 562.12,-127.82 552.63,-123.1 551.76,-130.05"/>
</a>
</g>
</g>
<!-- Node15&#45;&gt;Node17 -->
<g id="edge13_Node000015_Node000017" class="edge">
<title>Node15&#45;&gt;Node17</title>
<g id="a_edge13_Node000015_Node000017"><a xlink:title=" ">
<path fill="none" stroke="#63b8ff" stroke-width="2" d="M629.19,-112.21C640.89,-97.19 657.39,-77.19 673.75,-61.25 687.28,-48.07 704.26,-34.86 716.7,-25.71"/>
<polygon fill="#63b8ff" stroke="#63b8ff" stroke-width="2" points="626.73,-109.66 623.42,-119.73 632.28,-113.92 626.73,-109.66"/>
</a>
</g>
</g>
<!-- Node15&#45;&gt;Node20 -->
<g id="edge15_Node000015_Node000020" class="edge">
<title>Node15&#45;&gt;Node20</title>
<g id="a_edge15_Node000015_Node000020"><a xlink:title=" ">
<path fill="none" stroke="#63b8ff" stroke-width="2" d="M673.07,-123.33C738.42,-111.63 841.12,-93.25 899.43,-82.81"/>
<polygon fill="#63b8ff" stroke="#63b8ff" stroke-width="2" points="672.73,-119.83 663.51,-125.04 673.97,-126.72 672.73,-119.83"/>
</a>
</g>
</g>
<!-- Node21&#45;&gt;Node9 -->
<g id="edge19_Node000021_Node000009" class="edge">
<title>Node21&#45;&gt;Node9</title>
<g id="a_edge19_Node000021_Node000009"><a xlink:title=" ">
<path fill="none" stroke="#63b8ff" stroke-width="2" d="M719.03,-57.7C676.47,-47.05 620.73,-33.12 583.43,-23.8"/>
<polygon fill="#63b8ff" stroke="#63b8ff" stroke-width="2" points="718.02,-61.05 728.57,-60.08 719.71,-54.26 718.02,-61.05"/>
</a>
</g>
</g>
<!-- Node21&#45;&gt;Node17 -->
<g id="edge18_Node000021_Node000017" class="edge">
<title>Node21&#45;&gt;Node17</title>
<g id="a_edge18_Node000021_Node000017"><a xlink:title=" ">
<path fill="none" stroke="#63b8ff" stroke-width="2" d="M762.6,-50.79C755.97,-42.25 748.65,-32.82 743.04,-25.6"/>
<polygon fill="#63b8ff" stroke="#63b8ff" stroke-width="2" points="759.69,-52.74 768.58,-58.49 765.22,-48.45 759.69,-52.74"/>
</a>
</g>
</g>
<!-- Node22&#45;&gt;Node9 -->
<g id="edge24_Node000022_Node000009" class="edge">
<title>Node22&#45;&gt;Node9</title>
<g id="a_edge24_Node000022_Node000009"><a xlink:title=" ">
<path fill="none" stroke="#63b8ff" stroke-width="2" d="M857.27,-110.24C861.82,-94.52 864.11,-74.48 852.75,-61.25 844.03,-51.09 665.6,-28.41 583.48,-18.46"/>
<polygon fill="#63b8ff" stroke="#63b8ff" stroke-width="2" points="854.09,-108.73 854.15,-119.32 860.71,-111 854.09,-108.73"/>
</a>
</g>
</g>
<!-- Node22&#45;&gt;Node17 -->
<g id="edge22_Node000022_Node000017" class="edge">
<title>Node22&#45;&gt;Node17</title>
<g id="a_edge22_Node000022_Node000017"><a xlink:title=" ">
<path fill="none" stroke="#63b8ff" stroke-width="2" d="M905.35,-126.35C959.03,-116.73 1026.66,-97.06 996.75,-61.25 971.8,-31.38 866.62,-20.21 797.07,-16.05"/>
<polygon fill="#63b8ff" stroke="#63b8ff" stroke-width="2" points="905.03,-122.85 895.75,-127.97 906.19,-129.76 905.03,-122.85"/>
</a>
</g>
</g>
<!-- Node22&#45;&gt;Node20 -->
<g id="edge25_Node000022_Node000020" class="edge">
<title>Node22&#45;&gt;Node20</title>
<g id="a_edge25_Node000022_Node000020"><a xlink:title=" ">
<path fill="none" stroke="#63b8ff" stroke-width="2" d="M878.1,-115.39C893.23,-106.05 911.09,-95.03 924.35,-86.85"/>
<polygon fill="#63b8ff" stroke="#63b8ff" stroke-width="2" points="876.42,-112.31 869.75,-120.55 880.1,-118.27 876.42,-112.31"/>
</a>
</g>
</g>
<!-- Node22&#45;&gt;Node21 -->
<g id="edge23_Node000022_Node000021" class="edge">
<title>Node22&#45;&gt;Node21</title>
<g id="a_edge23_Node000022_Node000021"><a xlink:title=" ">
<path fill="none" stroke="#63b8ff" stroke-width="2" d="M824.34,-113.73C814.06,-104.77 802.33,-94.55 793.49,-86.85"/>
<polygon fill="#63b8ff" stroke="#63b8ff" stroke-width="2" points="821.87,-116.22 831.71,-120.15 826.47,-110.94 821.87,-116.22"/>
</a>
</g>
</g>
</g>
</svg>

<g id="navigator" transform="translate(0 0)" fill="#404254">
  <rect fill="#f2f5e9" fill-opacity="0.5" stroke="#606060" stroke-width=".5" x="0" y="0" width="60" height="60"/>
  <use id="zoomplus" xlink:href="#zoomPlus" x="17" y="9" onmousedown="handleZoom(evt,'in')"/>
  <use id="zoomminus" xlink:href="#zoomMin" x="42" y="9" onmousedown="handleZoom(evt,'out')"/>
  <use id="reset" xlink:href="#resetDef" x="30" y="36" onmousedown="handleReset()"/>
   <use id="arrowup" xlink:href="#arrowUp" x="0" y="0" onmousedown="handlePan(0,-1)"/>
  <use id="arrowright" xlink:href="#arrowRight" x="0" y="0" onmousedown="handlePan(1,0)"/>
  <use id="arrowdown" xlink:href="#arrowDown" x="0" y="0" onmousedown="handlePan(0,1)"/>
  <use id="arrowleft" xlink:href="#arrowLeft" x="0" y="0" onmousedown="handlePan(-1,0)"/>
</g>
<svg viewBox="0 0 15 15" width="100%" height="30px" preserveAspectRatio="xMaxYMin meet">
 <g id="arrow_out" transform="scale(0.3 0.3)">
  <a xlink:href="GameObject_8hpp__dep__incl_org.svg" target="_base">
   <rect id="button" ry="5" rx="5" y="6" x="6" height="38" width="38"
        fill="#f2f5e9" fill-opacity="0.5" stroke="#606060" stroke-width="1.0"/>
   <path id="arrow"
     d="M 11.500037,31.436501 C 11.940474,20.09759 22.043105,11.32322 32.158766,21.979434 L 37.068811,17.246167 C 37.068811,17.246167 37.088388,32 37.088388,32 L 22.160133,31.978069 C 22.160133,31.978069 26.997745,27.140456 26.997745,27.140456 C 18.528582,18.264221 13.291696,25.230495 11.500037,31.436501 z"
     style="fill:#404040;"/>
  </a>
 </g>
</svg>

<style type='text/css'>
<![CDATA[
[data-mouse-over-selected='false'] { opacity: 0.7; }
[data-mouse-over-selected='true']  { opacity: 1.0; }
]]>
</style>
<script type="application/ecmascript"><![CDATA[
document.addEventListener('DOMContentLoaded', (event) => {
  highlightEdges();
  highlightAdjacentNodes();
});
]]></script>
</svg>
