<?xml version="1.0" encoding="UTF-8" standalone="no"?>
<!DOCTYPE svg PUBLIC "-//W3C//DTD SVG 1.1//EN"
 "http://www.w3.org/Graphics/SVG/1.1/DTD/svg11.dtd">
<!-- Generated by graphviz version 9.0.0 (0)
 -->
<!-- Title: bush.hpp Pages: 1 -->
<svg width="694pt" height="217pt"
 viewBox="0.00 0.00 694.25 217.00" xmlns="http://www.w3.org/2000/svg" xmlns:xlink="http://www.w3.org/1999/xlink">
<g id="graph0" class="graph" transform="scale(1 1) rotate(0) translate(4 213)">
<title>bush.hpp</title>
<!-- Node1 -->
<g id="Node000001" class="node">
<title>Node1</title>
<g id="a_Node000001"><a xlink:title=" ">
<polygon fill="#999999" stroke="#666666" points="328.5,-209 246.5,-209 246.5,-183.75 328.5,-183.75 328.5,-209"/>
<text text-anchor="middle" x="287.5" y="-191.7" font-family="Helvetica,sans-Serif" font-size="14.00">bush.hpp</text>
</a>
</g>
</g>
<!-- Node2 -->
<g id="Node000002" class="node">
<title>Node2</title>
<g id="a_Node000002"><a xlink:title=" ">
<polygon fill="#e0e0e0" stroke="#999999" points="190.88,-147.75 6.12,-147.75 6.12,-122.5 190.88,-122.5 190.88,-147.75"/>
<text text-anchor="middle" x="98.5" y="-130.45" font-family="Helvetica,sans-Serif" font-size="14.00">SFML/Graphics/Rect.hpp</text>
</a>
</g>
</g>
<!-- Node1&#45;&gt;Node2 -->
<g id="edge1_Node000001_Node000002" class="edge">
<title>Node1&#45;&gt;Node2</title>
<g id="a_edge1_Node000001_Node000002"><a xlink:title=" ">
<path fill="none" stroke="#63b8ff" stroke-width="2" d="M249.25,-183.38C220.4,-174.34 180.55,-161.85 149.06,-151.98"/>
<polygon fill="#63b8ff" stroke="#63b8ff" stroke-width="2" points="150.49,-148.76 139.9,-149.1 148.4,-155.44 150.49,-148.76"/>
</a>
</g>
</g>
<!-- Node3 -->
<g id="Node000003" class="node">
<title>Node3</title>
<g id="a_Node000003"><a xlink:href="../../dc/d3e/animatedObject_8hpp.html" target="_top" xlink:title=" ">
<polygon fill="white" stroke="#666666" points="366.38,-147.75 208.62,-147.75 208.62,-122.5 366.38,-122.5 366.38,-147.75"/>
<text text-anchor="middle" x="287.5" y="-130.45" font-family="Helvetica,sans-Serif" font-size="14.00">animatedObject.hpp</text>
</a>
</g>
</g>
<!-- Node1&#45;&gt;Node3 -->
<g id="edge2_Node000001_Node000003" class="edge">
<title>Node1&#45;&gt;Node3</title>
<g id="a_edge2_Node000001_Node000003"><a xlink:title=" ">
<path fill="none" stroke="#63b8ff" stroke-width="2" d="M287.5,-183.38C287.5,-176.96 287.5,-168.8 287.5,-161.07"/>
<polygon fill="#63b8ff" stroke="#63b8ff" stroke-width="2" points="291,-161.12 287.5,-151.12 284,-161.12 291,-161.12"/>
</a>
</g>
</g>
<!-- Node12 -->
<g id="Node000012" class="node">
<title>Node12</title>
<g id="a_Node000012"><a xlink:title=" ">
<polygon fill="#e0e0e0" stroke="#999999" points="478.88,-147.75 384.12,-147.75 384.12,-122.5 478.88,-122.5 478.88,-147.75"/>
<text text-anchor="middle" x="431.5" y="-130.45" font-family="Helvetica,sans-Serif" font-size="14.00">string_view</text>
</a>
</g>
</g>
<!-- Node1&#45;&gt;Node12 -->
<g id="edge9_Node000001_Node000012" class="edge">
<title>Node1&#45;&gt;Node12</title>
<g id="a_edge9_Node000001_Node000012"><a xlink:title=" ">
<path fill="none" stroke="#63b8ff" stroke-width="2" d="M316.64,-183.38C337.92,-174.63 367.04,-162.65 390.64,-152.94"/>
<polygon fill="#63b8ff" stroke="#63b8ff" stroke-width="2" points="391.69,-156.29 399.6,-149.25 389.02,-149.82 391.69,-156.29"/>
</a>
</g>
</g>
<!-- Node4 -->
<g id="Node000004" class="node">
<title>Node4</title>
<g id="a_Node000004"><a xlink:href="../../d4/db5/GameObject_8hpp.html" target="_top" xlink:title=" ">
<polygon fill="#fff0f0" stroke="red" points="133,-86.5 0,-86.5 0,-61.25 133,-61.25 133,-86.5"/>
<text text-anchor="middle" x="66.5" y="-69.2" font-family="Helvetica,sans-Serif" font-size="14.00">GameObject.hpp</text>
</a>
</g>
</g>
<!-- Node3&#45;&gt;Node4 -->
<g id="edge3_Node000003_Node000004" class="edge">
<title>Node3&#45;&gt;Node4</title>
<g id="a_edge3_Node000003_Node000004"><a xlink:title=" ">
<path fill="none" stroke="#63b8ff" stroke-width="2" d="M242.51,-122.06C208.15,-112.85 160.57,-100.1 123.55,-90.17"/>
<polygon fill="#63b8ff" stroke="#63b8ff" stroke-width="2" points="124.92,-86.91 114.35,-87.7 123.1,-93.67 124.92,-86.91"/>
</a>
</g>
</g>
<!-- Node6 -->
<g id="Node000006" class="node">
<title>Node6</title>
<g id="a_Node000006"><a xlink:href="../../d9/d03/point2d_8hpp.html" target="_top" xlink:title=" ">
<polygon fill="#fff0f0" stroke="red" points="163.88,-25.25 63.12,-25.25 63.12,0 163.88,0 163.88,-25.25"/>
<text text-anchor="middle" x="113.5" y="-7.95" font-family="Helvetica,sans-Serif" font-size="14.00">point2d.hpp</text>
</a>
</g>
</g>
<!-- Node3&#45;&gt;Node6 -->
<g id="edge7_Node000003_Node000006" class="edge">
<title>Node3&#45;&gt;Node6</title>
<g id="a_edge7_Node000003_Node000006"><a xlink:title=" ">
<path fill="none" stroke="#63b8ff" stroke-width="2" d="M250.85,-122.08C229.22,-113.96 201.97,-101.92 180.5,-86.5 160.65,-72.24 142.19,-51.34 129.69,-35.57"/>
<polygon fill="#63b8ff" stroke="#63b8ff" stroke-width="2" points="132.75,-33.82 123.89,-28.02 127.2,-38.09 132.75,-33.82"/>
</a>
</g>
</g>
<!-- Node9 -->
<g id="Node000009" class="node">
<title>Node9</title>
<g id="a_Node000009"><a xlink:title=" ">
<polygon fill="#e0e0e0" stroke="#999999" points="385.5,-86.5 189.5,-86.5 189.5,-61.25 385.5,-61.25 385.5,-86.5"/>
<text text-anchor="middle" x="287.5" y="-69.2" font-family="Helvetica,sans-Serif" font-size="14.00">SFML/Graphics/Sprite.hpp</text>
</a>
</g>
</g>
<!-- Node3&#45;&gt;Node9 -->
<g id="edge5_Node000003_Node000009" class="edge">
<title>Node3&#45;&gt;Node9</title>
<g id="a_edge5_Node000003_Node000009"><a xlink:title=" ">
<path fill="none" stroke="#63b8ff" stroke-width="2" d="M287.5,-122.13C287.5,-115.71 287.5,-107.55 287.5,-99.82"/>
<polygon fill="#63b8ff" stroke="#63b8ff" stroke-width="2" points="291,-99.87 287.5,-89.87 284,-99.87 291,-99.87"/>
</a>
</g>
</g>
<!-- Node10 -->
<g id="Node000010" class="node">
<title>Node10</title>
<g id="a_Node000010"><a xlink:title=" ">
<polygon fill="#e0e0e0" stroke="#999999" points="609,-86.5 404,-86.5 404,-61.25 609,-61.25 609,-86.5"/>
<text text-anchor="middle" x="506.5" y="-69.2" font-family="Helvetica,sans-Serif" font-size="14.00">SFML/Graphics/Texture.hpp</text>
</a>
</g>
</g>
<!-- Node3&#45;&gt;Node10 -->
<g id="edge6_Node000003_Node000010" class="edge">
<title>Node3&#45;&gt;Node10</title>
<g id="a_edge6_Node000003_Node000010"><a xlink:title=" ">
<path fill="none" stroke="#63b8ff" stroke-width="2" d="M332.08,-122.06C365.98,-112.89 412.87,-100.21 449.49,-90.3"/>
<polygon fill="#63b8ff" stroke="#63b8ff" stroke-width="2" points="450.32,-93.7 459.06,-87.71 448.49,-86.94 450.32,-93.7"/>
</a>
</g>
</g>
<!-- Node11 -->
<g id="Node000011" class="node">
<title>Node11</title>
<g id="a_Node000011"><a xlink:title=" ">
<polygon fill="#e0e0e0" stroke="#999999" points="686.25,-86.5 626.75,-86.5 626.75,-61.25 686.25,-61.25 686.25,-86.5"/>
<text text-anchor="middle" x="656.5" y="-69.2" font-family="Helvetica,sans-Serif" font-size="14.00">vector</text>
</a>
</g>
</g>
<!-- Node3&#45;&gt;Node11 -->
<g id="edge8_Node000003_Node000011" class="edge">
<title>Node3&#45;&gt;Node11</title>
<g id="a_edge8_Node000003_Node000011"><a xlink:title=" ">
<path fill="none" stroke="#63b8ff" stroke-width="2" d="M366.71,-123.38C447.79,-112.29 567.5,-95.63 613.81,-87.08"/>
<polygon fill="#63b8ff" stroke="#63b8ff" stroke-width="2" points="614.25,-90.56 623.36,-85.16 612.87,-83.7 614.25,-90.56"/>
</a>
</g>
</g>
<!-- Node4&#45;&gt;Node6 -->
<g id="edge4_Node000004_Node000006" class="edge">
<title>Node4&#45;&gt;Node6</title>
<g id="a_edge4_Node000004_Node000006"><a xlink:title=" ">
<path fill="none" stroke="#63b8ff" stroke-width="2" d="M76.01,-60.88C81.74,-53.66 89.22,-44.23 95.99,-35.69"/>
<polygon fill="#63b8ff" stroke="#63b8ff" stroke-width="2" points="98.65,-37.98 102.12,-27.97 93.17,-33.63 98.65,-37.98"/>
</a>
</g>
</g>
</g>
</svg>
