<?xml version="1.0" encoding="UTF-8" standalone="no"?>
<!DOCTYPE svg PUBLIC "-//W3C//DTD SVG 1.1//EN"
 "http://www.w3.org/Graphics/SVG/1.1/DTD/svg11.dtd">
<!-- Generated by graphviz version 9.0.0 (0)
 -->
<!-- Title: AnimatedSpriteSheet Pages: 1 -->
<svg width="311pt" height="217pt"
 viewBox="0.00 0.00 311.38 217.00" xmlns="http://www.w3.org/2000/svg" xmlns:xlink="http://www.w3.org/1999/xlink">
<g id="graph0" class="graph" transform="scale(1 1) rotate(0) translate(4 213)">
<title>AnimatedSpriteSheet</title>
<!-- Node1 -->
<g id="Node000001" class="node">
<title>Node1</title>
<g id="a_Node000001"><a xlink:title=" ">
<polygon fill="#999999" stroke="#666666" points="240.62,-86.5 76.88,-86.5 76.88,-61.25 240.62,-61.25 240.62,-86.5"/>
<text text-anchor="middle" x="158.75" y="-69.2" font-family="Helvetica,sans-Serif" font-size="14.00">AnimatedSpriteSheet</text>
</a>
</g>
</g>
<!-- Node6 -->
<g id="Node000006" class="node">
<title>Node6</title>
<g id="a_Node000006"><a xlink:href="../../de/dde/classFidgetSpinner.html" target="_top" xlink:title=" ">
<polygon fill="white" stroke="#666666" points="214.75,-25.25 102.75,-25.25 102.75,0 214.75,0 214.75,-25.25"/>
<text text-anchor="middle" x="158.75" y="-7.95" font-family="Helvetica,sans-Serif" font-size="14.00">FidgetSpinner</text>
</a>
</g>
</g>
<!-- Node1&#45;&gt;Node6 -->
<g id="edge5_Node000001_Node000006" class="edge">
<title>Node1&#45;&gt;Node6</title>
<g id="a_edge5_Node000001_Node000006"><a xlink:title=" ">
<path fill="none" stroke="#63b8ff" stroke-width="2" d="M158.75,-47.91C158.75,-40.18 158.75,-32.02 158.75,-25.6"/>
<polygon fill="#63b8ff" stroke="#63b8ff" stroke-width="2" points="155.25,-47.86 158.75,-57.86 162.25,-47.86 155.25,-47.86"/>
</a>
</g>
</g>
<!-- Node2 -->
<g id="Node000002" class="node">
<title>Node2</title>
<g id="a_Node000002"><a xlink:href="../../d7/d98/classAnimatedObject.html" target="_top" xlink:title="Animated object class.">
<polygon fill="white" stroke="#666666" points="222.62,-147.75 94.88,-147.75 94.88,-122.5 222.62,-122.5 222.62,-147.75"/>
<text text-anchor="middle" x="158.75" y="-130.45" font-family="Helvetica,sans-Serif" font-size="14.00">AnimatedObject</text>
</a>
</g>
</g>
<!-- Node2&#45;&gt;Node1 -->
<g id="edge1_Node000001_Node000002" class="edge">
<title>Node2&#45;&gt;Node1</title>
<g id="a_edge1_Node000001_Node000002"><a xlink:title=" ">
<path fill="none" stroke="#63b8ff" stroke-width="2" d="M158.75,-109.16C158.75,-101.43 158.75,-93.27 158.75,-86.85"/>
<polygon fill="#63b8ff" stroke="#63b8ff" stroke-width="2" points="155.25,-109.11 158.75,-119.11 162.25,-109.11 155.25,-109.11"/>
</a>
</g>
</g>
<!-- Node3 -->
<g id="Node000003" class="node">
<title>Node3</title>
<g id="a_Node000003"><a xlink:href="../../de/d1c/classGameObject.html" target="_top" xlink:title="Game object class.">
<polygon fill="white" stroke="#666666" points="101.5,-209 0,-209 0,-183.75 101.5,-183.75 101.5,-209"/>
<text text-anchor="middle" x="50.75" y="-191.7" font-family="Helvetica,sans-Serif" font-size="14.00">GameObject</text>
</a>
</g>
</g>
<!-- Node3&#45;&gt;Node2 -->
<g id="edge2_Node000002_Node000003" class="edge">
<title>Node3&#45;&gt;Node2</title>
<g id="a_edge2_Node000002_Node000003"><a xlink:title=" ">
<path fill="none" stroke="#63b8ff" stroke-width="2" d="M83.89,-177.19C101.13,-167.74 121.71,-156.45 136.93,-148.1"/>
<polygon fill="#63b8ff" stroke="#63b8ff" stroke-width="2" points="82.34,-174.05 75.26,-181.93 85.71,-180.19 82.34,-174.05"/>
</a>
</g>
</g>
<!-- Node4 -->
<g id="Node000004" class="node">
<title>Node4</title>
<g id="a_Node000004"><a xlink:title=" ">
<polygon fill="white" stroke="#666666" points="197.88,-209 119.62,-209 119.62,-183.75 197.88,-183.75 197.88,-209"/>
<text text-anchor="middle" x="158.75" y="-191.7" font-family="Helvetica,sans-Serif" font-size="14.00">sf::Sprite</text>
</a>
</g>
</g>
<!-- Node4&#45;&gt;Node2 -->
<g id="edge3_Node000002_Node000004" class="edge">
<title>Node4&#45;&gt;Node2</title>
<g id="a_edge3_Node000002_Node000004"><a xlink:title=" ">
<path fill="none" stroke="#63b8ff" stroke-width="2" d="M158.75,-170.41C158.75,-162.68 158.75,-154.52 158.75,-148.1"/>
<polygon fill="#63b8ff" stroke="#63b8ff" stroke-width="2" points="155.25,-170.36 158.75,-180.36 162.25,-170.36 155.25,-170.36"/>
</a>
</g>
</g>
<!-- Node5 -->
<g id="Node000005" class="node">
<title>Node5</title>
<g id="a_Node000005"><a xlink:title=" ">
<polygon fill="white" stroke="#666666" points="303.38,-209 216.12,-209 216.12,-183.75 303.38,-183.75 303.38,-209"/>
<text text-anchor="middle" x="259.75" y="-191.7" font-family="Helvetica,sans-Serif" font-size="14.00">sf::Texture</text>
</a>
</g>
</g>
<!-- Node5&#45;&gt;Node2 -->
<g id="edge4_Node000002_Node000005" class="edge">
<title>Node5&#45;&gt;Node2</title>
<g id="a_edge4_Node000002_Node000005"><a xlink:title=" ">
<path fill="none" stroke="#63b8ff" stroke-width="2" d="M228.29,-176.92C212.27,-167.52 193.25,-156.37 179.16,-148.1"/>
<polygon fill="#63b8ff" stroke="#63b8ff" stroke-width="2" points="226.3,-179.81 236.7,-181.85 229.85,-173.77 226.3,-179.81"/>
</a>
</g>
</g>
</g>
</svg>
