<?xml version="1.0" encoding="UTF-8" standalone="no"?>
<!DOCTYPE svg PUBLIC "-//W3C//DTD SVG 1.1//EN"
 "http://www.w3.org/Graphics/SVG/1.1/DTD/svg11.dtd">
<!-- Generated by graphviz version 9.0.0 (0)
 -->
<!-- Title: Player::stopMoving Pages: 1 -->
<svg width="475pt" height="33pt"
 viewBox="0.00 0.00 474.50 33.25" xmlns="http://www.w3.org/2000/svg" xmlns:xlink="http://www.w3.org/1999/xlink">
<g id="graph0" class="graph" transform="scale(1 1) rotate(0) translate(4 29.25)">
<title>Player::stopMoving</title>
<!-- Node1 -->
<g id="Node000001" class="node">
<title>Node1</title>
<g id="a_Node000001"><a xlink:title=" ">
<polygon fill="#999999" stroke="#666666" points="466.5,-25.25 319.25,-25.25 319.25,0 466.5,0 466.5,-25.25"/>
<text text-anchor="middle" x="392.88" y="-7.95" font-family="Helvetica,sans-Serif" font-size="14.00">Player::stopMoving</text>
</a>
</g>
</g>
<!-- Node2 -->
<g id="Node000002" class="node">
<title>Node2</title>
<g id="a_Node000002"><a xlink:href="../../d0/d8d/test2_2main_8cpp.html#ab99285a67191c5cd569539cef2d7e0b2" target="_top" xlink:title=" ">
<polygon fill="white" stroke="#666666" points="283.25,-25.25 86.5,-25.25 86.5,0 283.25,0 283.25,-25.25"/>
<text text-anchor="middle" x="184.88" y="-7.95" font-family="Helvetica,sans-Serif" font-size="14.00">keyReleasedEventHandler</text>
</a>
</g>
</g>
<!-- Node1&#45;&gt;Node2 -->
<g id="edge1_Node000001_Node000002" class="edge">
<title>Node1&#45;&gt;Node2</title>
<g id="a_edge1_Node000001_Node000002"><a xlink:title=" ">
<path fill="none" stroke="#63b8ff" stroke-width="2" d="M306.15,-12.62C298.7,-12.62 291.12,-12.62 283.59,-12.62"/>
<polygon fill="#63b8ff" stroke="#63b8ff" stroke-width="2" points="305.93,-16.13 315.93,-12.63 305.93,-9.13 305.93,-16.13"/>
</a>
</g>
</g>
<!-- Node3 -->
<g id="Node000003" class="node">
<title>Node3</title>
<g id="a_Node000003"><a xlink:href="../../d0/d8d/test2_2main_8cpp.html#ae66f6b31b5ad750f1fe042a706a4e3d4" target="_top" xlink:title=" ">
<polygon fill="white" stroke="#666666" points="50.5,-25.25 0,-25.25 0,0 50.5,0 50.5,-25.25"/>
<text text-anchor="middle" x="25.25" y="-7.95" font-family="Helvetica,sans-Serif" font-size="14.00">main</text>
</a>
</g>
</g>
<!-- Node2&#45;&gt;Node3 -->
<g id="edge2_Node000002_Node000003" class="edge">
<title>Node2&#45;&gt;Node3</title>
<g id="a_edge2_Node000002_Node000003"><a xlink:title=" ">
<path fill="none" stroke="#63b8ff" stroke-width="2" d="M73.4,-12.62C65.14,-12.62 57.44,-12.62 50.76,-12.62"/>
<polygon fill="#63b8ff" stroke="#63b8ff" stroke-width="2" points="73.26,-16.13 83.26,-12.63 73.26,-9.13 73.26,-16.13"/>
</a>
</g>
</g>
</g>
</svg>
