<?xml version="1.0" encoding="UTF-8" standalone="no"?>
<!DOCTYPE svg PUBLIC "-//W3C//DTD SVG 1.1//EN"
 "http://www.w3.org/Graphics/SVG/1.1/DTD/svg11.dtd">
<!-- Generated by graphviz version 9.0.0 (0)
 -->
<!-- Title: Player::getMoveVectorOrigin Pages: 1 -->
<!--zoomable 198 -->

<svg id="main" version="1.1" xmlns="http://www.w3.org/2000/svg" xmlns:xlink="http://www.w3.org/1999/xlink" xml:space="preserve" onload="init(evt)">
<style type="text/css"><![CDATA[
.node, .edge {opacity: 0.7;}
.node.selected, .edge.selected {opacity: 1;}
.edge:hover path { stroke: red; }
.edge:hover polygon { stroke: red; fill: red; }
]]></style>

<defs>
  <circle id="rim" cx="0" cy="0" r="7"/>
  <circle id="rim2" cx="0" cy="0" r="3.5"/>
  <g id="zoomPlus">
    <use xlink:href="#rim" fill="#404040"><set attributeName="fill" to="#808080" begin="zoomplus.mouseover" end="zoomplus.mouseout"/></use>
    <path d="M-4,0h8M0,-4v8" fill="none" stroke="white" stroke-width="1.5" pointer-events="none"/>
  </g>
  <g id="zoomMin">
    <use xlink:href="#rim" fill="#404040"><set attributeName="fill" to="#808080" begin="zoomminus.mouseover" end="zoomminus.mouseout"/></use>
    <path d="M-4,0h8" fill="none" stroke="white" stroke-width="1.5" pointer-events="none"/>
  </g>
  <g id="arrowUp" transform="translate(30 24)">
    <use xlink:href="#rim"/>
    <path pointer-events="none" fill="none" stroke="white" stroke-width="1.5" d="M0,-3.0v7 M-2.5,-0.5L0,-3.0L2.5,-0.5"/>
  </g>
  <g id="arrowRight" transform="rotate(90) translate(36 -43)">
    <use xlink:href="#rim"/>
    <path pointer-events="none" fill="none" stroke="white" stroke-width="1.5" d="M0,-3.0v7 M-2.5,-0.5L0,-3.0L2.5,-0.5"/>
  </g>
  <g id="arrowDown" transform="rotate(180) translate(-30 -48)">
    <use xlink:href="#rim"/>
    <path pointer-events="none" fill="none" stroke="white" stroke-width="1.5" d="M0,-3.0v7 M-2.5,-0.5L0,-3.0L2.5,-0.5"/>
  </g>
  <g id="arrowLeft" transform="rotate(270) translate(-36 17)">
    <use xlink:href="#rim"/>
    <path pointer-events="none" fill="none" stroke="white" stroke-width="1.5" d="M0,-3.0v7 M-2.5,-0.5L0,-3.0L2.5,-0.5"/>
  </g>
  <g id="resetDef">
    <use xlink:href="#rim2" fill="#404040"><set attributeName="fill" to="#808080" begin="reset.mouseover" end="reset.mouseout"/></use>
  </g>
</defs>
<script type="application/ecmascript">
var viewWidth = 1017;
var viewHeight = 198;
var sectionId = 'dynsection-5';
</script>
<script type="application/ecmascript" xlink:href="../../svg.min.js"/>
<svg id="graph" class="graph">
<g id="viewport">
<title>Player::getMoveVectorOrigin</title>
<!-- Node1 -->
<g id="Node000001" class="node">
<title>Node1</title>
<g id="a_Node000001"><a xlink:title="Returns a 2D vector containing information on which cardinal directions the player is moving.">
<polygon fill="#999999" stroke="#666666" points="1008.5,-89.25 796,-89.25 796,-64 1008.5,-64 1008.5,-89.25"/>
<text text-anchor="middle" x="902.25" y="-71.95" font-family="Helvetica,sans-Serif" font-size="14.00">Player::getMoveVectorOrigin</text>
</a>
</g>
</g>
<!-- Node2 -->
<g id="Node000002" class="node">
<title>Node2</title>
<g id="a_Node000002"><a xlink:href="../../d2/d4b/classPlayer.html#a6754159e7c29c0d21d05d3560b088cd3" target="_top" xlink:title="Returns the player&#39;s movement vector multiplied by speed.">
<polygon fill="white" stroke="#666666" points="760,-150.25 590.25,-150.25 590.25,-125 760,-125 760,-150.25"/>
<text text-anchor="middle" x="675.12" y="-132.95" font-family="Helvetica,sans-Serif" font-size="14.00">Player::getMoveVector</text>
</a>
</g>
</g>
<!-- Node1&#45;&gt;Node2 -->
<g id="edge1_Node000001_Node000002" class="edge">
<title>Node1&#45;&gt;Node2</title>
<g id="a_edge1_Node000001_Node000002"><a xlink:title=" ">
<path fill="none" stroke="#63b8ff" stroke-width="2" d="M840.48,-93.09C804.02,-102.97 758.3,-115.36 724.34,-124.56"/>
<polygon fill="#63b8ff" stroke="#63b8ff" stroke-width="2" points="841.3,-96.5 850.03,-90.5 839.47,-89.74 841.3,-96.5"/>
</a>
</g>
</g>
<!-- Node9 -->
<g id="Node000009" class="node">
<title>Node9</title>
<g id="a_Node000009"><a xlink:href="../../d2/d4b/classPlayer.html#a0b43e6080753101fe692d824d7b68df5" target="_top" xlink:title="Checks if player is moving.">
<polygon fill="white" stroke="#666666" points="320.75,-109.25 192.25,-109.25 192.25,-84 320.75,-84 320.75,-109.25"/>
<text text-anchor="middle" x="256.5" y="-91.95" font-family="Helvetica,sans-Serif" font-size="14.00">Player::isMoving</text>
</a>
</g>
</g>
<!-- Node1&#45;&gt;Node9 -->
<g id="edge6_Node000001_Node000009" class="edge">
<title>Node1&#45;&gt;Node9</title>
<g id="a_edge6_Node000001_Node000009"><a xlink:title=" ">
<path fill="none" stroke="#63b8ff" stroke-width="2" d="M782.76,-80.31C646.63,-84.54 428.3,-91.32 321.09,-94.65"/>
<polygon fill="#63b8ff" stroke="#63b8ff" stroke-width="2" points="782.76,-83.81 792.64,-80 782.54,-76.81 782.76,-83.81"/>
</a>
</g>
</g>
<!-- Node10 -->
<g id="Node000010" class="node">
<title>Node10</title>
<g id="a_Node000010"><a xlink:href="../../d2/d4b/classPlayer.html#a72bc816e0c33c07fcac7812d3b369b78" target="_top" xlink:title="Checks if player is moving diagonally.">
<polygon fill="white" stroke="#666666" points="554.25,-68.25 356.75,-68.25 356.75,-43 554.25,-43 554.25,-68.25"/>
<text text-anchor="middle" x="455.5" y="-50.95" font-family="Helvetica,sans-Serif" font-size="14.00">Player::isMovingDiagonaly</text>
</a>
</g>
</g>
<!-- Node1&#45;&gt;Node10 -->
<g id="edge8_Node000001_Node000010" class="edge">
<title>Node1&#45;&gt;Node10</title>
<g id="a_edge8_Node000001_Node000010"><a xlink:title=" ">
<path fill="none" stroke="#63b8ff" stroke-width="2" d="M782.93,-71.04C711.62,-67.67 621.88,-63.43 554.55,-60.25"/>
<polygon fill="#63b8ff" stroke="#63b8ff" stroke-width="2" points="782.39,-74.52 792.54,-71.49 782.72,-67.52 782.39,-74.52"/>
</a>
</g>
</g>
<!-- Node11 -->
<g id="Node000011" class="node">
<title>Node11</title>
<g id="a_Node000011"><a xlink:href="../../d0/d8d/test2_2main_8cpp.html#aa37434f1e3b96de9f9499c8c46acc31f" target="_top" xlink:title=" ">
<polygon fill="white" stroke="#666666" points="736.75,-27.25 613.5,-27.25 613.5,-2 736.75,-2 736.75,-27.25"/>
<text text-anchor="middle" x="675.12" y="-9.95" font-family="Helvetica,sans-Serif" font-size="14.00">throwBallPlayer</text>
</a>
</g>
</g>
<!-- Node1&#45;&gt;Node11 -->
<g id="edge10_Node000001_Node000011" class="edge">
<title>Node1&#45;&gt;Node11</title>
<g id="a_edge10_Node000001_Node000011"><a xlink:title=" ">
<path fill="none" stroke="#63b8ff" stroke-width="2" d="M841.67,-60.22C804.73,-50.04 757.94,-37.16 723.53,-27.68"/>
<polygon fill="#63b8ff" stroke="#63b8ff" stroke-width="2" points="840.29,-63.47 850.86,-62.75 842.15,-56.72 840.29,-63.47"/>
</a>
</g>
</g>
<!-- Node3 -->
<g id="Node000003" class="node">
<title>Node3</title>
<g id="a_Node000003"><a xlink:href="../../d2/d4b/classPlayer.html#ad29f780f5ab349975b25f6b7ab49dd9d" target="_top" xlink:title="Moves player on screen.">
<polygon fill="white" stroke="#666666" points="508.12,-190.25 402.88,-190.25 402.88,-165 508.12,-165 508.12,-190.25"/>
<text text-anchor="middle" x="455.5" y="-172.95" font-family="Helvetica,sans-Serif" font-size="14.00">Player::move</text>
</a>
</g>
</g>
<!-- Node2&#45;&gt;Node3 -->
<g id="edge2_Node000002_Node000003" class="edge">
<title>Node2&#45;&gt;Node3</title>
<g id="a_edge2_Node000002_Node000003"><a xlink:title=" ">
<path fill="none" stroke="#63b8ff" stroke-width="2" d="M590.4,-153.01C562.87,-158.07 533.07,-163.55 508.59,-168.05"/>
<polygon fill="#63b8ff" stroke="#63b8ff" stroke-width="2" points="590.69,-156.52 599.89,-151.27 589.42,-149.64 590.69,-156.52"/>
</a>
</g>
</g>
<!-- Node4 -->
<g id="Node000004" class="node">
<title>Node4</title>
<g id="a_Node000004"><a xlink:href="../../d2/d4b/classPlayer.html#a82c3476f3e65a4e2ac6bcd040771bdd4" target="_top" xlink:title="Updates state of object.">
<polygon fill="white" stroke="#666666" points="314.38,-152.25 198.62,-152.25 198.62,-127 314.38,-127 314.38,-152.25"/>
<text text-anchor="middle" x="256.5" y="-134.95" font-family="Helvetica,sans-Serif" font-size="14.00">Player::update</text>
</a>
</g>
</g>
<!-- Node2&#45;&gt;Node4 -->
<g id="edge5_Node000002_Node000004" class="edge">
<title>Node2&#45;&gt;Node4</title>
<g id="a_edge5_Node000002_Node000004"><a xlink:title=" ">
<path fill="none" stroke="#63b8ff" stroke-width="2" d="M577.04,-138.09C495.63,-138.48 382.16,-139.03 314.63,-139.35"/>
<polygon fill="#63b8ff" stroke="#63b8ff" stroke-width="2" points="576.8,-141.59 586.79,-138.04 576.77,-134.59 576.8,-141.59"/>
</a>
</g>
</g>
<!-- Node3&#45;&gt;Node4 -->
<g id="edge3_Node000003_Node000004" class="edge">
<title>Node3&#45;&gt;Node4</title>
<g id="a_edge3_Node000003_Node000004"><a xlink:title=" ">
<path fill="none" stroke="#63b8ff" stroke-width="2" d="M389.75,-165.14C365.51,-160.46 338.17,-155.19 314.67,-150.65"/>
<polygon fill="#63b8ff" stroke="#63b8ff" stroke-width="2" points="389.03,-168.56 399.51,-167.02 390.35,-161.69 389.03,-168.56"/>
</a>
</g>
</g>
<!-- Node5 -->
<g id="Node000005" class="node">
<title>Node5</title>
<g id="a_Node000005"><a xlink:href="../../df/d0d/classGamePlayer.html#a0e9a5ad85ea5b5ab13dd5c0a95552e8f" target="_top" xlink:title="Updates state of object.">
<polygon fill="#fff0f0" stroke="red" points="156.25,-109.25 0,-109.25 0,-84 156.25,-84 156.25,-109.25"/>
<text text-anchor="middle" x="78.12" y="-91.95" font-family="Helvetica,sans-Serif" font-size="14.00">GamePlayer::update</text>
</a>
</g>
</g>
<!-- Node4&#45;&gt;Node5 -->
<g id="edge4_Node000004_Node000005" class="edge">
<title>Node4&#45;&gt;Node5</title>
<g id="a_edge4_Node000004_Node000005"><a xlink:title=" ">
<path fill="none" stroke="#63b8ff" stroke-width="2" d="M189.47,-123.53C170.83,-118.98 150.78,-114.09 132.95,-109.75"/>
<polygon fill="#63b8ff" stroke="#63b8ff" stroke-width="2" points="188.62,-126.92 199.16,-125.89 190.28,-120.12 188.62,-126.92"/>
</a>
</g>
</g>
<!-- Node9&#45;&gt;Node5 -->
<g id="edge7_Node000009_Node000005" class="edge">
<title>Node9&#45;&gt;Node5</title>
<g id="a_edge7_Node000009_Node000005"><a xlink:title=" ">
<path fill="none" stroke="#63b8ff" stroke-width="2" d="M179.02,-96.62C171.57,-96.62 164.01,-96.62 156.55,-96.62"/>
<polygon fill="#63b8ff" stroke="#63b8ff" stroke-width="2" points="178.8,-100.13 188.8,-96.63 178.8,-93.13 178.8,-100.13"/>
</a>
</g>
</g>
<!-- Node10&#45;&gt;Node5 -->
<g id="edge9_Node000010_Node000005" class="edge">
<title>Node10&#45;&gt;Node5</title>
<g id="a_edge9_Node000010_Node000005"><a xlink:title=" ">
<path fill="none" stroke="#63b8ff" stroke-width="2" d="M343.48,-60.72C296.67,-63.63 241.68,-68.05 192.25,-74.62 175,-76.92 156.4,-80.2 139.38,-83.52"/>
<polygon fill="#63b8ff" stroke="#63b8ff" stroke-width="2" points="343.66,-64.21 353.43,-60.12 343.24,-57.23 343.66,-64.21"/>
</a>
</g>
</g>
<!-- Node12 -->
<g id="Node000012" class="node">
<title>Node12</title>
<g id="a_Node000012"><a xlink:href="../../d0/d8d/test2_2main_8cpp.html#a84b9cc49e2afad9f99db3ce1f412ef01" target="_top" xlink:title=" ">
<polygon fill="#fff0f0" stroke="red" points="549.75,-25.25 361.25,-25.25 361.25,0 549.75,0 549.75,-25.25"/>
<text text-anchor="middle" x="455.5" y="-7.95" font-family="Helvetica,sans-Serif" font-size="14.00">keyPressedEventHandler</text>
</a>
</g>
</g>
<!-- Node11&#45;&gt;Node12 -->
<g id="edge11_Node000011_Node000012" class="edge">
<title>Node11&#45;&gt;Node12</title>
<g id="a_edge11_Node000011_Node000012"><a xlink:title=" ">
<path fill="none" stroke="#63b8ff" stroke-width="2" d="M600.49,-13.95C584.26,-13.8 566.87,-13.64 549.98,-13.48"/>
<polygon fill="#63b8ff" stroke="#63b8ff" stroke-width="2" points="600.16,-17.45 610.19,-14.04 600.22,-10.45 600.16,-17.45"/>
</a>
</g>
</g>
</g>
</svg>

<g id="navigator" transform="translate(0 0)" fill="#404254">
  <rect fill="#f2f5e9" fill-opacity="0.5" stroke="#606060" stroke-width=".5" x="0" y="0" width="60" height="60"/>
  <use id="zoomplus" xlink:href="#zoomPlus" x="17" y="9" onmousedown="handleZoom(evt,'in')"/>
  <use id="zoomminus" xlink:href="#zoomMin" x="42" y="9" onmousedown="handleZoom(evt,'out')"/>
  <use id="reset" xlink:href="#resetDef" x="30" y="36" onmousedown="handleReset()"/>
   <use id="arrowup" xlink:href="#arrowUp" x="0" y="0" onmousedown="handlePan(0,-1)"/>
  <use id="arrowright" xlink:href="#arrowRight" x="0" y="0" onmousedown="handlePan(1,0)"/>
  <use id="arrowdown" xlink:href="#arrowDown" x="0" y="0" onmousedown="handlePan(0,1)"/>
  <use id="arrowleft" xlink:href="#arrowLeft" x="0" y="0" onmousedown="handlePan(-1,0)"/>
</g>
<svg viewBox="0 0 15 15" width="100%" height="30px" preserveAspectRatio="xMaxYMin meet">
 <g id="arrow_out" transform="scale(0.3 0.3)">
  <a xlink:href="classPlayer_ae1905c2212e75f18b7eefd91324fe3d9_icgraph_org.svg" target="_base">
   <rect id="button" ry="5" rx="5" y="6" x="6" height="38" width="38"
        fill="#f2f5e9" fill-opacity="0.5" stroke="#606060" stroke-width="1.0"/>
   <path id="arrow"
     d="M 11.500037,31.436501 C 11.940474,20.09759 22.043105,11.32322 32.158766,21.979434 L 37.068811,17.246167 C 37.068811,17.246167 37.088388,32 37.088388,32 L 22.160133,31.978069 C 22.160133,31.978069 26.997745,27.140456 26.997745,27.140456 C 18.528582,18.264221 13.291696,25.230495 11.500037,31.436501 z"
     style="fill:#404040;"/>
  </a>
 </g>
</svg>

<style type='text/css'>
<![CDATA[
[data-mouse-over-selected='false'] { opacity: 0.7; }
[data-mouse-over-selected='true']  { opacity: 1.0; }
]]>
</style>
<script type="application/ecmascript"><![CDATA[
document.addEventListener('DOMContentLoaded', (event) => {
  highlightEdges();
  highlightAdjacentNodes();
});
]]></script>
</svg>
