<?xml version="1.0" encoding="UTF-8" standalone="no"?>
<!DOCTYPE svg PUBLIC "-//W3C//DTD SVG 1.1//EN"
 "http://www.w3.org/Graphics/SVG/1.1/DTD/svg11.dtd">
<!-- Generated by graphviz version 9.0.0 (0)
 -->
<!-- Title: Player::update Pages: 1 -->
<svg width="531pt" height="33pt"
 viewBox="0.00 0.00 530.75 33.25" xmlns="http://www.w3.org/2000/svg" xmlns:xlink="http://www.w3.org/1999/xlink">
<g id="graph0" class="graph" transform="scale(1 1) rotate(0) translate(4 29.25)">
<title>Player::update</title>
<!-- Node1 -->
<g id="Node000001" class="node">
<title>Node1</title>
<g id="a_Node000001"><a xlink:title="Updates state of object.">
<polygon fill="#999999" stroke="#666666" points="522.75,-25.25 407,-25.25 407,0 522.75,0 522.75,-25.25"/>
<text text-anchor="middle" x="464.88" y="-7.95" font-family="Helvetica,sans-Serif" font-size="14.00">Player::update</text>
</a>
</g>
</g>
<!-- Node2 -->
<g id="Node000002" class="node">
<title>Node2</title>
<g id="a_Node000002"><a xlink:href="../../df/d0d/classGamePlayer.html#a0e9a5ad85ea5b5ab13dd5c0a95552e8f" target="_top" xlink:title="Updates state of object.">
<polygon fill="white" stroke="#666666" points="371,-25.25 214.75,-25.25 214.75,0 371,0 371,-25.25"/>
<text text-anchor="middle" x="292.88" y="-7.95" font-family="Helvetica,sans-Serif" font-size="14.00">GamePlayer::update</text>
</a>
</g>
</g>
<!-- Node1&#45;&gt;Node2 -->
<g id="edge1_Node000001_Node000002" class="edge">
<title>Node1&#45;&gt;Node2</title>
<g id="a_edge1_Node000001_Node000002"><a xlink:title=" ">
<path fill="none" stroke="#63b8ff" stroke-width="2" d="M394,-12.62C386.53,-12.62 378.9,-12.62 371.34,-12.62"/>
<polygon fill="#63b8ff" stroke="#63b8ff" stroke-width="2" points="393.77,-16.13 403.77,-12.63 393.77,-9.13 393.77,-16.13"/>
</a>
</g>
</g>
<!-- Node3 -->
<g id="Node000003" class="node">
<title>Node3</title>
<g id="a_Node000003"><a xlink:href="../../d0/d8d/test2_2main_8cpp.html#a169e80ba056ef07b9e6ab592b29f32cc" target="_top" xlink:title=" ">
<polygon fill="#fff0f0" stroke="red" points="178.75,-25.25 0,-25.25 0,0 178.75,0 178.75,-25.25"/>
<text text-anchor="middle" x="89.38" y="-7.95" font-family="Helvetica,sans-Serif" font-size="14.00">handlePlayerMovement</text>
</a>
</g>
</g>
<!-- Node2&#45;&gt;Node3 -->
<g id="edge2_Node000002_Node000003" class="edge">
<title>Node2&#45;&gt;Node3</title>
<g id="a_edge2_Node000002_Node000003"><a xlink:title=" ">
<path fill="none" stroke="#63b8ff" stroke-width="2" d="M201.42,-12.62C193.98,-12.62 186.46,-12.62 179.04,-12.62"/>
<polygon fill="#63b8ff" stroke="#63b8ff" stroke-width="2" points="201.23,-16.13 211.23,-12.63 201.23,-9.13 201.23,-16.13"/>
</a>
</g>
</g>
</g>
</svg>
