<?xml version="1.0" encoding="UTF-8" standalone="no"?>
<!DOCTYPE svg PUBLIC "-//W3C//DTD SVG 1.1//EN"
 "http://www.w3.org/Graphics/SVG/1.1/DTD/svg11.dtd">
<!-- Generated by graphviz version 9.0.0 (0)
 -->
<!-- Title: Player::move Pages: 1 -->
<!--zoomable 119 -->

<svg id="main" version="1.1" xmlns="http://www.w3.org/2000/svg" xmlns:xlink="http://www.w3.org/1999/xlink" xml:space="preserve" onload="init(evt)">
<style type="text/css"><![CDATA[
.node, .edge {opacity: 0.7;}
.node.selected, .edge.selected {opacity: 1;}
.edge:hover path { stroke: red; }
.edge:hover polygon { stroke: red; fill: red; }
]]></style>

<defs>
  <circle id="rim" cx="0" cy="0" r="7"/>
  <circle id="rim2" cx="0" cy="0" r="3.5"/>
  <g id="zoomPlus">
    <use xlink:href="#rim" fill="#404040"><set attributeName="fill" to="#808080" begin="zoomplus.mouseover" end="zoomplus.mouseout"/></use>
    <path d="M-4,0h8M0,-4v8" fill="none" stroke="white" stroke-width="1.5" pointer-events="none"/>
  </g>
  <g id="zoomMin">
    <use xlink:href="#rim" fill="#404040"><set attributeName="fill" to="#808080" begin="zoomminus.mouseover" end="zoomminus.mouseout"/></use>
    <path d="M-4,0h8" fill="none" stroke="white" stroke-width="1.5" pointer-events="none"/>
  </g>
  <g id="arrowUp" transform="translate(30 24)">
    <use xlink:href="#rim"/>
    <path pointer-events="none" fill="none" stroke="white" stroke-width="1.5" d="M0,-3.0v7 M-2.5,-0.5L0,-3.0L2.5,-0.5"/>
  </g>
  <g id="arrowRight" transform="rotate(90) translate(36 -43)">
    <use xlink:href="#rim"/>
    <path pointer-events="none" fill="none" stroke="white" stroke-width="1.5" d="M0,-3.0v7 M-2.5,-0.5L0,-3.0L2.5,-0.5"/>
  </g>
  <g id="arrowDown" transform="rotate(180) translate(-30 -48)">
    <use xlink:href="#rim"/>
    <path pointer-events="none" fill="none" stroke="white" stroke-width="1.5" d="M0,-3.0v7 M-2.5,-0.5L0,-3.0L2.5,-0.5"/>
  </g>
  <g id="arrowLeft" transform="rotate(270) translate(-36 17)">
    <use xlink:href="#rim"/>
    <path pointer-events="none" fill="none" stroke="white" stroke-width="1.5" d="M0,-3.0v7 M-2.5,-0.5L0,-3.0L2.5,-0.5"/>
  </g>
  <g id="resetDef">
    <use xlink:href="#rim2" fill="#404040"><set attributeName="fill" to="#808080" begin="reset.mouseover" end="reset.mouseout"/></use>
  </g>
</defs>
<script type="application/ecmascript">
var viewWidth = 582;
var viewHeight = 119;
var sectionId = 'dynsection-10';
</script>
<script type="application/ecmascript" xlink:href="../../svg.min.js"/>
<svg id="graph" class="graph">
<g id="viewport">
<title>Player::move</title>
<!-- Node1 -->
<g id="Node000001" class="node">
<title>Node1</title>
<g id="a_Node000001"><a xlink:title="Moves player on screen.">
<polygon fill="#999999" stroke="#666666" points="105.25,-46.25 0,-46.25 0,-21 105.25,-21 105.25,-46.25"/>
<text text-anchor="middle" x="52.62" y="-28.95" font-family="Helvetica,sans-Serif" font-size="14.00">Player::move</text>
</a>
</g>
</g>
<!-- Node2 -->
<g id="Node000002" class="node">
<title>Node2</title>
<g id="a_Node000002"><a xlink:href="../../d2/d4b/classPlayer.html#a6754159e7c29c0d21d05d3560b088cd3" target="_top" xlink:title="Returns the player&#39;s movement vector multiplied by speed.">
<polygon fill="white" stroke="#666666" points="311,-68.25 141.25,-68.25 141.25,-43 311,-43 311,-68.25"/>
<text text-anchor="middle" x="226.12" y="-50.95" font-family="Helvetica,sans-Serif" font-size="14.00">Player::getMoveVector</text>
</a>
</g>
</g>
<!-- Node1&#45;&gt;Node2 -->
<g id="edge1_Node000001_Node000002" class="edge">
<title>Node1&#45;&gt;Node2</title>
<g id="a_edge1_Node000001_Node000002"><a xlink:title=" ">
<path fill="none" stroke="#63b8ff" stroke-width="2" d="M105.55,-40.29C112.83,-41.22 120.51,-42.2 128.31,-43.21"/>
<polygon fill="#63b8ff" stroke="#63b8ff" stroke-width="2" points="127.7,-46.66 138.06,-44.46 128.59,-39.71 127.7,-46.66"/>
</a>
</g>
</g>
<!-- Node7 -->
<g id="Node000007" class="node">
<title>Node7</title>
<g id="a_Node000007"><a xlink:href="../../de/d1c/classGameObject.html#a58f5eec3eb01d9cca9e9b93d950d41a8" target="_top" xlink:title="Translates object in space.">
<polygon fill="white" stroke="#666666" points="300.5,-25.25 151.75,-25.25 151.75,0 300.5,0 300.5,-25.25"/>
<text text-anchor="middle" x="226.12" y="-7.95" font-family="Helvetica,sans-Serif" font-size="14.00">GameObject::move</text>
</a>
</g>
</g>
<!-- Node1&#45;&gt;Node7 -->
<g id="edge5_Node000001_Node000007" class="edge">
<title>Node1&#45;&gt;Node7</title>
<g id="a_edge5_Node000001_Node000007"><a xlink:title=" ">
<path fill="none" stroke="#63b8ff" stroke-width="2" d="M105.55,-27.27C116.08,-25.98 127.42,-24.59 138.77,-23.2"/>
<polygon fill="#63b8ff" stroke="#63b8ff" stroke-width="2" points="139.05,-26.69 148.55,-22 138.2,-19.74 139.05,-26.69"/>
</a>
</g>
</g>
<!-- Node3 -->
<g id="Node000003" class="node">
<title>Node3</title>
<g id="a_Node000003"><a xlink:href="../../d1/db6/classEngine.html#a4fbdd2df29e30dd08de3c285cee8c128" target="_top" xlink:title="Instance getter.">
<polygon fill="#fff0f0" stroke="red" points="537.75,-111.25 383,-111.25 383,-86 537.75,-86 537.75,-111.25"/>
<text text-anchor="middle" x="460.38" y="-93.95" font-family="Helvetica,sans-Serif" font-size="14.00">Engine::getInstance</text>
</a>
</g>
</g>
<!-- Node2&#45;&gt;Node3 -->
<g id="edge2_Node000002_Node000003" class="edge">
<title>Node2&#45;&gt;Node3</title>
<g id="a_edge2_Node000002_Node000003"><a xlink:title=" ">
<path fill="none" stroke="#63b8ff" stroke-width="2" d="M297.75,-68.7C322.41,-73.27 350.33,-78.43 375.93,-83.18"/>
<polygon fill="#63b8ff" stroke="#63b8ff" stroke-width="2" points="375.24,-86.61 385.71,-84.99 376.51,-79.72 375.24,-86.61"/>
</a>
</g>
</g>
<!-- Node5 -->
<g id="Node000005" class="node">
<title>Node5</title>
<g id="a_Node000005"><a xlink:href="../../d1/db6/classEngine.html#a7882b3a1b96c425ea5692807e0765e9f" target="_top" xlink:title="Last frame duration getter.">
<polygon fill="white" stroke="#666666" points="573.75,-68.25 347,-68.25 347,-43 573.75,-43 573.75,-68.25"/>
<text text-anchor="middle" x="460.38" y="-50.95" font-family="Helvetica,sans-Serif" font-size="14.00">Engine::getLastFrameDuration</text>
</a>
</g>
</g>
<!-- Node2&#45;&gt;Node5 -->
<g id="edge3_Node000002_Node000005" class="edge">
<title>Node2&#45;&gt;Node5</title>
<g id="a_edge3_Node000002_Node000005"><a xlink:title=" ">
<path fill="none" stroke="#63b8ff" stroke-width="2" d="M311.3,-55.62C318.7,-55.62 326.29,-55.62 333.94,-55.62"/>
<polygon fill="#63b8ff" stroke="#63b8ff" stroke-width="2" points="333.8,-59.13 343.8,-55.63 333.8,-52.13 333.8,-59.13"/>
</a>
</g>
</g>
<!-- Node6 -->
<g id="Node000006" class="node">
<title>Node6</title>
<g id="a_Node000006"><a xlink:href="../../d2/d4b/classPlayer.html#ae1905c2212e75f18b7eefd91324fe3d9" target="_top" xlink:title="Returns a 2D vector containing information on which cardinal directions the player is moving.">
<polygon fill="white" stroke="#666666" points="566.62,-25.25 354.12,-25.25 354.12,0 566.62,0 566.62,-25.25"/>
<text text-anchor="middle" x="460.38" y="-7.95" font-family="Helvetica,sans-Serif" font-size="14.00">Player::getMoveVectorOrigin</text>
</a>
</g>
</g>
<!-- Node2&#45;&gt;Node6 -->
<g id="edge4_Node000002_Node000006" class="edge">
<title>Node2&#45;&gt;Node6</title>
<g id="a_edge4_Node000002_Node000006"><a xlink:title=" ">
<path fill="none" stroke="#63b8ff" stroke-width="2" d="M297.75,-42.55C322.41,-37.98 350.33,-32.82 375.93,-28.07"/>
<polygon fill="#63b8ff" stroke="#63b8ff" stroke-width="2" points="376.51,-31.53 385.71,-26.26 375.24,-24.64 376.51,-31.53"/>
</a>
</g>
</g>
</g>
</svg>

<g id="navigator" transform="translate(0 0)" fill="#404254">
  <rect fill="#f2f5e9" fill-opacity="0.5" stroke="#606060" stroke-width=".5" x="0" y="0" width="60" height="60"/>
  <use id="zoomplus" xlink:href="#zoomPlus" x="17" y="9" onmousedown="handleZoom(evt,'in')"/>
  <use id="zoomminus" xlink:href="#zoomMin" x="42" y="9" onmousedown="handleZoom(evt,'out')"/>
  <use id="reset" xlink:href="#resetDef" x="30" y="36" onmousedown="handleReset()"/>
   <use id="arrowup" xlink:href="#arrowUp" x="0" y="0" onmousedown="handlePan(0,-1)"/>
  <use id="arrowright" xlink:href="#arrowRight" x="0" y="0" onmousedown="handlePan(1,0)"/>
  <use id="arrowdown" xlink:href="#arrowDown" x="0" y="0" onmousedown="handlePan(0,1)"/>
  <use id="arrowleft" xlink:href="#arrowLeft" x="0" y="0" onmousedown="handlePan(-1,0)"/>
</g>
<svg viewBox="0 0 15 15" width="100%" height="30px" preserveAspectRatio="xMaxYMin meet">
 <g id="arrow_out" transform="scale(0.3 0.3)">
  <a xlink:href="classPlayer_ad29f780f5ab349975b25f6b7ab49dd9d_cgraph_org.svg" target="_base">
   <rect id="button" ry="5" rx="5" y="6" x="6" height="38" width="38"
        fill="#f2f5e9" fill-opacity="0.5" stroke="#606060" stroke-width="1.0"/>
   <path id="arrow"
     d="M 11.500037,31.436501 C 11.940474,20.09759 22.043105,11.32322 32.158766,21.979434 L 37.068811,17.246167 C 37.068811,17.246167 37.088388,32 37.088388,32 L 22.160133,31.978069 C 22.160133,31.978069 26.997745,27.140456 26.997745,27.140456 C 18.528582,18.264221 13.291696,25.230495 11.500037,31.436501 z"
     style="fill:#404040;"/>
  </a>
 </g>
</svg>

<style type='text/css'>
<![CDATA[
[data-mouse-over-selected='false'] { opacity: 0.7; }
[data-mouse-over-selected='true']  { opacity: 1.0; }
]]>
</style>
<script type="application/ecmascript"><![CDATA[
document.addEventListener('DOMContentLoaded', (event) => {
  highlightEdges();
  highlightAdjacentNodes();
});
]]></script>
</svg>
