<?xml version="1.0" encoding="UTF-8" standalone="no"?>
<!DOCTYPE svg PUBLIC "-//W3C//DTD SVG 1.1//EN"
 "http://www.w3.org/Graphics/SVG/1.1/DTD/svg11.dtd">
<!-- Generated by graphviz version 9.0.0 (0)
 -->
<!-- Title: Player::getMoveVector Pages: 1 -->
<svg width="598pt" height="119pt"
 viewBox="0.00 0.00 597.50 119.25" xmlns="http://www.w3.org/2000/svg" xmlns:xlink="http://www.w3.org/1999/xlink">
<g id="graph0" class="graph" transform="scale(1 1) rotate(0) translate(4 115.25)">
<title>Player::getMoveVector</title>
<!-- Node1 -->
<g id="Node000001" class="node">
<title>Node1</title>
<g id="a_Node000001"><a xlink:title="Returns the player&#39;s movement vector multiplied by speed.">
<polygon fill="#999999" stroke="#666666" points="169.75,-68.25 0,-68.25 0,-43 169.75,-43 169.75,-68.25"/>
<text text-anchor="middle" x="84.88" y="-50.95" font-family="Helvetica,sans-Serif" font-size="14.00">Player::getMoveVector</text>
</a>
</g>
</g>
<!-- Node2 -->
<g id="Node000002" class="node">
<title>Node2</title>
<g id="a_Node000002"><a xlink:href="../../d1/db6/classEngine.html#a4fbdd2df29e30dd08de3c285cee8c128" target="_top" xlink:title="Instance getter.">
<polygon fill="white" stroke="#666666" points="396.5,-111.25 241.75,-111.25 241.75,-86 396.5,-86 396.5,-111.25"/>
<text text-anchor="middle" x="319.12" y="-93.95" font-family="Helvetica,sans-Serif" font-size="14.00">Engine::getInstance</text>
</a>
</g>
</g>
<!-- Node1&#45;&gt;Node2 -->
<g id="edge1_Node000001_Node000002" class="edge">
<title>Node1&#45;&gt;Node2</title>
<g id="a_edge1_Node000001_Node000002"><a xlink:title=" ">
<path fill="none" stroke="#63b8ff" stroke-width="2" d="M156.5,-68.7C181.16,-73.27 209.08,-78.43 234.68,-83.18"/>
<polygon fill="#63b8ff" stroke="#63b8ff" stroke-width="2" points="233.99,-86.61 244.46,-84.99 235.26,-79.72 233.99,-86.61"/>
</a>
</g>
</g>
<!-- Node4 -->
<g id="Node000004" class="node">
<title>Node4</title>
<g id="a_Node000004"><a xlink:href="../../d1/db6/classEngine.html#a7882b3a1b96c425ea5692807e0765e9f" target="_top" xlink:title="Last frame duration getter.">
<polygon fill="white" stroke="#666666" points="432.5,-68.25 205.75,-68.25 205.75,-43 432.5,-43 432.5,-68.25"/>
<text text-anchor="middle" x="319.12" y="-50.95" font-family="Helvetica,sans-Serif" font-size="14.00">Engine::getLastFrameDuration</text>
</a>
</g>
</g>
<!-- Node1&#45;&gt;Node4 -->
<g id="edge3_Node000001_Node000004" class="edge">
<title>Node1&#45;&gt;Node4</title>
<g id="a_edge3_Node000001_Node000004"><a xlink:title=" ">
<path fill="none" stroke="#63b8ff" stroke-width="2" d="M170.05,-55.62C177.45,-55.62 185.04,-55.62 192.69,-55.62"/>
<polygon fill="#63b8ff" stroke="#63b8ff" stroke-width="2" points="192.55,-59.13 202.55,-55.63 192.55,-52.13 192.55,-59.13"/>
</a>
</g>
</g>
<!-- Node5 -->
<g id="Node000005" class="node">
<title>Node5</title>
<g id="a_Node000005"><a xlink:href="../../d2/d4b/classPlayer.html#ae1905c2212e75f18b7eefd91324fe3d9" target="_top" xlink:title="Returns a 2D vector containing information on which cardinal directions the player is moving.">
<polygon fill="white" stroke="#666666" points="425.38,-25.25 212.88,-25.25 212.88,0 425.38,0 425.38,-25.25"/>
<text text-anchor="middle" x="319.12" y="-7.95" font-family="Helvetica,sans-Serif" font-size="14.00">Player::getMoveVectorOrigin</text>
</a>
</g>
</g>
<!-- Node1&#45;&gt;Node5 -->
<g id="edge4_Node000001_Node000005" class="edge">
<title>Node1&#45;&gt;Node5</title>
<g id="a_edge4_Node000001_Node000005"><a xlink:title=" ">
<path fill="none" stroke="#63b8ff" stroke-width="2" d="M156.5,-42.55C181.16,-37.98 209.08,-32.82 234.68,-28.07"/>
<polygon fill="#63b8ff" stroke="#63b8ff" stroke-width="2" points="235.26,-31.53 244.46,-26.26 233.99,-24.64 235.26,-31.53"/>
</a>
</g>
</g>
<!-- Node3 -->
<g id="Node000003" class="node">
<title>Node3</title>
<g id="a_Node000003"><a xlink:href="../../d1/db6/classEngine.html#a8c98683b0a3aa28d8ab72a8bcd0d52f2" target="_top" xlink:title="Constructor.">
<polygon fill="white" stroke="#666666" points="589.5,-111.25 468.5,-111.25 468.5,-86 589.5,-86 589.5,-111.25"/>
<text text-anchor="middle" x="529" y="-93.95" font-family="Helvetica,sans-Serif" font-size="14.00">Engine::Engine</text>
</a>
</g>
</g>
<!-- Node2&#45;&gt;Node3 -->
<g id="edge2_Node000002_Node000003" class="edge">
<title>Node2&#45;&gt;Node3</title>
<g id="a_edge2_Node000002_Node000003"><a xlink:title=" ">
<path fill="none" stroke="#63b8ff" stroke-width="2" d="M396.94,-98.62C416.02,-98.62 436.4,-98.62 455.28,-98.62"/>
<polygon fill="#63b8ff" stroke="#63b8ff" stroke-width="2" points="455.04,-102.13 465.04,-98.63 455.04,-95.13 455.04,-102.13"/>
</a>
</g>
</g>
</g>
</svg>
