<?xml version="1.0" encoding="UTF-8" standalone="no"?>
<!DOCTYPE svg PUBLIC "-//W3C//DTD SVG 1.1//EN"
 "http://www.w3.org/Graphics/SVG/1.1/DTD/svg11.dtd">
<!-- Generated by graphviz version 9.0.0 (0)
 -->
<!-- Title: Player::update Pages: 1 -->
<svg width="734pt" height="119pt"
 viewBox="0.00 0.00 733.50 119.25" xmlns="http://www.w3.org/2000/svg" xmlns:xlink="http://www.w3.org/1999/xlink">
<g id="graph0" class="graph" transform="scale(1 1) rotate(0) translate(4 115.25)">
<title>Player::update</title>
<!-- Node1 -->
<g id="Node000001" class="node">
<title>Node1</title>
<g id="a_Node000001"><a xlink:title="Updates state of object.">
<polygon fill="#999999" stroke="#666666" points="115.75,-47.25 0,-47.25 0,-22 115.75,-22 115.75,-47.25"/>
<text text-anchor="middle" x="57.88" y="-29.95" font-family="Helvetica,sans-Serif" font-size="14.00">Player::update</text>
</a>
</g>
</g>
<!-- Node2 -->
<g id="Node000002" class="node">
<title>Node2</title>
<g id="a_Node000002"><a xlink:href="../../d2/d4b/classPlayer.html#a6754159e7c29c0d21d05d3560b088cd3" target="_top" xlink:title="Returns the player&#39;s movement vector multiplied by speed.">
<polygon fill="white" stroke="#666666" points="462.75,-68.25 293,-68.25 293,-43 462.75,-43 462.75,-68.25"/>
<text text-anchor="middle" x="377.88" y="-50.95" font-family="Helvetica,sans-Serif" font-size="14.00">Player::getMoveVector</text>
</a>
</g>
</g>
<!-- Node1&#45;&gt;Node2 -->
<g id="edge1_Node000001_Node000002" class="edge">
<title>Node1&#45;&gt;Node2</title>
<g id="a_edge1_Node000001_Node000002"><a xlink:title=" ">
<path fill="none" stroke="#63b8ff" stroke-width="2" d="M116.09,-38.4C161.52,-41.4 226.08,-45.67 279.59,-49.2"/>
<polygon fill="#63b8ff" stroke="#63b8ff" stroke-width="2" points="279.35,-52.69 289.56,-49.86 279.82,-45.71 279.35,-52.69"/>
</a>
</g>
</g>
<!-- Node7 -->
<g id="Node000007" class="node">
<title>Node7</title>
<g id="a_Node000007"><a xlink:href="../../d2/d4b/classPlayer.html#ad29f780f5ab349975b25f6b7ab49dd9d" target="_top" xlink:title="Moves player on screen.">
<polygon fill="white" stroke="#666666" points="257,-27.25 151.75,-27.25 151.75,-2 257,-2 257,-27.25"/>
<text text-anchor="middle" x="204.38" y="-9.95" font-family="Helvetica,sans-Serif" font-size="14.00">Player::move</text>
</a>
</g>
</g>
<!-- Node1&#45;&gt;Node7 -->
<g id="edge5_Node000001_Node000007" class="edge">
<title>Node1&#45;&gt;Node7</title>
<g id="a_edge5_Node000001_Node000007"><a xlink:title=" ">
<path fill="none" stroke="#63b8ff" stroke-width="2" d="M115.99,-26.72C123.37,-25.7 130.98,-24.64 138.49,-23.61"/>
<polygon fill="#63b8ff" stroke="#63b8ff" stroke-width="2" points="138.95,-27.08 148.37,-22.24 137.99,-20.14 138.95,-27.08"/>
</a>
</g>
</g>
<!-- Node3 -->
<g id="Node000003" class="node">
<title>Node3</title>
<g id="a_Node000003"><a xlink:href="../../d1/db6/classEngine.html#a4fbdd2df29e30dd08de3c285cee8c128" target="_top" xlink:title="Instance getter.">
<polygon fill="#fff0f0" stroke="red" points="689.5,-111.25 534.75,-111.25 534.75,-86 689.5,-86 689.5,-111.25"/>
<text text-anchor="middle" x="612.12" y="-93.95" font-family="Helvetica,sans-Serif" font-size="14.00">Engine::getInstance</text>
</a>
</g>
</g>
<!-- Node2&#45;&gt;Node3 -->
<g id="edge2_Node000002_Node000003" class="edge">
<title>Node2&#45;&gt;Node3</title>
<g id="a_edge2_Node000002_Node000003"><a xlink:title=" ">
<path fill="none" stroke="#63b8ff" stroke-width="2" d="M449.5,-68.7C474.16,-73.27 502.08,-78.43 527.68,-83.18"/>
<polygon fill="#63b8ff" stroke="#63b8ff" stroke-width="2" points="526.99,-86.61 537.46,-84.99 528.26,-79.72 526.99,-86.61"/>
</a>
</g>
</g>
<!-- Node5 -->
<g id="Node000005" class="node">
<title>Node5</title>
<g id="a_Node000005"><a xlink:href="../../d1/db6/classEngine.html#a7882b3a1b96c425ea5692807e0765e9f" target="_top" xlink:title="Last frame duration getter.">
<polygon fill="white" stroke="#666666" points="725.5,-68.25 498.75,-68.25 498.75,-43 725.5,-43 725.5,-68.25"/>
<text text-anchor="middle" x="612.12" y="-50.95" font-family="Helvetica,sans-Serif" font-size="14.00">Engine::getLastFrameDuration</text>
</a>
</g>
</g>
<!-- Node2&#45;&gt;Node5 -->
<g id="edge3_Node000002_Node000005" class="edge">
<title>Node2&#45;&gt;Node5</title>
<g id="a_edge3_Node000002_Node000005"><a xlink:title=" ">
<path fill="none" stroke="#63b8ff" stroke-width="2" d="M463.05,-55.62C470.45,-55.62 478.04,-55.62 485.69,-55.62"/>
<polygon fill="#63b8ff" stroke="#63b8ff" stroke-width="2" points="485.55,-59.13 495.55,-55.63 485.55,-52.13 485.55,-59.13"/>
</a>
</g>
</g>
<!-- Node6 -->
<g id="Node000006" class="node">
<title>Node6</title>
<g id="a_Node000006"><a xlink:href="../../d2/d4b/classPlayer.html#ae1905c2212e75f18b7eefd91324fe3d9" target="_top" xlink:title="Returns a 2D vector containing information on which cardinal directions the player is moving.">
<polygon fill="white" stroke="#666666" points="718.38,-25.25 505.88,-25.25 505.88,0 718.38,0 718.38,-25.25"/>
<text text-anchor="middle" x="612.12" y="-7.95" font-family="Helvetica,sans-Serif" font-size="14.00">Player::getMoveVectorOrigin</text>
</a>
</g>
</g>
<!-- Node2&#45;&gt;Node6 -->
<g id="edge4_Node000002_Node000006" class="edge">
<title>Node2&#45;&gt;Node6</title>
<g id="a_edge4_Node000002_Node000006"><a xlink:title=" ">
<path fill="none" stroke="#63b8ff" stroke-width="2" d="M449.5,-42.55C474.16,-37.98 502.08,-32.82 527.68,-28.07"/>
<polygon fill="#63b8ff" stroke="#63b8ff" stroke-width="2" points="528.26,-31.53 537.46,-26.26 526.99,-24.64 528.26,-31.53"/>
</a>
</g>
</g>
<!-- Node7&#45;&gt;Node2 -->
<g id="edge6_Node000007_Node000002" class="edge">
<title>Node7&#45;&gt;Node2</title>
<g id="a_edge6_Node000007_Node000002"><a xlink:title=" ">
<path fill="none" stroke="#63b8ff" stroke-width="2" d="M257.3,-27.04C273.8,-30.98 292.29,-35.4 309.71,-39.57"/>
<polygon fill="#63b8ff" stroke="#63b8ff" stroke-width="2" points="308.67,-42.92 319.21,-41.84 310.3,-36.11 308.67,-42.92"/>
</a>
</g>
</g>
<!-- Node8 -->
<g id="Node000008" class="node">
<title>Node8</title>
<g id="a_Node000008"><a xlink:href="../../de/d1c/classGameObject.html#a58f5eec3eb01d9cca9e9b93d950d41a8" target="_top" xlink:title="Translates object in space.">
<polygon fill="white" stroke="#666666" points="452.25,-25.25 303.5,-25.25 303.5,0 452.25,0 452.25,-25.25"/>
<text text-anchor="middle" x="377.88" y="-7.95" font-family="Helvetica,sans-Serif" font-size="14.00">GameObject::move</text>
</a>
</g>
</g>
<!-- Node7&#45;&gt;Node8 -->
<g id="edge7_Node000007_Node000008" class="edge">
<title>Node7&#45;&gt;Node8</title>
<g id="a_edge7_Node000007_Node000008"><a xlink:title=" ">
<path fill="none" stroke="#63b8ff" stroke-width="2" d="M257.3,-14.02C267.83,-13.9 279.17,-13.76 290.52,-13.63"/>
<polygon fill="#63b8ff" stroke="#63b8ff" stroke-width="2" points="290.32,-17.13 300.28,-13.52 290.24,-10.14 290.32,-17.13"/>
</a>
</g>
</g>
</g>
</svg>
