<?xml version="1.0" encoding="UTF-8" standalone="no"?>
<!DOCTYPE svg PUBLIC "-//W3C//DTD SVG 1.1//EN"
 "http://www.w3.org/Graphics/SVG/1.1/DTD/svg11.dtd">
<!-- Generated by graphviz version 9.0.0 (0)
 -->
<!-- Title: Player::move Pages: 1 -->
<svg width="582pt" height="119pt"
 viewBox="0.00 0.00 581.75 119.25" xmlns="http://www.w3.org/2000/svg" xmlns:xlink="http://www.w3.org/1999/xlink">
<g id="graph0" class="graph" transform="scale(1 1) rotate(0) translate(4 115.25)">
<title>Player::move</title>
<!-- Node1 -->
<g id="Node000001" class="node">
<title>Node1</title>
<g id="a_Node000001"><a xlink:title="Moves player on screen.">
<polygon fill="#999999" stroke="#666666" points="105.25,-46.25 0,-46.25 0,-21 105.25,-21 105.25,-46.25"/>
<text text-anchor="middle" x="52.62" y="-28.95" font-family="Helvetica,sans-Serif" font-size="14.00">Player::move</text>
</a>
</g>
</g>
<!-- Node2 -->
<g id="Node000002" class="node">
<title>Node2</title>
<g id="a_Node000002"><a xlink:href="../../d2/d4b/classPlayer.html#a6754159e7c29c0d21d05d3560b088cd3" target="_top" xlink:title="Returns the player&#39;s movement vector multiplied by speed.">
<polygon fill="white" stroke="#666666" points="311,-68.25 141.25,-68.25 141.25,-43 311,-43 311,-68.25"/>
<text text-anchor="middle" x="226.12" y="-50.95" font-family="Helvetica,sans-Serif" font-size="14.00">Player::getMoveVector</text>
</a>
</g>
</g>
<!-- Node1&#45;&gt;Node2 -->
<g id="edge1_Node000001_Node000002" class="edge">
<title>Node1&#45;&gt;Node2</title>
<g id="a_edge1_Node000001_Node000002"><a xlink:title=" ">
<path fill="none" stroke="#63b8ff" stroke-width="2" d="M105.55,-40.29C112.83,-41.22 120.51,-42.2 128.31,-43.21"/>
<polygon fill="#63b8ff" stroke="#63b8ff" stroke-width="2" points="127.7,-46.66 138.06,-44.46 128.59,-39.71 127.7,-46.66"/>
</a>
</g>
</g>
<!-- Node7 -->
<g id="Node000007" class="node">
<title>Node7</title>
<g id="a_Node000007"><a xlink:href="../../de/d1c/classGameObject.html#a58f5eec3eb01d9cca9e9b93d950d41a8" target="_top" xlink:title="Translates object in space.">
<polygon fill="white" stroke="#666666" points="300.5,-25.25 151.75,-25.25 151.75,0 300.5,0 300.5,-25.25"/>
<text text-anchor="middle" x="226.12" y="-7.95" font-family="Helvetica,sans-Serif" font-size="14.00">GameObject::move</text>
</a>
</g>
</g>
<!-- Node1&#45;&gt;Node7 -->
<g id="edge5_Node000001_Node000007" class="edge">
<title>Node1&#45;&gt;Node7</title>
<g id="a_edge5_Node000001_Node000007"><a xlink:title=" ">
<path fill="none" stroke="#63b8ff" stroke-width="2" d="M105.55,-27.27C116.08,-25.98 127.42,-24.59 138.77,-23.2"/>
<polygon fill="#63b8ff" stroke="#63b8ff" stroke-width="2" points="139.05,-26.69 148.55,-22 138.2,-19.74 139.05,-26.69"/>
</a>
</g>
</g>
<!-- Node3 -->
<g id="Node000003" class="node">
<title>Node3</title>
<g id="a_Node000003"><a xlink:href="../../d1/db6/classEngine.html#a4fbdd2df29e30dd08de3c285cee8c128" target="_top" xlink:title="Instance getter.">
<polygon fill="#fff0f0" stroke="red" points="537.75,-111.25 383,-111.25 383,-86 537.75,-86 537.75,-111.25"/>
<text text-anchor="middle" x="460.38" y="-93.95" font-family="Helvetica,sans-Serif" font-size="14.00">Engine::getInstance</text>
</a>
</g>
</g>
<!-- Node2&#45;&gt;Node3 -->
<g id="edge2_Node000002_Node000003" class="edge">
<title>Node2&#45;&gt;Node3</title>
<g id="a_edge2_Node000002_Node000003"><a xlink:title=" ">
<path fill="none" stroke="#63b8ff" stroke-width="2" d="M297.75,-68.7C322.41,-73.27 350.33,-78.43 375.93,-83.18"/>
<polygon fill="#63b8ff" stroke="#63b8ff" stroke-width="2" points="375.24,-86.61 385.71,-84.99 376.51,-79.72 375.24,-86.61"/>
</a>
</g>
</g>
<!-- Node5 -->
<g id="Node000005" class="node">
<title>Node5</title>
<g id="a_Node000005"><a xlink:href="../../d1/db6/classEngine.html#a7882b3a1b96c425ea5692807e0765e9f" target="_top" xlink:title="Last frame duration getter.">
<polygon fill="white" stroke="#666666" points="573.75,-68.25 347,-68.25 347,-43 573.75,-43 573.75,-68.25"/>
<text text-anchor="middle" x="460.38" y="-50.95" font-family="Helvetica,sans-Serif" font-size="14.00">Engine::getLastFrameDuration</text>
</a>
</g>
</g>
<!-- Node2&#45;&gt;Node5 -->
<g id="edge3_Node000002_Node000005" class="edge">
<title>Node2&#45;&gt;Node5</title>
<g id="a_edge3_Node000002_Node000005"><a xlink:title=" ">
<path fill="none" stroke="#63b8ff" stroke-width="2" d="M311.3,-55.62C318.7,-55.62 326.29,-55.62 333.94,-55.62"/>
<polygon fill="#63b8ff" stroke="#63b8ff" stroke-width="2" points="333.8,-59.13 343.8,-55.63 333.8,-52.13 333.8,-59.13"/>
</a>
</g>
</g>
<!-- Node6 -->
<g id="Node000006" class="node">
<title>Node6</title>
<g id="a_Node000006"><a xlink:href="../../d2/d4b/classPlayer.html#ae1905c2212e75f18b7eefd91324fe3d9" target="_top" xlink:title="Returns a 2D vector containing information on which cardinal directions the player is moving.">
<polygon fill="white" stroke="#666666" points="566.62,-25.25 354.12,-25.25 354.12,0 566.62,0 566.62,-25.25"/>
<text text-anchor="middle" x="460.38" y="-7.95" font-family="Helvetica,sans-Serif" font-size="14.00">Player::getMoveVectorOrigin</text>
</a>
</g>
</g>
<!-- Node2&#45;&gt;Node6 -->
<g id="edge4_Node000002_Node000006" class="edge">
<title>Node2&#45;&gt;Node6</title>
<g id="a_edge4_Node000002_Node000006"><a xlink:title=" ">
<path fill="none" stroke="#63b8ff" stroke-width="2" d="M297.75,-42.55C322.41,-37.98 350.33,-32.82 375.93,-28.07"/>
<polygon fill="#63b8ff" stroke="#63b8ff" stroke-width="2" points="376.51,-31.53 385.71,-26.26 375.24,-24.64 376.51,-31.53"/>
</a>
</g>
</g>
</g>
</svg>
