<?xml version="1.0" encoding="UTF-8" standalone="no"?>
<!DOCTYPE svg PUBLIC "-//W3C//DTD SVG 1.1//EN"
 "http://www.w3.org/Graphics/SVG/1.1/DTD/svg11.dtd">
<!-- Generated by graphviz version 9.0.0 (0)
 -->
<!-- Title: Player::getMoveVector Pages: 1 -->
<svg width="471pt" height="54pt"
 viewBox="0.00 0.00 470.75 54.25" xmlns="http://www.w3.org/2000/svg" xmlns:xlink="http://www.w3.org/1999/xlink">
<g id="graph0" class="graph" transform="scale(1 1) rotate(0) translate(4 50.25)">
<title>Player::getMoveVector</title>
<!-- Node1 -->
<g id="Node000001" class="node">
<title>Node1</title>
<g id="a_Node000001"><a xlink:title="Returns the player&#39;s movement vector multiplied by speed.">
<polygon fill="#999999" stroke="#666666" points="462.75,-25.25 293,-25.25 293,0 462.75,0 462.75,-25.25"/>
<text text-anchor="middle" x="377.88" y="-7.95" font-family="Helvetica,sans-Serif" font-size="14.00">Player::getMoveVector</text>
</a>
</g>
</g>
<!-- Node2 -->
<g id="Node000002" class="node">
<title>Node2</title>
<g id="a_Node000002"><a xlink:href="../../d2/d4b/classPlayer.html#ad29f780f5ab349975b25f6b7ab49dd9d" target="_top" xlink:title="Moves player on screen.">
<polygon fill="white" stroke="#666666" points="257,-46.25 151.75,-46.25 151.75,-21 257,-21 257,-46.25"/>
<text text-anchor="middle" x="204.38" y="-28.95" font-family="Helvetica,sans-Serif" font-size="14.00">Player::move</text>
</a>
</g>
</g>
<!-- Node1&#45;&gt;Node2 -->
<g id="edge1_Node000001_Node000002" class="edge">
<title>Node1&#45;&gt;Node2</title>
<g id="a_edge1_Node000001_Node000002"><a xlink:title=" ">
<path fill="none" stroke="#63b8ff" stroke-width="2" d="M279.97,-24.49C272.23,-25.44 264.61,-26.37 257.37,-27.26"/>
<polygon fill="#63b8ff" stroke="#63b8ff" stroke-width="2" points="280.13,-28 289.63,-23.31 279.28,-21.05 280.13,-28"/>
</a>
</g>
</g>
<!-- Node3 -->
<g id="Node000003" class="node">
<title>Node3</title>
<g id="a_Node000003"><a xlink:href="../../d2/d4b/classPlayer.html#a82c3476f3e65a4e2ac6bcd040771bdd4" target="_top" xlink:title="Updates state of object.">
<polygon fill="#fff0f0" stroke="red" points="115.75,-25.25 0,-25.25 0,0 115.75,0 115.75,-25.25"/>
<text text-anchor="middle" x="57.88" y="-7.95" font-family="Helvetica,sans-Serif" font-size="14.00">Player::update</text>
</a>
</g>
</g>
<!-- Node1&#45;&gt;Node3 -->
<g id="edge3_Node000001_Node000003" class="edge">
<title>Node1&#45;&gt;Node3</title>
<g id="a_edge3_Node000001_Node000003"><a xlink:title=" ">
<path fill="none" stroke="#63b8ff" stroke-width="2" d="M279.76,-11.75C272.06,-11.7 264.4,-11.66 257,-11.62 210.22,-11.43 198.53,-11.37 151.75,-11.62 140.14,-11.69 127.71,-11.79 115.85,-11.91"/>
<polygon fill="#63b8ff" stroke="#63b8ff" stroke-width="2" points="279.67,-15.25 289.69,-11.81 279.71,-8.25 279.67,-15.25"/>
</a>
</g>
</g>
<!-- Node2&#45;&gt;Node3 -->
<g id="edge2_Node000002_Node000003" class="edge">
<title>Node2&#45;&gt;Node3</title>
<g id="a_edge2_Node000002_Node000003"><a xlink:title=" ">
<path fill="none" stroke="#63b8ff" stroke-width="2" d="M138.99,-24.27C131.38,-23.16 123.65,-22.04 116.16,-20.95"/>
<polygon fill="#63b8ff" stroke="#63b8ff" stroke-width="2" points="138.22,-27.69 148.62,-25.67 139.23,-20.77 138.22,-27.69"/>
</a>
</g>
</g>
</g>
</svg>
