<?xml version="1.0" encoding="UTF-8" standalone="no"?>
<!DOCTYPE svg PUBLIC "-//W3C//DTD SVG 1.1//EN"
 "http://www.w3.org/Graphics/SVG/1.1/DTD/svg11.dtd">
<!-- Generated by graphviz version 9.0.0 (0)
 -->
<!-- Title: animatedObject.cpp Pages: 1 -->
<svg width="713pt" height="278pt"
 viewBox="0.00 0.00 713.03 278.25" xmlns="http://www.w3.org/2000/svg" xmlns:xlink="http://www.w3.org/1999/xlink">
<g id="graph0" class="graph" transform="scale(1 1) rotate(0) translate(4 274.25)">
<title>animatedObject.cpp</title>
<!-- Node1 -->
<g id="Node000001" class="node">
<title>Node1</title>
<g id="a_Node000001"><a xlink:title=" ">
<polygon fill="#999999" stroke="#666666" points="666.62,-270.25 510.38,-270.25 510.38,-245 666.62,-245 666.62,-270.25"/>
<text text-anchor="middle" x="588.5" y="-252.95" font-family="Helvetica,sans-Serif" font-size="14.00">animatedObject.cpp</text>
</a>
</g>
</g>
<!-- Node2 -->
<g id="Node000002" class="node">
<title>Node2</title>
<g id="a_Node000002"><a xlink:href="../../dc/d3e/animatedObject_8hpp.html" target="_top" xlink:title=" ">
<polygon fill="white" stroke="#666666" points="446.38,-209 288.62,-209 288.62,-183.75 446.38,-183.75 446.38,-209"/>
<text text-anchor="middle" x="367.5" y="-191.7" font-family="Helvetica,sans-Serif" font-size="14.00">animatedObject.hpp</text>
</a>
</g>
</g>
<!-- Node1&#45;&gt;Node2 -->
<g id="edge1_Node000001_Node000002" class="edge">
<title>Node1&#45;&gt;Node2</title>
<g id="a_edge1_Node000001_Node000002"><a xlink:title=" ">
<path fill="none" stroke="#63b8ff" stroke-width="2" d="M543.51,-244.56C509.15,-235.35 461.57,-222.6 424.55,-212.67"/>
<polygon fill="#63b8ff" stroke="#63b8ff" stroke-width="2" points="425.92,-209.41 415.35,-210.2 424.1,-216.17 425.92,-209.41"/>
</a>
</g>
</g>
<!-- Node8 -->
<g id="Node000008" class="node">
<title>Node8</title>
<g id="a_Node000008"><a xlink:title=" ">
<polygon fill="#e0e0e0" stroke="#999999" points="686.5,-147.75 490.5,-147.75 490.5,-122.5 686.5,-122.5 686.5,-147.75"/>
<text text-anchor="middle" x="588.5" y="-130.45" font-family="Helvetica,sans-Serif" font-size="14.00">SFML/Graphics/Sprite.hpp</text>
</a>
</g>
</g>
<!-- Node1&#45;&gt;Node8 -->
<g id="edge9_Node000001_Node000008" class="edge">
<title>Node1&#45;&gt;Node8</title>
<g id="a_edge9_Node000001_Node000008"><a xlink:title=" ">
<path fill="none" stroke="#63b8ff" stroke-width="2" d="M588.5,-244.63C588.5,-225.23 588.5,-186.57 588.5,-161.03"/>
<polygon fill="#63b8ff" stroke="#63b8ff" stroke-width="2" points="592,-161.1 588.5,-151.1 585,-161.1 592,-161.1"/>
</a>
</g>
</g>
<!-- Node11 -->
<g id="Node000011" class="node">
<title>Node11</title>
<g id="a_Node000011"><a xlink:href="../../d4/d3d/log_8hpp.html" target="_top" xlink:title=" ">
<polygon fill="white" stroke="#666666" points="523.75,-86.5 455.25,-86.5 455.25,-61.25 523.75,-61.25 523.75,-86.5"/>
<text text-anchor="middle" x="489.5" y="-69.2" font-family="Helvetica,sans-Serif" font-size="14.00">log.hpp</text>
</a>
</g>
</g>
<!-- Node1&#45;&gt;Node11 -->
<g id="edge10_Node000001_Node000011" class="edge">
<title>Node1&#45;&gt;Node11</title>
<g id="a_edge10_Node000001_Node000011"><a xlink:title=" ">
<path fill="none" stroke="#63b8ff" stroke-width="2" d="M610.93,-244.61C651.89,-221.16 731.37,-167.61 695.5,-122.5 676.08,-98.08 591.63,-85.09 537.06,-79.12"/>
<polygon fill="#63b8ff" stroke="#63b8ff" stroke-width="2" points="537.55,-75.65 527.24,-78.1 536.83,-82.62 537.55,-75.65"/>
</a>
</g>
</g>
<!-- Node3 -->
<g id="Node000003" class="node">
<title>Node3</title>
<g id="a_Node000003"><a xlink:href="../../d4/db5/GameObject_8hpp.html" target="_top" xlink:title=" ">
<polygon fill="#fff0f0" stroke="red" points="133,-147.75 0,-147.75 0,-122.5 133,-122.5 133,-147.75"/>
<text text-anchor="middle" x="66.5" y="-130.45" font-family="Helvetica,sans-Serif" font-size="14.00">GameObject.hpp</text>
</a>
</g>
</g>
<!-- Node2&#45;&gt;Node3 -->
<g id="edge2_Node000002_Node000003" class="edge">
<title>Node2&#45;&gt;Node3</title>
<g id="a_edge2_Node000002_Node000003"><a xlink:title=" ">
<path fill="none" stroke="#63b8ff" stroke-width="2" d="M306.23,-183.31C258.29,-173.88 191.46,-160.72 140.53,-150.7"/>
<polygon fill="#63b8ff" stroke="#63b8ff" stroke-width="2" points="141.4,-147.3 130.92,-148.81 140.05,-154.17 141.4,-147.3"/>
</a>
</g>
</g>
<!-- Node5 -->
<g id="Node000005" class="node">
<title>Node5</title>
<g id="a_Node000005"><a xlink:href="../../d9/d03/point2d_8hpp.html" target="_top" xlink:title=" ">
<polygon fill="#fff0f0" stroke="red" points="211.88,-86.5 111.12,-86.5 111.12,-61.25 211.88,-61.25 211.88,-86.5"/>
<text text-anchor="middle" x="161.5" y="-69.2" font-family="Helvetica,sans-Serif" font-size="14.00">point2d.hpp</text>
</a>
</g>
</g>
<!-- Node2&#45;&gt;Node5 -->
<g id="edge7_Node000002_Node000005" class="edge">
<title>Node2&#45;&gt;Node5</title>
<g id="a_edge7_Node000002_Node000005"><a xlink:title=" ">
<path fill="none" stroke="#63b8ff" stroke-width="2" d="M288.17,-183.42C244.48,-175.28 196.03,-163.19 180.5,-147.75 167.81,-135.13 163.26,-115.17 161.77,-99.32"/>
<polygon fill="#63b8ff" stroke="#63b8ff" stroke-width="2" points="165.29,-99.58 161.28,-89.77 158.3,-99.94 165.29,-99.58"/>
</a>
</g>
</g>
<!-- Node2&#45;&gt;Node8 -->
<g id="edge5_Node000002_Node000008" class="edge">
<title>Node2&#45;&gt;Node8</title>
<g id="a_edge5_Node000002_Node000008"><a xlink:title=" ">
<path fill="none" stroke="#63b8ff" stroke-width="2" d="M412.49,-183.31C446.85,-174.1 494.43,-161.35 531.45,-151.42"/>
<polygon fill="#63b8ff" stroke="#63b8ff" stroke-width="2" points="531.9,-154.92 540.65,-148.95 530.08,-148.16 531.9,-154.92"/>
</a>
</g>
</g>
<!-- Node9 -->
<g id="Node000009" class="node">
<title>Node9</title>
<g id="a_Node000009"><a xlink:title=" ">
<polygon fill="#e0e0e0" stroke="#999999" points="395,-147.75 190,-147.75 190,-122.5 395,-122.5 395,-147.75"/>
<text text-anchor="middle" x="292.5" y="-130.45" font-family="Helvetica,sans-Serif" font-size="14.00">SFML/Graphics/Texture.hpp</text>
</a>
</g>
</g>
<!-- Node2&#45;&gt;Node9 -->
<g id="edge6_Node000002_Node000009" class="edge">
<title>Node2&#45;&gt;Node9</title>
<g id="a_edge6_Node000002_Node000009"><a xlink:title=" ">
<path fill="none" stroke="#63b8ff" stroke-width="2" d="M352.32,-183.38C342.36,-175.51 329.09,-165.03 317.58,-155.94"/>
<polygon fill="#63b8ff" stroke="#63b8ff" stroke-width="2" points="320.05,-153.43 310.03,-149.97 315.71,-158.92 320.05,-153.43"/>
</a>
</g>
</g>
<!-- Node10 -->
<g id="Node000010" class="node">
<title>Node10</title>
<g id="a_Node000010"><a xlink:title=" ">
<polygon fill="#e0e0e0" stroke="#999999" points="472.25,-147.75 412.75,-147.75 412.75,-122.5 472.25,-122.5 472.25,-147.75"/>
<text text-anchor="middle" x="442.5" y="-130.45" font-family="Helvetica,sans-Serif" font-size="14.00">vector</text>
</a>
</g>
</g>
<!-- Node2&#45;&gt;Node10 -->
<g id="edge8_Node000002_Node000010" class="edge">
<title>Node2&#45;&gt;Node10</title>
<g id="a_edge8_Node000002_Node000010"><a xlink:title=" ">
<path fill="none" stroke="#63b8ff" stroke-width="2" d="M382.68,-183.38C392.64,-175.51 405.91,-165.03 417.42,-155.94"/>
<polygon fill="#63b8ff" stroke="#63b8ff" stroke-width="2" points="419.29,-158.92 424.97,-149.97 414.95,-153.43 419.29,-158.92"/>
</a>
</g>
</g>
<!-- Node3&#45;&gt;Node5 -->
<g id="edge3_Node000003_Node000005" class="edge">
<title>Node3&#45;&gt;Node5</title>
<g id="a_edge3_Node000003_Node000005"><a xlink:title=" ">
<path fill="none" stroke="#63b8ff" stroke-width="2" d="M85.72,-122.13C98.86,-113.94 116.53,-102.92 131.5,-93.59"/>
<polygon fill="#63b8ff" stroke="#63b8ff" stroke-width="2" points="133.1,-96.71 139.74,-88.45 129.4,-90.77 133.1,-96.71"/>
</a>
</g>
</g>
<!-- Node7 -->
<g id="Node000007" class="node">
<title>Node7</title>
<g id="a_Node000007"><a xlink:title=" ">
<polygon fill="#e0e0e0" stroke="#999999" points="248.62,-25.25 176.38,-25.25 176.38,0 248.62,0 248.62,-25.25"/>
<text text-anchor="middle" x="212.5" y="-7.95" font-family="Helvetica,sans-Serif" font-size="14.00">ostream</text>
</a>
</g>
</g>
<!-- Node5&#45;&gt;Node7 -->
<g id="edge4_Node000005_Node000007" class="edge">
<title>Node5&#45;&gt;Node7</title>
<g id="a_edge4_Node000005_Node000007"><a xlink:title=" ">
<path fill="none" stroke="#63b8ff" stroke-width="2" d="M171.82,-60.88C178.11,-53.58 186.34,-44.02 193.75,-35.41"/>
<polygon fill="#63b8ff" stroke="#63b8ff" stroke-width="2" points="196.35,-37.75 200.22,-27.89 191.04,-33.19 196.35,-37.75"/>
</a>
</g>
</g>
<!-- Node11&#45;&gt;Node7 -->
<g id="edge11_Node000011_Node000007" class="edge">
<title>Node11&#45;&gt;Node7</title>
<g id="a_edge11_Node000011_Node000007"><a xlink:title=" ">
<path fill="none" stroke="#63b8ff" stroke-width="2" d="M454.98,-65.49C406.24,-55.07 317.02,-35.98 261.45,-24.1"/>
<polygon fill="#63b8ff" stroke="#63b8ff" stroke-width="2" points="262.25,-20.69 251.74,-22.02 260.79,-27.53 262.25,-20.69"/>
</a>
</g>
</g>
</g>
</svg>
