<?xml version="1.0" encoding="UTF-8" standalone="no"?>
<!DOCTYPE svg PUBLIC "-//W3C//DTD SVG 1.1//EN"
 "http://www.w3.org/Graphics/SVG/1.1/DTD/svg11.dtd">
<!-- Generated by graphviz version 9.0.0 (0)
 -->
<!-- Title: player.cpp Pages: 1 -->
<svg width="2085pt" height="278pt"
 viewBox="0.00 0.00 2085.33 278.25" xmlns="http://www.w3.org/2000/svg" xmlns:xlink="http://www.w3.org/1999/xlink">
<g id="graph0" class="graph" transform="scale(1 1) rotate(0) translate(4 274.25)">
<title>player.cpp</title>
<!-- Node1 -->
<g id="Node000001" class="node">
<title>Node1</title>
<g id="a_Node000001"><a xlink:title=" ">
<polygon fill="#999999" stroke="#666666" points="721.08,-270.25 633.08,-270.25 633.08,-245 721.08,-245 721.08,-270.25"/>
<text text-anchor="middle" x="677.08" y="-252.95" font-family="Helvetica,sans-Serif" font-size="14.00">player.cpp</text>
</a>
</g>
</g>
<!-- Node2 -->
<g id="Node000002" class="node">
<title>Node2</title>
<g id="a_Node000002"><a xlink:href="../../d9/d85/player_8hpp.html" target="_top" xlink:title=" ">
<polygon fill="white" stroke="#666666" points="490.83,-209 401.33,-209 401.33,-183.75 490.83,-183.75 490.83,-209"/>
<text text-anchor="middle" x="446.08" y="-191.7" font-family="Helvetica,sans-Serif" font-size="14.00">player.hpp</text>
</a>
</g>
</g>
<!-- Node1&#45;&gt;Node2 -->
<g id="edge1_Node000001_Node000002" class="edge">
<title>Node1&#45;&gt;Node2</title>
<g id="a_edge1_Node000001_Node000002"><a xlink:title=" ">
<path fill="none" stroke="#63b8ff" stroke-width="2" d="M632.81,-245.27C596.05,-235.84 543.49,-222.36 503.49,-212.1"/>
<polygon fill="#63b8ff" stroke="#63b8ff" stroke-width="2" points="504.47,-208.74 493.91,-209.64 502.73,-215.52 504.47,-208.74"/>
</a>
</g>
</g>
<!-- Node3 -->
<g id="Node000003" class="node">
<title>Node3</title>
<g id="a_Node000003"><a xlink:href="../../d4/db5/GameObject_8hpp.html" target="_top" xlink:title=" ">
<polygon fill="white" stroke="#666666" points="681.58,-86.5 548.58,-86.5 548.58,-61.25 681.58,-61.25 681.58,-86.5"/>
<text text-anchor="middle" x="615.08" y="-69.2" font-family="Helvetica,sans-Serif" font-size="14.00">GameObject.hpp</text>
</a>
</g>
</g>
<!-- Node1&#45;&gt;Node3 -->
<g id="edge16_Node000001_Node000003" class="edge">
<title>Node1&#45;&gt;Node3</title>
<g id="a_edge16_Node000001_Node000003"><a xlink:title=" ">
<path fill="none" stroke="#63b8ff" stroke-width="2" d="M687.34,-244.61C707.04,-220.01 746.04,-162.79 720.08,-122.5 711.22,-108.76 697.33,-98.94 682.52,-91.94"/>
<polygon fill="#63b8ff" stroke="#63b8ff" stroke-width="2" points="683.89,-88.71 673.31,-88.07 681.18,-95.17 683.89,-88.71"/>
</a>
</g>
</g>
<!-- Node5 -->
<g id="Node000005" class="node">
<title>Node5</title>
<g id="a_Node000005"><a xlink:href="../../d9/d03/point2d_8hpp.html" target="_top" xlink:title=" ">
<polygon fill="#fff0f0" stroke="red" points="558.45,-25.25 457.7,-25.25 457.7,0 558.45,0 558.45,-25.25"/>
<text text-anchor="middle" x="508.08" y="-7.95" font-family="Helvetica,sans-Serif" font-size="14.00">point2d.hpp</text>
</a>
</g>
</g>
<!-- Node1&#45;&gt;Node5 -->
<g id="edge31_Node000001_Node000005" class="edge">
<title>Node1&#45;&gt;Node5</title>
<g id="a_edge31_Node000001_Node000005"><a xlink:title=" ">
<path fill="none" stroke="#63b8ff" stroke-width="2" d="M633.01,-257.08C510.18,-257.73 166.38,-255.27 65.08,-209 29.84,-192.91 18.01,-183.49 3.08,-147.75 -5.72,-126.7 6.6,-67.31 13.08,-61.25 43.97,-32.33 317.89,-19.77 444.46,-15.48"/>
<polygon fill="#63b8ff" stroke="#63b8ff" stroke-width="2" points="444.42,-18.98 454.3,-15.15 444.19,-11.99 444.42,-18.98"/>
</a>
</g>
</g>
<!-- Node9 -->
<g id="Node000009" class="node">
<title>Node9</title>
<g id="a_Node000009"><a xlink:title=" ">
<polygon fill="#e0e0e0" stroke="#999999" points="241.08,-86.5 45.08,-86.5 45.08,-61.25 241.08,-61.25 241.08,-86.5"/>
<text text-anchor="middle" x="143.08" y="-69.2" font-family="Helvetica,sans-Serif" font-size="14.00">SFML/Graphics/Sprite.hpp</text>
</a>
</g>
</g>
<!-- Node1&#45;&gt;Node9 -->
<g id="edge17_Node000001_Node000009" class="edge">
<title>Node1&#45;&gt;Node9</title>
<g id="a_edge17_Node000001_Node000009"><a xlink:title=" ">
<path fill="none" stroke="#63b8ff" stroke-width="2" d="M632.84,-256.49C497.1,-255.05 90.82,-242.74 10.08,-147.75 -12.84,-120.78 24.97,-102.05 66.06,-90.33"/>
<polygon fill="#63b8ff" stroke="#63b8ff" stroke-width="2" points="66.88,-93.73 75.64,-87.77 65.07,-86.97 66.88,-93.73"/>
</a>
</g>
</g>
<!-- Node13 -->
<g id="Node000013" class="node">
<title>Node13</title>
<g id="a_Node000013"><a xlink:href="../../d4/d3d/log_8hpp.html" target="_top" xlink:title=" ">
<polygon fill="#fff0f0" stroke="red" points="711.33,-147.75 642.83,-147.75 642.83,-122.5 711.33,-122.5 711.33,-147.75"/>
<text text-anchor="middle" x="677.08" y="-130.45" font-family="Helvetica,sans-Serif" font-size="14.00">log.hpp</text>
</a>
</g>
</g>
<!-- Node1&#45;&gt;Node13 -->
<g id="edge30_Node000001_Node000013" class="edge">
<title>Node1&#45;&gt;Node13</title>
<g id="a_edge30_Node000001_Node000013"><a xlink:title=" ">
<path fill="none" stroke="#63b8ff" stroke-width="2" d="M677.08,-244.63C677.08,-225.23 677.08,-186.57 677.08,-161.03"/>
<polygon fill="#63b8ff" stroke="#63b8ff" stroke-width="2" points="680.58,-161.1 677.08,-151.1 673.58,-161.1 680.58,-161.1"/>
</a>
</g>
</g>
<!-- Node17 -->
<g id="Node000017" class="node">
<title>Node17</title>
<g id="a_Node000017"><a xlink:href="../../de/d46/engine_8hpp.html" target="_top" xlink:title=" ">
<polygon fill="white" stroke="#666666" points="1157.45,-209 1062.7,-209 1062.7,-183.75 1157.45,-183.75 1157.45,-209"/>
<text text-anchor="middle" x="1110.08" y="-191.7" font-family="Helvetica,sans-Serif" font-size="14.00">engine.hpp</text>
</a>
</g>
</g>
<!-- Node1&#45;&gt;Node17 -->
<g id="edge18_Node000001_Node000017" class="edge">
<title>Node1&#45;&gt;Node17</title>
<g id="a_edge18_Node000001_Node000017"><a xlink:title=" ">
<path fill="none" stroke="#63b8ff" stroke-width="2" d="M721.38,-250.56C799.37,-239.89 961.24,-217.74 1049.5,-205.66"/>
<polygon fill="#63b8ff" stroke="#63b8ff" stroke-width="2" points="1049.79,-209.16 1059.23,-204.33 1048.84,-202.22 1049.79,-209.16"/>
</a>
</g>
</g>
<!-- Node24 -->
<g id="Node000024" class="node">
<title>Node24</title>
<g id="a_Node000024"><a xlink:title=" ">
<polygon fill="#e0e0e0" stroke="#999999" points="1318.83,-209 1175.33,-209 1175.33,-183.75 1318.83,-183.75 1318.83,-209"/>
<text text-anchor="middle" x="1247.08" y="-191.7" font-family="Helvetica,sans-Serif" font-size="14.00">bits/ranges_algo.h</text>
</a>
</g>
</g>
<!-- Node1&#45;&gt;Node24 -->
<g id="edge32_Node000001_Node000024" class="edge">
<title>Node1&#45;&gt;Node24</title>
<g id="a_edge32_Node000001_Node000024"><a xlink:title=" ">
<path fill="none" stroke="#63b8ff" stroke-width="2" d="M721.32,-252.99C805.1,-245.97 992.95,-229.53 1162.42,-209.4"/>
<polygon fill="#63b8ff" stroke="#63b8ff" stroke-width="2" points="1162.59,-212.9 1172.11,-208.24 1161.76,-205.95 1162.59,-212.9"/>
</a>
</g>
</g>
<!-- Node2&#45;&gt;Node3 -->
<g id="edge2_Node000002_Node000003" class="edge">
<title>Node2&#45;&gt;Node3</title>
<g id="a_edge2_Node000002_Node000003"><a xlink:title=" ">
<path fill="none" stroke="#63b8ff" stroke-width="2" d="M491.19,-192.44C524.61,-187.87 568.9,-176.39 596.08,-147.75 608.21,-134.97 612.83,-115.45 614.49,-99.83"/>
<polygon fill="#63b8ff" stroke="#63b8ff" stroke-width="2" points="617.98,-100.11 615.12,-89.91 610.99,-99.67 617.98,-100.11"/>
</a>
</g>
</g>
<!-- Node2&#45;&gt;Node5 -->
<g id="edge12_Node000002_Node000005" class="edge">
<title>Node2&#45;&gt;Node5</title>
<g id="a_edge12_Node000002_Node000005"><a xlink:title=" ">
<path fill="none" stroke="#63b8ff" stroke-width="2" d="M401.07,-193.8C294.92,-189.61 35.88,-176.52 10.08,-147.75 2.59,-139.39 7.84,-133.5 10.08,-122.5 15.97,-93.52 12.27,-78.79 36.08,-61.25 68.31,-37.51 323.81,-22.36 444.87,-16.45"/>
<polygon fill="#63b8ff" stroke="#63b8ff" stroke-width="2" points="444.71,-19.96 454.53,-15.98 444.37,-12.97 444.71,-19.96"/>
</a>
</g>
</g>
<!-- Node8 -->
<g id="Node000008" class="node">
<title>Node8</title>
<g id="a_Node000008"><a xlink:title=" ">
<polygon fill="#e0e0e0" stroke="#999999" points="965.2,-147.75 766.95,-147.75 766.95,-122.5 965.2,-122.5 965.2,-147.75"/>
<text text-anchor="middle" x="866.08" y="-130.45" font-family="Helvetica,sans-Serif" font-size="14.00">SFML/Graphics/Shape.hpp</text>
</a>
</g>
</g>
<!-- Node2&#45;&gt;Node8 -->
<g id="edge5_Node000002_Node000008" class="edge">
<title>Node2&#45;&gt;Node8</title>
<g id="a_edge5_Node000002_Node000008"><a xlink:title=" ">
<path fill="none" stroke="#63b8ff" stroke-width="2" d="M491.02,-189.03C556.61,-179.78 680.22,-162.34 767.58,-150.02"/>
<polygon fill="#63b8ff" stroke="#63b8ff" stroke-width="2" points="768.05,-153.49 777.46,-148.63 767.07,-146.56 768.05,-153.49"/>
</a>
</g>
</g>
<!-- Node2&#45;&gt;Node9 -->
<g id="edge6_Node000002_Node000009" class="edge">
<title>Node2&#45;&gt;Node9</title>
<g id="a_edge6_Node000002_Node000009"><a xlink:title=" ">
<path fill="none" stroke="#63b8ff" stroke-width="2" d="M401.11,-193.65C330.04,-189.99 196.29,-179.05 162.08,-147.75 148.87,-135.67 144.36,-115.67 143.01,-99.67"/>
<polygon fill="#63b8ff" stroke="#63b8ff" stroke-width="2" points="146.52,-99.83 142.63,-89.97 139.53,-100.1 146.52,-99.83"/>
</a>
</g>
</g>
<!-- Node10 -->
<g id="Node000010" class="node">
<title>Node10</title>
<g id="a_Node000010"><a xlink:href="../../dc/d3e/animatedObject_8hpp.html" target="_top" xlink:title=" ">
<polygon fill="#fff0f0" stroke="red" points="586.95,-147.75 429.2,-147.75 429.2,-122.5 586.95,-122.5 586.95,-147.75"/>
<text text-anchor="middle" x="508.08" y="-130.45" font-family="Helvetica,sans-Serif" font-size="14.00">animatedObject.hpp</text>
</a>
</g>
</g>
<!-- Node2&#45;&gt;Node10 -->
<g id="edge7_Node000002_Node000010" class="edge">
<title>Node2&#45;&gt;Node10</title>
<g id="a_edge7_Node000002_Node000010"><a xlink:title=" ">
<path fill="none" stroke="#63b8ff" stroke-width="2" d="M458.62,-183.38C466.52,-175.84 476.94,-165.88 486.17,-157.06"/>
<polygon fill="#63b8ff" stroke="#63b8ff" stroke-width="2" points="488.55,-159.63 493.36,-150.19 483.71,-154.57 488.55,-159.63"/>
</a>
</g>
</g>
<!-- Node2&#45;&gt;Node13 -->
<g id="edge11_Node000002_Node000013" class="edge">
<title>Node2&#45;&gt;Node13</title>
<g id="a_edge11_Node000002_Node000013"><a xlink:title=" ">
<path fill="none" stroke="#63b8ff" stroke-width="2" d="M491.17,-183.81C531.21,-173.54 589.52,-158.58 630.12,-148.17"/>
<polygon fill="#63b8ff" stroke="#63b8ff" stroke-width="2" points="630.88,-151.59 639.7,-145.71 629.14,-144.81 630.88,-151.59"/>
</a>
</g>
</g>
<!-- Node14 -->
<g id="Node000014" class="node">
<title>Node14</title>
<g id="a_Node000014"><a xlink:href="../../dd/d85/updateableObject_8hpp.html" target="_top" xlink:title=" ">
<polygon fill="white" stroke="#666666" points="341.33,-147.75 170.83,-147.75 170.83,-122.5 341.33,-122.5 341.33,-147.75"/>
<text text-anchor="middle" x="256.08" y="-130.45" font-family="Helvetica,sans-Serif" font-size="14.00">updateableObject.hpp</text>
</a>
</g>
</g>
<!-- Node2&#45;&gt;Node14 -->
<g id="edge13_Node000002_Node000014" class="edge">
<title>Node2&#45;&gt;Node14</title>
<g id="a_edge13_Node000002_Node000014"><a xlink:title=" ">
<path fill="none" stroke="#63b8ff" stroke-width="2" d="M407.63,-183.38C378.62,-174.34 338.56,-161.85 306.91,-151.98"/>
<polygon fill="#63b8ff" stroke="#63b8ff" stroke-width="2" points="308.27,-148.74 297.69,-149.1 306.19,-155.42 308.27,-148.74"/>
</a>
</g>
</g>
<!-- Node15 -->
<g id="Node000015" class="node">
<title>Node15</title>
<g id="a_Node000015"><a xlink:title=" ">
<polygon fill="#e0e0e0" stroke="#999999" points="411.08,-147.75 359.08,-147.75 359.08,-122.5 411.08,-122.5 411.08,-147.75"/>
<text text-anchor="middle" x="385.08" y="-130.45" font-family="Helvetica,sans-Serif" font-size="14.00">array</text>
</a>
</g>
</g>
<!-- Node2&#45;&gt;Node15 -->
<g id="edge14_Node000002_Node000015" class="edge">
<title>Node2&#45;&gt;Node15</title>
<g id="a_edge14_Node000002_Node000015"><a xlink:title=" ">
<path fill="none" stroke="#63b8ff" stroke-width="2" d="M433.73,-183.38C425.96,-175.84 415.72,-165.88 406.63,-157.06"/>
<polygon fill="#63b8ff" stroke="#63b8ff" stroke-width="2" points="409.19,-154.66 399.57,-150.21 404.31,-159.68 409.19,-154.66"/>
</a>
</g>
</g>
<!-- Node16 -->
<g id="Node000016" class="node">
<title>Node16</title>
<g id="a_Node000016"><a xlink:title=" ">
<polygon fill="#e0e0e0" stroke="#999999" points="114.83,-147.75 19.33,-147.75 19.33,-122.5 114.83,-122.5 114.83,-147.75"/>
<text text-anchor="middle" x="67.08" y="-130.45" font-family="Helvetica,sans-Serif" font-size="14.00">sys/types.h</text>
</a>
</g>
</g>
<!-- Node2&#45;&gt;Node16 -->
<g id="edge15_Node000002_Node000016" class="edge">
<title>Node2&#45;&gt;Node16</title>
<g id="a_edge15_Node000002_Node000016"><a xlink:title=" ">
<path fill="none" stroke="#63b8ff" stroke-width="2" d="M400.85,-189.11C339.27,-180.45 225.66,-164.05 129.08,-147.75 128.65,-147.68 128.23,-147.61 127.8,-147.53"/>
<polygon fill="#63b8ff" stroke="#63b8ff" stroke-width="2" points="128.55,-144.11 118.09,-145.83 127.34,-151.01 128.55,-144.11"/>
</a>
</g>
</g>
<!-- Node4 -->
<g id="Node000004" class="node">
<title>Node4</title>
<g id="a_Node000004"><a xlink:title=" ">
<polygon fill="#e0e0e0" stroke="#999999" points="1248.08,-25.25 1028.08,-25.25 1028.08,0 1248.08,0 1248.08,-25.25"/>
<text text-anchor="middle" x="1138.08" y="-7.95" font-family="Helvetica,sans-Serif" font-size="14.00">SFML/Graphics/Drawable.hpp</text>
</a>
</g>
</g>
<!-- Node3&#45;&gt;Node4 -->
<g id="edge3_Node000003_Node000004" class="edge">
<title>Node3&#45;&gt;Node4</title>
<g id="a_edge3_Node000003_Node000004"><a xlink:title=" ">
<path fill="none" stroke="#63b8ff" stroke-width="2" d="M681.85,-65.31C766.57,-55.71 914.22,-38.99 1018.57,-27.16"/>
<polygon fill="#63b8ff" stroke="#63b8ff" stroke-width="2" points="1018.84,-30.66 1028.38,-26.05 1018.05,-23.7 1018.84,-30.66"/>
</a>
</g>
</g>
<!-- Node3&#45;&gt;Node5 -->
<g id="edge4_Node000003_Node000005" class="edge">
<title>Node3&#45;&gt;Node5</title>
<g id="a_edge4_Node000003_Node000005"><a xlink:title=" ">
<path fill="none" stroke="#63b8ff" stroke-width="2" d="M593.42,-60.88C578.34,-52.53 557.95,-41.24 540.88,-31.79"/>
<polygon fill="#63b8ff" stroke="#63b8ff" stroke-width="2" points="542.79,-28.85 532.35,-27.06 539.4,-34.97 542.79,-28.85"/>
</a>
</g>
</g>
<!-- Node10&#45;&gt;Node3 -->
<g id="edge8_Node000010_Node000003" class="edge">
<title>Node10&#45;&gt;Node3</title>
<g id="a_edge8_Node000010_Node000003"><a xlink:title=" ">
<path fill="none" stroke="#63b8ff" stroke-width="2" d="M529.73,-122.13C544.81,-113.78 565.21,-102.49 582.28,-93.04"/>
<polygon fill="#63b8ff" stroke="#63b8ff" stroke-width="2" points="583.76,-96.22 590.81,-88.31 580.36,-90.1 583.76,-96.22"/>
</a>
</g>
</g>
<!-- Node10&#45;&gt;Node5 -->
<g id="edge10_Node000010_Node000005" class="edge">
<title>Node10&#45;&gt;Node5</title>
<g id="a_edge10_Node000010_Node000005"><a xlink:title=" ">
<path fill="none" stroke="#63b8ff" stroke-width="2" d="M508.08,-122.13C508.08,-102.73 508.08,-64.07 508.08,-38.53"/>
<polygon fill="#63b8ff" stroke="#63b8ff" stroke-width="2" points="511.58,-38.6 508.08,-28.6 504.58,-38.6 511.58,-38.6"/>
</a>
</g>
</g>
<!-- Node10&#45;&gt;Node9 -->
<g id="edge9_Node000010_Node000009" class="edge">
<title>Node10&#45;&gt;Node9</title>
<g id="a_edge9_Node000010_Node000009"><a xlink:title=" ">
<path fill="none" stroke="#63b8ff" stroke-width="2" d="M433.77,-122.06C374.79,-112.49 292.19,-99.08 230.11,-89"/>
<polygon fill="#63b8ff" stroke="#63b8ff" stroke-width="2" points="231.01,-85.6 220.58,-87.46 229.89,-92.51 231.01,-85.6"/>
</a>
</g>
</g>
<!-- Node17&#45;&gt;Node4 -->
<g id="edge27_Node000017_Node000004" class="edge">
<title>Node17&#45;&gt;Node4</title>
<g id="a_edge27_Node000017_Node000004"><a xlink:title=" ">
<path fill="none" stroke="#63b8ff" stroke-width="2" d="M1157.67,-185.1C1160.51,-184.61 1163.33,-184.16 1166.08,-183.75 1210.88,-177.14 1541.5,-181.16 1572.08,-147.75 1666.75,-44.31 1420.54,-19.86 1261.3,-14.57"/>
<polygon fill="#63b8ff" stroke="#63b8ff" stroke-width="2" points="1261.69,-11.08 1251.59,-14.27 1261.48,-18.08 1261.69,-11.08"/>
</a>
</g>
</g>
<!-- Node17&#45;&gt;Node5 -->
<g id="edge26_Node000017_Node000005" class="edge">
<title>Node17&#45;&gt;Node5</title>
<g id="a_edge26_Node000017_Node000005"><a xlink:title=" ">
<path fill="none" stroke="#63b8ff" stroke-width="2" d="M1082.96,-183.39C1063,-174.28 1035.4,-161.08 1012.08,-147.75 994.47,-137.68 992.69,-130.55 974.08,-122.5 837.29,-63.37 663.41,-33.65 571.57,-21.16"/>
<polygon fill="#63b8ff" stroke="#63b8ff" stroke-width="2" points="572.28,-17.72 561.9,-19.87 571.35,-24.66 572.28,-17.72"/>
</a>
</g>
</g>
<!-- Node17&#45;&gt;Node8 -->
<g id="edge20_Node000017_Node000008" class="edge">
<title>Node17&#45;&gt;Node8</title>
<g id="a_edge20_Node000017_Node000008"><a xlink:title=" ">
<path fill="none" stroke="#63b8ff" stroke-width="2" d="M1062.45,-183.81C1024.12,-174.5 969.94,-161.35 928.2,-151.21"/>
<polygon fill="#63b8ff" stroke="#63b8ff" stroke-width="2" points="929.16,-147.84 918.62,-148.88 927.51,-154.64 929.16,-147.84"/>
</a>
</g>
</g>
<!-- Node17&#45;&gt;Node10 -->
<g id="edge24_Node000017_Node000010" class="edge">
<title>Node17&#45;&gt;Node10</title>
<g id="a_edge24_Node000017_Node000010"><a xlink:title=" ">
<path fill="none" stroke="#63b8ff" stroke-width="2" d="M1062.34,-190.68C962.42,-180.84 729.8,-157.95 599.92,-145.16"/>
<polygon fill="#63b8ff" stroke="#63b8ff" stroke-width="2" points="600.61,-141.72 590.31,-144.22 599.92,-148.68 600.61,-141.72"/>
</a>
</g>
</g>
<!-- Node17&#45;&gt;Node13 -->
<g id="edge25_Node000017_Node000013" class="edge">
<title>Node17&#45;&gt;Node13</title>
<g id="a_edge25_Node000017_Node000013"><a xlink:title=" ">
<path fill="none" stroke="#63b8ff" stroke-width="2" d="M1062.24,-189.03C994.51,-180.01 866.8,-162.91 758.08,-147.75 747.16,-146.23 735.41,-144.56 724.34,-142.97"/>
<polygon fill="#63b8ff" stroke="#63b8ff" stroke-width="2" points="725.15,-139.55 714.75,-141.6 724.15,-146.48 725.15,-139.55"/>
</a>
</g>
</g>
<!-- Node18 -->
<g id="Node000018" class="node">
<title>Node18</title>
<g id="a_Node000018"><a xlink:title=" ">
<polygon fill="#e0e0e0" stroke="#999999" points="1877.2,-147.75 1618.95,-147.75 1618.95,-122.5 1877.2,-122.5 1877.2,-147.75"/>
<text text-anchor="middle" x="1748.08" y="-130.45" font-family="Helvetica,sans-Serif" font-size="14.00">SFML/Graphics/RenderWindow.hpp</text>
</a>
</g>
</g>
<!-- Node17&#45;&gt;Node18 -->
<g id="edge19_Node000017_Node000018" class="edge">
<title>Node17&#45;&gt;Node18</title>
<g id="a_edge19_Node000017_Node000018"><a xlink:title=" ">
<path fill="none" stroke="#63b8ff" stroke-width="2" d="M1157.67,-185.08C1160.51,-184.6 1163.33,-184.15 1166.08,-183.75 1168.79,-183.36 1434.24,-161.7 1605.67,-147.73"/>
<polygon fill="#63b8ff" stroke="#63b8ff" stroke-width="2" points="1605.91,-151.22 1615.59,-146.92 1605.34,-144.24 1605.91,-151.22"/>
</a>
</g>
</g>
<!-- Node19 -->
<g id="Node000019" class="node">
<title>Node19</title>
<g id="a_Node000019"><a xlink:title=" ">
<polygon fill="#e0e0e0" stroke="#999999" points="2077.33,-147.75 1894.83,-147.75 1894.83,-122.5 2077.33,-122.5 2077.33,-147.75"/>
<text text-anchor="middle" x="1986.08" y="-130.45" font-family="Helvetica,sans-Serif" font-size="14.00">SFML/System/Clock.hpp</text>
</a>
</g>
</g>
<!-- Node17&#45;&gt;Node19 -->
<g id="edge21_Node000017_Node000019" class="edge">
<title>Node17&#45;&gt;Node19</title>
<g id="a_edge21_Node000017_Node000019"><a xlink:title=" ">
<path fill="none" stroke="#63b8ff" stroke-width="2" d="M1157.65,-184.98C1160.5,-184.52 1163.32,-184.1 1166.08,-183.75 1479.69,-143.6 1564.55,-173.45 1881.71,-148.06"/>
<polygon fill="#63b8ff" stroke="#63b8ff" stroke-width="2" points="1881.85,-151.56 1891.53,-147.26 1881.28,-144.58 1881.85,-151.56"/>
</a>
</g>
</g>
<!-- Node20 -->
<g id="Node000020" class="node">
<title>Node20</title>
<g id="a_Node000020"><a xlink:title=" ">
<polygon fill="#e0e0e0" stroke="#999999" points="1199.45,-147.75 1020.7,-147.75 1020.7,-122.5 1199.45,-122.5 1199.45,-147.75"/>
<text text-anchor="middle" x="1110.08" y="-130.45" font-family="Helvetica,sans-Serif" font-size="14.00">SFML/System/Time.hpp</text>
</a>
</g>
</g>
<!-- Node17&#45;&gt;Node20 -->
<g id="edge22_Node000017_Node000020" class="edge">
<title>Node17&#45;&gt;Node20</title>
<g id="a_edge22_Node000017_Node000020"><a xlink:title=" ">
<path fill="none" stroke="#63b8ff" stroke-width="2" d="M1110.08,-183.38C1110.08,-176.96 1110.08,-168.8 1110.08,-161.07"/>
<polygon fill="#63b8ff" stroke="#63b8ff" stroke-width="2" points="1113.58,-161.12 1110.08,-151.12 1106.58,-161.12 1113.58,-161.12"/>
</a>
</g>
</g>
<!-- Node21 -->
<g id="Node000021" class="node">
<title>Node21</title>
<g id="a_Node000021"><a xlink:title=" ">
<polygon fill="#e0e0e0" stroke="#999999" points="1404.95,-147.75 1217.2,-147.75 1217.2,-122.5 1404.95,-122.5 1404.95,-147.75"/>
<text text-anchor="middle" x="1311.08" y="-130.45" font-family="Helvetica,sans-Serif" font-size="14.00">SFML/Window/Event.hpp</text>
</a>
</g>
</g>
<!-- Node17&#45;&gt;Node21 -->
<g id="edge23_Node000017_Node000021" class="edge">
<title>Node17&#45;&gt;Node21</title>
<g id="a_edge23_Node000017_Node000021"><a xlink:title=" ">
<path fill="none" stroke="#63b8ff" stroke-width="2" d="M1150.75,-183.38C1181.57,-174.3 1224.2,-161.74 1257.75,-151.85"/>
<polygon fill="#63b8ff" stroke="#63b8ff" stroke-width="2" points="1258.61,-155.24 1267.21,-149.05 1256.63,-148.53 1258.61,-155.24"/>
</a>
</g>
</g>
<!-- Node22 -->
<g id="Node000022" class="node">
<title>Node22</title>
<g id="a_Node000022"><a xlink:title=" ">
<polygon fill="#e0e0e0" stroke="#999999" points="1507.58,-147.75 1422.58,-147.75 1422.58,-122.5 1507.58,-122.5 1507.58,-147.75"/>
<text text-anchor="middle" x="1465.08" y="-130.45" font-family="Helvetica,sans-Serif" font-size="14.00">functional</text>
</a>
</g>
</g>
<!-- Node17&#45;&gt;Node22 -->
<g id="edge28_Node000017_Node000022" class="edge">
<title>Node17&#45;&gt;Node22</title>
<g id="a_edge28_Node000017_Node000022"><a xlink:title=" ">
<path fill="none" stroke="#63b8ff" stroke-width="2" d="M1157.7,-185.28C1160.53,-184.75 1163.34,-184.23 1166.08,-183.75 1271.69,-165.14 1302.33,-167.9 1409.53,-148.49"/>
<polygon fill="#63b8ff" stroke="#63b8ff" stroke-width="2" points="1410.1,-151.94 1419.3,-146.69 1408.83,-145.06 1410.1,-151.94"/>
</a>
</g>
</g>
<!-- Node23 -->
<g id="Node000023" class="node">
<title>Node23</title>
<g id="a_Node000023"><a xlink:title=" ">
<polygon fill="#e0e0e0" stroke="#999999" points="1562.58,-147.75 1525.58,-147.75 1525.58,-122.5 1562.58,-122.5 1562.58,-147.75"/>
<text text-anchor="middle" x="1544.08" y="-130.45" font-family="Helvetica,sans-Serif" font-size="14.00">set</text>
</a>
</g>
</g>
<!-- Node17&#45;&gt;Node23 -->
<g id="edge29_Node000017_Node000023" class="edge">
<title>Node17&#45;&gt;Node23</title>
<g id="a_edge29_Node000017_Node000023"><a xlink:title=" ">
<path fill="none" stroke="#63b8ff" stroke-width="2" d="M1157.68,-185.15C1160.51,-184.65 1163.33,-184.17 1166.08,-183.75 1316.97,-160.41 1362.9,-185.8 1512.75,-148.31"/>
<polygon fill="#63b8ff" stroke="#63b8ff" stroke-width="2" points="1513.41,-151.75 1522.22,-145.87 1511.67,-144.97 1513.41,-151.75"/>
</a>
</g>
</g>
</g>
</svg>
