<?xml version="1.0" encoding="UTF-8" standalone="no"?>
<!DOCTYPE svg PUBLIC "-//W3C//DTD SVG 1.1//EN"
 "http://www.w3.org/Graphics/SVG/1.1/DTD/svg11.dtd">
<!-- Generated by graphviz version 9.0.0 (0)
 -->
<!-- Title: AnimatedSpriteSheet::getCurrentAnimationFrameData Pages: 1 -->
<svg width="701pt" height="250pt"
 viewBox="0.00 0.00 701.00 249.50" xmlns="http://www.w3.org/2000/svg" xmlns:xlink="http://www.w3.org/1999/xlink">
<g id="graph0" class="graph" transform="scale(1 1) rotate(0) translate(4 245.5)">
<title>AnimatedSpriteSheet::getCurrentAnimationFrameData</title>
<!-- Node1 -->
<g id="Node000001" class="node">
<title>Node1</title>
<g id="a_Node000001"><a xlink:title=" ">
<polygon fill="#999999" stroke="#666666" points="693,-145.5 448.25,-145.5 448.25,-103 693,-103 693,-145.5"/>
<text text-anchor="start" x="456.25" y="-128.2" font-family="Helvetica,sans-Serif" font-size="14.00">AnimatedSpriteSheet</text>
<text text-anchor="middle" x="570.62" y="-110.95" font-family="Helvetica,sans-Serif" font-size="14.00">::getCurrentAnimationFrameData</text>
</a>
</g>
</g>
<!-- Node2 -->
<g id="Node000002" class="node">
<title>Node2</title>
<g id="a_Node000002"><a xlink:href="../../d4/dcd/classAnimatedSpriteSheet.html#a2c54d17eea6a3e391e58b90d577dec48" target="_top" xlink:title=" ">
<polygon fill="white" stroke="#666666" points="392.38,-241.5 219.62,-241.5 219.62,-199 392.38,-199 392.38,-241.5"/>
<text text-anchor="start" x="227.62" y="-224.2" font-family="Helvetica,sans-Serif" font-size="14.00">AnimatedSpriteSheet</text>
<text text-anchor="middle" x="306" y="-206.95" font-family="Helvetica,sans-Serif" font-size="14.00">::AnimatedSpriteSheet</text>
</a>
</g>
</g>
<!-- Node1&#45;&gt;Node2 -->
<g id="edge1_Node000001_Node000002" class="edge">
<title>Node1&#45;&gt;Node2</title>
<g id="a_edge1_Node000001_Node000002"><a xlink:title=" ">
<path fill="none" stroke="#63b8ff" stroke-width="2" d="M509.26,-150.93C480.21,-163.32 444.72,-177.8 412.25,-189.25 403.18,-192.45 393.59,-195.59 384.04,-198.58"/>
<polygon fill="#63b8ff" stroke="#63b8ff" stroke-width="2" points="510.29,-154.3 518.09,-147.14 507.52,-147.87 510.29,-154.3"/>
</a>
</g>
</g>
<!-- Node3 -->
<g id="Node000003" class="node">
<title>Node3</title>
<g id="a_Node000003"><a xlink:href="../../de/dde/classFidgetSpinner.html#a4bb5bab0c62c6cc9ba509d32d292ad04" target="_top" xlink:title=" ">
<polygon fill="white" stroke="#666666" points="400.62,-180.5 211.38,-180.5 211.38,-138 400.62,-138 400.62,-180.5"/>
<text text-anchor="start" x="219.38" y="-163.2" font-family="Helvetica,sans-Serif" font-size="14.00">FidgetSpinner::getCenter</text>
<text text-anchor="middle" x="306" y="-145.95" font-family="Helvetica,sans-Serif" font-size="14.00">Point</text>
</a>
</g>
</g>
<!-- Node1&#45;&gt;Node3 -->
<g id="edge2_Node000001_Node000003" class="edge">
<title>Node1&#45;&gt;Node3</title>
<g id="a_edge2_Node000001_Node000003"><a xlink:title=" ">
<path fill="none" stroke="#63b8ff" stroke-width="2" d="M435.28,-142.15C423.63,-143.71 412.01,-145.26 400.79,-146.75"/>
<polygon fill="#63b8ff" stroke="#63b8ff" stroke-width="2" points="435.47,-145.66 444.92,-140.87 434.55,-138.72 435.47,-145.66"/>
</a>
</g>
</g>
<!-- Node4 -->
<g id="Node000004" class="node">
<title>Node4</title>
<g id="a_Node000004"><a xlink:href="../../d4/dcd/classAnimatedSpriteSheet.html#acd27c156c318ea4cad90639d8d92d316" target="_top" xlink:title=" ">
<polygon fill="white" stroke="#666666" points="412.25,-120.12 199.75,-120.12 199.75,-60.38 412.25,-60.38 412.25,-120.12"/>
<text text-anchor="start" x="207.75" y="-102.83" font-family="Helvetica,sans-Serif" font-size="14.00">AnimatedSpriteSheet</text>
<text text-anchor="start" x="207.75" y="-85.58" font-family="Helvetica,sans-Serif" font-size="14.00">::getCurrentAnimationFrame</text>
<text text-anchor="middle" x="306" y="-68.33" font-family="Helvetica,sans-Serif" font-size="14.00">Duration</text>
</a>
</g>
</g>
<!-- Node1&#45;&gt;Node4 -->
<g id="edge3_Node000001_Node000004" class="edge">
<title>Node1&#45;&gt;Node4</title>
<g id="a_edge3_Node000001_Node000004"><a xlink:title=" ">
<path fill="none" stroke="#63b8ff" stroke-width="2" d="M435.17,-106.84C427.59,-105.86 420.02,-104.88 412.57,-103.92"/>
<polygon fill="#63b8ff" stroke="#63b8ff" stroke-width="2" points="434.55,-110.29 444.92,-108.11 435.45,-103.35 434.55,-110.29"/>
</a>
</g>
</g>
<!-- Node6 -->
<g id="Node000006" class="node">
<title>Node6</title>
<g id="a_Node000006"><a xlink:href="../../d4/dcd/classAnimatedSpriteSheet.html#a5d096d78c6d0246c1d39508bd4a13b7f" target="_top" xlink:title=" ">
<polygon fill="white" stroke="#666666" points="387.88,-42.5 224.12,-42.5 224.12,0 387.88,0 387.88,-42.5"/>
<text text-anchor="start" x="232.12" y="-25.2" font-family="Helvetica,sans-Serif" font-size="14.00">AnimatedSpriteSheet</text>
<text text-anchor="middle" x="306" y="-7.95" font-family="Helvetica,sans-Serif" font-size="14.00">::nextFrame</text>
</a>
</g>
</g>
<!-- Node1&#45;&gt;Node6 -->
<g id="edge5_Node000001_Node000006" class="edge">
<title>Node1&#45;&gt;Node6</title>
<g id="a_edge5_Node000001_Node000006"><a xlink:title=" ">
<path fill="none" stroke="#63b8ff" stroke-width="2" d="M516.15,-96.9C486.11,-82.19 447.64,-64.41 412.25,-51.25 404.5,-48.37 396.35,-45.6 388.15,-42.99"/>
<polygon fill="#63b8ff" stroke="#63b8ff" stroke-width="2" points="514.41,-99.95 524.93,-101.24 517.52,-93.67 514.41,-99.95"/>
</a>
</g>
</g>
<!-- Node5 -->
<g id="Node000005" class="node">
<title>Node5</title>
<g id="a_Node000005"><a xlink:href="../../d4/dcd/classAnimatedSpriteSheet.html#a9f0f6e23c33869b0caf4fdf68bddc9ba" target="_top" xlink:title="Animates object.">
<polygon fill="white" stroke="#666666" points="163.75,-76.5 0,-76.5 0,-34 163.75,-34 163.75,-76.5"/>
<text text-anchor="start" x="8" y="-59.2" font-family="Helvetica,sans-Serif" font-size="14.00">AnimatedSpriteSheet</text>
<text text-anchor="middle" x="81.88" y="-41.95" font-family="Helvetica,sans-Serif" font-size="14.00">::animate</text>
</a>
</g>
</g>
<!-- Node4&#45;&gt;Node5 -->
<g id="edge4_Node000004_Node000005" class="edge">
<title>Node4&#45;&gt;Node5</title>
<g id="a_edge4_Node000004_Node000005"><a xlink:title=" ">
<path fill="none" stroke="#63b8ff" stroke-width="2" d="M186.67,-71.6C179.07,-70.41 171.52,-69.22 164.16,-68.06"/>
<polygon fill="#63b8ff" stroke="#63b8ff" stroke-width="2" points="186.05,-75.05 196.48,-73.15 187.14,-68.14 186.05,-75.05"/>
</a>
</g>
</g>
<!-- Node6&#45;&gt;Node5 -->
<g id="edge6_Node000006_Node000005" class="edge">
<title>Node6&#45;&gt;Node5</title>
<g id="a_edge6_Node000006_Node000005"><a xlink:title=" ">
<path fill="none" stroke="#63b8ff" stroke-width="2" d="M211.4,-35.58C195.7,-37.98 179.52,-40.46 164.16,-42.81"/>
<polygon fill="#63b8ff" stroke="#63b8ff" stroke-width="2" points="211.52,-39.1 220.87,-34.13 210.46,-32.18 211.52,-39.1"/>
</a>
</g>
</g>
</g>
</svg>
