<?xml version="1.0" encoding="UTF-8" standalone="no"?>
<!DOCTYPE svg PUBLIC "-//W3C//DTD SVG 1.1//EN"
 "http://www.w3.org/Graphics/SVG/1.1/DTD/svg11.dtd">
<!-- Generated by graphviz version 9.0.0 (0)
 -->
<!-- Title: AnimatedSpriteSheet::getCurrentAnimationFrameCount Pages: 1 -->
<svg width="620pt" height="68pt"
 viewBox="0.00 0.00 620.00 67.75" xmlns="http://www.w3.org/2000/svg" xmlns:xlink="http://www.w3.org/1999/xlink">
<g id="graph0" class="graph" transform="scale(1 1) rotate(0) translate(4 63.75)">
<title>AnimatedSpriteSheet::getCurrentAnimationFrameCount</title>
<!-- Node1 -->
<g id="Node000001" class="node">
<title>Node1</title>
<g id="a_Node000001"><a xlink:title=" ">
<polygon fill="#999999" stroke="#666666" points="612,-59.75 399.5,-59.75 399.5,0 612,0 612,-59.75"/>
<text text-anchor="start" x="407.5" y="-42.45" font-family="Helvetica,sans-Serif" font-size="14.00">AnimatedSpriteSheet</text>
<text text-anchor="start" x="407.5" y="-25.2" font-family="Helvetica,sans-Serif" font-size="14.00">::getCurrentAnimationFrame</text>
<text text-anchor="middle" x="505.75" y="-7.95" font-family="Helvetica,sans-Serif" font-size="14.00">Count</text>
</a>
</g>
</g>
<!-- Node2 -->
<g id="Node000002" class="node">
<title>Node2</title>
<g id="a_Node000002"><a xlink:href="../../d4/dcd/classAnimatedSpriteSheet.html#a5d096d78c6d0246c1d39508bd4a13b7f" target="_top" xlink:title=" ">
<polygon fill="white" stroke="#666666" points="363.5,-51.12 199.75,-51.12 199.75,-8.62 363.5,-8.62 363.5,-51.12"/>
<text text-anchor="start" x="207.75" y="-33.83" font-family="Helvetica,sans-Serif" font-size="14.00">AnimatedSpriteSheet</text>
<text text-anchor="middle" x="281.62" y="-16.57" font-family="Helvetica,sans-Serif" font-size="14.00">::nextFrame</text>
</a>
</g>
</g>
<!-- Node1&#45;&gt;Node2 -->
<g id="edge1_Node000001_Node000002" class="edge">
<title>Node1&#45;&gt;Node2</title>
<g id="a_edge1_Node000001_Node000002"><a xlink:title=" ">
<path fill="none" stroke="#63b8ff" stroke-width="2" d="M386.42,-29.88C378.82,-29.88 371.27,-29.88 363.91,-29.88"/>
<polygon fill="#63b8ff" stroke="#63b8ff" stroke-width="2" points="386.19,-33.38 396.19,-29.88 386.19,-26.38 386.19,-33.38"/>
</a>
</g>
</g>
<!-- Node3 -->
<g id="Node000003" class="node">
<title>Node3</title>
<g id="a_Node000003"><a xlink:href="../../d4/dcd/classAnimatedSpriteSheet.html#a9f0f6e23c33869b0caf4fdf68bddc9ba" target="_top" xlink:title="Animates object.">
<polygon fill="white" stroke="#666666" points="163.75,-51.12 0,-51.12 0,-8.62 163.75,-8.62 163.75,-51.12"/>
<text text-anchor="start" x="8" y="-33.83" font-family="Helvetica,sans-Serif" font-size="14.00">AnimatedSpriteSheet</text>
<text text-anchor="middle" x="81.88" y="-16.57" font-family="Helvetica,sans-Serif" font-size="14.00">::animate</text>
</a>
</g>
</g>
<!-- Node2&#45;&gt;Node3 -->
<g id="edge2_Node000002_Node000003" class="edge">
<title>Node2&#45;&gt;Node3</title>
<g id="a_edge2_Node000002_Node000003"><a xlink:title=" ">
<path fill="none" stroke="#63b8ff" stroke-width="2" d="M186.44,-29.88C179,-29.88 171.52,-29.88 164.17,-29.88"/>
<polygon fill="#63b8ff" stroke="#63b8ff" stroke-width="2" points="186.31,-33.38 196.31,-29.88 186.31,-26.38 186.31,-33.38"/>
</a>
</g>
</g>
</g>
</svg>
