<?xml version="1.0" encoding="UTF-8" standalone="no"?>
<!DOCTYPE svg PUBLIC "-//W3C//DTD SVG 1.1//EN"
 "http://www.w3.org/Graphics/SVG/1.1/DTD/svg11.dtd">
<!-- Generated by graphviz version 9.0.0 (0)
 -->
<!-- Title: AnimatedSpriteSheet::AnimatedSpriteSheet Pages: 1 -->
<!--zoomable 189 -->

<svg id="main" version="1.1" xmlns="http://www.w3.org/2000/svg" xmlns:xlink="http://www.w3.org/1999/xlink" xml:space="preserve" onload="init(evt)">
<style type="text/css"><![CDATA[
.node, .edge {opacity: 0.7;}
.node.selected, .edge.selected {opacity: 1;}
.edge:hover path { stroke: red; }
.edge:hover polygon { stroke: red; fill: red; }
]]></style>

<defs>
  <circle id="rim" cx="0" cy="0" r="7"/>
  <circle id="rim2" cx="0" cy="0" r="3.5"/>
  <g id="zoomPlus">
    <use xlink:href="#rim" fill="#404040"><set attributeName="fill" to="#808080" begin="zoomplus.mouseover" end="zoomplus.mouseout"/></use>
    <path d="M-4,0h8M0,-4v8" fill="none" stroke="white" stroke-width="1.5" pointer-events="none"/>
  </g>
  <g id="zoomMin">
    <use xlink:href="#rim" fill="#404040"><set attributeName="fill" to="#808080" begin="zoomminus.mouseover" end="zoomminus.mouseout"/></use>
    <path d="M-4,0h8" fill="none" stroke="white" stroke-width="1.5" pointer-events="none"/>
  </g>
  <g id="arrowUp" transform="translate(30 24)">
    <use xlink:href="#rim"/>
    <path pointer-events="none" fill="none" stroke="white" stroke-width="1.5" d="M0,-3.0v7 M-2.5,-0.5L0,-3.0L2.5,-0.5"/>
  </g>
  <g id="arrowRight" transform="rotate(90) translate(36 -43)">
    <use xlink:href="#rim"/>
    <path pointer-events="none" fill="none" stroke="white" stroke-width="1.5" d="M0,-3.0v7 M-2.5,-0.5L0,-3.0L2.5,-0.5"/>
  </g>
  <g id="arrowDown" transform="rotate(180) translate(-30 -48)">
    <use xlink:href="#rim"/>
    <path pointer-events="none" fill="none" stroke="white" stroke-width="1.5" d="M0,-3.0v7 M-2.5,-0.5L0,-3.0L2.5,-0.5"/>
  </g>
  <g id="arrowLeft" transform="rotate(270) translate(-36 17)">
    <use xlink:href="#rim"/>
    <path pointer-events="none" fill="none" stroke="white" stroke-width="1.5" d="M0,-3.0v7 M-2.5,-0.5L0,-3.0L2.5,-0.5"/>
  </g>
  <g id="resetDef">
    <use xlink:href="#rim2" fill="#404040"><set attributeName="fill" to="#808080" begin="reset.mouseover" end="reset.mouseout"/></use>
  </g>
</defs>
<script type="application/ecmascript">
var viewWidth = 668;
var viewHeight = 189;
var sectionId = 'dynsection-2';
</script>
<script type="application/ecmascript" xlink:href="../../svg.min.js"/>
<svg id="graph" class="graph">
<g id="viewport">
<title>AnimatedSpriteSheet::AnimatedSpriteSheet</title>
<!-- Node1 -->
<g id="Node000001" class="node">
<title>Node1</title>
<g id="a_Node000001"><a xlink:title=" ">
<polygon fill="#999999" stroke="#666666" points="172.75,-120.12 0,-120.12 0,-77.62 172.75,-77.62 172.75,-120.12"/>
<text text-anchor="start" x="8" y="-102.83" font-family="Helvetica,sans-Serif" font-size="14.00">AnimatedSpriteSheet</text>
<text text-anchor="middle" x="86.38" y="-85.58" font-family="Helvetica,sans-Serif" font-size="14.00">::AnimatedSpriteSheet</text>
</a>
</g>
</g>
<!-- Node2 -->
<g id="Node000002" class="node">
<title>Node2</title>
<g id="a_Node000002"><a xlink:href="../../d4/dcd/classAnimatedSpriteSheet.html#a27332626ce4790c6bed611958fd416e3" target="_top" xlink:title=" ">
<polygon fill="white" stroke="#666666" points="453.5,-181.12 208.75,-181.12 208.75,-138.62 453.5,-138.62 453.5,-181.12"/>
<text text-anchor="start" x="216.75" y="-163.82" font-family="Helvetica,sans-Serif" font-size="14.00">AnimatedSpriteSheet</text>
<text text-anchor="middle" x="331.12" y="-146.57" font-family="Helvetica,sans-Serif" font-size="14.00">::getCurrentAnimationFrameData</text>
</a>
</g>
</g>
<!-- Node1&#45;&gt;Node2 -->
<g id="edge1_Node000001_Node000002" class="edge">
<title>Node1&#45;&gt;Node2</title>
<g id="a_edge1_Node000001_Node000002"><a xlink:title=" ">
<path fill="none" stroke="#63b8ff" stroke-width="2" d="M172.96,-120.38C191.77,-125.11 211.84,-130.15 231.13,-135"/>
<polygon fill="#63b8ff" stroke="#63b8ff" stroke-width="2" points="230.19,-138.37 240.74,-137.41 231.89,-131.58 230.19,-138.37"/>
</a>
</g>
</g>
<!-- Node3 -->
<g id="Node000003" class="node">
<title>Node3</title>
<g id="a_Node000003"><a xlink:href="../../d4/dcd/classAnimatedSpriteSheet.html#afc3053a2dfb7a133621717f099144e45" target="_top" xlink:title=" ">
<polygon fill="white" stroke="#666666" points="413,-120.12 249.25,-120.12 249.25,-77.62 413,-77.62 413,-120.12"/>
<text text-anchor="start" x="257.25" y="-102.83" font-family="Helvetica,sans-Serif" font-size="14.00">AnimatedSpriteSheet</text>
<text text-anchor="middle" x="331.12" y="-85.58" font-family="Helvetica,sans-Serif" font-size="14.00">::loadFromConfigFile</text>
</a>
</g>
</g>
<!-- Node1&#45;&gt;Node3 -->
<g id="edge2_Node000001_Node000003" class="edge">
<title>Node1&#45;&gt;Node3</title>
<g id="a_edge2_Node000001_Node000003"><a xlink:title=" ">
<path fill="none" stroke="#63b8ff" stroke-width="2" d="M172.96,-98.88C193.42,-98.88 215.37,-98.88 236.19,-98.88"/>
<polygon fill="#63b8ff" stroke="#63b8ff" stroke-width="2" points="235.95,-102.38 245.95,-98.88 235.95,-95.38 235.95,-102.38"/>
</a>
</g>
</g>
<!-- Node6 -->
<g id="Node000006" class="node">
<title>Node6</title>
<g id="a_Node000006"><a xlink:href="../../d4/dcd/classAnimatedSpriteSheet.html#a220da560115e8b9b4b6a823deab4cce7" target="_top" xlink:title=" ">
<polygon fill="white" stroke="#666666" points="413,-55.12 249.25,-55.12 249.25,-12.62 413,-12.62 413,-55.12"/>
<text text-anchor="start" x="257.25" y="-37.83" font-family="Helvetica,sans-Serif" font-size="14.00">AnimatedSpriteSheet</text>
<text text-anchor="middle" x="331.12" y="-20.57" font-family="Helvetica,sans-Serif" font-size="14.00">::setFrame</text>
</a>
</g>
</g>
<!-- Node1&#45;&gt;Node6 -->
<g id="edge5_Node000001_Node000006" class="edge">
<title>Node1&#45;&gt;Node6</title>
<g id="a_edge5_Node000001_Node000006"><a xlink:title=" ">
<path fill="none" stroke="#63b8ff" stroke-width="2" d="M168.54,-77.14C190.41,-71.29 214.23,-64.91 236.71,-58.89"/>
<polygon fill="#63b8ff" stroke="#63b8ff" stroke-width="2" points="237.35,-62.34 246.11,-56.37 235.54,-55.58 237.35,-62.34"/>
</a>
</g>
</g>
<!-- Node4 -->
<g id="Node000004" class="node">
<title>Node4</title>
<g id="a_Node000004"><a xlink:href="../../d4/dcd/classAnimatedSpriteSheet.html#a6fa2ff5485e4322d82b3483ab1c4f2e7" target="_top" xlink:title="load frame data from stream">
<polygon fill="white" stroke="#666666" points="656.62,-181.12 492.88,-181.12 492.88,-138.62 656.62,-138.62 656.62,-181.12"/>
<text text-anchor="start" x="500.88" y="-163.82" font-family="Helvetica,sans-Serif" font-size="14.00">AnimatedSpriteSheet</text>
<text text-anchor="middle" x="574.75" y="-146.57" font-family="Helvetica,sans-Serif" font-size="14.00">::loadFrame</text>
</a>
</g>
</g>
<!-- Node3&#45;&gt;Node4 -->
<g id="edge3_Node000003_Node000004" class="edge">
<title>Node3&#45;&gt;Node4</title>
<g id="a_edge3_Node000003_Node000004"><a xlink:title=" ">
<path fill="none" stroke="#63b8ff" stroke-width="2" d="M413.25,-119.36C434.67,-124.76 457.96,-130.64 479.98,-136.2"/>
<polygon fill="#63b8ff" stroke="#63b8ff" stroke-width="2" points="478.94,-139.55 489.49,-138.6 480.65,-132.76 478.94,-139.55"/>
</a>
</g>
</g>
<!-- Node5 -->
<g id="Node000005" class="node">
<title>Node5</title>
<g id="a_Node000005"><a xlink:href="../../d4/dcd/classAnimatedSpriteSheet.html#a2e507412a33f4e0c8603fe1a90940ee6" target="_top" xlink:title=" ">
<polygon fill="white" stroke="#666666" points="656.62,-120.12 492.88,-120.12 492.88,-77.62 656.62,-77.62 656.62,-120.12"/>
<text text-anchor="start" x="500.88" y="-102.83" font-family="Helvetica,sans-Serif" font-size="14.00">AnimatedSpriteSheet</text>
<text text-anchor="middle" x="574.75" y="-85.58" font-family="Helvetica,sans-Serif" font-size="14.00">::loadSpritesheet</text>
</a>
</g>
</g>
<!-- Node3&#45;&gt;Node5 -->
<g id="edge4_Node000003_Node000005" class="edge">
<title>Node3&#45;&gt;Node5</title>
<g id="a_edge4_Node000003_Node000005"><a xlink:title=" ">
<path fill="none" stroke="#63b8ff" stroke-width="2" d="M413.25,-98.88C434.57,-98.88 457.74,-98.88 479.68,-98.88"/>
<polygon fill="#63b8ff" stroke="#63b8ff" stroke-width="2" points="479.4,-102.38 489.4,-98.88 479.4,-95.38 479.4,-102.38"/>
</a>
</g>
</g>
<!-- Node7 -->
<g id="Node000007" class="node">
<title>Node7</title>
<g id="a_Node000007"><a xlink:href="../../d1/d0c/structAnimatedSpriteSheet_1_1AnimationFrameData.html#a233fd12ae819923dfe42a3a37fc26024" target="_top" xlink:title=" ">
<polygon fill="#fff0f0" stroke="red" points="660,-59.75 489.5,-59.75 489.5,0 660,0 660,-59.75"/>
<text text-anchor="start" x="497.5" y="-42.45" font-family="Helvetica,sans-Serif" font-size="14.00">AnimatedSpriteSheet</text>
<text text-anchor="start" x="497.5" y="-25.2" font-family="Helvetica,sans-Serif" font-size="14.00">::AnimationFrameData</text>
<text text-anchor="middle" x="574.75" y="-7.95" font-family="Helvetica,sans-Serif" font-size="14.00">::toIntRect</text>
</a>
</g>
</g>
<!-- Node6&#45;&gt;Node7 -->
<g id="edge6_Node000006_Node000007" class="edge">
<title>Node6&#45;&gt;Node7</title>
<g id="a_edge6_Node000006_Node000007"><a xlink:title=" ">
<path fill="none" stroke="#63b8ff" stroke-width="2" d="M413.25,-32.53C433.46,-32.2 455.34,-31.84 476.25,-31.49"/>
<polygon fill="#63b8ff" stroke="#63b8ff" stroke-width="2" points="476.15,-34.99 486.09,-31.33 476.03,-27.99 476.15,-34.99"/>
</a>
</g>
</g>
</g>
</svg>

<g id="navigator" transform="translate(0 0)" fill="#404254">
  <rect fill="#f2f5e9" fill-opacity="0.5" stroke="#606060" stroke-width=".5" x="0" y="0" width="60" height="60"/>
  <use id="zoomplus" xlink:href="#zoomPlus" x="17" y="9" onmousedown="handleZoom(evt,'in')"/>
  <use id="zoomminus" xlink:href="#zoomMin" x="42" y="9" onmousedown="handleZoom(evt,'out')"/>
  <use id="reset" xlink:href="#resetDef" x="30" y="36" onmousedown="handleReset()"/>
   <use id="arrowup" xlink:href="#arrowUp" x="0" y="0" onmousedown="handlePan(0,-1)"/>
  <use id="arrowright" xlink:href="#arrowRight" x="0" y="0" onmousedown="handlePan(1,0)"/>
  <use id="arrowdown" xlink:href="#arrowDown" x="0" y="0" onmousedown="handlePan(0,1)"/>
  <use id="arrowleft" xlink:href="#arrowLeft" x="0" y="0" onmousedown="handlePan(-1,0)"/>
</g>
<svg viewBox="0 0 15 15" width="100%" height="30px" preserveAspectRatio="xMaxYMin meet">
 <g id="arrow_out" transform="scale(0.3 0.3)">
  <a xlink:href="classAnimatedSpriteSheet_a2c54d17eea6a3e391e58b90d577dec48_cgraph_org.svg" target="_base">
   <rect id="button" ry="5" rx="5" y="6" x="6" height="38" width="38"
        fill="#f2f5e9" fill-opacity="0.5" stroke="#606060" stroke-width="1.0"/>
   <path id="arrow"
     d="M 11.500037,31.436501 C 11.940474,20.09759 22.043105,11.32322 32.158766,21.979434 L 37.068811,17.246167 C 37.068811,17.246167 37.088388,32 37.088388,32 L 22.160133,31.978069 C 22.160133,31.978069 26.997745,27.140456 26.997745,27.140456 C 18.528582,18.264221 13.291696,25.230495 11.500037,31.436501 z"
     style="fill:#404040;"/>
  </a>
 </g>
</svg>

<style type='text/css'>
<![CDATA[
[data-mouse-over-selected='false'] { opacity: 0.7; }
[data-mouse-over-selected='true']  { opacity: 1.0; }
]]>
</style>
<script type="application/ecmascript"><![CDATA[
document.addEventListener('DOMContentLoaded', (event) => {
  highlightEdges();
  highlightAdjacentNodes();
});
]]></script>
</svg>
