<?xml version="1.0" encoding="UTF-8" standalone="no"?>
<!DOCTYPE svg PUBLIC "-//W3C//DTD SVG 1.1//EN"
 "http://www.w3.org/Graphics/SVG/1.1/DTD/svg11.dtd">
<!-- Generated by graphviz version 9.0.0 (0)
 -->
<!-- Title: AnimatedSpriteSheet::animate Pages: 1 -->
<svg width="715pt" height="274pt"
 viewBox="0.00 0.00 715.25 273.88" xmlns="http://www.w3.org/2000/svg" xmlns:xlink="http://www.w3.org/1999/xlink">
<g id="graph0" class="graph" transform="scale(1 1) rotate(0) translate(4 269.88)">
<title>AnimatedSpriteSheet::animate</title>
<!-- Node1 -->
<g id="Node000001" class="node">
<title>Node1</title>
<g id="a_Node000001"><a xlink:title="Animates object.">
<polygon fill="#999999" stroke="#666666" points="163.75,-182.5 0,-182.5 0,-140 163.75,-140 163.75,-182.5"/>
<text text-anchor="start" x="8" y="-165.2" font-family="Helvetica,sans-Serif" font-size="14.00">AnimatedSpriteSheet</text>
<text text-anchor="middle" x="81.88" y="-147.95" font-family="Helvetica,sans-Serif" font-size="14.00">::animate</text>
</a>
</g>
</g>
<!-- Node2 -->
<g id="Node000002" class="node">
<title>Node2</title>
<g id="a_Node000002"><a xlink:href="../../d4/dcd/classAnimatedSpriteSheet.html#acd27c156c318ea4cad90639d8d92d316" target="_top" xlink:title=" ">
<polygon fill="white" stroke="#666666" points="419.38,-222.12 206.88,-222.12 206.88,-162.38 419.38,-162.38 419.38,-222.12"/>
<text text-anchor="start" x="214.88" y="-204.82" font-family="Helvetica,sans-Serif" font-size="14.00">AnimatedSpriteSheet</text>
<text text-anchor="start" x="214.88" y="-187.57" font-family="Helvetica,sans-Serif" font-size="14.00">::getCurrentAnimationFrame</text>
<text text-anchor="middle" x="313.12" y="-170.32" font-family="Helvetica,sans-Serif" font-size="14.00">Duration</text>
</a>
</g>
</g>
<!-- Node1&#45;&gt;Node2 -->
<g id="edge1_Node000001_Node000002" class="edge">
<title>Node1&#45;&gt;Node2</title>
<g id="a_edge1_Node000001_Node000002"><a xlink:title=" ">
<path fill="none" stroke="#63b8ff" stroke-width="2" d="M164.02,-172.22C173.71,-173.53 183.75,-174.89 193.83,-176.25"/>
<polygon fill="#63b8ff" stroke="#63b8ff" stroke-width="2" points="193.22,-179.7 203.59,-177.57 194.15,-172.77 193.22,-179.7"/>
</a>
</g>
</g>
<!-- Node4 -->
<g id="Node000004" class="node">
<title>Node4</title>
<g id="a_Node000004"><a xlink:href="../../d1/db6/classEngine.html#a4fbdd2df29e30dd08de3c285cee8c128" target="_top" xlink:title="Instance getter.">
<polygon fill="white" stroke="#666666" points="390.5,-265.88 235.75,-265.88 235.75,-240.62 390.5,-240.62 390.5,-265.88"/>
<text text-anchor="middle" x="313.12" y="-248.57" font-family="Helvetica,sans-Serif" font-size="14.00">Engine::getInstance</text>
</a>
</g>
</g>
<!-- Node1&#45;&gt;Node4 -->
<g id="edge3_Node000001_Node000004" class="edge">
<title>Node1&#45;&gt;Node4</title>
<g id="a_edge3_Node000001_Node000004"><a xlink:title=" ">
<path fill="none" stroke="#63b8ff" stroke-width="2" d="M112.15,-182.71C134.95,-198.42 167.95,-219.05 199.75,-231.25 207.12,-234.08 214.9,-236.56 222.8,-238.73"/>
<polygon fill="#63b8ff" stroke="#63b8ff" stroke-width="2" points="221.77,-242.08 232.32,-241.15 223.49,-235.3 221.77,-242.08"/>
</a>
</g>
</g>
<!-- Node6 -->
<g id="Node000006" class="node">
<title>Node6</title>
<g id="a_Node000006"><a xlink:href="../../d1/db6/classEngine.html#a7882b3a1b96c425ea5692807e0765e9f" target="_top" xlink:title="Last frame duration getter.">
<polygon fill="white" stroke="#666666" points="426.5,-143.88 199.75,-143.88 199.75,-118.62 426.5,-118.62 426.5,-143.88"/>
<text text-anchor="middle" x="313.12" y="-126.58" font-family="Helvetica,sans-Serif" font-size="14.00">Engine::getLastFrameDuration</text>
</a>
</g>
</g>
<!-- Node1&#45;&gt;Node6 -->
<g id="edge5_Node000001_Node000006" class="edge">
<title>Node1&#45;&gt;Node6</title>
<g id="a_edge5_Node000001_Node000006"><a xlink:title=" ">
<path fill="none" stroke="#63b8ff" stroke-width="2" d="M164.02,-150.63C175.47,-149.13 187.4,-147.57 199.31,-146.01"/>
<polygon fill="#63b8ff" stroke="#63b8ff" stroke-width="2" points="199.73,-149.49 209.19,-144.72 198.82,-142.55 199.73,-149.49"/>
</a>
</g>
</g>
<!-- Node7 -->
<g id="Node000007" class="node">
<title>Node7</title>
<g id="a_Node000007"><a xlink:href="../../d4/dcd/classAnimatedSpriteSheet.html#a5d096d78c6d0246c1d39508bd4a13b7f" target="_top" xlink:title=" ">
<polygon fill="white" stroke="#666666" points="395,-100.5 231.25,-100.5 231.25,-58 395,-58 395,-100.5"/>
<text text-anchor="start" x="239.25" y="-83.2" font-family="Helvetica,sans-Serif" font-size="14.00">AnimatedSpriteSheet</text>
<text text-anchor="middle" x="313.12" y="-65.95" font-family="Helvetica,sans-Serif" font-size="14.00">::nextFrame</text>
</a>
</g>
</g>
<!-- Node1&#45;&gt;Node7 -->
<g id="edge6_Node000001_Node000007" class="edge">
<title>Node1&#45;&gt;Node7</title>
<g id="a_edge6_Node000001_Node000007"><a xlink:title=" ">
<path fill="none" stroke="#63b8ff" stroke-width="2" d="M127.16,-139.57C148.73,-129.51 175.25,-117.91 199.75,-109.25 205.84,-107.1 212.16,-105.01 218.57,-103.02"/>
<polygon fill="#63b8ff" stroke="#63b8ff" stroke-width="2" points="219.48,-106.4 228.04,-100.16 217.46,-99.7 219.48,-106.4"/>
</a>
</g>
</g>
<!-- Node3 -->
<g id="Node000003" class="node">
<title>Node3</title>
<g id="a_Node000003"><a xlink:href="../../d4/dcd/classAnimatedSpriteSheet.html#a27332626ce4790c6bed611958fd416e3" target="_top" xlink:title=" ">
<polygon fill="white" stroke="#666666" points="707.25,-202.5 462.5,-202.5 462.5,-160 707.25,-160 707.25,-202.5"/>
<text text-anchor="start" x="470.5" y="-185.2" font-family="Helvetica,sans-Serif" font-size="14.00">AnimatedSpriteSheet</text>
<text text-anchor="middle" x="584.88" y="-167.95" font-family="Helvetica,sans-Serif" font-size="14.00">::getCurrentAnimationFrameData</text>
</a>
</g>
</g>
<!-- Node2&#45;&gt;Node3 -->
<g id="edge2_Node000002_Node000003" class="edge">
<title>Node2&#45;&gt;Node3</title>
<g id="a_edge2_Node000002_Node000003"><a xlink:title=" ">
<path fill="none" stroke="#63b8ff" stroke-width="2" d="M419.58,-187.95C429.45,-187.55 439.54,-187.14 449.62,-186.72"/>
<polygon fill="#63b8ff" stroke="#63b8ff" stroke-width="2" points="449.51,-190.23 459.36,-186.33 449.22,-183.24 449.51,-190.23"/>
</a>
</g>
</g>
<!-- Node5 -->
<g id="Node000005" class="node">
<title>Node5</title>
<g id="a_Node000005"><a xlink:href="../../d1/db6/classEngine.html#a8c98683b0a3aa28d8ab72a8bcd0d52f2" target="_top" xlink:title="Constructor.">
<polygon fill="white" stroke="#666666" points="645.38,-265.88 524.38,-265.88 524.38,-240.62 645.38,-240.62 645.38,-265.88"/>
<text text-anchor="middle" x="584.88" y="-248.57" font-family="Helvetica,sans-Serif" font-size="14.00">Engine::Engine</text>
</a>
</g>
</g>
<!-- Node4&#45;&gt;Node5 -->
<g id="edge4_Node000004_Node000005" class="edge">
<title>Node4&#45;&gt;Node5</title>
<g id="a_edge4_Node000004_Node000005"><a xlink:title=" ">
<path fill="none" stroke="#63b8ff" stroke-width="2" d="M390.7,-253.25C428.6,-253.25 474.1,-253.25 511.43,-253.25"/>
<polygon fill="#63b8ff" stroke="#63b8ff" stroke-width="2" points="511.23,-256.75 521.23,-253.25 511.23,-249.75 511.23,-256.75"/>
</a>
</g>
</g>
<!-- Node7&#45;&gt;Node3 -->
<g id="edge8_Node000007_Node000003" class="edge">
<title>Node7&#45;&gt;Node3</title>
<g id="a_edge8_Node000007_Node000003"><a xlink:title=" ">
<path fill="none" stroke="#63b8ff" stroke-width="2" d="M395.33,-98.36C405.95,-101.61 416.58,-105.24 426.5,-109.25 443.47,-116.11 446.07,-121.19 462.5,-129.25 480.23,-137.94 499.77,-146.67 517.89,-154.43"/>
<polygon fill="#63b8ff" stroke="#63b8ff" stroke-width="2" points="516.51,-157.65 527.08,-158.33 519.24,-151.2 516.51,-157.65"/>
</a>
</g>
</g>
<!-- Node8 -->
<g id="Node000008" class="node">
<title>Node8</title>
<g id="a_Node000008"><a xlink:href="../../d4/dcd/classAnimatedSpriteSheet.html#abfe4ace3fb950887d0c97b77efcb933c" target="_top" xlink:title=" ">
<polygon fill="white" stroke="#666666" points="691.12,-120.12 478.62,-120.12 478.62,-60.38 691.12,-60.38 691.12,-120.12"/>
<text text-anchor="start" x="486.62" y="-102.83" font-family="Helvetica,sans-Serif" font-size="14.00">AnimatedSpriteSheet</text>
<text text-anchor="start" x="486.62" y="-85.58" font-family="Helvetica,sans-Serif" font-size="14.00">::getCurrentAnimationFrame</text>
<text text-anchor="middle" x="584.88" y="-68.33" font-family="Helvetica,sans-Serif" font-size="14.00">Count</text>
</a>
</g>
</g>
<!-- Node7&#45;&gt;Node8 -->
<g id="edge7_Node000007_Node000008" class="edge">
<title>Node7&#45;&gt;Node8</title>
<g id="a_edge7_Node000007_Node000008"><a xlink:title=" ">
<path fill="none" stroke="#63b8ff" stroke-width="2" d="M395.42,-82.57C417.41,-83.46 441.67,-84.45 465.26,-85.41"/>
<polygon fill="#63b8ff" stroke="#63b8ff" stroke-width="2" points="465.11,-88.91 475.25,-85.82 465.4,-81.92 465.11,-88.91"/>
</a>
</g>
</g>
<!-- Node9 -->
<g id="Node000009" class="node">
<title>Node9</title>
<g id="a_Node000009"><a xlink:href="../../d4/dcd/classAnimatedSpriteSheet.html#a220da560115e8b9b4b6a823deab4cce7" target="_top" xlink:title=" ">
<polygon fill="#fff0f0" stroke="red" points="666.75,-42.5 503,-42.5 503,0 666.75,0 666.75,-42.5"/>
<text text-anchor="start" x="511" y="-25.2" font-family="Helvetica,sans-Serif" font-size="14.00">AnimatedSpriteSheet</text>
<text text-anchor="middle" x="584.88" y="-7.95" font-family="Helvetica,sans-Serif" font-size="14.00">::setFrame</text>
</a>
</g>
</g>
<!-- Node7&#45;&gt;Node9 -->
<g id="edge9_Node000007_Node000009" class="edge">
<title>Node7&#45;&gt;Node9</title>
<g id="a_edge9_Node000007_Node000009"><a xlink:title=" ">
<path fill="none" stroke="#63b8ff" stroke-width="2" d="M395.42,-61.77C425.28,-55.35 459.33,-48.03 490.19,-41.39"/>
<polygon fill="#63b8ff" stroke="#63b8ff" stroke-width="2" points="490.74,-44.86 499.78,-39.33 489.27,-38.01 490.74,-44.86"/>
</a>
</g>
</g>
</g>
</svg>
