<?xml version="1.0" encoding="UTF-8" standalone="no"?>
<!DOCTYPE svg PUBLIC "-//W3C//DTD SVG 1.1//EN"
 "http://www.w3.org/Graphics/SVG/1.1/DTD/svg11.dtd">
<!-- Generated by graphviz version 9.0.0 (0)
 -->
<!-- Title: AnimatedSpriteSheet::nextFrame Pages: 1 -->
<svg width="659pt" height="198pt"
 viewBox="0.00 0.00 659.00 197.75" xmlns="http://www.w3.org/2000/svg" xmlns:xlink="http://www.w3.org/1999/xlink">
<g id="graph0" class="graph" transform="scale(1 1) rotate(0) translate(4 193.75)">
<title>AnimatedSpriteSheet::nextFrame</title>
<!-- Node1 -->
<g id="Node000001" class="node">
<title>Node1</title>
<g id="a_Node000001"><a xlink:title=" ">
<polygon fill="#999999" stroke="#666666" points="163.75,-112.12 0,-112.12 0,-69.62 163.75,-69.62 163.75,-112.12"/>
<text text-anchor="start" x="8" y="-94.83" font-family="Helvetica,sans-Serif" font-size="14.00">AnimatedSpriteSheet</text>
<text text-anchor="middle" x="81.88" y="-77.58" font-family="Helvetica,sans-Serif" font-size="14.00">::nextFrame</text>
</a>
</g>
</g>
<!-- Node2 -->
<g id="Node000002" class="node">
<title>Node2</title>
<g id="a_Node000002"><a xlink:href="../../d4/dcd/classAnimatedSpriteSheet.html#abfe4ace3fb950887d0c97b77efcb933c" target="_top" xlink:title=" ">
<polygon fill="white" stroke="#666666" points="428.38,-189.75 215.88,-189.75 215.88,-130 428.38,-130 428.38,-189.75"/>
<text text-anchor="start" x="223.88" y="-172.45" font-family="Helvetica,sans-Serif" font-size="14.00">AnimatedSpriteSheet</text>
<text text-anchor="start" x="223.88" y="-155.2" font-family="Helvetica,sans-Serif" font-size="14.00">::getCurrentAnimationFrame</text>
<text text-anchor="middle" x="322.12" y="-137.95" font-family="Helvetica,sans-Serif" font-size="14.00">Count</text>
</a>
</g>
</g>
<!-- Node1&#45;&gt;Node2 -->
<g id="edge1_Node000001_Node000002" class="edge">
<title>Node1&#45;&gt;Node2</title>
<g id="a_edge1_Node000001_Node000002"><a xlink:title=" ">
<path fill="none" stroke="#63b8ff" stroke-width="2" d="M157.93,-112.61C172.57,-116.85 188.24,-121.39 203.87,-125.92"/>
<polygon fill="#63b8ff" stroke="#63b8ff" stroke-width="2" points="202.88,-129.27 213.46,-128.69 204.83,-122.55 202.88,-129.27"/>
</a>
</g>
</g>
<!-- Node3 -->
<g id="Node000003" class="node">
<title>Node3</title>
<g id="a_Node000003"><a xlink:href="../../d4/dcd/classAnimatedSpriteSheet.html#a27332626ce4790c6bed611958fd416e3" target="_top" xlink:title=" ">
<polygon fill="white" stroke="#666666" points="444.5,-112.12 199.75,-112.12 199.75,-69.62 444.5,-69.62 444.5,-112.12"/>
<text text-anchor="start" x="207.75" y="-94.83" font-family="Helvetica,sans-Serif" font-size="14.00">AnimatedSpriteSheet</text>
<text text-anchor="middle" x="322.12" y="-77.58" font-family="Helvetica,sans-Serif" font-size="14.00">::getCurrentAnimationFrameData</text>
</a>
</g>
</g>
<!-- Node1&#45;&gt;Node3 -->
<g id="edge2_Node000001_Node000003" class="edge">
<title>Node1&#45;&gt;Node3</title>
<g id="a_edge2_Node000001_Node000003"><a xlink:title=" ">
<path fill="none" stroke="#63b8ff" stroke-width="2" d="M164.2,-90.88C171.54,-90.88 179.1,-90.88 186.73,-90.88"/>
<polygon fill="#63b8ff" stroke="#63b8ff" stroke-width="2" points="186.62,-94.38 196.62,-90.88 186.62,-87.38 186.62,-94.38"/>
</a>
</g>
</g>
<!-- Node4 -->
<g id="Node000004" class="node">
<title>Node4</title>
<g id="a_Node000004"><a xlink:href="../../d4/dcd/classAnimatedSpriteSheet.html#a220da560115e8b9b4b6a823deab4cce7" target="_top" xlink:title=" ">
<polygon fill="white" stroke="#666666" points="404,-51.12 240.25,-51.12 240.25,-8.62 404,-8.62 404,-51.12"/>
<text text-anchor="start" x="248.25" y="-33.83" font-family="Helvetica,sans-Serif" font-size="14.00">AnimatedSpriteSheet</text>
<text text-anchor="middle" x="322.12" y="-16.57" font-family="Helvetica,sans-Serif" font-size="14.00">::setFrame</text>
</a>
</g>
</g>
<!-- Node1&#45;&gt;Node4 -->
<g id="edge3_Node000001_Node000004" class="edge">
<title>Node1&#45;&gt;Node4</title>
<g id="a_edge3_Node000001_Node000004"><a xlink:title=" ">
<path fill="none" stroke="#63b8ff" stroke-width="2" d="M163.98,-70.04C175.97,-66.97 188.18,-63.84 199.75,-60.88 208.76,-58.57 218.15,-56.17 227.53,-53.77"/>
<polygon fill="#63b8ff" stroke="#63b8ff" stroke-width="2" points="228.08,-57.24 236.9,-51.37 226.35,-50.46 228.08,-57.24"/>
</a>
</g>
</g>
<!-- Node5 -->
<g id="Node000005" class="node">
<title>Node5</title>
<g id="a_Node000005"><a xlink:href="../../d1/d0c/structAnimatedSpriteSheet_1_1AnimationFrameData.html#a233fd12ae819923dfe42a3a37fc26024" target="_top" xlink:title=" ">
<polygon fill="#fff0f0" stroke="red" points="651,-59.75 480.5,-59.75 480.5,0 651,0 651,-59.75"/>
<text text-anchor="start" x="488.5" y="-42.45" font-family="Helvetica,sans-Serif" font-size="14.00">AnimatedSpriteSheet</text>
<text text-anchor="start" x="488.5" y="-25.2" font-family="Helvetica,sans-Serif" font-size="14.00">::AnimationFrameData</text>
<text text-anchor="middle" x="565.75" y="-7.95" font-family="Helvetica,sans-Serif" font-size="14.00">::toIntRect</text>
</a>
</g>
</g>
<!-- Node4&#45;&gt;Node5 -->
<g id="edge4_Node000004_Node000005" class="edge">
<title>Node4&#45;&gt;Node5</title>
<g id="a_edge4_Node000004_Node000005"><a xlink:title=" ">
<path fill="none" stroke="#63b8ff" stroke-width="2" d="M404.25,-29.88C424.46,-29.88 446.34,-29.88 467.25,-29.88"/>
<polygon fill="#63b8ff" stroke="#63b8ff" stroke-width="2" points="467.09,-33.38 477.09,-29.88 467.09,-26.38 467.09,-33.38"/>
</a>
</g>
</g>
</g>
</svg>
