<?xml version="1.0" encoding="UTF-8" standalone="no"?>
<!DOCTYPE svg PUBLIC "-//W3C//DTD SVG 1.1//EN"
 "http://www.w3.org/Graphics/SVG/1.1/DTD/svg11.dtd">
<!-- Generated by graphviz version 9.0.0 (0)
 -->
<!-- Title: AnimatedSpriteSheet::setFrame Pages: 1 -->
<svg width="524pt" height="76pt"
 viewBox="0.00 0.00 524.00 76.25" xmlns="http://www.w3.org/2000/svg" xmlns:xlink="http://www.w3.org/1999/xlink">
<g id="graph0" class="graph" transform="scale(1 1) rotate(0) translate(4 72.25)">
<title>AnimatedSpriteSheet::setFrame</title>
<!-- Node1 -->
<g id="Node000001" class="node">
<title>Node1</title>
<g id="a_Node000001"><a xlink:title=" ">
<polygon fill="#999999" stroke="#666666" points="163.75,-54.88 0,-54.88 0,-12.38 163.75,-12.38 163.75,-54.88"/>
<text text-anchor="start" x="8" y="-37.58" font-family="Helvetica,sans-Serif" font-size="14.00">AnimatedSpriteSheet</text>
<text text-anchor="middle" x="81.88" y="-20.32" font-family="Helvetica,sans-Serif" font-size="14.00">::setFrame</text>
</a>
</g>
</g>
<!-- Node2 -->
<g id="Node000002" class="node">
<title>Node2</title>
<g id="a_Node000002"><a xlink:href="../../d1/d0c/structAnimatedSpriteSheet_1_1AnimationFrameData.html#a233fd12ae819923dfe42a3a37fc26024" target="_top" xlink:title=" ">
<polygon fill="white" stroke="#666666" points="370.25,-63.5 199.75,-63.5 199.75,-3.75 370.25,-3.75 370.25,-63.5"/>
<text text-anchor="start" x="207.75" y="-46.2" font-family="Helvetica,sans-Serif" font-size="14.00">AnimatedSpriteSheet</text>
<text text-anchor="start" x="207.75" y="-28.95" font-family="Helvetica,sans-Serif" font-size="14.00">::AnimationFrameData</text>
<text text-anchor="middle" x="285" y="-11.7" font-family="Helvetica,sans-Serif" font-size="14.00">::toIntRect</text>
</a>
</g>
</g>
<!-- Node1&#45;&gt;Node2 -->
<g id="edge1_Node000001_Node000002" class="edge">
<title>Node1&#45;&gt;Node2</title>
<g id="a_edge1_Node000001_Node000002"><a xlink:title=" ">
<path fill="none" stroke="#63b8ff" stroke-width="2" d="M164.1,-33.62C171.48,-33.62 179.01,-33.62 186.51,-33.62"/>
<polygon fill="#63b8ff" stroke="#63b8ff" stroke-width="2" points="186.49,-37.13 196.49,-33.63 186.49,-30.13 186.49,-37.13"/>
</a>
</g>
</g>
<!-- Node3 -->
<g id="Node000003" class="node">
<title>Node3</title>
<g id="a_Node000003"><a xlink:href="../../d5/d5c/classPoint2d.html#a61607d6c6d2b37580e5a7fb9fd4469ce" target="_top" xlink:title="X co&#45;ordinate getter.">
<polygon fill="white" stroke="#666666" points="516,-68.25 406.25,-68.25 406.25,-43 516,-43 516,-68.25"/>
<text text-anchor="middle" x="461.12" y="-50.95" font-family="Helvetica,sans-Serif" font-size="14.00">Point2d::getX</text>
</a>
</g>
</g>
<!-- Node2&#45;&gt;Node3 -->
<g id="edge2_Node000002_Node000003" class="edge">
<title>Node2&#45;&gt;Node3</title>
<g id="a_edge2_Node000002_Node000003"><a xlink:title=" ">
<path fill="none" stroke="#63b8ff" stroke-width="2" d="M370.51,-44.3C378.19,-45.27 385.89,-46.25 393.38,-47.19"/>
<polygon fill="#63b8ff" stroke="#63b8ff" stroke-width="2" points="392.8,-50.65 403.16,-48.43 393.67,-43.7 392.8,-50.65"/>
</a>
</g>
</g>
<!-- Node4 -->
<g id="Node000004" class="node">
<title>Node4</title>
<g id="a_Node000004"><a xlink:href="../../d5/d5c/classPoint2d.html#a15d17205b944b35ecc564a84aa2f454e" target="_top" xlink:title="Y co&#45;ordinate getter.">
<polygon fill="white" stroke="#666666" points="515.25,-25.25 407,-25.25 407,0 515.25,0 515.25,-25.25"/>
<text text-anchor="middle" x="461.12" y="-7.95" font-family="Helvetica,sans-Serif" font-size="14.00">Point2d::getY</text>
</a>
</g>
</g>
<!-- Node2&#45;&gt;Node4 -->
<g id="edge3_Node000002_Node000004" class="edge">
<title>Node2&#45;&gt;Node4</title>
<g id="a_edge3_Node000002_Node000004"><a xlink:title=" ">
<path fill="none" stroke="#63b8ff" stroke-width="2" d="M370.51,-23.43C378.39,-22.48 386.3,-21.53 393.98,-20.6"/>
<polygon fill="#63b8ff" stroke="#63b8ff" stroke-width="2" points="394.13,-24.11 403.64,-19.44 393.29,-17.16 394.13,-24.11"/>
</a>
</g>
</g>
</g>
</svg>
