<?xml version="1.0" encoding="UTF-8" standalone="no"?>
<!DOCTYPE svg PUBLIC "-//W3C//DTD SVG 1.1//EN"
 "http://www.w3.org/Graphics/SVG/1.1/DTD/svg11.dtd">
<!-- Generated by graphviz version 9.0.0 (0)
 -->
<!-- Title: AnimatedSpriteSheet::setFrame Pages: 1 -->
<svg width="580pt" height="112pt"
 viewBox="0.00 0.00 580.25 111.50" xmlns="http://www.w3.org/2000/svg" xmlns:xlink="http://www.w3.org/1999/xlink">
<g id="graph0" class="graph" transform="scale(1 1) rotate(0) translate(4 107.5)">
<title>AnimatedSpriteSheet::setFrame</title>
<!-- Node1 -->
<g id="Node000001" class="node">
<title>Node1</title>
<g id="a_Node000001"><a xlink:title=" ">
<polygon fill="#999999" stroke="#666666" points="572.25,-72.5 408.5,-72.5 408.5,-30 572.25,-30 572.25,-72.5"/>
<text text-anchor="start" x="416.5" y="-55.2" font-family="Helvetica,sans-Serif" font-size="14.00">AnimatedSpriteSheet</text>
<text text-anchor="middle" x="490.38" y="-37.95" font-family="Helvetica,sans-Serif" font-size="14.00">::setFrame</text>
</a>
</g>
</g>
<!-- Node2 -->
<g id="Node000002" class="node">
<title>Node2</title>
<g id="a_Node000002"><a xlink:href="../../d4/dcd/classAnimatedSpriteSheet.html#a2c54d17eea6a3e391e58b90d577dec48" target="_top" xlink:title=" ">
<polygon fill="white" stroke="#666666" points="372.5,-103.5 199.75,-103.5 199.75,-61 372.5,-61 372.5,-103.5"/>
<text text-anchor="start" x="207.75" y="-86.2" font-family="Helvetica,sans-Serif" font-size="14.00">AnimatedSpriteSheet</text>
<text text-anchor="middle" x="286.12" y="-68.95" font-family="Helvetica,sans-Serif" font-size="14.00">::AnimatedSpriteSheet</text>
</a>
</g>
</g>
<!-- Node1&#45;&gt;Node2 -->
<g id="edge1_Node000001_Node000002" class="edge">
<title>Node1&#45;&gt;Node2</title>
<g id="a_edge1_Node000001_Node000002"><a xlink:title=" ">
<path fill="none" stroke="#63b8ff" stroke-width="2" d="M395.61,-65.62C388.03,-66.78 380.39,-67.95 372.87,-69.11"/>
<polygon fill="#63b8ff" stroke="#63b8ff" stroke-width="2" points="395.93,-69.11 405.29,-64.14 394.87,-62.19 395.93,-69.11"/>
</a>
</g>
</g>
<!-- Node3 -->
<g id="Node000003" class="node">
<title>Node3</title>
<g id="a_Node000003"><a xlink:href="../../d4/dcd/classAnimatedSpriteSheet.html#a5d096d78c6d0246c1d39508bd4a13b7f" target="_top" xlink:title=" ">
<polygon fill="white" stroke="#666666" points="368,-42.5 204.25,-42.5 204.25,0 368,0 368,-42.5"/>
<text text-anchor="start" x="212.25" y="-25.2" font-family="Helvetica,sans-Serif" font-size="14.00">AnimatedSpriteSheet</text>
<text text-anchor="middle" x="286.12" y="-7.95" font-family="Helvetica,sans-Serif" font-size="14.00">::nextFrame</text>
</a>
</g>
</g>
<!-- Node1&#45;&gt;Node3 -->
<g id="edge2_Node000001_Node000003" class="edge">
<title>Node1&#45;&gt;Node3</title>
<g id="a_edge2_Node000001_Node000003"><a xlink:title=" ">
<path fill="none" stroke="#63b8ff" stroke-width="2" d="M395.49,-37.32C386.39,-35.97 377.2,-34.61 368.24,-33.28"/>
<polygon fill="#63b8ff" stroke="#63b8ff" stroke-width="2" points="394.88,-40.77 405.28,-38.78 395.91,-33.85 394.88,-40.77"/>
</a>
</g>
</g>
<!-- Node4 -->
<g id="Node000004" class="node">
<title>Node4</title>
<g id="a_Node000004"><a xlink:href="../../d4/dcd/classAnimatedSpriteSheet.html#a9f0f6e23c33869b0caf4fdf68bddc9ba" target="_top" xlink:title="Animates object.">
<polygon fill="white" stroke="#666666" points="163.75,-42.5 0,-42.5 0,0 163.75,0 163.75,-42.5"/>
<text text-anchor="start" x="8" y="-25.2" font-family="Helvetica,sans-Serif" font-size="14.00">AnimatedSpriteSheet</text>
<text text-anchor="middle" x="81.88" y="-7.95" font-family="Helvetica,sans-Serif" font-size="14.00">::animate</text>
</a>
</g>
</g>
<!-- Node3&#45;&gt;Node4 -->
<g id="edge3_Node000003_Node000004" class="edge">
<title>Node3&#45;&gt;Node4</title>
<g id="a_edge3_Node000003_Node000004"><a xlink:title=" ">
<path fill="none" stroke="#63b8ff" stroke-width="2" d="M191.24,-21.25C182.14,-21.25 172.95,-21.25 163.99,-21.25"/>
<polygon fill="#63b8ff" stroke="#63b8ff" stroke-width="2" points="191,-24.75 201,-21.25 191,-17.75 191,-24.75"/>
</a>
</g>
</g>
</g>
</svg>
