<?xml version="1.0" encoding="UTF-8" standalone="no"?>
<!DOCTYPE svg PUBLIC "-//W3C//DTD SVG 1.1//EN"
 "http://www.w3.org/Graphics/SVG/1.1/DTD/svg11.dtd">
<!-- Generated by graphviz version 9.0.0 (0)
 -->
<!-- Title: AnimatedObject::animate Pages: 1 -->
<svg width="574pt" height="33pt"
 viewBox="0.00 0.00 573.50 33.25" xmlns="http://www.w3.org/2000/svg" xmlns:xlink="http://www.w3.org/1999/xlink">
<g id="graph0" class="graph" transform="scale(1 1) rotate(0) translate(4 29.25)">
<title>AnimatedObject::animate</title>
<!-- Node1 -->
<g id="Node000001" class="node">
<title>Node1</title>
<g id="a_Node000001"><a xlink:title="Animates object.">
<polygon fill="#999999" stroke="#666666" points="565.5,-25.25 372.5,-25.25 372.5,0 565.5,0 565.5,-25.25"/>
<text text-anchor="middle" x="469" y="-7.95" font-family="Helvetica,sans-Serif" font-size="14.00">AnimatedObject::animate</text>
</a>
</g>
</g>
<!-- Node2 -->
<g id="Node000002" class="node">
<title>Node2</title>
<g id="a_Node000002"><a xlink:href="../../d1/db6/classEngine.html#ab87c318b38e62ced90a7b564c1ef17c6" target="_top" xlink:title="Draws animated objects.">
<polygon fill="white" stroke="#666666" points="336.5,-25.25 154.75,-25.25 154.75,0 336.5,0 336.5,-25.25"/>
<text text-anchor="middle" x="245.62" y="-7.95" font-family="Helvetica,sans-Serif" font-size="14.00">Engine::animateObjects</text>
</a>
</g>
</g>
<!-- Node1&#45;&gt;Node2 -->
<g id="edge1_Node000001_Node000002" class="edge">
<title>Node1&#45;&gt;Node2</title>
<g id="a_edge1_Node000001_Node000002"><a xlink:title=" ">
<path fill="none" stroke="#63b8ff" stroke-width="2" d="M359.25,-12.62C351.8,-12.62 344.33,-12.62 336.99,-12.62"/>
<polygon fill="#63b8ff" stroke="#63b8ff" stroke-width="2" points="359.16,-16.13 369.16,-12.63 359.16,-9.13 359.16,-16.13"/>
</a>
</g>
</g>
<!-- Node3 -->
<g id="Node000003" class="node">
<title>Node3</title>
<g id="a_Node000003"><a xlink:href="../../d1/db6/classEngine.html#a7960743aefd62e846e7f3cd92c18bc73" target="_top" xlink:title="Renders objects.">
<polygon fill="#fff0f0" stroke="red" points="118.75,-25.25 0,-25.25 0,0 118.75,0 118.75,-25.25"/>
<text text-anchor="middle" x="59.38" y="-7.95" font-family="Helvetica,sans-Serif" font-size="14.00">Engine::render</text>
</a>
</g>
</g>
<!-- Node2&#45;&gt;Node3 -->
<g id="edge2_Node000002_Node000003" class="edge">
<title>Node2&#45;&gt;Node3</title>
<g id="a_edge2_Node000002_Node000003"><a xlink:title=" ">
<path fill="none" stroke="#63b8ff" stroke-width="2" d="M141.53,-12.62C133.93,-12.62 126.42,-12.62 119.23,-12.62"/>
<polygon fill="#63b8ff" stroke="#63b8ff" stroke-width="2" points="141.36,-16.13 151.36,-12.63 141.36,-9.13 141.36,-16.13"/>
</a>
</g>
</g>
</g>
</svg>
