<?xml version="1.0" encoding="UTF-8" standalone="no"?>
<!DOCTYPE svg PUBLIC "-//W3C//DTD SVG 1.1//EN"
 "http://www.w3.org/Graphics/SVG/1.1/DTD/svg11.dtd">
<!-- Generated by graphviz version 9.0.0 (0)
 -->
<!-- Title: AnimatedObject::setPosition Pages: 1 -->
<svg width="441pt" height="76pt"
 viewBox="0.00 0.00 441.25 76.25" xmlns="http://www.w3.org/2000/svg" xmlns:xlink="http://www.w3.org/1999/xlink">
<g id="graph0" class="graph" transform="scale(1 1) rotate(0) translate(4 72.25)">
<title>AnimatedObject::setPosition</title>
<!-- Node1 -->
<g id="Node000001" class="node">
<title>Node1</title>
<g id="a_Node000001"><a xlink:title="Object position setter.">
<polygon fill="#999999" stroke="#666666" points="211.75,-46.25 0,-46.25 0,-21 211.75,-21 211.75,-46.25"/>
<text text-anchor="middle" x="105.88" y="-28.95" font-family="Helvetica,sans-Serif" font-size="14.00">AnimatedObject::setPosition</text>
</a>
</g>
</g>
<!-- Node2 -->
<g id="Node000002" class="node">
<title>Node2</title>
<g id="a_Node000002"><a xlink:href="../../de/d1c/classGameObject.html#ac8a2fe5f8491e4804ff43785c3be5d62" target="_top" xlink:title="Object position setter.">
<polygon fill="white" stroke="#666666" points="433.25,-68.25 247.75,-68.25 247.75,-43 433.25,-43 433.25,-68.25"/>
<text text-anchor="middle" x="340.5" y="-50.95" font-family="Helvetica,sans-Serif" font-size="14.00">GameObject::setPosition</text>
</a>
</g>
</g>
<!-- Node1&#45;&gt;Node2 -->
<g id="edge1_Node000001_Node000002" class="edge">
<title>Node1&#45;&gt;Node2</title>
<g id="a_edge1_Node000001_Node000002"><a xlink:title=" ">
<path fill="none" stroke="#63b8ff" stroke-width="2" d="M211.96,-43.56C219.43,-44.27 226.95,-44.98 234.42,-45.69"/>
<polygon fill="#63b8ff" stroke="#63b8ff" stroke-width="2" points="234.03,-49.17 244.32,-46.62 234.69,-42.2 234.03,-49.17"/>
</a>
</g>
</g>
<!-- Node3 -->
<g id="Node000003" class="node">
<title>Node3</title>
<g id="a_Node000003"><a xlink:href="../../d5/d5c/classPoint2d.html#a67d1225067ee31870cd80f774ac8f0b3" target="_top" xlink:title="Convert to Vector2f.">
<polygon fill="white" stroke="#666666" points="414.88,-25.25 266.12,-25.25 266.12,0 414.88,0 414.88,-25.25"/>
<text text-anchor="middle" x="340.5" y="-7.95" font-family="Helvetica,sans-Serif" font-size="14.00">Point2d::toVector2f</text>
</a>
</g>
</g>
<!-- Node1&#45;&gt;Node3 -->
<g id="edge2_Node000001_Node000003" class="edge">
<title>Node1&#45;&gt;Node3</title>
<g id="a_edge2_Node000001_Node000003"><a xlink:title=" ">
<path fill="none" stroke="#63b8ff" stroke-width="2" d="M211.96,-24.14C225.74,-22.89 239.73,-21.63 253.15,-20.42"/>
<polygon fill="#63b8ff" stroke="#63b8ff" stroke-width="2" points="253.15,-23.93 262.8,-19.55 252.52,-16.96 253.15,-23.93"/>
</a>
</g>
</g>
</g>
</svg>
