<?xml version="1.0" encoding="UTF-8" standalone="no"?>
<!DOCTYPE svg PUBLIC "-//W3C//DTD SVG 1.1//EN"
 "http://www.w3.org/Graphics/SVG/1.1/DTD/svg11.dtd">
<!-- Generated by graphviz version 9.0.0 (0)
 -->
<!-- Title: AnimatedObject Pages: 1 -->
<svg width="361pt" height="217pt"
 viewBox="0.00 0.00 360.50 217.00" xmlns="http://www.w3.org/2000/svg" xmlns:xlink="http://www.w3.org/1999/xlink">

<svg id="main" version="1.1" xmlns="http://www.w3.org/2000/svg" xmlns:xlink="http://www.w3.org/1999/xlink" xml:space="preserve" onload="init(evt)">
<style type="text/css"><![CDATA[
.node, .edge {opacity: 0.7;}
.node.selected, .edge.selected {opacity: 1;}
.edge:hover path { stroke: red; }
.edge:hover polygon { stroke: red; fill: red; }
]]></style>
<script type="application/ecmascript" xlink:href="../../svg.min.js"/>
<svg id="graph" class="graph">
<g id="graph0" class="graph" transform="scale(1 1) rotate(0) translate(4 213)">
<title>AnimatedObject</title>
<!-- Node1 -->
<g id="Node000001" class="node">
<title>Node1</title>
<g id="a_Node000001"><a xlink:title="Animated object class.">
<polygon fill="#999999" stroke="#666666" points="271.75,-147.75 144,-147.75 144,-122.5 271.75,-122.5 271.75,-147.75"/>
<text text-anchor="middle" x="207.88" y="-130.45" font-family="Helvetica,sans-Serif" font-size="14.00">AnimatedObject</text>
</a>
</g>
</g>
<!-- Node5 -->
<g id="Node000005" class="node">
<title>Node5</title>
<g id="a_Node000005"><a xlink:href="../../d4/dcd/classAnimatedSpriteSheet.html" target="_top" xlink:title=" ">
<polygon fill="white" stroke="#666666" points="163.75,-86.5 0,-86.5 0,-61.25 163.75,-61.25 163.75,-86.5"/>
<text text-anchor="middle" x="81.88" y="-69.2" font-family="Helvetica,sans-Serif" font-size="14.00">AnimatedSpriteSheet</text>
</a>
</g>
</g>
<!-- Node1&#45;&gt;Node5 -->
<g id="edge4_Node000001_Node000005" class="edge">
<title>Node1&#45;&gt;Node5</title>
<g id="a_edge4_Node000001_Node000005"><a xlink:title=" ">
<path fill="none" stroke="#63b8ff" stroke-width="2" d="M170.65,-116.62C150.26,-107.03 125.51,-95.4 107.34,-86.85"/>
<polygon fill="#63b8ff" stroke="#63b8ff" stroke-width="2" points="169.1,-119.76 179.64,-120.85 172.08,-113.42 169.1,-119.76"/>
</a>
</g>
</g>
<!-- Node7 -->
<g id="Node000007" class="node">
<title>Node7</title>
<g id="a_Node000007"><a xlink:href="../../df/dd5/classBush.html" target="_top" xlink:title=" ">
<polygon fill="white" stroke="#666666" points="233.5,-86.5 182.25,-86.5 182.25,-61.25 233.5,-61.25 233.5,-86.5"/>
<text text-anchor="middle" x="207.88" y="-69.2" font-family="Helvetica,sans-Serif" font-size="14.00">Bush</text>
</a>
</g>
</g>
<!-- Node1&#45;&gt;Node7 -->
<g id="edge6_Node000001_Node000007" class="edge">
<title>Node1&#45;&gt;Node7</title>
<g id="a_edge6_Node000001_Node000007"><a xlink:title=" ">
<path fill="none" stroke="#63b8ff" stroke-width="2" d="M207.88,-109.16C207.88,-101.43 207.88,-93.27 207.88,-86.85"/>
<polygon fill="#63b8ff" stroke="#63b8ff" stroke-width="2" points="204.38,-109.11 207.88,-119.11 211.38,-109.11 204.38,-109.11"/>
</a>
</g>
</g>
<!-- Node8 -->
<g id="Node000008" class="node">
<title>Node8</title>
<g id="a_Node000008"><a xlink:href="../../d2/d4b/classPlayer.html" target="_top" xlink:title="Player class.">
<polygon fill="white" stroke="#666666" points="310.25,-86.5 251.5,-86.5 251.5,-61.25 310.25,-61.25 310.25,-86.5"/>
<text text-anchor="middle" x="280.88" y="-69.2" font-family="Helvetica,sans-Serif" font-size="14.00">Player</text>
</a>
</g>
</g>
<!-- Node1&#45;&gt;Node8 -->
<g id="edge7_Node000001_Node000008" class="edge">
<title>Node1&#45;&gt;Node8</title>
<g id="a_edge7_Node000001_Node000008"><a xlink:title=" ">
<path fill="none" stroke="#63b8ff" stroke-width="2" d="M232.66,-114.01C243.78,-104.98 256.53,-94.63 266.12,-86.85"/>
<polygon fill="#63b8ff" stroke="#63b8ff" stroke-width="2" points="230.56,-111.21 225,-120.23 234.97,-116.64 230.56,-111.21"/>
</a>
</g>
</g>
<!-- Node2 -->
<g id="Node000002" class="node">
<title>Node2</title>
<g id="a_Node000002"><a xlink:href="../../de/d1c/classGameObject.html" target="_top" xlink:title="Game object class.">
<polygon fill="white" stroke="#666666" points="150.62,-209 49.12,-209 49.12,-183.75 150.62,-183.75 150.62,-209"/>
<text text-anchor="middle" x="99.88" y="-191.7" font-family="Helvetica,sans-Serif" font-size="14.00">GameObject</text>
</a>
</g>
</g>
<!-- Node2&#45;&gt;Node1 -->
<g id="edge1_Node000001_Node000002" class="edge">
<title>Node2&#45;&gt;Node1</title>
<g id="a_edge1_Node000001_Node000002"><a xlink:title=" ">
<path fill="none" stroke="#63b8ff" stroke-width="2" d="M133.02,-177.19C150.25,-167.74 170.84,-156.45 186.05,-148.1"/>
<polygon fill="#63b8ff" stroke="#63b8ff" stroke-width="2" points="131.47,-174.05 124.38,-181.93 134.84,-180.19 131.47,-174.05"/>
</a>
</g>
</g>
<!-- Node3 -->
<g id="Node000003" class="node">
<title>Node3</title>
<g id="a_Node000003"><a xlink:title=" ">
<polygon fill="white" stroke="#666666" points="247,-209 168.75,-209 168.75,-183.75 247,-183.75 247,-209"/>
<text text-anchor="middle" x="207.88" y="-191.7" font-family="Helvetica,sans-Serif" font-size="14.00">sf::Sprite</text>
</a>
</g>
</g>
<!-- Node3&#45;&gt;Node1 -->
<g id="edge2_Node000001_Node000003" class="edge">
<title>Node3&#45;&gt;Node1</title>
<g id="a_edge2_Node000001_Node000003"><a xlink:title=" ">
<path fill="none" stroke="#63b8ff" stroke-width="2" d="M207.88,-170.41C207.88,-162.68 207.88,-154.52 207.88,-148.1"/>
<polygon fill="#63b8ff" stroke="#63b8ff" stroke-width="2" points="204.38,-170.36 207.88,-180.36 211.38,-170.36 204.38,-170.36"/>
</a>
</g>
</g>
<!-- Node4 -->
<g id="Node000004" class="node">
<title>Node4</title>
<g id="a_Node000004"><a xlink:title=" ">
<polygon fill="white" stroke="#666666" points="352.5,-209 265.25,-209 265.25,-183.75 352.5,-183.75 352.5,-209"/>
<text text-anchor="middle" x="308.88" y="-191.7" font-family="Helvetica,sans-Serif" font-size="14.00">sf::Texture</text>
</a>
</g>
</g>
<!-- Node4&#45;&gt;Node1 -->
<g id="edge3_Node000001_Node000004" class="edge">
<title>Node4&#45;&gt;Node1</title>
<g id="a_edge3_Node000001_Node000004"><a xlink:title=" ">
<path fill="none" stroke="#63b8ff" stroke-width="2" d="M277.41,-176.92C261.39,-167.52 242.38,-156.37 228.28,-148.1"/>
<polygon fill="#63b8ff" stroke="#63b8ff" stroke-width="2" points="275.43,-179.81 285.83,-181.85 278.97,-173.77 275.43,-179.81"/>
</a>
</g>
</g>
<!-- Node6 -->
<g id="Node000006" class="node">
<title>Node6</title>
<g id="a_Node000006"><a xlink:href="../../de/dde/classFidgetSpinner.html" target="_top" xlink:title=" ">
<polygon fill="white" stroke="#666666" points="137.88,-25.25 25.87,-25.25 25.87,0 137.88,0 137.88,-25.25"/>
<text text-anchor="middle" x="81.88" y="-7.95" font-family="Helvetica,sans-Serif" font-size="14.00">FidgetSpinner</text>
</a>
</g>
</g>
<!-- Node5&#45;&gt;Node6 -->
<g id="edge5_Node000005_Node000006" class="edge">
<title>Node5&#45;&gt;Node6</title>
<g id="a_edge5_Node000005_Node000006"><a xlink:title=" ">
<path fill="none" stroke="#63b8ff" stroke-width="2" d="M81.88,-47.91C81.88,-40.18 81.88,-32.02 81.88,-25.6"/>
<polygon fill="#63b8ff" stroke="#63b8ff" stroke-width="2" points="78.38,-47.86 81.88,-57.86 85.38,-47.86 78.38,-47.86"/>
</a>
</g>
</g>
<!-- Node9 -->
<g id="Node000009" class="node">
<title>Node9</title>
<g id="a_Node000009"><a xlink:href="../../df/d0d/classGamePlayer.html" target="_top" xlink:title=" ">
<polygon fill="white" stroke="#666666" points="330.5,-25.25 231.25,-25.25 231.25,0 330.5,0 330.5,-25.25"/>
<text text-anchor="middle" x="280.88" y="-7.95" font-family="Helvetica,sans-Serif" font-size="14.00">GamePlayer</text>
</a>
</g>
</g>
<!-- Node8&#45;&gt;Node9 -->
<g id="edge8_Node000008_Node000009" class="edge">
<title>Node8&#45;&gt;Node9</title>
<g id="a_edge8_Node000008_Node000009"><a xlink:title=" ">
<path fill="none" stroke="#63b8ff" stroke-width="2" d="M280.88,-47.91C280.88,-40.18 280.88,-32.02 280.88,-25.6"/>
<polygon fill="#63b8ff" stroke="#63b8ff" stroke-width="2" points="277.38,-47.86 280.88,-57.86 284.38,-47.86 277.38,-47.86"/>
</a>
</g>
</g>
</g>
</svg>
</svg>

<style type='text/css'>
<![CDATA[
[data-mouse-over-selected='false'] { opacity: 0.7; }
[data-mouse-over-selected='true']  { opacity: 1.0; }
]]>
</style>
<script type="application/ecmascript"><![CDATA[
document.addEventListener('DOMContentLoaded', (event) => {
  highlightEdges();
  highlightAdjacentNodes();
});
]]></script>
</svg>
