<?xml version="1.0" encoding="UTF-8" standalone="no"?>
<!DOCTYPE svg PUBLIC "-//W3C//DTD SVG 1.1//EN"
 "http://www.w3.org/Graphics/SVG/1.1/DTD/svg11.dtd">
<!-- Generated by graphviz version 9.0.0 (0)
 -->
<!-- Title: point2d.cpp Pages: 1 -->
<svg width="695pt" height="156pt"
 viewBox="0.00 0.00 694.50 155.75" xmlns="http://www.w3.org/2000/svg" xmlns:xlink="http://www.w3.org/1999/xlink">
<g id="graph0" class="graph" transform="scale(1 1) rotate(0) translate(4 151.75)">
<title>point2d.cpp</title>
<!-- Node1 -->
<g id="Node000001" class="node">
<title>Node1</title>
<g id="a_Node000001"><a xlink:title=" ">
<polygon fill="#999999" stroke="#666666" points="405.38,-147.75 306.12,-147.75 306.12,-122.5 405.38,-122.5 405.38,-147.75"/>
<text text-anchor="middle" x="355.75" y="-130.45" font-family="Helvetica,sans-Serif" font-size="14.00">point2d.cpp</text>
</a>
</g>
</g>
<!-- Node2 -->
<g id="Node000002" class="node">
<title>Node2</title>
<g id="a_Node000002"><a xlink:href="../../d9/d03/point2d_8hpp.html" target="_top" xlink:title=" ">
<polygon fill="white" stroke="#666666" points="225.12,-86.5 124.38,-86.5 124.38,-61.25 225.12,-61.25 225.12,-86.5"/>
<text text-anchor="middle" x="174.75" y="-69.2" font-family="Helvetica,sans-Serif" font-size="14.00">point2d.hpp</text>
</a>
</g>
</g>
<!-- Node1&#45;&gt;Node2 -->
<g id="edge1_Node000001_Node000002" class="edge">
<title>Node1&#45;&gt;Node2</title>
<g id="a_edge1_Node000001_Node000002"><a xlink:title=" ">
<path fill="none" stroke="#63b8ff" stroke-width="2" d="M319.12,-122.13C291.73,-113.17 254,-100.82 223.98,-90.99"/>
<polygon fill="#63b8ff" stroke="#63b8ff" stroke-width="2" points="225.1,-87.68 214.51,-87.89 222.93,-94.33 225.1,-87.68"/>
</a>
</g>
</g>
<!-- Node3 -->
<g id="Node000003" class="node">
<title>Node3</title>
<g id="a_Node000003"><a xlink:title=" ">
<polygon fill="#e0e0e0" stroke="#999999" points="197.5,-25.25 0,-25.25 0,0 197.5,0 197.5,-25.25"/>
<text text-anchor="middle" x="98.75" y="-7.95" font-family="Helvetica,sans-Serif" font-size="14.00">SFML/System/Vector2.hpp</text>
</a>
</g>
</g>
<!-- Node1&#45;&gt;Node3 -->
<g id="edge4_Node000001_Node000003" class="edge">
<title>Node1&#45;&gt;Node3</title>
<g id="a_edge4_Node000001_Node000003"><a xlink:title=" ">
<path fill="none" stroke="#63b8ff" stroke-width="2" d="M305.83,-130.5C243.64,-124.96 142.31,-112.19 115.75,-86.5 102.97,-74.13 98.99,-54.15 98.06,-38.24"/>
<polygon fill="#63b8ff" stroke="#63b8ff" stroke-width="2" points="101.57,-38.57 97.93,-28.62 94.57,-38.67 101.57,-38.57"/>
</a>
</g>
</g>
<!-- Node4 -->
<g id="Node000004" class="node">
<title>Node4</title>
<g id="a_Node000004"><a xlink:title=" ">
<polygon fill="#e0e0e0" stroke="#999999" points="288.88,-25.25 216.62,-25.25 216.62,0 288.88,0 288.88,-25.25"/>
<text text-anchor="middle" x="252.75" y="-7.95" font-family="Helvetica,sans-Serif" font-size="14.00">ostream</text>
</a>
</g>
</g>
<!-- Node1&#45;&gt;Node4 -->
<g id="edge11_Node000001_Node000004" class="edge">
<title>Node1&#45;&gt;Node4</title>
<g id="a_edge11_Node000001_Node000004"><a xlink:title=" ">
<path fill="none" stroke="#63b8ff" stroke-width="2" d="M321.46,-122.16C304.19,-114.49 284.31,-102.85 271.75,-86.5 261.14,-72.69 256.43,-53.52 254.35,-38.3"/>
<polygon fill="#63b8ff" stroke="#63b8ff" stroke-width="2" points="257.87,-38.33 253.39,-28.72 250.9,-39.02 257.87,-38.33"/>
</a>
</g>
</g>
<!-- Node5 -->
<g id="Node000005" class="node">
<title>Node5</title>
<g id="a_Node000005"><a xlink:href="../../d4/d3d/log_8hpp.html" target="_top" xlink:title=" ">
<polygon fill="white" stroke="#666666" points="349,-86.5 280.5,-86.5 280.5,-61.25 349,-61.25 349,-86.5"/>
<text text-anchor="middle" x="314.75" y="-69.2" font-family="Helvetica,sans-Serif" font-size="14.00">log.hpp</text>
</a>
</g>
</g>
<!-- Node1&#45;&gt;Node5 -->
<g id="edge5_Node000001_Node000005" class="edge">
<title>Node1&#45;&gt;Node5</title>
<g id="a_edge5_Node000001_Node000005"><a xlink:title=" ">
<path fill="none" stroke="#63b8ff" stroke-width="2" d="M347.45,-122.13C342.56,-115.07 336.22,-105.9 330.42,-97.51"/>
<polygon fill="#63b8ff" stroke="#63b8ff" stroke-width="2" points="333.33,-95.57 324.76,-89.34 327.57,-99.55 333.33,-95.57"/>
</a>
</g>
</g>
<!-- Node6 -->
<g id="Node000006" class="node">
<title>Node6</title>
<g id="a_Node000006"><a xlink:title=" ">
<polygon fill="#e0e0e0" stroke="#999999" points="426.5,-86.5 367,-86.5 367,-61.25 426.5,-61.25 426.5,-86.5"/>
<text text-anchor="middle" x="396.75" y="-69.2" font-family="Helvetica,sans-Serif" font-size="14.00">cmath</text>
</a>
</g>
</g>
<!-- Node1&#45;&gt;Node6 -->
<g id="edge7_Node000001_Node000006" class="edge">
<title>Node1&#45;&gt;Node6</title>
<g id="a_edge7_Node000001_Node000006"><a xlink:title=" ">
<path fill="none" stroke="#63b8ff" stroke-width="2" d="M364.05,-122.13C368.94,-115.07 375.28,-105.9 381.08,-97.51"/>
<polygon fill="#63b8ff" stroke="#63b8ff" stroke-width="2" points="383.93,-99.55 386.74,-89.34 378.17,-95.57 383.93,-99.55"/>
</a>
</g>
</g>
<!-- Node7 -->
<g id="Node000007" class="node">
<title>Node7</title>
<g id="a_Node000007"><a xlink:title=" ">
<polygon fill="#e0e0e0" stroke="#999999" points="512.62,-86.5 444.88,-86.5 444.88,-61.25 512.62,-61.25 512.62,-86.5"/>
<text text-anchor="middle" x="478.75" y="-69.2" font-family="Helvetica,sans-Serif" font-size="14.00">istream</text>
</a>
</g>
</g>
<!-- Node1&#45;&gt;Node7 -->
<g id="edge8_Node000001_Node000007" class="edge">
<title>Node1&#45;&gt;Node7</title>
<g id="a_edge8_Node000001_Node000007"><a xlink:title=" ">
<path fill="none" stroke="#63b8ff" stroke-width="2" d="M380.64,-122.13C398.31,-113.62 422.33,-102.05 442.17,-92.49"/>
<polygon fill="#63b8ff" stroke="#63b8ff" stroke-width="2" points="443.68,-95.65 451.17,-88.16 440.64,-89.35 443.68,-95.65"/>
</a>
</g>
</g>
<!-- Node8 -->
<g id="Node000008" class="node">
<title>Node8</title>
<g id="a_Node000008"><a xlink:title=" ">
<polygon fill="#e0e0e0" stroke="#999999" points="597.25,-86.5 530.25,-86.5 530.25,-61.25 597.25,-61.25 597.25,-86.5"/>
<text text-anchor="middle" x="563.75" y="-69.2" font-family="Helvetica,sans-Serif" font-size="14.00">iterator</text>
</a>
</g>
</g>
<!-- Node1&#45;&gt;Node8 -->
<g id="edge9_Node000001_Node000008" class="edge">
<title>Node1&#45;&gt;Node8</title>
<g id="a_edge9_Node000001_Node000008"><a xlink:title=" ">
<path fill="none" stroke="#63b8ff" stroke-width="2" d="M398.09,-122.06C432.79,-112.18 481.82,-98.21 517.54,-88.04"/>
<polygon fill="#63b8ff" stroke="#63b8ff" stroke-width="2" points="518.47,-91.41 527.13,-85.31 516.55,-84.68 518.47,-91.41"/>
</a>
</g>
</g>
<!-- Node9 -->
<g id="Node000009" class="node">
<title>Node9</title>
<g id="a_Node000009"><a xlink:title=" ">
<polygon fill="#e0e0e0" stroke="#999999" points="686.5,-86.5 615,-86.5 615,-61.25 686.5,-61.25 686.5,-86.5"/>
<text text-anchor="middle" x="650.75" y="-69.2" font-family="Helvetica,sans-Serif" font-size="14.00">optional</text>
</a>
</g>
</g>
<!-- Node1&#45;&gt;Node9 -->
<g id="edge10_Node000001_Node000009" class="edge">
<title>Node1&#45;&gt;Node9</title>
<g id="a_edge10_Node000001_Node000009"><a xlink:title=" ">
<path fill="none" stroke="#63b8ff" stroke-width="2" d="M405.49,-125.76C453.61,-117.43 528.86,-103.77 602.5,-87.37"/>
<polygon fill="#63b8ff" stroke="#63b8ff" stroke-width="2" points="602.84,-90.88 611.83,-85.26 601.3,-84.05 602.84,-90.88"/>
</a>
</g>
</g>
<!-- Node2&#45;&gt;Node3 -->
<g id="edge2_Node000002_Node000003" class="edge">
<title>Node2&#45;&gt;Node3</title>
<g id="a_edge2_Node000002_Node000003"><a xlink:title=" ">
<path fill="none" stroke="#63b8ff" stroke-width="2" d="M159.37,-60.88C149.27,-53.01 135.83,-42.53 124.17,-33.44"/>
<polygon fill="#63b8ff" stroke="#63b8ff" stroke-width="2" points="126.53,-30.85 116.49,-27.46 122.23,-36.37 126.53,-30.85"/>
</a>
</g>
</g>
<!-- Node2&#45;&gt;Node4 -->
<g id="edge3_Node000002_Node000004" class="edge">
<title>Node2&#45;&gt;Node4</title>
<g id="a_edge3_Node000002_Node000004"><a xlink:title=" ">
<path fill="none" stroke="#63b8ff" stroke-width="2" d="M190.53,-60.88C200.9,-53.01 214.69,-42.53 226.66,-33.44"/>
<polygon fill="#63b8ff" stroke="#63b8ff" stroke-width="2" points="228.73,-36.26 234.58,-27.43 224.5,-30.69 228.73,-36.26"/>
</a>
</g>
</g>
<!-- Node5&#45;&gt;Node4 -->
<g id="edge6_Node000005_Node000004" class="edge">
<title>Node5&#45;&gt;Node4</title>
<g id="a_edge6_Node000005_Node000004"><a xlink:title=" ">
<path fill="none" stroke="#63b8ff" stroke-width="2" d="M302.2,-60.88C294.3,-53.34 283.89,-43.38 274.66,-34.56"/>
<polygon fill="#63b8ff" stroke="#63b8ff" stroke-width="2" points="277.11,-32.07 267.47,-27.69 272.28,-37.13 277.11,-32.07"/>
</a>
</g>
</g>
</g>
</svg>
