<?xml version="1.0" encoding="UTF-8" standalone="no"?>
<!DOCTYPE svg PUBLIC "-//W3C//DTD SVG 1.1//EN"
 "http://www.w3.org/Graphics/SVG/1.1/DTD/svg11.dtd">
<!-- Generated by graphviz version 9.0.0 (0)
 -->
<!-- Title: Ball Pages: 1 -->
<svg width="582pt" height="174pt"
 viewBox="0.00 0.00 581.50 174.00" xmlns="http://www.w3.org/2000/svg" xmlns:xlink="http://www.w3.org/1999/xlink">
<g id="graph0" class="graph" transform="scale(1 1) rotate(0) translate(4 170)">
<title>Ball</title>
<!-- Node1 -->
<g id="Node000001" class="node">
<title>Node1</title>
<g id="a_Node000001"><a xlink:title=" ">
<polygon fill="#999999" stroke="#666666" points="344,-25.25 302.5,-25.25 302.5,0 344,0 344,-25.25"/>
<text text-anchor="middle" x="323.25" y="-7.95" font-family="Helvetica,sans-Serif" font-size="14.00">Ball</text>
</a>
</g>
</g>
<!-- Node2 -->
<g id="Node000002" class="node">
<title>Node2</title>
<g id="a_Node000002"><a xlink:href="../../de/d1c/classGameObject.html" target="_top" xlink:title="Game object class.">
<polygon fill="white" stroke="#666666" points="278,-87.5 176.5,-87.5 176.5,-62.25 278,-62.25 278,-87.5"/>
<text text-anchor="middle" x="227.25" y="-70.2" font-family="Helvetica,sans-Serif" font-size="14.00">GameObject</text>
</a>
</g>
</g>
<!-- Node2&#45;&gt;Node1 -->
<g id="edge1_Node000001_Node000002" class="edge">
<title>Node2&#45;&gt;Node1</title>
<g id="a_edge1_Node000001_Node000002"><a xlink:title=" ">
<path fill="none" stroke="#63b8ff" stroke-width="2" d="M257.21,-55.07C272.48,-45.49 290.6,-34.12 303.99,-25.71"/>
<polygon fill="#63b8ff" stroke="#63b8ff" stroke-width="2" points="255.39,-52.08 248.78,-60.36 259.11,-58.01 255.39,-52.08"/>
</a>
</g>
</g>
<!-- Node3 -->
<g id="Node000003" class="node">
<title>Node3</title>
<g id="a_Node000003"><a xlink:href="../../d5/d5c/classPoint2d.html" target="_top" xlink:title="Class containing 2D point co&#45;ordinates.">
<polygon fill="white" stroke="#666666" points="68.5,-166 0,-166 0,-140.75 68.5,-140.75 68.5,-166"/>
<text text-anchor="middle" x="34.25" y="-148.7" font-family="Helvetica,sans-Serif" font-size="14.00">Point2d</text>
</a>
</g>
</g>
<!-- Node3&#45;&gt;Node1 -->
<g id="edge5_Node000001_Node000003" class="edge">
<title>Node3&#45;&gt;Node1</title>
<g id="a_edge5_Node000001_Node000003"><a xlink:title=" ">
<path fill="none" stroke="#9a32cd" stroke-width="2" stroke-dasharray="5,2" d="M23.85,-128.46C16.94,-108.44 11.65,-80.32 27,-62.25 62.59,-20.34 240.77,-14.48 302.31,-13.72"/>
<polygon fill="#9a32cd" stroke="#9a32cd" stroke-width="2" points="20.56,-129.66 27.45,-137.71 27.09,-127.12 20.56,-129.66"/>
</a>
</g>
<text text-anchor="middle" x="97.38" y="-70.2" font-family="Helvetica,sans-Serif" font-size="14.00" fill="grey"> m_moveVectorBase</text>
</g>
<!-- Node3&#45;&gt;Node2 -->
<g id="edge2_Node000002_Node000003" class="edge">
<title>Node3&#45;&gt;Node2</title>
<g id="a_edge2_Node000002_Node000003"><a xlink:title=" ">
<path fill="none" stroke="#9a32cd" stroke-width="2" stroke-dasharray="5,2" d="M76.52,-135.62C112.87,-121.21 164.4,-100.79 196.81,-87.94"/>
<polygon fill="#9a32cd" stroke="#9a32cd" stroke-width="2" points="75.65,-132.2 67.65,-139.14 78.23,-138.71 75.65,-132.2"/>
</a>
</g>
<text text-anchor="middle" x="188" y="-109.45" font-family="Helvetica,sans-Serif" font-size="14.00" fill="grey"> m_position</text>
</g>
<!-- Node4 -->
<g id="Node000004" class="node">
<title>Node4</title>
<g id="a_Node000004"><a xlink:title=" ">
<polygon fill="white" stroke="#666666" points="414.62,-87.5 295.88,-87.5 295.88,-62.25 414.62,-62.25 414.62,-87.5"/>
<text text-anchor="middle" x="355.25" y="-70.2" font-family="Helvetica,sans-Serif" font-size="14.00">sf::CircleShape</text>
</a>
</g>
</g>
<!-- Node4&#45;&gt;Node1 -->
<g id="edge3_Node000001_Node000004" class="edge">
<title>Node4&#45;&gt;Node1</title>
<g id="a_edge3_Node000001_Node000004"><a xlink:title=" ">
<path fill="none" stroke="#63b8ff" stroke-width="2" d="M342.92,-50.66C338.36,-42.07 333.37,-32.68 329.56,-25.5"/>
<polygon fill="#63b8ff" stroke="#63b8ff" stroke-width="2" points="339.73,-52.11 347.51,-59.3 345.91,-48.82 339.73,-52.11"/>
</a>
</g>
</g>
<!-- Node5 -->
<g id="Node000005" class="node">
<title>Node5</title>
<g id="a_Node000005"><a xlink:href="../../de/dd3/classUpdateableObject.html" target="_top" xlink:title="Updateable object class.">
<polygon fill="white" stroke="#666666" points="573.5,-87.5 433,-87.5 433,-62.25 573.5,-62.25 573.5,-87.5"/>
<text text-anchor="middle" x="503.25" y="-70.2" font-family="Helvetica,sans-Serif" font-size="14.00">UpdateableObject</text>
</a>
</g>
</g>
<!-- Node5&#45;&gt;Node1 -->
<g id="edge4_Node000001_Node000005" class="edge">
<title>Node5&#45;&gt;Node1</title>
<g id="a_edge4_Node000001_Node000005"><a xlink:title=" ">
<path fill="none" stroke="#63b8ff" stroke-width="2" d="M455.02,-57.73C418.9,-45.64 371.26,-29.7 344.28,-20.66"/>
<polygon fill="#63b8ff" stroke="#63b8ff" stroke-width="2" points="453.79,-61.01 464.39,-60.87 456.01,-54.37 453.79,-61.01"/>
</a>
</g>
</g>
</g>
</svg>
