<?xml version="1.0" encoding="UTF-8" standalone="no"?>
<!DOCTYPE svg PUBLIC "-//W3C//DTD SVG 1.1//EN"
 "http://www.w3.org/Graphics/SVG/1.1/DTD/svg11.dtd">
<!-- Generated by graphviz version 9.0.0 (0)
 -->
<!-- Title: ball.hpp Pages: 1 -->
<svg width="907pt" height="217pt"
 viewBox="0.00 0.00 907.25 217.00" xmlns="http://www.w3.org/2000/svg" xmlns:xlink="http://www.w3.org/1999/xlink">
<g id="graph0" class="graph" transform="scale(1 1) rotate(0) translate(4 213)">
<title>ball.hpp</title>
<!-- Node1 -->
<g id="Node000001" class="node">
<title>Node1</title>
<g id="a_Node000001"><a xlink:title=" ">
<polygon fill="#999999" stroke="#666666" points="413.12,-209 340.88,-209 340.88,-183.75 413.12,-183.75 413.12,-209"/>
<text text-anchor="middle" x="377" y="-191.7" font-family="Helvetica,sans-Serif" font-size="14.00">ball.hpp</text>
</a>
</g>
</g>
<!-- Node2 -->
<g id="Node000002" class="node">
<title>Node2</title>
<g id="a_Node000002"><a xlink:href="../../d4/db5/GameObject_8hpp.html" target="_top" xlink:title=" ">
<polygon fill="white" stroke="#666666" points="217.5,-86.5 84.5,-86.5 84.5,-61.25 217.5,-61.25 217.5,-86.5"/>
<text text-anchor="middle" x="151" y="-69.2" font-family="Helvetica,sans-Serif" font-size="14.00">GameObject.hpp</text>
</a>
</g>
</g>
<!-- Node1&#45;&gt;Node2 -->
<g id="edge1_Node000001_Node000002" class="edge">
<title>Node1&#45;&gt;Node2</title>
<g id="a_edge1_Node000001_Node000002"><a xlink:title=" ">
<path fill="none" stroke="#63b8ff" stroke-width="2" d="M340.39,-187.81C309.97,-180.51 266.28,-167.6 232,-147.75 208.14,-133.93 185.2,-112.23 169.86,-96.09"/>
<polygon fill="#63b8ff" stroke="#63b8ff" stroke-width="2" points="172.76,-94.08 163.4,-89.11 167.62,-98.83 172.76,-94.08"/>
</a>
</g>
</g>
<!-- Node4 -->
<g id="Node000004" class="node">
<title>Node4</title>
<g id="a_Node000004"><a xlink:href="../../d9/d03/point2d_8hpp.html" target="_top" xlink:title=" ">
<polygon fill="#fff0f0" stroke="red" points="338.38,-25.25 237.62,-25.25 237.62,0 338.38,0 338.38,-25.25"/>
<text text-anchor="middle" x="288" y="-7.95" font-family="Helvetica,sans-Serif" font-size="14.00">point2d.hpp</text>
</a>
</g>
</g>
<!-- Node1&#45;&gt;Node4 -->
<g id="edge11_Node000001_Node000004" class="edge">
<title>Node1&#45;&gt;Node4</title>
<g id="a_edge11_Node000001_Node000004"><a xlink:title=" ">
<path fill="none" stroke="#63b8ff" stroke-width="2" d="M342.32,-183.32C324.36,-175.56 303.27,-163.89 289,-147.75 262.57,-117.86 256.1,-100.14 265,-61.25 266.89,-52.99 270.4,-44.5 274.13,-37.02"/>
<polygon fill="#63b8ff" stroke="#63b8ff" stroke-width="2" points="277.19,-38.71 278.89,-28.25 271.04,-35.37 277.19,-38.71"/>
</a>
</g>
</g>
<!-- Node7 -->
<g id="Node000007" class="node">
<title>Node7</title>
<g id="a_Node000007"><a xlink:title=" ">
<polygon fill="#e0e0e0" stroke="#999999" points="710.25,-147.75 473.75,-147.75 473.75,-122.5 710.25,-122.5 710.25,-147.75"/>
<text text-anchor="middle" x="592" y="-130.45" font-family="Helvetica,sans-Serif" font-size="14.00">SFML/Graphics/CircleShape.hpp</text>
</a>
</g>
</g>
<!-- Node1&#45;&gt;Node7 -->
<g id="edge4_Node000001_Node000007" class="edge">
<title>Node1&#45;&gt;Node7</title>
<g id="a_edge4_Node000001_Node000007"><a xlink:title=" ">
<path fill="none" stroke="#63b8ff" stroke-width="2" d="M413.47,-185.32C447.02,-176.08 497.27,-162.23 535.92,-151.58"/>
<polygon fill="#63b8ff" stroke="#63b8ff" stroke-width="2" points="536.66,-155.01 545.37,-148.98 534.8,-148.26 536.66,-155.01"/>
</a>
</g>
</g>
<!-- Node8 -->
<g id="Node000008" class="node">
<title>Node8</title>
<g id="a_Node000008"><a xlink:href="../../dc/d3e/animatedObject_8hpp.html" target="_top" xlink:title=" ">
<polygon fill="white" stroke="#666666" points="455.88,-147.75 298.12,-147.75 298.12,-122.5 455.88,-122.5 455.88,-147.75"/>
<text text-anchor="middle" x="377" y="-130.45" font-family="Helvetica,sans-Serif" font-size="14.00">animatedObject.hpp</text>
</a>
</g>
</g>
<!-- Node1&#45;&gt;Node8 -->
<g id="edge5_Node000001_Node000008" class="edge">
<title>Node1&#45;&gt;Node8</title>
<g id="a_edge5_Node000001_Node000008"><a xlink:title=" ">
<path fill="none" stroke="#63b8ff" stroke-width="2" d="M377,-183.38C377,-176.96 377,-168.8 377,-161.07"/>
<polygon fill="#63b8ff" stroke="#63b8ff" stroke-width="2" points="380.5,-161.12 377,-151.12 373.5,-161.12 380.5,-161.12"/>
</a>
</g>
</g>
<!-- Node12 -->
<g id="Node000012" class="node">
<title>Node12</title>
<g id="a_Node000012"><a xlink:href="../../dd/d85/updateableObject_8hpp.html" target="_top" xlink:title=" ">
<polygon fill="white" stroke="#666666" points="899.25,-147.75 728.75,-147.75 728.75,-122.5 899.25,-122.5 899.25,-147.75"/>
<text text-anchor="middle" x="814" y="-130.45" font-family="Helvetica,sans-Serif" font-size="14.00">updateableObject.hpp</text>
</a>
</g>
</g>
<!-- Node1&#45;&gt;Node12 -->
<g id="edge12_Node000001_Node000012" class="edge">
<title>Node1&#45;&gt;Node12</title>
<g id="a_edge12_Node000001_Node000012"><a xlink:title=" ">
<path fill="none" stroke="#63b8ff" stroke-width="2" d="M413.51,-190.43C479.37,-181.5 620.13,-162.41 715.95,-149.42"/>
<polygon fill="#63b8ff" stroke="#63b8ff" stroke-width="2" points="716.13,-152.93 725.57,-148.11 715.19,-145.99 716.13,-152.93"/>
</a>
</g>
</g>
<!-- Node3 -->
<g id="Node000003" class="node">
<title>Node3</title>
<g id="a_Node000003"><a xlink:title=" ">
<polygon fill="#e0e0e0" stroke="#999999" points="220,-25.25 0,-25.25 0,0 220,0 220,-25.25"/>
<text text-anchor="middle" x="110" y="-7.95" font-family="Helvetica,sans-Serif" font-size="14.00">SFML/Graphics/Drawable.hpp</text>
</a>
</g>
</g>
<!-- Node2&#45;&gt;Node3 -->
<g id="edge2_Node000002_Node000003" class="edge">
<title>Node2&#45;&gt;Node3</title>
<g id="a_edge2_Node000002_Node000003"><a xlink:title=" ">
<path fill="none" stroke="#63b8ff" stroke-width="2" d="M142.7,-60.88C137.81,-53.82 131.47,-44.65 125.67,-36.26"/>
<polygon fill="#63b8ff" stroke="#63b8ff" stroke-width="2" points="128.58,-34.32 120.01,-28.09 122.82,-38.3 128.58,-34.32"/>
</a>
</g>
</g>
<!-- Node2&#45;&gt;Node4 -->
<g id="edge3_Node000002_Node000004" class="edge">
<title>Node2&#45;&gt;Node4</title>
<g id="a_edge3_Node000002_Node000004"><a xlink:title=" ">
<path fill="none" stroke="#63b8ff" stroke-width="2" d="M178.72,-60.88C198.78,-52.21 226.17,-40.37 248.5,-30.71"/>
<polygon fill="#63b8ff" stroke="#63b8ff" stroke-width="2" points="249.75,-33.98 257.54,-26.8 246.97,-27.56 249.75,-33.98"/>
</a>
</g>
</g>
<!-- Node8&#45;&gt;Node2 -->
<g id="edge6_Node000008_Node000002" class="edge">
<title>Node8&#45;&gt;Node2</title>
<g id="a_edge6_Node000008_Node000002"><a xlink:title=" ">
<path fill="none" stroke="#63b8ff" stroke-width="2" d="M330.99,-122.06C295.86,-112.85 247.2,-100.1 209.34,-90.17"/>
<polygon fill="#63b8ff" stroke="#63b8ff" stroke-width="2" points="210.43,-86.84 199.87,-87.69 208.66,-93.61 210.43,-86.84"/>
</a>
</g>
</g>
<!-- Node8&#45;&gt;Node4 -->
<g id="edge9_Node000008_Node000004" class="edge">
<title>Node8&#45;&gt;Node4</title>
<g id="a_edge9_Node000008_Node000004"><a xlink:title=" ">
<path fill="none" stroke="#63b8ff" stroke-width="2" d="M441.07,-122C492.73,-111.58 558.08,-96.66 566,-86.5 572.9,-77.65 573.23,-69.83 566,-61.25 539.12,-29.38 425.01,-18.84 351.6,-15.35"/>
<polygon fill="#63b8ff" stroke="#63b8ff" stroke-width="2" points="352.01,-11.86 341.87,-14.92 351.71,-18.86 352.01,-11.86"/>
</a>
</g>
</g>
<!-- Node9 -->
<g id="Node000009" class="node">
<title>Node9</title>
<g id="a_Node000009"><a xlink:title=" ">
<polygon fill="#e0e0e0" stroke="#999999" points="809,-86.5 613,-86.5 613,-61.25 809,-61.25 809,-86.5"/>
<text text-anchor="middle" x="711" y="-69.2" font-family="Helvetica,sans-Serif" font-size="14.00">SFML/Graphics/Sprite.hpp</text>
</a>
</g>
</g>
<!-- Node8&#45;&gt;Node9 -->
<g id="edge7_Node000008_Node000009" class="edge">
<title>Node8&#45;&gt;Node9</title>
<g id="a_edge7_Node000008_Node000009"><a xlink:title=" ">
<path fill="none" stroke="#63b8ff" stroke-width="2" d="M444.99,-122.06C498.63,-112.55 573.6,-99.25 630.29,-89.19"/>
<polygon fill="#63b8ff" stroke="#63b8ff" stroke-width="2" points="630.6,-92.69 639.84,-87.5 629.38,-85.8 630.6,-92.69"/>
</a>
</g>
</g>
<!-- Node10 -->
<g id="Node000010" class="node">
<title>Node10</title>
<g id="a_Node000010"><a xlink:title=" ">
<polygon fill="#e0e0e0" stroke="#999999" points="479.5,-86.5 274.5,-86.5 274.5,-61.25 479.5,-61.25 479.5,-86.5"/>
<text text-anchor="middle" x="377" y="-69.2" font-family="Helvetica,sans-Serif" font-size="14.00">SFML/Graphics/Texture.hpp</text>
</a>
</g>
</g>
<!-- Node8&#45;&gt;Node10 -->
<g id="edge8_Node000008_Node000010" class="edge">
<title>Node8&#45;&gt;Node10</title>
<g id="a_edge8_Node000008_Node000010"><a xlink:title=" ">
<path fill="none" stroke="#63b8ff" stroke-width="2" d="M377,-122.13C377,-115.71 377,-107.55 377,-99.82"/>
<polygon fill="#63b8ff" stroke="#63b8ff" stroke-width="2" points="380.5,-99.87 377,-89.87 373.5,-99.87 380.5,-99.87"/>
</a>
</g>
</g>
<!-- Node11 -->
<g id="Node000011" class="node">
<title>Node11</title>
<g id="a_Node000011"><a xlink:title=" ">
<polygon fill="#e0e0e0" stroke="#999999" points="556.75,-86.5 497.25,-86.5 497.25,-61.25 556.75,-61.25 556.75,-86.5"/>
<text text-anchor="middle" x="527" y="-69.2" font-family="Helvetica,sans-Serif" font-size="14.00">vector</text>
</a>
</g>
</g>
<!-- Node8&#45;&gt;Node11 -->
<g id="edge10_Node000008_Node000011" class="edge">
<title>Node8&#45;&gt;Node11</title>
<g id="a_edge10_Node000008_Node000011"><a xlink:title=" ">
<path fill="none" stroke="#63b8ff" stroke-width="2" d="M407.35,-122.13C429.69,-113.31 460.33,-101.21 485.02,-91.46"/>
<polygon fill="#63b8ff" stroke="#63b8ff" stroke-width="2" points="486.12,-94.79 494.13,-87.86 483.54,-88.28 486.12,-94.79"/>
</a>
</g>
</g>
</g>
</svg>
