<?xml version="1.0" encoding="UTF-8" standalone="no"?>
<!DOCTYPE svg PUBLIC "-//W3C//DTD SVG 1.1//EN"
 "http://www.w3.org/Graphics/SVG/1.1/DTD/svg11.dtd">
<!-- Generated by graphviz version 9.0.0 (0)
 -->
<!-- Title: engine.hpp Pages: 1 -->
<svg width="1355pt" height="95pt"
 viewBox="0.00 0.00 1355.12 94.50" xmlns="http://www.w3.org/2000/svg" xmlns:xlink="http://www.w3.org/1999/xlink">
<g id="graph0" class="graph" transform="scale(1 1) rotate(0) translate(4 90.5)">
<title>engine.hpp</title>
<!-- Node1 -->
<g id="Node000001" class="node">
<title>Node1</title>
<g id="a_Node000001"><a xlink:title=" ">
<polygon fill="#999999" stroke="#666666" points="777.5,-86.5 682.75,-86.5 682.75,-61.25 777.5,-61.25 777.5,-86.5"/>
<text text-anchor="middle" x="730.12" y="-69.2" font-family="Helvetica,sans-Serif" font-size="14.00">engine.hpp</text>
</a>
</g>
</g>
<!-- Node2 -->
<g id="Node000002" class="node">
<title>Node2</title>
<g id="a_Node000002"><a xlink:href="../../df/db1/animatedSpriteSheet_8cpp.html" target="_top" xlink:title=" ">
<polygon fill="white" stroke="#666666" points="192.25,-25.25 0,-25.25 0,0 192.25,0 192.25,-25.25"/>
<text text-anchor="middle" x="96.12" y="-7.95" font-family="Helvetica,sans-Serif" font-size="14.00">animatedSpriteSheet.cpp</text>
</a>
</g>
</g>
<!-- Node1&#45;&gt;Node2 -->
<g id="edge1_Node000001_Node000002" class="edge">
<title>Node1&#45;&gt;Node2</title>
<g id="a_edge1_Node000001_Node000002"><a xlink:title=" ">
<path fill="none" stroke="#63b8ff" stroke-width="2" d="M669.52,-67.79C571.32,-59.47 371.33,-42.16 202.12,-25.25 198.99,-24.94 195.81,-24.61 192.6,-24.28"/>
<polygon fill="#63b8ff" stroke="#63b8ff" stroke-width="2" points="669.13,-71.27 679.39,-68.63 669.72,-64.3 669.13,-71.27"/>
</a>
</g>
</g>
<!-- Node3 -->
<g id="Node000003" class="node">
<title>Node3</title>
<g id="a_Node000003"><a xlink:href="../../d5/d25/ball_8cpp.html" target="_top" xlink:title=" ">
<polygon fill="white" stroke="#666666" points="281.5,-25.25 210.75,-25.25 210.75,0 281.5,0 281.5,-25.25"/>
<text text-anchor="middle" x="246.12" y="-7.95" font-family="Helvetica,sans-Serif" font-size="14.00">ball.cpp</text>
</a>
</g>
</g>
<!-- Node1&#45;&gt;Node3 -->
<g id="edge2_Node000001_Node000003" class="edge">
<title>Node1&#45;&gt;Node3</title>
<g id="a_edge2_Node000001_Node000003"><a xlink:title=" ">
<path fill="none" stroke="#63b8ff" stroke-width="2" d="M669.63,-69.09C584.61,-63.15 425.13,-49.7 291.12,-25.25 288.11,-24.7 285,-24.06 281.88,-23.36"/>
<polygon fill="#63b8ff" stroke="#63b8ff" stroke-width="2" points="669.14,-72.57 679.36,-69.76 669.62,-65.58 669.14,-72.57"/>
</a>
</g>
</g>
<!-- Node4 -->
<g id="Node000004" class="node">
<title>Node4</title>
<g id="a_Node000004"><a xlink:href="../../d4/d23/bush_8cpp.html" target="_top" xlink:title=" ">
<polygon fill="white" stroke="#666666" points="380.38,-25.25 299.88,-25.25 299.88,0 380.38,0 380.38,-25.25"/>
<text text-anchor="middle" x="340.12" y="-7.95" font-family="Helvetica,sans-Serif" font-size="14.00">bush.cpp</text>
</a>
</g>
</g>
<!-- Node1&#45;&gt;Node4 -->
<g id="edge3_Node000001_Node000004" class="edge">
<title>Node1&#45;&gt;Node4</title>
<g id="a_edge3_Node000001_Node000004"><a xlink:title=" ">
<path fill="none" stroke="#63b8ff" stroke-width="2" d="M669.83,-66.19C601.46,-58.22 486.81,-43.62 389.12,-25.25 386.38,-24.73 383.55,-24.16 380.7,-23.56"/>
<polygon fill="#63b8ff" stroke="#63b8ff" stroke-width="2" points="669.11,-69.63 679.45,-67.31 669.91,-62.68 669.11,-69.63"/>
</a>
</g>
</g>
<!-- Node5 -->
<g id="Node000005" class="node">
<title>Node5</title>
<g id="a_Node000005"><a xlink:href="../../da/d5c/engine_8cpp.html" target="_top" xlink:title=" ">
<polygon fill="white" stroke="#666666" points="491.75,-25.25 398.5,-25.25 398.5,0 491.75,0 491.75,-25.25"/>
<text text-anchor="middle" x="445.12" y="-7.95" font-family="Helvetica,sans-Serif" font-size="14.00">engine.cpp</text>
</a>
</g>
</g>
<!-- Node1&#45;&gt;Node5 -->
<g id="edge4_Node000001_Node000005" class="edge">
<title>Node1&#45;&gt;Node5</title>
<g id="a_edge4_Node000001_Node000005"><a xlink:title=" ">
<path fill="none" stroke="#63b8ff" stroke-width="2" d="M669.99,-60.49C623.57,-50.92 557.77,-37.31 500.12,-25.25 497.55,-24.71 494.9,-24.16 492.23,-23.59"/>
<polygon fill="#63b8ff" stroke="#63b8ff" stroke-width="2" points="669.07,-63.88 679.57,-62.47 670.49,-57.02 669.07,-63.88"/>
</a>
</g>
</g>
<!-- Node6 -->
<g id="Node000006" class="node">
<title>Node6</title>
<g id="a_Node000006"><a xlink:href="../../d1/df9/fidgetSpinner_8cpp.html" target="_top" xlink:title=" ">
<polygon fill="white" stroke="#666666" points="648.62,-25.25 509.62,-25.25 509.62,0 648.62,0 648.62,-25.25"/>
<text text-anchor="middle" x="579.12" y="-7.95" font-family="Helvetica,sans-Serif" font-size="14.00">fidgetSpinner.cpp</text>
</a>
</g>
</g>
<!-- Node1&#45;&gt;Node6 -->
<g id="edge5_Node000001_Node000006" class="edge">
<title>Node1&#45;&gt;Node6</title>
<g id="a_edge5_Node000001_Node000006"><a xlink:title=" ">
<path fill="none" stroke="#63b8ff" stroke-width="2" d="M687.61,-56.19C662.88,-46.49 632.29,-34.48 609.9,-25.7"/>
<polygon fill="#63b8ff" stroke="#63b8ff" stroke-width="2" points="686.16,-59.38 696.75,-59.78 688.72,-52.87 686.16,-59.38"/>
</a>
</g>
</g>
<!-- Node7 -->
<g id="Node000007" class="node">
<title>Node7</title>
<g id="a_Node000007"><a xlink:href="../../d1/d52/gamePlayer_8cpp.html" target="_top" xlink:title=" ">
<polygon fill="white" stroke="#666666" points="793.25,-25.25 667,-25.25 667,0 793.25,0 793.25,-25.25"/>
<text text-anchor="middle" x="730.12" y="-7.95" font-family="Helvetica,sans-Serif" font-size="14.00">gamePlayer.cpp</text>
</a>
</g>
</g>
<!-- Node1&#45;&gt;Node7 -->
<g id="edge6_Node000001_Node000007" class="edge">
<title>Node1&#45;&gt;Node7</title>
<g id="a_edge6_Node000001_Node000007"><a xlink:title=" ">
<path fill="none" stroke="#63b8ff" stroke-width="2" d="M730.12,-47.91C730.12,-40.18 730.12,-32.02 730.12,-25.6"/>
<polygon fill="#63b8ff" stroke="#63b8ff" stroke-width="2" points="726.63,-47.86 730.13,-57.86 733.63,-47.86 726.63,-47.86"/>
</a>
</g>
</g>
<!-- Node8 -->
<g id="Node000008" class="node">
<title>Node8</title>
<g id="a_Node000008"><a xlink:href="../../d2/df9/lineSegment_8cpp.html" target="_top" xlink:title=" ">
<polygon fill="white" stroke="#666666" points="944.62,-25.25 811.62,-25.25 811.62,0 944.62,0 944.62,-25.25"/>
<text text-anchor="middle" x="878.12" y="-7.95" font-family="Helvetica,sans-Serif" font-size="14.00">lineSegment.cpp</text>
</a>
</g>
</g>
<!-- Node1&#45;&gt;Node8 -->
<g id="edge7_Node000001_Node000008" class="edge">
<title>Node1&#45;&gt;Node8</title>
<g id="a_edge7_Node000001_Node000008"><a xlink:title=" ">
<path fill="none" stroke="#63b8ff" stroke-width="2" d="M772.13,-56.06C796.3,-46.38 826.12,-34.44 847.97,-25.7"/>
<polygon fill="#63b8ff" stroke="#63b8ff" stroke-width="2" points="770.87,-52.79 762.89,-59.76 773.47,-59.29 770.87,-52.79"/>
</a>
</g>
</g>
<!-- Node9 -->
<g id="Node000009" class="node">
<title>Node9</title>
<g id="a_Node000009"><a xlink:href="../../d4/d15/test_2main_8cpp.html" target="_top" xlink:title=" ">
<polygon fill="white" stroke="#666666" points="1043.38,-25.25 962.88,-25.25 962.88,0 1043.38,0 1043.38,-25.25"/>
<text text-anchor="middle" x="1003.12" y="-7.95" font-family="Helvetica,sans-Serif" font-size="14.00">main.cpp</text>
</a>
</g>
</g>
<!-- Node1&#45;&gt;Node9 -->
<g id="edge8_Node000001_Node000009" class="edge">
<title>Node1&#45;&gt;Node9</title>
<g id="a_edge8_Node000001_Node000009"><a xlink:title=" ">
<path fill="none" stroke="#63b8ff" stroke-width="2" d="M790.35,-60.47C835.49,-51.08 898.76,-37.7 954.12,-25.25 956.85,-24.64 959.67,-23.99 962.5,-23.34"/>
<polygon fill="#63b8ff" stroke="#63b8ff" stroke-width="2" points="789.87,-57 780.79,-62.46 791.29,-63.85 789.87,-57"/>
</a>
</g>
</g>
<!-- Node10 -->
<g id="Node000010" class="node">
<title>Node10</title>
<g id="a_Node000010"><a xlink:href="../../d0/d8d/test2_2main_8cpp.html" target="_top" xlink:title=" ">
<polygon fill="white" stroke="#666666" points="1142.38,-25.25 1061.88,-25.25 1061.88,0 1142.38,0 1142.38,-25.25"/>
<text text-anchor="middle" x="1102.12" y="-7.95" font-family="Helvetica,sans-Serif" font-size="14.00">main.cpp</text>
</a>
</g>
</g>
<!-- Node1&#45;&gt;Node10 -->
<g id="edge9_Node000001_Node000010" class="edge">
<title>Node1&#45;&gt;Node10</title>
<g id="a_edge9_Node000001_Node000010"><a xlink:title=" ">
<path fill="none" stroke="#63b8ff" stroke-width="2" d="M790.6,-65.43C855.5,-57.09 961.49,-42.46 1052.12,-25.25 1055.19,-24.67 1058.35,-24.03 1061.52,-23.36"/>
<polygon fill="#63b8ff" stroke="#63b8ff" stroke-width="2" points="790.27,-61.94 780.8,-66.68 791.16,-68.89 790.27,-61.94"/>
</a>
</g>
</g>
<!-- Node11 -->
<g id="Node000011" class="node">
<title>Node11</title>
<g id="a_Node000011"><a xlink:href="../../d8/d19/test3_2main_8cpp.html" target="_top" xlink:title=" ">
<polygon fill="white" stroke="#666666" points="1241.38,-25.25 1160.88,-25.25 1160.88,0 1241.38,0 1241.38,-25.25"/>
<text text-anchor="middle" x="1201.12" y="-7.95" font-family="Helvetica,sans-Serif" font-size="14.00">main.cpp</text>
</a>
</g>
</g>
<!-- Node1&#45;&gt;Node11 -->
<g id="edge10_Node000001_Node000011" class="edge">
<title>Node1&#45;&gt;Node11</title>
<g id="a_edge10_Node000001_Node000011"><a xlink:title=" ">
<path fill="none" stroke="#63b8ff" stroke-width="2" d="M790.53,-68.25C872.57,-61.48 1023.62,-47.21 1151.12,-25.25 1154.2,-24.72 1157.37,-24.12 1160.55,-23.47"/>
<polygon fill="#63b8ff" stroke="#63b8ff" stroke-width="2" points="790.43,-64.75 780.75,-69.05 791,-71.73 790.43,-64.75"/>
</a>
</g>
</g>
<!-- Node12 -->
<g id="Node000012" class="node">
<title>Node12</title>
<g id="a_Node000012"><a xlink:href="../../db/d80/player_8cpp.html" target="_top" xlink:title=" ">
<polygon fill="white" stroke="#666666" points="1347.12,-25.25 1259.12,-25.25 1259.12,0 1347.12,0 1347.12,-25.25"/>
<text text-anchor="middle" x="1303.12" y="-7.95" font-family="Helvetica,sans-Serif" font-size="14.00">player.cpp</text>
</a>
</g>
</g>
<!-- Node1&#45;&gt;Node12 -->
<g id="edge11_Node000001_Node000012" class="edge">
<title>Node1&#45;&gt;Node12</title>
<g id="a_edge11_Node000001_Node000012"><a xlink:title=" ">
<path fill="none" stroke="#63b8ff" stroke-width="2" d="M790.45,-69.8C887.66,-64.29 1084.82,-50.85 1250.12,-25.25 1252.92,-24.82 1255.78,-24.33 1258.67,-23.8"/>
<polygon fill="#63b8ff" stroke="#63b8ff" stroke-width="2" points="790.5,-66.29 780.71,-70.34 790.89,-73.28 790.5,-66.29"/>
</a>
</g>
</g>
</g>
</svg>
