<?xml version="1.0" encoding="UTF-8" standalone="no"?>
<!DOCTYPE svg PUBLIC "-//W3C//DTD SVG 1.1//EN"
 "http://www.w3.org/Graphics/SVG/1.1/DTD/svg11.dtd">
<!-- Generated by graphviz version 9.0.0 (0)
 -->
<!-- Title: fidgetSpinner.hpp Pages: 1 -->
<svg width="603pt" height="217pt"
 viewBox="0.00 0.00 602.62 217.00" xmlns="http://www.w3.org/2000/svg" xmlns:xlink="http://www.w3.org/1999/xlink">
<g id="graph0" class="graph" transform="scale(1 1) rotate(0) translate(4 213)">
<title>fidgetSpinner.hpp</title>
<!-- Node1 -->
<g id="Node000001" class="node">
<title>Node1</title>
<g id="a_Node000001"><a xlink:title=" ">
<polygon fill="#999999" stroke="#666666" points="594.62,-209 454.12,-209 454.12,-183.75 594.62,-183.75 594.62,-209"/>
<text text-anchor="middle" x="524.38" y="-191.7" font-family="Helvetica,sans-Serif" font-size="14.00">fidgetSpinner.hpp</text>
</a>
</g>
</g>
<!-- Node2 -->
<g id="Node000002" class="node">
<title>Node2</title>
<g id="a_Node000002"><a xlink:href="../../d7/db2/animatedSpriteSheet_8hpp.html" target="_top" xlink:title=" ">
<polygon fill="white" stroke="#666666" points="496.25,-147.75 302.5,-147.75 302.5,-122.5 496.25,-122.5 496.25,-147.75"/>
<text text-anchor="middle" x="399.38" y="-130.45" font-family="Helvetica,sans-Serif" font-size="14.00">animatedSpriteSheet.hpp</text>
</a>
</g>
</g>
<!-- Node1&#45;&gt;Node2 -->
<g id="edge1_Node000001_Node000002" class="edge">
<title>Node1&#45;&gt;Node2</title>
<g id="a_edge1_Node000001_Node000002"><a xlink:title=" ">
<path fill="none" stroke="#63b8ff" stroke-width="2" d="M499.08,-183.38C481.04,-174.83 456.49,-163.2 436.26,-153.61"/>
<polygon fill="#63b8ff" stroke="#63b8ff" stroke-width="2" points="437.9,-150.51 427.37,-149.39 434.91,-156.84 437.9,-150.51"/>
</a>
</g>
</g>
<!-- Node7 -->
<g id="Node000007" class="node">
<title>Node7</title>
<g id="a_Node000007"><a xlink:href="../../d9/d03/point2d_8hpp.html" target="_top" xlink:title=" ">
<polygon fill="#fff0f0" stroke="red" points="483.75,-25.25 383,-25.25 383,0 483.75,0 483.75,-25.25"/>
<text text-anchor="middle" x="433.38" y="-7.95" font-family="Helvetica,sans-Serif" font-size="14.00">point2d.hpp</text>
</a>
</g>
</g>
<!-- Node1&#45;&gt;Node7 -->
<g id="edge7_Node000001_Node000007" class="edge">
<title>Node1&#45;&gt;Node7</title>
<g id="a_edge7_Node000001_Node000007"><a xlink:title=" ">
<path fill="none" stroke="#63b8ff" stroke-width="2" d="M534.6,-183.56C554.72,-158.82 595.15,-100.61 567.38,-61.25 551.22,-38.37 523.08,-26.41 496.73,-20.2"/>
<polygon fill="#63b8ff" stroke="#63b8ff" stroke-width="2" points="497.47,-16.77 486.97,-18.19 496.06,-23.63 497.47,-16.77"/>
</a>
</g>
</g>
<!-- Node14 -->
<g id="Node000014" class="node">
<title>Node14</title>
<g id="a_Node000014"><a xlink:title=" ">
<polygon fill="#e0e0e0" stroke="#999999" points="558.75,-86.5 464,-86.5 464,-61.25 558.75,-61.25 558.75,-86.5"/>
<text text-anchor="middle" x="511.38" y="-69.2" font-family="Helvetica,sans-Serif" font-size="14.00">string_view</text>
</a>
</g>
</g>
<!-- Node1&#45;&gt;Node14 -->
<g id="edge8_Node000001_Node000014" class="edge">
<title>Node1&#45;&gt;Node14</title>
<g id="a_edge8_Node000001_Node000014"><a xlink:title=" ">
<path fill="none" stroke="#63b8ff" stroke-width="2" d="M523.08,-183.38C520.98,-163.89 516.78,-124.96 514.02,-99.42"/>
<polygon fill="#63b8ff" stroke="#63b8ff" stroke-width="2" points="517.54,-99.4 512.99,-89.83 510.58,-100.15 517.54,-99.4"/>
</a>
</g>
</g>
<!-- Node3 -->
<g id="Node000003" class="node">
<title>Node3</title>
<g id="a_Node000003"><a xlink:title=" ">
<polygon fill="#e0e0e0" stroke="#999999" points="184.75,-86.5 0,-86.5 0,-61.25 184.75,-61.25 184.75,-86.5"/>
<text text-anchor="middle" x="92.38" y="-69.2" font-family="Helvetica,sans-Serif" font-size="14.00">SFML/Graphics/Rect.hpp</text>
</a>
</g>
</g>
<!-- Node2&#45;&gt;Node3 -->
<g id="edge2_Node000002_Node000003" class="edge">
<title>Node2&#45;&gt;Node3</title>
<g id="a_edge2_Node000002_Node000003"><a xlink:title=" ">
<path fill="none" stroke="#63b8ff" stroke-width="2" d="M336.88,-122.06C287.89,-112.61 219.53,-99.42 167.55,-89.38"/>
<polygon fill="#63b8ff" stroke="#63b8ff" stroke-width="2" points="168.5,-86 158.02,-87.54 167.17,-92.88 168.5,-86"/>
</a>
</g>
</g>
<!-- Node4 -->
<g id="Node000004" class="node">
<title>Node4</title>
<g id="a_Node000004"><a xlink:href="../../dc/d3e/animatedObject_8hpp.html" target="_top" xlink:title=" ">
<polygon fill="#fff0f0" stroke="red" points="360.25,-86.5 202.5,-86.5 202.5,-61.25 360.25,-61.25 360.25,-86.5"/>
<text text-anchor="middle" x="281.38" y="-69.2" font-family="Helvetica,sans-Serif" font-size="14.00">animatedObject.hpp</text>
</a>
</g>
</g>
<!-- Node2&#45;&gt;Node4 -->
<g id="edge3_Node000002_Node000004" class="edge">
<title>Node2&#45;&gt;Node4</title>
<g id="a_edge3_Node000002_Node000004"><a xlink:title=" ">
<path fill="none" stroke="#63b8ff" stroke-width="2" d="M375.5,-122.13C358.62,-113.66 335.72,-102.16 316.74,-92.63"/>
<polygon fill="#63b8ff" stroke="#63b8ff" stroke-width="2" points="318.43,-89.57 307.92,-88.21 315.29,-95.82 318.43,-89.57"/>
</a>
</g>
</g>
<!-- Node13 -->
<g id="Node000013" class="node">
<title>Node13</title>
<g id="a_Node000013"><a xlink:title=" ">
<polygon fill="#e0e0e0" stroke="#999999" points="446.25,-86.5 378.5,-86.5 378.5,-61.25 446.25,-61.25 446.25,-86.5"/>
<text text-anchor="middle" x="412.38" y="-69.2" font-family="Helvetica,sans-Serif" font-size="14.00">istream</text>
</a>
</g>
</g>
<!-- Node2&#45;&gt;Node13 -->
<g id="edge5_Node000002_Node000013" class="edge">
<title>Node2&#45;&gt;Node13</title>
<g id="a_edge5_Node000002_Node000013"><a xlink:title=" ">
<path fill="none" stroke="#63b8ff" stroke-width="2" d="M402.01,-122.13C403.43,-115.63 405.25,-107.34 406.97,-99.53"/>
<polygon fill="#63b8ff" stroke="#63b8ff" stroke-width="2" points="410.37,-100.32 409.1,-89.8 403.54,-98.82 410.37,-100.32"/>
</a>
</g>
</g>
<!-- Node2&#45;&gt;Node14 -->
<g id="edge6_Node000002_Node000014" class="edge">
<title>Node2&#45;&gt;Node14</title>
<g id="a_edge6_Node000002_Node000014"><a xlink:title=" ">
<path fill="none" stroke="#63b8ff" stroke-width="2" d="M422.04,-122.13C437.9,-113.74 459.38,-102.38 477.3,-92.9"/>
<polygon fill="#63b8ff" stroke="#63b8ff" stroke-width="2" points="478.87,-96.03 486.07,-88.26 475.59,-89.85 478.87,-96.03"/>
</a>
</g>
</g>
<!-- Node4&#45;&gt;Node7 -->
<g id="edge4_Node000004_Node000007" class="edge">
<title>Node4&#45;&gt;Node7</title>
<g id="a_edge4_Node000004_Node000007"><a xlink:title=" ">
<path fill="none" stroke="#63b8ff" stroke-width="2" d="M312.13,-60.88C334.62,-52.12 365.41,-40.12 390.34,-30.4"/>
<polygon fill="#63b8ff" stroke="#63b8ff" stroke-width="2" points="391.53,-33.69 399.58,-26.8 388.99,-27.17 391.53,-33.69"/>
</a>
</g>
</g>
</g>
</svg>
