<?xml version="1.0" encoding="UTF-8" standalone="no"?>
<!DOCTYPE svg PUBLIC "-//W3C//DTD SVG 1.1//EN"
 "http://www.w3.org/Graphics/SVG/1.1/DTD/svg11.dtd">
<!-- Generated by graphviz version 9.0.0 (0)
 -->
<!-- Title: Engine::setResolution Pages: 1 -->
<svg width="522pt" height="33pt"
 viewBox="0.00 0.00 521.75 33.25" xmlns="http://www.w3.org/2000/svg" xmlns:xlink="http://www.w3.org/1999/xlink">
<g id="graph0" class="graph" transform="scale(1 1) rotate(0) translate(4 29.25)">
<title>Engine::setResolution</title>
<!-- Node1 -->
<g id="Node000001" class="node">
<title>Node1</title>
<g id="a_Node000001"><a xlink:title="Set resolution.">
<polygon fill="#999999" stroke="#666666" points="166,-25.25 0,-25.25 0,0 166,0 166,-25.25"/>
<text text-anchor="middle" x="83" y="-7.95" font-family="Helvetica,sans-Serif" font-size="14.00">Engine::setResolution</text>
</a>
</g>
</g>
<!-- Node2 -->
<g id="Node000002" class="node">
<title>Node2</title>
<g id="a_Node000002"><a xlink:href="../../d1/db6/classEngine.html#a4fbdd2df29e30dd08de3c285cee8c128" target="_top" xlink:title="Instance getter.">
<polygon fill="white" stroke="#666666" points="356.75,-25.25 202,-25.25 202,0 356.75,0 356.75,-25.25"/>
<text text-anchor="middle" x="279.38" y="-7.95" font-family="Helvetica,sans-Serif" font-size="14.00">Engine::getInstance</text>
</a>
</g>
</g>
<!-- Node1&#45;&gt;Node2 -->
<g id="edge1_Node000001_Node000002" class="edge">
<title>Node1&#45;&gt;Node2</title>
<g id="a_edge1_Node000001_Node000002"><a xlink:title=" ">
<path fill="none" stroke="#63b8ff" stroke-width="2" d="M166.43,-12.62C173.83,-12.62 181.35,-12.62 188.8,-12.62"/>
<polygon fill="#63b8ff" stroke="#63b8ff" stroke-width="2" points="188.66,-16.13 198.66,-12.63 188.66,-9.13 188.66,-16.13"/>
</a>
</g>
</g>
<!-- Node3 -->
<g id="Node000003" class="node">
<title>Node3</title>
<g id="a_Node000003"><a xlink:href="../../d1/db6/classEngine.html#a8c98683b0a3aa28d8ab72a8bcd0d52f2" target="_top" xlink:title="Constructor.">
<polygon fill="white" stroke="#666666" points="513.75,-25.25 392.75,-25.25 392.75,0 513.75,0 513.75,-25.25"/>
<text text-anchor="middle" x="453.25" y="-7.95" font-family="Helvetica,sans-Serif" font-size="14.00">Engine::Engine</text>
</a>
</g>
</g>
<!-- Node2&#45;&gt;Node3 -->
<g id="edge2_Node000002_Node000003" class="edge">
<title>Node2&#45;&gt;Node3</title>
<g id="a_edge2_Node000002_Node000003"><a xlink:title=" ">
<path fill="none" stroke="#63b8ff" stroke-width="2" d="M357.01,-12.62C364.49,-12.62 372.06,-12.62 379.5,-12.62"/>
<polygon fill="#63b8ff" stroke="#63b8ff" stroke-width="2" points="379.24,-16.13 389.24,-12.63 379.24,-9.13 379.24,-16.13"/>
</a>
</g>
</g>
</g>
</svg>
