<?xml version="1.0" encoding="UTF-8" standalone="no"?>
<!DOCTYPE svg PUBLIC "-//W3C//DTD SVG 1.1//EN"
 "http://www.w3.org/Graphics/SVG/1.1/DTD/svg11.dtd">
<!-- Generated by graphviz version 9.0.0 (0)
 -->
<!-- Title: Engine::setMaxFps Pages: 1 -->
<svg width="503pt" height="33pt"
 viewBox="0.00 0.00 503.00 33.25" xmlns="http://www.w3.org/2000/svg" xmlns:xlink="http://www.w3.org/1999/xlink">
<g id="graph0" class="graph" transform="scale(1 1) rotate(0) translate(4 29.25)">
<title>Engine::setMaxFps</title>
<!-- Node1 -->
<g id="Node000001" class="node">
<title>Node1</title>
<g id="a_Node000001"><a xlink:title="Set Max FPS.">
<polygon fill="#999999" stroke="#666666" points="147.25,-25.25 0,-25.25 0,0 147.25,0 147.25,-25.25"/>
<text text-anchor="middle" x="73.62" y="-7.95" font-family="Helvetica,sans-Serif" font-size="14.00">Engine::setMaxFps</text>
</a>
</g>
</g>
<!-- Node2 -->
<g id="Node000002" class="node">
<title>Node2</title>
<g id="a_Node000002"><a xlink:href="../../d1/db6/classEngine.html#a4fbdd2df29e30dd08de3c285cee8c128" target="_top" xlink:title="Instance getter.">
<polygon fill="white" stroke="#666666" points="338,-25.25 183.25,-25.25 183.25,0 338,0 338,-25.25"/>
<text text-anchor="middle" x="260.62" y="-7.95" font-family="Helvetica,sans-Serif" font-size="14.00">Engine::getInstance</text>
</a>
</g>
</g>
<!-- Node1&#45;&gt;Node2 -->
<g id="edge1_Node000001_Node000002" class="edge">
<title>Node1&#45;&gt;Node2</title>
<g id="a_edge1_Node000001_Node000002"><a xlink:title=" ">
<path fill="none" stroke="#63b8ff" stroke-width="2" d="M147.74,-12.62C155.03,-12.62 162.48,-12.62 169.91,-12.62"/>
<polygon fill="#63b8ff" stroke="#63b8ff" stroke-width="2" points="169.76,-16.13 179.76,-12.63 169.76,-9.13 169.76,-16.13"/>
</a>
</g>
</g>
<!-- Node3 -->
<g id="Node000003" class="node">
<title>Node3</title>
<g id="a_Node000003"><a xlink:href="../../d1/db6/classEngine.html#a8c98683b0a3aa28d8ab72a8bcd0d52f2" target="_top" xlink:title="Constructor.">
<polygon fill="white" stroke="#666666" points="495,-25.25 374,-25.25 374,0 495,0 495,-25.25"/>
<text text-anchor="middle" x="434.5" y="-7.95" font-family="Helvetica,sans-Serif" font-size="14.00">Engine::Engine</text>
</a>
</g>
</g>
<!-- Node2&#45;&gt;Node3 -->
<g id="edge2_Node000002_Node000003" class="edge">
<title>Node2&#45;&gt;Node3</title>
<g id="a_edge2_Node000002_Node000003"><a xlink:title=" ">
<path fill="none" stroke="#63b8ff" stroke-width="2" d="M338.26,-12.62C345.74,-12.62 353.31,-12.62 360.75,-12.62"/>
<polygon fill="#63b8ff" stroke="#63b8ff" stroke-width="2" points="360.49,-16.13 370.49,-12.63 360.49,-9.13 360.49,-16.13"/>
</a>
</g>
</g>
</g>
</svg>
