<?xml version="1.0" encoding="UTF-8" standalone="no"?>
<!DOCTYPE svg PUBLIC "-//W3C//DTD SVG 1.1//EN"
 "http://www.w3.org/Graphics/SVG/1.1/DTD/svg11.dtd">
<!-- Generated by graphviz version 9.0.0 (0)
 -->
<!-- Title: AnimatedObject Pages: 1 -->
<svg width="311pt" height="174pt"
 viewBox="0.00 0.00 311.38 174.00" xmlns="http://www.w3.org/2000/svg" xmlns:xlink="http://www.w3.org/1999/xlink">
<g id="graph0" class="graph" transform="scale(1 1) rotate(0) translate(4 170)">
<title>AnimatedObject</title>
<!-- Node1 -->
<g id="Node000001" class="node">
<title>Node1</title>
<g id="a_Node000001"><a xlink:title="Animated object class.">
<polygon fill="#999999" stroke="#666666" points="222.62,-25.25 94.88,-25.25 94.88,0 222.62,0 222.62,-25.25"/>
<text text-anchor="middle" x="158.75" y="-7.95" font-family="Helvetica,sans-Serif" font-size="14.00">AnimatedObject</text>
</a>
</g>
</g>
<!-- Node2 -->
<g id="Node000002" class="node">
<title>Node2</title>
<g id="a_Node000002"><a xlink:href="../../de/d1c/classGameObject.html" target="_top" xlink:title="Game object class.">
<polygon fill="white" stroke="#666666" points="101.5,-87.5 0,-87.5 0,-62.25 101.5,-62.25 101.5,-87.5"/>
<text text-anchor="middle" x="50.75" y="-70.2" font-family="Helvetica,sans-Serif" font-size="14.00">GameObject</text>
</a>
</g>
</g>
<!-- Node2&#45;&gt;Node1 -->
<g id="edge1_Node000001_Node000002" class="edge">
<title>Node2&#45;&gt;Node1</title>
<g id="a_edge1_Node000001_Node000002"><a xlink:title=" ">
<path fill="none" stroke="#63b8ff" stroke-width="2" d="M83.71,-55.49C101.08,-45.8 121.9,-34.18 137.19,-25.65"/>
<polygon fill="#63b8ff" stroke="#63b8ff" stroke-width="2" points="82.02,-52.42 74.99,-60.35 85.43,-58.54 82.02,-52.42"/>
</a>
</g>
</g>
<!-- Node3 -->
<g id="Node000003" class="node">
<title>Node3</title>
<g id="a_Node000003"><a xlink:href="../../d5/d5c/classPoint2d.html" target="_top" xlink:title="Class containing 2D point co&#45;ordinates.">
<polygon fill="white" stroke="#666666" points="85,-166 16.5,-166 16.5,-140.75 85,-140.75 85,-166"/>
<text text-anchor="middle" x="50.75" y="-148.7" font-family="Helvetica,sans-Serif" font-size="14.00">Point2d</text>
</a>
</g>
</g>
<!-- Node3&#45;&gt;Node2 -->
<g id="edge2_Node000002_Node000003" class="edge">
<title>Node3&#45;&gt;Node2</title>
<g id="a_edge2_Node000002_Node000003"><a xlink:title=" ">
<path fill="none" stroke="#9a32cd" stroke-width="2" stroke-dasharray="5,2" d="M50.75,-127.8C50.75,-114.5 50.75,-98.66 50.75,-88"/>
<polygon fill="#9a32cd" stroke="#9a32cd" stroke-width="2" points="47.25,-127.39 50.75,-137.39 54.25,-127.39 47.25,-127.39"/>
</a>
</g>
<text text-anchor="middle" x="90.5" y="-109.45" font-family="Helvetica,sans-Serif" font-size="14.00" fill="grey"> m_position</text>
</g>
<!-- Node4 -->
<g id="Node000004" class="node">
<title>Node4</title>
<g id="a_Node000004"><a xlink:title=" ">
<polygon fill="white" stroke="#666666" points="197.88,-87.5 119.62,-87.5 119.62,-62.25 197.88,-62.25 197.88,-87.5"/>
<text text-anchor="middle" x="158.75" y="-70.2" font-family="Helvetica,sans-Serif" font-size="14.00">sf::Sprite</text>
</a>
</g>
</g>
<!-- Node4&#45;&gt;Node1 -->
<g id="edge3_Node000001_Node000004" class="edge">
<title>Node4&#45;&gt;Node1</title>
<g id="a_edge3_Node000001_Node000004"><a xlink:title=" ">
<path fill="none" stroke="#63b8ff" stroke-width="2" d="M158.75,-49.17C158.75,-41 158.75,-32.27 158.75,-25.5"/>
<polygon fill="#63b8ff" stroke="#63b8ff" stroke-width="2" points="155.25,-48.94 158.75,-58.94 162.25,-48.94 155.25,-48.94"/>
</a>
</g>
</g>
<!-- Node5 -->
<g id="Node000005" class="node">
<title>Node5</title>
<g id="a_Node000005"><a xlink:title=" ">
<polygon fill="white" stroke="#666666" points="303.38,-87.5 216.12,-87.5 216.12,-62.25 303.38,-62.25 303.38,-87.5"/>
<text text-anchor="middle" x="259.75" y="-70.2" font-family="Helvetica,sans-Serif" font-size="14.00">sf::Texture</text>
</a>
</g>
</g>
<!-- Node5&#45;&gt;Node1 -->
<g id="edge4_Node000001_Node000005" class="edge">
<title>Node5&#45;&gt;Node1</title>
<g id="a_edge4_Node000001_Node000005"><a xlink:title=" ">
<path fill="none" stroke="#63b8ff" stroke-width="2" d="M228.7,-55.35C212.54,-45.71 193.24,-34.2 179.01,-25.71"/>
<polygon fill="#63b8ff" stroke="#63b8ff" stroke-width="2" points="226.81,-58.3 237.2,-60.42 230.4,-52.29 226.81,-58.3"/>
</a>
</g>
</g>
</g>
</svg>
