<?xml version="1.0" encoding="UTF-8" standalone="no"?>
<!DOCTYPE svg PUBLIC "-//W3C//DTD SVG 1.1//EN"
 "http://www.w3.org/Graphics/SVG/1.1/DTD/svg11.dtd">
<!-- Generated by graphviz version 9.0.0 (0)
 -->
<!-- Title: Engine::getLastFrameDuration Pages: 1 -->
<!--zoomable 338 -->

<svg id="main" version="1.1" xmlns="http://www.w3.org/2000/svg" xmlns:xlink="http://www.w3.org/1999/xlink" xml:space="preserve" onload="init(evt)">
<style type="text/css"><![CDATA[
.node, .edge {opacity: 0.7;}
.node.selected, .edge.selected {opacity: 1;}
.edge:hover path { stroke: red; }
.edge:hover polygon { stroke: red; fill: red; }
]]></style>

<defs>
  <circle id="rim" cx="0" cy="0" r="7"/>
  <circle id="rim2" cx="0" cy="0" r="3.5"/>
  <g id="zoomPlus">
    <use xlink:href="#rim" fill="#404040"><set attributeName="fill" to="#808080" begin="zoomplus.mouseover" end="zoomplus.mouseout"/></use>
    <path d="M-4,0h8M0,-4v8" fill="none" stroke="white" stroke-width="1.5" pointer-events="none"/>
  </g>
  <g id="zoomMin">
    <use xlink:href="#rim" fill="#404040"><set attributeName="fill" to="#808080" begin="zoomminus.mouseover" end="zoomminus.mouseout"/></use>
    <path d="M-4,0h8" fill="none" stroke="white" stroke-width="1.5" pointer-events="none"/>
  </g>
  <g id="arrowUp" transform="translate(30 24)">
    <use xlink:href="#rim"/>
    <path pointer-events="none" fill="none" stroke="white" stroke-width="1.5" d="M0,-3.0v7 M-2.5,-0.5L0,-3.0L2.5,-0.5"/>
  </g>
  <g id="arrowRight" transform="rotate(90) translate(36 -43)">
    <use xlink:href="#rim"/>
    <path pointer-events="none" fill="none" stroke="white" stroke-width="1.5" d="M0,-3.0v7 M-2.5,-0.5L0,-3.0L2.5,-0.5"/>
  </g>
  <g id="arrowDown" transform="rotate(180) translate(-30 -48)">
    <use xlink:href="#rim"/>
    <path pointer-events="none" fill="none" stroke="white" stroke-width="1.5" d="M0,-3.0v7 M-2.5,-0.5L0,-3.0L2.5,-0.5"/>
  </g>
  <g id="arrowLeft" transform="rotate(270) translate(-36 17)">
    <use xlink:href="#rim"/>
    <path pointer-events="none" fill="none" stroke="white" stroke-width="1.5" d="M0,-3.0v7 M-2.5,-0.5L0,-3.0L2.5,-0.5"/>
  </g>
  <g id="resetDef">
    <use xlink:href="#rim2" fill="#404040"><set attributeName="fill" to="#808080" begin="reset.mouseover" end="reset.mouseout"/></use>
  </g>
</defs>
<script type="application/ecmascript">
var viewWidth = 740;
var viewHeight = 338;
var sectionId = 'dynsection-13';
</script>
<script type="application/ecmascript" xlink:href="../../svg.min.js"/>
<svg id="graph" class="graph">
<g id="viewport">
<title>Engine::getLastFrameDuration</title>
<!-- Node1 -->
<g id="Node000001" class="node">
<title>Node1</title>
<g id="a_Node000001"><a xlink:title="Last frame duration getter.">
<polygon fill="#999999" stroke="#666666" points="732.25,-183.25 505.5,-183.25 505.5,-158 732.25,-158 732.25,-183.25"/>
<text text-anchor="middle" x="618.88" y="-165.95" font-family="Helvetica,sans-Serif" font-size="14.00">Engine::getLastFrameDuration</text>
</a>
</g>
</g>
<!-- Node2 -->
<g id="Node000002" class="node">
<title>Node2</title>
<g id="a_Node000002"><a xlink:href="../../df/dd5/classBush.html#a435e5a6a66b3a1ae2fb2d3368a051033" target="_top" xlink:title="Animates object.">
<polygon fill="white" stroke="#666666" points="439.5,-330.25 323,-330.25 323,-305 439.5,-305 439.5,-330.25"/>
<text text-anchor="middle" x="381.25" y="-312.95" font-family="Helvetica,sans-Serif" font-size="14.00">Bush::animate</text>
</a>
</g>
</g>
<!-- Node1&#45;&gt;Node2 -->
<g id="edge1_Node000001_Node000002" class="edge">
<title>Node1&#45;&gt;Node2</title>
<g id="a_edge1_Node000001_Node000002"><a xlink:title=" ">
<path fill="none" stroke="#63b8ff" stroke-width="2" d="M597.86,-192.82C571.27,-220.94 521.56,-268.95 469.5,-295.62 460.32,-300.33 450.08,-304.07 439.93,-307.03"/>
<polygon fill="#63b8ff" stroke="#63b8ff" stroke-width="2" points="600.27,-195.36 604.51,-185.65 595.14,-190.6 600.27,-195.36"/>
</a>
</g>
</g>
<!-- Node3 -->
<g id="Node000003" class="node">
<title>Node3</title>
<g id="a_Node000003"><a xlink:href="../../d4/dcd/classAnimatedSpriteSheet.html#a9f0f6e23c33869b0caf4fdf68bddc9ba" target="_top" xlink:title="Animates object.">
<polygon fill="white" stroke="#666666" points="463.12,-286.88 299.38,-286.88 299.38,-244.38 463.12,-244.38 463.12,-286.88"/>
<text text-anchor="start" x="307.38" y="-269.57" font-family="Helvetica,sans-Serif" font-size="14.00">AnimatedSpriteSheet</text>
<text text-anchor="middle" x="381.25" y="-252.32" font-family="Helvetica,sans-Serif" font-size="14.00">::animate</text>
</a>
</g>
</g>
<!-- Node1&#45;&gt;Node3 -->
<g id="edge2_Node000001_Node000003" class="edge">
<title>Node1&#45;&gt;Node3</title>
<g id="a_edge2_Node000001_Node000003"><a xlink:title=" ">
<path fill="none" stroke="#63b8ff" stroke-width="2" d="M578.46,-188.94C548.77,-202.48 506.92,-221.02 469.5,-235.62 462.34,-238.42 454.79,-241.22 447.26,-243.93"/>
<polygon fill="#63b8ff" stroke="#63b8ff" stroke-width="2" points="579.61,-192.27 587.24,-184.92 576.69,-185.9 579.61,-192.27"/>
</a>
</g>
</g>
<!-- Node4 -->
<g id="Node000004" class="node">
<title>Node4</title>
<g id="a_Node000004"><a xlink:href="../../de/dde/classFidgetSpinner.html#ac741721bd60be59fd5a2110589412326" target="_top" xlink:title="Animates object.">
<polygon fill="white" stroke="#666666" points="469.5,-226.25 293,-226.25 293,-201 469.5,-201 469.5,-226.25"/>
<text text-anchor="middle" x="381.25" y="-208.95" font-family="Helvetica,sans-Serif" font-size="14.00">FidgetSpinner::animate</text>
</a>
</g>
</g>
<!-- Node1&#45;&gt;Node4 -->
<g id="edge3_Node000001_Node000004" class="edge">
<title>Node1&#45;&gt;Node4</title>
<g id="a_edge3_Node000001_Node000004"><a xlink:title=" ">
<path fill="none" stroke="#63b8ff" stroke-width="2" d="M533.64,-186C507.57,-190.75 479.11,-195.95 453.97,-200.54"/>
<polygon fill="#63b8ff" stroke="#63b8ff" stroke-width="2" points="534.03,-189.48 543.24,-184.25 532.78,-182.6 534.03,-189.48"/>
</a>
</g>
</g>
<!-- Node5 -->
<g id="Node000005" class="node">
<title>Node5</title>
<g id="a_Node000005"><a xlink:href="../../df/d0d/classGamePlayer.html#a5759a456d2640dabde57727de577350d" target="_top" xlink:title="Animates object.">
<polygon fill="white" stroke="#666666" points="463.12,-183.25 299.38,-183.25 299.38,-158 463.12,-158 463.12,-183.25"/>
<text text-anchor="middle" x="381.25" y="-165.95" font-family="Helvetica,sans-Serif" font-size="14.00">GamePlayer::animate</text>
</a>
</g>
</g>
<!-- Node1&#45;&gt;Node5 -->
<g id="edge4_Node000001_Node000005" class="edge">
<title>Node1&#45;&gt;Node5</title>
<g id="a_edge4_Node000001_Node000005"><a xlink:title=" ">
<path fill="none" stroke="#63b8ff" stroke-width="2" d="M492.36,-170.62C482.58,-170.62 472.87,-170.62 463.51,-170.62"/>
<polygon fill="#63b8ff" stroke="#63b8ff" stroke-width="2" points="492.21,-174.13 502.21,-170.63 492.21,-167.13 492.21,-174.13"/>
</a>
</g>
</g>
<!-- Node6 -->
<g id="Node000006" class="node">
<title>Node6</title>
<g id="a_Node000006"><a xlink:href="../../d4/d15/test_2main_8cpp.html#a496cbcc7e499f89ecfc16bbee0c2d7c6" target="_top" xlink:title=" ">
<polygon fill="white" stroke="#666666" points="460.88,-140.25 301.62,-140.25 301.62,-115 460.88,-115 460.88,-140.25"/>
<text text-anchor="middle" x="381.25" y="-122.95" font-family="Helvetica,sans-Serif" font-size="14.00">customLoopFunction</text>
</a>
</g>
</g>
<!-- Node1&#45;&gt;Node6 -->
<g id="edge5_Node000001_Node000006" class="edge">
<title>Node1&#45;&gt;Node6</title>
<g id="a_edge5_Node000001_Node000006"><a xlink:title=" ">
<path fill="none" stroke="#63b8ff" stroke-width="2" d="M533.64,-155.25C507.57,-150.5 479.11,-145.3 453.97,-140.71"/>
<polygon fill="#63b8ff" stroke="#63b8ff" stroke-width="2" points="532.78,-158.65 543.24,-157 534.03,-151.77 532.78,-158.65"/>
</a>
</g>
</g>
<!-- Node8 -->
<g id="Node000008" class="node">
<title>Node8</title>
<g id="a_Node000008"><a xlink:href="../../d2/d4b/classPlayer.html#a6754159e7c29c0d21d05d3560b088cd3" target="_top" xlink:title="Returns the player&#39;s movement vector multiplied by speed.">
<polygon fill="white" stroke="#666666" points="466.12,-97.25 296.38,-97.25 296.38,-72 466.12,-72 466.12,-97.25"/>
<text text-anchor="middle" x="381.25" y="-79.95" font-family="Helvetica,sans-Serif" font-size="14.00">Player::getMoveVector</text>
</a>
</g>
</g>
<!-- Node1&#45;&gt;Node8 -->
<g id="edge7_Node000001_Node000008" class="edge">
<title>Node1&#45;&gt;Node8</title>
<g id="a_edge7_Node000001_Node000008"><a xlink:title=" ">
<path fill="none" stroke="#63b8ff" stroke-width="2" d="M580.46,-152.03C550.89,-137.88 508.27,-118.67 469.5,-105.62 460.94,-102.74 451.77,-100.09 442.72,-97.71"/>
<polygon fill="#63b8ff" stroke="#63b8ff" stroke-width="2" points="578.64,-155.04 589.17,-156.24 581.69,-148.74 578.64,-155.04"/>
</a>
</g>
</g>
<!-- Node15 -->
<g id="Node000015" class="node">
<title>Node15</title>
<g id="a_Node000015"><a xlink:href="../../dc/df0/classBall.html#af30f4707d26a6e7ba0af1dd8cac37684" target="_top" xlink:title="Updates state of object.">
<polygon fill="white" stroke="#666666" points="430.88,-44.25 331.62,-44.25 331.62,-19 430.88,-19 430.88,-44.25"/>
<text text-anchor="middle" x="381.25" y="-26.95" font-family="Helvetica,sans-Serif" font-size="14.00">Ball::update</text>
</a>
</g>
</g>
<!-- Node1&#45;&gt;Node15 -->
<g id="edge11_Node000001_Node000015" class="edge">
<title>Node1&#45;&gt;Node15</title>
<g id="a_edge11_Node000001_Node000015"><a xlink:title=" ">
<path fill="none" stroke="#63b8ff" stroke-width="2" d="M593.46,-149.41C565.19,-125.71 516.48,-87.4 469.5,-62.62 456.13,-55.58 440.82,-49.52 426.79,-44.69"/>
<polygon fill="#63b8ff" stroke="#63b8ff" stroke-width="2" points="591.05,-151.96 600.94,-155.77 595.58,-146.63 591.05,-151.96"/>
</a>
</g>
</g>
<!-- Node7 -->
<g id="Node000007" class="node">
<title>Node7</title>
<g id="a_Node000007"><a xlink:href="../../d4/d15/test_2main_8cpp.html#ae66f6b31b5ad750f1fe042a706a4e3d4" target="_top" xlink:title=" ">
<polygon fill="white" stroke="#666666" points="229.62,-150.25 179.12,-150.25 179.12,-125 229.62,-125 229.62,-150.25"/>
<text text-anchor="middle" x="204.38" y="-132.95" font-family="Helvetica,sans-Serif" font-size="14.00">main</text>
</a>
</g>
</g>
<!-- Node6&#45;&gt;Node7 -->
<g id="edge6_Node000006_Node000007" class="edge">
<title>Node6&#45;&gt;Node7</title>
<g id="a_edge6_Node000006_Node000007"><a xlink:title=" ">
<path fill="none" stroke="#63b8ff" stroke-width="2" d="M288.47,-132.87C266.77,-134.11 245.42,-135.34 229.79,-136.23"/>
<polygon fill="#63b8ff" stroke="#63b8ff" stroke-width="2" points="288.45,-136.38 298.23,-132.32 288.05,-129.39 288.45,-136.38"/>
</a>
</g>
</g>
<!-- Node9 -->
<g id="Node000009" class="node">
<title>Node9</title>
<g id="a_Node000009"><a xlink:href="../../d2/d4b/classPlayer.html#ad29f780f5ab349975b25f6b7ab49dd9d" target="_top" xlink:title="Moves player on screen.">
<polygon fill="white" stroke="#666666" points="257,-107.25 151.75,-107.25 151.75,-82 257,-82 257,-107.25"/>
<text text-anchor="middle" x="204.38" y="-89.95" font-family="Helvetica,sans-Serif" font-size="14.00">Player::move</text>
</a>
</g>
</g>
<!-- Node8&#45;&gt;Node9 -->
<g id="edge8_Node000008_Node000009" class="edge">
<title>Node8&#45;&gt;Node9</title>
<g id="a_edge8_Node000008_Node000009"><a xlink:title=" ">
<path fill="none" stroke="#63b8ff" stroke-width="2" d="M283,-90.19C274.24,-90.69 265.62,-91.18 257.48,-91.65"/>
<polygon fill="#63b8ff" stroke="#63b8ff" stroke-width="2" points="283.08,-93.69 292.86,-89.62 282.68,-86.7 283.08,-93.69"/>
</a>
</g>
</g>
<!-- Node10 -->
<g id="Node000010" class="node">
<title>Node10</title>
<g id="a_Node000010"><a xlink:href="../../d2/d4b/classPlayer.html#a82c3476f3e65a4e2ac6bcd040771bdd4" target="_top" xlink:title="Updates state of object.">
<polygon fill="#fff0f0" stroke="red" points="115.75,-86.25 0,-86.25 0,-61 115.75,-61 115.75,-86.25"/>
<text text-anchor="middle" x="57.88" y="-68.95" font-family="Helvetica,sans-Serif" font-size="14.00">Player::update</text>
</a>
</g>
</g>
<!-- Node8&#45;&gt;Node10 -->
<g id="edge10_Node000008_Node000010" class="edge">
<title>Node8&#45;&gt;Node10</title>
<g id="a_edge10_Node000008_Node000010"><a xlink:title=" ">
<path fill="none" stroke="#63b8ff" stroke-width="2" d="M283.19,-74.28C274.34,-73.61 265.51,-73.04 257,-72.62 210.28,-70.36 198.53,-72.37 151.75,-72.62 140.14,-72.69 127.71,-72.79 115.85,-72.91"/>
<polygon fill="#63b8ff" stroke="#63b8ff" stroke-width="2" points="282.86,-77.77 293.11,-75.09 283.43,-70.79 282.86,-77.77"/>
</a>
</g>
</g>
<!-- Node9&#45;&gt;Node10 -->
<g id="edge9_Node000009_Node000010" class="edge">
<title>Node9&#45;&gt;Node10</title>
<g id="a_edge9_Node000009_Node000010"><a xlink:title=" ">
<path fill="none" stroke="#63b8ff" stroke-width="2" d="M138.99,-85.27C131.38,-84.16 123.65,-83.04 116.16,-81.95"/>
<polygon fill="#63b8ff" stroke="#63b8ff" stroke-width="2" points="138.22,-88.69 148.62,-86.67 139.23,-81.77 138.22,-88.69"/>
</a>
</g>
</g>
<!-- Node16 -->
<g id="Node000016" class="node">
<title>Node16</title>
<g id="a_Node000016"><a xlink:href="../../d0/d8d/test2_2main_8cpp.html#adc4fc3d5c105079f45841fb74e7de7f3" target="_top" xlink:title=" ">
<polygon fill="#fff0f0" stroke="red" points="252.5,-25.25 156.25,-25.25 156.25,0 252.5,0 252.5,-25.25"/>
<text text-anchor="middle" x="204.38" y="-7.95" font-family="Helvetica,sans-Serif" font-size="14.00">handleBalls</text>
</a>
</g>
</g>
<!-- Node15&#45;&gt;Node16 -->
<g id="edge12_Node000015_Node000016" class="edge">
<title>Node15&#45;&gt;Node16</title>
<g id="a_edge12_Node000015_Node000016"><a xlink:title=" ">
<path fill="none" stroke="#63b8ff" stroke-width="2" d="M318.78,-24.95C297.16,-22.6 273.22,-20 252.92,-17.79"/>
<polygon fill="#63b8ff" stroke="#63b8ff" stroke-width="2" points="318.21,-28.4 328.53,-26.01 318.96,-21.45 318.21,-28.4"/>
</a>
</g>
</g>
</g>
</svg>

<g id="navigator" transform="translate(0 0)" fill="#404254">
  <rect fill="#f2f5e9" fill-opacity="0.5" stroke="#606060" stroke-width=".5" x="0" y="0" width="60" height="60"/>
  <use id="zoomplus" xlink:href="#zoomPlus" x="17" y="9" onmousedown="handleZoom(evt,'in')"/>
  <use id="zoomminus" xlink:href="#zoomMin" x="42" y="9" onmousedown="handleZoom(evt,'out')"/>
  <use id="reset" xlink:href="#resetDef" x="30" y="36" onmousedown="handleReset()"/>
   <use id="arrowup" xlink:href="#arrowUp" x="0" y="0" onmousedown="handlePan(0,-1)"/>
  <use id="arrowright" xlink:href="#arrowRight" x="0" y="0" onmousedown="handlePan(1,0)"/>
  <use id="arrowdown" xlink:href="#arrowDown" x="0" y="0" onmousedown="handlePan(0,1)"/>
  <use id="arrowleft" xlink:href="#arrowLeft" x="0" y="0" onmousedown="handlePan(-1,0)"/>
</g>
<svg viewBox="0 0 15 15" width="100%" height="30px" preserveAspectRatio="xMaxYMin meet">
 <g id="arrow_out" transform="scale(0.3 0.3)">
  <a xlink:href="classEngine_a7882b3a1b96c425ea5692807e0765e9f_icgraph_org.svg" target="_base">
   <rect id="button" ry="5" rx="5" y="6" x="6" height="38" width="38"
        fill="#f2f5e9" fill-opacity="0.5" stroke="#606060" stroke-width="1.0"/>
   <path id="arrow"
     d="M 11.500037,31.436501 C 11.940474,20.09759 22.043105,11.32322 32.158766,21.979434 L 37.068811,17.246167 C 37.068811,17.246167 37.088388,32 37.088388,32 L 22.160133,31.978069 C 22.160133,31.978069 26.997745,27.140456 26.997745,27.140456 C 18.528582,18.264221 13.291696,25.230495 11.500037,31.436501 z"
     style="fill:#404040;"/>
  </a>
 </g>
</svg>

<style type='text/css'>
<![CDATA[
[data-mouse-over-selected='false'] { opacity: 0.7; }
[data-mouse-over-selected='true']  { opacity: 1.0; }
]]>
</style>
<script type="application/ecmascript"><![CDATA[
document.addEventListener('DOMContentLoaded', (event) => {
  highlightEdges();
  highlightAdjacentNodes();
});
]]></script>
</svg>
