<?xml version="1.0" encoding="UTF-8" standalone="no"?>
<!DOCTYPE svg PUBLIC "-//W3C//DTD SVG 1.1//EN"
 "http://www.w3.org/Graphics/SVG/1.1/DTD/svg11.dtd">
<!-- Generated by graphviz version 9.0.0 (0)
 -->
<!-- Title: Engine::getInstance Pages: 1 -->
<!--zoomable 738 -->

<svg id="main" version="1.1" xmlns="http://www.w3.org/2000/svg" xmlns:xlink="http://www.w3.org/1999/xlink" xml:space="preserve" onload="init(evt)">
<style type="text/css"><![CDATA[
.node, .edge {opacity: 0.7;}
.node.selected, .edge.selected {opacity: 1;}
.edge:hover path { stroke: red; }
.edge:hover polygon { stroke: red; fill: red; }
]]></style>

<defs>
  <circle id="rim" cx="0" cy="0" r="7"/>
  <circle id="rim2" cx="0" cy="0" r="3.5"/>
  <g id="zoomPlus">
    <use xlink:href="#rim" fill="#404040"><set attributeName="fill" to="#808080" begin="zoomplus.mouseover" end="zoomplus.mouseout"/></use>
    <path d="M-4,0h8M0,-4v8" fill="none" stroke="white" stroke-width="1.5" pointer-events="none"/>
  </g>
  <g id="zoomMin">
    <use xlink:href="#rim" fill="#404040"><set attributeName="fill" to="#808080" begin="zoomminus.mouseover" end="zoomminus.mouseout"/></use>
    <path d="M-4,0h8" fill="none" stroke="white" stroke-width="1.5" pointer-events="none"/>
  </g>
  <g id="arrowUp" transform="translate(30 24)">
    <use xlink:href="#rim"/>
    <path pointer-events="none" fill="none" stroke="white" stroke-width="1.5" d="M0,-3.0v7 M-2.5,-0.5L0,-3.0L2.5,-0.5"/>
  </g>
  <g id="arrowRight" transform="rotate(90) translate(36 -43)">
    <use xlink:href="#rim"/>
    <path pointer-events="none" fill="none" stroke="white" stroke-width="1.5" d="M0,-3.0v7 M-2.5,-0.5L0,-3.0L2.5,-0.5"/>
  </g>
  <g id="arrowDown" transform="rotate(180) translate(-30 -48)">
    <use xlink:href="#rim"/>
    <path pointer-events="none" fill="none" stroke="white" stroke-width="1.5" d="M0,-3.0v7 M-2.5,-0.5L0,-3.0L2.5,-0.5"/>
  </g>
  <g id="arrowLeft" transform="rotate(270) translate(-36 17)">
    <use xlink:href="#rim"/>
    <path pointer-events="none" fill="none" stroke="white" stroke-width="1.5" d="M0,-3.0v7 M-2.5,-0.5L0,-3.0L2.5,-0.5"/>
  </g>
  <g id="resetDef">
    <use xlink:href="#rim2" fill="#404040"><set attributeName="fill" to="#808080" begin="reset.mouseover" end="reset.mouseout"/></use>
  </g>
</defs>
<script type="application/ecmascript">
var viewWidth = 731;
var viewHeight = 738;
var sectionId = 'dynsection-12';
</script>
<script type="application/ecmascript" xlink:href="../../svg.min.js"/>
<svg id="graph" class="graph">
<g id="viewport">
<title>Engine::getInstance</title>
<!-- Node1 -->
<g id="Node000001" class="node">
<title>Node1</title>
<g id="a_Node000001"><a xlink:title="Instance getter.">
<polygon fill="#999999" stroke="#666666" points="722.5,-389.25 567.75,-389.25 567.75,-364 722.5,-364 722.5,-389.25"/>
<text text-anchor="middle" x="645.12" y="-371.95" font-family="Helvetica,sans-Serif" font-size="14.00">Engine::getInstance</text>
</a>
</g>
</g>
<!-- Node2 -->
<g id="Node000002" class="node">
<title>Node2</title>
<g id="a_Node000002"><a xlink:href="../../d4/d15/test_2main_8cpp.html#a29d061e3c586567c852ae7668294b68f" target="_top" xlink:title=" ">
<polygon fill="white" stroke="#666666" points="526.5,-730.25 359,-730.25 359,-705 526.5,-705 526.5,-730.25"/>
<text text-anchor="middle" x="442.75" y="-712.95" font-family="Helvetica,sans-Serif" font-size="14.00">addSomeRenderables</text>
</a>
</g>
</g>
<!-- Node1&#45;&gt;Node2 -->
<g id="edge1_Node000001_Node000002" class="edge">
<title>Node1&#45;&gt;Node2</title>
<g id="a_edge1_Node000001_Node000002"><a xlink:title=" ">
<path fill="none" stroke="#63b8ff" stroke-width="2" d="M642.48,-402.4C637.27,-461.94 616.08,-610.09 531.75,-690.62 525.62,-696.47 518.26,-701.06 510.44,-704.65"/>
<polygon fill="#63b8ff" stroke="#63b8ff" stroke-width="2" points="645.96,-402.82 643.23,-392.58 638.98,-402.28 645.96,-402.82"/>
</a>
</g>
</g>
<!-- Node3 -->
<g id="Node000003" class="node">
<title>Node3</title>
<g id="a_Node000003"><a xlink:href="../../d4/d15/test_2main_8cpp.html#ae66f6b31b5ad750f1fe042a706a4e3d4" target="_top" xlink:title=" ">
<polygon fill="white" stroke="#666666" points="260,-415.25 209.5,-415.25 209.5,-390 260,-390 260,-415.25"/>
<text text-anchor="middle" x="234.75" y="-397.95" font-family="Helvetica,sans-Serif" font-size="14.00">main</text>
</a>
</g>
</g>
<!-- Node1&#45;&gt;Node3 -->
<g id="edge18_Node000001_Node000003" class="edge">
<title>Node1&#45;&gt;Node3</title>
<g id="a_edge18_Node000001_Node000003"><a xlink:title=" ">
<path fill="none" stroke="#63b8ff" stroke-width="2" d="M642.87,-402.19C638.51,-459.64 618.98,-598.56 531.75,-657.62 466.24,-701.98 420.41,-700.23 353.75,-657.62 265.17,-601.01 242.11,-459.01 237.02,-415.5"/>
<polygon fill="#63b8ff" stroke="#63b8ff" stroke-width="2" points="646.35,-402.66 643.49,-392.45 639.36,-402.21 646.35,-402.66"/>
</a>
</g>
</g>
<!-- Node4 -->
<g id="Node000004" class="node">
<title>Node4</title>
<g id="a_Node000004"><a xlink:href="../../df/dd5/classBush.html#a435e5a6a66b3a1ae2fb2d3368a051033" target="_top" xlink:title="Animates object.">
<polygon fill="white" stroke="#666666" points="501,-648.25 384.5,-648.25 384.5,-623 501,-623 501,-648.25"/>
<text text-anchor="middle" x="442.75" y="-630.95" font-family="Helvetica,sans-Serif" font-size="14.00">Bush::animate</text>
</a>
</g>
</g>
<!-- Node1&#45;&gt;Node4 -->
<g id="edge3_Node000001_Node000004" class="edge">
<title>Node1&#45;&gt;Node4</title>
<g id="a_edge3_Node000001_Node000004"><a xlink:title=" ">
<path fill="none" stroke="#63b8ff" stroke-width="2" d="M639.47,-402.19C629.2,-451.05 599.87,-557.8 531.75,-613.62 522.98,-620.81 512.18,-625.7 501.19,-629"/>
<polygon fill="#63b8ff" stroke="#63b8ff" stroke-width="2" points="642.89,-402.97 641.39,-392.49 636.02,-401.62 642.89,-402.97"/>
</a>
</g>
</g>
<!-- Node5 -->
<g id="Node000005" class="node">
<title>Node5</title>
<g id="a_Node000005"><a xlink:href="../../d4/dcd/classAnimatedSpriteSheet.html#a9f0f6e23c33869b0caf4fdf68bddc9ba" target="_top" xlink:title="Animates object.">
<polygon fill="white" stroke="#666666" points="524.62,-604.88 360.88,-604.88 360.88,-562.38 524.62,-562.38 524.62,-604.88"/>
<text text-anchor="start" x="368.88" y="-587.58" font-family="Helvetica,sans-Serif" font-size="14.00">AnimatedSpriteSheet</text>
<text text-anchor="middle" x="442.75" y="-570.33" font-family="Helvetica,sans-Serif" font-size="14.00">::animate</text>
</a>
</g>
</g>
<!-- Node1&#45;&gt;Node5 -->
<g id="edge4_Node000001_Node000005" class="edge">
<title>Node1&#45;&gt;Node5</title>
<g id="a_edge4_Node000001_Node000005"><a xlink:title=" ">
<path fill="none" stroke="#63b8ff" stroke-width="2" d="M634.79,-401.31C619.17,-439.38 584.2,-512.34 531.75,-553.62 527.82,-556.72 523.55,-559.51 519.08,-562.01"/>
<polygon fill="#63b8ff" stroke="#63b8ff" stroke-width="2" points="637.96,-402.81 638.39,-392.22 631.45,-400.23 637.96,-402.81"/>
</a>
</g>
</g>
<!-- Node6 -->
<g id="Node000006" class="node">
<title>Node6</title>
<g id="a_Node000006"><a xlink:href="../../de/dde/classFidgetSpinner.html#ac741721bd60be59fd5a2110589412326" target="_top" xlink:title="Animates object.">
<polygon fill="white" stroke="#666666" points="531,-544.25 354.5,-544.25 354.5,-519 531,-519 531,-544.25"/>
<text text-anchor="middle" x="442.75" y="-526.95" font-family="Helvetica,sans-Serif" font-size="14.00">FidgetSpinner::animate</text>
</a>
</g>
</g>
<!-- Node1&#45;&gt;Node6 -->
<g id="edge5_Node000001_Node000006" class="edge">
<title>Node1&#45;&gt;Node6</title>
<g id="a_edge5_Node000001_Node000006"><a xlink:title=" ">
<path fill="none" stroke="#63b8ff" stroke-width="2" d="M630.73,-400.56C612.42,-430.98 576.67,-482.86 531.75,-510.62 526.81,-513.68 521.45,-516.29 515.91,-518.52"/>
<polygon fill="#63b8ff" stroke="#63b8ff" stroke-width="2" points="633.53,-402.7 635.55,-392.3 627.48,-399.17 633.53,-402.7"/>
</a>
</g>
</g>
<!-- Node7 -->
<g id="Node000007" class="node">
<title>Node7</title>
<g id="a_Node000007"><a xlink:href="../../df/d0d/classGamePlayer.html#a5759a456d2640dabde57727de577350d" target="_top" xlink:title="Animates object.">
<polygon fill="white" stroke="#666666" points="524.62,-501.25 360.88,-501.25 360.88,-476 524.62,-476 524.62,-501.25"/>
<text text-anchor="middle" x="442.75" y="-483.95" font-family="Helvetica,sans-Serif" font-size="14.00">GamePlayer::animate</text>
</a>
</g>
</g>
<!-- Node1&#45;&gt;Node7 -->
<g id="edge6_Node000001_Node000007" class="edge">
<title>Node1&#45;&gt;Node7</title>
<g id="a_edge6_Node000001_Node000007"><a xlink:title=" ">
<path fill="none" stroke="#63b8ff" stroke-width="2" d="M622.97,-398.73C601.79,-419.56 567.33,-450.11 531.75,-467.62 525.55,-470.68 518.88,-473.3 512.09,-475.55"/>
<polygon fill="#63b8ff" stroke="#63b8ff" stroke-width="2" points="625.28,-401.36 629.84,-391.8 620.31,-396.43 625.28,-401.36"/>
</a>
</g>
</g>
<!-- Node8 -->
<g id="Node000008" class="node">
<title>Node8</title>
<g id="a_Node000008"><a xlink:href="../../d1/db6/classEngine.html#a02c2a593986272b2fdddee11420bc8ad" target="_top" xlink:title="Builds the window.">
<polygon fill="white" stroke="#666666" points="523.88,-458.25 361.62,-458.25 361.62,-433 523.88,-433 523.88,-458.25"/>
<text text-anchor="middle" x="442.75" y="-440.95" font-family="Helvetica,sans-Serif" font-size="14.00">Engine::buildWindow</text>
</a>
</g>
</g>
<!-- Node1&#45;&gt;Node8 -->
<g id="edge7_Node000001_Node000008" class="edge">
<title>Node1&#45;&gt;Node8</title>
<g id="a_edge7_Node000001_Node000008"><a xlink:title=" ">
<path fill="none" stroke="#63b8ff" stroke-width="2" d="M605.81,-394.9C584.37,-404.64 556.96,-416.3 531.75,-424.62 522.95,-427.53 513.53,-430.21 504.25,-432.62"/>
<polygon fill="#63b8ff" stroke="#63b8ff" stroke-width="2" points="607.01,-398.21 614.62,-390.84 604.08,-391.85 607.01,-398.21"/>
</a>
</g>
</g>
<!-- Node9 -->
<g id="Node000009" class="node">
<title>Node9</title>
<g id="a_Node000009"><a xlink:href="../../d4/d15/test_2main_8cpp.html#a496cbcc7e499f89ecfc16bbee0c2d7c6" target="_top" xlink:title=" ">
<polygon fill="white" stroke="#666666" points="522.38,-415.25 363.12,-415.25 363.12,-390 522.38,-390 522.38,-415.25"/>
<text text-anchor="middle" x="442.75" y="-397.95" font-family="Helvetica,sans-Serif" font-size="14.00">customLoopFunction</text>
</a>
</g>
</g>
<!-- Node1&#45;&gt;Node9 -->
<g id="edge9_Node000001_Node000009" class="edge">
<title>Node1&#45;&gt;Node9</title>
<g id="a_edge9_Node000001_Node000009"><a xlink:title=" ">
<path fill="none" stroke="#63b8ff" stroke-width="2" d="M554.62,-388.24C543.96,-389.62 533.14,-391.03 522.64,-392.39"/>
<polygon fill="#63b8ff" stroke="#63b8ff" stroke-width="2" points="555.05,-391.71 564.51,-386.96 554.14,-384.77 555.05,-391.71"/>
</a>
</g>
</g>
<!-- Node10 -->
<g id="Node000010" class="node">
<title>Node10</title>
<g id="a_Node000010"><a xlink:href="../../de/dc2/classobstacle_1_1LineSegment.html#ace0b97f27900396bbb2248c297698f49" target="_top" xlink:title=" ">
<polygon fill="white" stroke="#666666" points="529.5,-371.88 356,-371.88 356,-329.38 529.5,-329.38 529.5,-371.88"/>
<text text-anchor="start" x="364" y="-354.57" font-family="Helvetica,sans-Serif" font-size="14.00">obstacle::LineSegment</text>
<text text-anchor="middle" x="442.75" y="-337.32" font-family="Helvetica,sans-Serif" font-size="14.00">::draw</text>
</a>
</g>
</g>
<!-- Node1&#45;&gt;Node10 -->
<g id="edge11_Node000001_Node000010" class="edge">
<title>Node1&#45;&gt;Node10</title>
<g id="a_edge11_Node000001_Node000010"><a xlink:title=" ">
<path fill="none" stroke="#63b8ff" stroke-width="2" d="M554.61,-365.01C546.32,-363.93 537.93,-362.85 529.68,-361.78"/>
<polygon fill="#63b8ff" stroke="#63b8ff" stroke-width="2" points="554.14,-368.48 564.51,-366.29 555.05,-361.54 554.14,-368.48"/>
</a>
</g>
</g>
<!-- Node11 -->
<g id="Node000011" class="node">
<title>Node11</title>
<g id="a_Node000011"><a xlink:href="../../d2/d4b/classPlayer.html#a6754159e7c29c0d21d05d3560b088cd3" target="_top" xlink:title="Returns the player&#39;s movement vector multiplied by speed.">
<polygon fill="white" stroke="#666666" points="527.62,-182.25 357.88,-182.25 357.88,-157 527.62,-157 527.62,-182.25"/>
<text text-anchor="middle" x="442.75" y="-164.95" font-family="Helvetica,sans-Serif" font-size="14.00">Player::getMoveVector</text>
</a>
</g>
</g>
<!-- Node1&#45;&gt;Node11 -->
<g id="edge12_Node000001_Node000011" class="edge">
<title>Node1&#45;&gt;Node11</title>
<g id="a_edge12_Node000001_Node000011"><a xlink:title=" ">
<path fill="none" stroke="#63b8ff" stroke-width="2" d="M636.13,-351.51C621.91,-311.08 588.29,-231.92 531.75,-190.62 527.56,-187.57 523,-184.95 518.21,-182.71"/>
<polygon fill="#63b8ff" stroke="#63b8ff" stroke-width="2" points="632.81,-352.62 639.32,-360.98 639.44,-350.39 632.81,-352.62"/>
</a>
</g>
</g>
<!-- Node18 -->
<g id="Node000018" class="node">
<title>Node18</title>
<g id="a_Node000018"><a xlink:href="../../d0/d8d/test2_2main_8cpp.html#adc4fc3d5c105079f45841fb74e7de7f3" target="_top" xlink:title=" ">
<polygon fill="white" stroke="#666666" points="282.88,-131.25 186.62,-131.25 186.62,-106 282.88,-106 282.88,-131.25"/>
<text text-anchor="middle" x="234.75" y="-113.95" font-family="Helvetica,sans-Serif" font-size="14.00">handleBalls</text>
</a>
</g>
</g>
<!-- Node1&#45;&gt;Node18 -->
<g id="edge16_Node000001_Node000018" class="edge">
<title>Node1&#45;&gt;Node18</title>
<g id="a_edge16_Node000001_Node000018"><a xlink:title=" ">
<path fill="none" stroke="#63b8ff" stroke-width="2" d="M639.88,-351C630.31,-302.19 602.14,-196.42 531.75,-147.62 492.66,-120.53 356.51,-117.41 283.26,-117.8"/>
<polygon fill="#63b8ff" stroke="#63b8ff" stroke-width="2" points="636.41,-351.49 641.65,-360.7 643.3,-350.24 636.41,-351.49"/>
</a>
</g>
</g>
<!-- Node19 -->
<g id="Node000019" class="node">
<title>Node19</title>
<g id="a_Node000019"><a xlink:href="../../d1/db6/classEngine.html#aad2cd708d98e2ec28b3e1cabe1df8a96" target="_top" xlink:title="Set Max FPS.">
<polygon fill="white" stroke="#666666" points="516.38,-311.25 369.12,-311.25 369.12,-286 516.38,-286 516.38,-311.25"/>
<text text-anchor="middle" x="442.75" y="-293.95" font-family="Helvetica,sans-Serif" font-size="14.00">Engine::setMaxFps</text>
</a>
</g>
</g>
<!-- Node1&#45;&gt;Node19 -->
<g id="edge19_Node000001_Node000019" class="edge">
<title>Node1&#45;&gt;Node19</title>
<g id="a_edge19_Node000001_Node000019"><a xlink:title=" ">
<path fill="none" stroke="#63b8ff" stroke-width="2" d="M610.22,-357.3C588.35,-345.46 559.01,-330.69 531.75,-320.62 522.74,-317.3 513.02,-314.31 503.46,-311.68"/>
<polygon fill="#63b8ff" stroke="#63b8ff" stroke-width="2" points="608.43,-360.31 618.88,-362.07 611.81,-354.18 608.43,-360.31"/>
</a>
</g>
</g>
<!-- Node20 -->
<g id="Node000020" class="node">
<title>Node20</title>
<g id="a_Node000020"><a xlink:href="../../d1/db6/classEngine.html#ab847a59b534359fee098a57a1f499fca" target="_top" xlink:title="Set resolution.">
<polygon fill="white" stroke="#666666" points="525.75,-57.25 359.75,-57.25 359.75,-32 525.75,-32 525.75,-57.25"/>
<text text-anchor="middle" x="442.75" y="-39.95" font-family="Helvetica,sans-Serif" font-size="14.00">Engine::setResolution</text>
</a>
</g>
</g>
<!-- Node1&#45;&gt;Node20 -->
<g id="edge21_Node000001_Node000020" class="edge">
<title>Node1&#45;&gt;Node20</title>
<g id="a_edge21_Node000001_Node000020"><a xlink:title=" ">
<path fill="none" stroke="#63b8ff" stroke-width="2" d="M642.74,-350.73C638.08,-290.96 617.97,-142.66 531.75,-65.62 528.35,-62.59 524.6,-59.97 520.61,-57.72"/>
<polygon fill="#63b8ff" stroke="#63b8ff" stroke-width="2" points="639.24,-350.85 643.4,-360.59 646.22,-350.38 639.24,-350.85"/>
</a>
</g>
</g>
<!-- Node23 -->
<g id="Node000023" class="node">
<title>Node23</title>
<g id="a_Node000023"><a xlink:href="../../d4/d15/test_2main_8cpp.html#a838d12d1aa38735d394020c7850e7408" target="_top" xlink:title=" ">
<polygon fill="white" stroke="#666666" points="521.25,-268.25 364.25,-268.25 364.25,-243 521.25,-243 521.25,-268.25"/>
<text text-anchor="middle" x="442.75" y="-250.95" font-family="Helvetica,sans-Serif" font-size="14.00">setUpCustomEvents</text>
</a>
</g>
</g>
<!-- Node1&#45;&gt;Node23 -->
<g id="edge24_Node000001_Node000023" class="edge">
<title>Node1&#45;&gt;Node23</title>
<g id="a_edge24_Node000001_Node000023"><a xlink:title=" ">
<path fill="none" stroke="#63b8ff" stroke-width="2" d="M625.03,-354.06C604.37,-331.11 569.3,-296.21 531.75,-276.62 525.9,-273.57 519.6,-270.96 513.16,-268.72"/>
<polygon fill="#63b8ff" stroke="#63b8ff" stroke-width="2" points="622.25,-356.19 631.47,-361.39 627.51,-351.57 622.25,-356.19"/>
</a>
</g>
</g>
<!-- Node24 -->
<g id="Node000024" class="node">
<title>Node24</title>
<g id="a_Node000024"><a xlink:href="../../d1/db6/classEngine.html#ad95fcc3bf9cd939c7b0a2e2b8d9bf7e2" target="_top" xlink:title="Set window title.">
<polygon fill="white" stroke="#666666" points="531.75,-225.25 353.75,-225.25 353.75,-200 531.75,-200 531.75,-225.25"/>
<text text-anchor="middle" x="442.75" y="-207.95" font-family="Helvetica,sans-Serif" font-size="14.00">Engine::setWindowTitle</text>
</a>
</g>
</g>
<!-- Node1&#45;&gt;Node24 -->
<g id="edge26_Node000001_Node000024" class="edge">
<title>Node1&#45;&gt;Node24</title>
<g id="a_edge26_Node000001_Node000024"><a xlink:title=" ">
<path fill="none" stroke="#63b8ff" stroke-width="2" d="M631.68,-352.06C613.99,-319.74 578.47,-263.54 531.75,-233.62 526.99,-230.58 521.83,-227.97 516.47,-225.74"/>
<polygon fill="#63b8ff" stroke="#63b8ff" stroke-width="2" points="628.57,-353.68 636.35,-360.88 634.76,-350.4 628.57,-353.68"/>
</a>
</g>
</g>
<!-- Node25 -->
<g id="Node000025" class="node">
<title>Node25</title>
<g id="a_Node000025"><a xlink:href="../../dc/df0/classBall.html#af30f4707d26a6e7ba0af1dd8cac37684" target="_top" xlink:title="Updates state of object.">
<polygon fill="white" stroke="#666666" points="492.38,-100.25 393.12,-100.25 393.12,-75 492.38,-75 492.38,-100.25"/>
<text text-anchor="middle" x="442.75" y="-82.95" font-family="Helvetica,sans-Serif" font-size="14.00">Ball::update</text>
</a>
</g>
</g>
<!-- Node1&#45;&gt;Node25 -->
<g id="edge28_Node000001_Node000025" class="edge">
<title>Node1&#45;&gt;Node25</title>
<g id="a_edge28_Node000001_Node000025"><a xlink:title=" ">
<path fill="none" stroke="#63b8ff" stroke-width="2" d="M640.4,-350.93C631.48,-298.67 603.95,-179.46 531.75,-114.62 520.93,-104.91 506.68,-98.69 492.81,-94.71"/>
<polygon fill="#63b8ff" stroke="#63b8ff" stroke-width="2" points="636.95,-351.48 641.97,-360.8 643.86,-350.38 636.95,-351.48"/>
</a>
</g>
</g>
<!-- Node2&#45;&gt;Node3 -->
<g id="edge2_Node000002_Node000003" class="edge">
<title>Node2&#45;&gt;Node3</title>
<g id="a_edge2_Node000002_Node000003"><a xlink:title=" ">
<path fill="none" stroke="#63b8ff" stroke-width="2" d="M364.48,-698.66C360.65,-696.29 357.04,-693.62 353.75,-690.62 267.35,-611.76 242.69,-460.31 237.14,-415.45"/>
<polygon fill="#63b8ff" stroke="#63b8ff" stroke-width="2" points="362.59,-701.62 373.07,-703.18 365.85,-695.43 362.59,-701.62"/>
</a>
</g>
</g>
<!-- Node8&#45;&gt;Node3 -->
<g id="edge8_Node000008_Node000003" class="edge">
<title>Node8&#45;&gt;Node3</title>
<g id="a_edge8_Node000008_Node000003"><a xlink:title=" ">
<path fill="none" stroke="#63b8ff" stroke-width="2" d="M366.65,-429.95C329.22,-422.14 286.48,-413.21 260.3,-407.75"/>
<polygon fill="#63b8ff" stroke="#63b8ff" stroke-width="2" points="365.64,-433.31 376.14,-431.93 367.07,-426.46 365.64,-433.31"/>
</a>
</g>
</g>
<!-- Node9&#45;&gt;Node3 -->
<g id="edge10_Node000009_Node000003" class="edge">
<title>Node9&#45;&gt;Node3</title>
<g id="a_edge10_Node000009_Node000003"><a xlink:title=" ">
<path fill="none" stroke="#63b8ff" stroke-width="2" d="M349.71,-402.62C316.81,-402.62 282.41,-402.62 260.13,-402.62"/>
<polygon fill="#63b8ff" stroke="#63b8ff" stroke-width="2" points="349.67,-406.13 359.67,-402.63 349.67,-399.13 349.67,-406.13"/>
</a>
</g>
</g>
<!-- Node12 -->
<g id="Node000012" class="node">
<title>Node12</title>
<g id="a_Node000012"><a xlink:href="../../d2/d4b/classPlayer.html#ad29f780f5ab349975b25f6b7ab49dd9d" target="_top" xlink:title="Moves player on screen.">
<polygon fill="white" stroke="#666666" points="287.38,-223.25 182.12,-223.25 182.12,-198 287.38,-198 287.38,-223.25"/>
<text text-anchor="middle" x="234.75" y="-205.95" font-family="Helvetica,sans-Serif" font-size="14.00">Player::move</text>
</a>
</g>
</g>
<!-- Node11&#45;&gt;Node12 -->
<g id="edge13_Node000011_Node000012" class="edge">
<title>Node11&#45;&gt;Node12</title>
<g id="a_edge13_Node000011_Node000012"><a xlink:title=" ">
<path fill="none" stroke="#63b8ff" stroke-width="2" d="M363.4,-185.22C338.13,-190.25 310.75,-195.7 287.85,-200.26"/>
<polygon fill="#63b8ff" stroke="#63b8ff" stroke-width="2" points="363.91,-188.69 373.04,-183.3 362.54,-181.82 363.91,-188.69"/>
</a>
</g>
</g>
<!-- Node13 -->
<g id="Node000013" class="node">
<title>Node13</title>
<g id="a_Node000013"><a xlink:href="../../d2/d4b/classPlayer.html#a82c3476f3e65a4e2ac6bcd040771bdd4" target="_top" xlink:title="Updates state of object.">
<polygon fill="#fff0f0" stroke="red" points="115.75,-193.25 0,-193.25 0,-168 115.75,-168 115.75,-193.25"/>
<text text-anchor="middle" x="57.88" y="-175.95" font-family="Helvetica,sans-Serif" font-size="14.00">Player::update</text>
</a>
</g>
</g>
<!-- Node11&#45;&gt;Node13 -->
<g id="edge15_Node000011_Node000013" class="edge">
<title>Node11&#45;&gt;Node13</title>
<g id="a_edge15_Node000011_Node000013"><a xlink:title=" ">
<path fill="none" stroke="#63b8ff" stroke-width="2" d="M344.98,-172.41C272.73,-174.48 176.43,-177.25 116.04,-178.98"/>
<polygon fill="#63b8ff" stroke="#63b8ff" stroke-width="2" points="344.81,-175.91 354.7,-172.13 344.6,-168.91 344.81,-175.91"/>
</a>
</g>
</g>
<!-- Node12&#45;&gt;Node13 -->
<g id="edge14_Node000012_Node000013" class="edge">
<title>Node12&#45;&gt;Node13</title>
<g id="a_edge14_Node000012_Node000013"><a xlink:title=" ">
<path fill="none" stroke="#63b8ff" stroke-width="2" d="M169.09,-199.53C151.73,-196.56 133.09,-193.36 116.17,-190.45"/>
<polygon fill="#63b8ff" stroke="#63b8ff" stroke-width="2" points="168.32,-202.95 178.77,-201.19 169.51,-196.05 168.32,-202.95"/>
</a>
</g>
</g>
<!-- Node16 -->
<g id="Node000016" class="node">
<title>Node16</title>
<g id="a_Node000016"><a xlink:href="../../d0/d8d/test2_2main_8cpp.html#a0771209d6ddc7b70e2a222f27b12f387" target="_top" xlink:title=" ">
<polygon fill="#fff0f0" stroke="red" points="107.88,-131.25 7.88,-131.25 7.88,-106 107.88,-106 107.88,-131.25"/>
<text text-anchor="middle" x="57.88" y="-113.95" font-family="Helvetica,sans-Serif" font-size="14.00">customLoop</text>
</a>
</g>
</g>
<!-- Node18&#45;&gt;Node16 -->
<g id="edge17_Node000018_Node000016" class="edge">
<title>Node18&#45;&gt;Node16</title>
<g id="a_edge17_Node000018_Node000016"><a xlink:title=" ">
<path fill="none" stroke="#63b8ff" stroke-width="2" d="M173.55,-118.62C152.29,-118.62 128.65,-118.62 108.37,-118.62"/>
<polygon fill="#63b8ff" stroke="#63b8ff" stroke-width="2" points="173.4,-122.13 183.4,-118.63 173.4,-115.13 173.4,-122.13"/>
</a>
</g>
</g>
<!-- Node19&#45;&gt;Node3 -->
<g id="edge20_Node000019_Node000003" class="edge">
<title>Node19&#45;&gt;Node3</title>
<g id="a_edge20_Node000019_Node000003"><a xlink:title=" ">
<path fill="none" stroke="#63b8ff" stroke-width="2" d="M365.55,-315.81C361.51,-317.3 357.55,-318.9 353.75,-320.62 313.32,-338.98 272.06,-371.45 250.68,-389.54"/>
<polygon fill="#63b8ff" stroke="#63b8ff" stroke-width="2" points="366.61,-319.14 374.97,-312.64 364.38,-312.51 366.61,-319.14"/>
</a>
</g>
</g>
<!-- Node21 -->
<g id="Node000021" class="node">
<title>Node21</title>
<g id="a_Node000021"><a xlink:href="../../d8/d19/test3_2main_8cpp.html#ae66f6b31b5ad750f1fe042a706a4e3d4" target="_top" xlink:title=" ">
<polygon fill="white" stroke="#666666" points="260,-68.25 209.5,-68.25 209.5,-43 260,-43 260,-68.25"/>
<text text-anchor="middle" x="234.75" y="-50.95" font-family="Helvetica,sans-Serif" font-size="14.00">main</text>
</a>
</g>
</g>
<!-- Node20&#45;&gt;Node21 -->
<g id="edge22_Node000020_Node000021" class="edge">
<title>Node20&#45;&gt;Node21</title>
<g id="a_edge22_Node000020_Node000021"><a xlink:title=" ">
<path fill="none" stroke="#63b8ff" stroke-width="2" d="M346.8,-49.69C314.85,-51.4 281.85,-53.16 260.22,-54.32"/>
<polygon fill="#63b8ff" stroke="#63b8ff" stroke-width="2" points="346.62,-53.21 356.42,-49.18 346.25,-46.22 346.62,-53.21"/>
</a>
</g>
</g>
<!-- Node22 -->
<g id="Node000022" class="node">
<title>Node22</title>
<g id="a_Node000022"><a xlink:href="../../d1/db6/classEngine.html#a2f8e8508afaab3d49f3392a3d1752b6b" target="_top" xlink:title="Set resolution.">
<polygon fill="white" stroke="#666666" points="317.75,-25.25 151.75,-25.25 151.75,0 317.75,0 317.75,-25.25"/>
<text text-anchor="middle" x="234.75" y="-7.95" font-family="Helvetica,sans-Serif" font-size="14.00">Engine::setResolution</text>
</a>
</g>
</g>
<!-- Node20&#45;&gt;Node22 -->
<g id="edge23_Node000020_Node000022" class="edge">
<title>Node20&#45;&gt;Node22</title>
<g id="a_edge23_Node000020_Node000022"><a xlink:title=" ">
<path fill="none" stroke="#63b8ff" stroke-width="2" d="M346.84,-29.88C337.18,-28.38 327.43,-26.87 317.92,-25.39"/>
<polygon fill="#63b8ff" stroke="#63b8ff" stroke-width="2" points="346.04,-33.3 356.45,-31.38 347.11,-26.38 346.04,-33.3"/>
</a>
</g>
</g>
<!-- Node23&#45;&gt;Node3 -->
<g id="edge25_Node000023_Node000003" class="edge">
<title>Node23&#45;&gt;Node3</title>
<g id="a_edge25_Node000023_Node000003"><a xlink:title=" ">
<path fill="none" stroke="#63b8ff" stroke-width="2" d="M358.83,-273.87C357.1,-274.75 355.41,-275.66 353.75,-276.62 303.21,-305.98 261.2,-363.72 244.05,-389.57"/>
<polygon fill="#63b8ff" stroke="#63b8ff" stroke-width="2" points="360.15,-277.12 367.9,-269.89 357.34,-270.71 360.15,-277.12"/>
</a>
</g>
</g>
<!-- Node24&#45;&gt;Node3 -->
<g id="edge27_Node000024_Node000003" class="edge">
<title>Node24&#45;&gt;Node3</title>
<g id="a_edge27_Node000024_Node000003"><a xlink:title=" ">
<path fill="none" stroke="#63b8ff" stroke-width="2" d="M357.23,-231.39C356.05,-232.11 354.89,-232.85 353.75,-233.62 293.41,-274.71 254.3,-357.63 240.91,-389.62"/>
<polygon fill="#63b8ff" stroke="#63b8ff" stroke-width="2" points="358.42,-234.71 365.7,-227.02 355.21,-228.49 358.42,-234.71"/>
</a>
</g>
</g>
<!-- Node25&#45;&gt;Node18 -->
<g id="edge29_Node000025_Node000018" class="edge">
<title>Node25&#45;&gt;Node18</title>
<g id="a_edge29_Node000025_Node000018"><a xlink:title=" ">
<path fill="none" stroke="#63b8ff" stroke-width="2" d="M380.19,-96.89C349.06,-101.57 311.88,-107.17 283.04,-111.51"/>
<polygon fill="#63b8ff" stroke="#63b8ff" stroke-width="2" points="380.31,-100.41 389.68,-95.46 379.27,-93.49 380.31,-100.41"/>
</a>
</g>
</g>
</g>
</svg>

<g id="navigator" transform="translate(0 0)" fill="#404254">
  <rect fill="#f2f5e9" fill-opacity="0.5" stroke="#606060" stroke-width=".5" x="0" y="0" width="60" height="60"/>
  <use id="zoomplus" xlink:href="#zoomPlus" x="17" y="9" onmousedown="handleZoom(evt,'in')"/>
  <use id="zoomminus" xlink:href="#zoomMin" x="42" y="9" onmousedown="handleZoom(evt,'out')"/>
  <use id="reset" xlink:href="#resetDef" x="30" y="36" onmousedown="handleReset()"/>
   <use id="arrowup" xlink:href="#arrowUp" x="0" y="0" onmousedown="handlePan(0,-1)"/>
  <use id="arrowright" xlink:href="#arrowRight" x="0" y="0" onmousedown="handlePan(1,0)"/>
  <use id="arrowdown" xlink:href="#arrowDown" x="0" y="0" onmousedown="handlePan(0,1)"/>
  <use id="arrowleft" xlink:href="#arrowLeft" x="0" y="0" onmousedown="handlePan(-1,0)"/>
</g>
<svg viewBox="0 0 15 15" width="100%" height="30px" preserveAspectRatio="xMaxYMin meet">
 <g id="arrow_out" transform="scale(0.3 0.3)">
  <a xlink:href="classEngine_a4fbdd2df29e30dd08de3c285cee8c128_icgraph_org.svg" target="_base">
   <rect id="button" ry="5" rx="5" y="6" x="6" height="38" width="38"
        fill="#f2f5e9" fill-opacity="0.5" stroke="#606060" stroke-width="1.0"/>
   <path id="arrow"
     d="M 11.500037,31.436501 C 11.940474,20.09759 22.043105,11.32322 32.158766,21.979434 L 37.068811,17.246167 C 37.068811,17.246167 37.088388,32 37.088388,32 L 22.160133,31.978069 C 22.160133,31.978069 26.997745,27.140456 26.997745,27.140456 C 18.528582,18.264221 13.291696,25.230495 11.500037,31.436501 z"
     style="fill:#404040;"/>
  </a>
 </g>
</svg>

<style type='text/css'>
<![CDATA[
[data-mouse-over-selected='false'] { opacity: 0.7; }
[data-mouse-over-selected='true']  { opacity: 1.0; }
]]>
</style>
<script type="application/ecmascript"><![CDATA[
document.addEventListener('DOMContentLoaded', (event) => {
  highlightEdges();
  highlightAdjacentNodes();
});
]]></script>
</svg>
