<?xml version="1.0" encoding="UTF-8" standalone="no"?>
<!DOCTYPE svg PUBLIC "-//W3C//DTD SVG 1.1//EN"
 "http://www.w3.org/Graphics/SVG/1.1/DTD/svg11.dtd">
<!-- Generated by graphviz version 9.0.0 (0)
 -->
<!-- Title: Engine::setWindowTitle Pages: 1 -->
<svg width="534pt" height="33pt"
 viewBox="0.00 0.00 533.75 33.25" xmlns="http://www.w3.org/2000/svg" xmlns:xlink="http://www.w3.org/1999/xlink">
<g id="graph0" class="graph" transform="scale(1 1) rotate(0) translate(4 29.25)">
<title>Engine::setWindowTitle</title>
<!-- Node1 -->
<g id="Node000001" class="node">
<title>Node1</title>
<g id="a_Node000001"><a xlink:title="Set window title.">
<polygon fill="#999999" stroke="#666666" points="178,-25.25 0,-25.25 0,0 178,0 178,-25.25"/>
<text text-anchor="middle" x="89" y="-7.95" font-family="Helvetica,sans-Serif" font-size="14.00">Engine::setWindowTitle</text>
</a>
</g>
</g>
<!-- Node2 -->
<g id="Node000002" class="node">
<title>Node2</title>
<g id="a_Node000002"><a xlink:href="../../d1/db6/classEngine.html#a4fbdd2df29e30dd08de3c285cee8c128" target="_top" xlink:title="Instance getter.">
<polygon fill="white" stroke="#666666" points="368.75,-25.25 214,-25.25 214,0 368.75,0 368.75,-25.25"/>
<text text-anchor="middle" x="291.38" y="-7.95" font-family="Helvetica,sans-Serif" font-size="14.00">Engine::getInstance</text>
</a>
</g>
</g>
<!-- Node1&#45;&gt;Node2 -->
<g id="edge1_Node000001_Node000002" class="edge">
<title>Node1&#45;&gt;Node2</title>
<g id="a_edge1_Node000001_Node000002"><a xlink:title=" ">
<path fill="none" stroke="#63b8ff" stroke-width="2" d="M178.47,-12.62C185.9,-12.62 193.42,-12.62 200.86,-12.62"/>
<polygon fill="#63b8ff" stroke="#63b8ff" stroke-width="2" points="200.67,-16.13 210.67,-12.63 200.67,-9.13 200.67,-16.13"/>
</a>
</g>
</g>
<!-- Node3 -->
<g id="Node000003" class="node">
<title>Node3</title>
<g id="a_Node000003"><a xlink:href="../../d1/db6/classEngine.html#a8c98683b0a3aa28d8ab72a8bcd0d52f2" target="_top" xlink:title="Constructor.">
<polygon fill="white" stroke="#666666" points="525.75,-25.25 404.75,-25.25 404.75,0 525.75,0 525.75,-25.25"/>
<text text-anchor="middle" x="465.25" y="-7.95" font-family="Helvetica,sans-Serif" font-size="14.00">Engine::Engine</text>
</a>
</g>
</g>
<!-- Node2&#45;&gt;Node3 -->
<g id="edge2_Node000002_Node000003" class="edge">
<title>Node2&#45;&gt;Node3</title>
<g id="a_edge2_Node000002_Node000003"><a xlink:title=" ">
<path fill="none" stroke="#63b8ff" stroke-width="2" d="M369.01,-12.62C376.49,-12.62 384.06,-12.62 391.5,-12.62"/>
<polygon fill="#63b8ff" stroke="#63b8ff" stroke-width="2" points="391.24,-16.13 401.24,-12.63 391.24,-9.13 391.24,-16.13"/>
</a>
</g>
</g>
</g>
</svg>
