<?xml version="1.0" encoding="UTF-8" standalone="no"?>
<!DOCTYPE svg PUBLIC "-//W3C//DTD SVG 1.1//EN"
 "http://www.w3.org/Graphics/SVG/1.1/DTD/svg11.dtd">
<!-- Generated by graphviz version 9.0.0 (0)
 -->
<!-- Title: Engine::handleEvents Pages: 1 -->
<svg width="321pt" height="162pt"
 viewBox="0.00 0.00 321.25 162.25" xmlns="http://www.w3.org/2000/svg" xmlns:xlink="http://www.w3.org/1999/xlink">
<g id="graph0" class="graph" transform="scale(1 1) rotate(0) translate(4 158.25)">
<title>Engine::handleEvents</title>
<!-- Node1 -->
<g id="Node000001" class="node">
<title>Node1</title>
<g id="a_Node000001"><a xlink:title="Handles events.">
<polygon fill="#999999" stroke="#666666" points="167.5,-89.25 0,-89.25 0,-64 167.5,-64 167.5,-89.25"/>
<text text-anchor="middle" x="83.75" y="-71.95" font-family="Helvetica,sans-Serif" font-size="14.00">Engine::handleEvents</text>
</a>
</g>
</g>
<!-- Node2 -->
<g id="Node000002" class="node">
<title>Node2</title>
<g id="a_Node000002"><a xlink:href="../../d5/d5c/classPoint2d.html#a61607d6c6d2b37580e5a7fb9fd4469ce" target="_top" xlink:title="X co&#45;ordinate getter.">
<polygon fill="white" stroke="#666666" points="313.25,-154.25 203.5,-154.25 203.5,-129 313.25,-129 313.25,-154.25"/>
<text text-anchor="middle" x="258.38" y="-136.95" font-family="Helvetica,sans-Serif" font-size="14.00">Point2d::getX</text>
</a>
</g>
</g>
<!-- Node1&#45;&gt;Node2 -->
<g id="edge1_Node000001_Node000002" class="edge">
<title>Node1&#45;&gt;Node2</title>
<g id="a_edge1_Node000001_Node000002"><a xlink:title=" ">
<path fill="none" stroke="#63b8ff" stroke-width="2" d="M119.27,-89.62C145.53,-99.51 181.93,-113.22 210.78,-124.08"/>
<polygon fill="#63b8ff" stroke="#63b8ff" stroke-width="2" points="209.2,-127.22 219.79,-127.47 211.66,-120.67 209.2,-127.22"/>
</a>
</g>
</g>
<!-- Node3 -->
<g id="Node000003" class="node">
<title>Node3</title>
<g id="a_Node000003"><a xlink:href="../../d5/d5c/classPoint2d.html#a15d17205b944b35ecc564a84aa2f454e" target="_top" xlink:title="Y co&#45;ordinate getter.">
<polygon fill="white" stroke="#666666" points="312.5,-111.25 204.25,-111.25 204.25,-86 312.5,-86 312.5,-111.25"/>
<text text-anchor="middle" x="258.38" y="-93.95" font-family="Helvetica,sans-Serif" font-size="14.00">Point2d::getY</text>
</a>
</g>
</g>
<!-- Node1&#45;&gt;Node3 -->
<g id="edge2_Node000001_Node000003" class="edge">
<title>Node1&#45;&gt;Node3</title>
<g id="a_edge2_Node000001_Node000003"><a xlink:title=" ">
<path fill="none" stroke="#63b8ff" stroke-width="2" d="M167.78,-87.21C175.63,-88.21 183.53,-89.21 191.2,-90.19"/>
<polygon fill="#63b8ff" stroke="#63b8ff" stroke-width="2" points="190.48,-93.63 200.84,-91.42 191.36,-86.68 190.48,-93.63"/>
</a>
</g>
</g>
<!-- Node4 -->
<g id="Node000004" class="node">
<title>Node4</title>
<g id="a_Node000004"><a xlink:href="../../d5/d5c/classPoint2d.html#a5ac1eb40a6d9ed83ae6eeaf63c3bc9f8" target="_top" xlink:title="X co&#45;ordinate setter.">
<polygon fill="white" stroke="#666666" points="312.5,-68.25 204.25,-68.25 204.25,-43 312.5,-43 312.5,-68.25"/>
<text text-anchor="middle" x="258.38" y="-50.95" font-family="Helvetica,sans-Serif" font-size="14.00">Point2d::setX</text>
</a>
</g>
</g>
<!-- Node1&#45;&gt;Node4 -->
<g id="edge3_Node000001_Node000004" class="edge">
<title>Node1&#45;&gt;Node4</title>
<g id="a_edge3_Node000001_Node000004"><a xlink:title=" ">
<path fill="none" stroke="#63b8ff" stroke-width="2" d="M167.78,-66.52C175.54,-65.58 183.33,-64.63 190.92,-63.71"/>
<polygon fill="#63b8ff" stroke="#63b8ff" stroke-width="2" points="191.34,-67.18 200.84,-62.5 190.49,-60.24 191.34,-67.18"/>
</a>
</g>
</g>
<!-- Node5 -->
<g id="Node000005" class="node">
<title>Node5</title>
<g id="a_Node000005"><a xlink:href="../../d5/d5c/classPoint2d.html#adcbbc908d51e04cb1fe05a9f96e67340" target="_top" xlink:title="Y co&#45;ordinate setter.">
<polygon fill="white" stroke="#666666" points="311.75,-25.25 205,-25.25 205,0 311.75,0 311.75,-25.25"/>
<text text-anchor="middle" x="258.38" y="-7.95" font-family="Helvetica,sans-Serif" font-size="14.00">Point2d::setY</text>
</a>
</g>
</g>
<!-- Node1&#45;&gt;Node5 -->
<g id="edge4_Node000001_Node000005" class="edge">
<title>Node1&#45;&gt;Node5</title>
<g id="a_edge4_Node000001_Node000005"><a xlink:title=" ">
<path fill="none" stroke="#63b8ff" stroke-width="2" d="M120.1,-63.52C146.05,-53.9 181.57,-40.73 209.98,-30.2"/>
<polygon fill="#63b8ff" stroke="#63b8ff" stroke-width="2" points="211.07,-33.52 219.23,-26.77 208.64,-26.96 211.07,-33.52"/>
</a>
</g>
</g>
</g>
</svg>
