<?xml version="1.0" encoding="UTF-8" standalone="no"?>
<!DOCTYPE svg PUBLIC "-//W3C//DTD SVG 1.1//EN"
 "http://www.w3.org/Graphics/SVG/1.1/DTD/svg11.dtd">
<!-- Generated by graphviz version 9.0.0 (0)
 -->
<!-- Title: Engine::setEventHandler Pages: 1 -->
<svg width="476pt" height="76pt"
 viewBox="0.00 0.00 476.00 76.25" xmlns="http://www.w3.org/2000/svg" xmlns:xlink="http://www.w3.org/1999/xlink">
<g id="graph0" class="graph" transform="scale(1 1) rotate(0) translate(4 72.25)">
<title>Engine::setEventHandler</title>
<!-- Node1 -->
<g id="Node000001" class="node">
<title>Node1</title>
<g id="a_Node000001"><a xlink:title="Set custom event handler.">
<polygon fill="#999999" stroke="#666666" points="468,-46.25 279.5,-46.25 279.5,-21 468,-21 468,-46.25"/>
<text text-anchor="middle" x="373.75" y="-28.95" font-family="Helvetica,sans-Serif" font-size="14.00">Engine::setEventHandler</text>
</a>
</g>
</g>
<!-- Node2 -->
<g id="Node000002" class="node">
<title>Node2</title>
<g id="a_Node000002"><a xlink:href="../../d0/d8d/test2_2main_8cpp.html#ae66f6b31b5ad750f1fe042a706a4e3d4" target="_top" xlink:title=" ">
<polygon fill="white" stroke="#666666" points="190.25,-68.25 139.75,-68.25 139.75,-43 190.25,-43 190.25,-68.25"/>
<text text-anchor="middle" x="165" y="-50.95" font-family="Helvetica,sans-Serif" font-size="14.00">main</text>
</a>
</g>
</g>
<!-- Node1&#45;&gt;Node2 -->
<g id="edge1_Node000001_Node000002" class="edge">
<title>Node1&#45;&gt;Node2</title>
<g id="a_edge1_Node000001_Node000002"><a xlink:title=" ">
<path fill="none" stroke="#63b8ff" stroke-width="2" d="M266.46,-44.94C238.06,-47.96 209.96,-50.95 190.73,-52.99"/>
<polygon fill="#63b8ff" stroke="#63b8ff" stroke-width="2" points="266.47,-48.45 276.04,-43.92 265.73,-41.49 266.47,-48.45"/>
</a>
</g>
</g>
<!-- Node3 -->
<g id="Node000003" class="node">
<title>Node3</title>
<g id="a_Node000003"><a xlink:href="../../d4/d15/test_2main_8cpp.html#a838d12d1aa38735d394020c7850e7408" target="_top" xlink:title=" ">
<polygon fill="white" stroke="#666666" points="243.5,-25.25 86.5,-25.25 86.5,0 243.5,0 243.5,-25.25"/>
<text text-anchor="middle" x="165" y="-7.95" font-family="Helvetica,sans-Serif" font-size="14.00">setUpCustomEvents</text>
</a>
</g>
</g>
<!-- Node1&#45;&gt;Node3 -->
<g id="edge2_Node000001_Node000003" class="edge">
<title>Node1&#45;&gt;Node3</title>
<g id="a_edge2_Node000001_Node000003"><a xlink:title=" ">
<path fill="none" stroke="#63b8ff" stroke-width="2" d="M266.35,-22.82C258.79,-22.05 251.26,-21.28 243.91,-20.54"/>
<polygon fill="#63b8ff" stroke="#63b8ff" stroke-width="2" points="265.74,-26.27 276.04,-23.8 266.45,-19.31 265.74,-26.27"/>
</a>
</g>
</g>
<!-- Node4 -->
<g id="Node000004" class="node">
<title>Node4</title>
<g id="a_Node000004"><a xlink:href="../../d4/d15/test_2main_8cpp.html#ae66f6b31b5ad750f1fe042a706a4e3d4" target="_top" xlink:title=" ">
<polygon fill="white" stroke="#666666" points="50.5,-25.25 0,-25.25 0,0 50.5,0 50.5,-25.25"/>
<text text-anchor="middle" x="25.25" y="-7.95" font-family="Helvetica,sans-Serif" font-size="14.00">main</text>
</a>
</g>
</g>
<!-- Node3&#45;&gt;Node4 -->
<g id="edge3_Node000003_Node000004" class="edge">
<title>Node3&#45;&gt;Node4</title>
<g id="a_edge3_Node000003_Node000004"><a xlink:title=" ">
<path fill="none" stroke="#63b8ff" stroke-width="2" d="M73.27,-12.62C65.19,-12.62 57.56,-12.62 50.88,-12.62"/>
<polygon fill="#63b8ff" stroke="#63b8ff" stroke-width="2" points="73.24,-16.13 83.24,-12.63 73.24,-9.13 73.24,-16.13"/>
</a>
</g>
</g>
</g>
</svg>
