<?xml version="1.0" encoding="UTF-8" standalone="no"?>
<!DOCTYPE svg PUBLIC "-//W3C//DTD SVG 1.1//EN"
 "http://www.w3.org/Graphics/SVG/1.1/DTD/svg11.dtd">
<!-- Generated by graphviz version 9.0.0 (0)
 -->
<!-- Title: Engine::loop Pages: 1 -->
<svg width="532pt" height="248pt"
 viewBox="0.00 0.00 531.50 248.25" xmlns="http://www.w3.org/2000/svg" xmlns:xlink="http://www.w3.org/1999/xlink">
<g id="graph0" class="graph" transform="scale(1 1) rotate(0) translate(4 244.25)">
<title>Engine::loop</title>
<!-- Node1 -->
<g id="Node000001" class="node">
<title>Node1</title>
<g id="a_Node000001"><a xlink:title="The main loop.">
<polygon fill="#999999" stroke="#666666" points="102.25,-175.25 0,-175.25 0,-150 102.25,-150 102.25,-175.25"/>
<text text-anchor="middle" x="51.12" y="-157.95" font-family="Helvetica,sans-Serif" font-size="14.00">Engine::loop</text>
</a>
</g>
</g>
<!-- Node2 -->
<g id="Node000002" class="node">
<title>Node2</title>
<g id="a_Node000002"><a xlink:href="../../d1/db6/classEngine.html#a1a9fa8518369a908032660e43b364aa2" target="_top" xlink:title="Clears window to a single color.">
<polygon fill="white" stroke="#666666" points="275.38,-240.25 168.62,-240.25 168.62,-215 275.38,-215 275.38,-240.25"/>
<text text-anchor="middle" x="222" y="-222.95" font-family="Helvetica,sans-Serif" font-size="14.00">Engine::clear</text>
</a>
</g>
</g>
<!-- Node1&#45;&gt;Node2 -->
<g id="edge1_Node000001_Node000002" class="edge">
<title>Node1&#45;&gt;Node2</title>
<g id="a_edge1_Node000001_Node000002"><a xlink:title=" ">
<path fill="none" stroke="#63b8ff" stroke-width="2" d="M74.16,-175.63C91.2,-185.24 115.63,-198.1 138.25,-206.62 143.93,-208.77 149.91,-210.76 155.96,-212.6"/>
<polygon fill="#63b8ff" stroke="#63b8ff" stroke-width="2" points="154.88,-215.93 165.45,-215.32 156.8,-209.2 154.88,-215.93"/>
</a>
</g>
</g>
<!-- Node3 -->
<g id="Node000003" class="node">
<title>Node3</title>
<g id="a_Node000003"><a xlink:href="../../d1/db6/classEngine.html#afea89e532624fb7917f271c6bf22b58a" target="_top" xlink:title="Displays rendered objects.">
<polygon fill="white" stroke="#666666" points="283.25,-197.25 160.75,-197.25 160.75,-172 283.25,-172 283.25,-197.25"/>
<text text-anchor="middle" x="222" y="-179.95" font-family="Helvetica,sans-Serif" font-size="14.00">Engine::display</text>
</a>
</g>
</g>
<!-- Node1&#45;&gt;Node3 -->
<g id="edge2_Node000001_Node000003" class="edge">
<title>Node1&#45;&gt;Node3</title>
<g id="a_edge2_Node000001_Node000003"><a xlink:title=" ">
<path fill="none" stroke="#63b8ff" stroke-width="2" d="M102.34,-169.17C116.62,-171.03 132.47,-173.09 147.82,-175.09"/>
<polygon fill="#63b8ff" stroke="#63b8ff" stroke-width="2" points="147.17,-178.54 157.54,-176.36 148.08,-171.6 147.17,-178.54"/>
</a>
</g>
</g>
<!-- Node4 -->
<g id="Node000004" class="node">
<title>Node4</title>
<g id="a_Node000004"><a xlink:href="../../d1/db6/classEngine.html#ad1e8214e8ca9f436d27a7246dd908d9c" target="_top" xlink:title="Handles events.">
<polygon fill="white" stroke="#666666" points="305.75,-154.25 138.25,-154.25 138.25,-129 305.75,-129 305.75,-154.25"/>
<text text-anchor="middle" x="222" y="-136.95" font-family="Helvetica,sans-Serif" font-size="14.00">Engine::handleEvents</text>
</a>
</g>
</g>
<!-- Node1&#45;&gt;Node4 -->
<g id="edge3_Node000001_Node000004" class="edge">
<title>Node1&#45;&gt;Node4</title>
<g id="a_edge3_Node000001_Node000004"><a xlink:title=" ">
<path fill="none" stroke="#63b8ff" stroke-width="2" d="M102.34,-156.38C109.59,-155.48 117.24,-154.53 125.03,-153.56"/>
<polygon fill="#63b8ff" stroke="#63b8ff" stroke-width="2" points="125.28,-157.06 134.77,-152.35 124.41,-150.11 125.28,-157.06"/>
</a>
</g>
</g>
<!-- Node9 -->
<g id="Node000009" class="node">
<title>Node9</title>
<g id="a_Node000009"><a xlink:href="../../d1/db6/classEngine.html#a7960743aefd62e846e7f3cd92c18bc73" target="_top" xlink:title="Renders objects.">
<polygon fill="white" stroke="#666666" points="281.38,-68.25 162.62,-68.25 162.62,-43 281.38,-43 281.38,-68.25"/>
<text text-anchor="middle" x="222" y="-50.95" font-family="Helvetica,sans-Serif" font-size="14.00">Engine::render</text>
</a>
</g>
</g>
<!-- Node1&#45;&gt;Node9 -->
<g id="edge8_Node000001_Node000009" class="edge">
<title>Node1&#45;&gt;Node9</title>
<g id="a_edge8_Node000001_Node000009"><a xlink:title=" ">
<path fill="none" stroke="#63b8ff" stroke-width="2" d="M72.83,-149.5C102.03,-131 155.54,-97.1 189.63,-75.5"/>
<polygon fill="#63b8ff" stroke="#63b8ff" stroke-width="2" points="191.26,-78.61 197.83,-70.31 187.51,-72.7 191.26,-78.61"/>
</a>
</g>
</g>
<!-- Node5 -->
<g id="Node000005" class="node">
<title>Node5</title>
<g id="a_Node000005"><a xlink:href="../../d5/d5c/classPoint2d.html#a61607d6c6d2b37580e5a7fb9fd4469ce" target="_top" xlink:title="X co&#45;ordinate getter.">
<polygon fill="white" stroke="#666666" points="487.5,-240.25 377.75,-240.25 377.75,-215 487.5,-215 487.5,-240.25"/>
<text text-anchor="middle" x="432.62" y="-222.95" font-family="Helvetica,sans-Serif" font-size="14.00">Point2d::getX</text>
</a>
</g>
</g>
<!-- Node4&#45;&gt;Node5 -->
<g id="edge4_Node000004_Node000005" class="edge">
<title>Node4&#45;&gt;Node5</title>
<g id="a_edge4_Node000004_Node000005"><a xlink:title=" ">
<path fill="none" stroke="#63b8ff" stroke-width="2" d="M290.06,-154.62C295.56,-156.88 300.87,-159.52 305.75,-162.62 327.07,-176.19 320.31,-193.26 341.75,-206.62 348.88,-211.07 356.87,-214.58 365.06,-217.34"/>
<polygon fill="#63b8ff" stroke="#63b8ff" stroke-width="2" points="364.07,-220.7 374.65,-220.14 366.03,-213.98 364.07,-220.7"/>
</a>
</g>
</g>
<!-- Node6 -->
<g id="Node000006" class="node">
<title>Node6</title>
<g id="a_Node000006"><a xlink:href="../../d5/d5c/classPoint2d.html#a15d17205b944b35ecc564a84aa2f454e" target="_top" xlink:title="Y co&#45;ordinate getter.">
<polygon fill="white" stroke="#666666" points="486.75,-197.25 378.5,-197.25 378.5,-172 486.75,-172 486.75,-197.25"/>
<text text-anchor="middle" x="432.62" y="-179.95" font-family="Helvetica,sans-Serif" font-size="14.00">Point2d::getY</text>
</a>
</g>
</g>
<!-- Node4&#45;&gt;Node6 -->
<g id="edge5_Node000004_Node000006" class="edge">
<title>Node4&#45;&gt;Node6</title>
<g id="a_edge5_Node000004_Node000006"><a xlink:title=" ">
<path fill="none" stroke="#63b8ff" stroke-width="2" d="M286.44,-154.7C311.57,-159.88 340.45,-165.83 365.81,-171.06"/>
<polygon fill="#63b8ff" stroke="#63b8ff" stroke-width="2" points="364.85,-174.44 375.36,-173.03 366.27,-167.58 364.85,-174.44"/>
</a>
</g>
</g>
<!-- Node7 -->
<g id="Node000007" class="node">
<title>Node7</title>
<g id="a_Node000007"><a xlink:href="../../d5/d5c/classPoint2d.html#a5ac1eb40a6d9ed83ae6eeaf63c3bc9f8" target="_top" xlink:title="X co&#45;ordinate setter.">
<polygon fill="white" stroke="#666666" points="486.75,-154.25 378.5,-154.25 378.5,-129 486.75,-129 486.75,-154.25"/>
<text text-anchor="middle" x="432.62" y="-136.95" font-family="Helvetica,sans-Serif" font-size="14.00">Point2d::setX</text>
</a>
</g>
</g>
<!-- Node4&#45;&gt;Node7 -->
<g id="edge6_Node000004_Node000007" class="edge">
<title>Node4&#45;&gt;Node7</title>
<g id="a_edge6_Node000004_Node000007"><a xlink:title=" ">
<path fill="none" stroke="#63b8ff" stroke-width="2" d="M306.05,-141.62C325.72,-141.62 346.43,-141.62 365.24,-141.62"/>
<polygon fill="#63b8ff" stroke="#63b8ff" stroke-width="2" points="365.21,-145.13 375.21,-141.63 365.21,-138.13 365.21,-145.13"/>
</a>
</g>
</g>
<!-- Node8 -->
<g id="Node000008" class="node">
<title>Node8</title>
<g id="a_Node000008"><a xlink:href="../../d5/d5c/classPoint2d.html#adcbbc908d51e04cb1fe05a9f96e67340" target="_top" xlink:title="Y co&#45;ordinate setter.">
<polygon fill="white" stroke="#666666" points="486,-111.25 379.25,-111.25 379.25,-86 486,-86 486,-111.25"/>
<text text-anchor="middle" x="432.62" y="-93.95" font-family="Helvetica,sans-Serif" font-size="14.00">Point2d::setY</text>
</a>
</g>
</g>
<!-- Node4&#45;&gt;Node8 -->
<g id="edge7_Node000004_Node000008" class="edge">
<title>Node4&#45;&gt;Node8</title>
<g id="a_edge7_Node000004_Node000008"><a xlink:title=" ">
<path fill="none" stroke="#63b8ff" stroke-width="2" d="M286.44,-128.55C311.77,-123.33 340.92,-117.32 366.43,-112.06"/>
<polygon fill="#63b8ff" stroke="#63b8ff" stroke-width="2" points="366.95,-115.53 376.04,-110.08 365.54,-108.67 366.95,-115.53"/>
</a>
</g>
</g>
<!-- Node10 -->
<g id="Node000010" class="node">
<title>Node10</title>
<g id="a_Node000010"><a xlink:href="../../d1/db6/classEngine.html#ab87c318b38e62ced90a7b564c1ef17c6" target="_top" xlink:title="Draws animated objects.">
<polygon fill="#fff0f0" stroke="red" points="523.5,-68.25 341.75,-68.25 341.75,-43 523.5,-43 523.5,-68.25"/>
<text text-anchor="middle" x="432.62" y="-50.95" font-family="Helvetica,sans-Serif" font-size="14.00">Engine::animateObjects</text>
</a>
</g>
</g>
<!-- Node9&#45;&gt;Node10 -->
<g id="edge9_Node000009_Node000010" class="edge">
<title>Node9&#45;&gt;Node10</title>
<g id="a_edge9_Node000009_Node000010"><a xlink:title=" ">
<path fill="none" stroke="#63b8ff" stroke-width="2" d="M281.67,-55.62C296.31,-55.62 312.45,-55.62 328.55,-55.62"/>
<polygon fill="#63b8ff" stroke="#63b8ff" stroke-width="2" points="328.4,-59.13 338.4,-55.63 328.4,-52.13 328.4,-59.13"/>
</a>
</g>
</g>
<!-- Node13 -->
<g id="Node000013" class="node">
<title>Node13</title>
<g id="a_Node000013"><a xlink:href="../../d1/db6/classEngine.html#a66cd39b3396aaeebe23db0203c6aab4a" target="_top" xlink:title="Draws objects.">
<polygon fill="#fff0f0" stroke="red" points="522.75,-25.25 342.5,-25.25 342.5,0 522.75,0 522.75,-25.25"/>
<text text-anchor="middle" x="432.62" y="-7.95" font-family="Helvetica,sans-Serif" font-size="14.00">Engine::drawDrawables</text>
</a>
</g>
</g>
<!-- Node9&#45;&gt;Node13 -->
<g id="edge10_Node000009_Node000013" class="edge">
<title>Node9&#45;&gt;Node13</title>
<g id="a_edge10_Node000009_Node000013"><a xlink:title=" ">
<path fill="none" stroke="#63b8ff" stroke-width="2" d="M281.67,-43.53C304.66,-38.79 331.33,-33.3 355.75,-28.26"/>
<polygon fill="#63b8ff" stroke="#63b8ff" stroke-width="2" points="356.23,-31.74 365.32,-26.29 354.82,-24.88 356.23,-31.74"/>
</a>
</g>
</g>
</g>
</svg>
