<?xml version="1.0" encoding="UTF-8" standalone="no"?>
<!DOCTYPE svg PUBLIC "-//W3C//DTD SVG 1.1//EN"
 "http://www.w3.org/Graphics/SVG/1.1/DTD/svg11.dtd">
<!-- Generated by graphviz version 9.0.0 (0)
 -->
<!-- Title: Engine::add Pages: 1 -->
<svg width="472pt" height="248pt"
 viewBox="0.00 0.00 471.50 248.25" xmlns="http://www.w3.org/2000/svg" xmlns:xlink="http://www.w3.org/1999/xlink">
<g id="graph0" class="graph" transform="scale(1 1) rotate(0) translate(4 244.25)">
<title>Engine::add</title>
<!-- Node1 -->
<g id="Node000001" class="node">
<title>Node1</title>
<g id="a_Node000001"><a xlink:title="Adds drawable to Collection.">
<polygon fill="#999999" stroke="#666666" points="463.5,-132.25 364.25,-132.25 364.25,-107 463.5,-107 463.5,-132.25"/>
<text text-anchor="middle" x="413.88" y="-114.95" font-family="Helvetica,sans-Serif" font-size="14.00">Engine::add</text>
</a>
</g>
</g>
<!-- Node2 -->
<g id="Node000002" class="node">
<title>Node2</title>
<g id="a_Node000002"><a xlink:href="../../d4/d15/test_2main_8cpp.html#a29d061e3c586567c852ae7668294b68f" target="_top" xlink:title=" ">
<polygon fill="white" stroke="#666666" points="327.5,-240.25 160,-240.25 160,-215 327.5,-215 327.5,-240.25"/>
<text text-anchor="middle" x="243.75" y="-222.95" font-family="Helvetica,sans-Serif" font-size="14.00">addSomeRenderables</text>
</a>
</g>
</g>
<!-- Node1&#45;&gt;Node2 -->
<g id="edge1_Node000001_Node000002" class="edge">
<title>Node1&#45;&gt;Node2</title>
<g id="a_edge1_Node000001_Node000002"><a xlink:title=" ">
<path fill="none" stroke="#63b8ff" stroke-width="2" d="M396.07,-143.11C380.63,-162.96 356,-190.63 328.25,-206.62 322.94,-209.69 317.19,-212.3 311.27,-214.54"/>
<polygon fill="#63b8ff" stroke="#63b8ff" stroke-width="2" points="398.82,-145.27 402.03,-135.17 393.23,-141.06 398.82,-145.27"/>
</a>
</g>
</g>
<!-- Node4 -->
<g id="Node000004" class="node">
<title>Node4</title>
<g id="a_Node000004"><a xlink:href="../../d0/d8d/test2_2main_8cpp.html#ab522c6cbdbf0a92d46a9c4bf41867edf" target="_top" xlink:title=" ">
<polygon fill="white" stroke="#666666" points="297.88,-197.25 189.62,-197.25 189.62,-172 297.88,-172 297.88,-197.25"/>
<text text-anchor="middle" x="243.75" y="-179.95" font-family="Helvetica,sans-Serif" font-size="14.00">initializeBush</text>
</a>
</g>
</g>
<!-- Node1&#45;&gt;Node4 -->
<g id="edge3_Node000001_Node000004" class="edge">
<title>Node1&#45;&gt;Node4</title>
<g id="a_edge3_Node000001_Node000004"><a xlink:title=" ">
<path fill="none" stroke="#63b8ff" stroke-width="2" d="M380.24,-138.87C364.86,-147.34 346.01,-156.88 328.25,-163.62 318.75,-167.23 308.4,-170.41 298.33,-173.12"/>
<polygon fill="#63b8ff" stroke="#63b8ff" stroke-width="2" points="381.62,-142.11 388.62,-134.15 378.19,-136.01 381.62,-142.11"/>
</a>
</g>
</g>
<!-- Node6 -->
<g id="Node000006" class="node">
<title>Node6</title>
<g id="a_Node000006"><a xlink:href="../../d0/d8d/test2_2main_8cpp.html#a849ba9190b5ca833d4d046dc6327c9b4" target="_top" xlink:title=" ">
<polygon fill="white" stroke="#666666" points="328.25,-154.25 159.25,-154.25 159.25,-129 328.25,-129 328.25,-154.25"/>
<text text-anchor="middle" x="243.75" y="-136.95" font-family="Helvetica,sans-Serif" font-size="14.00">initializeFidgetSpinner</text>
</a>
</g>
</g>
<!-- Node1&#45;&gt;Node6 -->
<g id="edge5_Node000001_Node000006" class="edge">
<title>Node1&#45;&gt;Node6</title>
<g id="a_edge5_Node000001_Node000006"><a xlink:title=" ">
<path fill="none" stroke="#63b8ff" stroke-width="2" d="M351,-127.72C343.72,-128.67 336.2,-129.66 328.69,-130.64"/>
<polygon fill="#63b8ff" stroke="#63b8ff" stroke-width="2" points="351.33,-131.21 360.79,-126.44 350.42,-124.27 351.33,-131.21"/>
</a>
</g>
</g>
<!-- Node7 -->
<g id="Node000007" class="node">
<title>Node7</title>
<g id="a_Node000007"><a xlink:href="../../d0/d8d/test2_2main_8cpp.html#a1cf2647b6250c416ceb61e8732751f20" target="_top" xlink:title=" ">
<polygon fill="white" stroke="#666666" points="301.62,-111.25 185.88,-111.25 185.88,-86 301.62,-86 301.62,-111.25"/>
<text text-anchor="middle" x="243.75" y="-93.95" font-family="Helvetica,sans-Serif" font-size="14.00">initialziePlayer</text>
</a>
</g>
</g>
<!-- Node1&#45;&gt;Node7 -->
<g id="edge7_Node000001_Node000007" class="edge">
<title>Node1&#45;&gt;Node7</title>
<g id="a_edge7_Node000001_Node000007"><a xlink:title=" ">
<path fill="none" stroke="#63b8ff" stroke-width="2" d="M351.17,-111.92C335.06,-109.91 317.76,-107.74 301.9,-105.76"/>
<polygon fill="#63b8ff" stroke="#63b8ff" stroke-width="2" points="350.43,-115.35 360.79,-113.12 351.3,-108.41 350.43,-115.35"/>
</a>
</g>
</g>
<!-- Node8 -->
<g id="Node000008" class="node">
<title>Node8</title>
<g id="a_Node000008"><a xlink:href="../../d8/d19/test3_2main_8cpp.html#ae66f6b31b5ad750f1fe042a706a4e3d4" target="_top" xlink:title=" ">
<polygon fill="white" stroke="#666666" points="269,-68.25 218.5,-68.25 218.5,-43 269,-43 269,-68.25"/>
<text text-anchor="middle" x="243.75" y="-50.95" font-family="Helvetica,sans-Serif" font-size="14.00">main</text>
</a>
</g>
</g>
<!-- Node1&#45;&gt;Node8 -->
<g id="edge9_Node000001_Node000008" class="edge">
<title>Node1&#45;&gt;Node8</title>
<g id="a_edge9_Node000001_Node000008"><a xlink:title=" ">
<path fill="none" stroke="#63b8ff" stroke-width="2" d="M379.1,-100.27C363.91,-92.14 345.54,-83.1 328.25,-76.62 308.93,-69.39 286.18,-63.85 269.3,-60.29"/>
<polygon fill="#63b8ff" stroke="#63b8ff" stroke-width="2" points="377.41,-103.33 387.86,-105.07 380.77,-97.19 377.41,-103.33"/>
</a>
</g>
</g>
<!-- Node9 -->
<g id="Node000009" class="node">
<title>Node9</title>
<g id="a_Node000009"><a xlink:href="../../d0/d8d/test2_2main_8cpp.html#a319d411c82633d6148bab1419aa7bb18" target="_top" xlink:title=" ">
<polygon fill="white" stroke="#666666" points="284,-25.25 203.5,-25.25 203.5,0 284,0 284,-25.25"/>
<text text-anchor="middle" x="243.75" y="-7.95" font-family="Helvetica,sans-Serif" font-size="14.00">throwBall</text>
</a>
</g>
</g>
<!-- Node1&#45;&gt;Node9 -->
<g id="edge10_Node000001_Node000009" class="edge">
<title>Node1&#45;&gt;Node9</title>
<g id="a_edge10_Node000001_Node000009"><a xlink:title=" ">
<path fill="none" stroke="#63b8ff" stroke-width="2" d="M396.01,-96.41C380.54,-76.8 355.88,-49.44 328.25,-33.62 314.89,-25.98 298.76,-21.08 284.26,-17.97"/>
<polygon fill="#63b8ff" stroke="#63b8ff" stroke-width="2" points="393.13,-98.42 401.98,-104.25 398.7,-94.17 393.13,-98.42"/>
</a>
</g>
</g>
<!-- Node3 -->
<g id="Node000003" class="node">
<title>Node3</title>
<g id="a_Node000003"><a xlink:href="../../d4/d15/test_2main_8cpp.html#ae66f6b31b5ad750f1fe042a706a4e3d4" target="_top" xlink:title=" ">
<polygon fill="white" stroke="#666666" points="86.88,-240.25 36.38,-240.25 36.38,-215 86.88,-215 86.88,-240.25"/>
<text text-anchor="middle" x="61.62" y="-222.95" font-family="Helvetica,sans-Serif" font-size="14.00">main</text>
</a>
</g>
</g>
<!-- Node2&#45;&gt;Node3 -->
<g id="edge2_Node000002_Node000003" class="edge">
<title>Node2&#45;&gt;Node3</title>
<g id="a_edge2_Node000002_Node000003"><a xlink:title=" ">
<path fill="none" stroke="#63b8ff" stroke-width="2" d="M146.54,-227.62C124.49,-227.62 102.94,-227.62 87.19,-227.62"/>
<polygon fill="#63b8ff" stroke="#63b8ff" stroke-width="2" points="146.51,-231.13 156.51,-227.63 146.51,-224.13 146.51,-231.13"/>
</a>
</g>
</g>
<!-- Node5 -->
<g id="Node000005" class="node">
<title>Node5</title>
<g id="a_Node000005"><a xlink:href="../../d0/d8d/test2_2main_8cpp.html#ae66f6b31b5ad750f1fe042a706a4e3d4" target="_top" xlink:title=" ">
<polygon fill="white" stroke="#666666" points="86.88,-133.25 36.38,-133.25 36.38,-108 86.88,-108 86.88,-133.25"/>
<text text-anchor="middle" x="61.62" y="-115.95" font-family="Helvetica,sans-Serif" font-size="14.00">main</text>
</a>
</g>
</g>
<!-- Node4&#45;&gt;Node5 -->
<g id="edge4_Node000004_Node000005" class="edge">
<title>Node4&#45;&gt;Node5</title>
<g id="a_edge4_Node000004_Node000005"><a xlink:title=" ">
<path fill="none" stroke="#63b8ff" stroke-width="2" d="M176.97,-169.22C170.94,-167.47 164.95,-165.6 159.25,-163.62 134.08,-154.93 106.43,-142.29 87.18,-132.96"/>
<polygon fill="#63b8ff" stroke="#63b8ff" stroke-width="2" points="175.85,-172.54 186.42,-171.84 177.72,-165.8 175.85,-172.54"/>
</a>
</g>
</g>
<!-- Node6&#45;&gt;Node5 -->
<g id="edge6_Node000006_Node000005" class="edge">
<title>Node6&#45;&gt;Node5</title>
<g id="a_edge6_Node000006_Node000005"><a xlink:title=" ">
<path fill="none" stroke="#63b8ff" stroke-width="2" d="M145.92,-130.34C124.15,-127.8 102.92,-125.32 87.34,-123.51"/>
<polygon fill="#63b8ff" stroke="#63b8ff" stroke-width="2" points="145.41,-133.8 155.75,-131.48 146.22,-126.85 145.41,-133.8"/>
</a>
</g>
</g>
<!-- Node7&#45;&gt;Node5 -->
<g id="edge8_Node000007_Node000005" class="edge">
<title>Node7&#45;&gt;Node5</title>
<g id="a_edge8_Node000007_Node000005"><a xlink:title=" ">
<path fill="none" stroke="#63b8ff" stroke-width="2" d="M173.03,-107.14C142.77,-110.84 109.27,-114.93 87.2,-117.62"/>
<polygon fill="#63b8ff" stroke="#63b8ff" stroke-width="2" points="173.25,-110.64 182.75,-105.95 172.4,-103.69 173.25,-110.64"/>
</a>
</g>
</g>
<!-- Node9&#45;&gt;Node5 -->
<g id="edge11_Node000009_Node000005" class="edge">
<title>Node9&#45;&gt;Node5</title>
<g id="a_edge11_Node000009_Node000005"><a xlink:title=" ">
<path fill="none" stroke="#63b8ff" stroke-width="2" d="M190.65,-21.57C179.9,-24.55 168.92,-28.47 159.25,-33.62 123.19,-52.84 89.82,-88.38 73.36,-107.55"/>
<polygon fill="#63b8ff" stroke="#63b8ff" stroke-width="2" points="191.26,-25.02 200.12,-19.22 189.57,-18.23 191.26,-25.02"/>
</a>
</g>
</g>
<!-- Node10 -->
<g id="Node000010" class="node">
<title>Node10</title>
<g id="a_Node000010"><a xlink:href="../../d0/d8d/test2_2main_8cpp.html#aa37434f1e3b96de9f9499c8c46acc31f" target="_top" xlink:title=" ">
<polygon fill="#fff0f0" stroke="red" points="123.25,-25.25 0,-25.25 0,0 123.25,0 123.25,-25.25"/>
<text text-anchor="middle" x="61.62" y="-7.95" font-family="Helvetica,sans-Serif" font-size="14.00">throwBallPlayer</text>
</a>
</g>
</g>
<!-- Node9&#45;&gt;Node10 -->
<g id="edge12_Node000009_Node000010" class="edge">
<title>Node9&#45;&gt;Node10</title>
<g id="a_edge12_Node000009_Node000010"><a xlink:title=" ">
<path fill="none" stroke="#63b8ff" stroke-width="2" d="M190.37,-12.62C169.5,-12.62 145.33,-12.62 123.67,-12.62"/>
<polygon fill="#63b8ff" stroke="#63b8ff" stroke-width="2" points="190.19,-16.13 200.19,-12.63 190.19,-9.13 190.19,-16.13"/>
</a>
</g>
</g>
</g>
</svg>
