<?xml version="1.0" encoding="UTF-8" standalone="no"?>
<!DOCTYPE svg PUBLIC "-//W3C//DTD SVG 1.1//EN"
 "http://www.w3.org/Graphics/SVG/1.1/DTD/svg11.dtd">
<!-- Generated by graphviz version 9.0.0 (0)
 -->
<!-- Title: Engine::Engine Pages: 1 -->
<!--zoomable 705 -->

<svg id="main" version="1.1" xmlns="http://www.w3.org/2000/svg" xmlns:xlink="http://www.w3.org/1999/xlink" xml:space="preserve" onload="init(evt)">
<style type="text/css"><![CDATA[
.node, .edge {opacity: 0.7;}
.node.selected, .edge.selected {opacity: 1;}
.edge:hover path { stroke: red; }
.edge:hover polygon { stroke: red; fill: red; }
]]></style>

<defs>
  <circle id="rim" cx="0" cy="0" r="7"/>
  <circle id="rim2" cx="0" cy="0" r="3.5"/>
  <g id="zoomPlus">
    <use xlink:href="#rim" fill="#404040"><set attributeName="fill" to="#808080" begin="zoomplus.mouseover" end="zoomplus.mouseout"/></use>
    <path d="M-4,0h8M0,-4v8" fill="none" stroke="white" stroke-width="1.5" pointer-events="none"/>
  </g>
  <g id="zoomMin">
    <use xlink:href="#rim" fill="#404040"><set attributeName="fill" to="#808080" begin="zoomminus.mouseover" end="zoomminus.mouseout"/></use>
    <path d="M-4,0h8" fill="none" stroke="white" stroke-width="1.5" pointer-events="none"/>
  </g>
  <g id="arrowUp" transform="translate(30 24)">
    <use xlink:href="#rim"/>
    <path pointer-events="none" fill="none" stroke="white" stroke-width="1.5" d="M0,-3.0v7 M-2.5,-0.5L0,-3.0L2.5,-0.5"/>
  </g>
  <g id="arrowRight" transform="rotate(90) translate(36 -43)">
    <use xlink:href="#rim"/>
    <path pointer-events="none" fill="none" stroke="white" stroke-width="1.5" d="M0,-3.0v7 M-2.5,-0.5L0,-3.0L2.5,-0.5"/>
  </g>
  <g id="arrowDown" transform="rotate(180) translate(-30 -48)">
    <use xlink:href="#rim"/>
    <path pointer-events="none" fill="none" stroke="white" stroke-width="1.5" d="M0,-3.0v7 M-2.5,-0.5L0,-3.0L2.5,-0.5"/>
  </g>
  <g id="arrowLeft" transform="rotate(270) translate(-36 17)">
    <use xlink:href="#rim"/>
    <path pointer-events="none" fill="none" stroke="white" stroke-width="1.5" d="M0,-3.0v7 M-2.5,-0.5L0,-3.0L2.5,-0.5"/>
  </g>
  <g id="resetDef">
    <use xlink:href="#rim2" fill="#404040"><set attributeName="fill" to="#808080" begin="reset.mouseover" end="reset.mouseout"/></use>
  </g>
</defs>
<script type="application/ecmascript">
var viewWidth = 666;
var viewHeight = 705;
var sectionId = 'dynsection-1';
</script>
<script type="application/ecmascript" xlink:href="../../svg.min.js"/>
<svg id="graph" class="graph">
<g id="viewport">
<title>Engine::Engine</title>
<!-- Node1 -->
<g id="Node000001" class="node">
<title>Node1</title>
<g id="a_Node000001"><a xlink:title="Constructor.">
<polygon fill="#999999" stroke="#666666" points="658,-355.25 537,-355.25 537,-330 658,-330 658,-355.25"/>
<text text-anchor="middle" x="597.5" y="-337.95" font-family="Helvetica,sans-Serif" font-size="14.00">Engine::Engine</text>
</a>
</g>
</g>
<!-- Node2 -->
<g id="Node000002" class="node">
<title>Node2</title>
<g id="a_Node000002"><a xlink:href="../../d1/db6/classEngine.html#a4fbdd2df29e30dd08de3c285cee8c128" target="_top" xlink:title="Instance getter.">
<polygon fill="white" stroke="#666666" points="501,-355.25 346.25,-355.25 346.25,-330 501,-330 501,-355.25"/>
<text text-anchor="middle" x="423.62" y="-337.95" font-family="Helvetica,sans-Serif" font-size="14.00">Engine::getInstance</text>
</a>
</g>
</g>
<!-- Node1&#45;&gt;Node2 -->
<g id="edge1_Node000001_Node000002" class="edge">
<title>Node1&#45;&gt;Node2</title>
<g id="a_edge1_Node000001_Node000002"><a xlink:title=" ">
<path fill="none" stroke="#63b8ff" stroke-width="2" d="M524.03,-342.62C516.55,-342.62 508.93,-342.62 501.41,-342.62"/>
<polygon fill="#63b8ff" stroke="#63b8ff" stroke-width="2" points="523.84,-346.13 533.84,-342.63 523.84,-339.13 523.84,-346.13"/>
</a>
</g>
</g>
<!-- Node3 -->
<g id="Node000003" class="node">
<title>Node3</title>
<g id="a_Node000003"><a xlink:href="../../d4/d15/test_2main_8cpp.html#a29d061e3c586567c852ae7668294b68f" target="_top" xlink:title=" ">
<polygon fill="white" stroke="#666666" points="305,-421.25 137.5,-421.25 137.5,-396 305,-396 305,-421.25"/>
<text text-anchor="middle" x="221.25" y="-403.95" font-family="Helvetica,sans-Serif" font-size="14.00">addSomeRenderables</text>
</a>
</g>
</g>
<!-- Node2&#45;&gt;Node3 -->
<g id="edge2_Node000002_Node000003" class="edge">
<title>Node2&#45;&gt;Node3</title>
<g id="a_edge2_Node000002_Node000003"><a xlink:title=" ">
<path fill="none" stroke="#63b8ff" stroke-width="2" d="M373.93,-359.96C354.22,-366.86 331.2,-374.78 310.25,-381.62 295.82,-386.34 279.98,-391.28 265.77,-395.62"/>
<polygon fill="#63b8ff" stroke="#63b8ff" stroke-width="2" points="374.92,-363.32 383.19,-356.7 372.6,-356.72 374.92,-363.32"/>
</a>
</g>
</g>
<!-- Node4 -->
<g id="Node000004" class="node">
<title>Node4</title>
<g id="a_Node000004"><a xlink:href="../../d4/d15/test_2main_8cpp.html#ae66f6b31b5ad750f1fe042a706a4e3d4" target="_top" xlink:title=" ">
<polygon fill="white" stroke="#666666" points="73.38,-380.25 22.88,-380.25 22.88,-355 73.38,-355 73.38,-380.25"/>
<text text-anchor="middle" x="48.12" y="-362.95" font-family="Helvetica,sans-Serif" font-size="14.00">main</text>
</a>
</g>
</g>
<!-- Node2&#45;&gt;Node4 -->
<g id="edge15_Node000002_Node000004" class="edge">
<title>Node2&#45;&gt;Node4</title>
<g id="a_edge15_Node000002_Node000004"><a xlink:title=" ">
<path fill="none" stroke="#63b8ff" stroke-width="2" d="M333.34,-348.6C248.2,-354.3 125.51,-362.51 73.7,-365.98"/>
<polygon fill="#63b8ff" stroke="#63b8ff" stroke-width="2" points="333.38,-352.11 343.12,-347.95 332.91,-345.12 333.38,-352.11"/>
</a>
</g>
</g>
<!-- Node5 -->
<g id="Node000005" class="node">
<title>Node5</title>
<g id="a_Node000005"><a xlink:href="../../df/dd5/classBush.html#a435e5a6a66b3a1ae2fb2d3368a051033" target="_top" xlink:title="Animates object.">
<polygon fill="white" stroke="#666666" points="279.5,-611.25 163,-611.25 163,-586 279.5,-586 279.5,-611.25"/>
<text text-anchor="middle" x="221.25" y="-593.95" font-family="Helvetica,sans-Serif" font-size="14.00">Bush::animate</text>
</a>
</g>
</g>
<!-- Node2&#45;&gt;Node5 -->
<g id="edge4_Node000002_Node000005" class="edge">
<title>Node2&#45;&gt;Node5</title>
<g id="a_edge4_Node000002_Node000005"><a xlink:title=" ">
<path fill="none" stroke="#63b8ff" stroke-width="2" d="M417.8,-368.21C407.29,-416.62 377.64,-521.67 310.25,-576.62 301.46,-583.79 290.66,-588.67 279.66,-591.97"/>
<polygon fill="#63b8ff" stroke="#63b8ff" stroke-width="2" points="421.19,-369.1 419.76,-358.6 414.33,-367.7 421.19,-369.1"/>
</a>
</g>
</g>
<!-- Node6 -->
<g id="Node000006" class="node">
<title>Node6</title>
<g id="a_Node000006"><a xlink:href="../../d4/dcd/classAnimatedSpriteSheet.html#a9f0f6e23c33869b0caf4fdf68bddc9ba" target="_top" xlink:title="Animates object.">
<polygon fill="white" stroke="#666666" points="303.12,-567.88 139.38,-567.88 139.38,-525.38 303.12,-525.38 303.12,-567.88"/>
<text text-anchor="start" x="147.38" y="-550.58" font-family="Helvetica,sans-Serif" font-size="14.00">AnimatedSpriteSheet</text>
<text text-anchor="middle" x="221.25" y="-533.33" font-family="Helvetica,sans-Serif" font-size="14.00">::animate</text>
</a>
</g>
</g>
<!-- Node2&#45;&gt;Node6 -->
<g id="edge5_Node000002_Node000006" class="edge">
<title>Node2&#45;&gt;Node6</title>
<g id="a_edge5_Node000002_Node000006"><a xlink:title=" ">
<path fill="none" stroke="#63b8ff" stroke-width="2" d="M412.94,-367.44C397.06,-405.02 361.97,-476.24 310.25,-516.62 306.31,-519.7 302.03,-522.48 297.55,-524.97"/>
<polygon fill="#63b8ff" stroke="#63b8ff" stroke-width="2" points="416.07,-369.04 416.61,-358.46 409.59,-366.39 416.07,-369.04"/>
</a>
</g>
</g>
<!-- Node7 -->
<g id="Node000007" class="node">
<title>Node7</title>
<g id="a_Node000007"><a xlink:href="../../de/dde/classFidgetSpinner.html#ac741721bd60be59fd5a2110589412326" target="_top" xlink:title="Animates object.">
<polygon fill="white" stroke="#666666" points="309.5,-507.25 133,-507.25 133,-482 309.5,-482 309.5,-507.25"/>
<text text-anchor="middle" x="221.25" y="-489.95" font-family="Helvetica,sans-Serif" font-size="14.00">FidgetSpinner::animate</text>
</a>
</g>
</g>
<!-- Node2&#45;&gt;Node7 -->
<g id="edge6_Node000002_Node000007" class="edge">
<title>Node2&#45;&gt;Node7</title>
<g id="a_edge6_Node000002_Node000007"><a xlink:title=" ">
<path fill="none" stroke="#63b8ff" stroke-width="2" d="M408.85,-366.42C390.32,-396.2 354.53,-446.59 310.25,-473.62 305.16,-476.73 299.63,-479.38 293.93,-481.64"/>
<polygon fill="#63b8ff" stroke="#63b8ff" stroke-width="2" points="411.77,-368.35 413.93,-357.98 405.77,-364.74 411.77,-368.35"/>
</a>
</g>
</g>
<!-- Node8 -->
<g id="Node000008" class="node">
<title>Node8</title>
<g id="a_Node000008"><a xlink:href="../../df/d0d/classGamePlayer.html#a5759a456d2640dabde57727de577350d" target="_top" xlink:title="Animates object.">
<polygon fill="white" stroke="#666666" points="303.12,-464.25 139.38,-464.25 139.38,-439 303.12,-439 303.12,-464.25"/>
<text text-anchor="middle" x="221.25" y="-446.95" font-family="Helvetica,sans-Serif" font-size="14.00">GamePlayer::animate</text>
</a>
</g>
</g>
<!-- Node2&#45;&gt;Node8 -->
<g id="edge7_Node000002_Node000008" class="edge">
<title>Node2&#45;&gt;Node8</title>
<g id="a_edge7_Node000002_Node000008"><a xlink:title=" ">
<path fill="none" stroke="#63b8ff" stroke-width="2" d="M400.98,-364.3C379.67,-384.41 345.32,-413.71 310.25,-430.62 303.88,-433.69 297.04,-436.33 290.07,-438.6"/>
<polygon fill="#63b8ff" stroke="#63b8ff" stroke-width="2" points="403.13,-367.09 407.89,-357.63 398.26,-362.05 403.13,-367.09"/>
</a>
</g>
</g>
<!-- Node9 -->
<g id="Node000009" class="node">
<title>Node9</title>
<g id="a_Node000009"><a xlink:href="../../d1/db6/classEngine.html#a02c2a593986272b2fdddee11420bc8ad" target="_top" xlink:title="Builds the window.">
<polygon fill="white" stroke="#666666" points="302.38,-236.25 140.12,-236.25 140.12,-211 302.38,-211 302.38,-236.25"/>
<text text-anchor="middle" x="221.25" y="-218.95" font-family="Helvetica,sans-Serif" font-size="14.00">Engine::buildWindow</text>
</a>
</g>
</g>
<!-- Node2&#45;&gt;Node9 -->
<g id="edge8_Node000002_Node000009" class="edge">
<title>Node2&#45;&gt;Node9</title>
<g id="a_edge8_Node000002_Node000009"><a xlink:title=" ">
<path fill="none" stroke="#63b8ff" stroke-width="2" d="M403.11,-320.16C382.32,-297.68 347.37,-263.75 310.25,-244.62 304.25,-241.53 297.78,-238.89 291.17,-236.62"/>
<polygon fill="#63b8ff" stroke="#63b8ff" stroke-width="2" points="400.29,-322.27 409.59,-327.35 405.49,-317.58 400.29,-322.27"/>
</a>
</g>
</g>
<!-- Node10 -->
<g id="Node000010" class="node">
<title>Node10</title>
<g id="a_Node000010"><a xlink:href="../../d4/d15/test_2main_8cpp.html#a496cbcc7e499f89ecfc16bbee0c2d7c6" target="_top" xlink:title=" ">
<polygon fill="white" stroke="#666666" points="300.88,-193.25 141.62,-193.25 141.62,-168 300.88,-168 300.88,-193.25"/>
<text text-anchor="middle" x="221.25" y="-175.95" font-family="Helvetica,sans-Serif" font-size="14.00">customLoopFunction</text>
</a>
</g>
</g>
<!-- Node2&#45;&gt;Node10 -->
<g id="edge10_Node000002_Node000010" class="edge">
<title>Node2&#45;&gt;Node10</title>
<g id="a_edge10_Node000002_Node000010"><a xlink:title=" ">
<path fill="none" stroke="#63b8ff" stroke-width="2" d="M410.09,-318.4C392.3,-286.53 356.66,-231.12 310.25,-201.62 305.35,-198.51 300.02,-195.85 294.5,-193.59"/>
<polygon fill="#63b8ff" stroke="#63b8ff" stroke-width="2" points="406.94,-319.94 414.77,-327.07 413.1,-316.61 406.94,-319.94"/>
</a>
</g>
</g>
<!-- Node11 -->
<g id="Node000011" class="node">
<title>Node11</title>
<g id="a_Node000011"><a xlink:href="../../de/dc2/classobstacle_1_1LineSegment.html#ace0b97f27900396bbb2248c297698f49" target="_top" xlink:title=" ">
<polygon fill="white" stroke="#666666" points="308,-339.88 134.5,-339.88 134.5,-297.38 308,-297.38 308,-339.88"/>
<text text-anchor="start" x="142.5" y="-322.57" font-family="Helvetica,sans-Serif" font-size="14.00">obstacle::LineSegment</text>
<text text-anchor="middle" x="221.25" y="-305.32" font-family="Helvetica,sans-Serif" font-size="14.00">::draw</text>
</a>
</g>
</g>
<!-- Node2&#45;&gt;Node11 -->
<g id="edge12_Node000002_Node000011" class="edge">
<title>Node2&#45;&gt;Node11</title>
<g id="a_edge12_Node000002_Node000011"><a xlink:title=" ">
<path fill="none" stroke="#63b8ff" stroke-width="2" d="M333.11,-331.9C324.82,-330.91 316.43,-329.91 308.18,-328.92"/>
<polygon fill="#63b8ff" stroke="#63b8ff" stroke-width="2" points="332.66,-335.37 343.01,-333.09 333.5,-328.42 332.66,-335.37"/>
</a>
</g>
</g>
<!-- Node12 -->
<g id="Node000012" class="node">
<title>Node12</title>
<g id="a_Node000012"><a xlink:href="../../d2/d4b/classPlayer.html#a6754159e7c29c0d21d05d3560b088cd3" target="_top" xlink:title="Returns the player&#39;s movement vector multiplied by speed.">
<polygon fill="#fff0f0" stroke="red" points="306.12,-279.25 136.38,-279.25 136.38,-254 306.12,-254 306.12,-279.25"/>
<text text-anchor="middle" x="221.25" y="-261.95" font-family="Helvetica,sans-Serif" font-size="14.00">Player::getMoveVector</text>
</a>
</g>
</g>
<!-- Node2&#45;&gt;Node12 -->
<g id="edge13_Node000002_Node000012" class="edge">
<title>Node2&#45;&gt;Node12</title>
<g id="a_edge13_Node000002_Node000012"><a xlink:title=" ">
<path fill="none" stroke="#63b8ff" stroke-width="2" d="M387.8,-323.62C366,-312.3 337.05,-298.3 310.25,-288.62 301.07,-285.31 291.17,-282.31 281.44,-279.67"/>
<polygon fill="#63b8ff" stroke="#63b8ff" stroke-width="2" points="385.96,-326.61 396.44,-328.18 389.23,-320.42 385.96,-326.61"/>
</a>
</g>
</g>
<!-- Node19 -->
<g id="Node000019" class="node">
<title>Node19</title>
<g id="a_Node000019"><a xlink:href="../../d0/d8d/test2_2main_8cpp.html#adc4fc3d5c105079f45841fb74e7de7f3" target="_top" xlink:title=" ">
<polygon fill="#fff0f0" stroke="red" points="96.25,-46.25 0,-46.25 0,-21 96.25,-21 96.25,-46.25"/>
<text text-anchor="middle" x="48.12" y="-28.95" font-family="Helvetica,sans-Serif" font-size="14.00">handleBalls</text>
</a>
</g>
</g>
<!-- Node2&#45;&gt;Node19 -->
<g id="edge14_Node000002_Node000019" class="edge">
<title>Node2&#45;&gt;Node19</title>
<g id="a_edge14_Node000002_Node000019"><a xlink:title=" ">
<path fill="none" stroke="#63b8ff" stroke-width="2" d="M420.12,-316.7C413.35,-261.92 389.45,-134.39 310.25,-72.62 277.85,-47.36 162.8,-38.36 96.73,-35.23"/>
<polygon fill="#63b8ff" stroke="#63b8ff" stroke-width="2" points="416.63,-316.98 421.22,-326.53 423.59,-316.21 416.63,-316.98"/>
</a>
</g>
</g>
<!-- Node20 -->
<g id="Node000020" class="node">
<title>Node20</title>
<g id="a_Node000020"><a xlink:href="../../d1/db6/classEngine.html#aad2cd708d98e2ec28b3e1cabe1df8a96" target="_top" xlink:title="Set Max FPS.">
<polygon fill="white" stroke="#666666" points="294.88,-107.25 147.62,-107.25 147.62,-82 294.88,-82 294.88,-107.25"/>
<text text-anchor="middle" x="221.25" y="-89.95" font-family="Helvetica,sans-Serif" font-size="14.00">Engine::setMaxFps</text>
</a>
</g>
</g>
<!-- Node2&#45;&gt;Node20 -->
<g id="edge16_Node000002_Node000020" class="edge">
<title>Node2&#45;&gt;Node20</title>
<g id="a_edge16_Node000002_Node000020"><a xlink:title=" ">
<path fill="none" stroke="#63b8ff" stroke-width="2" d="M417.46,-317.08C406.51,-269.71 376.32,-168.26 310.25,-115.62 305.7,-112 300.63,-108.99 295.29,-106.49"/>
<polygon fill="#63b8ff" stroke="#63b8ff" stroke-width="2" points="414.02,-317.7 419.57,-326.73 420.86,-316.21 414.02,-317.7"/>
</a>
</g>
</g>
<!-- Node21 -->
<g id="Node000021" class="node">
<title>Node21</title>
<g id="a_Node000021"><a xlink:href="../../d1/db6/classEngine.html#ab847a59b534359fee098a57a1f499fca" target="_top" xlink:title="Set resolution.">
<polygon fill="#fff0f0" stroke="red" points="304.25,-150.25 138.25,-150.25 138.25,-125 304.25,-125 304.25,-150.25"/>
<text text-anchor="middle" x="221.25" y="-132.95" font-family="Helvetica,sans-Serif" font-size="14.00">Engine::setResolution</text>
</a>
</g>
</g>
<!-- Node2&#45;&gt;Node21 -->
<g id="edge18_Node000002_Node000021" class="edge">
<title>Node2&#45;&gt;Node21</title>
<g id="a_edge18_Node000002_Node000021"><a xlink:title=" ">
<path fill="none" stroke="#63b8ff" stroke-width="2" d="M414.55,-317.78C400.22,-277.78 366.44,-199.46 310.25,-158.62 306.06,-155.58 301.48,-152.97 296.69,-150.73"/>
<polygon fill="#63b8ff" stroke="#63b8ff" stroke-width="2" points="411.2,-318.8 417.76,-327.13 417.82,-316.53 411.2,-318.8"/>
</a>
</g>
</g>
<!-- Node24 -->
<g id="Node000024" class="node">
<title>Node24</title>
<g id="a_Node000024"><a xlink:href="../../d4/d15/test_2main_8cpp.html#a838d12d1aa38735d394020c7850e7408" target="_top" xlink:title=" ">
<polygon fill="white" stroke="#666666" points="299.75,-697.25 142.75,-697.25 142.75,-672 299.75,-672 299.75,-697.25"/>
<text text-anchor="middle" x="221.25" y="-679.95" font-family="Helvetica,sans-Serif" font-size="14.00">setUpCustomEvents</text>
</a>
</g>
</g>
<!-- Node2&#45;&gt;Node24 -->
<g id="edge19_Node000002_Node000024" class="edge">
<title>Node2&#45;&gt;Node24</title>
<g id="a_edge19_Node000002_Node000024"><a xlink:title=" ">
<path fill="none" stroke="#63b8ff" stroke-width="2" d="M421.57,-368.52C417.63,-429.62 398.92,-583.61 310.25,-663.62 306.87,-666.68 303.12,-669.31 299.14,-671.57"/>
<polygon fill="#63b8ff" stroke="#63b8ff" stroke-width="2" points="425.05,-368.9 422.1,-358.73 418.07,-368.53 425.05,-368.9"/>
</a>
</g>
</g>
<!-- Node25 -->
<g id="Node000025" class="node">
<title>Node25</title>
<g id="a_Node000025"><a xlink:href="../../d1/db6/classEngine.html#ad95fcc3bf9cd939c7b0a2e2b8d9bf7e2" target="_top" xlink:title="Set window title.">
<polygon fill="white" stroke="#666666" points="310.25,-654.25 132.25,-654.25 132.25,-629 310.25,-629 310.25,-654.25"/>
<text text-anchor="middle" x="221.25" y="-636.95" font-family="Helvetica,sans-Serif" font-size="14.00">Engine::setWindowTitle</text>
</a>
</g>
</g>
<!-- Node2&#45;&gt;Node25 -->
<g id="edge21_Node000002_Node000025" class="edge">
<title>Node2&#45;&gt;Node25</title>
<g id="a_edge21_Node000002_Node000025"><a xlink:title=" ">
<path fill="none" stroke="#63b8ff" stroke-width="2" d="M420,-368.38C412.95,-423.5 388.5,-553.31 310.25,-620.62 306.68,-623.7 302.73,-626.34 298.56,-628.61"/>
<polygon fill="#63b8ff" stroke="#63b8ff" stroke-width="2" points="423.47,-368.84 421.15,-358.5 416.51,-368.03 423.47,-368.84"/>
</a>
</g>
</g>
<!-- Node26 -->
<g id="Node000026" class="node">
<title>Node26</title>
<g id="a_Node000026"><a xlink:href="../../dc/df0/classBall.html#af30f4707d26a6e7ba0af1dd8cac37684" target="_top" xlink:title="Updates state of object.">
<polygon fill="white" stroke="#666666" points="270.88,-25.25 171.62,-25.25 171.62,0 270.88,0 270.88,-25.25"/>
<text text-anchor="middle" x="221.25" y="-7.95" font-family="Helvetica,sans-Serif" font-size="14.00">Ball::update</text>
</a>
</g>
</g>
<!-- Node2&#45;&gt;Node26 -->
<g id="edge23_Node000002_Node000026" class="edge">
<title>Node2&#45;&gt;Node26</title>
<g id="a_edge23_Node000002_Node000026"><a xlink:title=" ">
<path fill="none" stroke="#63b8ff" stroke-width="2" d="M420.6,-316.97C414.65,-258.98 392.05,-116.85 310.25,-39.62 299.56,-29.53 285.19,-23.21 271.16,-19.24"/>
<polygon fill="#63b8ff" stroke="#63b8ff" stroke-width="2" points="417.11,-317.16 421.51,-326.8 424.08,-316.52 417.11,-317.16"/>
</a>
</g>
</g>
<!-- Node3&#45;&gt;Node4 -->
<g id="edge3_Node000003_Node000004" class="edge">
<title>Node3&#45;&gt;Node4</title>
<g id="a_edge3_Node000003_Node000004"><a xlink:title=" ">
<path fill="none" stroke="#63b8ff" stroke-width="2" d="M153.04,-392.52C125.09,-385.83 94.41,-378.48 73.69,-373.51"/>
<polygon fill="#63b8ff" stroke="#63b8ff" stroke-width="2" points="152.15,-395.91 162.69,-394.83 153.78,-389.1 152.15,-395.91"/>
</a>
</g>
</g>
<!-- Node9&#45;&gt;Node4 -->
<g id="edge9_Node000009_Node000004" class="edge">
<title>Node9&#45;&gt;Node4</title>
<g id="a_edge9_Node000009_Node000004"><a xlink:title=" ">
<path fill="none" stroke="#63b8ff" stroke-width="2" d="M135.71,-242.36C134.54,-243.09 133.38,-243.84 132.25,-244.62 90.92,-273.23 64.32,-329.62 54,-354.87"/>
<polygon fill="#63b8ff" stroke="#63b8ff" stroke-width="2" points="136.91,-245.69 144.16,-237.96 133.67,-239.48 136.91,-245.69"/>
</a>
</g>
</g>
<!-- Node10&#45;&gt;Node4 -->
<g id="edge11_Node000010_Node000004" class="edge">
<title>Node10&#45;&gt;Node4</title>
<g id="a_edge11_Node000010_Node000004"><a xlink:title=" ">
<path fill="none" stroke="#63b8ff" stroke-width="2" d="M134.12,-200.19C133.49,-200.66 132.87,-201.14 132.25,-201.62 80.73,-242.48 58.53,-323.63 51.64,-354.92"/>
<polygon fill="#63b8ff" stroke="#63b8ff" stroke-width="2" points="135.75,-203.3 142.49,-195.12 132.12,-197.31 135.75,-203.3"/>
</a>
</g>
</g>
<!-- Node20&#45;&gt;Node4 -->
<g id="edge17_Node000020_Node000004" class="edge">
<title>Node20&#45;&gt;Node4</title>
<g id="a_edge17_Node000020_Node000004"><a xlink:title=" ">
<path fill="none" stroke="#63b8ff" stroke-width="2" d="M136.66,-111.96C135.13,-113.11 133.66,-114.33 132.25,-115.62 59.83,-182.18 50.39,-313 49.25,-354.6"/>
<polygon fill="#63b8ff" stroke="#63b8ff" stroke-width="2" points="138.17,-115.14 144.89,-106.95 134.53,-109.16 138.17,-115.14"/>
</a>
</g>
</g>
<!-- Node24&#45;&gt;Node4 -->
<g id="edge20_Node000024_Node000004" class="edge">
<title>Node24&#45;&gt;Node4</title>
<g id="a_edge20_Node000024_Node000004"><a xlink:title=" ">
<path fill="none" stroke="#63b8ff" stroke-width="2" d="M132.55,-663.91C132.45,-663.82 132.35,-663.72 132.25,-663.62 48.75,-583.36 47.08,-426.49 48.51,-380.55"/>
<polygon fill="#63b8ff" stroke="#63b8ff" stroke-width="2" points="130.21,-666.53 140.31,-669.75 134.43,-660.94 130.21,-666.53"/>
</a>
</g>
</g>
<!-- Node25&#45;&gt;Node4 -->
<g id="edge22_Node000025_Node000004" class="edge">
<title>Node25&#45;&gt;Node4</title>
<g id="a_edge22_Node000025_Node000004"><a xlink:title=" ">
<path fill="none" stroke="#63b8ff" stroke-width="2" d="M132.88,-621.2C132.67,-621.01 132.46,-620.82 132.25,-620.62 59.61,-553.79 50.32,-422.46 49.23,-380.7"/>
<polygon fill="#63b8ff" stroke="#63b8ff" stroke-width="2" points="130.66,-623.91 140.83,-626.89 134.73,-618.22 130.66,-623.91"/>
</a>
</g>
</g>
<!-- Node26&#45;&gt;Node19 -->
<g id="edge24_Node000026_Node000019" class="edge">
<title>Node26&#45;&gt;Node19</title>
<g id="a_edge24_Node000026_Node000019"><a xlink:title=" ">
<path fill="none" stroke="#63b8ff" stroke-width="2" d="M158.5,-20.2C138.14,-22.7 115.83,-25.44 96.69,-27.79"/>
<polygon fill="#63b8ff" stroke="#63b8ff" stroke-width="2" points="158.71,-23.7 168.21,-19.01 157.86,-16.76 158.71,-23.7"/>
</a>
</g>
</g>
</g>
</svg>

<g id="navigator" transform="translate(0 0)" fill="#404254">
  <rect fill="#f2f5e9" fill-opacity="0.5" stroke="#606060" stroke-width=".5" x="0" y="0" width="60" height="60"/>
  <use id="zoomplus" xlink:href="#zoomPlus" x="17" y="9" onmousedown="handleZoom(evt,'in')"/>
  <use id="zoomminus" xlink:href="#zoomMin" x="42" y="9" onmousedown="handleZoom(evt,'out')"/>
  <use id="reset" xlink:href="#resetDef" x="30" y="36" onmousedown="handleReset()"/>
   <use id="arrowup" xlink:href="#arrowUp" x="0" y="0" onmousedown="handlePan(0,-1)"/>
  <use id="arrowright" xlink:href="#arrowRight" x="0" y="0" onmousedown="handlePan(1,0)"/>
  <use id="arrowdown" xlink:href="#arrowDown" x="0" y="0" onmousedown="handlePan(0,1)"/>
  <use id="arrowleft" xlink:href="#arrowLeft" x="0" y="0" onmousedown="handlePan(-1,0)"/>
</g>
<svg viewBox="0 0 15 15" width="100%" height="30px" preserveAspectRatio="xMaxYMin meet">
 <g id="arrow_out" transform="scale(0.3 0.3)">
  <a xlink:href="classEngine_a8c98683b0a3aa28d8ab72a8bcd0d52f2_icgraph_org.svg" target="_base">
   <rect id="button" ry="5" rx="5" y="6" x="6" height="38" width="38"
        fill="#f2f5e9" fill-opacity="0.5" stroke="#606060" stroke-width="1.0"/>
   <path id="arrow"
     d="M 11.500037,31.436501 C 11.940474,20.09759 22.043105,11.32322 32.158766,21.979434 L 37.068811,17.246167 C 37.068811,17.246167 37.088388,32 37.088388,32 L 22.160133,31.978069 C 22.160133,31.978069 26.997745,27.140456 26.997745,27.140456 C 18.528582,18.264221 13.291696,25.230495 11.500037,31.436501 z"
     style="fill:#404040;"/>
  </a>
 </g>
</svg>

<style type='text/css'>
<![CDATA[
[data-mouse-over-selected='false'] { opacity: 0.7; }
[data-mouse-over-selected='true']  { opacity: 1.0; }
]]>
</style>
<script type="application/ecmascript"><![CDATA[
document.addEventListener('DOMContentLoaded', (event) => {
  highlightEdges();
  highlightAdjacentNodes();
});
]]></script>
</svg>
