<?xml version="1.0" encoding="UTF-8" standalone="no"?>
<!DOCTYPE svg PUBLIC "-//W3C//DTD SVG 1.1//EN"
 "http://www.w3.org/Graphics/SVG/1.1/DTD/svg11.dtd">
<!-- Generated by graphviz version 9.0.0 (0)
 -->
<!-- Title: Engine::setResolution Pages: 1 -->
<svg width="567pt" height="33pt"
 viewBox="0.00 0.00 566.75 33.25" xmlns="http://www.w3.org/2000/svg" xmlns:xlink="http://www.w3.org/1999/xlink">
<g id="graph0" class="graph" transform="scale(1 1) rotate(0) translate(4 29.25)">
<title>Engine::setResolution</title>
<!-- Node1 -->
<g id="Node000001" class="node">
<title>Node1</title>
<g id="a_Node000001"><a xlink:title="Set resolution.">
<polygon fill="#999999" stroke="#666666" points="166,-25.25 0,-25.25 0,0 166,0 166,-25.25"/>
<text text-anchor="middle" x="83" y="-7.95" font-family="Helvetica,sans-Serif" font-size="14.00">Engine::setResolution</text>
</a>
</g>
</g>
<!-- Node2 -->
<g id="Node000002" class="node">
<title>Node2</title>
<g id="a_Node000002"><a xlink:href="../../d1/db6/classEngine.html#ab847a59b534359fee098a57a1f499fca" target="_top" xlink:title="Set resolution.">
<polygon fill="white" stroke="#666666" points="368,-25.25 202,-25.25 202,0 368,0 368,-25.25"/>
<text text-anchor="middle" x="285" y="-7.95" font-family="Helvetica,sans-Serif" font-size="14.00">Engine::setResolution</text>
</a>
</g>
</g>
<!-- Node1&#45;&gt;Node2 -->
<g id="edge1_Node000001_Node000002" class="edge">
<title>Node1&#45;&gt;Node2</title>
<g id="a_edge1_Node000001_Node000002"><a xlink:title=" ">
<path fill="none" stroke="#63b8ff" stroke-width="2" d="M166.21,-12.62C173.74,-12.62 181.4,-12.62 189.02,-12.62"/>
<polygon fill="#63b8ff" stroke="#63b8ff" stroke-width="2" points="188.76,-16.13 198.76,-12.63 188.76,-9.13 188.76,-16.13"/>
</a>
</g>
</g>
<!-- Node3 -->
<g id="Node000003" class="node">
<title>Node3</title>
<g id="a_Node000003"><a xlink:href="../../d1/db6/classEngine.html#a4fbdd2df29e30dd08de3c285cee8c128" target="_top" xlink:title="Instance getter.">
<polygon fill="#fff0f0" stroke="red" points="558.75,-25.25 404,-25.25 404,0 558.75,0 558.75,-25.25"/>
<text text-anchor="middle" x="481.38" y="-7.95" font-family="Helvetica,sans-Serif" font-size="14.00">Engine::getInstance</text>
</a>
</g>
</g>
<!-- Node2&#45;&gt;Node3 -->
<g id="edge2_Node000002_Node000003" class="edge">
<title>Node2&#45;&gt;Node3</title>
<g id="a_edge2_Node000002_Node000003"><a xlink:title=" ">
<path fill="none" stroke="#63b8ff" stroke-width="2" d="M368.43,-12.62C375.83,-12.62 383.35,-12.62 390.8,-12.62"/>
<polygon fill="#63b8ff" stroke="#63b8ff" stroke-width="2" points="390.66,-16.13 400.66,-12.63 390.66,-9.13 390.66,-16.13"/>
</a>
</g>
</g>
</g>
</svg>
