<?xml version="1.0" encoding="UTF-8" standalone="no"?>
<!DOCTYPE svg PUBLIC "-//W3C//DTD SVG 1.1//EN"
 "http://www.w3.org/Graphics/SVG/1.1/DTD/svg11.dtd">
<!-- Generated by graphviz version 9.0.0 (0)
 -->
<!-- Title: Engine::buildWindow Pages: 1 -->
<svg width="518pt" height="119pt"
 viewBox="0.00 0.00 518.00 119.25" xmlns="http://www.w3.org/2000/svg" xmlns:xlink="http://www.w3.org/1999/xlink">
<g id="graph0" class="graph" transform="scale(1 1) rotate(0) translate(4 115.25)">
<title>Engine::buildWindow</title>
<!-- Node1 -->
<g id="Node000001" class="node">
<title>Node1</title>
<g id="a_Node000001"><a xlink:title="Builds the window.">
<polygon fill="#999999" stroke="#666666" points="162.25,-68.25 0,-68.25 0,-43 162.25,-43 162.25,-68.25"/>
<text text-anchor="middle" x="81.12" y="-50.95" font-family="Helvetica,sans-Serif" font-size="14.00">Engine::buildWindow</text>
</a>
</g>
</g>
<!-- Node2 -->
<g id="Node000002" class="node">
<title>Node2</title>
<g id="a_Node000002"><a xlink:href="../../d1/db6/classEngine.html#a4fbdd2df29e30dd08de3c285cee8c128" target="_top" xlink:title="Instance getter.">
<polygon fill="white" stroke="#666666" points="353,-111.25 198.25,-111.25 198.25,-86 353,-86 353,-111.25"/>
<text text-anchor="middle" x="275.62" y="-93.95" font-family="Helvetica,sans-Serif" font-size="14.00">Engine::getInstance</text>
</a>
</g>
</g>
<!-- Node1&#45;&gt;Node2 -->
<g id="edge1_Node000001_Node000002" class="edge">
<title>Node1&#45;&gt;Node2</title>
<g id="a_edge1_Node000001_Node000002"><a xlink:title=" ">
<path fill="none" stroke="#63b8ff" stroke-width="2" d="M140.67,-68.7C160.45,-73.12 182.76,-78.11 203.42,-82.72"/>
<polygon fill="#63b8ff" stroke="#63b8ff" stroke-width="2" points="202.55,-86.11 213.08,-84.88 204.08,-79.28 202.55,-86.11"/>
</a>
</g>
</g>
<!-- Node4 -->
<g id="Node000004" class="node">
<title>Node4</title>
<g id="a_Node000004"><a xlink:href="../../d5/d5c/classPoint2d.html#a61607d6c6d2b37580e5a7fb9fd4469ce" target="_top" xlink:title="X co&#45;ordinate getter.">
<polygon fill="white" stroke="#666666" points="330.5,-68.25 220.75,-68.25 220.75,-43 330.5,-43 330.5,-68.25"/>
<text text-anchor="middle" x="275.62" y="-50.95" font-family="Helvetica,sans-Serif" font-size="14.00">Point2d::getX</text>
</a>
</g>
</g>
<!-- Node1&#45;&gt;Node4 -->
<g id="edge3_Node000001_Node000004" class="edge">
<title>Node1&#45;&gt;Node4</title>
<g id="a_edge3_Node000001_Node000004"><a xlink:title=" ">
<path fill="none" stroke="#63b8ff" stroke-width="2" d="M162.65,-55.62C177.56,-55.62 192.98,-55.62 207.44,-55.62"/>
<polygon fill="#63b8ff" stroke="#63b8ff" stroke-width="2" points="207.38,-59.13 217.38,-55.63 207.38,-52.13 207.38,-59.13"/>
</a>
</g>
</g>
<!-- Node5 -->
<g id="Node000005" class="node">
<title>Node5</title>
<g id="a_Node000005"><a xlink:href="../../d5/d5c/classPoint2d.html#a15d17205b944b35ecc564a84aa2f454e" target="_top" xlink:title="Y co&#45;ordinate getter.">
<polygon fill="white" stroke="#666666" points="329.75,-25.25 221.5,-25.25 221.5,0 329.75,0 329.75,-25.25"/>
<text text-anchor="middle" x="275.62" y="-7.95" font-family="Helvetica,sans-Serif" font-size="14.00">Point2d::getY</text>
</a>
</g>
</g>
<!-- Node1&#45;&gt;Node5 -->
<g id="edge4_Node000001_Node000005" class="edge">
<title>Node1&#45;&gt;Node5</title>
<g id="a_edge4_Node000001_Node000005"><a xlink:title=" ">
<path fill="none" stroke="#63b8ff" stroke-width="2" d="M140.67,-42.55C162.12,-37.76 186.54,-32.3 208.6,-27.37"/>
<polygon fill="#63b8ff" stroke="#63b8ff" stroke-width="2" points="209.33,-30.8 218.32,-25.2 207.8,-23.97 209.33,-30.8"/>
</a>
</g>
</g>
<!-- Node3 -->
<g id="Node000003" class="node">
<title>Node3</title>
<g id="a_Node000003"><a xlink:href="../../d1/db6/classEngine.html#a8c98683b0a3aa28d8ab72a8bcd0d52f2" target="_top" xlink:title="Constructor.">
<polygon fill="white" stroke="#666666" points="510,-111.25 389,-111.25 389,-86 510,-86 510,-111.25"/>
<text text-anchor="middle" x="449.5" y="-93.95" font-family="Helvetica,sans-Serif" font-size="14.00">Engine::Engine</text>
</a>
</g>
</g>
<!-- Node2&#45;&gt;Node3 -->
<g id="edge2_Node000002_Node000003" class="edge">
<title>Node2&#45;&gt;Node3</title>
<g id="a_edge2_Node000002_Node000003"><a xlink:title=" ">
<path fill="none" stroke="#63b8ff" stroke-width="2" d="M353.26,-98.62C360.74,-98.62 368.31,-98.62 375.75,-98.62"/>
<polygon fill="#63b8ff" stroke="#63b8ff" stroke-width="2" points="375.49,-102.13 385.49,-98.63 375.49,-95.13 375.49,-102.13"/>
</a>
</g>
</g>
</g>
</svg>
