<?xml version="1.0" encoding="UTF-8" standalone="no"?>
<!DOCTYPE svg PUBLIC "-//W3C//DTD SVG 1.1//EN"
 "http://www.w3.org/Graphics/SVG/1.1/DTD/svg11.dtd">
<!-- Generated by graphviz version 9.0.0 (0)
 -->
<!-- Title: Engine::loop Pages: 1 -->
<!--zoomable 248 -->

<svg id="main" version="1.1" xmlns="http://www.w3.org/2000/svg" xmlns:xlink="http://www.w3.org/1999/xlink" xml:space="preserve" onload="init(evt)">
<style type="text/css"><![CDATA[
.node, .edge {opacity: 0.7;}
.node.selected, .edge.selected {opacity: 1;}
.edge:hover path { stroke: red; }
.edge:hover polygon { stroke: red; fill: red; }
]]></style>

<defs>
  <circle id="rim" cx="0" cy="0" r="7"/>
  <circle id="rim2" cx="0" cy="0" r="3.5"/>
  <g id="zoomPlus">
    <use xlink:href="#rim" fill="#404040"><set attributeName="fill" to="#808080" begin="zoomplus.mouseover" end="zoomplus.mouseout"/></use>
    <path d="M-4,0h8M0,-4v8" fill="none" stroke="white" stroke-width="1.5" pointer-events="none"/>
  </g>
  <g id="zoomMin">
    <use xlink:href="#rim" fill="#404040"><set attributeName="fill" to="#808080" begin="zoomminus.mouseover" end="zoomminus.mouseout"/></use>
    <path d="M-4,0h8" fill="none" stroke="white" stroke-width="1.5" pointer-events="none"/>
  </g>
  <g id="arrowUp" transform="translate(30 24)">
    <use xlink:href="#rim"/>
    <path pointer-events="none" fill="none" stroke="white" stroke-width="1.5" d="M0,-3.0v7 M-2.5,-0.5L0,-3.0L2.5,-0.5"/>
  </g>
  <g id="arrowRight" transform="rotate(90) translate(36 -43)">
    <use xlink:href="#rim"/>
    <path pointer-events="none" fill="none" stroke="white" stroke-width="1.5" d="M0,-3.0v7 M-2.5,-0.5L0,-3.0L2.5,-0.5"/>
  </g>
  <g id="arrowDown" transform="rotate(180) translate(-30 -48)">
    <use xlink:href="#rim"/>
    <path pointer-events="none" fill="none" stroke="white" stroke-width="1.5" d="M0,-3.0v7 M-2.5,-0.5L0,-3.0L2.5,-0.5"/>
  </g>
  <g id="arrowLeft" transform="rotate(270) translate(-36 17)">
    <use xlink:href="#rim"/>
    <path pointer-events="none" fill="none" stroke="white" stroke-width="1.5" d="M0,-3.0v7 M-2.5,-0.5L0,-3.0L2.5,-0.5"/>
  </g>
  <g id="resetDef">
    <use xlink:href="#rim2" fill="#404040"><set attributeName="fill" to="#808080" begin="reset.mouseover" end="reset.mouseout"/></use>
  </g>
</defs>
<script type="application/ecmascript">
var viewWidth = 532;
var viewHeight = 248;
var sectionId = 'dynsection-17';
</script>
<script type="application/ecmascript" xlink:href="../../svg.min.js"/>
<svg id="graph" class="graph">
<g id="viewport">
<title>Engine::loop</title>
<!-- Node1 -->
<g id="Node000001" class="node">
<title>Node1</title>
<g id="a_Node000001"><a xlink:title="The main loop.">
<polygon fill="#999999" stroke="#666666" points="102.25,-175.25 0,-175.25 0,-150 102.25,-150 102.25,-175.25"/>
<text text-anchor="middle" x="51.12" y="-157.95" font-family="Helvetica,sans-Serif" font-size="14.00">Engine::loop</text>
</a>
</g>
</g>
<!-- Node2 -->
<g id="Node000002" class="node">
<title>Node2</title>
<g id="a_Node000002"><a xlink:href="../../d1/db6/classEngine.html#a1a9fa8518369a908032660e43b364aa2" target="_top" xlink:title="Clears window to a single color.">
<polygon fill="white" stroke="#666666" points="275.38,-240.25 168.62,-240.25 168.62,-215 275.38,-215 275.38,-240.25"/>
<text text-anchor="middle" x="222" y="-222.95" font-family="Helvetica,sans-Serif" font-size="14.00">Engine::clear</text>
</a>
</g>
</g>
<!-- Node1&#45;&gt;Node2 -->
<g id="edge1_Node000001_Node000002" class="edge">
<title>Node1&#45;&gt;Node2</title>
<g id="a_edge1_Node000001_Node000002"><a xlink:title=" ">
<path fill="none" stroke="#63b8ff" stroke-width="2" d="M74.16,-175.63C91.2,-185.24 115.63,-198.1 138.25,-206.62 143.93,-208.77 149.91,-210.76 155.96,-212.6"/>
<polygon fill="#63b8ff" stroke="#63b8ff" stroke-width="2" points="154.88,-215.93 165.45,-215.32 156.8,-209.2 154.88,-215.93"/>
</a>
</g>
</g>
<!-- Node3 -->
<g id="Node000003" class="node">
<title>Node3</title>
<g id="a_Node000003"><a xlink:href="../../d1/db6/classEngine.html#afea89e532624fb7917f271c6bf22b58a" target="_top" xlink:title="Displays rendered objects.">
<polygon fill="white" stroke="#666666" points="283.25,-197.25 160.75,-197.25 160.75,-172 283.25,-172 283.25,-197.25"/>
<text text-anchor="middle" x="222" y="-179.95" font-family="Helvetica,sans-Serif" font-size="14.00">Engine::display</text>
</a>
</g>
</g>
<!-- Node1&#45;&gt;Node3 -->
<g id="edge2_Node000001_Node000003" class="edge">
<title>Node1&#45;&gt;Node3</title>
<g id="a_edge2_Node000001_Node000003"><a xlink:title=" ">
<path fill="none" stroke="#63b8ff" stroke-width="2" d="M102.34,-169.17C116.62,-171.03 132.47,-173.09 147.82,-175.09"/>
<polygon fill="#63b8ff" stroke="#63b8ff" stroke-width="2" points="147.17,-178.54 157.54,-176.36 148.08,-171.6 147.17,-178.54"/>
</a>
</g>
</g>
<!-- Node4 -->
<g id="Node000004" class="node">
<title>Node4</title>
<g id="a_Node000004"><a xlink:href="../../d1/db6/classEngine.html#ad1e8214e8ca9f436d27a7246dd908d9c" target="_top" xlink:title="Handles events.">
<polygon fill="white" stroke="#666666" points="305.75,-154.25 138.25,-154.25 138.25,-129 305.75,-129 305.75,-154.25"/>
<text text-anchor="middle" x="222" y="-136.95" font-family="Helvetica,sans-Serif" font-size="14.00">Engine::handleEvents</text>
</a>
</g>
</g>
<!-- Node1&#45;&gt;Node4 -->
<g id="edge3_Node000001_Node000004" class="edge">
<title>Node1&#45;&gt;Node4</title>
<g id="a_edge3_Node000001_Node000004"><a xlink:title=" ">
<path fill="none" stroke="#63b8ff" stroke-width="2" d="M102.34,-156.38C109.59,-155.48 117.24,-154.53 125.03,-153.56"/>
<polygon fill="#63b8ff" stroke="#63b8ff" stroke-width="2" points="125.28,-157.06 134.77,-152.35 124.41,-150.11 125.28,-157.06"/>
</a>
</g>
</g>
<!-- Node9 -->
<g id="Node000009" class="node">
<title>Node9</title>
<g id="a_Node000009"><a xlink:href="../../d1/db6/classEngine.html#a7960743aefd62e846e7f3cd92c18bc73" target="_top" xlink:title="Renders objects.">
<polygon fill="white" stroke="#666666" points="281.38,-68.25 162.62,-68.25 162.62,-43 281.38,-43 281.38,-68.25"/>
<text text-anchor="middle" x="222" y="-50.95" font-family="Helvetica,sans-Serif" font-size="14.00">Engine::render</text>
</a>
</g>
</g>
<!-- Node1&#45;&gt;Node9 -->
<g id="edge8_Node000001_Node000009" class="edge">
<title>Node1&#45;&gt;Node9</title>
<g id="a_edge8_Node000001_Node000009"><a xlink:title=" ">
<path fill="none" stroke="#63b8ff" stroke-width="2" d="M72.83,-149.5C102.03,-131 155.54,-97.1 189.63,-75.5"/>
<polygon fill="#63b8ff" stroke="#63b8ff" stroke-width="2" points="191.26,-78.61 197.83,-70.31 187.51,-72.7 191.26,-78.61"/>
</a>
</g>
</g>
<!-- Node5 -->
<g id="Node000005" class="node">
<title>Node5</title>
<g id="a_Node000005"><a xlink:href="../../d5/d5c/classPoint2d.html#a61607d6c6d2b37580e5a7fb9fd4469ce" target="_top" xlink:title="X co&#45;ordinate getter.">
<polygon fill="white" stroke="#666666" points="487.5,-240.25 377.75,-240.25 377.75,-215 487.5,-215 487.5,-240.25"/>
<text text-anchor="middle" x="432.62" y="-222.95" font-family="Helvetica,sans-Serif" font-size="14.00">Point2d::getX</text>
</a>
</g>
</g>
<!-- Node4&#45;&gt;Node5 -->
<g id="edge4_Node000004_Node000005" class="edge">
<title>Node4&#45;&gt;Node5</title>
<g id="a_edge4_Node000004_Node000005"><a xlink:title=" ">
<path fill="none" stroke="#63b8ff" stroke-width="2" d="M290.06,-154.62C295.56,-156.88 300.87,-159.52 305.75,-162.62 327.07,-176.19 320.31,-193.26 341.75,-206.62 348.88,-211.07 356.87,-214.58 365.06,-217.34"/>
<polygon fill="#63b8ff" stroke="#63b8ff" stroke-width="2" points="364.07,-220.7 374.65,-220.14 366.03,-213.98 364.07,-220.7"/>
</a>
</g>
</g>
<!-- Node6 -->
<g id="Node000006" class="node">
<title>Node6</title>
<g id="a_Node000006"><a xlink:href="../../d5/d5c/classPoint2d.html#a15d17205b944b35ecc564a84aa2f454e" target="_top" xlink:title="Y co&#45;ordinate getter.">
<polygon fill="white" stroke="#666666" points="486.75,-197.25 378.5,-197.25 378.5,-172 486.75,-172 486.75,-197.25"/>
<text text-anchor="middle" x="432.62" y="-179.95" font-family="Helvetica,sans-Serif" font-size="14.00">Point2d::getY</text>
</a>
</g>
</g>
<!-- Node4&#45;&gt;Node6 -->
<g id="edge5_Node000004_Node000006" class="edge">
<title>Node4&#45;&gt;Node6</title>
<g id="a_edge5_Node000004_Node000006"><a xlink:title=" ">
<path fill="none" stroke="#63b8ff" stroke-width="2" d="M286.44,-154.7C311.57,-159.88 340.45,-165.83 365.81,-171.06"/>
<polygon fill="#63b8ff" stroke="#63b8ff" stroke-width="2" points="364.85,-174.44 375.36,-173.03 366.27,-167.58 364.85,-174.44"/>
</a>
</g>
</g>
<!-- Node7 -->
<g id="Node000007" class="node">
<title>Node7</title>
<g id="a_Node000007"><a xlink:href="../../d5/d5c/classPoint2d.html#a5ac1eb40a6d9ed83ae6eeaf63c3bc9f8" target="_top" xlink:title="X co&#45;ordinate setter.">
<polygon fill="white" stroke="#666666" points="486.75,-154.25 378.5,-154.25 378.5,-129 486.75,-129 486.75,-154.25"/>
<text text-anchor="middle" x="432.62" y="-136.95" font-family="Helvetica,sans-Serif" font-size="14.00">Point2d::setX</text>
</a>
</g>
</g>
<!-- Node4&#45;&gt;Node7 -->
<g id="edge6_Node000004_Node000007" class="edge">
<title>Node4&#45;&gt;Node7</title>
<g id="a_edge6_Node000004_Node000007"><a xlink:title=" ">
<path fill="none" stroke="#63b8ff" stroke-width="2" d="M306.05,-141.62C325.72,-141.62 346.43,-141.62 365.24,-141.62"/>
<polygon fill="#63b8ff" stroke="#63b8ff" stroke-width="2" points="365.21,-145.13 375.21,-141.63 365.21,-138.13 365.21,-145.13"/>
</a>
</g>
</g>
<!-- Node8 -->
<g id="Node000008" class="node">
<title>Node8</title>
<g id="a_Node000008"><a xlink:href="../../d5/d5c/classPoint2d.html#adcbbc908d51e04cb1fe05a9f96e67340" target="_top" xlink:title="Y co&#45;ordinate setter.">
<polygon fill="white" stroke="#666666" points="486,-111.25 379.25,-111.25 379.25,-86 486,-86 486,-111.25"/>
<text text-anchor="middle" x="432.62" y="-93.95" font-family="Helvetica,sans-Serif" font-size="14.00">Point2d::setY</text>
</a>
</g>
</g>
<!-- Node4&#45;&gt;Node8 -->
<g id="edge7_Node000004_Node000008" class="edge">
<title>Node4&#45;&gt;Node8</title>
<g id="a_edge7_Node000004_Node000008"><a xlink:title=" ">
<path fill="none" stroke="#63b8ff" stroke-width="2" d="M286.44,-128.55C311.77,-123.33 340.92,-117.32 366.43,-112.06"/>
<polygon fill="#63b8ff" stroke="#63b8ff" stroke-width="2" points="366.95,-115.53 376.04,-110.08 365.54,-108.67 366.95,-115.53"/>
</a>
</g>
</g>
<!-- Node10 -->
<g id="Node000010" class="node">
<title>Node10</title>
<g id="a_Node000010"><a xlink:href="../../d1/db6/classEngine.html#ab87c318b38e62ced90a7b564c1ef17c6" target="_top" xlink:title="Draws animated objects.">
<polygon fill="#fff0f0" stroke="red" points="523.5,-68.25 341.75,-68.25 341.75,-43 523.5,-43 523.5,-68.25"/>
<text text-anchor="middle" x="432.62" y="-50.95" font-family="Helvetica,sans-Serif" font-size="14.00">Engine::animateObjects</text>
</a>
</g>
</g>
<!-- Node9&#45;&gt;Node10 -->
<g id="edge9_Node000009_Node000010" class="edge">
<title>Node9&#45;&gt;Node10</title>
<g id="a_edge9_Node000009_Node000010"><a xlink:title=" ">
<path fill="none" stroke="#63b8ff" stroke-width="2" d="M281.67,-55.62C296.31,-55.62 312.45,-55.62 328.55,-55.62"/>
<polygon fill="#63b8ff" stroke="#63b8ff" stroke-width="2" points="328.4,-59.13 338.4,-55.63 328.4,-52.13 328.4,-59.13"/>
</a>
</g>
</g>
<!-- Node13 -->
<g id="Node000013" class="node">
<title>Node13</title>
<g id="a_Node000013"><a xlink:href="../../d1/db6/classEngine.html#a66cd39b3396aaeebe23db0203c6aab4a" target="_top" xlink:title="Draws objects.">
<polygon fill="#fff0f0" stroke="red" points="522.75,-25.25 342.5,-25.25 342.5,0 522.75,0 522.75,-25.25"/>
<text text-anchor="middle" x="432.62" y="-7.95" font-family="Helvetica,sans-Serif" font-size="14.00">Engine::drawDrawables</text>
</a>
</g>
</g>
<!-- Node9&#45;&gt;Node13 -->
<g id="edge10_Node000009_Node000013" class="edge">
<title>Node9&#45;&gt;Node13</title>
<g id="a_edge10_Node000009_Node000013"><a xlink:title=" ">
<path fill="none" stroke="#63b8ff" stroke-width="2" d="M281.67,-43.53C304.66,-38.79 331.33,-33.3 355.75,-28.26"/>
<polygon fill="#63b8ff" stroke="#63b8ff" stroke-width="2" points="356.23,-31.74 365.32,-26.29 354.82,-24.88 356.23,-31.74"/>
</a>
</g>
</g>
</g>
</svg>

<g id="navigator" transform="translate(0 0)" fill="#404254">
  <rect fill="#f2f5e9" fill-opacity="0.5" stroke="#606060" stroke-width=".5" x="0" y="0" width="60" height="60"/>
  <use id="zoomplus" xlink:href="#zoomPlus" x="17" y="9" onmousedown="handleZoom(evt,'in')"/>
  <use id="zoomminus" xlink:href="#zoomMin" x="42" y="9" onmousedown="handleZoom(evt,'out')"/>
  <use id="reset" xlink:href="#resetDef" x="30" y="36" onmousedown="handleReset()"/>
   <use id="arrowup" xlink:href="#arrowUp" x="0" y="0" onmousedown="handlePan(0,-1)"/>
  <use id="arrowright" xlink:href="#arrowRight" x="0" y="0" onmousedown="handlePan(1,0)"/>
  <use id="arrowdown" xlink:href="#arrowDown" x="0" y="0" onmousedown="handlePan(0,1)"/>
  <use id="arrowleft" xlink:href="#arrowLeft" x="0" y="0" onmousedown="handlePan(-1,0)"/>
</g>
<svg viewBox="0 0 15 15" width="100%" height="30px" preserveAspectRatio="xMaxYMin meet">
 <g id="arrow_out" transform="scale(0.3 0.3)">
  <a xlink:href="classEngine_a514f8d788ced7c6508b8b6f9ef66ccb1_cgraph_org.svg" target="_base">
   <rect id="button" ry="5" rx="5" y="6" x="6" height="38" width="38"
        fill="#f2f5e9" fill-opacity="0.5" stroke="#606060" stroke-width="1.0"/>
   <path id="arrow"
     d="M 11.500037,31.436501 C 11.940474,20.09759 22.043105,11.32322 32.158766,21.979434 L 37.068811,17.246167 C 37.068811,17.246167 37.088388,32 37.088388,32 L 22.160133,31.978069 C 22.160133,31.978069 26.997745,27.140456 26.997745,27.140456 C 18.528582,18.264221 13.291696,25.230495 11.500037,31.436501 z"
     style="fill:#404040;"/>
  </a>
 </g>
</svg>

<style type='text/css'>
<![CDATA[
[data-mouse-over-selected='false'] { opacity: 0.7; }
[data-mouse-over-selected='true']  { opacity: 1.0; }
]]>
</style>
<script type="application/ecmascript"><![CDATA[
document.addEventListener('DOMContentLoaded', (event) => {
  highlightEdges();
  highlightAdjacentNodes();
});
]]></script>
</svg>
