<?xml version="1.0" encoding="UTF-8" standalone="no"?>
<!DOCTYPE svg PUBLIC "-//W3C//DTD SVG 1.1//EN"
 "http://www.w3.org/Graphics/SVG/1.1/DTD/svg11.dtd">
<!-- Generated by graphviz version 9.0.0 (0)
 -->
<!-- Title: Engine::render Pages: 1 -->
<svg width="574pt" height="76pt"
 viewBox="0.00 0.00 573.50 76.25" xmlns="http://www.w3.org/2000/svg" xmlns:xlink="http://www.w3.org/1999/xlink">
<g id="graph0" class="graph" transform="scale(1 1) rotate(0) translate(4 72.25)">
<title>Engine::render</title>
<!-- Node1 -->
<g id="Node000001" class="node">
<title>Node1</title>
<g id="a_Node000001"><a xlink:title="Renders objects.">
<polygon fill="#999999" stroke="#666666" points="118.75,-46.25 0,-46.25 0,-21 118.75,-21 118.75,-46.25"/>
<text text-anchor="middle" x="59.38" y="-28.95" font-family="Helvetica,sans-Serif" font-size="14.00">Engine::render</text>
</a>
</g>
</g>
<!-- Node2 -->
<g id="Node000002" class="node">
<title>Node2</title>
<g id="a_Node000002"><a xlink:href="../../d1/db6/classEngine.html#ab87c318b38e62ced90a7b564c1ef17c6" target="_top" xlink:title="Draws animated objects.">
<polygon fill="white" stroke="#666666" points="336.5,-68.25 154.75,-68.25 154.75,-43 336.5,-43 336.5,-68.25"/>
<text text-anchor="middle" x="245.62" y="-50.95" font-family="Helvetica,sans-Serif" font-size="14.00">Engine::animateObjects</text>
</a>
</g>
</g>
<!-- Node1&#45;&gt;Node2 -->
<g id="edge1_Node000001_Node000002" class="edge">
<title>Node1&#45;&gt;Node2</title>
<g id="a_edge1_Node000001_Node000002"><a xlink:title=" ">
<path fill="none" stroke="#63b8ff" stroke-width="2" d="M119.18,-40.65C126.4,-41.51 133.93,-42.41 141.57,-43.32"/>
<polygon fill="#63b8ff" stroke="#63b8ff" stroke-width="2" points="141.13,-46.79 151.47,-44.5 141.96,-39.84 141.13,-46.79"/>
</a>
</g>
</g>
<!-- Node5 -->
<g id="Node000005" class="node">
<title>Node5</title>
<g id="a_Node000005"><a xlink:href="../../d1/db6/classEngine.html#a66cd39b3396aaeebe23db0203c6aab4a" target="_top" xlink:title="Draws objects.">
<polygon fill="white" stroke="#666666" points="335.75,-25.25 155.5,-25.25 155.5,0 335.75,0 335.75,-25.25"/>
<text text-anchor="middle" x="245.62" y="-7.95" font-family="Helvetica,sans-Serif" font-size="14.00">Engine::drawDrawables</text>
</a>
</g>
</g>
<!-- Node1&#45;&gt;Node5 -->
<g id="edge4_Node000001_Node000005" class="edge">
<title>Node1&#45;&gt;Node5</title>
<g id="a_edge4_Node000001_Node000005"><a xlink:title=" ">
<path fill="none" stroke="#63b8ff" stroke-width="2" d="M119.18,-26.92C126.62,-26.07 134.4,-25.19 142.28,-24.29"/>
<polygon fill="#63b8ff" stroke="#63b8ff" stroke-width="2" points="142.6,-27.78 152.14,-23.17 141.81,-20.82 142.6,-27.78"/>
</a>
</g>
</g>
<!-- Node3 -->
<g id="Node000003" class="node">
<title>Node3</title>
<g id="a_Node000003"><a xlink:href="../../d7/d98/classAnimatedObject.html#a16ca16367721aa01d32a0b7cdf2b190f" target="_top" xlink:title="Animates object.">
<polygon fill="white" stroke="#666666" points="565.5,-68.25 372.5,-68.25 372.5,-43 565.5,-43 565.5,-68.25"/>
<text text-anchor="middle" x="469" y="-50.95" font-family="Helvetica,sans-Serif" font-size="14.00">AnimatedObject::animate</text>
</a>
</g>
</g>
<!-- Node2&#45;&gt;Node3 -->
<g id="edge2_Node000002_Node000003" class="edge">
<title>Node2&#45;&gt;Node3</title>
<g id="a_edge2_Node000002_Node000003"><a xlink:title=" ">
<path fill="none" stroke="#63b8ff" stroke-width="2" d="M336.99,-55.62C344.32,-55.62 351.79,-55.62 359.24,-55.62"/>
<polygon fill="#63b8ff" stroke="#63b8ff" stroke-width="2" points="359.14,-59.13 369.14,-55.63 359.14,-52.13 359.14,-59.13"/>
</a>
</g>
</g>
<!-- Node4 -->
<g id="Node000004" class="node">
<title>Node4</title>
<g id="a_Node000004"><a xlink:href="../../d1/db6/classEngine.html#a19fa907d344031a4a1ff74e705d65c06" target="_top" xlink:title="Window getter.">
<polygon fill="white" stroke="#666666" points="544.12,-25.25 393.88,-25.25 393.88,0 544.12,0 544.12,-25.25"/>
<text text-anchor="middle" x="469" y="-7.95" font-family="Helvetica,sans-Serif" font-size="14.00">Engine::getWindow</text>
</a>
</g>
</g>
<!-- Node2&#45;&gt;Node4 -->
<g id="edge3_Node000002_Node000004" class="edge">
<title>Node2&#45;&gt;Node4</title>
<g id="a_edge3_Node000002_Node000004"><a xlink:title=" ">
<path fill="none" stroke="#63b8ff" stroke-width="2" d="M313.95,-42.55C337.34,-38 363.81,-32.86 388.13,-28.14"/>
<polygon fill="#63b8ff" stroke="#63b8ff" stroke-width="2" points="388.5,-31.63 397.65,-26.29 387.16,-24.76 388.5,-31.63"/>
</a>
</g>
</g>
<!-- Node5&#45;&gt;Node4 -->
<g id="edge5_Node000005_Node000004" class="edge">
<title>Node5&#45;&gt;Node4</title>
<g id="a_edge5_Node000005_Node000004"><a xlink:title=" ">
<path fill="none" stroke="#63b8ff" stroke-width="2" d="M336.03,-12.62C350.79,-12.62 366.07,-12.62 380.77,-12.62"/>
<polygon fill="#63b8ff" stroke="#63b8ff" stroke-width="2" points="380.49,-16.13 390.49,-12.63 380.49,-9.13 380.49,-16.13"/>
</a>
</g>
</g>
</g>
</svg>
