<?xml version="1.0" encoding="UTF-8" standalone="no"?>
<!DOCTYPE svg PUBLIC "-//W3C//DTD SVG 1.1//EN"
 "http://www.w3.org/Graphics/SVG/1.1/DTD/svg11.dtd">
<!-- Generated by graphviz version 9.0.0 (0)
 -->
<!-- Title: Engine::display Pages: 1 -->
<svg width="355pt" height="33pt"
 viewBox="0.00 0.00 355.25 33.25" xmlns="http://www.w3.org/2000/svg" xmlns:xlink="http://www.w3.org/1999/xlink">
<g id="graph0" class="graph" transform="scale(1 1) rotate(0) translate(4 29.25)">
<title>Engine::display</title>
<!-- Node1 -->
<g id="Node000001" class="node">
<title>Node1</title>
<g id="a_Node000001"><a xlink:title="Displays rendered objects.">
<polygon fill="#999999" stroke="#666666" points="347.25,-25.25 224.75,-25.25 224.75,0 347.25,0 347.25,-25.25"/>
<text text-anchor="middle" x="286" y="-7.95" font-family="Helvetica,sans-Serif" font-size="14.00">Engine::display</text>
</a>
</g>
</g>
<!-- Node2 -->
<g id="Node000002" class="node">
<title>Node2</title>
<g id="a_Node000002"><a xlink:href="../../d1/db6/classEngine.html#a514f8d788ced7c6508b8b6f9ef66ccb1" target="_top" xlink:title="The main loop.">
<polygon fill="white" stroke="#666666" points="188.75,-25.25 86.5,-25.25 86.5,0 188.75,0 188.75,-25.25"/>
<text text-anchor="middle" x="137.62" y="-7.95" font-family="Helvetica,sans-Serif" font-size="14.00">Engine::loop</text>
</a>
</g>
</g>
<!-- Node1&#45;&gt;Node2 -->
<g id="edge1_Node000001_Node000002" class="edge">
<title>Node1&#45;&gt;Node2</title>
<g id="a_edge1_Node000001_Node000002"><a xlink:title=" ">
<path fill="none" stroke="#63b8ff" stroke-width="2" d="M211.76,-12.62C204.09,-12.62 196.42,-12.62 189.09,-12.62"/>
<polygon fill="#63b8ff" stroke="#63b8ff" stroke-width="2" points="211.59,-16.13 221.59,-12.63 211.59,-9.13 211.59,-16.13"/>
</a>
</g>
</g>
<!-- Node3 -->
<g id="Node000003" class="node">
<title>Node3</title>
<g id="a_Node000003"><a xlink:href="../../d4/d15/test_2main_8cpp.html#ae66f6b31b5ad750f1fe042a706a4e3d4" target="_top" xlink:title=" ">
<polygon fill="white" stroke="#666666" points="50.5,-25.25 0,-25.25 0,0 50.5,0 50.5,-25.25"/>
<text text-anchor="middle" x="25.25" y="-7.95" font-family="Helvetica,sans-Serif" font-size="14.00">main</text>
</a>
</g>
</g>
<!-- Node2&#45;&gt;Node3 -->
<g id="edge2_Node000002_Node000003" class="edge">
<title>Node2&#45;&gt;Node3</title>
<g id="a_edge2_Node000002_Node000003"><a xlink:title=" ">
<path fill="none" stroke="#63b8ff" stroke-width="2" d="M73.32,-12.62C65.4,-12.62 57.72,-12.62 50.93,-12.62"/>
<polygon fill="#63b8ff" stroke="#63b8ff" stroke-width="2" points="73.26,-16.13 83.26,-12.63 73.26,-9.13 73.26,-16.13"/>
</a>
</g>
</g>
</g>
</svg>
