<?xml version="1.0" encoding="UTF-8" standalone="no"?>
<!DOCTYPE svg PUBLIC "-//W3C//DTD SVG 1.1//EN"
 "http://www.w3.org/Graphics/SVG/1.1/DTD/svg11.dtd">
<!-- Generated by graphviz version 9.0.0 (0)
 -->
<!-- Title: Engine::getWindow Pages: 1 -->
<svg width="538pt" height="180pt"
 viewBox="0.00 0.00 537.50 180.25" xmlns="http://www.w3.org/2000/svg" xmlns:xlink="http://www.w3.org/1999/xlink">
<g id="graph0" class="graph" transform="scale(1 1) rotate(0) translate(4 176.25)">
<title>Engine::getWindow</title>
<!-- Node1 -->
<g id="Node000001" class="node">
<title>Node1</title>
<g id="a_Node000001"><a xlink:title="Window getter.">
<polygon fill="#999999" stroke="#666666" points="529.5,-94.25 379.25,-94.25 379.25,-69 529.5,-69 529.5,-94.25"/>
<text text-anchor="middle" x="454.38" y="-76.95" font-family="Helvetica,sans-Serif" font-size="14.00">Engine::getWindow</text>
</a>
</g>
</g>
<!-- Node2 -->
<g id="Node000002" class="node">
<title>Node2</title>
<g id="a_Node000002"><a xlink:href="../../d1/db6/classEngine.html#ab87c318b38e62ced90a7b564c1ef17c6" target="_top" xlink:title="Draws animated objects.">
<polygon fill="white" stroke="#666666" points="339.88,-172.25 158.12,-172.25 158.12,-147 339.88,-147 339.88,-172.25"/>
<text text-anchor="middle" x="249" y="-154.95" font-family="Helvetica,sans-Serif" font-size="14.00">Engine::animateObjects</text>
</a>
</g>
</g>
<!-- Node1&#45;&gt;Node2 -->
<g id="edge1_Node000001_Node000002" class="edge">
<title>Node1&#45;&gt;Node2</title>
<g id="a_edge1_Node000001_Node000002"><a xlink:title=" ">
<path fill="none" stroke="#63b8ff" stroke-width="2" d="M420.64,-100.88C399.21,-112.83 370.27,-127.73 343.25,-137.62 334.03,-141 324.11,-143.99 314.3,-146.59"/>
<polygon fill="#63b8ff" stroke="#63b8ff" stroke-width="2" points="422.11,-104.07 429.08,-96.09 418.66,-97.98 422.11,-104.07"/>
</a>
</g>
</g>
<!-- Node6 -->
<g id="Node000006" class="node">
<title>Node6</title>
<g id="a_Node000006"><a xlink:href="../../de/dc2/classobstacle_1_1LineSegment.html#ace0b97f27900396bbb2248c297698f49" target="_top" xlink:title=" ">
<polygon fill="white" stroke="#666666" points="335.75,-128.88 162.25,-128.88 162.25,-86.38 335.75,-86.38 335.75,-128.88"/>
<text text-anchor="start" x="170.25" y="-111.58" font-family="Helvetica,sans-Serif" font-size="14.00">obstacle::LineSegment</text>
<text text-anchor="middle" x="249" y="-94.33" font-family="Helvetica,sans-Serif" font-size="14.00">::draw</text>
</a>
</g>
</g>
<!-- Node1&#45;&gt;Node6 -->
<g id="edge3_Node000001_Node000006" class="edge">
<title>Node1&#45;&gt;Node6</title>
<g id="a_edge3_Node000001_Node000006"><a xlink:title=" ">
<path fill="none" stroke="#63b8ff" stroke-width="2" d="M365.88,-92.81C355.95,-94.08 345.84,-95.37 335.92,-96.64"/>
<polygon fill="#63b8ff" stroke="#63b8ff" stroke-width="2" points="366.32,-96.28 375.8,-91.54 365.43,-89.34 366.32,-96.28"/>
</a>
</g>
</g>
<!-- Node7 -->
<g id="Node000007" class="node">
<title>Node7</title>
<g id="a_Node000007"><a xlink:href="../../d1/db6/classEngine.html#a66cd39b3396aaeebe23db0203c6aab4a" target="_top" xlink:title="Draws objects.">
<polygon fill="white" stroke="#666666" points="339.12,-68.25 158.88,-68.25 158.88,-43 339.12,-43 339.12,-68.25"/>
<text text-anchor="middle" x="249" y="-50.95" font-family="Helvetica,sans-Serif" font-size="14.00">Engine::drawDrawables</text>
</a>
</g>
</g>
<!-- Node1&#45;&gt;Node7 -->
<g id="edge4_Node000001_Node000007" class="edge">
<title>Node1&#45;&gt;Node7</title>
<g id="a_edge4_Node000001_Node000007"><a xlink:title=" ">
<path fill="none" stroke="#63b8ff" stroke-width="2" d="M366.02,-70.46C357.21,-69.33 348.25,-68.18 339.41,-67.06"/>
<polygon fill="#63b8ff" stroke="#63b8ff" stroke-width="2" points="365.43,-73.91 375.8,-71.71 366.32,-66.97 365.43,-73.91"/>
</a>
</g>
</g>
<!-- Node8 -->
<g id="Node000008" class="node">
<title>Node8</title>
<g id="a_Node000008"><a xlink:href="../../d0/d8d/test2_2main_8cpp.html#a84b9cc49e2afad9f99db3ce1f412ef01" target="_top" xlink:title=" ">
<polygon fill="white" stroke="#666666" points="343.25,-25.25 154.75,-25.25 154.75,0 343.25,0 343.25,-25.25"/>
<text text-anchor="middle" x="249" y="-7.95" font-family="Helvetica,sans-Serif" font-size="14.00">keyPressedEventHandler</text>
</a>
</g>
</g>
<!-- Node1&#45;&gt;Node8 -->
<g id="edge6_Node000001_Node000008" class="edge">
<title>Node1&#45;&gt;Node8</title>
<g id="a_edge6_Node000001_Node000008"><a xlink:title=" ">
<path fill="none" stroke="#63b8ff" stroke-width="2" d="M415.62,-63.05C394.67,-53.28 367.94,-41.7 343.25,-33.62 334.34,-30.71 324.82,-28.06 315.39,-25.69"/>
<polygon fill="#63b8ff" stroke="#63b8ff" stroke-width="2" points="413.95,-66.13 424.48,-67.25 416.95,-59.8 413.95,-66.13"/>
</a>
</g>
</g>
<!-- Node3 -->
<g id="Node000003" class="node">
<title>Node3</title>
<g id="a_Node000003"><a xlink:href="../../d1/db6/classEngine.html#a7960743aefd62e846e7f3cd92c18bc73" target="_top" xlink:title="Renders objects.">
<polygon fill="#fff0f0" stroke="red" points="118.75,-120.25 0,-120.25 0,-95 118.75,-95 118.75,-120.25"/>
<text text-anchor="middle" x="59.38" y="-102.95" font-family="Helvetica,sans-Serif" font-size="14.00">Engine::render</text>
</a>
</g>
</g>
<!-- Node2&#45;&gt;Node3 -->
<g id="edge2_Node000002_Node000003" class="edge">
<title>Node2&#45;&gt;Node3</title>
<g id="a_edge2_Node000002_Node000003"><a xlink:title=" ">
<path fill="none" stroke="#63b8ff" stroke-width="2" d="M177.01,-143.47C169.47,-141.58 161.94,-139.61 154.75,-137.62 136.36,-132.54 116.17,-126.22 99.2,-120.7"/>
<polygon fill="#63b8ff" stroke="#63b8ff" stroke-width="2" points="176.14,-146.86 186.69,-145.85 177.81,-140.06 176.14,-146.86"/>
</a>
</g>
</g>
<!-- Node7&#45;&gt;Node3 -->
<g id="edge5_Node000007_Node000003" class="edge">
<title>Node7&#45;&gt;Node3</title>
<g id="a_edge5_Node000007_Node000003"><a xlink:title=" ">
<path fill="none" stroke="#63b8ff" stroke-width="2" d="M177.01,-71.78C169.47,-73.67 161.94,-75.64 154.75,-77.62 136.36,-82.71 116.17,-89.03 99.2,-94.55"/>
<polygon fill="#63b8ff" stroke="#63b8ff" stroke-width="2" points="177.81,-75.19 186.69,-69.4 176.14,-68.39 177.81,-75.19"/>
</a>
</g>
</g>
<!-- Node9 -->
<g id="Node000009" class="node">
<title>Node9</title>
<g id="a_Node000009"><a xlink:href="../../d0/d8d/test2_2main_8cpp.html#ae66f6b31b5ad750f1fe042a706a4e3d4" target="_top" xlink:title=" ">
<polygon fill="white" stroke="#666666" points="84.62,-25.25 34.12,-25.25 34.12,0 84.62,0 84.62,-25.25"/>
<text text-anchor="middle" x="59.38" y="-7.95" font-family="Helvetica,sans-Serif" font-size="14.00">main</text>
</a>
</g>
</g>
<!-- Node8&#45;&gt;Node9 -->
<g id="edge7_Node000008_Node000009" class="edge">
<title>Node8&#45;&gt;Node9</title>
<g id="a_edge7_Node000008_Node000009"><a xlink:title=" ">
<path fill="none" stroke="#63b8ff" stroke-width="2" d="M141.55,-12.62C120.33,-12.62 100,-12.62 84.99,-12.62"/>
<polygon fill="#63b8ff" stroke="#63b8ff" stroke-width="2" points="141.44,-16.13 151.44,-12.63 141.44,-9.13 141.44,-16.13"/>
</a>
</g>
</g>
</g>
</svg>
