<?xml version="1.0" encoding="UTF-8" standalone="no"?>
<!DOCTYPE svg PUBLIC "-//W3C//DTD SVG 1.1//EN"
 "http://www.w3.org/Graphics/SVG/1.1/DTD/svg11.dtd">
<!-- Generated by graphviz version 9.0.0 (0)
 -->
<!-- Title: ball.cpp Pages: 1 -->
<!--zoomable 278 -->

<svg id="main" version="1.1" xmlns="http://www.w3.org/2000/svg" xmlns:xlink="http://www.w3.org/1999/xlink" xml:space="preserve" onload="init(evt)">
<style type="text/css"><![CDATA[
.node, .edge {opacity: 0.7;}
.node.selected, .edge.selected {opacity: 1;}
.edge:hover path { stroke: red; }
.edge:hover polygon { stroke: red; fill: red; }
]]></style>

<defs>
  <circle id="rim" cx="0" cy="0" r="7"/>
  <circle id="rim2" cx="0" cy="0" r="3.5"/>
  <g id="zoomPlus">
    <use xlink:href="#rim" fill="#404040"><set attributeName="fill" to="#808080" begin="zoomplus.mouseover" end="zoomplus.mouseout"/></use>
    <path d="M-4,0h8M0,-4v8" fill="none" stroke="white" stroke-width="1.5" pointer-events="none"/>
  </g>
  <g id="zoomMin">
    <use xlink:href="#rim" fill="#404040"><set attributeName="fill" to="#808080" begin="zoomminus.mouseover" end="zoomminus.mouseout"/></use>
    <path d="M-4,0h8" fill="none" stroke="white" stroke-width="1.5" pointer-events="none"/>
  </g>
  <g id="arrowUp" transform="translate(30 24)">
    <use xlink:href="#rim"/>
    <path pointer-events="none" fill="none" stroke="white" stroke-width="1.5" d="M0,-3.0v7 M-2.5,-0.5L0,-3.0L2.5,-0.5"/>
  </g>
  <g id="arrowRight" transform="rotate(90) translate(36 -43)">
    <use xlink:href="#rim"/>
    <path pointer-events="none" fill="none" stroke="white" stroke-width="1.5" d="M0,-3.0v7 M-2.5,-0.5L0,-3.0L2.5,-0.5"/>
  </g>
  <g id="arrowDown" transform="rotate(180) translate(-30 -48)">
    <use xlink:href="#rim"/>
    <path pointer-events="none" fill="none" stroke="white" stroke-width="1.5" d="M0,-3.0v7 M-2.5,-0.5L0,-3.0L2.5,-0.5"/>
  </g>
  <g id="arrowLeft" transform="rotate(270) translate(-36 17)">
    <use xlink:href="#rim"/>
    <path pointer-events="none" fill="none" stroke="white" stroke-width="1.5" d="M0,-3.0v7 M-2.5,-0.5L0,-3.0L2.5,-0.5"/>
  </g>
  <g id="resetDef">
    <use xlink:href="#rim2" fill="#404040"><set attributeName="fill" to="#808080" begin="reset.mouseover" end="reset.mouseout"/></use>
  </g>
</defs>
<script type="application/ecmascript">
var viewWidth = 2156;
var viewHeight = 278;
var sectionId = 'dynsection-0';
</script>
<script type="application/ecmascript" xlink:href="../../svg.min.js"/>
<svg id="graph" class="graph">
<g id="viewport">
<title>ball.cpp</title>
<!-- Node1 -->
<g id="Node000001" class="node">
<title>Node1</title>
<g id="a_Node000001"><a xlink:title=" ">
<polygon fill="#999999" stroke="#666666" points="756.71,-270.25 685.96,-270.25 685.96,-245 756.71,-245 756.71,-270.25"/>
<text text-anchor="middle" x="721.34" y="-252.95" font-family="Helvetica,sans-Serif" font-size="14.00">ball.cpp</text>
</a>
</g>
</g>
<!-- Node2 -->
<g id="Node000002" class="node">
<title>Node2</title>
<g id="a_Node000002"><a xlink:href="../../dc/d84/ball_8hpp.html" target="_top" xlink:title=" ">
<polygon fill="white" stroke="#666666" points="524.46,-209 452.21,-209 452.21,-183.75 524.46,-183.75 524.46,-209"/>
<text text-anchor="middle" x="488.34" y="-191.7" font-family="Helvetica,sans-Serif" font-size="14.00">ball.hpp</text>
</a>
</g>
</g>
<!-- Node1&#45;&gt;Node2 -->
<g id="edge1_Node000001_Node000002" class="edge">
<title>Node1&#45;&gt;Node2</title>
<g id="a_edge1_Node000001_Node000002"><a xlink:title=" ">
<path fill="none" stroke="#63b8ff" stroke-width="2" d="M685.69,-247.56C646.01,-237.47 581.63,-221.1 537.26,-209.81"/>
<polygon fill="#63b8ff" stroke="#63b8ff" stroke-width="2" points="538.23,-206.45 527.67,-207.38 536.5,-213.24 538.23,-206.45"/>
</a>
</g>
</g>
<!-- Node3 -->
<g id="Node000003" class="node">
<title>Node3</title>
<g id="a_Node000003"><a xlink:href="../../d4/db5/GameObject_8hpp.html" target="_top" xlink:title=" ">
<polygon fill="white" stroke="#666666" points="705.84,-86.5 572.84,-86.5 572.84,-61.25 705.84,-61.25 705.84,-86.5"/>
<text text-anchor="middle" x="639.34" y="-69.2" font-family="Helvetica,sans-Serif" font-size="14.00">GameObject.hpp</text>
</a>
</g>
</g>
<!-- Node1&#45;&gt;Node3 -->
<g id="edge11_Node000001_Node000003" class="edge">
<title>Node1&#45;&gt;Node3</title>
<g id="a_edge11_Node000001_Node000003"><a xlink:title=" ">
<path fill="none" stroke="#63b8ff" stroke-width="2" d="M722.55,-244.52C724.44,-219.74 725.72,-162.22 702.34,-122.5 695.62,-111.1 685.02,-101.53 674.42,-94.03"/>
<polygon fill="#63b8ff" stroke="#63b8ff" stroke-width="2" points="676.36,-91.12 666.07,-88.61 672.55,-96.99 676.36,-91.12"/>
</a>
</g>
</g>
<!-- Node5 -->
<g id="Node000005" class="node">
<title>Node5</title>
<g id="a_Node000005"><a xlink:href="../../d9/d03/point2d_8hpp.html" target="_top" xlink:title=" ">
<polygon fill="#fff0f0" stroke="red" points="594.71,-25.25 493.96,-25.25 493.96,0 594.71,0 594.71,-25.25"/>
<text text-anchor="middle" x="544.34" y="-7.95" font-family="Helvetica,sans-Serif" font-size="14.00">point2d.hpp</text>
</a>
</g>
</g>
<!-- Node1&#45;&gt;Node5 -->
<g id="edge27_Node000001_Node000005" class="edge">
<title>Node1&#45;&gt;Node5</title>
<g id="a_edge27_Node000001_Node000005"><a xlink:title=" ">
<path fill="none" stroke="#63b8ff" stroke-width="2" d="M685.48,-257.1C553.06,-257.99 94.65,-253.3 7.34,-147.75 -55.34,-71.98 325.41,-31.64 480.64,-18.5"/>
<polygon fill="#63b8ff" stroke="#63b8ff" stroke-width="2" points="480.93,-21.99 490.61,-17.67 480.35,-15.01 480.93,-21.99"/>
</a>
</g>
</g>
<!-- Node8 -->
<g id="Node000008" class="node">
<title>Node8</title>
<g id="a_Node000008"><a xlink:title=" ">
<polygon fill="#e0e0e0" stroke="#999999" points="252.59,-147.75 16.09,-147.75 16.09,-122.5 252.59,-122.5 252.59,-147.75"/>
<text text-anchor="middle" x="134.34" y="-130.45" font-family="Helvetica,sans-Serif" font-size="14.00">SFML/Graphics/CircleShape.hpp</text>
</a>
</g>
</g>
<!-- Node1&#45;&gt;Node8 -->
<g id="edge12_Node000001_Node000008" class="edge">
<title>Node1&#45;&gt;Node8</title>
<g id="a_edge12_Node000001_Node000008"><a xlink:title=" ">
<path fill="none" stroke="#63b8ff" stroke-width="2" d="M685.66,-251.24C632.63,-243.07 529.95,-226.61 443.34,-209 356.04,-191.25 255.82,-166.86 193.77,-151.3"/>
<polygon fill="#63b8ff" stroke="#63b8ff" stroke-width="2" points="195,-148 184.45,-148.95 193.29,-154.79 195,-148"/>
</a>
</g>
</g>
<!-- Node14 -->
<g id="Node000014" class="node">
<title>Node14</title>
<g id="a_Node000014"><a xlink:title=" ">
<polygon fill="#e0e0e0" stroke="#999999" points="1471.21,-209 1217.46,-209 1217.46,-183.75 1471.21,-183.75 1471.21,-209"/>
<text text-anchor="middle" x="1344.34" y="-191.7" font-family="Helvetica,sans-Serif" font-size="14.00">SFML/Graphics/Transformable.hpp</text>
</a>
</g>
</g>
<!-- Node1&#45;&gt;Node14 -->
<g id="edge13_Node000001_Node000014" class="edge">
<title>Node1&#45;&gt;Node14</title>
<g id="a_edge13_Node000001_Node000014"><a xlink:title=" ">
<path fill="none" stroke="#63b8ff" stroke-width="2" d="M757.07,-253.23C841.9,-245.16 1059.17,-224.5 1204.3,-210.69"/>
<polygon fill="#63b8ff" stroke="#63b8ff" stroke-width="2" points="1204.6,-214.18 1214.22,-209.75 1203.94,-207.21 1204.6,-214.18"/>
</a>
</g>
</g>
<!-- Node15 -->
<g id="Node000015" class="node">
<title>Node15</title>
<g id="a_Node000015"><a xlink:href="../../de/d46/engine_8hpp.html" target="_top" xlink:title=" ">
<polygon fill="white" stroke="#666666" points="1161.71,-209 1066.96,-209 1066.96,-183.75 1161.71,-183.75 1161.71,-209"/>
<text text-anchor="middle" x="1114.34" y="-191.7" font-family="Helvetica,sans-Serif" font-size="14.00">engine.hpp</text>
</a>
</g>
</g>
<!-- Node1&#45;&gt;Node15 -->
<g id="edge14_Node000001_Node000015" class="edge">
<title>Node1&#45;&gt;Node15</title>
<g id="a_edge14_Node000001_Node000015"><a xlink:title=" ">
<path fill="none" stroke="#63b8ff" stroke-width="2" d="M756.9,-251.26C824.16,-241.12 970.66,-219.04 1053.71,-206.51"/>
<polygon fill="#63b8ff" stroke="#63b8ff" stroke-width="2" points="1054.12,-209.99 1063.48,-205.04 1053.07,-203.07 1054.12,-209.99"/>
</a>
</g>
</g>
<!-- Node21 -->
<g id="Node000021" class="node">
<title>Node21</title>
<g id="a_Node000021"><a xlink:href="../../d4/d3d/log_8hpp.html" target="_top" xlink:title=" ">
<polygon fill="#fff0f0" stroke="red" points="2147.59,-147.75 2079.09,-147.75 2079.09,-122.5 2147.59,-122.5 2147.59,-147.75"/>
<text text-anchor="middle" x="2113.34" y="-130.45" font-family="Helvetica,sans-Serif" font-size="14.00">log.hpp</text>
</a>
</g>
</g>
<!-- Node1&#45;&gt;Node21 -->
<g id="edge26_Node000001_Node000021" class="edge">
<title>Node1&#45;&gt;Node21</title>
<g id="a_edge26_Node000001_Node000021"><a xlink:title=" ">
<path fill="none" stroke="#63b8ff" stroke-width="2" d="M757,-255.04C849.34,-250.57 1094.29,-236.42 1170.34,-209 1189.41,-202.12 1189.05,-190.02 1208.34,-183.75 1386.73,-125.79 1860.04,-174.3 2066.3,-147.75"/>
<polygon fill="#63b8ff" stroke="#63b8ff" stroke-width="2" points="2066.48,-151.25 2075.9,-146.4 2065.51,-144.32 2066.48,-151.25"/>
</a>
</g>
</g>
<!-- Node2&#45;&gt;Node3 -->
<g id="edge2_Node000002_Node000003" class="edge">
<title>Node2&#45;&gt;Node3</title>
<g id="a_edge2_Node000002_Node000003"><a xlink:title=" ">
<path fill="none" stroke="#63b8ff" stroke-width="2" d="M491.74,-183.46C496.83,-167.58 507.87,-139.52 526.34,-122.5 541.3,-108.71 560.84,-98.58 579.45,-91.3"/>
<polygon fill="#63b8ff" stroke="#63b8ff" stroke-width="2" points="580.45,-94.66 588.65,-87.95 578.05,-88.09 580.45,-94.66"/>
</a>
</g>
</g>
<!-- Node2&#45;&gt;Node5 -->
<g id="edge9_Node000002_Node000005" class="edge">
<title>Node2&#45;&gt;Node5</title>
<g id="a_edge9_Node000002_Node000005"><a xlink:title=" ">
<path fill="none" stroke="#63b8ff" stroke-width="2" d="M490.21,-183.37C492.62,-168.81 497.23,-143.59 503.34,-122.5 511.98,-92.61 525.07,-59.28 534.12,-37.46"/>
<polygon fill="#63b8ff" stroke="#63b8ff" stroke-width="2" points="537.32,-38.86 537.98,-28.29 530.87,-36.15 537.32,-38.86"/>
</a>
</g>
</g>
<!-- Node2&#45;&gt;Node8 -->
<g id="edge5_Node000002_Node000008" class="edge">
<title>Node2&#45;&gt;Node8</title>
<g id="a_edge5_Node000002_Node000008"><a xlink:title=" ">
<path fill="none" stroke="#63b8ff" stroke-width="2" d="M451.78,-189.26C397.26,-180.13 293.11,-162.7 218.99,-150.29"/>
<polygon fill="#63b8ff" stroke="#63b8ff" stroke-width="2" points="219.86,-146.89 209.42,-148.69 218.71,-153.8 219.86,-146.89"/>
</a>
</g>
</g>
<!-- Node9 -->
<g id="Node000009" class="node">
<title>Node9</title>
<g id="a_Node000009"><a xlink:href="../../dc/d3e/animatedObject_8hpp.html" target="_top" xlink:title=" ">
<polygon fill="#fff0f0" stroke="red" points="693.21,-147.75 535.46,-147.75 535.46,-122.5 693.21,-122.5 693.21,-147.75"/>
<text text-anchor="middle" x="614.34" y="-130.45" font-family="Helvetica,sans-Serif" font-size="14.00">animatedObject.hpp</text>
</a>
</g>
</g>
<!-- Node2&#45;&gt;Node9 -->
<g id="edge6_Node000002_Node000009" class="edge">
<title>Node2&#45;&gt;Node9</title>
<g id="a_edge6_Node000002_Node000009"><a xlink:title=" ">
<path fill="none" stroke="#63b8ff" stroke-width="2" d="M513.83,-183.38C532.02,-174.83 556.77,-163.2 577.15,-153.61"/>
<polygon fill="#63b8ff" stroke="#63b8ff" stroke-width="2" points="578.58,-156.81 586.14,-149.39 575.6,-150.47 578.58,-156.81"/>
</a>
</g>
</g>
<!-- Node13 -->
<g id="Node000013" class="node">
<title>Node13</title>
<g id="a_Node000013"><a xlink:href="../../dd/d85/updateableObject_8hpp.html" target="_top" xlink:title=" ">
<polygon fill="white" stroke="#666666" points="441.59,-147.75 271.09,-147.75 271.09,-122.5 441.59,-122.5 441.59,-147.75"/>
<text text-anchor="middle" x="356.34" y="-130.45" font-family="Helvetica,sans-Serif" font-size="14.00">updateableObject.hpp</text>
</a>
</g>
</g>
<!-- Node2&#45;&gt;Node13 -->
<g id="edge10_Node000002_Node000013" class="edge">
<title>Node2&#45;&gt;Node13</title>
<g id="a_edge10_Node000002_Node000013"><a xlink:title=" ">
<path fill="none" stroke="#63b8ff" stroke-width="2" d="M461.62,-183.38C442.39,-174.75 416.16,-162.98 394.69,-153.34"/>
<polygon fill="#63b8ff" stroke="#63b8ff" stroke-width="2" points="396.33,-150.24 385.77,-149.34 393.46,-156.63 396.33,-150.24"/>
</a>
</g>
</g>
<!-- Node4 -->
<g id="Node000004" class="node">
<title>Node4</title>
<g id="a_Node000004"><a xlink:title=" ">
<polygon fill="#e0e0e0" stroke="#999999" points="1051.34,-25.25 831.34,-25.25 831.34,0 1051.34,0 1051.34,-25.25"/>
<text text-anchor="middle" x="941.34" y="-7.95" font-family="Helvetica,sans-Serif" font-size="14.00">SFML/Graphics/Drawable.hpp</text>
</a>
</g>
</g>
<!-- Node3&#45;&gt;Node4 -->
<g id="edge3_Node000003_Node000004" class="edge">
<title>Node3&#45;&gt;Node4</title>
<g id="a_edge3_Node000003_Node000004"><a xlink:title=" ">
<path fill="none" stroke="#63b8ff" stroke-width="2" d="M700.81,-60.81C748.91,-51.38 815.96,-38.22 867.06,-28.2"/>
<polygon fill="#63b8ff" stroke="#63b8ff" stroke-width="2" points="867.57,-31.66 876.71,-26.3 866.23,-24.79 867.57,-31.66"/>
</a>
</g>
</g>
<!-- Node3&#45;&gt;Node5 -->
<g id="edge4_Node000003_Node000005" class="edge">
<title>Node3&#45;&gt;Node5</title>
<g id="a_edge4_Node000003_Node000005"><a xlink:title=" ">
<path fill="none" stroke="#63b8ff" stroke-width="2" d="M620.11,-60.88C606.98,-52.69 589.31,-41.67 574.34,-32.34"/>
<polygon fill="#63b8ff" stroke="#63b8ff" stroke-width="2" points="576.44,-29.52 566.1,-27.2 572.73,-35.46 576.44,-29.52"/>
</a>
</g>
</g>
<!-- Node9&#45;&gt;Node3 -->
<g id="edge7_Node000009_Node000003" class="edge">
<title>Node9&#45;&gt;Node3</title>
<g id="a_edge7_Node000009_Node000003"><a xlink:title=" ">
<path fill="none" stroke="#63b8ff" stroke-width="2" d="M619.39,-122.13C622.24,-115.39 625.9,-106.72 629.3,-98.66"/>
<polygon fill="#63b8ff" stroke="#63b8ff" stroke-width="2" points="632.44,-100.21 633.11,-89.64 625.99,-97.49 632.44,-100.21"/>
</a>
</g>
</g>
<!-- Node9&#45;&gt;Node5 -->
<g id="edge8_Node000009_Node000005" class="edge">
<title>Node9&#45;&gt;Node5</title>
<g id="a_edge8_Node000009_Node000005"><a xlink:title=" ">
<path fill="none" stroke="#63b8ff" stroke-width="2" d="M597.67,-122.15C586.69,-113.43 572.82,-100.7 564.34,-86.5 555.51,-71.74 550.48,-52.98 547.67,-38.2"/>
<polygon fill="#63b8ff" stroke="#63b8ff" stroke-width="2" points="551.15,-37.79 546.09,-28.48 544.24,-38.92 551.15,-37.79"/>
</a>
</g>
</g>
<!-- Node15&#45;&gt;Node4 -->
<g id="edge23_Node000015_Node000004" class="edge">
<title>Node15&#45;&gt;Node4</title>
<g id="a_edge23_Node000015_Node000004"><a xlink:title=" ">
<path fill="none" stroke="#63b8ff" stroke-width="2" d="M1125.25,-183.45C1137.52,-168.54 1154.26,-142.53 1142.34,-122.5 1112.97,-73.2 1052.67,-44.86 1005.73,-29.53"/>
<polygon fill="#63b8ff" stroke="#63b8ff" stroke-width="2" points="1006.98,-26.25 996.39,-26.62 1004.9,-32.94 1006.98,-26.25"/>
</a>
</g>
</g>
<!-- Node15&#45;&gt;Node5 -->
<g id="edge22_Node000015_Node000005" class="edge">
<title>Node15&#45;&gt;Node5</title>
<g id="a_edge22_Node000015_Node000005"><a xlink:title=" ">
<path fill="none" stroke="#63b8ff" stroke-width="2" d="M1066.5,-193.15C985.61,-188.65 825.93,-176.35 778.34,-147.75 737.57,-123.25 754.41,-88.36 715.34,-61.25 683.56,-39.21 641.86,-27.34 607.59,-20.95"/>
<polygon fill="#63b8ff" stroke="#63b8ff" stroke-width="2" points="608.29,-17.52 597.84,-19.28 607.1,-24.42 608.29,-17.52"/>
</a>
</g>
</g>
<!-- Node15&#45;&gt;Node9 -->
<g id="edge20_Node000015_Node000009" class="edge">
<title>Node15&#45;&gt;Node9</title>
<g id="a_edge20_Node000015_Node000009"><a xlink:title=" ">
<path fill="none" stroke="#63b8ff" stroke-width="2" d="M1066.85,-189.75C984.27,-179.96 812.9,-159.65 706.36,-147.03"/>
<polygon fill="#63b8ff" stroke="#63b8ff" stroke-width="2" points="707.05,-143.59 696.71,-145.89 706.23,-150.54 707.05,-143.59"/>
</a>
</g>
</g>
<!-- Node16 -->
<g id="Node000016" class="node">
<title>Node16</title>
<g id="a_Node000016"><a xlink:title=" ">
<polygon fill="#e0e0e0" stroke="#999999" points="1447.46,-147.75 1189.21,-147.75 1189.21,-122.5 1447.46,-122.5 1447.46,-147.75"/>
<text text-anchor="middle" x="1318.34" y="-130.45" font-family="Helvetica,sans-Serif" font-size="14.00">SFML/Graphics/RenderWindow.hpp</text>
</a>
</g>
</g>
<!-- Node15&#45;&gt;Node16 -->
<g id="edge15_Node000015_Node000016" class="edge">
<title>Node15&#45;&gt;Node16</title>
<g id="a_edge15_Node000015_Node000016"><a xlink:title=" ">
<path fill="none" stroke="#63b8ff" stroke-width="2" d="M1155.62,-183.38C1187.04,-174.26 1230.54,-161.62 1264.66,-151.71"/>
<polygon fill="#63b8ff" stroke="#63b8ff" stroke-width="2" points="1265.23,-155.19 1273.86,-149.04 1263.28,-148.47 1265.23,-155.19"/>
</a>
</g>
</g>
<!-- Node17 -->
<g id="Node000017" class="node">
<title>Node17</title>
<g id="a_Node000017"><a xlink:title=" ">
<polygon fill="#e0e0e0" stroke="#999999" points="1663.46,-147.75 1465.21,-147.75 1465.21,-122.5 1663.46,-122.5 1663.46,-147.75"/>
<text text-anchor="middle" x="1564.34" y="-130.45" font-family="Helvetica,sans-Serif" font-size="14.00">SFML/Graphics/Shape.hpp</text>
</a>
</g>
</g>
<!-- Node15&#45;&gt;Node17 -->
<g id="edge16_Node000015_Node000017" class="edge">
<title>Node15&#45;&gt;Node17</title>
<g id="a_edge16_Node000015_Node000017"><a xlink:title=" ">
<path fill="none" stroke="#63b8ff" stroke-width="2" d="M1161.9,-185.99C1166.44,-185.19 1170.97,-184.43 1175.34,-183.75 1226.96,-175.68 1356.68,-160.15 1452.19,-149.01"/>
<polygon fill="#63b8ff" stroke="#63b8ff" stroke-width="2" points="1452.31,-152.52 1461.84,-147.89 1451.5,-145.57 1452.31,-152.52"/>
</a>
</g>
</g>
<!-- Node18 -->
<g id="Node000018" class="node">
<title>Node18</title>
<g id="a_Node000018"><a xlink:title=" ">
<polygon fill="#e0e0e0" stroke="#999999" points="1863.59,-147.75 1681.09,-147.75 1681.09,-122.5 1863.59,-122.5 1863.59,-147.75"/>
<text text-anchor="middle" x="1772.34" y="-130.45" font-family="Helvetica,sans-Serif" font-size="14.00">SFML/System/Clock.hpp</text>
</a>
</g>
</g>
<!-- Node15&#45;&gt;Node18 -->
<g id="edge17_Node000015_Node000018" class="edge">
<title>Node15&#45;&gt;Node18</title>
<g id="a_edge17_Node000015_Node000018"><a xlink:title=" ">
<path fill="none" stroke="#63b8ff" stroke-width="2" d="M1162.2,-185.71C1166.63,-184.98 1171.06,-184.31 1175.34,-183.75 1390.74,-155.52 1449.62,-168.04 1667.9,-148.12"/>
<polygon fill="#63b8ff" stroke="#63b8ff" stroke-width="2" points="1668.15,-151.62 1677.79,-147.21 1667.5,-144.65 1668.15,-151.62"/>
</a>
</g>
</g>
<!-- Node19 -->
<g id="Node000019" class="node">
<title>Node19</title>
<g id="a_Node000019"><a xlink:title=" ">
<polygon fill="#e0e0e0" stroke="#999999" points="2060.71,-147.75 1881.96,-147.75 1881.96,-122.5 2060.71,-122.5 2060.71,-147.75"/>
<text text-anchor="middle" x="1971.34" y="-130.45" font-family="Helvetica,sans-Serif" font-size="14.00">SFML/System/Time.hpp</text>
</a>
</g>
</g>
<!-- Node15&#45;&gt;Node19 -->
<g id="edge18_Node000015_Node000019" class="edge">
<title>Node15&#45;&gt;Node19</title>
<g id="a_edge18_Node000015_Node000019"><a xlink:title=" ">
<path fill="none" stroke="#63b8ff" stroke-width="2" d="M1162.19,-185.61C1166.62,-184.9 1171.05,-184.27 1175.34,-183.75 1479.09,-147.14 1561.02,-173.12 1868.6,-148.01"/>
<polygon fill="#63b8ff" stroke="#63b8ff" stroke-width="2" points="1868.83,-151.5 1878.5,-147.18 1868.25,-144.52 1868.83,-151.5"/>
</a>
</g>
</g>
<!-- Node20 -->
<g id="Node000020" class="node">
<title>Node20</title>
<g id="a_Node000020"><a xlink:title=" ">
<polygon fill="#e0e0e0" stroke="#999999" points="975.21,-147.75 787.46,-147.75 787.46,-122.5 975.21,-122.5 975.21,-147.75"/>
<text text-anchor="middle" x="881.34" y="-130.45" font-family="Helvetica,sans-Serif" font-size="14.00">SFML/Window/Event.hpp</text>
</a>
</g>
</g>
<!-- Node15&#45;&gt;Node20 -->
<g id="edge19_Node000015_Node000020" class="edge">
<title>Node15&#45;&gt;Node20</title>
<g id="a_edge19_Node000015_Node000020"><a xlink:title=" ">
<path fill="none" stroke="#63b8ff" stroke-width="2" d="M1066.9,-183.31C1030.6,-174.08 980.3,-161.29 941.22,-151.35"/>
<polygon fill="#63b8ff" stroke="#63b8ff" stroke-width="2" points="942.19,-147.99 931.63,-148.92 940.46,-154.77 942.19,-147.99"/>
</a>
</g>
</g>
<!-- Node15&#45;&gt;Node21 -->
<g id="edge21_Node000015_Node000021" class="edge">
<title>Node15&#45;&gt;Node21</title>
<g id="a_edge21_Node000015_Node000021"><a xlink:title=" ">
<path fill="none" stroke="#63b8ff" stroke-width="2" d="M1162.18,-185.56C1166.62,-184.86 1171.05,-184.24 1175.34,-183.75 1566.15,-138.89 1673.8,-205.43 2066.02,-147.9"/>
<polygon fill="#63b8ff" stroke="#63b8ff" stroke-width="2" points="2066.53,-151.36 2075.9,-146.43 2065.5,-144.44 2066.53,-151.36"/>
</a>
</g>
</g>
<!-- Node22 -->
<g id="Node000022" class="node">
<title>Node22</title>
<g id="a_Node000022"><a xlink:title=" ">
<polygon fill="#e0e0e0" stroke="#999999" points="1077.84,-147.75 992.84,-147.75 992.84,-122.5 1077.84,-122.5 1077.84,-147.75"/>
<text text-anchor="middle" x="1035.34" y="-130.45" font-family="Helvetica,sans-Serif" font-size="14.00">functional</text>
</a>
</g>
</g>
<!-- Node15&#45;&gt;Node22 -->
<g id="edge24_Node000015_Node000022" class="edge">
<title>Node15&#45;&gt;Node22</title>
<g id="a_edge24_Node000015_Node000022"><a xlink:title=" ">
<path fill="none" stroke="#63b8ff" stroke-width="2" d="M1098.35,-183.38C1087.75,-175.43 1073.59,-164.82 1061.39,-155.66"/>
<polygon fill="#63b8ff" stroke="#63b8ff" stroke-width="2" points="1063.82,-153.11 1053.72,-149.91 1059.62,-158.71 1063.82,-153.11"/>
</a>
</g>
</g>
<!-- Node23 -->
<g id="Node000023" class="node">
<title>Node23</title>
<g id="a_Node000023"><a xlink:title=" ">
<polygon fill="#e0e0e0" stroke="#999999" points="1132.84,-147.75 1095.84,-147.75 1095.84,-122.5 1132.84,-122.5 1132.84,-147.75"/>
<text text-anchor="middle" x="1114.34" y="-130.45" font-family="Helvetica,sans-Serif" font-size="14.00">set</text>
</a>
</g>
</g>
<!-- Node15&#45;&gt;Node23 -->
<g id="edge25_Node000015_Node000023" class="edge">
<title>Node15&#45;&gt;Node23</title>
<g id="a_edge25_Node000015_Node000023"><a xlink:title=" ">
<path fill="none" stroke="#63b8ff" stroke-width="2" d="M1114.34,-183.38C1114.34,-176.96 1114.34,-168.8 1114.34,-161.07"/>
<polygon fill="#63b8ff" stroke="#63b8ff" stroke-width="2" points="1117.84,-161.12 1114.34,-151.12 1110.84,-161.12 1117.84,-161.12"/>
</a>
</g>
</g>
</g>
</svg>

<g id="navigator" transform="translate(0 0)" fill="#404254">
  <rect fill="#f2f5e9" fill-opacity="0.5" stroke="#606060" stroke-width=".5" x="0" y="0" width="60" height="60"/>
  <use id="zoomplus" xlink:href="#zoomPlus" x="17" y="9" onmousedown="handleZoom(evt,'in')"/>
  <use id="zoomminus" xlink:href="#zoomMin" x="42" y="9" onmousedown="handleZoom(evt,'out')"/>
  <use id="reset" xlink:href="#resetDef" x="30" y="36" onmousedown="handleReset()"/>
   <use id="arrowup" xlink:href="#arrowUp" x="0" y="0" onmousedown="handlePan(0,-1)"/>
  <use id="arrowright" xlink:href="#arrowRight" x="0" y="0" onmousedown="handlePan(1,0)"/>
  <use id="arrowdown" xlink:href="#arrowDown" x="0" y="0" onmousedown="handlePan(0,1)"/>
  <use id="arrowleft" xlink:href="#arrowLeft" x="0" y="0" onmousedown="handlePan(-1,0)"/>
</g>
<svg viewBox="0 0 15 15" width="100%" height="30px" preserveAspectRatio="xMaxYMin meet">
 <g id="arrow_out" transform="scale(0.3 0.3)">
  <a xlink:href="ball_8cpp__incl_org.svg" target="_base">
   <rect id="button" ry="5" rx="5" y="6" x="6" height="38" width="38"
        fill="#f2f5e9" fill-opacity="0.5" stroke="#606060" stroke-width="1.0"/>
   <path id="arrow"
     d="M 11.500037,31.436501 C 11.940474,20.09759 22.043105,11.32322 32.158766,21.979434 L 37.068811,17.246167 C 37.068811,17.246167 37.088388,32 37.088388,32 L 22.160133,31.978069 C 22.160133,31.978069 26.997745,27.140456 26.997745,27.140456 C 18.528582,18.264221 13.291696,25.230495 11.500037,31.436501 z"
     style="fill:#404040;"/>
  </a>
 </g>
</svg>

<style type='text/css'>
<![CDATA[
[data-mouse-over-selected='false'] { opacity: 0.7; }
[data-mouse-over-selected='true']  { opacity: 1.0; }
]]>
</style>
<script type="application/ecmascript"><![CDATA[
document.addEventListener('DOMContentLoaded', (event) => {
  highlightEdges();
  highlightAdjacentNodes();
});
]]></script>
</svg>
