<?xml version="1.0" encoding="UTF-8" standalone="no"?>
<!DOCTYPE svg PUBLIC "-//W3C//DTD SVG 1.1//EN"
 "http://www.w3.org/Graphics/SVG/1.1/DTD/svg11.dtd">
<!-- Generated by graphviz version 9.0.0 (0)
 -->
<!-- Title: AnimatedSpriteSheet::AnimationFrameData::toIntRect Pages: 1 -->
<svg width="587pt" height="112pt"
 viewBox="0.00 0.00 587.00 111.50" xmlns="http://www.w3.org/2000/svg" xmlns:xlink="http://www.w3.org/1999/xlink">
<g id="graph0" class="graph" transform="scale(1 1) rotate(0) translate(4 107.5)">
<title>AnimatedSpriteSheet::AnimationFrameData::toIntRect</title>
<!-- Node1 -->
<g id="Node000001" class="node">
<title>Node1</title>
<g id="a_Node000001"><a xlink:title=" ">
<polygon fill="#999999" stroke="#666666" points="579,-81.12 408.5,-81.12 408.5,-21.37 579,-21.37 579,-81.12"/>
<text text-anchor="start" x="416.5" y="-63.83" font-family="Helvetica,sans-Serif" font-size="14.00">AnimatedSpriteSheet</text>
<text text-anchor="start" x="416.5" y="-46.58" font-family="Helvetica,sans-Serif" font-size="14.00">::AnimationFrameData</text>
<text text-anchor="middle" x="493.75" y="-29.32" font-family="Helvetica,sans-Serif" font-size="14.00">::toIntRect</text>
</a>
</g>
</g>
<!-- Node2 -->
<g id="Node000002" class="node">
<title>Node2</title>
<g id="a_Node000002"><a xlink:href="../../d4/dcd/classAnimatedSpriteSheet.html#a220da560115e8b9b4b6a823deab4cce7" target="_top" xlink:title=" ">
<polygon fill="white" stroke="#666666" points="372.5,-72.5 208.75,-72.5 208.75,-30 372.5,-30 372.5,-72.5"/>
<text text-anchor="start" x="216.75" y="-55.2" font-family="Helvetica,sans-Serif" font-size="14.00">AnimatedSpriteSheet</text>
<text text-anchor="middle" x="290.62" y="-37.95" font-family="Helvetica,sans-Serif" font-size="14.00">::setFrame</text>
</a>
</g>
</g>
<!-- Node1&#45;&gt;Node2 -->
<g id="edge1_Node000001_Node000002" class="edge">
<title>Node1&#45;&gt;Node2</title>
<g id="a_edge1_Node000001_Node000002"><a xlink:title=" ">
<path fill="none" stroke="#63b8ff" stroke-width="2" d="M395.06,-51.25C387.58,-51.25 380.07,-51.25 372.71,-51.25"/>
<polygon fill="#63b8ff" stroke="#63b8ff" stroke-width="2" points="395.01,-54.75 405.01,-51.25 395.01,-47.75 395.01,-54.75"/>
</a>
</g>
</g>
<!-- Node3 -->
<g id="Node000003" class="node">
<title>Node3</title>
<g id="a_Node000003"><a xlink:href="../../d4/dcd/classAnimatedSpriteSheet.html#a2c54d17eea6a3e391e58b90d577dec48" target="_top" xlink:title=" ">
<polygon fill="white" stroke="#666666" points="172.75,-103.5 0,-103.5 0,-61 172.75,-61 172.75,-103.5"/>
<text text-anchor="start" x="8" y="-86.2" font-family="Helvetica,sans-Serif" font-size="14.00">AnimatedSpriteSheet</text>
<text text-anchor="middle" x="86.38" y="-68.95" font-family="Helvetica,sans-Serif" font-size="14.00">::AnimatedSpriteSheet</text>
</a>
</g>
</g>
<!-- Node2&#45;&gt;Node3 -->
<g id="edge2_Node000002_Node000003" class="edge">
<title>Node2&#45;&gt;Node3</title>
<g id="a_edge2_Node000002_Node000003"><a xlink:title=" ">
<path fill="none" stroke="#63b8ff" stroke-width="2" d="M195.86,-65.62C188.28,-66.78 180.64,-67.95 173.12,-69.11"/>
<polygon fill="#63b8ff" stroke="#63b8ff" stroke-width="2" points="196.18,-69.11 205.54,-64.14 195.12,-62.19 196.18,-69.11"/>
</a>
</g>
</g>
<!-- Node4 -->
<g id="Node000004" class="node">
<title>Node4</title>
<g id="a_Node000004"><a xlink:href="../../d4/dcd/classAnimatedSpriteSheet.html#a5d096d78c6d0246c1d39508bd4a13b7f" target="_top" xlink:title=" ">
<polygon fill="#fff0f0" stroke="red" points="168.25,-42.5 4.5,-42.5 4.5,0 168.25,0 168.25,-42.5"/>
<text text-anchor="start" x="12.5" y="-25.2" font-family="Helvetica,sans-Serif" font-size="14.00">AnimatedSpriteSheet</text>
<text text-anchor="middle" x="86.38" y="-7.95" font-family="Helvetica,sans-Serif" font-size="14.00">::nextFrame</text>
</a>
</g>
</g>
<!-- Node2&#45;&gt;Node4 -->
<g id="edge3_Node000002_Node000004" class="edge">
<title>Node2&#45;&gt;Node4</title>
<g id="a_edge3_Node000002_Node000004"><a xlink:title=" ">
<path fill="none" stroke="#63b8ff" stroke-width="2" d="M195.74,-37.32C186.64,-35.97 177.45,-34.61 168.49,-33.28"/>
<polygon fill="#63b8ff" stroke="#63b8ff" stroke-width="2" points="195.13,-40.77 205.53,-38.78 196.16,-33.85 195.13,-40.77"/>
</a>
</g>
</g>
</g>
</svg>
