<?xml version="1.0" encoding="UTF-8" standalone="no"?>
<!DOCTYPE svg PUBLIC "-//W3C//DTD SVG 1.1//EN"
 "http://www.w3.org/Graphics/SVG/1.1/DTD/svg11.dtd">
<!-- Generated by graphviz version 9.0.0 (0)
 -->
<!-- Title: GameObject.hpp Pages: 1 -->
<svg width="408pt" height="156pt"
 viewBox="0.00 0.00 408.12 155.75" xmlns="http://www.w3.org/2000/svg" xmlns:xlink="http://www.w3.org/1999/xlink">
<g id="graph0" class="graph" transform="scale(1 1) rotate(0) translate(4 151.75)">
<title>GameObject.hpp</title>
<!-- Node1 -->
<g id="Node000001" class="node">
<title>Node1</title>
<g id="a_Node000001"><a xlink:title=" ">
<polygon fill="#999999" stroke="#666666" points="265.5,-147.75 132.5,-147.75 132.5,-122.5 265.5,-122.5 265.5,-147.75"/>
<text text-anchor="middle" x="199" y="-130.45" font-family="Helvetica,sans-Serif" font-size="14.00">GameObject.hpp</text>
</a>
</g>
</g>
<!-- Node2 -->
<g id="Node000002" class="node">
<title>Node2</title>
<g id="a_Node000002"><a xlink:title=" ">
<polygon fill="#e0e0e0" stroke="#999999" points="220,-86.5 0,-86.5 0,-61.25 220,-61.25 220,-86.5"/>
<text text-anchor="middle" x="110" y="-69.2" font-family="Helvetica,sans-Serif" font-size="14.00">SFML/Graphics/Drawable.hpp</text>
</a>
</g>
</g>
<!-- Node1&#45;&gt;Node2 -->
<g id="edge1_Node000001_Node000002" class="edge">
<title>Node1&#45;&gt;Node2</title>
<g id="a_edge1_Node000001_Node000002"><a xlink:title=" ">
<path fill="none" stroke="#63b8ff" stroke-width="2" d="M180.99,-122.13C168.81,-114.02 152.46,-103.14 138.52,-93.86"/>
<polygon fill="#63b8ff" stroke="#63b8ff" stroke-width="2" points="140.77,-91.15 130.5,-88.52 136.89,-96.98 140.77,-91.15"/>
</a>
</g>
</g>
<!-- Node3 -->
<g id="Node000003" class="node">
<title>Node3</title>
<g id="a_Node000003"><a xlink:href="../../d9/d03/point2d_8hpp.html" target="_top" xlink:title=" ">
<polygon fill="white" stroke="#666666" points="338.38,-86.5 237.62,-86.5 237.62,-61.25 338.38,-61.25 338.38,-86.5"/>
<text text-anchor="middle" x="288" y="-69.2" font-family="Helvetica,sans-Serif" font-size="14.00">point2d.hpp</text>
</a>
</g>
</g>
<!-- Node1&#45;&gt;Node3 -->
<g id="edge2_Node000001_Node000003" class="edge">
<title>Node1&#45;&gt;Node3</title>
<g id="a_edge2_Node000001_Node000003"><a xlink:title=" ">
<path fill="none" stroke="#63b8ff" stroke-width="2" d="M217.01,-122.13C229.19,-114.02 245.54,-103.14 259.48,-93.86"/>
<polygon fill="#63b8ff" stroke="#63b8ff" stroke-width="2" points="261.11,-96.98 267.5,-88.52 257.23,-91.15 261.11,-96.98"/>
</a>
</g>
</g>
<!-- Node4 -->
<g id="Node000004" class="node">
<title>Node4</title>
<g id="a_Node000004"><a xlink:title=" ">
<polygon fill="#e0e0e0" stroke="#999999" points="309.75,-25.25 112.25,-25.25 112.25,0 309.75,0 309.75,-25.25"/>
<text text-anchor="middle" x="211" y="-7.95" font-family="Helvetica,sans-Serif" font-size="14.00">SFML/System/Vector2.hpp</text>
</a>
</g>
</g>
<!-- Node3&#45;&gt;Node4 -->
<g id="edge3_Node000003_Node000004" class="edge">
<title>Node3&#45;&gt;Node4</title>
<g id="a_edge3_Node000003_Node000004"><a xlink:title=" ">
<path fill="none" stroke="#63b8ff" stroke-width="2" d="M272.42,-60.88C262.19,-53.01 248.57,-42.53 236.75,-33.44"/>
<polygon fill="#63b8ff" stroke="#63b8ff" stroke-width="2" points="239.02,-30.77 228.96,-27.44 234.75,-36.32 239.02,-30.77"/>
</a>
</g>
</g>
<!-- Node5 -->
<g id="Node000005" class="node">
<title>Node5</title>
<g id="a_Node000005"><a xlink:title=" ">
<polygon fill="#e0e0e0" stroke="#999999" points="400.12,-25.25 327.88,-25.25 327.88,0 400.12,0 400.12,-25.25"/>
<text text-anchor="middle" x="364" y="-7.95" font-family="Helvetica,sans-Serif" font-size="14.00">ostream</text>
</a>
</g>
</g>
<!-- Node3&#45;&gt;Node5 -->
<g id="edge4_Node000003_Node000005" class="edge">
<title>Node3&#45;&gt;Node5</title>
<g id="a_edge4_Node000003_Node000005"><a xlink:title=" ">
<path fill="none" stroke="#63b8ff" stroke-width="2" d="M303.38,-60.88C313.48,-53.01 326.92,-42.53 338.58,-33.44"/>
<polygon fill="#63b8ff" stroke="#63b8ff" stroke-width="2" points="340.52,-36.37 346.26,-27.46 336.22,-30.85 340.52,-36.37"/>
</a>
</g>
</g>
</g>
</svg>
