<?xml version="1.0" encoding="UTF-8" standalone="no"?>
<!DOCTYPE svg PUBLIC "-//W3C//DTD SVG 1.1//EN"
 "http://www.w3.org/Graphics/SVG/1.1/DTD/svg11.dtd">
<!-- Generated by graphviz version 9.0.0 (0)
 -->
<!-- Title: Bush::animate Pages: 1 -->
<svg width="599pt" height="128pt"
 viewBox="0.00 0.00 599.00 127.88" xmlns="http://www.w3.org/2000/svg" xmlns:xlink="http://www.w3.org/1999/xlink">
<g id="graph0" class="graph" transform="scale(1 1) rotate(0) translate(4 123.88)">
<title>Bush::animate</title>
<!-- Node1 -->
<g id="Node000001" class="node">
<title>Node1</title>
<g id="a_Node000001"><a xlink:title="Animates object.">
<polygon fill="#999999" stroke="#666666" points="116.5,-76.88 0,-76.88 0,-51.62 116.5,-51.62 116.5,-76.88"/>
<text text-anchor="middle" x="58.25" y="-59.58" font-family="Helvetica,sans-Serif" font-size="14.00">Bush::animate</text>
</a>
</g>
</g>
<!-- Node2 -->
<g id="Node000002" class="node">
<title>Node2</title>
<g id="a_Node000002"><a xlink:href="../../d1/db6/classEngine.html#a4fbdd2df29e30dd08de3c285cee8c128" target="_top" xlink:title="Instance getter.">
<polygon fill="white" stroke="#666666" points="343.25,-119.88 188.5,-119.88 188.5,-94.62 343.25,-94.62 343.25,-119.88"/>
<text text-anchor="middle" x="265.88" y="-102.58" font-family="Helvetica,sans-Serif" font-size="14.00">Engine::getInstance</text>
</a>
</g>
</g>
<!-- Node1&#45;&gt;Node2 -->
<g id="edge1_Node000001_Node000002" class="edge">
<title>Node1&#45;&gt;Node2</title>
<g id="a_edge1_Node000001_Node000002"><a xlink:title=" ">
<path fill="none" stroke="#63b8ff" stroke-width="2" d="M112.9,-77.36C125.84,-80.4 139.64,-83.53 152.5,-86.25 161.15,-88.08 170.18,-89.9 179.21,-91.67"/>
<polygon fill="#63b8ff" stroke="#63b8ff" stroke-width="2" points="178.48,-95.1 188.96,-93.56 179.81,-88.22 178.48,-95.1"/>
</a>
</g>
</g>
<!-- Node4 -->
<g id="Node000004" class="node">
<title>Node4</title>
<g id="a_Node000004"><a xlink:href="../../d1/db6/classEngine.html#a7882b3a1b96c425ea5692807e0765e9f" target="_top" xlink:title="Last frame duration getter.">
<polygon fill="white" stroke="#666666" points="379.25,-76.88 152.5,-76.88 152.5,-51.62 379.25,-51.62 379.25,-76.88"/>
<text text-anchor="middle" x="265.88" y="-59.58" font-family="Helvetica,sans-Serif" font-size="14.00">Engine::getLastFrameDuration</text>
</a>
</g>
</g>
<!-- Node1&#45;&gt;Node4 -->
<g id="edge3_Node000001_Node000004" class="edge">
<title>Node1&#45;&gt;Node4</title>
<g id="a_edge3_Node000001_Node000004"><a xlink:title=" ">
<path fill="none" stroke="#63b8ff" stroke-width="2" d="M116.8,-64.25C124.04,-64.25 131.66,-64.25 139.46,-64.25"/>
<polygon fill="#63b8ff" stroke="#63b8ff" stroke-width="2" points="139.25,-67.75 149.25,-64.25 139.25,-60.75 139.25,-67.75"/>
</a>
</g>
</g>
<!-- Node5 -->
<g id="Node000005" class="node">
<title>Node5</title>
<g id="a_Node000005"><a xlink:href="../../df/dd5/classBush.html#ad89287a274a2066a0263c6b6c2f0487d" target="_top" xlink:title=" ">
<polygon fill="white" stroke="#666666" points="332,-33.88 199.75,-33.88 199.75,-8.62 332,-8.62 332,-33.88"/>
<text text-anchor="middle" x="265.88" y="-16.57" font-family="Helvetica,sans-Serif" font-size="14.00">Bush::nextSprite</text>
</a>
</g>
</g>
<!-- Node1&#45;&gt;Node5 -->
<g id="edge4_Node000001_Node000005" class="edge">
<title>Node1&#45;&gt;Node5</title>
<g id="a_edge4_Node000001_Node000005"><a xlink:title=" ">
<path fill="none" stroke="#63b8ff" stroke-width="2" d="M112.9,-51.14C125.84,-48.1 139.64,-44.97 152.5,-42.25 163.62,-39.9 175.39,-37.55 186.97,-35.32"/>
<polygon fill="#63b8ff" stroke="#63b8ff" stroke-width="2" points="187.27,-38.82 196.43,-33.51 185.96,-31.95 187.27,-38.82"/>
</a>
</g>
</g>
<!-- Node3 -->
<g id="Node000003" class="node">
<title>Node3</title>
<g id="a_Node000003"><a xlink:href="../../d1/db6/classEngine.html#a8c98683b0a3aa28d8ab72a8bcd0d52f2" target="_top" xlink:title="Constructor.">
<polygon fill="white" stroke="#666666" points="563.62,-119.88 442.62,-119.88 442.62,-94.62 563.62,-94.62 563.62,-119.88"/>
<text text-anchor="middle" x="503.12" y="-102.58" font-family="Helvetica,sans-Serif" font-size="14.00">Engine::Engine</text>
</a>
</g>
</g>
<!-- Node2&#45;&gt;Node3 -->
<g id="edge2_Node000002_Node000003" class="edge">
<title>Node2&#45;&gt;Node3</title>
<g id="a_edge2_Node000002_Node000003"><a xlink:title=" ">
<path fill="none" stroke="#63b8ff" stroke-width="2" d="M343.58,-107.25C371.12,-107.25 402.08,-107.25 429.28,-107.25"/>
<polygon fill="#63b8ff" stroke="#63b8ff" stroke-width="2" points="429.27,-110.75 439.27,-107.25 429.27,-103.75 429.27,-110.75"/>
</a>
</g>
</g>
<!-- Node6 -->
<g id="Node000006" class="node">
<title>Node6</title>
<g id="a_Node000006"><a xlink:href="../../df/dd5/classBush.html#ae7848946a03efec0a43e3469ce46506e" target="_top" xlink:title=" ">
<polygon fill="white" stroke="#666666" points="591,-42.5 415.25,-42.5 415.25,0 591,0 591,-42.5"/>
<text text-anchor="start" x="423.25" y="-25.2" font-family="Helvetica,sans-Serif" font-size="14.00">Bush::getCurrentSprite</text>
<text text-anchor="middle" x="503.12" y="-7.95" font-family="Helvetica,sans-Serif" font-size="14.00">Rectangle</text>
</a>
</g>
</g>
<!-- Node5&#45;&gt;Node6 -->
<g id="edge5_Node000005_Node000006" class="edge">
<title>Node5&#45;&gt;Node6</title>
<g id="a_edge5_Node000005_Node000006"><a xlink:title=" ">
<path fill="none" stroke="#63b8ff" stroke-width="2" d="M332.41,-21.25C353.97,-21.25 378.46,-21.25 402,-21.25"/>
<polygon fill="#63b8ff" stroke="#63b8ff" stroke-width="2" points="401.93,-24.75 411.93,-21.25 401.93,-17.75 401.93,-24.75"/>
</a>
</g>
</g>
</g>
</svg>
