<?xml version="1.0" encoding="UTF-8" standalone="no"?>
<!DOCTYPE svg PUBLIC "-//W3C//DTD SVG 1.1//EN"
 "http://www.w3.org/Graphics/SVG/1.1/DTD/svg11.dtd">
<!-- Generated by graphviz version 9.0.0 (0)
 -->
<!-- Title: Bush::getCurrentSpriteRectangle Pages: 1 -->
<svg width="505pt" height="76pt"
 viewBox="0.00 0.00 504.50 76.25" xmlns="http://www.w3.org/2000/svg" xmlns:xlink="http://www.w3.org/1999/xlink">
<g id="graph0" class="graph" transform="scale(1 1) rotate(0) translate(4 72.25)">
<title>Bush::getCurrentSpriteRectangle</title>
<!-- Node1 -->
<g id="Node000001" class="node">
<title>Node1</title>
<g id="a_Node000001"><a xlink:title=" ">
<polygon fill="#999999" stroke="#666666" points="496.5,-54.88 320.75,-54.88 320.75,-12.38 496.5,-12.38 496.5,-54.88"/>
<text text-anchor="start" x="328.75" y="-37.58" font-family="Helvetica,sans-Serif" font-size="14.00">Bush::getCurrentSprite</text>
<text text-anchor="middle" x="408.62" y="-20.32" font-family="Helvetica,sans-Serif" font-size="14.00">Rectangle</text>
</a>
</g>
</g>
<!-- Node2 -->
<g id="Node000002" class="node">
<title>Node2</title>
<g id="a_Node000002"><a xlink:href="../../df/dd5/classBush.html#a3387179351e853eb48e321254a09538c" target="_top" xlink:title=" ">
<polygon fill="white" stroke="#666666" points="266.38,-68.25 170.88,-68.25 170.88,-43 266.38,-43 266.38,-68.25"/>
<text text-anchor="middle" x="218.62" y="-50.95" font-family="Helvetica,sans-Serif" font-size="14.00">Bush::Bush</text>
</a>
</g>
</g>
<!-- Node1&#45;&gt;Node2 -->
<g id="edge1_Node000001_Node000002" class="edge">
<title>Node1&#45;&gt;Node2</title>
<g id="a_edge1_Node000001_Node000002"><a xlink:title=" ">
<path fill="none" stroke="#63b8ff" stroke-width="2" d="M307.88,-45.3C293.54,-46.98 279.37,-48.63 266.72,-50.11"/>
<polygon fill="#63b8ff" stroke="#63b8ff" stroke-width="2" points="307.97,-48.81 317.5,-44.17 307.16,-41.86 307.97,-48.81"/>
</a>
</g>
</g>
<!-- Node3 -->
<g id="Node000003" class="node">
<title>Node3</title>
<g id="a_Node000003"><a xlink:href="../../df/dd5/classBush.html#ad89287a274a2066a0263c6b6c2f0487d" target="_top" xlink:title=" ">
<polygon fill="white" stroke="#666666" points="284.75,-25.25 152.5,-25.25 152.5,0 284.75,0 284.75,-25.25"/>
<text text-anchor="middle" x="218.62" y="-7.95" font-family="Helvetica,sans-Serif" font-size="14.00">Bush::nextSprite</text>
</a>
</g>
</g>
<!-- Node1&#45;&gt;Node3 -->
<g id="edge2_Node000001_Node000003" class="edge">
<title>Node1&#45;&gt;Node3</title>
<g id="a_edge2_Node000001_Node000003"><a xlink:title=" ">
<path fill="none" stroke="#63b8ff" stroke-width="2" d="M307.64,-22.46C300.01,-21.6 292.43,-20.76 285.1,-19.94"/>
<polygon fill="#63b8ff" stroke="#63b8ff" stroke-width="2" points="307.17,-25.93 317.5,-23.56 307.95,-18.97 307.17,-25.93"/>
</a>
</g>
</g>
<!-- Node4 -->
<g id="Node000004" class="node">
<title>Node4</title>
<g id="a_Node000004"><a xlink:href="../../df/dd5/classBush.html#a435e5a6a66b3a1ae2fb2d3368a051033" target="_top" xlink:title="Animates object.">
<polygon fill="white" stroke="#666666" points="116.5,-25.25 0,-25.25 0,0 116.5,0 116.5,-25.25"/>
<text text-anchor="middle" x="58.25" y="-7.95" font-family="Helvetica,sans-Serif" font-size="14.00">Bush::animate</text>
</a>
</g>
</g>
<!-- Node3&#45;&gt;Node4 -->
<g id="edge3_Node000003_Node000004" class="edge">
<title>Node3&#45;&gt;Node4</title>
<g id="a_edge3_Node000003_Node000004"><a xlink:title=" ">
<path fill="none" stroke="#63b8ff" stroke-width="2" d="M139.5,-12.62C131.87,-12.62 124.22,-12.62 116.84,-12.62"/>
<polygon fill="#63b8ff" stroke="#63b8ff" stroke-width="2" points="139.27,-16.13 149.27,-12.63 139.27,-9.13 139.27,-16.13"/>
</a>
</g>
</g>
</g>
</svg>
