<?xml version="1.0" encoding="UTF-8" standalone="no"?>
<!DOCTYPE svg PUBLIC "-//W3C//DTD SVG 1.1//EN"
 "http://www.w3.org/Graphics/SVG/1.1/DTD/svg11.dtd">
<!-- Generated by graphviz version 9.0.0 (0)
 -->
<!-- Title: Bush::animate Pages: 1 -->
<!--zoomable 128 -->

<svg id="main" version="1.1" xmlns="http://www.w3.org/2000/svg" xmlns:xlink="http://www.w3.org/1999/xlink" xml:space="preserve" onload="init(evt)">
<style type="text/css"><![CDATA[
.node, .edge {opacity: 0.7;}
.node.selected, .edge.selected {opacity: 1;}
.edge:hover path { stroke: red; }
.edge:hover polygon { stroke: red; fill: red; }
]]></style>

<defs>
  <circle id="rim" cx="0" cy="0" r="7"/>
  <circle id="rim2" cx="0" cy="0" r="3.5"/>
  <g id="zoomPlus">
    <use xlink:href="#rim" fill="#404040"><set attributeName="fill" to="#808080" begin="zoomplus.mouseover" end="zoomplus.mouseout"/></use>
    <path d="M-4,0h8M0,-4v8" fill="none" stroke="white" stroke-width="1.5" pointer-events="none"/>
  </g>
  <g id="zoomMin">
    <use xlink:href="#rim" fill="#404040"><set attributeName="fill" to="#808080" begin="zoomminus.mouseover" end="zoomminus.mouseout"/></use>
    <path d="M-4,0h8" fill="none" stroke="white" stroke-width="1.5" pointer-events="none"/>
  </g>
  <g id="arrowUp" transform="translate(30 24)">
    <use xlink:href="#rim"/>
    <path pointer-events="none" fill="none" stroke="white" stroke-width="1.5" d="M0,-3.0v7 M-2.5,-0.5L0,-3.0L2.5,-0.5"/>
  </g>
  <g id="arrowRight" transform="rotate(90) translate(36 -43)">
    <use xlink:href="#rim"/>
    <path pointer-events="none" fill="none" stroke="white" stroke-width="1.5" d="M0,-3.0v7 M-2.5,-0.5L0,-3.0L2.5,-0.5"/>
  </g>
  <g id="arrowDown" transform="rotate(180) translate(-30 -48)">
    <use xlink:href="#rim"/>
    <path pointer-events="none" fill="none" stroke="white" stroke-width="1.5" d="M0,-3.0v7 M-2.5,-0.5L0,-3.0L2.5,-0.5"/>
  </g>
  <g id="arrowLeft" transform="rotate(270) translate(-36 17)">
    <use xlink:href="#rim"/>
    <path pointer-events="none" fill="none" stroke="white" stroke-width="1.5" d="M0,-3.0v7 M-2.5,-0.5L0,-3.0L2.5,-0.5"/>
  </g>
  <g id="resetDef">
    <use xlink:href="#rim2" fill="#404040"><set attributeName="fill" to="#808080" begin="reset.mouseover" end="reset.mouseout"/></use>
  </g>
</defs>
<script type="application/ecmascript">
var viewWidth = 599;
var viewHeight = 128;
var sectionId = 'dynsection-3';
</script>
<script type="application/ecmascript" xlink:href="../../svg.min.js"/>
<svg id="graph" class="graph">
<g id="viewport">
<title>Bush::animate</title>
<!-- Node1 -->
<g id="Node000001" class="node">
<title>Node1</title>
<g id="a_Node000001"><a xlink:title="Animates object.">
<polygon fill="#999999" stroke="#666666" points="116.5,-76.88 0,-76.88 0,-51.62 116.5,-51.62 116.5,-76.88"/>
<text text-anchor="middle" x="58.25" y="-59.58" font-family="Helvetica,sans-Serif" font-size="14.00">Bush::animate</text>
</a>
</g>
</g>
<!-- Node2 -->
<g id="Node000002" class="node">
<title>Node2</title>
<g id="a_Node000002"><a xlink:href="../../d1/db6/classEngine.html#a4fbdd2df29e30dd08de3c285cee8c128" target="_top" xlink:title="Instance getter.">
<polygon fill="white" stroke="#666666" points="343.25,-119.88 188.5,-119.88 188.5,-94.62 343.25,-94.62 343.25,-119.88"/>
<text text-anchor="middle" x="265.88" y="-102.58" font-family="Helvetica,sans-Serif" font-size="14.00">Engine::getInstance</text>
</a>
</g>
</g>
<!-- Node1&#45;&gt;Node2 -->
<g id="edge1_Node000001_Node000002" class="edge">
<title>Node1&#45;&gt;Node2</title>
<g id="a_edge1_Node000001_Node000002"><a xlink:title=" ">
<path fill="none" stroke="#63b8ff" stroke-width="2" d="M112.9,-77.36C125.84,-80.4 139.64,-83.53 152.5,-86.25 161.15,-88.08 170.18,-89.9 179.21,-91.67"/>
<polygon fill="#63b8ff" stroke="#63b8ff" stroke-width="2" points="178.48,-95.1 188.96,-93.56 179.81,-88.22 178.48,-95.1"/>
</a>
</g>
</g>
<!-- Node4 -->
<g id="Node000004" class="node">
<title>Node4</title>
<g id="a_Node000004"><a xlink:href="../../d1/db6/classEngine.html#a7882b3a1b96c425ea5692807e0765e9f" target="_top" xlink:title="Last frame duration getter.">
<polygon fill="white" stroke="#666666" points="379.25,-76.88 152.5,-76.88 152.5,-51.62 379.25,-51.62 379.25,-76.88"/>
<text text-anchor="middle" x="265.88" y="-59.58" font-family="Helvetica,sans-Serif" font-size="14.00">Engine::getLastFrameDuration</text>
</a>
</g>
</g>
<!-- Node1&#45;&gt;Node4 -->
<g id="edge3_Node000001_Node000004" class="edge">
<title>Node1&#45;&gt;Node4</title>
<g id="a_edge3_Node000001_Node000004"><a xlink:title=" ">
<path fill="none" stroke="#63b8ff" stroke-width="2" d="M116.8,-64.25C124.04,-64.25 131.66,-64.25 139.46,-64.25"/>
<polygon fill="#63b8ff" stroke="#63b8ff" stroke-width="2" points="139.25,-67.75 149.25,-64.25 139.25,-60.75 139.25,-67.75"/>
</a>
</g>
</g>
<!-- Node5 -->
<g id="Node000005" class="node">
<title>Node5</title>
<g id="a_Node000005"><a xlink:href="../../df/dd5/classBush.html#ad89287a274a2066a0263c6b6c2f0487d" target="_top" xlink:title=" ">
<polygon fill="white" stroke="#666666" points="332,-33.88 199.75,-33.88 199.75,-8.62 332,-8.62 332,-33.88"/>
<text text-anchor="middle" x="265.88" y="-16.57" font-family="Helvetica,sans-Serif" font-size="14.00">Bush::nextSprite</text>
</a>
</g>
</g>
<!-- Node1&#45;&gt;Node5 -->
<g id="edge4_Node000001_Node000005" class="edge">
<title>Node1&#45;&gt;Node5</title>
<g id="a_edge4_Node000001_Node000005"><a xlink:title=" ">
<path fill="none" stroke="#63b8ff" stroke-width="2" d="M112.9,-51.14C125.84,-48.1 139.64,-44.97 152.5,-42.25 163.62,-39.9 175.39,-37.55 186.97,-35.32"/>
<polygon fill="#63b8ff" stroke="#63b8ff" stroke-width="2" points="187.27,-38.82 196.43,-33.51 185.96,-31.95 187.27,-38.82"/>
</a>
</g>
</g>
<!-- Node3 -->
<g id="Node000003" class="node">
<title>Node3</title>
<g id="a_Node000003"><a xlink:href="../../d1/db6/classEngine.html#a8c98683b0a3aa28d8ab72a8bcd0d52f2" target="_top" xlink:title="Constructor.">
<polygon fill="white" stroke="#666666" points="563.62,-119.88 442.62,-119.88 442.62,-94.62 563.62,-94.62 563.62,-119.88"/>
<text text-anchor="middle" x="503.12" y="-102.58" font-family="Helvetica,sans-Serif" font-size="14.00">Engine::Engine</text>
</a>
</g>
</g>
<!-- Node2&#45;&gt;Node3 -->
<g id="edge2_Node000002_Node000003" class="edge">
<title>Node2&#45;&gt;Node3</title>
<g id="a_edge2_Node000002_Node000003"><a xlink:title=" ">
<path fill="none" stroke="#63b8ff" stroke-width="2" d="M343.58,-107.25C371.12,-107.25 402.08,-107.25 429.28,-107.25"/>
<polygon fill="#63b8ff" stroke="#63b8ff" stroke-width="2" points="429.27,-110.75 439.27,-107.25 429.27,-103.75 429.27,-110.75"/>
</a>
</g>
</g>
<!-- Node6 -->
<g id="Node000006" class="node">
<title>Node6</title>
<g id="a_Node000006"><a xlink:href="../../df/dd5/classBush.html#ae7848946a03efec0a43e3469ce46506e" target="_top" xlink:title=" ">
<polygon fill="white" stroke="#666666" points="591,-42.5 415.25,-42.5 415.25,0 591,0 591,-42.5"/>
<text text-anchor="start" x="423.25" y="-25.2" font-family="Helvetica,sans-Serif" font-size="14.00">Bush::getCurrentSprite</text>
<text text-anchor="middle" x="503.12" y="-7.95" font-family="Helvetica,sans-Serif" font-size="14.00">Rectangle</text>
</a>
</g>
</g>
<!-- Node5&#45;&gt;Node6 -->
<g id="edge5_Node000005_Node000006" class="edge">
<title>Node5&#45;&gt;Node6</title>
<g id="a_edge5_Node000005_Node000006"><a xlink:title=" ">
<path fill="none" stroke="#63b8ff" stroke-width="2" d="M332.41,-21.25C353.97,-21.25 378.46,-21.25 402,-21.25"/>
<polygon fill="#63b8ff" stroke="#63b8ff" stroke-width="2" points="401.93,-24.75 411.93,-21.25 401.93,-17.75 401.93,-24.75"/>
</a>
</g>
</g>
</g>
</svg>

<g id="navigator" transform="translate(0 0)" fill="#404254">
  <rect fill="#f2f5e9" fill-opacity="0.5" stroke="#606060" stroke-width=".5" x="0" y="0" width="60" height="60"/>
  <use id="zoomplus" xlink:href="#zoomPlus" x="17" y="9" onmousedown="handleZoom(evt,'in')"/>
  <use id="zoomminus" xlink:href="#zoomMin" x="42" y="9" onmousedown="handleZoom(evt,'out')"/>
  <use id="reset" xlink:href="#resetDef" x="30" y="36" onmousedown="handleReset()"/>
   <use id="arrowup" xlink:href="#arrowUp" x="0" y="0" onmousedown="handlePan(0,-1)"/>
  <use id="arrowright" xlink:href="#arrowRight" x="0" y="0" onmousedown="handlePan(1,0)"/>
  <use id="arrowdown" xlink:href="#arrowDown" x="0" y="0" onmousedown="handlePan(0,1)"/>
  <use id="arrowleft" xlink:href="#arrowLeft" x="0" y="0" onmousedown="handlePan(-1,0)"/>
</g>
<svg viewBox="0 0 15 15" width="100%" height="30px" preserveAspectRatio="xMaxYMin meet">
 <g id="arrow_out" transform="scale(0.3 0.3)">
  <a xlink:href="classBush_a435e5a6a66b3a1ae2fb2d3368a051033_cgraph_org.svg" target="_base">
   <rect id="button" ry="5" rx="5" y="6" x="6" height="38" width="38"
        fill="#f2f5e9" fill-opacity="0.5" stroke="#606060" stroke-width="1.0"/>
   <path id="arrow"
     d="M 11.500037,31.436501 C 11.940474,20.09759 22.043105,11.32322 32.158766,21.979434 L 37.068811,17.246167 C 37.068811,17.246167 37.088388,32 37.088388,32 L 22.160133,31.978069 C 22.160133,31.978069 26.997745,27.140456 26.997745,27.140456 C 18.528582,18.264221 13.291696,25.230495 11.500037,31.436501 z"
     style="fill:#404040;"/>
  </a>
 </g>
</svg>

<style type='text/css'>
<![CDATA[
[data-mouse-over-selected='false'] { opacity: 0.7; }
[data-mouse-over-selected='true']  { opacity: 1.0; }
]]>
</style>
<script type="application/ecmascript"><![CDATA[
document.addEventListener('DOMContentLoaded', (event) => {
  highlightEdges();
  highlightAdjacentNodes();
});
]]></script>
</svg>
