<?xml version="1.0" encoding="UTF-8" standalone="no"?>
<!DOCTYPE svg PUBLIC "-//W3C//DTD SVG 1.1//EN"
 "http://www.w3.org/Graphics/SVG/1.1/DTD/svg11.dtd">
<!-- Generated by graphviz version 9.0.0 (0)
 -->
<!-- Title: obstacle::LineSegment::draw Pages: 1 -->
<svg width="529pt" height="76pt"
 viewBox="0.00 0.00 529.25 76.25" xmlns="http://www.w3.org/2000/svg" xmlns:xlink="http://www.w3.org/1999/xlink">
<g id="graph0" class="graph" transform="scale(1 1) rotate(0) translate(4 72.25)">
<title>obstacle::LineSegment::draw</title>
<!-- Node1 -->
<g id="Node000001" class="node">
<title>Node1</title>
<g id="a_Node000001"><a xlink:title=" ">
<polygon fill="#999999" stroke="#666666" points="173.5,-54.88 0,-54.88 0,-12.38 173.5,-12.38 173.5,-54.88"/>
<text text-anchor="start" x="8" y="-37.58" font-family="Helvetica,sans-Serif" font-size="14.00">obstacle::LineSegment</text>
<text text-anchor="middle" x="86.75" y="-20.32" font-family="Helvetica,sans-Serif" font-size="14.00">::draw</text>
</a>
</g>
</g>
<!-- Node2 -->
<g id="Node000002" class="node">
<title>Node2</title>
<g id="a_Node000002"><a xlink:href="../../d1/db6/classEngine.html#a4fbdd2df29e30dd08de3c285cee8c128" target="_top" xlink:title="Instance getter.">
<polygon fill="white" stroke="#666666" points="364.25,-68.25 209.5,-68.25 209.5,-43 364.25,-43 364.25,-68.25"/>
<text text-anchor="middle" x="286.88" y="-50.95" font-family="Helvetica,sans-Serif" font-size="14.00">Engine::getInstance</text>
</a>
</g>
</g>
<!-- Node1&#45;&gt;Node2 -->
<g id="edge1_Node000001_Node000002" class="edge">
<title>Node1&#45;&gt;Node2</title>
<g id="a_edge1_Node000001_Node000002"><a xlink:title=" ">
<path fill="none" stroke="#63b8ff" stroke-width="2" d="M173.79,-43.18C181.25,-44.01 188.82,-44.85 196.32,-45.68"/>
<polygon fill="#63b8ff" stroke="#63b8ff" stroke-width="2" points="195.92,-49.16 206.25,-46.78 196.69,-42.2 195.92,-49.16"/>
</a>
</g>
</g>
<!-- Node4 -->
<g id="Node000004" class="node">
<title>Node4</title>
<g id="a_Node000004"><a xlink:href="../../d1/db6/classEngine.html#a19fa907d344031a4a1ff74e705d65c06" target="_top" xlink:title="Window getter.">
<polygon fill="white" stroke="#666666" points="362,-25.25 211.75,-25.25 211.75,0 362,0 362,-25.25"/>
<text text-anchor="middle" x="286.88" y="-7.95" font-family="Helvetica,sans-Serif" font-size="14.00">Engine::getWindow</text>
</a>
</g>
</g>
<!-- Node1&#45;&gt;Node4 -->
<g id="edge3_Node000001_Node000004" class="edge">
<title>Node1&#45;&gt;Node4</title>
<g id="a_edge3_Node000001_Node000004"><a xlink:title=" ">
<path fill="none" stroke="#63b8ff" stroke-width="2" d="M173.79,-24.51C182.01,-23.63 190.36,-22.75 198.59,-21.88"/>
<polygon fill="#63b8ff" stroke="#63b8ff" stroke-width="2" points="198.82,-25.37 208.4,-20.84 198.09,-18.41 198.82,-25.37"/>
</a>
</g>
</g>
<!-- Node3 -->
<g id="Node000003" class="node">
<title>Node3</title>
<g id="a_Node000003"><a xlink:href="../../d1/db6/classEngine.html#a8c98683b0a3aa28d8ab72a8bcd0d52f2" target="_top" xlink:title="Constructor.">
<polygon fill="white" stroke="#666666" points="521.25,-68.25 400.25,-68.25 400.25,-43 521.25,-43 521.25,-68.25"/>
<text text-anchor="middle" x="460.75" y="-50.95" font-family="Helvetica,sans-Serif" font-size="14.00">Engine::Engine</text>
</a>
</g>
</g>
<!-- Node2&#45;&gt;Node3 -->
<g id="edge2_Node000002_Node000003" class="edge">
<title>Node2&#45;&gt;Node3</title>
<g id="a_edge2_Node000002_Node000003"><a xlink:title=" ">
<path fill="none" stroke="#63b8ff" stroke-width="2" d="M364.51,-55.62C371.99,-55.62 379.56,-55.62 387,-55.62"/>
<polygon fill="#63b8ff" stroke="#63b8ff" stroke-width="2" points="386.74,-59.13 396.74,-55.63 386.74,-52.13 386.74,-59.13"/>
</a>
</g>
</g>
</g>
</svg>
