<?xml version="1.0" encoding="UTF-8" standalone="no"?>
<!DOCTYPE svg PUBLIC "-//W3C//DTD SVG 1.1//EN"
 "http://www.w3.org/Graphics/SVG/1.1/DTD/svg11.dtd">
<!-- Generated by graphviz version 9.0.0 (0)
 -->
<!-- Title: GameObject.cpp Pages: 1 -->
<svg width="404pt" height="217pt"
 viewBox="0.00 0.00 404.25 217.00" xmlns="http://www.w3.org/2000/svg" xmlns:xlink="http://www.w3.org/1999/xlink">

<svg id="main" version="1.1" xmlns="http://www.w3.org/2000/svg" xmlns:xlink="http://www.w3.org/1999/xlink" xml:space="preserve" onload="init(evt)">
<style type="text/css"><![CDATA[
.node, .edge {opacity: 0.7;}
.node.selected, .edge.selected {opacity: 1;}
.edge:hover path { stroke: red; }
.edge:hover polygon { stroke: red; fill: red; }
]]></style>
<script type="application/ecmascript" xlink:href="../../svg.min.js"/>
<svg id="graph" class="graph">
<g id="graph0" class="graph" transform="scale(1 1) rotate(0) translate(4 213)">
<title>GameObject.cpp</title>
<!-- Node1 -->
<g id="Node000001" class="node">
<title>Node1</title>
<g id="a_Node000001"><a xlink:title=" ">
<polygon fill="#999999" stroke="#666666" points="357.75,-209 226.25,-209 226.25,-183.75 357.75,-183.75 357.75,-209"/>
<text text-anchor="middle" x="292" y="-191.7" font-family="Helvetica,sans-Serif" font-size="14.00">GameObject.cpp</text>
</a>
</g>
</g>
<!-- Node2 -->
<g id="Node000002" class="node">
<title>Node2</title>
<g id="a_Node000002"><a xlink:href="../../d4/db5/GameObject_8hpp.html" target="_top" xlink:title=" ">
<polygon fill="white" stroke="#666666" points="263.5,-147.75 130.5,-147.75 130.5,-122.5 263.5,-122.5 263.5,-147.75"/>
<text text-anchor="middle" x="197" y="-130.45" font-family="Helvetica,sans-Serif" font-size="14.00">GameObject.hpp</text>
</a>
</g>
</g>
<!-- Node1&#45;&gt;Node2 -->
<g id="edge1_Node000001_Node000002" class="edge">
<title>Node1&#45;&gt;Node2</title>
<g id="a_edge1_Node000001_Node000002"><a xlink:title=" ">
<path fill="none" stroke="#63b8ff" stroke-width="2" d="M272.78,-183.38C259.64,-175.19 241.97,-164.17 227,-154.84"/>
<polygon fill="#63b8ff" stroke="#63b8ff" stroke-width="2" points="229.1,-152.02 218.76,-149.7 225.4,-157.96 229.1,-152.02"/>
</a>
</g>
</g>
<!-- Node4 -->
<g id="Node000004" class="node">
<title>Node4</title>
<g id="a_Node000004"><a xlink:href="../../d9/d03/point2d_8hpp.html" target="_top" xlink:title=" ">
<polygon fill="#fff0f0" stroke="red" points="338.38,-86.5 237.62,-86.5 237.62,-61.25 338.38,-61.25 338.38,-86.5"/>
<text text-anchor="middle" x="288" y="-69.2" font-family="Helvetica,sans-Serif" font-size="14.00">point2d.hpp</text>
</a>
</g>
</g>
<!-- Node1&#45;&gt;Node4 -->
<g id="edge7_Node000001_Node000004" class="edge">
<title>Node1&#45;&gt;Node4</title>
<g id="a_edge7_Node000001_Node000004"><a xlink:title=" ">
<path fill="none" stroke="#63b8ff" stroke-width="2" d="M291.6,-183.38C290.96,-163.98 289.67,-125.32 288.83,-99.78"/>
<polygon fill="#63b8ff" stroke="#63b8ff" stroke-width="2" points="292.33,-99.72 288.5,-89.85 285.33,-99.96 292.33,-99.72"/>
</a>
</g>
</g>
<!-- Node7 -->
<g id="Node000007" class="node">
<title>Node7</title>
<g id="a_Node000007"><a xlink:href="../../d4/d3d/log_8hpp.html" target="_top" xlink:title=" ">
<polygon fill="white" stroke="#666666" points="396.25,-147.75 327.75,-147.75 327.75,-122.5 396.25,-122.5 396.25,-147.75"/>
<text text-anchor="middle" x="362" y="-130.45" font-family="Helvetica,sans-Serif" font-size="14.00">log.hpp</text>
</a>
</g>
</g>
<!-- Node1&#45;&gt;Node7 -->
<g id="edge5_Node000001_Node000007" class="edge">
<title>Node1&#45;&gt;Node7</title>
<g id="a_edge5_Node000001_Node000007"><a xlink:title=" ">
<path fill="none" stroke="#63b8ff" stroke-width="2" d="M306.17,-183.38C315.27,-175.68 327.34,-165.46 337.93,-156.5"/>
<polygon fill="#63b8ff" stroke="#63b8ff" stroke-width="2" points="340.17,-159.19 345.54,-150.05 335.65,-153.84 340.17,-159.19"/>
</a>
</g>
</g>
<!-- Node3 -->
<g id="Node000003" class="node">
<title>Node3</title>
<g id="a_Node000003"><a xlink:title=" ">
<polygon fill="#e0e0e0" stroke="#999999" points="220,-86.5 0,-86.5 0,-61.25 220,-61.25 220,-86.5"/>
<text text-anchor="middle" x="110" y="-69.2" font-family="Helvetica,sans-Serif" font-size="14.00">SFML/Graphics/Drawable.hpp</text>
</a>
</g>
</g>
<!-- Node2&#45;&gt;Node3 -->
<g id="edge2_Node000002_Node000003" class="edge">
<title>Node2&#45;&gt;Node3</title>
<g id="a_edge2_Node000002_Node000003"><a xlink:title=" ">
<path fill="none" stroke="#63b8ff" stroke-width="2" d="M179.39,-122.13C167.6,-114.1 151.82,-103.35 138.28,-94.14"/>
<polygon fill="#63b8ff" stroke="#63b8ff" stroke-width="2" points="140.32,-91.29 130.08,-88.55 136.38,-97.07 140.32,-91.29"/>
</a>
</g>
</g>
<!-- Node2&#45;&gt;Node4 -->
<g id="edge3_Node000002_Node000004" class="edge">
<title>Node2&#45;&gt;Node4</title>
<g id="a_edge3_Node000002_Node000004"><a xlink:title=" ">
<path fill="none" stroke="#63b8ff" stroke-width="2" d="M215.42,-122.13C227.87,-114.02 244.59,-103.14 258.84,-93.86"/>
<polygon fill="#63b8ff" stroke="#63b8ff" stroke-width="2" points="260.6,-96.89 267.08,-88.5 256.79,-91.02 260.6,-96.89"/>
</a>
</g>
</g>
<!-- Node6 -->
<g id="Node000006" class="node">
<title>Node6</title>
<g id="a_Node000006"><a xlink:title=" ">
<polygon fill="#e0e0e0" stroke="#999999" points="363.12,-25.25 290.88,-25.25 290.88,0 363.12,0 363.12,-25.25"/>
<text text-anchor="middle" x="327" y="-7.95" font-family="Helvetica,sans-Serif" font-size="14.00">ostream</text>
</a>
</g>
</g>
<!-- Node4&#45;&gt;Node6 -->
<g id="edge4_Node000004_Node000006" class="edge">
<title>Node4&#45;&gt;Node6</title>
<g id="a_edge4_Node000004_Node000006"><a xlink:title=" ">
<path fill="none" stroke="#63b8ff" stroke-width="2" d="M295.89,-60.88C300.54,-53.82 306.58,-44.65 312.1,-36.26"/>
<polygon fill="#63b8ff" stroke="#63b8ff" stroke-width="2" points="314.88,-38.4 317.46,-28.13 309.03,-34.55 314.88,-38.4"/>
</a>
</g>
</g>
<!-- Node7&#45;&gt;Node6 -->
<g id="edge6_Node000007_Node000006" class="edge">
<title>Node7&#45;&gt;Node6</title>
<g id="a_edge6_Node000007_Node000006"><a xlink:title=" ">
<path fill="none" stroke="#63b8ff" stroke-width="2" d="M360.26,-122.08C357.98,-107.48 353.5,-82.23 347,-61.25 344.52,-53.24 341.18,-44.72 337.94,-37.14"/>
<polygon fill="#63b8ff" stroke="#63b8ff" stroke-width="2" points="341.26,-35.99 333.99,-28.28 334.87,-38.84 341.26,-35.99"/>
</a>
</g>
</g>
</g>
</svg>
</svg>

<style type='text/css'>
<![CDATA[
[data-mouse-over-selected='false'] { opacity: 0.7; }
[data-mouse-over-selected='true']  { opacity: 1.0; }
]]>
</style>
<script type="application/ecmascript"><![CDATA[
document.addEventListener('DOMContentLoaded', (event) => {
  highlightEdges();
  highlightAdjacentNodes();
});
]]></script>
</svg>
