<?xml version="1.0" encoding="UTF-8" standalone="no"?>
<!DOCTYPE svg PUBLIC "-//W3C//DTD SVG 1.1//EN"
 "http://www.w3.org/Graphics/SVG/1.1/DTD/svg11.dtd">
<!-- Generated by graphviz version 9.0.0 (0)
 -->
<!-- Title: engine.hpp Pages: 1 -->
<!--zoomable 278 -->

<svg id="main" version="1.1" xmlns="http://www.w3.org/2000/svg" xmlns:xlink="http://www.w3.org/1999/xlink" xml:space="preserve" onload="init(evt)">
<style type="text/css"><![CDATA[
.node, .edge {opacity: 0.7;}
.node.selected, .edge.selected {opacity: 1;}
.edge:hover path { stroke: red; }
.edge:hover polygon { stroke: red; fill: red; }
]]></style>

<defs>
  <circle id="rim" cx="0" cy="0" r="7"/>
  <circle id="rim2" cx="0" cy="0" r="3.5"/>
  <g id="zoomPlus">
    <use xlink:href="#rim" fill="#404040"><set attributeName="fill" to="#808080" begin="zoomplus.mouseover" end="zoomplus.mouseout"/></use>
    <path d="M-4,0h8M0,-4v8" fill="none" stroke="white" stroke-width="1.5" pointer-events="none"/>
  </g>
  <g id="zoomMin">
    <use xlink:href="#rim" fill="#404040"><set attributeName="fill" to="#808080" begin="zoomminus.mouseover" end="zoomminus.mouseout"/></use>
    <path d="M-4,0h8" fill="none" stroke="white" stroke-width="1.5" pointer-events="none"/>
  </g>
  <g id="arrowUp" transform="translate(30 24)">
    <use xlink:href="#rim"/>
    <path pointer-events="none" fill="none" stroke="white" stroke-width="1.5" d="M0,-3.0v7 M-2.5,-0.5L0,-3.0L2.5,-0.5"/>
  </g>
  <g id="arrowRight" transform="rotate(90) translate(36 -43)">
    <use xlink:href="#rim"/>
    <path pointer-events="none" fill="none" stroke="white" stroke-width="1.5" d="M0,-3.0v7 M-2.5,-0.5L0,-3.0L2.5,-0.5"/>
  </g>
  <g id="arrowDown" transform="rotate(180) translate(-30 -48)">
    <use xlink:href="#rim"/>
    <path pointer-events="none" fill="none" stroke="white" stroke-width="1.5" d="M0,-3.0v7 M-2.5,-0.5L0,-3.0L2.5,-0.5"/>
  </g>
  <g id="arrowLeft" transform="rotate(270) translate(-36 17)">
    <use xlink:href="#rim"/>
    <path pointer-events="none" fill="none" stroke="white" stroke-width="1.5" d="M0,-3.0v7 M-2.5,-0.5L0,-3.0L2.5,-0.5"/>
  </g>
  <g id="resetDef">
    <use xlink:href="#rim2" fill="#404040"><set attributeName="fill" to="#808080" begin="reset.mouseover" end="reset.mouseout"/></use>
  </g>
</defs>
<script type="application/ecmascript">
var viewWidth = 2063;
var viewHeight = 278;
var sectionId = 'dynsection-0';
</script>
<script type="application/ecmascript" xlink:href="../../svg.min.js"/>
<svg id="graph" class="graph">
<g id="viewport">
<title>engine.hpp</title>
<!-- Node1 -->
<g id="Node000001" class="node">
<title>Node1</title>
<g id="a_Node000001"><a xlink:title=" ">
<polygon fill="#999999" stroke="#666666" points="1152.5,-270.25 1057.75,-270.25 1057.75,-245 1152.5,-245 1152.5,-270.25"/>
<text text-anchor="middle" x="1105.12" y="-252.95" font-family="Helvetica,sans-Serif" font-size="14.00">engine.hpp</text>
</a>
</g>
</g>
<!-- Node2 -->
<g id="Node000002" class="node">
<title>Node2</title>
<g id="a_Node000002"><a xlink:title=" ">
<polygon fill="#e0e0e0" stroke="#999999" points="258.25,-209 0,-209 0,-183.75 258.25,-183.75 258.25,-209"/>
<text text-anchor="middle" x="129.12" y="-191.7" font-family="Helvetica,sans-Serif" font-size="14.00">SFML/Graphics/RenderWindow.hpp</text>
</a>
</g>
</g>
<!-- Node1&#45;&gt;Node2 -->
<g id="edge1_Node000001_Node000002" class="edge">
<title>Node1&#45;&gt;Node2</title>
<g id="a_edge1_Node000001_Node000002"><a xlink:title=" ">
<path fill="none" stroke="#63b8ff" stroke-width="2" d="M1057.38,-254.37C931.09,-248.3 577.5,-230.68 271.11,-209.27"/>
<polygon fill="#63b8ff" stroke="#63b8ff" stroke-width="2" points="271.64,-205.79 261.42,-208.58 271.15,-212.78 271.64,-205.79"/>
</a>
</g>
</g>
<!-- Node3 -->
<g id="Node000003" class="node">
<title>Node3</title>
<g id="a_Node000003"><a xlink:title=" ">
<polygon fill="#e0e0e0" stroke="#999999" points="474.25,-209 276,-209 276,-183.75 474.25,-183.75 474.25,-209"/>
<text text-anchor="middle" x="375.12" y="-191.7" font-family="Helvetica,sans-Serif" font-size="14.00">SFML/Graphics/Shape.hpp</text>
</a>
</g>
</g>
<!-- Node1&#45;&gt;Node3 -->
<g id="edge2_Node000001_Node000003" class="edge">
<title>Node1&#45;&gt;Node3</title>
<g id="a_edge2_Node000001_Node000003"><a xlink:title=" ">
<path fill="none" stroke="#63b8ff" stroke-width="2" d="M1057.48,-253.48C955.24,-246.62 706.9,-229.39 487.32,-209.36"/>
<polygon fill="#63b8ff" stroke="#63b8ff" stroke-width="2" points="487.86,-205.9 477.58,-208.47 487.22,-212.87 487.86,-205.9"/>
</a>
</g>
</g>
<!-- Node4 -->
<g id="Node000004" class="node">
<title>Node4</title>
<g id="a_Node000004"><a xlink:title=" ">
<polygon fill="#e0e0e0" stroke="#999999" points="674.38,-209 491.88,-209 491.88,-183.75 674.38,-183.75 674.38,-209"/>
<text text-anchor="middle" x="583.12" y="-191.7" font-family="Helvetica,sans-Serif" font-size="14.00">SFML/System/Clock.hpp</text>
</a>
</g>
</g>
<!-- Node1&#45;&gt;Node4 -->
<g id="edge3_Node000001_Node000004" class="edge">
<title>Node1&#45;&gt;Node4</title>
<g id="a_edge3_Node000001_Node000004"><a xlink:title=" ">
<path fill="none" stroke="#63b8ff" stroke-width="2" d="M1057.45,-251.26C981.7,-242.74 828.81,-225.5 687.54,-209.39"/>
<polygon fill="#63b8ff" stroke="#63b8ff" stroke-width="2" points="688.12,-205.93 677.79,-208.28 687.33,-212.89 688.12,-205.93"/>
</a>
</g>
</g>
<!-- Node5 -->
<g id="Node000005" class="node">
<title>Node5</title>
<g id="a_Node000005"><a xlink:title=" ">
<polygon fill="#e0e0e0" stroke="#999999" points="871.5,-209 692.75,-209 692.75,-183.75 871.5,-183.75 871.5,-209"/>
<text text-anchor="middle" x="782.12" y="-191.7" font-family="Helvetica,sans-Serif" font-size="14.00">SFML/System/Time.hpp</text>
</a>
</g>
</g>
<!-- Node1&#45;&gt;Node5 -->
<g id="edge4_Node000001_Node000005" class="edge">
<title>Node1&#45;&gt;Node5</title>
<g id="a_edge4_Node000001_Node000005"><a xlink:title=" ">
<path fill="none" stroke="#63b8ff" stroke-width="2" d="M1057.47,-247.88C1005.78,-238.4 922.43,-223.11 860.96,-211.84"/>
<polygon fill="#63b8ff" stroke="#63b8ff" stroke-width="2" points="861.64,-208.4 851.18,-210.04 860.38,-215.29 861.64,-208.4"/>
</a>
</g>
</g>
<!-- Node6 -->
<g id="Node000006" class="node">
<title>Node6</title>
<g id="a_Node000006"><a xlink:title=" ">
<polygon fill="#e0e0e0" stroke="#999999" points="1077,-209 889.25,-209 889.25,-183.75 1077,-183.75 1077,-209"/>
<text text-anchor="middle" x="983.12" y="-191.7" font-family="Helvetica,sans-Serif" font-size="14.00">SFML/Window/Event.hpp</text>
</a>
</g>
</g>
<!-- Node1&#45;&gt;Node6 -->
<g id="edge5_Node000001_Node000006" class="edge">
<title>Node1&#45;&gt;Node6</title>
<g id="a_edge5_Node000001_Node000006"><a xlink:title=" ">
<path fill="none" stroke="#63b8ff" stroke-width="2" d="M1080.44,-244.63C1062.91,-236.12 1039.09,-224.55 1019.41,-214.99"/>
<polygon fill="#63b8ff" stroke="#63b8ff" stroke-width="2" points="1021.02,-211.89 1010.5,-210.67 1017.97,-218.19 1021.02,-211.89"/>
</a>
</g>
</g>
<!-- Node7 -->
<g id="Node000007" class="node">
<title>Node7</title>
<g id="a_Node000007"><a xlink:href="../../dc/d3e/animatedObject_8hpp.html" target="_top" xlink:title=" ">
<polygon fill="white" stroke="#666666" points="1576,-209 1418.25,-209 1418.25,-183.75 1576,-183.75 1576,-209"/>
<text text-anchor="middle" x="1497.12" y="-191.7" font-family="Helvetica,sans-Serif" font-size="14.00">animatedObject.hpp</text>
</a>
</g>
</g>
<!-- Node1&#45;&gt;Node7 -->
<g id="edge6_Node000001_Node000007" class="edge">
<title>Node1&#45;&gt;Node7</title>
<g id="a_edge6_Node000001_Node000007"><a xlink:title=" ">
<path fill="none" stroke="#63b8ff" stroke-width="2" d="M1152.8,-249.42C1215.36,-239.96 1326.47,-223.17 1405.54,-211.22"/>
<polygon fill="#63b8ff" stroke="#63b8ff" stroke-width="2" points="1405.59,-214.75 1414.96,-209.79 1404.54,-207.83 1405.59,-214.75"/>
</a>
</g>
</g>
<!-- Node9 -->
<g id="Node000009" class="node">
<title>Node9</title>
<g id="a_Node000009"><a xlink:title=" ">
<polygon fill="#e0e0e0" stroke="#999999" points="1655.12,-86.5 1435.12,-86.5 1435.12,-61.25 1655.12,-61.25 1655.12,-86.5"/>
<text text-anchor="middle" x="1545.12" y="-69.2" font-family="Helvetica,sans-Serif" font-size="14.00">SFML/Graphics/Drawable.hpp</text>
</a>
</g>
</g>
<!-- Node1&#45;&gt;Node9 -->
<g id="edge18_Node000001_Node000009" class="edge">
<title>Node1&#45;&gt;Node9</title>
<g id="a_edge18_Node000001_Node000009"><a xlink:title=" ">
<path fill="none" stroke="#63b8ff" stroke-width="2" d="M1108.55,-244.64C1117.32,-214.73 1141.42,-138.12 1162.12,-122.5 1202.12,-92.33 1326.07,-81.15 1422.25,-77.08"/>
<polygon fill="#63b8ff" stroke="#63b8ff" stroke-width="2" points="1422.15,-80.59 1432,-76.69 1421.87,-73.59 1422.15,-80.59"/>
</a>
</g>
</g>
<!-- Node10 -->
<g id="Node000010" class="node">
<title>Node10</title>
<g id="a_Node000010"><a xlink:href="../../d9/d03/point2d_8hpp.html" target="_top" xlink:title=" ">
<polygon fill="#fff0f0" stroke="red" points="1850.5,-86.5 1749.75,-86.5 1749.75,-61.25 1850.5,-61.25 1850.5,-86.5"/>
<text text-anchor="middle" x="1800.12" y="-69.2" font-family="Helvetica,sans-Serif" font-size="14.00">point2d.hpp</text>
</a>
</g>
</g>
<!-- Node1&#45;&gt;Node10 -->
<g id="edge17_Node000001_Node000010" class="edge">
<title>Node1&#45;&gt;Node10</title>
<g id="a_edge17_Node000001_Node000010"><a xlink:title=" ">
<path fill="none" stroke="#63b8ff" stroke-width="2" d="M1152.93,-253.33C1309.87,-242.03 1801.82,-202.44 1845.12,-147.75 1858.4,-130.99 1842.57,-110.07 1826.14,-94.95"/>
<polygon fill="#63b8ff" stroke="#63b8ff" stroke-width="2" points="1828.78,-92.6 1818.91,-88.76 1824.23,-97.92 1828.78,-92.6"/>
</a>
</g>
</g>
<!-- Node16 -->
<g id="Node000016" class="node">
<title>Node16</title>
<g id="a_Node000016"><a xlink:href="../../d4/d3d/log_8hpp.html" target="_top" xlink:title=" ">
<polygon fill="white" stroke="#666666" points="1263.38,-86.5 1194.88,-86.5 1194.88,-61.25 1263.38,-61.25 1263.38,-86.5"/>
<text text-anchor="middle" x="1229.12" y="-69.2" font-family="Helvetica,sans-Serif" font-size="14.00">log.hpp</text>
</a>
</g>
</g>
<!-- Node1&#45;&gt;Node16 -->
<g id="edge15_Node000001_Node000016" class="edge">
<title>Node1&#45;&gt;Node16</title>
<g id="a_edge15_Node000001_Node000016"><a xlink:title=" ">
<path fill="none" stroke="#63b8ff" stroke-width="2" d="M1103.89,-244.82C1101.9,-219.61 1100.72,-159.74 1129.12,-122.5 1142.3,-105.24 1163.3,-93.94 1182.67,-86.7"/>
<polygon fill="#63b8ff" stroke="#63b8ff" stroke-width="2" points="1183.53,-90.1 1191.88,-83.57 1181.29,-83.47 1183.53,-90.1"/>
</a>
</g>
</g>
<!-- Node17 -->
<g id="Node000017" class="node">
<title>Node17</title>
<g id="a_Node000017"><a xlink:title=" ">
<polygon fill="#e0e0e0" stroke="#999999" points="1999.62,-209 1914.62,-209 1914.62,-183.75 1999.62,-183.75 1999.62,-209"/>
<text text-anchor="middle" x="1957.12" y="-191.7" font-family="Helvetica,sans-Serif" font-size="14.00">functional</text>
</a>
</g>
</g>
<!-- Node1&#45;&gt;Node17 -->
<g id="edge19_Node000001_Node000017" class="edge">
<title>Node1&#45;&gt;Node17</title>
<g id="a_edge19_Node000001_Node000017"><a xlink:title=" ">
<path fill="none" stroke="#63b8ff" stroke-width="2" d="M1152.84,-256.11C1276.69,-254.28 1618.4,-245.98 1900.12,-209 1900.56,-208.94 1900.99,-208.89 1901.43,-208.83"/>
<polygon fill="#63b8ff" stroke="#63b8ff" stroke-width="2" points="1901.96,-212.28 1911.29,-207.26 1900.87,-205.37 1901.96,-212.28"/>
</a>
</g>
</g>
<!-- Node18 -->
<g id="Node000018" class="node">
<title>Node18</title>
<g id="a_Node000018"><a xlink:title=" ">
<polygon fill="#e0e0e0" stroke="#999999" points="2054.62,-209 2017.62,-209 2017.62,-183.75 2054.62,-183.75 2054.62,-209"/>
<text text-anchor="middle" x="2036.12" y="-191.7" font-family="Helvetica,sans-Serif" font-size="14.00">set</text>
</a>
</g>
</g>
<!-- Node1&#45;&gt;Node18 -->
<g id="edge20_Node000001_Node000018" class="edge">
<title>Node1&#45;&gt;Node18</title>
<g id="a_edge20_Node000001_Node000018"><a xlink:title=" ">
<path fill="none" stroke="#63b8ff" stroke-width="2" d="M1152.9,-256.32C1311.41,-254.99 1819.95,-247.92 2004.76,-209.27"/>
<polygon fill="#63b8ff" stroke="#63b8ff" stroke-width="2" points="2005.28,-212.74 2014.28,-207.15 2003.76,-205.91 2005.28,-212.74"/>
</a>
</g>
</g>
<!-- Node8 -->
<g id="Node000008" class="node">
<title>Node8</title>
<g id="a_Node000008"><a xlink:href="../../d4/db5/GameObject_8hpp.html" target="_top" xlink:title=" ">
<polygon fill="white" stroke="#666666" points="1819.62,-147.75 1686.62,-147.75 1686.62,-122.5 1819.62,-122.5 1819.62,-147.75"/>
<text text-anchor="middle" x="1753.12" y="-130.45" font-family="Helvetica,sans-Serif" font-size="14.00">GameObject.hpp</text>
</a>
</g>
</g>
<!-- Node7&#45;&gt;Node8 -->
<g id="edge7_Node000007_Node000008" class="edge">
<title>Node7&#45;&gt;Node8</title>
<g id="a_edge7_Node000007_Node000008"><a xlink:title=" ">
<path fill="none" stroke="#63b8ff" stroke-width="2" d="M1549.24,-183.31C1589.47,-174 1645.35,-161.07 1688.44,-151.1"/>
<polygon fill="#63b8ff" stroke="#63b8ff" stroke-width="2" points="1689.18,-154.52 1698.13,-148.85 1687.6,-147.7 1689.18,-154.52"/>
</a>
</g>
</g>
<!-- Node7&#45;&gt;Node10 -->
<g id="edge13_Node000007_Node000010" class="edge">
<title>Node7&#45;&gt;Node10</title>
<g id="a_edge13_Node000007_Node000010"><a xlink:title=" ">
<path fill="none" stroke="#63b8ff" stroke-width="2" d="M1576.49,-195.46C1664.12,-193.67 1797.09,-184.71 1829.12,-147.75 1841.81,-133.12 1831.45,-112.26 1819.74,-96.6"/>
<polygon fill="#63b8ff" stroke="#63b8ff" stroke-width="2" points="1822.64,-94.61 1813.6,-89.08 1817.21,-99.04 1822.64,-94.61"/>
</a>
</g>
</g>
<!-- Node13 -->
<g id="Node000013" class="node">
<title>Node13</title>
<g id="a_Node000013"><a xlink:title=" ">
<polygon fill="#e0e0e0" stroke="#999999" points="1668.12,-147.75 1472.12,-147.75 1472.12,-122.5 1668.12,-122.5 1668.12,-147.75"/>
<text text-anchor="middle" x="1570.12" y="-130.45" font-family="Helvetica,sans-Serif" font-size="14.00">SFML/Graphics/Sprite.hpp</text>
</a>
</g>
</g>
<!-- Node7&#45;&gt;Node13 -->
<g id="edge11_Node000007_Node000013" class="edge">
<title>Node7&#45;&gt;Node13</title>
<g id="a_edge11_Node000007_Node000013"><a xlink:title=" ">
<path fill="none" stroke="#63b8ff" stroke-width="2" d="M1511.9,-183.38C1521.5,-175.59 1534.24,-165.25 1545.37,-156.22"/>
<polygon fill="#63b8ff" stroke="#63b8ff" stroke-width="2" points="1547.47,-159.02 1553.02,-150 1543.05,-153.59 1547.47,-159.02"/>
</a>
</g>
</g>
<!-- Node14 -->
<g id="Node000014" class="node">
<title>Node14</title>
<g id="a_Node000014"><a xlink:title=" ">
<polygon fill="#e0e0e0" stroke="#999999" points="1376.62,-147.75 1171.62,-147.75 1171.62,-122.5 1376.62,-122.5 1376.62,-147.75"/>
<text text-anchor="middle" x="1274.12" y="-130.45" font-family="Helvetica,sans-Serif" font-size="14.00">SFML/Graphics/Texture.hpp</text>
</a>
</g>
</g>
<!-- Node7&#45;&gt;Node14 -->
<g id="edge12_Node000007_Node000014" class="edge">
<title>Node7&#45;&gt;Node14</title>
<g id="a_edge12_Node000007_Node000014"><a xlink:title=" ">
<path fill="none" stroke="#63b8ff" stroke-width="2" d="M1451.73,-183.31C1417.06,-174.1 1369.05,-161.35 1331.69,-151.42"/>
<polygon fill="#63b8ff" stroke="#63b8ff" stroke-width="2" points="1332.95,-148.13 1322.38,-148.95 1331.15,-154.9 1332.95,-148.13"/>
</a>
</g>
</g>
<!-- Node15 -->
<g id="Node000015" class="node">
<title>Node15</title>
<g id="a_Node000015"><a xlink:title=" ">
<polygon fill="#e0e0e0" stroke="#999999" points="1453.88,-147.75 1394.38,-147.75 1394.38,-122.5 1453.88,-122.5 1453.88,-147.75"/>
<text text-anchor="middle" x="1424.12" y="-130.45" font-family="Helvetica,sans-Serif" font-size="14.00">vector</text>
</a>
</g>
</g>
<!-- Node7&#45;&gt;Node15 -->
<g id="edge14_Node000007_Node000015" class="edge">
<title>Node7&#45;&gt;Node15</title>
<g id="a_edge14_Node000007_Node000015"><a xlink:title=" ">
<path fill="none" stroke="#63b8ff" stroke-width="2" d="M1482.35,-183.38C1472.75,-175.59 1460.01,-165.25 1448.88,-156.22"/>
<polygon fill="#63b8ff" stroke="#63b8ff" stroke-width="2" points="1451.2,-153.59 1441.23,-150 1446.78,-159.02 1451.2,-153.59"/>
</a>
</g>
</g>
<!-- Node8&#45;&gt;Node9 -->
<g id="edge8_Node000008_Node000009" class="edge">
<title>Node8&#45;&gt;Node9</title>
<g id="a_edge8_Node000008_Node000009"><a xlink:title=" ">
<path fill="none" stroke="#63b8ff" stroke-width="2" d="M1710.78,-122.06C1678.73,-112.93 1634.44,-100.32 1599.73,-90.43"/>
<polygon fill="#63b8ff" stroke="#63b8ff" stroke-width="2" points="1600.9,-87.12 1590.32,-87.75 1598.98,-93.85 1600.9,-87.12"/>
</a>
</g>
</g>
<!-- Node8&#45;&gt;Node10 -->
<g id="edge9_Node000008_Node000010" class="edge">
<title>Node8&#45;&gt;Node10</title>
<g id="a_edge9_Node000008_Node000010"><a xlink:title=" ">
<path fill="none" stroke="#63b8ff" stroke-width="2" d="M1762.64,-122.13C1768.37,-114.91 1775.85,-105.48 1782.62,-96.94"/>
<polygon fill="#63b8ff" stroke="#63b8ff" stroke-width="2" points="1785.27,-99.23 1788.75,-89.22 1779.79,-94.88 1785.27,-99.23"/>
</a>
</g>
</g>
<!-- Node12 -->
<g id="Node000012" class="node">
<title>Node12</title>
<g id="a_Node000012"><a xlink:title=" ">
<polygon fill="#e0e0e0" stroke="#999999" points="1435.25,-25.25 1363,-25.25 1363,0 1435.25,0 1435.25,-25.25"/>
<text text-anchor="middle" x="1399.12" y="-7.95" font-family="Helvetica,sans-Serif" font-size="14.00">ostream</text>
</a>
</g>
</g>
<!-- Node10&#45;&gt;Node12 -->
<g id="edge10_Node000010_Node000012" class="edge">
<title>Node10&#45;&gt;Node12</title>
<g id="a_edge10_Node000010_Node000012"><a xlink:title=" ">
<path fill="none" stroke="#63b8ff" stroke-width="2" d="M1749.34,-65.37C1671.74,-53.91 1524.63,-32.17 1448.12,-20.86"/>
<polygon fill="#63b8ff" stroke="#63b8ff" stroke-width="2" points="1448.98,-17.45 1438.57,-19.45 1447.95,-24.38 1448.98,-17.45"/>
</a>
</g>
</g>
<!-- Node16&#45;&gt;Node12 -->
<g id="edge16_Node000016_Node000012" class="edge">
<title>Node16&#45;&gt;Node12</title>
<g id="a_edge16_Node000016_Node000012"><a xlink:title=" ">
<path fill="none" stroke="#63b8ff" stroke-width="2" d="M1263.53,-60.88C1289.13,-51.96 1324.38,-39.68 1352.51,-29.87"/>
<polygon fill="#63b8ff" stroke="#63b8ff" stroke-width="2" points="1353.33,-33.29 1361.62,-26.7 1351.03,-26.68 1353.33,-33.29"/>
</a>
</g>
</g>
</g>
</svg>

<g id="navigator" transform="translate(0 0)" fill="#404254">
  <rect fill="#f2f5e9" fill-opacity="0.5" stroke="#606060" stroke-width=".5" x="0" y="0" width="60" height="60"/>
  <use id="zoomplus" xlink:href="#zoomPlus" x="17" y="9" onmousedown="handleZoom(evt,'in')"/>
  <use id="zoomminus" xlink:href="#zoomMin" x="42" y="9" onmousedown="handleZoom(evt,'out')"/>
  <use id="reset" xlink:href="#resetDef" x="30" y="36" onmousedown="handleReset()"/>
   <use id="arrowup" xlink:href="#arrowUp" x="0" y="0" onmousedown="handlePan(0,-1)"/>
  <use id="arrowright" xlink:href="#arrowRight" x="0" y="0" onmousedown="handlePan(1,0)"/>
  <use id="arrowdown" xlink:href="#arrowDown" x="0" y="0" onmousedown="handlePan(0,1)"/>
  <use id="arrowleft" xlink:href="#arrowLeft" x="0" y="0" onmousedown="handlePan(-1,0)"/>
</g>
<svg viewBox="0 0 15 15" width="100%" height="30px" preserveAspectRatio="xMaxYMin meet">
 <g id="arrow_out" transform="scale(0.3 0.3)">
  <a xlink:href="engine_8hpp__incl_org.svg" target="_base">
   <rect id="button" ry="5" rx="5" y="6" x="6" height="38" width="38"
        fill="#f2f5e9" fill-opacity="0.5" stroke="#606060" stroke-width="1.0"/>
   <path id="arrow"
     d="M 11.500037,31.436501 C 11.940474,20.09759 22.043105,11.32322 32.158766,21.979434 L 37.068811,17.246167 C 37.068811,17.246167 37.088388,32 37.088388,32 L 22.160133,31.978069 C 22.160133,31.978069 26.997745,27.140456 26.997745,27.140456 C 18.528582,18.264221 13.291696,25.230495 11.500037,31.436501 z"
     style="fill:#404040;"/>
  </a>
 </g>
</svg>

<style type='text/css'>
<![CDATA[
[data-mouse-over-selected='false'] { opacity: 0.7; }
[data-mouse-over-selected='true']  { opacity: 1.0; }
]]>
</style>
<script type="application/ecmascript"><![CDATA[
document.addEventListener('DOMContentLoaded', (event) => {
  highlightEdges();
  highlightAdjacentNodes();
});
]]></script>
</svg>
