<?xml version="1.0" encoding="UTF-8" standalone="no"?>
<!DOCTYPE svg PUBLIC "-//W3C//DTD SVG 1.1//EN"
 "http://www.w3.org/Graphics/SVG/1.1/DTD/svg11.dtd">
<!-- Generated by graphviz version 9.0.0 (0)
 -->
<!-- Title: player.hpp Pages: 1 -->
<svg width="1428pt" height="278pt"
 viewBox="0.00 0.00 1428.00 278.25" xmlns="http://www.w3.org/2000/svg" xmlns:xlink="http://www.w3.org/1999/xlink">
<g id="graph0" class="graph" transform="scale(1 1) rotate(0) translate(4 274.25)">
<title>player.hpp</title>
<!-- Node1 -->
<g id="Node000001" class="node">
<title>Node1</title>
<g id="a_Node000001"><a xlink:title=" ">
<polygon fill="#999999" stroke="#666666" points="867,-270.25 777.5,-270.25 777.5,-245 867,-245 867,-270.25"/>
<text text-anchor="middle" x="822.25" y="-252.95" font-family="Helvetica,sans-Serif" font-size="14.00">player.hpp</text>
</a>
</g>
</g>
<!-- Node2 -->
<g id="Node000002" class="node">
<title>Node2</title>
<g id="a_Node000002"><a xlink:href="../../d4/db5/GameObject_8hpp.html" target="_top" xlink:title=" ">
<polygon fill="white" stroke="#666666" points="262.75,-147.75 129.75,-147.75 129.75,-122.5 262.75,-122.5 262.75,-147.75"/>
<text text-anchor="middle" x="196.25" y="-130.45" font-family="Helvetica,sans-Serif" font-size="14.00">GameObject.hpp</text>
</a>
</g>
</g>
<!-- Node1&#45;&gt;Node2 -->
<g id="edge1_Node000001_Node000002" class="edge">
<title>Node1&#45;&gt;Node2</title>
<g id="a_edge1_Node000001_Node000002"><a xlink:title=" ">
<path fill="none" stroke="#63b8ff" stroke-width="2" d="M777.11,-254.59C700.59,-250.45 540.9,-238.75 409.25,-209 347.79,-195.11 279.28,-169.82 236.96,-152.99"/>
<polygon fill="#63b8ff" stroke="#63b8ff" stroke-width="2" points="238.36,-149.78 227.77,-149.3 235.74,-156.27 238.36,-149.78"/>
</a>
</g>
</g>
<!-- Node4 -->
<g id="Node000004" class="node">
<title>Node4</title>
<g id="a_Node000004"><a xlink:href="../../d9/d03/point2d_8hpp.html" target="_top" xlink:title=" ">
<polygon fill="#fff0f0" stroke="red" points="424.62,-86.5 323.88,-86.5 323.88,-61.25 424.62,-61.25 424.62,-86.5"/>
<text text-anchor="middle" x="374.25" y="-69.2" font-family="Helvetica,sans-Serif" font-size="14.00">point2d.hpp</text>
</a>
</g>
</g>
<!-- Node1&#45;&gt;Node4 -->
<g id="edge15_Node000001_Node000004" class="edge">
<title>Node1&#45;&gt;Node4</title>
<g id="a_edge15_Node000001_Node000004"><a xlink:title=" ">
<path fill="none" stroke="#63b8ff" stroke-width="2" d="M824.46,-244.89C829.69,-215.58 841.22,-140.25 825.25,-122.5 799.8,-94.22 555.76,-81.5 437.66,-76.96"/>
<polygon fill="#63b8ff" stroke="#63b8ff" stroke-width="2" points="438.08,-73.47 427.95,-76.6 437.82,-80.47 438.08,-73.47"/>
</a>
</g>
</g>
<!-- Node7 -->
<g id="Node000007" class="node">
<title>Node7</title>
<g id="a_Node000007"><a xlink:title=" ">
<polygon fill="#e0e0e0" stroke="#999999" points="1048.38,-209 850.12,-209 850.12,-183.75 1048.38,-183.75 1048.38,-209"/>
<text text-anchor="middle" x="949.25" y="-191.7" font-family="Helvetica,sans-Serif" font-size="14.00">SFML/Graphics/Shape.hpp</text>
</a>
</g>
</g>
<!-- Node1&#45;&gt;Node7 -->
<g id="edge5_Node000001_Node000007" class="edge">
<title>Node1&#45;&gt;Node7</title>
<g id="a_edge5_Node000001_Node000007"><a xlink:title=" ">
<path fill="none" stroke="#63b8ff" stroke-width="2" d="M847.95,-244.63C866.37,-236.04 891.46,-224.34 912.06,-214.72"/>
<polygon fill="#63b8ff" stroke="#63b8ff" stroke-width="2" points="913.26,-218.03 920.84,-210.63 910.3,-211.68 913.26,-218.03"/>
</a>
</g>
</g>
<!-- Node8 -->
<g id="Node000008" class="node">
<title>Node8</title>
<g id="a_Node000008"><a xlink:title=" ">
<polygon fill="#e0e0e0" stroke="#999999" points="816.25,-147.75 620.25,-147.75 620.25,-122.5 816.25,-122.5 816.25,-147.75"/>
<text text-anchor="middle" x="718.25" y="-130.45" font-family="Helvetica,sans-Serif" font-size="14.00">SFML/Graphics/Sprite.hpp</text>
</a>
</g>
</g>
<!-- Node1&#45;&gt;Node8 -->
<g id="edge6_Node000001_Node000008" class="edge">
<title>Node1&#45;&gt;Node8</title>
<g id="a_edge6_Node000001_Node000008"><a xlink:title=" ">
<path fill="none" stroke="#63b8ff" stroke-width="2" d="M811.9,-244.63C794.46,-224.42 758.97,-183.3 737.04,-157.89"/>
<polygon fill="#63b8ff" stroke="#63b8ff" stroke-width="2" points="739.72,-155.65 730.54,-150.36 734.42,-160.22 739.72,-155.65"/>
</a>
</g>
</g>
<!-- Node9 -->
<g id="Node000009" class="node">
<title>Node9</title>
<g id="a_Node000009"><a xlink:href="../../dc/d3e/animatedObject_8hpp.html" target="_top" xlink:title=" ">
<polygon fill="white" stroke="#666666" points="576.12,-209 418.38,-209 418.38,-183.75 576.12,-183.75 576.12,-209"/>
<text text-anchor="middle" x="497.25" y="-191.7" font-family="Helvetica,sans-Serif" font-size="14.00">animatedObject.hpp</text>
</a>
</g>
</g>
<!-- Node1&#45;&gt;Node9 -->
<g id="edge7_Node000001_Node000009" class="edge">
<title>Node1&#45;&gt;Node9</title>
<g id="a_edge7_Node000001_Node000009"><a xlink:title=" ">
<path fill="none" stroke="#63b8ff" stroke-width="2" d="M777.06,-248.39C725.25,-238.94 639.38,-223.29 576.41,-211.81"/>
<polygon fill="#63b8ff" stroke="#63b8ff" stroke-width="2" points="577.18,-208.39 566.71,-210.04 575.92,-215.28 577.18,-208.39"/>
</a>
</g>
</g>
<!-- Node12 -->
<g id="Node000012" class="node">
<title>Node12</title>
<g id="a_Node000012"><a xlink:href="../../d4/d3d/log_8hpp.html" target="_top" xlink:title=" ">
<polygon fill="white" stroke="#666666" points="68.5,-86.5 0,-86.5 0,-61.25 68.5,-61.25 68.5,-86.5"/>
<text text-anchor="middle" x="34.25" y="-69.2" font-family="Helvetica,sans-Serif" font-size="14.00">log.hpp</text>
</a>
</g>
</g>
<!-- Node1&#45;&gt;Node12 -->
<g id="edge13_Node000001_Node000012" class="edge">
<title>Node1&#45;&gt;Node12</title>
<g id="a_edge13_Node000001_Node000012"><a xlink:title=" ">
<path fill="none" stroke="#63b8ff" stroke-width="2" d="M777.34,-255.34C689.26,-252.17 488.01,-241.68 322.25,-209 230.21,-190.85 202.64,-192.62 120.25,-147.75 95.2,-134.11 70.8,-112.38 54.42,-96.19"/>
<polygon fill="#63b8ff" stroke="#63b8ff" stroke-width="2" points="56.97,-93.78 47.46,-89.11 51.98,-98.69 56.97,-93.78"/>
</a>
</g>
</g>
<!-- Node13 -->
<g id="Node000013" class="node">
<title>Node13</title>
<g id="a_Node000013"><a xlink:href="../../dd/d85/updateableObject_8hpp.html" target="_top" xlink:title=" ">
<polygon fill="white" stroke="#666666" points="1236.5,-209 1066,-209 1066,-183.75 1236.5,-183.75 1236.5,-209"/>
<text text-anchor="middle" x="1151.25" y="-191.7" font-family="Helvetica,sans-Serif" font-size="14.00">updateableObject.hpp</text>
</a>
</g>
</g>
<!-- Node1&#45;&gt;Node13 -->
<g id="edge16_Node000001_Node000013" class="edge">
<title>Node1&#45;&gt;Node13</title>
<g id="a_edge16_Node000001_Node000013"><a xlink:title=" ">
<path fill="none" stroke="#63b8ff" stroke-width="2" d="M867.31,-248.51C919.77,-239.06 1007.41,-223.28 1071.47,-211.74"/>
<polygon fill="#63b8ff" stroke="#63b8ff" stroke-width="2" points="1071.75,-215.25 1080.97,-210.03 1070.51,-208.36 1071.75,-215.25"/>
</a>
</g>
</g>
<!-- Node14 -->
<g id="Node000014" class="node">
<title>Node14</title>
<g id="a_Node000014"><a xlink:title=" ">
<polygon fill="#e0e0e0" stroke="#999999" points="1306.25,-209 1254.25,-209 1254.25,-183.75 1306.25,-183.75 1306.25,-209"/>
<text text-anchor="middle" x="1280.25" y="-191.7" font-family="Helvetica,sans-Serif" font-size="14.00">array</text>
</a>
</g>
</g>
<!-- Node1&#45;&gt;Node14 -->
<g id="edge17_Node000001_Node000014" class="edge">
<title>Node1&#45;&gt;Node14</title>
<g id="a_edge17_Node000001_Node000014"><a xlink:title=" ">
<path fill="none" stroke="#63b8ff" stroke-width="2" d="M867.21,-254.64C942.83,-250.65 1100.31,-239.49 1241.72,-209.41"/>
<polygon fill="#63b8ff" stroke="#63b8ff" stroke-width="2" points="1242.05,-212.92 1251.08,-207.38 1240.57,-206.08 1242.05,-212.92"/>
</a>
</g>
</g>
<!-- Node15 -->
<g id="Node000015" class="node">
<title>Node15</title>
<g id="a_Node000015"><a xlink:title=" ">
<polygon fill="#e0e0e0" stroke="#999999" points="1420,-209 1324.5,-209 1324.5,-183.75 1420,-183.75 1420,-209"/>
<text text-anchor="middle" x="1372.25" y="-191.7" font-family="Helvetica,sans-Serif" font-size="14.00">sys/types.h</text>
</a>
</g>
</g>
<!-- Node1&#45;&gt;Node15 -->
<g id="edge18_Node000001_Node000015" class="edge">
<title>Node1&#45;&gt;Node15</title>
<g id="a_edge18_Node000001_Node000015"><a xlink:title=" ">
<path fill="none" stroke="#63b8ff" stroke-width="2" d="M867.31,-253.86C952.14,-248.31 1141.58,-234.3 1311.4,-209.45"/>
<polygon fill="#63b8ff" stroke="#63b8ff" stroke-width="2" points="1311.74,-212.94 1321.12,-208.01 1310.71,-206.01 1311.74,-212.94"/>
</a>
</g>
</g>
<!-- Node3 -->
<g id="Node000003" class="node">
<title>Node3</title>
<g id="a_Node000003"><a xlink:title=" ">
<polygon fill="#e0e0e0" stroke="#999999" points="306.25,-86.5 86.25,-86.5 86.25,-61.25 306.25,-61.25 306.25,-86.5"/>
<text text-anchor="middle" x="196.25" y="-69.2" font-family="Helvetica,sans-Serif" font-size="14.00">SFML/Graphics/Drawable.hpp</text>
</a>
</g>
</g>
<!-- Node2&#45;&gt;Node3 -->
<g id="edge2_Node000002_Node000003" class="edge">
<title>Node2&#45;&gt;Node3</title>
<g id="a_edge2_Node000002_Node000003"><a xlink:title=" ">
<path fill="none" stroke="#63b8ff" stroke-width="2" d="M196.25,-122.13C196.25,-115.71 196.25,-107.55 196.25,-99.82"/>
<polygon fill="#63b8ff" stroke="#63b8ff" stroke-width="2" points="199.75,-99.87 196.25,-89.87 192.75,-99.87 199.75,-99.87"/>
</a>
</g>
</g>
<!-- Node2&#45;&gt;Node4 -->
<g id="edge3_Node000002_Node000004" class="edge">
<title>Node2&#45;&gt;Node4</title>
<g id="a_edge3_Node000002_Node000004"><a xlink:title=" ">
<path fill="none" stroke="#63b8ff" stroke-width="2" d="M232.27,-122.13C259.2,-113.17 296.31,-100.82 325.84,-90.99"/>
<polygon fill="#63b8ff" stroke="#63b8ff" stroke-width="2" points="326.72,-94.38 335.11,-87.9 324.51,-87.74 326.72,-94.38"/>
</a>
</g>
</g>
<!-- Node6 -->
<g id="Node000006" class="node">
<title>Node6</title>
<g id="a_Node000006"><a xlink:title=" ">
<polygon fill="#e0e0e0" stroke="#999999" points="240.38,-25.25 168.12,-25.25 168.12,0 240.38,0 240.38,-25.25"/>
<text text-anchor="middle" x="204.25" y="-7.95" font-family="Helvetica,sans-Serif" font-size="14.00">ostream</text>
</a>
</g>
</g>
<!-- Node4&#45;&gt;Node6 -->
<g id="edge4_Node000004_Node000006" class="edge">
<title>Node4&#45;&gt;Node6</title>
<g id="a_edge4_Node000004_Node000006"><a xlink:title=" ">
<path fill="none" stroke="#63b8ff" stroke-width="2" d="M339.85,-60.88C314.24,-51.96 279,-39.68 250.86,-29.87"/>
<polygon fill="#63b8ff" stroke="#63b8ff" stroke-width="2" points="252.35,-26.68 241.75,-26.7 250.04,-33.29 252.35,-26.68"/>
</a>
</g>
</g>
<!-- Node9&#45;&gt;Node2 -->
<g id="edge8_Node000009_Node000002" class="edge">
<title>Node9&#45;&gt;Node2</title>
<g id="a_edge8_Node000009_Node000002"><a xlink:title=" ">
<path fill="none" stroke="#63b8ff" stroke-width="2" d="M435.98,-183.31C388.04,-173.88 321.21,-160.72 270.28,-150.7"/>
<polygon fill="#63b8ff" stroke="#63b8ff" stroke-width="2" points="271.15,-147.3 260.67,-148.81 269.8,-154.17 271.15,-147.3"/>
</a>
</g>
</g>
<!-- Node9&#45;&gt;Node4 -->
<g id="edge11_Node000009_Node000004" class="edge">
<title>Node9&#45;&gt;Node4</title>
<g id="a_edge11_Node000009_Node000004"><a xlink:title=" ">
<path fill="none" stroke="#63b8ff" stroke-width="2" d="M417.94,-185.01C373.3,-177.37 323.84,-165.24 310.25,-147.75 295.4,-128.64 317.39,-108.02 339.54,-93.61"/>
<polygon fill="#63b8ff" stroke="#63b8ff" stroke-width="2" points="341.3,-96.64 348.02,-88.45 337.66,-90.66 341.3,-96.64"/>
</a>
</g>
</g>
<!-- Node9&#45;&gt;Node8 -->
<g id="edge9_Node000009_Node000008" class="edge">
<title>Node9&#45;&gt;Node8</title>
<g id="a_edge9_Node000009_Node000008"><a xlink:title=" ">
<path fill="none" stroke="#63b8ff" stroke-width="2" d="M542.24,-183.31C576.6,-174.1 624.18,-161.35 661.2,-151.42"/>
<polygon fill="#63b8ff" stroke="#63b8ff" stroke-width="2" points="661.65,-154.92 670.4,-148.95 659.83,-148.16 661.65,-154.92"/>
</a>
</g>
</g>
<!-- Node10 -->
<g id="Node000010" class="node">
<title>Node10</title>
<g id="a_Node000010"><a xlink:title=" ">
<polygon fill="#e0e0e0" stroke="#999999" points="524.75,-147.75 319.75,-147.75 319.75,-122.5 524.75,-122.5 524.75,-147.75"/>
<text text-anchor="middle" x="422.25" y="-130.45" font-family="Helvetica,sans-Serif" font-size="14.00">SFML/Graphics/Texture.hpp</text>
</a>
</g>
</g>
<!-- Node9&#45;&gt;Node10 -->
<g id="edge10_Node000009_Node000010" class="edge">
<title>Node9&#45;&gt;Node10</title>
<g id="a_edge10_Node000009_Node000010"><a xlink:title=" ">
<path fill="none" stroke="#63b8ff" stroke-width="2" d="M482.07,-183.38C472.11,-175.51 458.84,-165.03 447.33,-155.94"/>
<polygon fill="#63b8ff" stroke="#63b8ff" stroke-width="2" points="449.8,-153.43 439.78,-149.97 445.46,-158.92 449.8,-153.43"/>
</a>
</g>
</g>
<!-- Node11 -->
<g id="Node000011" class="node">
<title>Node11</title>
<g id="a_Node000011"><a xlink:title=" ">
<polygon fill="#e0e0e0" stroke="#999999" points="602,-147.75 542.5,-147.75 542.5,-122.5 602,-122.5 602,-147.75"/>
<text text-anchor="middle" x="572.25" y="-130.45" font-family="Helvetica,sans-Serif" font-size="14.00">vector</text>
</a>
</g>
</g>
<!-- Node9&#45;&gt;Node11 -->
<g id="edge12_Node000009_Node000011" class="edge">
<title>Node9&#45;&gt;Node11</title>
<g id="a_edge12_Node000009_Node000011"><a xlink:title=" ">
<path fill="none" stroke="#63b8ff" stroke-width="2" d="M512.43,-183.38C522.39,-175.51 535.66,-165.03 547.17,-155.94"/>
<polygon fill="#63b8ff" stroke="#63b8ff" stroke-width="2" points="549.04,-158.92 554.72,-149.97 544.7,-153.43 549.04,-158.92"/>
</a>
</g>
</g>
<!-- Node12&#45;&gt;Node6 -->
<g id="edge14_Node000012_Node000006" class="edge">
<title>Node12&#45;&gt;Node6</title>
<g id="a_edge14_Node000012_Node000006"><a xlink:title=" ">
<path fill="none" stroke="#63b8ff" stroke-width="2" d="M68.65,-60.88C94.26,-51.96 129.5,-39.68 157.64,-29.87"/>
<polygon fill="#63b8ff" stroke="#63b8ff" stroke-width="2" points="158.46,-33.29 166.75,-26.7 156.15,-26.68 158.46,-33.29"/>
</a>
</g>
</g>
</g>
</svg>
