<?xml version="1.0" encoding="UTF-8" standalone="no"?>
<!DOCTYPE svg PUBLIC "-//W3C//DTD SVG 1.1//EN"
 "http://www.w3.org/Graphics/SVG/1.1/DTD/svg11.dtd">
<!-- Generated by graphviz version 9.0.0 (0)
 -->
<!-- Title: bush.hpp Pages: 1 -->
<svg width="188pt" height="95pt"
 viewBox="0.00 0.00 187.50 94.50" xmlns="http://www.w3.org/2000/svg" xmlns:xlink="http://www.w3.org/1999/xlink">
<g id="graph0" class="graph" transform="scale(1 1) rotate(0) translate(4 90.5)">
<title>bush.hpp</title>
<!-- Node1 -->
<g id="Node000001" class="node">
<title>Node1</title>
<g id="a_Node000001"><a xlink:title=" ">
<polygon fill="#999999" stroke="#666666" points="130.25,-86.5 48.25,-86.5 48.25,-61.25 130.25,-61.25 130.25,-86.5"/>
<text text-anchor="middle" x="89.25" y="-69.2" font-family="Helvetica,sans-Serif" font-size="14.00">bush.hpp</text>
</a>
</g>
</g>
<!-- Node2 -->
<g id="Node000002" class="node">
<title>Node2</title>
<g id="a_Node000002"><a xlink:href="../../d4/d23/bush_8cpp.html" target="_top" xlink:title=" ">
<polygon fill="white" stroke="#666666" points="80.5,-25.25 0,-25.25 0,0 80.5,0 80.5,-25.25"/>
<text text-anchor="middle" x="40.25" y="-7.95" font-family="Helvetica,sans-Serif" font-size="14.00">bush.cpp</text>
</a>
</g>
</g>
<!-- Node1&#45;&gt;Node2 -->
<g id="edge1_Node000001_Node000002" class="edge">
<title>Node1&#45;&gt;Node2</title>
<g id="a_edge1_Node000001_Node000002"><a xlink:title=" ">
<path fill="none" stroke="#63b8ff" stroke-width="2" d="M71.22,-51.07C64.1,-42.46 56.19,-32.9 50.15,-25.6"/>
<polygon fill="#63b8ff" stroke="#63b8ff" stroke-width="2" points="68.33,-53.08 77.4,-58.55 73.73,-48.62 68.33,-53.08"/>
</a>
</g>
</g>
<!-- Node3 -->
<g id="Node000003" class="node">
<title>Node3</title>
<g id="a_Node000003"><a xlink:href="../../d0/d8d/test2_2main_8cpp.html" target="_top" xlink:title=" ">
<polygon fill="white" stroke="#666666" points="179.5,-25.25 99,-25.25 99,0 179.5,0 179.5,-25.25"/>
<text text-anchor="middle" x="139.25" y="-7.95" font-family="Helvetica,sans-Serif" font-size="14.00">main.cpp</text>
</a>
</g>
</g>
<!-- Node1&#45;&gt;Node3 -->
<g id="edge2_Node000001_Node000003" class="edge">
<title>Node1&#45;&gt;Node3</title>
<g id="a_edge2_Node000001_Node000003"><a xlink:title=" ">
<path fill="none" stroke="#63b8ff" stroke-width="2" d="M107.65,-51.07C114.92,-42.46 122.98,-32.9 129.15,-25.6"/>
<polygon fill="#63b8ff" stroke="#63b8ff" stroke-width="2" points="105.09,-48.67 101.32,-58.57 110.44,-53.19 105.09,-48.67"/>
</a>
</g>
</g>
</g>
</svg>
