<?xml version="1.0" encoding="UTF-8" standalone="no"?>
<!DOCTYPE svg PUBLIC "-//W3C//DTD SVG 1.1//EN"
 "http://www.w3.org/Graphics/SVG/1.1/DTD/svg11.dtd">
<!-- Generated by graphviz version 9.0.0 (0)
 -->
<!-- Title: GameObject Pages: 1 -->
<svg width="340pt" height="156pt"
 viewBox="0.00 0.00 339.62 155.75" xmlns="http://www.w3.org/2000/svg" xmlns:xlink="http://www.w3.org/1999/xlink">
<g id="graph0" class="graph" transform="scale(1 1) rotate(0) translate(4 151.75)">
<title>GameObject</title>
<!-- Node1 -->
<g id="Node000001" class="node">
<title>Node1</title>
<g id="a_Node000001"><a xlink:title="Game object class.">
<polygon fill="#999999" stroke="#666666" points="309.62,-147.75 208.12,-147.75 208.12,-122.5 309.62,-122.5 309.62,-147.75"/>
<text text-anchor="middle" x="258.88" y="-130.45" font-family="Helvetica,sans-Serif" font-size="14.00">GameObject</text>
</a>
</g>
</g>
<!-- Node2 -->
<g id="Node000002" class="node">
<title>Node2</title>
<g id="a_Node000002"><a xlink:href="../../d7/d98/classAnimatedObject.html" target="_top" xlink:title="Animated object class.">
<polygon fill="white" stroke="#666666" points="271.75,-86.5 144,-86.5 144,-61.25 271.75,-61.25 271.75,-86.5"/>
<text text-anchor="middle" x="207.88" y="-69.2" font-family="Helvetica,sans-Serif" font-size="14.00">AnimatedObject</text>
</a>
</g>
</g>
<!-- Node1&#45;&gt;Node2 -->
<g id="edge1_Node000001_Node000002" class="edge">
<title>Node1&#45;&gt;Node2</title>
<g id="a_edge1_Node000001_Node000002"><a xlink:title=" ">
<path fill="none" stroke="#63b8ff" stroke-width="2" d="M240.11,-112.32C232.7,-103.71 224.47,-94.15 218.18,-86.85"/>
<polygon fill="#63b8ff" stroke="#63b8ff" stroke-width="2" points="237.4,-114.54 246.58,-119.84 242.71,-109.98 237.4,-114.54"/>
</a>
</g>
</g>
<!-- Node8 -->
<g id="Node000008" class="node">
<title>Node8</title>
<g id="a_Node000008"><a xlink:href="../../dc/df0/classBall.html" target="_top" xlink:title=" ">
<polygon fill="white" stroke="#666666" points="331.62,-86.5 290.12,-86.5 290.12,-61.25 331.62,-61.25 331.62,-86.5"/>
<text text-anchor="middle" x="310.88" y="-69.2" font-family="Helvetica,sans-Serif" font-size="14.00">Ball</text>
</a>
</g>
</g>
<!-- Node1&#45;&gt;Node8 -->
<g id="edge5_Node000001_Node000008" class="edge">
<title>Node1&#45;&gt;Node8</title>
<g id="a_edge5_Node000001_Node000008"><a xlink:title=" ">
<path fill="none" stroke="#63b8ff" stroke-width="2" d="M277.76,-112.6C285.38,-103.92 293.89,-94.23 300.37,-86.85"/>
<polygon fill="#63b8ff" stroke="#63b8ff" stroke-width="2" points="275.36,-110.04 271.39,-119.86 280.62,-114.65 275.36,-110.04"/>
</a>
</g>
</g>
<!-- Node3 -->
<g id="Node000003" class="node">
<title>Node3</title>
<g id="a_Node000003"><a xlink:href="../../d4/dcd/classAnimatedSpriteSheet.html" target="_top" xlink:title=" ">
<polygon fill="#fff0f0" stroke="red" points="163.75,-25.25 0,-25.25 0,0 163.75,0 163.75,-25.25"/>
<text text-anchor="middle" x="81.88" y="-7.95" font-family="Helvetica,sans-Serif" font-size="14.00">AnimatedSpriteSheet</text>
</a>
</g>
</g>
<!-- Node2&#45;&gt;Node3 -->
<g id="edge2_Node000002_Node000003" class="edge">
<title>Node2&#45;&gt;Node3</title>
<g id="a_edge2_Node000002_Node000003"><a xlink:title=" ">
<path fill="none" stroke="#63b8ff" stroke-width="2" d="M170.65,-55.37C150.26,-45.78 125.51,-34.15 107.34,-25.6"/>
<polygon fill="#63b8ff" stroke="#63b8ff" stroke-width="2" points="169.1,-58.51 179.64,-59.6 172.08,-52.17 169.1,-58.51"/>
</a>
</g>
</g>
<!-- Node5 -->
<g id="Node000005" class="node">
<title>Node5</title>
<g id="a_Node000005"><a xlink:href="../../df/dd5/classBush.html" target="_top" xlink:title=" ">
<polygon fill="white" stroke="#666666" points="233.5,-25.25 182.25,-25.25 182.25,0 233.5,0 233.5,-25.25"/>
<text text-anchor="middle" x="207.88" y="-7.95" font-family="Helvetica,sans-Serif" font-size="14.00">Bush</text>
</a>
</g>
</g>
<!-- Node2&#45;&gt;Node5 -->
<g id="edge3_Node000002_Node000005" class="edge">
<title>Node2&#45;&gt;Node5</title>
<g id="a_edge3_Node000002_Node000005"><a xlink:title=" ">
<path fill="none" stroke="#63b8ff" stroke-width="2" d="M207.88,-47.91C207.88,-40.18 207.88,-32.02 207.88,-25.6"/>
<polygon fill="#63b8ff" stroke="#63b8ff" stroke-width="2" points="204.38,-47.86 207.88,-57.86 211.38,-47.86 204.38,-47.86"/>
</a>
</g>
</g>
<!-- Node6 -->
<g id="Node000006" class="node">
<title>Node6</title>
<g id="a_Node000006"><a xlink:href="../../d2/d4b/classPlayer.html" target="_top" xlink:title="Player class.">
<polygon fill="#fff0f0" stroke="red" points="310.25,-25.25 251.5,-25.25 251.5,0 310.25,0 310.25,-25.25"/>
<text text-anchor="middle" x="280.88" y="-7.95" font-family="Helvetica,sans-Serif" font-size="14.00">Player</text>
</a>
</g>
</g>
<!-- Node2&#45;&gt;Node6 -->
<g id="edge4_Node000002_Node000006" class="edge">
<title>Node2&#45;&gt;Node6</title>
<g id="a_edge4_Node000002_Node000006"><a xlink:title=" ">
<path fill="none" stroke="#63b8ff" stroke-width="2" d="M232.66,-52.76C243.78,-43.73 256.53,-33.38 266.12,-25.6"/>
<polygon fill="#63b8ff" stroke="#63b8ff" stroke-width="2" points="230.56,-49.96 225,-58.98 234.97,-55.39 230.56,-49.96"/>
</a>
</g>
</g>
</g>
</svg>
