<?xml version="1.0" encoding="UTF-8" standalone="no"?>
<!DOCTYPE svg PUBLIC "-//W3C//DTD SVG 1.1//EN"
 "http://www.w3.org/Graphics/SVG/1.1/DTD/svg11.dtd">
<!-- Generated by graphviz version 9.0.0 (0)
 -->
<!-- Title: Player Pages: 1 -->
<svg width="389pt" height="217pt"
 viewBox="0.00 0.00 389.00 217.00" xmlns="http://www.w3.org/2000/svg" xmlns:xlink="http://www.w3.org/1999/xlink">

<svg id="main" version="1.1" xmlns="http://www.w3.org/2000/svg" xmlns:xlink="http://www.w3.org/1999/xlink" xml:space="preserve" onload="init(evt)">
<style type="text/css"><![CDATA[
.node, .edge {opacity: 0.7;}
.node.selected, .edge.selected {opacity: 1;}
.edge:hover path { stroke: red; }
.edge:hover polygon { stroke: red; fill: red; }
]]></style>
<script type="application/ecmascript" xlink:href="../../svg.min.js"/>
<svg id="graph" class="graph">
<g id="graph0" class="graph" transform="scale(1 1) rotate(0) translate(4 213)">
<title>Player</title>
<!-- Node1 -->
<g id="Node000001" class="node">
<title>Node1</title>
<g id="a_Node000001"><a xlink:title="Player class.">
<polygon fill="#999999" stroke="#666666" points="264.12,-86.5 205.38,-86.5 205.38,-61.25 264.12,-61.25 264.12,-86.5"/>
<text text-anchor="middle" x="234.75" y="-69.2" font-family="Helvetica,sans-Serif" font-size="14.00">Player</text>
</a>
</g>
</g>
<!-- Node7 -->
<g id="Node000007" class="node">
<title>Node7</title>
<g id="a_Node000007"><a xlink:href="../../df/d0d/classGamePlayer.html" target="_top" xlink:title=" ">
<polygon fill="white" stroke="#666666" points="284.38,-25.25 185.12,-25.25 185.12,0 284.38,0 284.38,-25.25"/>
<text text-anchor="middle" x="234.75" y="-7.95" font-family="Helvetica,sans-Serif" font-size="14.00">GamePlayer</text>
</a>
</g>
</g>
<!-- Node1&#45;&gt;Node7 -->
<g id="edge6_Node000001_Node000007" class="edge">
<title>Node1&#45;&gt;Node7</title>
<g id="a_edge6_Node000001_Node000007"><a xlink:title=" ">
<path fill="none" stroke="#63b8ff" stroke-width="2" d="M234.75,-47.91C234.75,-40.18 234.75,-32.02 234.75,-25.6"/>
<polygon fill="#63b8ff" stroke="#63b8ff" stroke-width="2" points="231.25,-47.86 234.75,-57.86 238.25,-47.86 231.25,-47.86"/>
</a>
</g>
</g>
<!-- Node2 -->
<g id="Node000002" class="node">
<title>Node2</title>
<g id="a_Node000002"><a xlink:href="../../d7/d98/classAnimatedObject.html" target="_top" xlink:title="Animated object class.">
<polygon fill="white" stroke="#666666" points="222.62,-147.75 94.88,-147.75 94.88,-122.5 222.62,-122.5 222.62,-147.75"/>
<text text-anchor="middle" x="158.75" y="-130.45" font-family="Helvetica,sans-Serif" font-size="14.00">AnimatedObject</text>
</a>
</g>
</g>
<!-- Node2&#45;&gt;Node1 -->
<g id="edge1_Node000001_Node000002" class="edge">
<title>Node2&#45;&gt;Node1</title>
<g id="a_edge1_Node000001_Node000002"><a xlink:title=" ">
<path fill="none" stroke="#63b8ff" stroke-width="2" d="M184.2,-114.29C195.86,-105.19 209.3,-94.71 219.39,-86.85"/>
<polygon fill="#63b8ff" stroke="#63b8ff" stroke-width="2" points="182.25,-111.37 176.52,-120.27 186.56,-116.89 182.25,-111.37"/>
</a>
</g>
</g>
<!-- Node3 -->
<g id="Node000003" class="node">
<title>Node3</title>
<g id="a_Node000003"><a xlink:href="../../de/d1c/classGameObject.html" target="_top" xlink:title="Game object class.">
<polygon fill="white" stroke="#666666" points="101.5,-209 0,-209 0,-183.75 101.5,-183.75 101.5,-209"/>
<text text-anchor="middle" x="50.75" y="-191.7" font-family="Helvetica,sans-Serif" font-size="14.00">GameObject</text>
</a>
</g>
</g>
<!-- Node3&#45;&gt;Node2 -->
<g id="edge2_Node000002_Node000003" class="edge">
<title>Node3&#45;&gt;Node2</title>
<g id="a_edge2_Node000002_Node000003"><a xlink:title=" ">
<path fill="none" stroke="#63b8ff" stroke-width="2" d="M83.89,-177.19C101.13,-167.74 121.71,-156.45 136.93,-148.1"/>
<polygon fill="#63b8ff" stroke="#63b8ff" stroke-width="2" points="82.34,-174.05 75.26,-181.93 85.71,-180.19 82.34,-174.05"/>
</a>
</g>
</g>
<!-- Node4 -->
<g id="Node000004" class="node">
<title>Node4</title>
<g id="a_Node000004"><a xlink:title=" ">
<polygon fill="white" stroke="#666666" points="197.88,-209 119.62,-209 119.62,-183.75 197.88,-183.75 197.88,-209"/>
<text text-anchor="middle" x="158.75" y="-191.7" font-family="Helvetica,sans-Serif" font-size="14.00">sf::Sprite</text>
</a>
</g>
</g>
<!-- Node4&#45;&gt;Node2 -->
<g id="edge3_Node000002_Node000004" class="edge">
<title>Node4&#45;&gt;Node2</title>
<g id="a_edge3_Node000002_Node000004"><a xlink:title=" ">
<path fill="none" stroke="#63b8ff" stroke-width="2" d="M158.75,-170.41C158.75,-162.68 158.75,-154.52 158.75,-148.1"/>
<polygon fill="#63b8ff" stroke="#63b8ff" stroke-width="2" points="155.25,-170.36 158.75,-180.36 162.25,-170.36 155.25,-170.36"/>
</a>
</g>
</g>
<!-- Node5 -->
<g id="Node000005" class="node">
<title>Node5</title>
<g id="a_Node000005"><a xlink:title=" ">
<polygon fill="white" stroke="#666666" points="303.38,-209 216.12,-209 216.12,-183.75 303.38,-183.75 303.38,-209"/>
<text text-anchor="middle" x="259.75" y="-191.7" font-family="Helvetica,sans-Serif" font-size="14.00">sf::Texture</text>
</a>
</g>
</g>
<!-- Node5&#45;&gt;Node2 -->
<g id="edge4_Node000002_Node000005" class="edge">
<title>Node5&#45;&gt;Node2</title>
<g id="a_edge4_Node000002_Node000005"><a xlink:title=" ">
<path fill="none" stroke="#63b8ff" stroke-width="2" d="M228.29,-176.92C212.27,-167.52 193.25,-156.37 179.16,-148.1"/>
<polygon fill="#63b8ff" stroke="#63b8ff" stroke-width="2" points="226.3,-179.81 236.7,-181.85 229.85,-173.77 226.3,-179.81"/>
</a>
</g>
</g>
<!-- Node6 -->
<g id="Node000006" class="node">
<title>Node6</title>
<g id="a_Node000006"><a xlink:href="../../de/dd3/classUpdateableObject.html" target="_top" xlink:title="Updateable object class.">
<polygon fill="white" stroke="#666666" points="381,-147.75 240.5,-147.75 240.5,-122.5 381,-122.5 381,-147.75"/>
<text text-anchor="middle" x="310.75" y="-130.45" font-family="Helvetica,sans-Serif" font-size="14.00">UpdateableObject</text>
</a>
</g>
</g>
<!-- Node6&#45;&gt;Node1 -->
<g id="edge5_Node000001_Node000006" class="edge">
<title>Node6&#45;&gt;Node1</title>
<g id="a_edge5_Node000001_Node000006"><a xlink:title=" ">
<path fill="none" stroke="#63b8ff" stroke-width="2" d="M285.3,-114.29C273.64,-105.19 260.2,-94.71 250.11,-86.85"/>
<polygon fill="#63b8ff" stroke="#63b8ff" stroke-width="2" points="282.94,-116.89 292.98,-120.27 287.25,-111.37 282.94,-116.89"/>
</a>
</g>
</g>
</g>
</svg>
</svg>

<style type='text/css'>
<![CDATA[
[data-mouse-over-selected='false'] { opacity: 0.7; }
[data-mouse-over-selected='true']  { opacity: 1.0; }
]]>
</style>
<script type="application/ecmascript"><![CDATA[
document.addEventListener('DOMContentLoaded', (event) => {
  highlightEdges();
  highlightAdjacentNodes();
});
]]></script>
</svg>
